<?xml version="1.0" standalone="no"?>
<!DOCTYPE svg PUBLIC "-//W3C//DTD SVG 1.1//EN" "http://www.w3.org/Graphics/SVG/1.1/DTD/svg11.dtd" >
<svg xmlns="http://www.w3.org/2000/svg">
<metadata>Generated by IcoMoon</metadata>
<defs>
<font id="icomoon" horiz-adv-x="1024">
<font-face units-per-em="1024" ascent="960" descent="-64" />
<missing-glyph horiz-adv-x="1024" />
<glyph unicode="&#x20;" horiz-adv-x="512" d="" />
<glyph unicode="&#xe900;" d="M512 529.067c49.485 0 89.6 40.114 89.6 89.599s-40.115 89.6-89.6 89.6c-49.485 0-89.599-40.116-89.599-89.6s40.114-89.599 89.599-89.599z" />
<glyph unicode="&#xe901;" d="M512 324.267c-126.719 0-260.266-62.293-260.266-89.6v-46.933h520.532v46.933c0 27.307-133.547 89.6-260.267 89.6z" />
<glyph unicode="&#xe902;" d="M170.667 234.667c0 113.493 227.413 170.667 341.333 170.667s341.333-57.173 341.333-170.667v-128h-682.667v128zM251.733 234.667v-46.933h520.533v46.933c0 27.307-133.547 89.6-260.267 89.6s-260.267-62.293-260.267-89.6z" />
<glyph unicode="&#xe903;" d="M682.667 618.667c0-94.293-76.373-170.667-170.667-170.667s-170.667 76.373-170.667 170.667c0 94.293 76.373 170.667 170.667 170.667s170.667-76.373 170.667-170.667zM601.6 618.667c0 49.493-40.107 89.6-89.6 89.6s-89.6-40.107-89.6-89.6c0-49.493 40.107-89.6 89.6-89.6s89.6 40.107 89.6 89.6z" />
<glyph unicode="&#xe904;" d="M554.667 234.667c-46.933 0-85.333 38.4-85.333 85.333v256c0 46.933 38.4 85.333 85.333 85.333h256v85.333h-597.333v-597.333h597.333v85.333h-256z" />
<glyph unicode="&#xe905;" d="M896 649.387c25.173-14.507 42.667-41.813 42.667-73.387v-256c0-31.573-17.493-58.453-42.667-73.387v-97.28c0-46.933-38.4-85.333-85.333-85.333h-597.333c-47.36 0-85.333 38.4-85.333 85.333v597.333c0 46.933 37.973 85.333 85.333 85.333h597.333c46.933 0 85.333-38.4 85.333-85.333v-97.28zM853.333 576h-298.667v-256h298.667v256zM213.333 746.667v-597.333h597.333v85.333h-256c-46.933 0-85.333 38.4-85.333 85.333v256c0 46.933 38.4 85.333 85.333 85.333h256v85.333h-597.333z" />
<glyph unicode="&#xe906;" d="M682.667 384c35.345 0 64 28.655 64 64s-28.655 64-64 64c-35.345 0-64-28.655-64-64s28.655-64 64-64z" />
<glyph unicode="&#xe907;" d="M512 789.333c-188.587 0-341.333-152.747-341.333-341.333s152.747-341.333 341.333-341.333c188.587 0 341.333 152.747 341.333 341.333s-152.747 341.333-341.333 341.333zM469.333 234.667v85.333h85.333v-85.333h-85.333zM469.333 661.333v-256h85.333v256h-85.333z" />
<glyph unicode="&#xe908;" d="M85.333 448c0 235.52 190.72 426.667 426.24 426.667 235.947 0 427.093-191.147 427.093-426.667s-191.147-426.667-427.093-426.667c-235.52 0-426.24 191.147-426.24 426.667zM170.667 448c0-188.587 152.747-341.333 341.333-341.333s341.333 152.747 341.333 341.333c0 188.587-152.747 341.333-341.333 341.333s-341.333-152.747-341.333-341.333z" />
<glyph unicode="&#xe909;" d="M469.333 320h85.333v-85.333h-85.333v85.333z" />
<glyph unicode="&#xe90a;" d="M469.333 661.333h85.333v-256h-85.333v256z" />
<glyph unicode="&#xe90b;" d="M833.28 149.333l-321.28 555.094-321.281-555.094h642.561zM469.333 192v85.333h85.333v-85.333h-85.333zM469.333 362.667h85.333v170.667h-85.333v-170.667z" />
<glyph unicode="&#xe90c;" d="M512 874.667l469.333-810.667h-938.667l469.333 810.667zM512 704.427l-321.28-555.093h642.56l-321.28 555.093z" />
<glyph unicode="&#xe90d;" d="M469.333 277.333h85.333v-85.333h-85.333v85.333z" />
<glyph unicode="&#xe90e;" d="M469.333 533.333h85.333v-170.667h-85.333v170.667z" />
<glyph unicode="&#xe90f;" glyph-name="whatsapp" d="M513.707 874.667c-232.96 0-422.827-189.867-422.827-422.827 0-74.667 19.627-147.2 56.32-211.2l-59.733-219.307 224 58.88c61.867-33.707 131.414-51.627 202.24-51.627 232.96 0 422.827 189.867 422.827 422.827 0 113.067-43.947 219.307-123.733 299.093-79.787 80.213-186.027 124.16-299.093 124.16zM514.133 803.413c93.867 0 181.76-36.693 248.32-103.253 66.133-66.56 102.827-154.88 102.827-248.747 0-193.707-157.867-351.147-351.573-351.147-63.147 0-125.014 16.64-178.774 49.067l-12.8 7.253-133.12-34.987 35.413 129.707-8.533 13.653c-34.987 55.040-53.76 120.32-53.76 186.88 0.427 193.707 157.867 351.573 352 351.573zM363.946 647.253c-6.827 0-18.347-2.56-28.16-13.227-9.387-10.667-37.12-36.693-37.12-88.32 0-52.053 37.973-101.973 42.667-109.227 5.973-7.253 75.093-113.92 181.334-159.147 25.173-11.52 44.8-17.92 60.16-22.613 25.173-8.107 48.213-6.827 66.56-4.267 20.48 2.987 62.293 25.6 71.253 50.347s8.96 45.653 6.4 50.347c-2.987 4.267-9.813 6.827-20.48 11.52-10.667 5.973-62.72 31.573-72.107 34.987-9.813 3.413-15.787 5.12-23.893-5.12-6.827-10.667-27.307-34.56-33.28-41.387-6.4-7.253-12.373-8.107-22.613-2.987-11.093 5.547-45.227 16.64-85.333 52.48-31.573 28.16-52.48 62.72-58.88 73.387-5.12 10.24-0.427 16.64 4.693 21.333 4.693 4.693 11.52 12.373 15.787 18.773 5.547 5.973 7.253 10.667 10.667 17.493 3.413 7.253 1.707 13.227-0.853 18.347-2.56 4.693-23.894 57.6-32.854 78.507-8.533 20.48-17.067 17.92-23.893 18.347-5.973 0-12.8 0.427-20.053 0.427z" />
<glyph unicode="&#xe910;" glyph-name="youtube" d="M426.667 320l221.44 128-221.44 128v-256zM919.893 654.080c5.547-20.053 9.387-46.933 11.947-81.067 2.987-34.133 4.267-63.573 4.267-89.173l2.56-35.84c0-93.44-6.827-162.133-18.773-206.080-10.667-38.4-35.413-63.147-73.813-73.813-20.053-5.547-56.747-9.387-113.067-11.947-55.467-2.987-106.24-4.267-153.173-4.267l-67.84-2.56c-178.773 0-290.133 6.827-334.080 18.773-38.4 10.667-63.147 35.413-73.813 73.813-5.547 20.053-9.387 46.933-11.947 81.067-2.987 34.133-4.267 63.573-4.267 89.173l-2.56 35.84c0 93.44 6.827 162.133 18.773 206.080 10.667 38.4 35.413 63.147 73.813 73.813 20.053 5.547 56.747 9.387 113.067 11.947 55.467 2.987 106.24 4.267 153.173 4.267l67.84 2.56c178.773 0 290.133-6.827 334.080-18.773 38.4-10.667 63.147-35.413 73.813-73.813z" />
<glyph unicode="&#xe911;" d="M384 533.333c35.346 0 64 28.654 64 64s-28.654 64-64 64c-35.346 0-64-28.654-64-64s28.654-64 64-64z" />
<glyph unicode="&#xe912;" d="M185.175 234.667h397.652c-35.84 24.747-122.453 53.333-198.825 53.333s-162.987-28.587-198.827-53.333z" />
<glyph unicode="&#xe913;" d="M533.333 597.333c0-82.347-66.987-149.333-149.333-149.333s-149.333 66.987-149.333 149.333c0 82.347 66.987 149.333 149.333 149.333s149.333-66.987 149.333-149.333zM448 597.333c0 35.413-28.587 64-64 64s-64-28.587-64-64c0-35.413 28.587-64 64-64s64 28.587 64 64z" />
<glyph unicode="&#xe914;" d="M85.333 224c0 99.413 198.827 149.333 298.667 149.333s298.667-49.92 298.667-149.333v-74.667h-597.333v74.667zM384 288c-76.373 0-162.987-28.587-198.827-53.333h397.653c-35.84 24.747-122.453 53.333-198.827 53.333z" />
<glyph unicode="&#xe915;" d="M684.373 370.773c49.493-35.84 83.627-83.627 83.627-146.773v-74.667h170.667v74.667c0 86.187-149.333 135.253-254.293 146.773z" />
<glyph unicode="&#xe916;" d="M640 448c82.347 0 149.333 66.987 149.333 149.333s-66.987 149.333-149.333 149.333c-23.040 0-44.373-5.547-64-14.933 26.88-37.973 42.667-84.48 42.667-134.4s-15.787-96.427-42.667-134.4c19.627-9.387 40.96-14.933 64-14.933z" />
<glyph unicode="&#xe917;" glyph-name="add-v2_two_tone" d="M810.667 405.333h-256v-256h-85.333v256h-256v85.333h256v256h85.333v-256h256v-85.333z" />
<glyph unicode="&#xe918;" d="M170.667 448c0 188.16 153.173 341.333 341.333 341.333s341.333-153.173 341.333-341.333c0-188.16-153.173-341.333-341.333-341.333s-341.333 153.173-341.333 341.333zM554.667 405.333h170.667v85.333h-170.667v170.667h-85.333v-170.667h-170.667v-85.333h170.667v-170.667h85.333v170.667z" />
<glyph unicode="&#xe919;" d="M554.667 661.333h-85.333v-170.667h-170.667v-85.333h170.667v-170.667h85.333v170.667h170.667v85.333h-170.667v170.667z" />
<glyph unicode="&#xe91a;" d="M85.333 448c0 235.52 191.147 426.667 426.667 426.667s426.667-191.147 426.667-426.667c0-235.52-191.147-426.667-426.667-426.667s-426.667 191.147-426.667 426.667zM170.667 448c0-188.16 153.173-341.333 341.333-341.333s341.333 153.173 341.333 341.333c0 188.16-153.173 341.333-341.333 341.333s-341.333-153.173-341.333-341.333z" />
<glyph unicode="&#xe91b;" glyph-name="airplane_two_tone" d="M85.333 277.333l341.333 106.667v-234.667l-85.333-64v-64l149.333 42.667 149.333-42.667v64l-85.333 64v234.667l341.333-106.667v85.333l-341.333 213.333v234.667c0 35.413-28.587 64-64 64s-64-28.587-64-64v-234.667l-341.333-213.333v-85.333z" />
<glyph unicode="&#xe91c;" glyph-name="attach_file_two_tone" d="M533.333-21.333c129.707 0 234.667 104.96 234.667 234.667v490.667h-64v-490.667c0-94.293-76.373-170.667-170.667-170.667s-170.667 76.373-170.667 170.667v533.333c0 58.88 47.787 106.667 106.667 106.667s106.667-47.787 106.667-106.667v-448c0-23.467-19.2-42.667-42.667-42.667s-42.667 19.2-42.667 42.667v405.333h-64v-405.333c0-58.88 47.787-106.667 106.667-106.667s106.667 47.787 106.667 106.667v448c0 94.293-76.373 170.667-170.667 170.667s-170.667-76.373-170.667-170.667v-533.333c0-129.707 104.96-234.667 234.667-234.667z" />
<glyph unicode="&#xe91d;" d="M896 746.667c-47.36 14.933-99.413 21.333-149.333 21.333-83.2 0-172.8-17.067-234.667-64-61.867 46.933-151.467 64-234.667 64s-172.8-17.067-234.667-64v-625.067c0-10.667 10.667-21.333 21.333-21.333 4.267 0 6.4 2.133 10.667 2.133 57.6 27.733 140.8 46.933 202.667 46.933 83.2 0 172.8-17.067 234.667-64 57.6 36.267 162.133 64 234.667 64 70.4 0 142.933-12.8 202.667-44.8 4.267-2.133 6.4-2.133 10.667-2.133 10.667 0 21.333 10.667 21.333 21.333v622.933c-25.6 19.2-53.333 32-85.333 42.667zM128 170.667v490.667c46.933 14.933 98.133 21.333 149.333 21.333 57.173 0 133.547-17.493 192-42.24v-490.667c-58.453 24.747-134.827 42.24-192 42.24-51.2 0-102.4-6.4-149.333-21.333zM896 170.667c-46.933 14.933-98.133 21.333-149.333 21.333-57.173 0-133.547-17.493-192-42.24v490.667c58.453 25.173 134.827 42.24 192 42.24 51.2 0 102.4-6.4 149.333-21.333v-490.667z" />
<glyph unicode="&#xe91e;" d="M469.333 640.427c-58.453 24.747-134.827 42.24-192 42.24-51.2 0-102.4-6.4-149.333-21.333v-490.667c46.933 14.933 98.133 21.333 149.333 21.333 57.173 0 133.547-17.493 192-42.24v490.667z" />
<glyph unicode="&#xe91f;" d="M746.667 512c37.547 0 73.813-3.84 106.667-11.093v64.853c-33.707 6.4-69.973 10.24-106.667 10.24-54.613 0-104.96-6.827-149.333-20.053v-66.987c42.24 14.933 93.013 23.040 149.333 23.040z" />
<glyph unicode="&#xe920;" d="M746.667 398.507c37.547 0 73.813-3.84 106.667-11.093v64.853c-33.707 6.4-69.973 10.24-106.667 10.24-54.613 0-104.96-6.827-149.333-20.053v-66.987c42.24 14.507 93.013 23.040 149.333 23.040z" />
<glyph unicode="&#xe921;" d="M746.667 284.587c37.547 0 73.813-3.84 106.667-11.093v64.853c-33.707 6.4-69.973 10.24-106.667 10.24-54.613 0-104.96-6.827-149.333-20.053v-66.987c42.24 14.933 93.013 23.040 149.333 23.040z" />
<glyph unicode="&#xe922;" d="M704 448c82.347 0 149.333 66.987 149.333 149.333s-66.987 149.333-149.333 149.333c-82.347 0-149.333-66.987-149.333-149.333s66.987-149.333 149.333-149.333z" />
<glyph unicode="&#xe923;" d="M640.427 149.333c23.565 0 42.667 19.102 42.667 42.667s-19.102 42.667-42.667 42.667c-23.565 0-42.667-19.102-42.667-42.667s19.102-42.667 42.667-42.667z" />
<glyph unicode="&#xe924;" d="M298.667 277.333c47.128 0 85.333 38.204 85.333 85.333s-38.205 85.333-85.333 85.333c-47.128 0-85.333-38.204-85.333-85.333s38.205-85.333 85.333-85.333z" />
<glyph unicode="&#xe925;" d="M469.333 362.667c0-94.293-76.373-170.667-170.667-170.667s-170.667 76.373-170.667 170.667c0 94.293 76.373 170.667 170.667 170.667s170.667-76.373 170.667-170.667zM384 362.667c0 46.933-38.4 85.333-85.333 85.333s-85.333-38.4-85.333-85.333c0-46.933 38.4-85.333 85.333-85.333s85.333 38.4 85.333 85.333z" />
<glyph unicode="&#xe926;" d="M640.427 320c70.4 0 128-57.6 128-128s-57.6-128-128-128c-70.4 0-128 57.6-128 128s57.6 128 128 128zM640.427 234.667c-23.467 0-42.667-19.2-42.667-42.667s19.2-42.667 42.667-42.667c23.467 0 42.667 19.2 42.667 42.667s-19.2 42.667-42.667 42.667z" />
<glyph unicode="&#xe927;" d="M938.667 597.333c0-129.28-105.387-234.667-234.667-234.667s-234.667 105.387-234.667 234.667c0 129.28 105.387 234.667 234.667 234.667s234.667-105.387 234.667-234.667zM853.333 597.333c0 82.347-66.987 149.333-149.333 149.333s-149.333-66.987-149.333-149.333c0-82.347 66.987-149.333 149.333-149.333s149.333 66.987 149.333 149.333z" />
<glyph unicode="&#xe928;" d="M853.333 832c46.933 0 85.333-38.4 85.333-85.333v-682.667c0-46.933-38.4-85.333-85.333-85.333h-682.667c-46.933 0-85.333 38.4-85.333 85.333v682.667c0 46.933 38.4 85.333 85.333 85.333h42.667v85.333h85.333v-85.333h426.667v85.333h85.333v-85.333h42.667zM853.333 746.667h-682.667v-128h682.667v128zM170.667 533.333v-469.333h682.667v469.333h-682.667z" />
<glyph unicode="&#xe929;" d="M170.667 746.24h682.667v-127.573h-682.667v127.573z" />
<glyph unicode="&#xe92a;" d="M213.333 618.667h597.333v85.333h-597.333v-85.333z" />
<glyph unicode="&#xe92b;" d="M298.667 490.667h85.333v-85.333h-85.333v85.333z" />
<glyph unicode="&#xe92c;" d="M810.667 789.333h-42.667v85.333h-85.333v-85.333h-341.333v85.333h-85.333v-85.333h-42.667c-47.36 0-84.907-38.4-84.907-85.333l-0.427-597.333c0-46.933 37.973-85.333 85.333-85.333h597.333c46.933 0 85.333 38.4 85.333 85.333v597.333c0 46.933-38.4 85.333-85.333 85.333zM810.667 106.667h-597.333v426.667h597.333v-426.667zM213.333 618.667v85.333h597.333v-85.333h-597.333z" />
<glyph unicode="&#xe92d;" d="M640 490.667h85.333v-85.333h-85.333v85.333z" />
<glyph unicode="&#xe92e;" d="M469.333 490.667h85.333v-85.333h-85.333v85.333z" />
<glyph unicode="&#xe92f;" d="M718.080 704h135.253v-512h-682.667v512h172.8l25.6 27.733 52.48 57.6h180.907l52.907-57.6 25.173-27.733h37.547zM298.667 448c0-117.76 95.573-213.333 213.333-213.333s213.333 95.573 213.333 213.333c0 117.76-95.573 213.333-213.333 213.333s-213.333-95.573-213.333-213.333z" />
<glyph unicode="&#xe930;" d="M853.333 106.667h-682.667c-46.933 0-85.333 38.4-85.333 85.333v512c0 46.933 38.4 85.333 85.333 85.333h135.253l78.080 85.333h256l78.080-85.333h135.253c46.933 0 85.333-38.4 85.333-85.333v-512c0-46.933-38.4-85.333-85.333-85.333zM305.92 704h-135.253v-512h682.667v512h-172.8l-25.173 27.733-52.907 57.6h-180.907l-52.907-57.6-25.173-27.733h-37.547z" />
<glyph unicode="&#xe931;" d="M298.667 448c0 117.76 95.573 213.333 213.333 213.333s213.333-95.573 213.333-213.333c0-117.76-95.573-213.333-213.333-213.333s-213.333 95.573-213.333 213.333zM375.467 448c0-75.52 61.013-136.533 136.533-136.533s136.533 61.013 136.533 136.533c0 75.52-61.013 136.533-136.533 136.533s-136.533-61.013-136.533-136.533z" />
<glyph unicode="&#xe932;" d="M218.453 490.667l-5.12-14.507v-198.827h597.333v198.827l-5.12 14.507h-587.093zM320 320c-35.413 0-64 28.587-64 64s28.587 64 64 64c35.413 0 64-28.587 64-64s-28.587-64-64-64zM640 384c0 35.413 28.587 64 64 64s64-28.587 64-64c0-35.413-28.587-64-64-64s-64 28.587-64 64z" />
<glyph unicode="&#xe933;" d="M807.253 746.24l88.747-255.573v-341.333c0-23.467-19.2-42.667-42.667-42.667h-42.667c-23.467 0-42.667 19.2-42.667 42.667v42.667h-512v-42.667c0-23.467-19.2-42.667-42.667-42.667h-42.667c-23.467 0-42.667 19.2-42.667 42.667v341.333l88.747 255.573c8.96 25.173 32.427 43.093 60.587 43.093h469.333c28.16 0 52.053-17.92 60.587-43.093zM292.267 704l-44.373-128h527.787l-44.373 128h-439.040zM768 277.333h42.667v198.827l-4.693 14.507h-587.52l-5.12-14.507v-198.827h554.667z" />
<glyph unicode="&#xe934;" d="M320 320c35.346 0 64 28.655 64 64s-28.654 64-64 64c-35.346 0-64-28.655-64-64s28.654-64 64-64z" />
<glyph unicode="&#xe935;" d="M704 320c35.345 0 64 28.655 64 64s-28.655 64-64 64c-35.345 0-64-28.655-64-64s28.655-64 64-64z" />
<glyph unicode="&#xe936;" d="M243.625 720.214l55.040 55.040 362.242-362.24-119.893-119.893-297.388 427.094z" />
<glyph unicode="&#xe937;" d="M841.813 352.853l-543.147 543.147-165.973-165.973 346.88-497.92c-33.28-33.28-33.28-87.467 0-120.747l60.16-60.16c33.28-33.28 87.467-33.28 120.747 0l180.907 180.907c33.707 33.28 33.707 87.467 0.427 120.747zM243.626 720.213l55.040 55.040 362.24-362.24-119.893-119.893-297.387 427.093zM600.32 111.787l-60.16 60.16 180.907 180.907 60.16-60.16-180.907-180.907z" />
<glyph unicode="&#xe938;" d="M663.462 490.667l117.76 213.333h-518.4l101.12-213.333h299.52z" />
<glyph unicode="&#xe939;" d="M738.133 449.28c-14.507-26.453-42.667-43.947-74.667-43.947h-317.867l-46.933-85.333h512v-85.333h-512c-64.853 0-105.813 69.547-74.667 126.72l57.6 104.107-153.6 323.84h-85.333v85.333h139.52l40.107-85.333h631.467c32.427 0 52.907-34.987 37.12-63.147l-152.747-276.907zM781.227 704h-518.4l101.12-213.333h299.52l117.76 213.333z" />
<glyph unicode="&#xe93a;" d="M298.667 192c-46.933 0-84.907-38.4-84.907-85.333s37.973-85.333 84.907-85.333c46.933 0 85.333 38.4 85.333 85.333s-38.4 85.333-85.333 85.333z" />
<glyph unicode="&#xe93b;" d="M725.333 192c-46.933 0-84.907-38.4-84.907-85.333s37.973-85.333 84.907-85.333c46.933 0 85.333 38.4 85.333 85.333s-38.4 85.333-85.333 85.333z" />
<glyph unicode="&#xe93c;" d="M663.467 490.667l117.76 213.333h-518.399l101.12-213.333h299.519z" />
<glyph unicode="&#xe93d;" d="M738.133 449.28c-14.507-26.453-42.667-43.947-74.667-43.947h-317.867l-46.933-85.333h512v-85.333h-512c-64.853 0-105.813 69.547-74.667 126.72l57.6 104.107-153.6 323.84h-85.333v85.333h139.52l40.107-85.333h631.467c32.427 0 52.907-34.987 37.12-63.147l-152.747-276.907zM781.227 704h-518.4l101.12-213.333h299.52l117.76 213.333z" />
<glyph unicode="&#xe93e;" d="M298.667 192c-46.933 0-84.907-38.4-84.907-85.333s37.973-85.333 84.907-85.333c46.933 0 85.333 38.4 85.333 85.333s-38.4 85.333-85.333 85.333z" />
<glyph unicode="&#xe93f;" d="M725.333 192c-46.933 0-84.907-38.4-84.907-85.333s37.973-85.333 84.907-85.333c46.933 0 85.333 38.4 85.333 85.333s-38.4 85.333-85.333 85.333z" />
<glyph unicode="&#xe940;" d="M170.667 106.667h682.667v341.333h-682.667v-341.333z" />
<glyph unicode="&#xe941;" d="M170.667 704h682.667v-85.333h-682.667v85.333z" />
<glyph unicode="&#xe942;" d="M256 874.667h512v-85.333h-512v85.333z" />
<glyph unicode="&#xe943;" d="M170.667 533.333h682.667c46.933 0 85.333-38.4 85.333-85.333v-341.333c0-46.933-38.4-85.333-85.333-85.333h-682.667c-46.933 0-85.333 38.4-85.333 85.333v341.333c0 46.933 38.4 85.333 85.333 85.333zM170.667 106.667h682.667v341.333h-682.667v-341.333z" />
<glyph unicode="&#xe945;" d="M512 874.667c235.641 0 426.667-191.025 426.667-426.667s-191.025-426.667-426.667-426.667c-235.641 0-426.667 191.025-426.667 426.667s191.025 426.667 426.667 426.667z" />
<glyph unicode="&#xe946;" d="M653.402 584.837c16.666 16.662 43.678 16.662 60.343 0 16.661-16.663 16.661-43.677 0-60.34l-256-256c-16.666-16.661-43.679-16.661-60.342 0l-107.573 107.571c-16.662 16.666-16.662 43.678 0 60.343 16.663 16.661 43.677 16.661 60.34 0l77.401-77.406 225.83 225.831z" />
<glyph unicode="&#xe947;" d="M213.333 874.667h597.333c70.692 0 128-57.308 128-128v-597.333c0-70.692-57.308-128-128-128h-597.333c-70.692 0-128 57.308-128 128v597.333c0 70.692 57.308 128 128 128z" />
<glyph unicode="&#xe948;" d="M653.402 584.837c16.666 16.662 43.678 16.662 60.343 0 16.661-16.663 16.661-43.677 0-60.34l-256-256c-16.666-16.661-43.679-16.661-60.342 0l-107.573 107.571c-16.662 16.666-16.662 43.678 0 60.343 16.663 16.661 43.677 16.661 60.34 0l77.401-77.406 225.83 225.831z" />
<glyph unicode="&#xe949;" glyph-name="check_two_tone" d="M384.001 270.080l-177.92 177.92-60.587-60.16 238.507-238.507 511.999 511.999-60.16 60.16-451.839-451.412z" />
<glyph unicode="&#xe94a;" glyph-name="check-empty" d="M249.422 789.333c-39.138 0-48.71-1.848-58.364-7.011-5.988-3.203-10.178-7.392-13.38-13.38-5.163-9.653-7.011-19.226-7.011-58.364v-525.157c0-39.138 1.848-48.708 7.011-58.364 3.203-5.986 7.392-10.176 13.38-13.38 9.653-5.163 19.226-7.010 58.364-7.010h525.157c39.138 0 48.708 1.847 58.364 7.010 5.986 3.204 10.176 7.394 13.38 13.38 5.163 9.655 7.010 19.226 7.010 58.364v525.157c0 39.138-1.847 48.71-7.010 58.364-3.204 5.988-7.394 10.178-13.38 13.38-9.655 5.163-19.226 7.011-58.364 7.011h-525.157zM249.422 874.667h525.157c57.058 0 77.747-5.941 98.607-17.097s37.227-27.526 48.384-48.385c11.157-20.859 17.097-41.55 17.097-98.607v-525.157c0-57.058-5.939-77.747-17.097-98.607s-27.524-37.227-48.384-48.384c-20.86-11.157-41.549-17.097-98.607-17.097h-525.157c-57.057 0-77.748 5.939-98.607 17.097s-37.23 27.524-48.385 48.384c-11.156 20.86-17.097 41.549-17.097 98.607v525.157c0 57.057 5.941 77.748 17.097 98.607s27.526 37.23 48.385 48.385c20.859 11.156 41.55 17.097 98.607 17.097z" />
<glyph unicode="&#xe94b;" glyph-name="checkroom" d="M921.6 183.467l-366.933 275.2v38.827c70.4 20.907 119.467 92.587 103.68 172.8-11.093 55.893-55.467 102.4-111.36 115.2-97.28 22.187-184.319-51.626-184.319-145.493h85.332c0 35.413 28.587 64 64 64s64-28.587 64-64c0-35.84-29.44-64.853-65.28-64-23.040 0.427-41.387-19.2-41.387-42.24v-75.093l-366.932-275.2c-32.853-24.747-15.36-76.8 25.6-76.8h767.999c40.96 0 58.453 52.053 25.6 76.8zM256.001 192l255.999 192 256-192h-511.999z" />
<glyph unicode="&#xe94c;" glyph-name="chevron-left_two_tone" d="M657.493 643.84l-60.16 60.16-256-256 256-256 60.16 60.16-195.413 195.84 195.413 195.84z" />
<glyph unicode="&#xe94d;" glyph-name="chevron-right_two_tone" d="M426.665 704l-60.16-60.16 195.415-195.84-195.415-195.84 60.16-60.16 256.001 256-256.001 256z" />
<glyph unicode="&#xe94e;" d="M640 774.827v-156.16h156.16c-26.027 72.533-83.627 130.133-156.16 156.16z" />
<glyph unicode="&#xe94f;" d="M343.040 347.307l18.773-28.587c50.773-6.827 93.44-39.253 114.347-84.053h114.347c23.893 50.347 75.52 85.333 134.827 85.333 6.4 0 13.227-0.427 19.627-1.28l12.373 15.787c17.067 21.76 29.867 45.653 39.253 70.827h-482.133c13.653-28.587 24.32-50.773 28.587-58.027z" />
<glyph unicode="&#xe950;" d="M554.667 533.333v341.333c188.587 0 341.333-152.747 341.333-341.333h-341.333zM640 774.827v-156.16h156.16c-26.027 72.96-83.627 130.56-156.16 156.16z" />
<glyph unicode="&#xe951;" d="M234.24 576l40.533-85.333h621.227c0-78.507-26.88-151.040-71.68-208.64 30.72-27.307 50.347-66.987 50.347-111.36 0-82.347-66.987-149.333-149.333-149.333-75.093 0-137.387 55.467-147.627 128h-88.747c-10.24-72.533-72.533-128-147.627-128-82.347 0-149.333 66.987-149.333 149.333 0 56.747 31.573 106.24 78.507 131.413-9.813 14.933-90.453 188.587-90.453 188.587h-94.72v85.333h148.907zM277.333 170.667c0-35.413 28.587-64 64-64s64 28.587 64 64c0 35.413-28.587 64-64 64s-64-28.587-64-64zM725.333 106.667c-35.413 0-64 28.587-64 64s28.587 64 64 64c35.413 0 64-28.587 64-64s-28.587-64-64-64zM744.533 318.72l12.373 15.787c17.067 21.76 30.293 45.653 39.253 70.827h-481.707c5.331-10.825 10.112-20.727 14.225-29.257 6.752-13.99 11.71-24.265 14.361-28.77l18.773-28.587c50.347-7.253 93.013-39.68 114.347-84.053h114.347c23.893 50.347 75.52 85.333 134.827 85.333 6.4 0 13.227-0.427 19.2-1.28z" />
<glyph unicode="&#xe952;" d="M725.333 661.333h-426.667v128h-85.333v-682.667h597.333v682.667h-85.333v-128z" />
<glyph unicode="&#xe953;" d="M810.667 874.667c46.933 0 85.333-38.4 85.333-85.333v-682.667c0-46.933-38.4-85.333-85.333-85.333h-597.333c-46.933 0-85.333 38.4-85.333 85.333v682.667c0 46.933 38.4 85.333 85.333 85.333h178.347c17.92 49.493 64.853 85.333 120.32 85.333s102.4-35.84 120.32-85.333h178.347zM512 874.667c-23.467 0-42.667-19.2-42.667-42.667s19.2-42.667 42.667-42.667c23.467 0 42.667 19.2 42.667 42.667s-19.2 42.667-42.667 42.667zM213.333 789.333v-682.667h597.333v682.667h-85.333v-128h-426.667v128h-85.333z" />
<glyph unicode="&#xe954;" d="M170.667 448c0 188.587 152.747 341.333 341.333 341.333s341.333-152.747 341.333-341.333c0-188.587-152.747-341.333-341.333-341.333s-341.333 152.747-341.333 341.333zM469.333 405.333l224-134.4 32 52.48-192 113.92v224h-64v-256z" />
<glyph unicode="&#xe955;" d="M85.333 448c0 235.52 190.72 426.667 426.24 426.667 235.947 0 427.093-191.147 427.093-426.667s-191.147-426.667-427.093-426.667c-235.52 0-426.24 191.147-426.24 426.667zM170.667 448c0-188.587 152.747-341.333 341.333-341.333s341.333 152.747 341.333 341.333c0 188.587-152.747 341.333-341.333 341.333s-341.333-152.747-341.333-341.333z" />
<glyph unicode="&#xe956;" d="M533.333 661.333h-64v-256l224-134.4 32 52.48-192 113.92v224z" />
<glyph unicode="&#xe957;" d="M235.093 148.907l-93.867 341.76h741.973l-93.867-341.333-554.24-0.427zM426.667 320c0-46.933 38.4-85.333 85.333-85.333s85.333 38.4 85.333 85.333c0 46.933-38.4 85.333-85.333 85.333s-85.333-38.4-85.333-85.333z" />
<glyph unicode="&#xe958;" d="M938.667 576c23.467 0 42.667-19.2 42.667-42.667l-1.28-11.52-108.373-395.52c-10.24-35.84-43.093-62.293-82.347-62.293h-554.667c-39.253 0-72.107 26.453-81.92 62.293l-108.373 395.52c-1.28 3.84-1.707 7.68-1.707 11.52 0 23.467 19.2 42.667 42.667 42.667h204.373l186.88 279.467c8.107 12.373 21.76 18.347 35.413 18.347s27.307-5.973 35.413-17.92l186.88-279.893h204.373zM512 755.2l-119.467-179.2h238.933l-119.467 179.2zM235.093 148.907l554.24 0.427 93.867 341.333h-741.973l93.867-341.76z" />
<glyph unicode="&#xe959;" d="M512 405.333c-46.933 0-85.333-38.4-85.333-85.333s38.4-85.333 85.333-85.333c46.933 0 85.333 38.4 85.333 85.333s-38.4 85.333-85.333 85.333z" />
<glyph unicode="&#xe95a;" glyph-name="close_two_tone" d="M810.667 686.507l-60.16 60.16-238.507-238.507-238.507 238.507-60.16-60.16 238.507-238.507-238.507-238.507 60.16-60.16 238.507 238.507 238.507-238.507 60.16 60.16-238.507 238.507 238.507 238.507z" />
<glyph unicode="&#xe95b;" d="M341.333 661.333h469.333v-597.333h-469.333v597.333z" />
<glyph unicode="&#xe95c;" d="M682.667 917.333h-512c-46.933 0-85.333-38.4-85.333-85.333v-597.333h85.333v597.333h512v85.333z" />
<glyph unicode="&#xe95d;" d="M341.333 746.667h469.333c46.933 0 85.333-38.4 85.333-85.333v-597.333c0-46.933-38.4-85.333-85.333-85.333h-469.333c-46.933 0-85.333 38.4-85.333 85.333v597.333c0 46.933 38.4 85.333 85.333 85.333zM341.333 64h469.333v597.333h-469.333v-597.333z" />
<glyph unicode="&#xe95e;" d="M170.667 448h682.667v-256h-682.667v256z" />
<glyph unicode="&#xe95f;" d="M170.667 704h682.667v-85.333h-682.667v85.333z" />
<glyph unicode="&#xe960;" d="M853.333 789.333h-682.667c-47.36 0-84.907-37.973-84.907-85.333l-0.427-512c0-47.36 37.973-85.333 85.333-85.333h682.667c47.36 0 85.333 37.973 85.333 85.333v512c0 47.36-37.973 85.333-85.333 85.333zM853.333 192h-682.667v256h682.667v-256zM170.667 618.667v85.333h682.667v-85.333h-682.667z" />
<glyph unicode="&#xe961;" d="M341.333 576h341.333v-426.667h-341.333v426.667z" />
<glyph unicode="&#xe962;" d="M661.333 789.333l-42.667 42.667h-213.333l-42.667-42.667h-149.333v-85.333h597.333v85.333h-149.333z" />
<glyph unicode="&#xe963;" d="M341.333 64c-46.933 0-85.333 38.4-85.333 85.333v512h512v-512c0-46.933-38.4-85.333-85.333-85.333h-341.333zM682.667 576h-341.333v-426.667h341.333v426.667z" />
<glyph unicode="&#xe964;" d="M128 320h33.28c23.467 26.027 57.173 42.667 94.72 42.667s71.253-16.64 94.72-42.667h289.28v384h-512v-384z" />
<glyph unicode="&#xe965;" d="M725.333 789.333v-170.667h128l128-170.667v-213.333h-85.333c0-70.827-57.173-128-128-128s-128 57.173-128 128h-256c0-70.827-57.173-128-128-128s-128 57.173-128 128h-85.333v469.333c0 46.933 38.4 85.333 85.333 85.333h597.333zM256 192c23.467 0 42.667 19.2 42.667 42.667s-19.2 42.667-42.667 42.667c-23.467 0-42.667-19.2-42.667-42.667s19.2-42.667 42.667-42.667zM350.72 320h289.28v384h-512v-384h33.28c23.467 26.027 56.747 42.667 94.72 42.667s71.253-16.64 94.72-42.667zM768 192c23.467 0 42.667 19.2 42.667 42.667s-19.2 42.667-42.667 42.667c-23.467 0-42.667-19.2-42.667-42.667s19.2-42.667 42.667-42.667zM725.333 554.667v-106.667h190.293l-83.627 106.667h-106.667z" />
<glyph unicode="&#xe966;" d="M810.667 149.333h-597.333v597.333h597.333v-597.333zM426.667 355.413l-110.507 110.080-60.16-60.16 170.667-170.667 341.333 341.333-60.16 60.587-281.173-281.173z" />
<glyph unicode="&#xe967;" d="M768 576l-60.16 60.587-281.173-281.174-110.507 110.080-60.16-60.16 170.667-170.667 341.333 341.334z" />
<glyph unicode="&#xe968;" d="M810.667 832c46.933 0 85.333-38.4 85.333-85.333v-597.333c0-46.933-38.4-85.333-85.333-85.333h-597.333c-5.973 0-11.52 0.427-17.067 1.28-16.64 3.413-31.573 11.947-43.093 23.467-7.68 8.107-14.080 17.067-18.347 27.307s-6.827 21.76-6.827 33.28v597.333c0 11.947 2.56 22.613 6.827 32.853s10.667 19.627 18.347 27.307c11.52 11.52 26.453 20.053 43.093 23.467 5.547 1.28 11.093 1.707 17.067 1.707h178.347c17.92 49.493 64.853 85.333 120.32 85.333s102.4-35.84 120.32-85.333h178.347zM512 842.667c-17.493 0-32-14.507-32-32s14.507-32 32-32c17.493 0 32 14.507 32 32s-14.507 32-32 32zM213.333 746.667v-597.333h597.333v597.333h-597.333z" />
<glyph unicode="&#xe969;" d="M554.667 576v170.667h-85.333v-256h-49.919l92.586-92.587 92.587 92.587h-49.92v85.333z" />
<glyph unicode="&#xe96a;" d="M640 832v-256h170.667l-298.667-298.667-298.667 298.667h170.667v256h256zM419.413 490.667l92.587-92.587 92.587 92.587h-49.92v256h-85.333v-256h-49.92z" />
<glyph unicode="&#xe96b;" d="M213.333 192h597.333v-85.333h-597.333v85.333z" />
<glyph unicode="&#xe96c;" d="M213.333 188.587v-39.253h39.253l386.56 386.56-39.253 39.253-386.56-386.56z" />
<glyph unicode="&#xe96d;" d="M883.627 659.627c16.64 16.64 16.64 43.52 0 60.16l-99.84 99.84c-8.533 8.533-19.2 12.373-30.293 12.373s-21.76-4.267-29.867-12.373l-78.080-78.080 160-160 78.080 78.080zM128 224v-160h160l471.893 471.893-160 160-471.893-471.893zM252.587 149.333h-39.253v39.253l386.56 386.56 39.253-39.253-386.56-386.56z" />
<glyph unicode="&#xe96e;" d="M853.333 618.667l-341.333-213.333-341.333 213.333v-426.667h682.667v426.667z" />
<glyph unicode="&#xe96f;" d="M853.333 704h-682.667l341.333-212.907 341.333 212.907z" />
<glyph unicode="&#xe970;" d="M853.333 106.667h-682.667c-46.933 0-85.333 38.4-85.333 85.333v512c0 46.933 38.4 85.333 85.333 85.333h682.667c46.933 0 85.333-38.4 85.333-85.333v-512c0-46.933-38.4-85.333-85.333-85.333zM853.333 704h-682.667l341.333-212.907 341.333 212.907zM512 405.333l-341.333 213.333v-426.667h682.667v426.667l-341.333-213.333z" />
<glyph unicode="&#xe971;" d="M135.682 469.333c70.4 143.787 214.613 234.667 376.322 234.667 161.707 0 305.92-90.88 376.32-234.667-70.4-143.787-214.613-234.667-376.32-234.667-161.709 0-305.922 90.88-376.322 234.667zM320.002 469.333c0-105.813 86.187-192 192.002-192 105.813 0 192 86.187 192 192s-86.187 192-192 192c-105.815 0-192.002-86.187-192.002-192z" />
<glyph unicode="&#xe972;" d="M42.667 469.333c73.813 187.307 256 320 469.333 320s395.52-132.693 469.333-320c-73.813-187.307-256-320-469.333-320s-395.52 132.693-469.333 320zM135.68 469.333c70.4-143.787 214.613-234.667 376.32-234.667s305.92 90.88 376.32 234.667c-70.4 143.787-214.613 234.667-376.32 234.667s-305.92-90.88-376.32-234.667z" />
<glyph unicode="&#xe973;" d="M320 469.333c0 105.813 86.187 192 192 192s192-86.187 192-192c0-105.813-86.187-192-192-192s-192 86.187-192 192zM405.333 469.333c0-58.88 47.787-106.667 106.667-106.667s106.667 47.787 106.667 106.667c0 58.88-47.787 106.667-106.667 106.667s-106.667-47.787-106.667-106.667z" />
<glyph unicode="&#xe974;" d="M512 362.667c1.707 0 3.413 0.427 5.12 0.427l-111.36 111.36c0-1.707-0.427-3.413-0.427-5.12 0-58.88 47.787-106.667 106.667-106.667z" />
<glyph unicode="&#xe975;" d="M555.093 567.040l54.613-54.614c-11.093 24.32-30.293 43.947-54.613 54.614z" />
<glyph unicode="&#xe976;" d="M888.32 469.333c-70.4 143.787-214.613 234.667-376.32 234.667-29.013 0-57.173-3.84-84.907-9.387l39.253-39.253c14.933 3.84 29.867 5.973 45.653 5.973 105.813 0 192-86.187 192-192 0-15.787-2.56-30.72-5.973-45.653l87.467-87.467c41.813 36.693 77.227 81.493 102.827 133.12z" />
<glyph unicode="&#xe977;" d="M512.004 234.667c40.533 0 79.787 5.547 117.333 16.64l-41.813 41.813c-23.040-10.24-48.64-15.787-75.52-15.787-105.815 0-192.002 86.187-192.002 192 0 26.88 5.547 52.48 15.36 75.52l-74.667 75.093c-52.053-38.827-95.147-89.6-125.013-150.187 70.4-143.787 214.613-235.093 376.322-235.093z" />
<glyph unicode="&#xe978;" d="M512 704c161.707 0 305.92-90.88 376.32-234.667-25.173-52.053-60.587-96.853-102.827-133.12l60.16-60.16c59.307 52.48 106.24 118.187 135.68 193.28-73.813 187.307-256 320-469.333 320-54.187 0-106.24-8.533-155.307-24.32l70.4-70.4c27.733 5.547 55.893 9.387 84.907 9.387z" />
<glyph unicode="&#xe979;" d="M609.284 512.427l88.32-88.32c3.413 14.507 5.973 29.867 5.973 45.653 0.427 105.813-85.76 191.573-191.573 191.573-15.787 0-30.72-2.56-45.653-5.973l88.32-88.32c24.747-10.667 43.947-30.293 54.613-54.613z" />
<glyph unicode="&#xe97a;" d="M85.76 794.88l114.347-114.347c-69.547-54.613-124.587-127.147-157.44-211.2 73.813-187.307 256-320 469.333-320 64.853 0 127.147 12.373 184.32 34.987l145.92-145.92 60.16 60.16-756.48 756.906-60.16-60.587zM405.76 474.88l111.36-111.36c-1.707-0.427-3.413-0.853-5.12-0.853-58.88 0-106.667 47.787-106.667 106.667 0 1.067 0.107 1.92 0.213 2.773v0 0c0.107 0.853 0.213 1.707 0.213 2.773zM335.36 545.28l-74.667 74.667c-51.627-39.253-95.147-89.6-125.013-150.613 70.4-143.787 214.613-234.667 376.32-234.667 40.533 0 79.787 5.973 117.333 16.213l-41.813 41.813c-23.040-9.813-48.64-15.36-75.52-15.36-105.813 0-192 86.187-192 192 0 26.88 5.547 52.48 15.36 75.946z" />
<glyph unicode="&#xe97b;" glyph-name="facebook" d="M512 872.96c-234.667 0-426.667-191.573-426.667-427.52 0-213.333 156.16-390.4 360.107-422.4v298.667h-108.373v123.733h108.373v94.293c0 107.093 63.573 165.973 161.28 165.973 46.507 0 95.147-8.107 95.147-8.107v-105.387h-53.76c-52.907 0-69.547-32.853-69.547-66.56v-80.213h118.613l-19.2-123.733h-99.413v-298.667c100.54 15.876 192.094 67.179 258.129 144.636 66.035 77.461 102.208 175.974 101.978 277.764 0 235.946-192 427.52-426.667 427.52z" />
<glyph unicode="&#xe97c;" d="M554.667 789.333h-298.667v-682.667h512v469.333h-213.333v213.333z" />
<glyph unicode="&#xe97d;" d="M597.333 874.667l256-256v-512c0-46.933-38.4-85.333-85.333-85.333h-512.427c-46.933 0-84.907 38.4-84.907 85.333l0.427 682.667c0 46.933 37.973 85.333 84.907 85.333h341.333zM256 106.667h512v469.333h-213.333v213.333h-298.667v-682.667z" />
<glyph unicode="&#xe97e;" glyph-name="fitness_center" d="M877.653 325.973l61.013 61.013-61.013 61.013-152.32-152.32-365.653 365.653 152.32 152.32-61.013 61.013-61.013-61.013-61.013 61.013-91.307-91.307-61.013 61.013-61.013-61.013 61.013-61.013-91.307-91.307 61.013-61.013-61.013-61.013 61.013-61.013 152.32 152.32 365.653-365.653-152.32-152.32 61.013-61.013 61.013 61.013 61.013-61.013 91.307 91.307 61.013-61.013 61.013 61.013-61.013 61.013 91.307 91.307-61.013 61.013z" />
<glyph unicode="&#xe97f;" d="M705.28 661.333h-386.56c-42.24 0-78.507-31.573-84.48-73.387l-46.507-326.4c-1.28-8.96 2.133-14.933 5.547-18.773 2.987-3.84 8.533-8.107 17.493-8.107 6.4 0 12.373 2.56 16.64 6.827l121.173 121.173h326.827l121.173-121.173c4.267-4.267 10.24-6.827 16.64-6.827 8.96 0 14.507 4.267 17.92 8.107s6.827 9.813 5.547 18.773l-46.507 326.827c-6.4 41.387-42.667 72.96-84.907 72.96zM469.333 490.667h-85.333v-85.333h-42.667v85.333h-85.333v42.667h85.333v85.333h42.667v-85.333h85.333v-42.667zM640 533.333c-23.467 0-42.667 19.2-42.667 42.667s19.2 42.667 42.667 42.667c23.467 0 42.667-19.2 42.667-42.667s-19.2-42.667-42.667-42.667zM725.333 405.333c-23.467 0-42.667 19.2-42.667 42.667s19.2 42.667 42.667 42.667c23.467 0 42.667-19.2 42.667-42.667s-19.2-42.667-42.667-42.667z" />
<glyph unicode="&#xe980;" d="M920.742 273.493l-46.507 326.827c-11.947 84.053-84.053 146.347-168.96 146.347h-386.558c-84.907 0-157.013-62.293-168.96-146.347l-46.507-326.827c-9.387-65.707 41.387-124.16 107.52-124.16 29.013 0 56.32 11.52 76.8 32l96.427 96h255.998l96-96c20.48-20.48 48.213-32 76.8-32 66.56 0 117.333 58.453 107.947 124.16zM831.142 242.773c-3.413-3.84-8.96-8.107-17.92-8.107-6.4 0-12.373 2.56-16.64 6.827l-121.173 121.173h-326.825l-121.173-121.173c-4.267-4.267-10.24-6.827-16.64-6.827-8.96 0-14.507 4.267-17.92 8.107s-6.827 9.813-5.547 18.773l46.507 326.827c6.4 41.387 42.667 72.96 84.907 72.96h386.558c42.24 0 78.507-31.573 84.48-73.387l46.507-326.827c1.28-8.533-2.133-14.507-5.12-18.347z" />
<glyph unicode="&#xe981;" d="M384 618.667h-42.667v-85.333h-85.333v-42.667h85.333v-85.333h42.667v85.333h85.333v42.667h-85.333v85.333z" />
<glyph unicode="&#xe982;" d="M725.333 405.333c23.565 0 42.667 19.102 42.667 42.667s-19.102 42.667-42.667 42.667c-23.565 0-42.667-19.102-42.667-42.667s19.102-42.667 42.667-42.667z" />
<glyph unicode="&#xe983;" d="M640 533.333c23.565 0 42.667 19.103 42.667 42.667s-19.102 42.667-42.667 42.667c-23.565 0-42.667-19.103-42.667-42.667s19.102-42.667 42.667-42.667z" />
<glyph unicode="&#xe984;" d="M512 490.667v85.333h341.333v-426.667h-341.333v85.333h85.333v85.333h-85.333v85.333h85.333v85.333h-85.333zM682.667 490.667v-85.333h85.333v85.333h-85.333zM768 320h-85.333v-85.333h85.333v85.333z" />
<glyph unicode="&#xe985;" d="M512 661.333h426.667v-597.333h-853.333v768h426.667v-170.667zM170.667 149.333h85.333v85.333h-85.333v-85.333zM256 320h-85.333v85.333h85.333v-85.333zM170.667 490.667h85.333v85.333h-85.333v-85.333zM256 661.333h-85.333v85.333h85.333v-85.333zM341.333 149.333h85.333v85.333h-85.333v-85.333zM426.667 320h-85.333v85.333h85.333v-85.333zM341.333 490.667h85.333v85.333h-85.333v-85.333zM426.667 661.333h-85.333v85.333h85.333v-85.333zM512 149.333h341.333v426.667h-341.333v-85.333h85.333v-85.333h-85.333v-85.333h85.333v-85.333h-85.333v-85.333z" />
<glyph unicode="&#xe986;" d="M682.667 490.667h85.333v-85.333h-85.333v85.333z" />
<glyph unicode="&#xe987;" d="M682.667 320h85.333v-85.333h-85.333v85.333z" />
<glyph unicode="&#xe988;" d="M512 789.333c-188.16 0-341.333-153.173-341.333-341.333s153.173-341.333 341.333-341.333c188.16 0 341.333 153.173 341.333 341.333s-153.173 341.333-341.333 341.333zM469.333 234.667v256h85.333v-256h-85.333zM469.333 661.333v-85.333h85.333v85.333h-85.333z" />
<glyph unicode="&#xe989;" d="M469.333 661.333h85.333v-85.333h-85.333v85.333z" />
<glyph unicode="&#xe98a;" d="M469.333 490.667h85.333v-256h-85.333v256z" />
<glyph unicode="&#xe98b;" d="M85.333 448c0 235.52 191.147 426.667 426.667 426.667s426.667-191.147 426.667-426.667c0-235.52-191.147-426.667-426.667-426.667s-426.667 191.147-426.667 426.667zM170.667 448c0-188.16 153.173-341.333 341.333-341.333s341.333 153.173 341.333 341.333c0 188.16-153.173 341.333-341.333 341.333s-341.333-153.173-341.333-341.333z" />
<glyph unicode="&#xe98c;" glyph-name="input-down_two_tone" d="M298.667 533.333l213.333-213.333 213.333 213.333h-426.667z" />
<glyph unicode="&#xe98d;" glyph-name="input-up_two_tone" d="M298.667 362.667l213.333 213.333 213.333-213.333h-426.667z" />
<glyph unicode="&#xe98e;" glyph-name="instagram" d="M332.8 874.667h358.4c136.533 0 247.467-110.933 247.467-247.467v-358.4c0-65.634-26.074-128.576-72.482-174.985s-109.35-72.482-174.985-72.482h-358.4c-136.533 0-247.467 110.933-247.467 247.467v358.4c0 65.632 26.072 128.576 72.481 174.985s109.353 72.481 174.985 72.481zM324.267 789.333c-40.737 0-79.806-16.183-108.611-44.989s-44.989-67.874-44.989-108.611v-375.467c0-84.907 68.693-153.6 153.6-153.6h375.467c40.738 0 79.808 16.183 108.612 44.988s44.988 67.874 44.988 108.612v375.467c0 84.907-68.693 153.6-153.6 153.6h-375.467zM736 725.333c14.144 0 27.712-5.619 37.713-15.621s15.62-23.567 15.62-37.712c0-14.145-5.619-27.71-15.62-37.712s-23.569-15.621-37.713-15.621c-14.144 0-27.712 5.619-37.713 15.621s-15.62 23.567-15.62 37.712c0 14.145 5.619 27.71 15.62 37.712s23.569 15.621 37.713 15.621zM512 661.333c56.58 0 110.844-22.476 150.848-62.484 40.009-40.008 62.485-94.269 62.485-150.849s-22.477-110.844-62.485-150.848c-40.004-40.009-94.268-62.485-150.848-62.485s-110.842 22.477-150.849 62.485c-40.008 40.004-62.484 94.268-62.484 150.848s22.476 110.842 62.484 150.849c40.008 40.008 94.269 62.484 150.849 62.484zM512 576c-33.946 0-66.505-13.486-90.51-37.49s-37.49-56.564-37.49-90.51c0-33.946 13.486-66.505 37.49-90.509s56.564-37.491 90.51-37.491c33.946 0 66.505 13.487 90.509 37.491s37.491 56.563 37.491 90.509c0 33.946-13.487 66.505-37.491 90.51s-56.563 37.49-90.509 37.49z" />
<glyph unicode="&#xe98f;" glyph-name="left-arrow-2_two_tone" d="M853.333 490.667h-519.253l238.507 238.507-60.587 60.16-341.333-341.333 341.333-341.333 60.16 60.16-238.080 238.507h519.253v85.333z" />
<glyph unicode="&#xe990;" glyph-name="left_two_tone" d="M597.333 661.333l-213.333-213.333 213.333-213.333v426.667z" />
<glyph unicode="&#xe991;" glyph-name="limit_two_tone" d="M512 64c212.053 0 384 171.947 384 384s-171.947 384-384 384h-42.667v-170.667h85.333v81.92c144.64-20.907 256-144.64 256-295.253 0-165.12-133.547-298.667-298.667-298.667s-298.667 133.547-298.667 298.667c0 71.68 25.173 137.387 67.413 188.587l231.253-231.253 60.16 60.16-290.133 290.133v-0.853c-93.44-69.973-154.027-180.907-154.027-306.773 0-212.053 171.52-384 384-384zM512 192c23.565 0 42.667 19.102 42.667 42.667s-19.102 42.667-42.667 42.667c-23.565 0-42.667-19.102-42.667-42.667s19.102-42.667 42.667-42.667zM725.333 405.333c23.565 0 42.667 19.102 42.667 42.667s-19.102 42.667-42.667 42.667c-23.565 0-42.667-19.102-42.667-42.667s19.102-42.667 42.667-42.667zM298.667 405.333c23.564 0 42.667 19.102 42.667 42.667s-19.103 42.667-42.667 42.667c-23.564 0-42.667-19.102-42.667-42.667s19.103-42.667 42.667-42.667z" />
<glyph unicode="&#xe992;" d="M213.333 149.333v597.333h597.333v-597.333h-597.333zM298.667 234.667h298.667v85.333h-298.667v-85.333zM725.333 405.333v85.333h-426.667v-85.333h426.667zM298.667 576h426.667v85.333h-426.667v-85.333z" />
<glyph unicode="&#xe993;" d="M298.667 320h298.667v-85.333h-298.667v85.333z" />
<glyph unicode="&#xe994;" d="M298.667 490.667h426.667v-85.333h-426.667v85.333z" />
<glyph unicode="&#xe995;" d="M298.667 661.333h426.667v-85.333h-426.667v85.333z" />
<glyph unicode="&#xe996;" d="M810.667 832c46.933 0 85.333-38.4 85.333-85.333v-597.333c0-46.933-38.4-85.333-85.333-85.333h-597.333c-5.973 0-11.52 0.427-17.067 1.28-16.64 3.413-31.573 11.947-43.093 23.467-7.68 8.107-14.080 17.067-18.347 27.307s-6.827 21.76-6.827 33.28v597.333c0 11.947 2.56 22.613 6.827 32.853s10.667 19.627 18.347 27.307c11.52 11.52 26.453 20.053 43.093 23.467 5.547 1.28 11.093 1.707 17.067 1.707h178.347c17.92 49.493 64.853 85.333 120.32 85.333s102.4-35.84 120.32-85.333h178.347zM512 842.667c-17.493 0-32-14.507-32-32s14.507-32 32-32c17.493 0 32 14.507 32 32s-14.507 32-32 32zM213.333 746.667v-597.333h597.333v597.333h-597.333z" />
<glyph unicode="&#xe997;" d="M554.667 789.333h-298.667v-682.667h512v469.333h-213.333v213.333zM682.667 192h-341.333v85.333h341.333v-85.333zM682.667 362.667h-341.333v85.333h341.333v-85.333z" />
<glyph unicode="&#xe998;" d="M341.333 277.333h341.333v-85.333h-341.333v85.333z" />
<glyph unicode="&#xe999;" d="M341.333 448h341.333v-85.333h-341.333v85.333z" />
<glyph unicode="&#xe99a;" d="M256 874.667h341.333l256-256v-512c0-46.933-38.4-85.333-85.333-85.333h-512.427c-46.933 0-84.907 38.4-84.907 85.333v682.667c0 46.933 38.4 85.333 85.333 85.333zM256 106.667h512v469.333h-213.333v213.333h-298.667v-682.667z" />
<glyph unicode="&#xe99b;" d="M255.573 789.333l0.427-682.667h512v682.667h-512.427c0.427 0 0 0 0 0zM469.333 746.667c23.467 0 42.667-19.2 42.667-42.667s-19.2-42.667-42.667-42.667c-23.467 0-42.667 19.2-42.667 42.667s19.2 42.667 42.667 42.667zM341.333 746.667c23.467 0 42.667-19.2 42.667-42.667s-19.2-42.667-42.667-42.667c-23.467 0-42.667 19.2-42.667 42.667s19.2 42.667 42.667 42.667zM512 576c117.76 0 213.333-95.573 213.333-213.333s-95.573-213.333-213.333-213.333c-117.76 0-213.334 95.573-213.334 213.333s95.573 213.333 213.334 213.333z" />
<glyph unicode="&#xe99c;" d="M768 874.24l-512 0.427c-47.36 0-85.333-37.973-85.333-85.333v-682.667c0-47.36 37.973-85.333 85.333-85.333h512c47.36 0 85.333 37.973 85.333 85.333v682.667c0 47.36-37.973 84.907-85.333 84.907zM768 106.667h-512l-0.427 682.667h512.427v-682.667z" />
<glyph unicode="&#xe99d;" d="M341.333 661.333c23.564 0 42.667 19.103 42.667 42.667s-19.103 42.667-42.667 42.667c-23.564 0-42.667-19.103-42.667-42.667s19.103-42.667 42.667-42.667z" />
<glyph unicode="&#xe99e;" d="M469.333 661.333c23.565 0 42.667 19.103 42.667 42.667s-19.102 42.667-42.667 42.667c-23.565 0-42.667-19.103-42.667-42.667s19.102-42.667 42.667-42.667z" />
<glyph unicode="&#xe99f;" d="M512 149.333c117.76 0 213.333 95.573 213.333 213.333s-95.573 213.333-213.333 213.333c-117.76 0-213.333-95.573-213.333-213.333s95.573-213.333 213.333-213.333zM612.693 463.36c55.467-55.467 55.467-145.92 0-201.387s-145.92-55.467-201.387 0l201.387 201.387z" />
<glyph unicode="&#xe9a0;" d="M768 533.333v-426.667h-512v426.667h512zM597.333 320c0 46.933-38.4 85.333-85.333 85.333s-85.333-38.4-85.333-85.333c0-46.933 38.4-85.333 85.333-85.333s85.333 38.4 85.333 85.333z" />
<glyph unicode="&#xe9a1;" d="M725.333 618.667v85.333c0 117.76-95.573 213.333-213.333 213.333s-213.333-95.573-213.333-213.333v-85.333h-42.667c-46.933 0-85.333-38.4-85.333-85.333v-426.667c0-46.933 38.4-85.333 85.333-85.333h512c46.933 0 85.333 38.4 85.333 85.333v426.667c0 46.933-38.4 85.333-85.333 85.333h-42.667zM512 832c70.827 0 128-57.173 128-128v-85.333h-256v85.333c0 70.827 57.173 128 128 128zM256 106.667v426.667h512v-426.667h-512zM597.333 320c0 46.933-38.4 85.333-85.333 85.333s-85.333-38.4-85.333-85.333c0-46.933 38.4-85.333 85.333-85.333s85.333 38.4 85.333 85.333z" />
<glyph unicode="&#xe9a2;" glyph-name="logout_two_tone" d="M469.333 832h85.333v-426.667h-85.333v426.667zM700.16 678.827l60.587 60.587c82.773-70.4 135.253-174.507 135.253-291.413 0-212.053-171.947-384-384-384s-384 171.947-384 384c0 116.907 52.48 221.013 135.253 291.413l60.16-60.16c-66.987-54.613-110.080-137.813-110.080-231.253 0-165.12 133.547-298.667 298.667-298.667s298.667 133.547 298.667 298.667c0 93.44-43.093 176.64-110.507 230.827z" />
<glyph unicode="&#xe9a3;" d="M512 789.333c117.76 0 213.333-95.573 213.333-213.333 0-122.88-122.88-306.773-213.333-421.547-88.747 113.92-213.333 299.947-213.333 421.547 0 117.76 95.573 213.333 213.333 213.333zM512 682.667c-58.88 0-106.667-47.787-106.667-106.667s47.787-106.667 106.667-106.667c58.88 0 106.667 47.787 106.667 106.667s-47.787 106.667-106.667 106.667z" />
<glyph unicode="&#xe9a4;" d="M512 874.667c165.12 0 298.667-133.547 298.667-298.667 0-224-298.667-554.667-298.667-554.667s-298.667 330.667-298.667 554.667c0 165.12 133.547 298.667 298.667 298.667zM725.333 576c0 117.76-95.573 213.333-213.333 213.333s-213.333-95.573-213.333-213.333c0-121.6 124.587-307.627 213.333-421.547 90.453 114.773 213.333 298.667 213.333 421.547z" />
<glyph unicode="&#xe9a5;" d="M512 469.333c58.91 0 106.667 47.757 106.667 106.667s-47.757 106.667-106.667 106.667c-58.91 0-106.667-47.756-106.667-106.667s47.757-106.667 106.667-106.667z" />
<glyph unicode="&#xe9a6;" d="M213.333 178.773l128 49.493v499.2l-128-43.093v-505.6z" />
<glyph unicode="&#xe9a7;" d="M682.667 168.533l128 43.093v505.6l-128-49.92v-498.773z" />
<glyph unicode="&#xe9a8;" d="M867.84 830.72l6.827 1.28c11.947 0 21.333-9.387 21.333-21.333v-645.12c0-9.813-6.4-17.493-15.36-20.48l-240.64-81.067-256 89.6-227.84-88.32-6.827-1.28c-11.947 0-21.333 9.387-21.333 21.333v645.12c0 9.813 6.4 17.493 15.36 20.48l240.64 81.067 256-89.6 227.84 88.32zM213.333 178.773l128 49.493v499.2l-128-43.093v-505.6zM597.333 169.387v497.493l-170.667 59.733v-497.493l170.667-59.733zM682.667 168.533l128 43.093v505.173l-128-49.493v-498.773z" />
<glyph unicode="&#xe9a9;" glyph-name="menu_two_tone" d="M128 618.667v85.333h768v-85.333h-768zM128 405.333h768v85.333h-768v-85.333zM128 192h768v85.333h-768v-85.333z" />
<glyph unicode="&#xe9aa;" glyph-name="menu-down_two_tone" d="M707.84 593.492l-195.84-195.412-195.84 195.412-60.16-60.159 256-256 256 256-60.16 60.159z" />
<glyph unicode="&#xe9ab;" glyph-name="menu-up_two_tone" d="M512 618.667l-256-256 60.16-60.16 195.84 195.413 195.84-195.413 60.16 60.16-256 256z" />
<glyph unicode="&#xe9ac;" d="M170.667 405.333v-42.667h170.667v128h-85.333c-46.933 0-85.333-38.4-85.333-85.333z" />
<glyph unicode="&#xe9ad;" d="M810.667 661.333c0 46.933-38.4 85.333-85.333 85.333h-128v-85.333h128v-113.067l-148.48-185.6h-150.187v213.333h-170.667c-94.293 0-170.667-76.373-170.667-170.667v-128h85.333c0-70.827 57.173-128 128-128s128 57.173 128 128h191.147l192.853 241.067v142.933zM298.667 234.667c-23.467 0-42.667 19.2-42.667 42.667h85.333c0-23.467-19.2-42.667-42.667-42.667zM341.333 362.667h-170.667v42.667c0 46.933 38.4 85.333 85.333 85.333h85.333v-128z" />
<glyph unicode="&#xe9ae;" d="M426.667 704h-213.333v-85.333h213.333v85.333z" />
<glyph unicode="&#xe9af;" d="M810.667 405.333c-70.827 0-128-57.173-128-128s57.173-128 128-128c70.827 0 128 57.173 128 128s-57.173 128-128 128zM810.667 234.667c-23.467 0-42.667 19.2-42.667 42.667s19.2 42.667 42.667 42.667c23.467 0 42.667-19.2 42.667-42.667s-19.2-42.667-42.667-42.667z" />
<glyph unicode="&#xe9b0;" d="M427.093 149.333c47.13 0 85.333 38.204 85.333 85.333s-38.204 85.333-85.333 85.333c-47.128 0-85.333-38.204-85.333-85.333s38.205-85.333 85.333-85.333z" />
<glyph unicode="&#xe9b1;" d="M512 832l0.427-450.133c-25.173 14.507-54.187 23.467-85.333 23.467-94.72 0-171.093-76.373-171.093-170.667s76.373-170.667 171.093-170.667c94.72 0 170.24 76.373 170.24 170.667v426.667h170.667v170.667h-256zM427.093 149.333c-46.933 0-85.333 38.4-85.333 85.333s38.4 85.333 85.333 85.333c46.933 0 85.333-38.4 85.333-85.333s-38.4-85.333-85.333-85.333z" />
<glyph unicode="&#xe9b2;" glyph-name="open-in-new_two_tone" d="M213.333 746.667v-597.333h597.333v298.667h85.333v-298.667c0-46.933-38.4-85.333-85.333-85.333h-597.333c-47.36 0-85.333 38.4-85.333 85.333v597.333c0 46.933 37.973 85.333 85.333 85.333h298.667v-85.333h-298.667zM597.333 746.667v85.333h298.667v-298.667h-85.333v153.173l-419.413-419.413-60.16 60.16 419.413 419.413h-153.173z" />
<glyph unicode="&#xe9b3;" glyph-name="open-in-new_two_tone-v2" d="M725.333 661.333h-170.667v-85.333h170.667c70.4 0 128-57.6 128-128s-57.6-128-128-128h-170.667v-85.333h170.667c117.76 0 213.333 95.573 213.333 213.333s-95.573 213.333-213.333 213.333zM469.333 320h-170.667c-70.4 0-128 57.6-128 128s57.6 128 128 128h170.667v85.333h-170.667c-117.76 0-213.333-95.573-213.333-213.333s95.573-213.333 213.333-213.333h170.667v85.333zM341.333 490.667h341.333v-85.333h-341.333v85.333z" />
<glyph unicode="&#xe9b4;" d="M213.333 149.333h597.333v469.333h-597.333v-469.333z" />
<glyph unicode="&#xe9b5;" d="M876.373 736.853c12.373-14.507 19.627-33.707 19.627-54.187v-533.333c0-46.933-38.4-85.333-85.333-85.333h-597.333c-46.933 0-85.333 38.4-85.333 85.333v533.333c0 20.48 7.253 39.68 19.627 54.187l58.88 71.68c11.947 14.507 29.44 23.467 49.493 23.467h512c20.053 0 37.547-8.96 49.067-23.467l59.307-71.68zM266.24 746.667l-34.133-41.387h560.213l-34.56 41.387h-491.52zM213.333 149.333h597.333v469.333h-597.333v-469.333z" />
<glyph unicode="&#xe9b6;" d="M810.667 214.613c-37.547 2.987-74.667 9.387-110.933 19.2l-50.773-50.773c51.2-17.493 105.813-28.587 162.133-32v63.573h-0.427z" />
<glyph unicode="&#xe9b7;" d="M279.042 746.667h-64c3.84-56.32 14.933-110.507 32-162.133l51.2 51.2c-10.24 35.84-16.64 72.96-19.2 110.933z" />
<glyph unicode="&#xe9b8;" d="M853.333 64c23.467 0 42.667 19.2 42.667 42.667v148.907c0 23.467-19.2 42.667-42.667 42.667-52.907 0-104.533 8.533-152.32 24.32-4.267 1.707-8.96 2.133-13.227 2.133-11.093 0-21.76-4.267-30.293-12.373l-93.867-93.867c-120.747 61.867-219.733 160.427-281.173 281.173l93.867 93.867c11.947 11.947 15.36 28.587 10.667 43.52-15.787 47.787-24.32 98.987-24.32 152.32 0 23.467-19.2 42.667-42.667 42.667h-149.333c-23.467 0-42.667-19.2-42.667-42.667 0-400.64 324.693-725.333 725.333-725.333zM699.733 233.813c36.267-10.24 73.387-16.64 110.933-19.2v-63.573c-56.32 3.84-110.507 14.933-162.133 32l51.2 50.773zM278.613 746.667h-64c3.84-56.32 14.933-110.507 32.427-161.707l51.2 51.2c-10.24 35.413-16.64 72.533-19.627 110.507z" />
<glyph unicode="&#xe9b9;" d="M426.667 591.36v-286.72l224.853 143.36-224.853 143.36z" />
<glyph unicode="&#xe9ba;" d="M810.667 448l-469.333-298.667v597.333l469.333-298.667zM651.52 448l-224.853 143.36v-286.72l224.853 143.36z" />
<glyph unicode="&#xe9bb;" d="M853.333 448c0-188.16-153.173-341.333-341.333-341.333s-341.333 153.173-341.333 341.333c0 188.16 153.173 341.333 341.333 341.333s341.333-153.173 341.333-341.333zM682.667 448l-256 192v-384l256 192z" />
<glyph unicode="&#xe9bc;" d="M938.667 448c0-235.52-191.147-426.667-426.667-426.667s-426.667 191.147-426.667 426.667c0 235.52 191.147 426.667 426.667 426.667s426.667-191.147 426.667-426.667zM853.333 448c0 188.16-153.173 341.333-341.333 341.333s-341.333-153.173-341.333-341.333c0-188.16 153.173-341.333 341.333-341.333s341.333 153.173 341.333 341.333z" />
<glyph unicode="&#xe9bd;" d="M426.667 640v-384l256 192-256 192z" />
<glyph unicode="&#xe9be;" d="M419.414 448h49.919v-256h85.333v256h49.92l-92.587 92.587-92.586-92.587z" />
<glyph unicode="&#xe9bf;" d="M213.333 789.333h597.333v-85.333h-597.333v85.333z" />
<glyph unicode="&#xe9c0;" d="M213.333 362.667l298.667 298.667 298.667-298.667h-170.667v-256h-256v256h-170.667zM554.667 192v256h49.92l-92.587 92.587-92.587-92.587h49.92v-256h85.333z" />
<glyph unicode="&#xe9c1;" d="M512 789.333c188.16 0 341.333-153.173 341.333-341.333s-153.173-341.333-341.333-341.333c-188.16 0-341.333 153.173-341.333 341.333s153.173 341.333 341.333 341.333zM469.333 192h85.333v85.333h-85.333v-85.333zM544.87 455.607c-35.341-27.089-75.537-57.899-75.537-135.607h85.333c0 46.737 30.336 73.246 61.474 100.459 32.819 28.681 66.526 58.138 66.526 112.875 0 94.293-76.373 170.667-170.667 170.667s-170.667-76.373-170.667-170.667h85.333c0 46.933 38.4 85.333 85.333 85.333s85.333-38.4 85.333-85.333c0-37.513-24.738-56.474-52.463-77.726z" />
<glyph unicode="&#xe9c2;" d="M469.333 277.333h85.333v-85.333h-85.333v85.333z" />
<glyph unicode="&#xe9c3;" d="M85.333 448c0 235.52 191.147 426.667 426.667 426.667s426.667-191.147 426.667-426.667c0-235.52-191.147-426.667-426.667-426.667s-426.667 191.147-426.667 426.667zM170.667 448c0-188.16 153.173-341.333 341.333-341.333s341.333 153.173 341.333 341.333c0 188.16-153.173 341.333-341.333 341.333s-341.333-153.173-341.333-341.333z" />
<glyph unicode="&#xe9c4;" d="M512 704c-94.293 0-170.667-76.373-170.667-170.667h85.333c0 46.933 38.4 85.333 85.333 85.333s85.333-38.4 85.333-85.333c0-85.333-128-74.667-128-213.333h85.333c0 96 128 106.667 128 213.333 0 94.293-76.373 170.667-170.667 170.667z" />
<glyph unicode="&#xe9c5;" glyph-name="refund-package_two_tone" d="M512 192c-141.227 0-256 114.773-256 256 0 43.093 10.667 84.053 29.867 119.467l-62.293 62.293c-33.28-52.48-52.907-114.774-52.907-181.76 0-188.587 152.747-341.333 341.333-341.333v-128l170.667 170.667-170.667 170.667v-128zM512 789.333v128l-170.667-170.667 170.667-170.667v128c141.227 0 256-114.773 256-256 0-43.093-10.667-84.053-29.867-119.467l62.293-62.293c33.28 52.48 52.907 114.773 52.907 181.76 0 188.587-152.747 341.333-341.333 341.333z" />
<glyph unicode="&#xe9c6;" glyph-name="right-arrow-2_two_tone" d="M512 789.333l-60.16-60.16 238.080-238.507h-519.253v-85.333h519.253l-238.080-238.507 60.16-60.16 341.333 341.333-341.333 341.333z" />
<glyph unicode="&#xe9c7;" glyph-name="right_two_tone" d="M426.667 234.667l213.333 213.333-213.333 213.333v-426.667z" />
<glyph unicode="&#xe9c8;" d="M554.667 277.333h-85.333v-85.333h85.333v85.333z" />
<glyph unicode="&#xe9c9;" d="M554.667 192h-85.333v85.333h85.333v-85.333zM640 362.667h-256v-256h256v256zM810.667 563.2v226.133h-128v-110.933l-170.667 153.6-426.667-384h128l298.667 269.227 298.667-269.227h128l-128 115.2z" />
<glyph unicode="&#xe9ca;" d="M792.747 644.693l29.867-51.627-46.933-35.84-37.973-29.867 5.973-48.213c1.28-12.8 2.133-22.187 2.133-31.147s-0.427-17.92-2.133-31.147l-5.973-48.213 37.973-29.867 46.080-35.84-29.867-51.627-54.187 21.76-44.373 17.92-38.4-29.013c-18.347-13.653-35.84-23.893-53.333-31.147l-45.227-18.347-6.827-48.213-8.107-57.6h-59.307l-8.107 58.027-6.827 48.213-45.228 18.347c-18.347 7.253-35.84 17.493-52.48 30.293l-38.827 29.867-45.227-18.347-54.187-21.76-29.867 51.627 46.080 35.84 37.973 29.867-5.973 48.213c-1.28 12.8-2.133 22.613-2.133 31.147s0.853 18.347 2.133 31.147l5.973 48.213-37.973 29.867-46.080 35.84 29.867 51.627 54.187-22.187 44.8-17.92 38.4 29.013c18.347 13.653 35.84 23.893 53.333 31.147l45.228 18.773 6.827 48.213 8.107 57.6h59.733l8.107-58.027 6.827-48.213 45.227-18.347c18.347-7.253 35.84-17.493 52.48-30.293l38.827-29.867 45.227 18.347 54.187 21.76zM341.332 448c0-94.293 76.373-170.667 170.668-170.667 94.293 0 170.667 76.373 170.667 170.667s-76.373 170.667-170.667 170.667c-94.295 0-170.668-76.373-170.668-170.667z" />
<glyph unicode="&#xe9cb;" d="M832 448c0-14.507-1.28-28.16-2.987-41.813l90.027-70.4c8.107-6.4 10.24-17.92 5.12-27.307l-85.333-147.627c-3.84-6.827-11.093-10.667-18.347-10.667-2.56 0-5.12 0.427-7.68 1.28l-106.24 42.667c-22.187-16.64-46.080-31.147-72.107-41.813l-16.213-113.067c-1.28-10.24-10.24-17.92-20.907-17.92h-170.667c-10.666 0-19.626 7.68-20.906 17.92l-16.213 113.067c-26.027 10.667-49.92 24.747-72.107 41.813l-106.24-42.667c-2.133-0.853-4.693-1.28-7.253-1.28-7.68 0-14.933 3.84-18.773 10.667l-85.333 147.627c-5.12 9.387-2.987 20.907 5.12 27.307l90.027 70.4c-1.707 13.653-2.987 27.733-2.987 41.813s1.28 28.16 2.987 41.813l-90.027 70.4c-8.107 6.4-10.667 17.92-5.12 27.307l85.333 147.627c3.84 6.827 11.093 10.667 18.347 10.667 2.56 0 5.12-0.427 7.68-1.28l106.24-42.667c22.187 16.64 46.080 31.147 72.107 41.813l16.213 113.067c1.28 10.24 10.24 17.92 20.906 17.92h170.667c10.667 0 19.627-7.68 20.907-17.92l16.213-113.067c26.027-10.667 49.92-24.747 72.107-41.813l106.24 42.667c2.133 0.853 4.693 1.28 7.253 1.28 7.68 0 14.933-3.84 18.773-10.667l85.333-147.627c5.12-9.387 2.987-20.907-5.12-27.307l-90.027-70.4c1.707-13.653 2.987-27.307 2.987-41.813zM746.667 448c0 8.96-0.427 17.92-2.133 31.147l-5.973 48.213 37.973 29.867 45.653 36.267-29.867 51.627-54.187-21.76-45.227-18.347-38.827 29.867c-17.067 12.8-34.133 22.613-52.48 30.293l-45.227 18.347-6.827 48.213-8.107 57.6h-59.307l-8.533-57.6-6.827-48.213-45.226-18.347c-17.493-7.253-34.987-17.493-53.333-31.147l-38.4-29.013-44.373 17.92-54.187 21.76-29.867-51.627 46.080-35.84 37.973-29.867-5.973-48.213c-1.28-12.8-2.133-22.613-2.133-31.147s0.853-18.347 2.133-31.573l5.973-48.213-37.973-29.867-46.080-35.84 29.867-51.627 54.187 21.76 45.227 18.347 38.827-29.867c17.067-12.8 34.133-22.613 52.48-30.293l45.226-18.347 6.827-48.213 8.107-57.6h59.733l8.533 57.6 6.827 48.213 45.227 18.347c17.493 7.253 34.987 17.493 53.333 31.147l38.4 29.013 44.373-17.92 54.187-21.76 29.867 51.627-46.080 35.84-37.973 29.867 5.973 48.213c1.28 12.8 2.133 22.187 2.133 31.147z" />
<glyph unicode="&#xe9cc;" d="M341.333 448c0 94.293 76.373 170.667 170.667 170.667s170.667-76.373 170.667-170.667c0-94.293-76.373-170.667-170.667-170.667s-170.667 76.373-170.667 170.667zM426.667 448c0-46.933 38.4-85.333 85.333-85.333s85.333 38.4 85.333 85.333c0 46.933-38.4 85.333-85.333 85.333s-85.333-38.4-85.333-85.333z" />
<glyph unicode="&#xe9cd;" d="M128 746.667l384 170.667 384-170.667v-256c0-236.8-163.84-458.24-384-512-220.16 53.76-384 275.2-384 512v256zM512 66.987c171.52 52.907 298.667 230.827 298.667 423.68v200.533l-298.667 132.693-298.667-132.693v-200.533c0-192.853 127.147-370.773 298.667-423.68z" />
<glyph unicode="&#xe9ce;" d="M316.16 465.493l-60.16-60.16 170.667-170.667 341.333 341.334-60.16 60.587-281.173-281.174-110.507 110.080z" />
<glyph unicode="&#xe9cf;" d="M213.333 490.667v200.533l298.667 132.693 298.667-132.693v-200.533c0-192.853-127.147-371.2-298.667-423.68-171.52 52.907-298.667 230.827-298.667 423.68zM426.667 234.667l341.333 341.333-60.16 60.587-281.173-281.173-110.507 110.080-60.16-60.16 170.667-170.667z" />
<glyph unicode="&#xe9d0;" d="M213.333 106.667v512h597.333v-512h-597.333zM298.667 576c0-117.76 95.573-213.333 213.333-213.333s213.333 95.573 213.333 213.333h-85.333c0-70.827-57.173-128-128-128s-128 57.173-128 128h-85.333z" />
<glyph unicode="&#xe9d1;" d="M725.333 704h85.333c46.933 0 85.333-38.4 85.333-85.333v-512c0-46.933-38.4-85.333-85.333-85.333h-597.333c-46.933 0-85.333 38.4-85.333 85.333v512c0 46.933 38.4 85.333 85.333 85.333h85.333c0 117.76 95.573 213.333 213.333 213.333s213.333-95.573 213.333-213.333zM512 832c-70.827 0-128-57.173-128-128h256c0 70.827-57.173 128-128 128zM213.333 618.667v-512h597.333v512h-597.333z" />
<glyph unicode="&#xe9d2;" d="M512 448c-70.827 0-128 57.173-128 128h-85.333c0-117.76 95.573-213.333 213.333-213.333s213.333 95.573 213.333 213.333h-85.333c0-70.827-57.173-128-128-128z" />
<glyph unicode="&#xe9d3;" d="M381.442 437.333c0 0.427 0 0.427 0 0-5.547 3.84-11.52 7.253-17.067 11.093 5.547-4.267 11.52-7.253 17.067-11.093z" />
<glyph unicode="&#xe9d4;" d="M569.604 593.92c-9.387 51.627-28.16 100.267-55.467 144.213-28.16-44.373-47.787-93.44-58.453-144.64 19.627-12.8 38.4-26.453 56.747-41.387 17.92 14.933 37.12 29.013 57.173 41.813z" />
<glyph unicode="&#xe9d5;" d="M705.707 377.173l0.427-0.853c-3.84-2.56-7.68-5.12-11.52-7.253l-2.987-2.133c-41.813-30.293-78.507-68.693-107.947-113.493l-71.68-108.373-71.253 108.8c-29.013 43.947-64.853 81.92-107.093 113.067l-2.987 1.707c-5.547 3.413-11.093 6.827-16.64 10.667l0.427 0.427c-40.96 26.88-85.76 45.653-133.12 56.747 32-143.36 134.827-263.253 275.2-313.6 17.92-6.4 35.84-11.52 54.613-15.36 19.2 3.84 37.973 8.96 56.747 15.787 139.52 49.92 241.92 169.813 274.347 313.173-48.64-11.093-95.147-31.147-136.533-59.307z" />
<glyph unicode="&#xe9d6;" d="M381.44 437.333c51.2-36.693 95.573-83.2 130.56-136.533 91.733 139.947 248.32 232.533 426.667 232.533 0-226.987-143.36-418.987-342.613-490.24-27.307-9.387-55.040-16.64-84.053-21.76-29.013 4.693-57.173 11.947-84.053 21.76-199.253 71.253-342.613 263.253-342.613 490.24 110.507 0 212.48-35.413 295.68-95.573-2.222 1.481-4.605 2.961-7.043 4.48-3.181 1.975-6.457 4.015-9.597 6.187 3.22-2.475 6.583-4.523 9.923-6.554 2.414-1.468 4.817-2.927 7.144-4.54zM511.573 107.947c19.2 4.267 37.973 9.387 56.747 15.787 139.52 49.92 241.92 169.813 273.92 313.6-48.64-11.52-95.147-32-136.96-59.733l0.427-0.853c-3.84-2.56-7.68-5.12-11.52-7.253l-2.987-2.133c-41.813-30.293-78.507-68.693-107.947-113.493l-71.253-108.8-71.253 109.227c-28.587 44.373-64.853 82.347-107.093 113.067l-2.987 1.707c-5.547 2.987-11.093 6.827-16.64 10.667l0.853 0.427c-41.387 26.453-86.187 45.653-133.12 56.747 32-143.36 134.827-263.253 275.2-313.6 17.493-6.4 35.84-11.52 54.613-15.36z" />
<glyph unicode="&#xe9d7;" d="M514.56 874.667c90.453-90.453 138.667-206.507 146.347-325.547-54.613-29.44-104.96-66.987-148.907-112.213-43.947 45.653-94.293 83.2-148.906 112.213 9.813 118.187 60.16 234.24 151.466 325.547zM569.6 594.347c-9.813 51.2-28.587 100.267-55.467 144.213-28.16-44.373-47.787-93.44-58.453-144.64 19.627-12.8 38.827-26.88 56.747-41.387 18.347 14.933 37.12 29.013 57.173 41.813z" />
<glyph unicode="&#xe9d8;" d="M383.571 436.053c-0.853 0.427-1.707 1.28-2.133 1.707 0 0 0.427 0 0.427-0.427 0.427-0.427 0.853-0.853 1.707-1.28z" />
<glyph unicode="&#xe9d9;" d="M730.027 497.92l-156.587 13.227-20.053 47.36-41.387 97.28-41.387-97.28-20.053-47.36-51.2-4.267-105.387-8.96 119.040-103.253-11.52-49.92-24.32-103.253 90.88 54.613 43.947 26.88 43.947-26.88 90.88-54.613-24.32 103.253-11.52 49.92 119.040 103.253z" />
<glyph unicode="&#xe9da;" d="M631.893 591.787l306.773-26.027-232.96-201.813 69.973-299.947-263.68 159.147-263.68-159.147 69.973 299.947-232.96 201.813 306.773 26.027 119.893 282.88 119.893-282.88zM646.4 241.92l-23.893 102.827-11.52 49.493 119.040 103.253-156.587 13.227-61.44 145.067-41.387-96.853-20.053-47.36-51.2-4.267-105.387-8.96 119.040-103.253-11.52-50.347-23.893-102.827 134.4 81.067 43.947-26.453 90.453-54.613z" />
<glyph unicode="&#xe9db;" d="M213.333 234.667c0-23.467 19.2-42.667 42.667-42.667h42.667v170.667h-85.333v-128z" />
<glyph unicode="&#xe9dc;" d="M725.333 362.667h85.333v-170.667h-85.333v170.667z" />
<glyph unicode="&#xe9dd;" d="M512 917.333c-212.053 0-384-171.947-384-384v-298.667c0-70.827 57.173-128 128-128h128v341.333h-170.667v85.333c0 165.12 133.547 298.667 298.667 298.667s298.667-133.547 298.667-298.667v-85.333h-170.667v-341.333h170.667v-42.667h-298.667v-85.333h256c70.827 0 128 57.173 128 128v426.667c0 212.053-171.947 384-384 384zM298.667 362.667v-170.667h-42.667c-23.467 0-42.667 19.2-42.667 42.667v128h85.333zM725.333 192h85.333v170.667h-85.333v-170.667z" />
<glyph unicode="&#xe9de;" d="M773.12 343.893c50.773-25.6 78.507-80.213 69.12-135.68l-34.133-200.96c-6.827-41.387-42.24-71.253-84.053-71.253h-268.8c-26.453 0-52.054 10.667-70.4 29.44l-217.173 217.173 59.733 60.587c16.213 16.213 37.547 25.173 60.16 25.173 5.12 0 9.387-0.427 13.653-1.28l82.773-17.493v139.093c-75.947 38.827-128 117.76-128 208.64 0 129.28 105.387 234.667 234.667 234.667s234.667-105.387 234.667-234.667c0-75.093-35.413-141.653-90.453-184.32l138.24-69.12zM341.333 597.333c0-40.533 16.213-77.227 42.667-104.107v104.107c0 58.88 47.787 106.667 106.667 106.667s106.667-47.787 106.667-106.667v-104.107c26.453 26.88 42.667 63.573 42.667 104.107 0 82.347-66.987 149.333-149.333 149.333s-149.334-66.987-149.334-149.333zM724.053 21.333l34.133 200.96c2.987 18.347-6.4 36.693-23.467 45.227l-147.627 73.813h-75.093v256c0 11.947-9.387 21.333-21.333 21.333s-21.333-9.387-21.333-21.333v-452.693l-181.334 37.973 157.014-157.013c2.987-2.56 6.4-4.267 10.24-4.267h268.8z" />
<glyph unicode="&#xe9df;" d="M735.147 267.52l-147.627 73.813h-75.52v256c0 11.947-9.387 21.333-21.333 21.333s-21.333-9.387-21.333-21.333v-452.693l-181.333 37.973 157.013-157.013c2.56-2.56 6.4-4.267 10.24-4.267h268.8l34.133 200.96c2.987 18.347-6.4 36.693-23.040 45.227z" />
<glyph unicode="&#xe9e0;" d="M768 533.333v-426.667h-512v426.667h512zM597.333 320c0 46.933-38.4 85.333-85.333 85.333s-85.333-38.4-85.333-85.333c0-46.933 38.4-85.333 85.333-85.333s85.333 38.4 85.333 85.333z" />
<glyph unicode="&#xe9e1;" d="M725.333 618.667h42.667c46.933 0 85.333-38.4 85.333-85.333v-426.667c0-46.933-38.4-85.333-85.333-85.333h-512c-46.933 0-85.333 38.4-85.333 85.333v426.667c0 46.933 38.4 85.333 85.333 85.333h384v85.333c0 70.827-57.173 128-128 128s-128-57.173-128-128h-85.333c0 117.76 95.573 213.333 213.333 213.333s213.333-95.573 213.333-213.333v-85.333zM256 533.333v-426.667h512v426.667h-512z" />
<glyph unicode="&#xe9e2;" d="M512 234.667c46.933 0 85.333 38.4 85.333 85.333s-38.4 85.333-85.333 85.333c-46.933 0-85.333-38.4-85.333-85.333s38.4-85.333 85.333-85.333z" />
<glyph unicode="&#xe9e3;" d="M511.996 529.067c49.485 0 89.6 40.114 89.6 89.599s-40.115 89.6-89.6 89.6c-49.485 0-89.6-40.116-89.6-89.6s40.115-89.599 89.6-89.599z" />
<glyph unicode="&#xe9e4;" d="M511.996 324.267c-126.72 0-260.267-62.293-260.267-89.6v-46.933h520.533v46.933c0 27.307-133.547 89.6-260.267 89.6z" />
<glyph unicode="&#xe9e5;" d="M170.667 234.667c0 113.493 227.413 170.667 341.333 170.667s341.333-57.173 341.333-170.667v-128h-682.667v128zM251.733 234.667v-46.933h520.533v46.933c0 27.307-133.547 89.6-260.267 89.6s-260.267-62.293-260.267-89.6z" />
<glyph unicode="&#xe9e6;" d="M682.667 618.667c0-94.293-76.373-170.667-170.667-170.667s-170.667 76.373-170.667 170.667c0 94.293 76.373 170.667 170.667 170.667s170.667-76.373 170.667-170.667zM601.6 618.667c0 49.493-40.107 89.6-89.6 89.6s-89.6-40.107-89.6-89.6c0-49.493 40.107-89.6 89.6-89.6s89.6 40.107 89.6 89.6z" />
</font>
</defs>
</svg>
