<svg width="24" height="24" viewBox="0 0 24 24" fill="none" xmlns="http://www.w3.org/2000/svg">
<g id="UI/icons/camera-outline">
<g id="&#226;&#134;&#179; Light Color">
<path id="Mask" opacity="0.5" fill-rule="evenodd" clip-rule="evenodd" d="M16.83 6H20V18H4V6H7.17H8.05L8.65 5.35L9.88 4H14.12L15.36 5.35L15.95 6H16.83ZM7 12C7 14.76 9.24 17 12 17C14.76 17 17 14.76 17 12C17 9.24 14.76 7 12 7C9.24 7 7 9.24 7 12Z" fill="#181C1F"/>
</g>
<g id="&#226;&#134;&#179; Dark Color">
<path id="Mask_2" fill-rule="evenodd" clip-rule="evenodd" d="M20 20H4C2.9 20 2 19.1 2 18V6C2 4.9 2.9 4 4 4H7.17L9 2H15L16.83 4H20C21.1 4 22 4.9 22 6V18C22 19.1 21.1 20 20 20ZM7.17 6H4V18H20V6H16.83H15.95L15.36 5.35L14.12 4H9.88L8.64 5.35L8.05 6H7.17Z" fill="#181C1F"/>
</g>
<g id="&#226;&#134;&#179; Dark Color_2">
<path id="Mask_3" fill-rule="evenodd" clip-rule="evenodd" d="M7 12C7 9.24 9.24 7 12 7C14.76 7 17 9.24 17 12C17 14.76 14.76 17 12 17C9.24 17 7 14.76 7 12ZM8.8 12C8.8 13.77 10.23 15.2 12 15.2C13.77 15.2 15.2 13.77 15.2 12C15.2 10.23 13.77 8.8 12 8.8C10.23 8.8 8.8 10.23 8.8 12Z" fill="#181C1F"/>
</g>
</g>
</svg>
