<svg width="24" height="24" viewBox="0 0 24 24" fill="none" xmlns="http://www.w3.org/2000/svg">
<g id="UI/icons/cart">
<g id="&#226;&#134;&#179; Light Color">
<path id="Mask" opacity="0.5" d="M15.55 11L18.31 6H6.16003L8.53003 11H15.55Z" fill="#181C1F"/>
</g>
<g id="&#226;&#134;&#179; Dark Color">
<path id="Mask_2" fill-rule="evenodd" clip-rule="evenodd" d="M17.3 11.97C16.96 12.59 16.3 13 15.55 13H8.1L7 15H19V17H7C5.48 17 4.52 15.37 5.25 14.03L6.6 11.59L3 4H1V2H4.27L5.21 4H20.01C20.77 4 21.25 4.82 20.88 5.48L17.3 11.97ZM18.31 6H6.16L8.53 11H15.55L18.31 6Z" fill="#181C1F"/>
</g>
<g id="&#226;&#134;&#179; Dark Color_2">
<path id="Mask_3" d="M7.00001 18C5.90001 18 5.01001 18.9 5.01001 20C5.01001 21.1 5.90001 22 7.00001 22C8.10001 22 9.00001 21.1 9.00001 20C9.00001 18.9 8.10001 18 7.00001 18Z" fill="#181C1F"/>
</g>
<g id="&#226;&#134;&#179; Dark Color_3">
<path id="Mask_4" d="M17 18C15.9 18 15.01 18.9 15.01 20C15.01 21.1 15.9 22 17 22C18.1 22 19 21.1 19 20C19 18.9 18.1 18 17 18Z" fill="#181C1F"/>
</g>
</g>
</svg>
