<svg width="24" height="24" viewBox="0 0 24 24" fill="none" xmlns="http://www.w3.org/2000/svg">
<g opacity="0.2">
<path fill-rule="evenodd" clip-rule="evenodd" d="M5.84583 4C4.92853 4 4.70418 4.04332 4.47793 4.16433C4.33758 4.23939 4.23939 4.33758 4.16433 4.47793C4.04332 4.70418 4 4.92853 4 5.84583V18.1542C4 19.0715 4.04332 19.2958 4.16433 19.5221C4.23939 19.6624 4.33758 19.7606 4.47793 19.8357C4.70418 19.9567 4.92853 20 5.84583 20H18.1542C19.0715 20 19.2958 19.9567 19.5221 19.8357C19.6624 19.7606 19.7606 19.6624 19.8357 19.5221C19.9567 19.2958 20 19.0715 20 18.1542V5.84583C20 4.92853 19.9567 4.70418 19.8357 4.47793C19.7606 4.33758 19.6624 4.23939 19.5221 4.16433C19.2958 4.04332 19.0715 4 18.1542 4H5.84583ZM5.84583 2H18.1542C19.4915 2 19.9764 2.13924 20.4653 2.4007C20.9542 2.66216 21.3378 3.04584 21.5993 3.53473C21.8608 4.02362 22 4.50855 22 5.84583V18.1542C22 19.4915 21.8608 19.9764 21.5993 20.4653C21.3378 20.9542 20.9542 21.3378 20.4653 21.5993C19.9764 21.8608 19.4915 22 18.1542 22H5.84583C4.50855 22 4.02362 21.8608 3.53473 21.5993C3.04584 21.3378 2.66216 20.9542 2.4007 20.4653C2.13924 19.9764 2 19.4915 2 18.1542V5.84583C2 4.50855 2.13924 4.02362 2.4007 3.53473C2.66216 3.04584 3.04584 2.66216 3.53473 2.4007C4.02362 2.13924 4.50855 2 5.84583 2Z" fill="white"/>
</g>
</svg>
