<svg width="24" height="24" viewBox="0 0 24 24" fill="none" xmlns="http://www.w3.org/2000/svg">
<path d="M21.6 18.2L13 11.75V10.84C14.65 10.35 15.8 8.67 15.43 6.79C15.17 5.48001 14.13 4.39001 12.82 4.09001C10.54 3.57001 8.50002 5.3 8.50002 7.50001H10.5C10.5 6.67001 11.17 6.00001 12 6.00001C12.83 6.00001 13.5 6.67001 13.5 7.50001C13.5 8.34 12.81 9.02001 11.97 9.00001C11.43 8.99001 11 9.45001 11 9.99001V11.75L2.40002 18.2C1.63002 18.78 2.04002 20 3.00002 20H12H21C21.96 20 22.37 18.78 21.6 18.2ZM6.00002 18L12 13.5L18 18H6.00002Z" fill="#181C1F"/>
</svg>
