<svg width="24" height="24" viewBox="0 0 24 24" fill="none" xmlns="http://www.w3.org/2000/svg">
<g id="UI/icons/child">
<g id="&#226;&#134;&#179; Light Color">
<path id="Mask" opacity="0.5" d="M15 4.34V8H18.66C18.05 6.3 16.7 4.95 15 4.34Z" fill="#181C1F"/>
</g>
<g id="&#226;&#134;&#179; Light Color_2">
<path id="Mask_2" opacity="0.5" d="M8.04 14.36L8.48 15.03C9.67 15.19 10.67 15.95 11.16 17H13.84C14.4 15.82 15.61 15 17 15C17.15 15 17.31 15.01 17.46 15.03L17.75 14.66C18.15 14.15 18.45 13.59 18.67 13H7.37C7.69 13.67 7.94 14.19 8.04 14.36Z" fill="#181C1F"/>
</g>
<g id="&#226;&#134;&#179; Dark Color">
<path id="Mask_3" fill-rule="evenodd" clip-rule="evenodd" d="M13 10V2C17.42 2 21 5.58 21 10H13ZM15 4.34V8H18.66C18.05 6.29 16.7 4.94 15 4.34Z" fill="#181C1F"/>
</g>
<g id="&#226;&#134;&#179; Dark Color_2">
<path id="Mask_4" fill-rule="evenodd" clip-rule="evenodd" d="M5.49 9L6.44 11H21C21 12.84 20.37 14.54 19.32 15.89C20.04 16.53 20.5 17.46 20.5 18.5C20.5 20.43 18.93 22 17 22C15.24 22 13.78 20.7 13.54 19H11.46C11.22 20.7 9.76 22 8 22C6.07 22 4.5 20.43 4.5 18.5C4.5 17.17 5.24 16.01 6.34 15.42C6.11 15.07 4.22 11 4.22 11H2V9H5.49ZM6.5 18.5C6.5 19.33 7.17 20 8 20C8.83 20 9.5 19.33 9.5 18.5C9.5 17.67 8.83 17 8 17C7.17 17 6.5 17.67 6.5 18.5ZM17 20C16.17 20 15.5 19.33 15.5 18.5C15.5 17.67 16.17 17 17 17C17.83 17 18.5 17.67 18.5 18.5C18.5 19.33 17.83 20 17 20ZM17.45 15.03L17.74 14.66C18.14 14.15 18.45 13.59 18.66 13H7.37C7.49494 13.2537 7.60699 13.4858 7.70341 13.6857C7.86167 14.0136 7.97786 14.2544 8.04 14.36L8.48 15.03C9.66 15.2 10.66 15.96 11.16 17H13.84C14.4 15.82 15.61 15 17 15C17.15 15 17.31 15.01 17.45 15.03Z" fill="#181C1F"/>
</g>
</g>
</svg>
