<svg width="30" height="30" viewBox="0 0 30 30" fill="none" xmlns="http://www.w3.org/2000/svg">
<g clip-path="url(#clip0)">
<path d="M24 -0.0556641H6C2.68629 -0.0556641 0 2.63063 0 5.94434V23.9443C0 27.258 2.68629 29.9443 6 29.9443H24C27.3137 29.9443 30 27.258 30 23.9443V5.94434C30 2.63063 27.3137 -0.0556641 24 -0.0556641Z" fill="#DE2910"/>
<path d="M7.49979 2.94434L10.1442 11.0832L3.21924 6.05545H11.7804L4.85535 11.086L7.49979 2.94434Z" fill="#FFDE00"/>
<path d="M15.5859 1.56372L15.3359 4.40261L13.8665 1.95817L16.4915 3.07205L13.7109 3.71094L15.5859 1.56372Z" fill="#FFDE00"/>
<path d="M19.075 4.89979L17.7389 7.41924L17.3333 4.59424L19.3194 6.64424L16.5083 6.15535L19.075 4.89979Z" fill="#FFDE00"/>
<path d="M19.4115 9.93085L17.167 11.692L17.9532 8.94751L18.9337 11.6281L16.5698 10.0336L19.4115 9.93085Z" fill="#FFDE00"/>
<path d="M15.5306 12.0388L15.4 14.8888L13.8306 12.5027L16.5 13.5083L13.75 14.2638L15.5306 12.0388Z" fill="#FFDE00"/>
</g>
<defs>
<clipPath id="clip0">
<rect width="30" height="30" fill="white"/>
</clipPath>
</defs>
</svg>
