<svg width="24" height="24" viewBox="0 0 24 24" fill="none" xmlns="http://www.w3.org/2000/svg">
<g id="UI/icons/delivery">
<g id="&#226;&#134;&#179; Light Color">
<path id="Mask" opacity="0.5" d="M3 15H3.78C4.33 14.39 5.12 14 6 14C6.88 14 7.67 14.39 8.22 15H15V6H3V15Z" fill="#181C1F"/>
</g>
<g id="&#226;&#134;&#179; Dark Color">
<path id="Mask_2" fill-rule="evenodd" clip-rule="evenodd" d="M17 4H3C1.9 4 1 4.9 1 6V17H3C3 18.66 4.34 20 6 20C7.66 20 9 18.66 9 17H15C15 18.66 16.34 20 18 20C19.66 20 21 18.66 21 17H23V12L20 8H17V4ZM6 18C5.45 18 5 17.55 5 17C5 16.45 5.45 16 6 16C6.55 16 7 16.45 7 17C7 17.55 6.55 18 6 18ZM8.22 15H15V6H3V15H3.78C4.33 14.39 5.11 14 6 14C6.89 14 7.67 14.39 8.22 15ZM18 18C17.45 18 17 17.55 17 17C17 16.45 17.45 16 18 16C18.55 16 19 16.45 19 17C19 17.55 18.55 18 18 18ZM17 9.5V12H21.46L19.5 9.5H17Z" fill="#181C1F"/>
</g>
</g>
</svg>
