<svg width="24" height="24" viewBox="0 0 24 24" fill="none" xmlns="http://www.w3.org/2000/svg">
<g id="UI/icons/email">
<g id="&#226;&#134;&#179; Light Color">
<path id="Mask" opacity="0.5" d="M20 8L12 13L4 8V18H20V8Z" fill="#181C1F"/>
</g>
<g id="&#226;&#134;&#179; Light Color_2">
<path id="Mask_2" opacity="0.5" d="M20 6H4L12 10.99L20 6Z" fill="#181C1F"/>
</g>
<g id="&#226;&#134;&#179; Dark Color">
<path id="Mask_3" fill-rule="evenodd" clip-rule="evenodd" d="M20 20C21.1 20 22 19.1 22 18V6C22 4.9 21.1 4 20 4H4C2.9 4 2 4.9 2 6V18C2 19.1 2.9 20 4 20H20ZM20 6L12 10.99L4 6H20ZM12 13L4 8V18H20V8L12 13Z" fill="#181C1F"/>
</g>
</g>
</svg>
