<svg width="24" height="24" viewBox="0 0 24 24" fill="none" xmlns="http://www.w3.org/2000/svg">
<g id="UI/icons/map-outline">
<g id="&#226;&#134;&#179; Light Color">
<path id="Mask" opacity="0.5" d="M5 18.31L8 17.15V5.45001L5 6.46001V18.31Z" fill="#181C1F"/>
</g>
<g id="&#226;&#134;&#179; Light Color_2">
<path id="Mask_2" opacity="0.5" d="M16 18.55L19 17.54V5.69L16 6.86V18.55Z" fill="#181C1F"/>
</g>
<g id="&#226;&#134;&#179; Dark Color">
<path id="Mask_3" fill-rule="evenodd" clip-rule="evenodd" d="M20.34 3.03L20.5 3C20.78 3 21 3.22 21 3.5V18.62C21 18.85 20.85 19.03 20.64 19.1L15 21L9 18.9L3.66 20.97L3.5 21C3.22 21 3 20.78 3 20.5V5.38C3 5.15 3.15 4.97 3.36 4.9L9 3L15 5.1L20.34 3.03ZM5 18.31L8 17.15V5.45L5 6.46V18.31ZM14 18.53L10 17.13V5.47L14 6.87V18.53ZM16 18.55L19 17.54V5.7L16 6.86V18.55Z" fill="#181C1F"/>
</g>
</g>
</svg>
