<svg width="24" height="24" viewBox="0 0 24 24" fill="none" xmlns="http://www.w3.org/2000/svg">
<g id="UI/icons/play">
<g id="&#226;&#134;&#179; Light Color">
<path id="Mask" opacity="0.5" fill-rule="evenodd" clip-rule="evenodd" d="M20 12C20 16.41 16.41 20 12 20C7.59 20 4 16.41 4 12C4 7.59 7.59 4 12 4C16.41 4 20 7.59 20 12ZM16 12L10 7.5V16.5L16 12Z" fill="#181C1F"/>
</g>
<g id="&#226;&#134;&#179; Dark Color">
<path id="Mask_2" fill-rule="evenodd" clip-rule="evenodd" d="M22 12C22 17.52 17.52 22 12 22C6.48 22 2 17.52 2 12C2 6.48 6.48 2 12 2C17.52 2 22 6.48 22 12ZM20 12C20 7.59 16.41 4 12 4C7.59 4 4 7.59 4 12C4 16.41 7.59 20 12 20C16.41 20 20 16.41 20 12Z" fill="#181C1F"/>
</g>
<g id="&#226;&#134;&#179; Dark Color_2">
<path id="Mask_3" d="M10 7.5V16.5L16 12L10 7.5Z" fill="#181C1F"/>
</g>
</g>
</svg>
