<svg width="24" height="24" viewBox="0 0 24 24" fill="none" xmlns="http://www.w3.org/2000/svg">
<g id="UI/icons/shopping">
<g id="&#226;&#134;&#179; Light Color">
<path id="Mask" opacity="0.5" fill-rule="evenodd" clip-rule="evenodd" d="M5 20V8H19V20H5ZM7 9C7 11.76 9.24 14 12 14C14.76 14 17 11.76 17 9H15C15 10.66 13.66 12 12 12C10.34 12 9 10.66 9 9H7Z" fill="#181C1F"/>
</g>
<g id="&#226;&#134;&#179; Dark Color">
<path id="Mask_2" fill-rule="evenodd" clip-rule="evenodd" d="M17 6C17 3.24 14.76 1 12 1C9.24 1 7 3.24 7 6H5C3.9 6 3 6.9 3 8V20C3 21.1 3.9 22 5 22H19C20.1 22 21 21.1 21 20V8C21 6.9 20.1 6 19 6H17ZM12 3C13.66 3 15 4.34 15 6H9C9 4.34 10.34 3 12 3ZM5 8V20H19V8H5Z" fill="#181C1F"/>
</g>
<g id="&#226;&#134;&#179; Dark Color_2">
<path id="Mask_3" d="M12 12C10.34 12 9 10.66 9 9H7C7 11.76 9.24 14 12 14C14.76 14 17 11.76 17 9H15C15 10.66 13.66 12 12 12Z" fill="#181C1F"/>
</g>
</g>
</svg>
