<svg width="24" height="24" viewBox="0 0 24 24" fill="none" xmlns="http://www.w3.org/2000/svg">
<g id="UI/icons/spa">
<g id="&#226;&#134;&#179; Light Color">
<path id="Mask" opacity="0.5" d="M8.94004 12.25C8.94004 12.24 8.94004 12.24 8.94004 12.25C8.81004 12.16 8.67004 12.08 8.54004 11.99C8.67004 12.09 8.81004 12.16 8.94004 12.25Z" fill="#181C1F"/>
</g>
<g id="&#226;&#134;&#179; Light Color_2">
<path id="Mask_2" opacity="0.5" d="M13.3501 8.58001C13.1301 7.37001 12.6901 6.23001 12.0501 5.20001C11.3901 6.24001 10.9301 7.39001 10.6801 8.59001C11.1401 8.89001 11.5801 9.21001 12.0101 9.56001C12.4301 9.21001 12.8801 8.88001 13.3501 8.58001Z" fill="#181C1F"/>
</g>
<g id="&#226;&#134;&#179; Light Color_3">
<path id="Mask_3" opacity="0.5" d="M16.54 13.66L16.55 13.68C16.46 13.74 16.37 13.8 16.28 13.85L16.21 13.9C15.23 14.61 14.37 15.51 13.68 16.56L12 19.1L10.33 16.55C9.65 15.52 8.81 14.63 7.82 13.9L7.75 13.86C7.62 13.78 7.49 13.7 7.36 13.61L7.37 13.6C6.41 12.97 5.36 12.53 4.25 12.27C5 15.63 7.41 18.44 10.7 19.62C11.12 19.77 11.54 19.89 11.98 19.98C12.43 19.89 12.87 19.77 13.31 19.61C16.58 18.44 18.98 15.63 19.74 12.27C18.6 12.53 17.51 13 16.54 13.66Z" fill="#181C1F"/>
</g>
<g id="&#226;&#134;&#179; Dark Color">
<path id="Mask_4" fill-rule="evenodd" clip-rule="evenodd" d="M8.94 12.25C10.14 13.11 11.18 14.2 12 15.45C14.15 12.17 17.82 10 22 10C22 15.32 18.64 19.82 13.97 21.49C13.33 21.71 12.68 21.88 12 22C11.32 21.89 10.66 21.72 10.03 21.49C5.36 19.82 2 15.32 2 10C4.59 10 6.98 10.83 8.93 12.24C8.87792 12.2053 8.82208 12.1706 8.76492 12.135C8.69037 12.0887 8.61358 12.0409 8.54 11.99C8.61546 12.048 8.69428 12.096 8.77257 12.1436C8.82915 12.178 8.88546 12.2122 8.94 12.25ZM11.99 19.97C12.44 19.87 12.88 19.75 13.32 19.6C16.59 18.43 18.99 15.62 19.74 12.25C18.6 12.52 17.51 13 16.53 13.65L16.54 13.67L16.54 13.67C16.45 13.73 16.36 13.79 16.27 13.84L16.2 13.89C15.22 14.6 14.36 15.5 13.67 16.55L12 19.1L10.33 16.54C9.66 15.5 8.81 14.61 7.82 13.89L7.75 13.85C7.62 13.78 7.49 13.69 7.36 13.6L7.38 13.59C6.41 12.97 5.36 12.52 4.26 12.26C5.01 15.62 7.42 18.43 10.71 19.61C11.12 19.76 11.55 19.88 11.99 19.97Z" fill="#181C1F"/>
</g>
<g id="&#226;&#134;&#179; Dark Color_2">
<path id="Mask_5" fill-rule="evenodd" clip-rule="evenodd" d="M12.06 2C14.18 4.12 15.31 6.84 15.49 9.63C14.21 10.32 13.03 11.2 12 12.26C10.97 11.19 9.79001 10.31 8.51001 9.63C8.74001 6.86 9.92001 4.14 12.06 2ZM13.35 8.57C13.12 7.37 12.68 6.22 12.05 5.19C11.39 6.23 10.93 7.38 10.68 8.58C11.14 8.88 11.59 9.21 12.01 9.55C12.44 9.2 12.88 8.87 13.35 8.57Z" fill="#181C1F"/>
</g>
<g id="&#226;&#134;&#179; Light Color_4">
<path id="Mask_6" opacity="0.5" d="M8.98994 12.28C8.96994 12.27 8.94994 12.25 8.93994 12.24C8.93994 12.24 8.94994 12.24 8.94994 12.25C8.95994 12.26 8.96994 12.27 8.98994 12.28Z" fill="#181C1F"/>
</g>
</g>
</svg>
