<svg width="24" height="24" viewBox="0 0 24 24" fill="none" xmlns="http://www.w3.org/2000/svg">
<g id="UI/icons/support">
<g id="&#226;&#134;&#179; Light Color">
<path id="Mask" opacity="0.5" d="M5 17C5 17.55 5.45 18 6 18H7V14H5V17Z" fill="#181C1F"/>
</g>
<g id="&#226;&#134;&#179; Light Color_2">
<path id="Mask_2" opacity="0.5" d="M17 14H19V18H17V14Z" fill="#181C1F"/>
</g>
<g id="&#226;&#134;&#179; Dark Color">
<path id="Mask_3" fill-rule="evenodd" clip-rule="evenodd" d="M12 1C7.03 1 3 5.03 3 10V17C3 18.66 4.34 20 6 20H9V12H5V10C5 6.13 8.13 3 12 3C15.87 3 19 6.13 19 10V12H15V20H19V21H12V23H18C19.66 23 21 21.66 21 20V10C21 5.03 16.97 1 12 1ZM7 14V18H6C5.45 18 5 17.55 5 17V14H7ZM17 18H19V14H17V18Z" fill="#181C1F"/>
</g>
</g>
</svg>
