<svg width="24" height="24" viewBox="0 0 24 24" fill="none" xmlns="http://www.w3.org/2000/svg">
<g id="UI/icons/touch">
<g id="&#226;&#134;&#179; Dark Color">
<path id="Mask" fill-rule="evenodd" clip-rule="evenodd" d="M18.12 14.44L14.88 12.82C16.17 11.82 17 10.26 17 8.5C17 5.47 14.53 3 11.5 3C8.46999 3 5.99999 5.47 5.99999 8.5C5.99999 10.63 7.21999 12.48 8.99999 13.39V16.65L7.15999 16.26L7.05999 16.24C6.95999 16.22 6.85999 16.21 6.73999 16.21C6.20999 16.21 5.70999 16.42 5.32999 16.8L3.92999 18.22L9.01999 23.31C9.44999 23.75 10.05 24 10.67 24H16.97C17.95 24 18.78 23.3 18.94 22.33L19.74 17.62C19.96 16.32 19.31 15.04 18.12 14.44ZM7.99999 8.5C7.99999 6.57 9.56999 5 11.5 5C13.43 5 15 6.57 15 8.5C15 9.45 14.62 10.31 14 10.94V8.5C14 7.12 12.88 6 11.5 6C10.12 6 8.99999 7.12 8.99999 8.5V10.94C8.37999 10.31 7.99999 9.45 7.99999 8.5ZM16.97 22L17.77 17.29C17.84 16.86 17.62 16.43 17.22 16.23L13.76 14.5H12V8.5C12 8.22 11.78 8 11.5 8C11.22 8 11 8.22 11 8.5V19.11L6.74999 18.22L10.43 21.9C10.5 21.96 10.58 22 10.67 22H16.97Z" fill="#181C1F"/>
</g>
<g id="&#226;&#134;&#179; Light Color">
<path id="Mask_2" opacity="0.5" d="M17.23 16.23L13.77 14.5H12V8.5C12 8.22 11.78 8 11.5 8C11.22 8 11 8.22 11 8.5V19.11L6.75 18.22L10.43 21.9C10.49 21.96 10.58 22 10.67 22H16.97L17.77 17.29C17.84 16.86 17.62 16.43 17.23 16.23Z" fill="#181C1F"/>
</g>
</g>
</svg>
