<svg width="24" height="24" viewBox="0 0 24 24" fill="none" xmlns="http://www.w3.org/2000/svg">
<path opacity="0.5" d="M11.9999 10.1C13.1597 10.1 14.0999 9.15982 14.0999 8.00002C14.0999 6.84023 13.1597 5.90002 11.9999 5.90002C10.8401 5.90002 9.8999 6.84023 9.8999 8.00002C9.8999 9.15982 10.8401 10.1 11.9999 10.1Z" fill="white"/>
<path opacity="0.5" d="M11.9999 14.9C9.0299 14.9 5.8999 16.36 5.8999 17V18.1H18.0999V17C18.0999 16.36 14.9699 14.9 11.9999 14.9Z" fill="white"/>
<path fill-rule="evenodd" clip-rule="evenodd" d="M4 17C4 14.34 9.33 13 12 13C14.67 13 20 14.34 20 17V20H4V17ZM5.9 17V18.1H18.1V17C18.1 16.36 14.97 14.9 12 14.9C9.03 14.9 5.9 16.36 5.9 17Z" fill="white"/>
<path fill-rule="evenodd" clip-rule="evenodd" d="M16 8C16 10.21 14.21 12 12 12C9.79 12 8 10.21 8 8C8 5.79 9.79 4 12 4C14.21 4 16 5.79 16 8ZM14.1 8C14.1 6.84 13.16 5.9 12 5.9C10.84 5.9 9.9 6.84 9.9 8C9.9 9.16 10.84 10.1 12 10.1C13.16 10.1 14.1 9.16 14.1 8Z" fill="white"/>
</svg>
