<svg width="24" height="24" viewBox="0 0 24 24" fill="none" xmlns="http://www.w3.org/2000/svg">
<path opacity="0.3" d="M5 4.99999H9V8.99999H5V4.99999ZM15 15H19V19H15V15ZM5 15H9V19H5V15ZM16.66 4.51999L13.83 7.33999L16.66 10.17L19.49 7.33999L16.66 4.51999Z" fill="#323232"/>
<path d="M16.66 1.69L11 7.34L16.66 13L22.32 7.34L16.66 1.69ZM13.83 7.34L16.66 4.51L19.49 7.34L16.66 10.17L13.83 7.34ZM3 3V11H11V3H3ZM9 9H5V5H9V9ZM3 21H11V13H3V21ZM5 15H9V19H5V15ZM13 13V21H21V13H13ZM19 19H15V15H19V19Z" fill="#323232"/>
</svg>
