<svg width="280" height="200" viewBox="0 0 280 200" fill="none" xmlns="http://www.w3.org/2000/svg">
<rect width="280" height="200" rx="8" fill="#181C1F"/>
<path d="M28.4863 27.8251C35.8238 28.4126 44.4613 23.6126 41.9862 32.1876C42.3738 32.9 43.3863 30.4876 43.4613 30.2376C43.4863 30.1876 43.7738 29.0875 43.8988 29.525C43.5863 30.2 43.4987 30.875 43.3612 31.2875C43.3487 31.3375 43.3112 31.8251 43.3612 31.7501C43.4362 31.6251 43.5238 31.3375 43.5613 31.1625C43.7613 30.7 43.9113 30.1876 43.9988 29.8751C44.0238 29.8001 44.0738 29.6 44.1238 29.475C44.1238 29.2251 44.4237 29.15 44.2987 29.4C44.2987 29.55 44.0988 30.1625 44.0363 30.3375C44.1113 30.6125 44.1488 30.3876 44.2238 30.2626C44.2363 30.2501 44.3363 29.9251 44.3988 29.6751C44.4738 29.3751 44.5988 29.0501 44.6863 28.6126C44.7363 28.3751 44.8612 28.0751 44.8612 28.4001C44.7862 28.8876 44.5613 29.6625 44.4613 30.15C44.4613 30.25 44.4238 30.3751 44.5238 30.3751C44.6113 30.0876 44.7862 29.5001 44.8612 29.4376C45.1487 29.3626 44.5863 30.4875 44.5988 30.9125C44.5988 30.775 44.9113 30.2875 44.9988 30.1625C45.2488 30.1625 44.9487 30.3626 44.9487 30.5126C44.9362 30.5626 44.4613 31.925 44.5737 31.925C44.6862 31.775 45.0612 30.7376 45.1987 30.7001C45.3112 30.8126 44.7738 32.0125 44.7738 32.2501C44.6738 32.425 44.6112 32.6625 44.5487 32.8625C44.4862 32.925 44.4738 33.0125 44.5112 33.1125C44.5112 33 44.7613 32.775 44.8113 32.625C44.8988 32.4875 44.9238 32.325 45.0863 32.425C44.8988 32.975 44.5363 33.4626 44.3113 34.0125C44.1363 34.2625 43.8488 34.7875 44.1238 34.5125C44.3613 34.275 44.3612 34.2125 44.4862 34.05L44.7488 33.625C44.8113 33.575 44.8738 33.5125 44.9613 33.5125C44.8113 33.8751 44.5612 34.25 44.3862 34.6C43.9487 35.1 43.6863 35.725 43.2238 36.175C43.0863 36.375 42.7362 36.625 43.2987 36.3875C43.8612 35.9125 44.2987 35.1625 44.6987 34.5625C44.7362 34.575 44.8113 34.5875 44.8363 34.6C44.3988 35.4625 43.7988 36.125 43.2488 36.9C43.0863 37.0625 42.7238 37.3625 42.6363 37.55C42.7363 37.6 42.7113 37.5875 42.8237 37.5125C43.0612 37.2375 43.3488 36.975 43.6362 36.75L43.7113 36.825C43.1738 37.5125 42.6612 38.1 41.9862 38.625C41.7738 38.7875 41.5488 38.9625 41.3363 39.0875C41.6113 39.2375 42.6237 38.375 42.8612 38.2C42.8987 38.1125 42.9363 38.1125 42.9988 38.05C43.0363 37.975 43.2987 37.775 43.2987 38.0125C42.9612 38.3125 42.6237 38.6625 42.2862 38.95C41.7237 39.4375 41.1113 39.925 40.4488 40.2875C40.6738 40.4 41.6988 39.7625 41.8863 39.6C42.0363 39.5 42.1863 39.3875 42.3238 39.275C42.3238 39.3125 42.4738 39.375 42.4988 39.375C42.1737 39.65 41.7737 39.9 41.4112 40.1375C41.0112 40.4125 40.5488 40.75 40.1238 40.95C39.6988 41.125 39.2488 41.425 38.8238 41.5375C38.8238 41.65 39.5238 41.425 39.6238 41.425C40.1988 41.2875 40.7612 41.025 41.2362 40.675C41.3738 40.825 41.3487 40.8375 41.1612 40.95C40.9237 41.125 40.6363 41.225 40.4363 41.425C40.1613 41.525 39.8237 41.75 39.5362 41.85C38.9362 42.175 38.2113 42.4625 37.5613 42.675C37.3738 42.675 37.1613 42.8125 36.9862 42.8125C36.8488 42.8125 36.8863 42.8875 37.0238 42.8875C37.4238 42.8875 37.7613 42.8625 38.1363 42.775C38.3988 42.725 38.6738 42.6375 38.8863 42.5625C39.2488 42.4375 39.6988 42.1875 40.0738 42.025C40.0863 42.075 40.1238 42.125 40.1488 42.1625C39.8113 42.5 39.2362 42.5875 38.8487 42.775C38.8363 42.775 38.7738 42.85 38.7362 42.85C38.5613 42.85 38.0487 43.1125 37.9112 43.125C37.4862 43.2 36.9112 43.525 36.4737 43.525C36.7862 43.625 37.3113 43.4875 37.6238 43.425C37.6238 43.5125 37.8488 43.5875 37.8363 43.6375C37.7238 44 37.4738 44.3875 37.2613 44.725C36.7863 44.9625 36.3113 45.25 35.8238 45.475C35.6613 45.475 35.5738 45.4625 35.6737 45.2625C35.6737 45.2625 36.0363 44.8375 35.8612 44.8375C35.6988 44.8375 35.5613 44.8 35.5613 45.0125C35.5488 45.0625 35.5363 45.1125 35.4988 45.15C35.4988 45.425 35.3863 45.925 35.1363 46.0625C34.9613 46.2375 34.4863 46.3125 34.2363 46.425C33.6488 46.425 32.9363 46.7875 32.3738 46.425C32.2238 46.425 32.0113 46.475 32.1238 46.25C32.2363 46.25 32.2613 46.25 32.3363 46.2125C32.5863 46.2125 33.7863 45.9 33.6613 45.625C33.5487 45.625 33.3863 45.65 33.2988 45.5625C33.1863 45.5625 33.1613 45.525 33.0488 45.4875C32.9488 45.3125 32.6113 45.4375 32.4613 45.3125C32.3488 45.2625 32.1863 45.2 32.4238 45.3875C32.4238 45.5875 32.4488 45.7875 32.2488 45.8875C32.1613 45.9375 32.0488 46 31.9488 46C31.7863 46 31.3113 46.0375 31.3113 45.85C31.1738 45.925 31.2738 45.925 31.2738 46.025C31.3863 46.025 31.1988 46.2875 31.1613 46.3125C30.9862 46.65 30.1238 46.6125 29.7863 46.6125C29.6613 46.5875 29.5363 46.525 29.4238 46.5C28.9363 46.25 28.3738 46 27.9113 45.7125C27.7488 45.7125 27.4988 45.925 27.3613 46C26.8988 46.3125 26.4738 46.75 25.8613 46.75C25.6488 46.75 25.4613 46.7625 25.3988 46.6125C25.2738 46.6125 25.2863 46.3875 25.2863 46.3125C25.2863 46.3125 25.5613 46.0125 25.3238 46.1375C25.0863 46.3125 24.5738 46.375 24.2863 46.275C23.9863 45.975 24.0488 45.8875 24.2863 45.6625C24.2488 45.6625 24.0488 45.5 24.0238 45.4875C24.0238 45.4125 23.9988 45.35 23.9613 45.275C23.6738 45.4125 23.3738 45.4125 23.0863 45.2375C22.8863 45.4375 22.6613 45.5625 22.3363 45.5625C22.2613 45.525 22.1738 45.4875 22.1113 45.45C21.5738 45.45 21.6488 45.425 21.6488 45.85C21.6488 45.95 21.6863 46.025 21.6488 46.1125C21.6488 46.2 21.5738 46.3875 21.4738 46.3875C21.2988 46.5625 20.8613 46.6875 20.6113 46.6125C20.3488 46.6125 20.2488 46.525 20.0738 46.35C19.9363 46.35 19.9613 46.2625 19.9613 46.175C19.7488 46.0125 19.7738 45.325 20.0738 45.1C20.1113 45.0625 20.2738 44.85 20.1488 44.85C20.1488 44.725 20.1863 44.7 20.0363 44.7C19.9238 44.7 19.9863 44.5875 19.8488 44.5875C19.5863 44.475 19.5238 44.625 19.2738 44.625C19.0238 45 18.6238 45.4625 18.1363 45.4625C18.0113 45.4625 17.8738 45.225 17.8738 45.1C17.7863 44.825 17.8488 44.4375 17.9113 44.1625C17.7363 44.1625 17.6738 44.075 17.5488 43.9875C17.4988 43.9875 17.4363 43.8125 17.4363 43.7625C17.4363 43.525 17.2988 43.575 17.2988 43.4875C17.2988 43.3 16.9113 43.525 16.7988 43.525C16.6238 43.525 16.4363 43.525 16.2613 43.525C16.2613 43.5125 16.2863 43.475 16.2988 43.45C15.9363 43.45 15.6613 42.875 15.8363 42.55C15.7738 42.55 15.8363 42.475 15.8363 42.4125C15.9613 42.15 16.4613 41.975 16.7363 41.825C16.5863 41.825 16.6113 41.65 16.4863 41.65C16.4363 41.6 16.4113 41.5875 16.4113 41.5125C16.1488 41.5125 16.4988 41.05 16.0488 41.05C15.9363 40.95 15.9363 40.9375 15.7988 40.9375C15.7863 40.9375 15.7363 40.9375 15.7238 40.9375C15.3988 40.9375 14.5738 40.4875 14.5738 40.1875C14.6238 40.075 14.7363 39.975 14.8363 39.8875C15.0738 39.675 14.5988 39.7625 14.5488 39.525C14.3363 39.4625 14.2863 39.225 14.2863 39.025C14.2863 38.75 14.6488 38.6 14.7863 38.375C14.5613 38.225 14.3863 38.3375 14.0988 38.275C14.0113 38.275 13.9238 38.275 13.8113 38.275C13.6238 38.225 13.3488 38.0875 13.2738 37.9375C13.1863 37.7625 13.1488 37.475 13.1988 37.25C13.1988 36.9625 13.8488 36.875 13.8488 36.6375C13.6488 36.575 13.5488 36.2375 13.4238 36.0625C13.3488 35.8 13.3113 35.475 13.3113 35.1875C12.9363 35.1875 12.6613 35.1625 12.4113 34.7875C12.1238 34.5 12.0488 34.1375 12.0488 33.75C12.0488 33.325 11.6863 33.6125 11.4988 33.425C11.3363 33.425 11.5363 33.0875 11.3238 33.025C11.0488 32.85 10.7863 32.5626 10.7863 32.2001C10.7863 31.6751 11.3988 32.1375 11.3988 31.6625C11.3988 30.9625 11.4738 31.15 11.9238 30.8375C11.9738 30.5625 11.7863 30.6251 11.7113 30.4376C11.5238 30.2876 11.5363 30.0125 11.4113 29.9C11.4113 29.2875 11.5738 29.0876 12.0363 28.8251C12.0863 28.8251 12.1738 28.8251 12.2113 28.8251C12.4738 28.8251 12.4988 29.1126 12.6363 29.1126C12.7738 29.4126 12.7613 29.1126 12.6738 29.1126C12.6738 29.0126 12.6988 28.6876 12.5613 28.6876C12.5613 28.5626 12.5613 28.4126 12.5238 28.2876C12.4613 28.2876 12.4863 28.1126 12.4863 28.0751L28.4863 27.8251Z" fill="black"/>
<path d="M25.9488 46.1748H26.0613H26.1613H26.2738L26.3863 46.2123L26.4863 46.2498L26.6113 46.3248L26.7363 46.3623L26.6363 46.4248L26.5363 46.4623H26.4113L26.3113 46.4998H26.1988H26.0988H25.9863H25.8738H25.7738H25.7363L25.6238 46.3998V46.3248L25.6613 46.2873H25.6988L25.7363 46.2498L25.7738 46.2123L25.8488 46.1748H25.9488Z" fill="#496E6E"/>
<path d="M29.8987 46.1496L29.9737 46.1121H30.0362L30.1112 46.0746H30.1862L30.2612 46.0371H30.3237H30.3987H30.4737H30.5862H30.6487H30.7737H30.8612H30.9737L31.0487 46.1121L31.0112 46.1496L30.9737 46.1746L30.9362 46.2121L30.8612 46.2496L30.8362 46.2871H30.7737L30.6862 46.3246H30.6112L30.5487 46.3621L30.4362 46.3996H30.3237L30.2237 46.4246H30.1112H30.0112H29.8987H29.7987H29.6862L29.5737 46.3621L29.6862 46.2496H29.7237H29.7487L29.7987 46.2121H29.8237L29.8612 46.1746L29.8987 46.1496Z" fill="#496E6E"/>
<path d="M19.6613 44.0872C19.6613 43.4122 20.2863 43.5497 20.6988 43.4122C20.9613 43.4122 21.3738 43.1372 21.5238 42.9497C21.6363 42.4247 21.1988 42.6622 21.1988 42.2247C21.1988 41.8622 21.5488 41.9497 21.7738 41.9747C21.8863 41.9872 21.8738 42.0497 21.9863 42.0497C21.6863 42.2122 21.7363 42.3247 21.7363 42.5872C21.7363 42.6997 21.4613 43.2372 21.7738 43.2372C21.7738 43.3372 21.9738 43.2747 21.8113 43.3497C21.8113 43.7122 20.8738 44.1872 20.7363 44.2872C20.8113 44.4497 21.2488 44.1122 21.3488 44.0372C21.4113 44.0872 21.1363 44.5997 21.0988 44.6747C20.9988 45.0122 20.8488 45.3872 20.8488 45.7622C20.8488 45.9747 20.9613 45.7747 20.9613 45.6872C20.9613 45.4372 21.3738 44.2622 21.6113 44.0372C21.6613 44.1122 21.7113 44.4997 21.7488 44.4997C21.7488 44.6372 21.9238 44.8372 21.9613 44.9622C22.2613 45.1122 21.8488 44.3122 21.8488 44.1622C21.6863 43.9997 21.8738 43.6622 21.9613 43.5247C21.9613 43.5497 22.1738 43.9247 22.1738 43.6247C22.1738 43.6747 22.5488 43.6247 22.6613 43.6247C22.6738 43.6247 23.9488 43.6997 23.9488 43.6997C24.1863 43.9747 23.8613 44.2997 23.6988 44.2997C23.2988 44.2997 22.7613 43.7997 22.6363 43.9122C22.1238 44.3247 23.2113 44.9872 22.7113 45.2372C22.5113 45.2372 21.9863 45.2872 21.8488 45.0622C20.9738 45.2747 21.7238 46.2872 20.6988 46.2872C20.0988 46.2872 20.0488 45.5997 20.3988 45.2497C20.6363 45.0122 20.6488 44.3497 20.1988 44.3497C20.0738 44.3497 19.6613 44.2872 19.6613 44.0872Z" fill="#2CA02C"/>
<path d="M33.9238 45.9619H33.9988L34.0738 45.9994V46.0369H34.1113H34.1363H34.1738H34.2113H34.2488H34.2863L34.3613 45.9994L34.2488 46.0744H34.1738L34.1113 46.1119H34.0363L33.9738 46.1494L33.8613 46.1744H33.8238H33.7113H33.6738L33.5738 46.2119H33.5363H33.4238H33.3863H33.3488H33.3863L33.4613 46.1744H33.5363L33.5988 46.1494H33.6738L33.7488 46.0744L33.8238 46.0369L33.9238 45.9619Z" fill="#2CA02C"/>
<path d="M24.3363 46.0377V45.9627L24.4738 45.8877H24.5488H24.5738H24.6613H24.6988H24.7613H24.8363H24.9113V45.9252H24.9488H24.9863V45.9627H25.0238H25.0488H25.1238V46.0377L25.0863 46.0752H25.0488H25.0238L24.9863 46.1127H24.9488L24.9113 46.1502H24.8363H24.7988H24.7613H24.7363H24.6613H24.6113H24.5738H24.5488H24.5113H24.4738H24.4488H24.4113V46.1127H24.3738V46.0752H24.3363V46.0377Z" fill="#496E6E"/>
<path d="M31.3488 45.5994H31.3738H31.4113H31.4363H31.4738L31.5113 45.5619H31.5488L31.6238 45.4994H31.6988L31.7738 45.4619H31.8488H31.9113H31.9488H32.0113H32.0488H32.1363V45.4994V45.5369V45.5619V45.5994V45.6369V45.6744L31.9738 45.7494L31.9113 45.7869H31.8863H31.8113H31.7738H31.6988H31.6613H31.5863H31.5488H31.5113H31.4738H31.4363H31.4113H31.3738L31.3488 45.7494L31.3113 45.7119V45.6744L31.3488 45.5994Z" fill="#496E6E"/>
<path d="M25.6238 44.4502L25.6613 44.4877L25.6988 44.5252L25.7363 44.5627H25.7738L25.8113 44.5877L25.8488 44.6252L25.8738 44.6627H25.9863V44.7377L25.9113 44.7752H25.8738L25.8113 44.8127H25.7738L25.6988 44.8502H25.6613L25.6238 44.8877H25.5988V44.8502V44.8127V44.7752V44.7002V44.6627V44.5877V44.5627L25.6238 44.4502Z" fill="white"/>
<path d="M26.9613 44.5622C26.7863 44.5622 26.4988 43.8122 26.5738 43.6622C26.4238 43.6622 26.3113 43.3872 26.1488 43.3872C25.7363 43.5497 25.0863 44.0747 24.6988 43.8497C24.5863 43.7872 24.3988 43.6247 24.6238 43.3872C24.6863 43.3372 24.5488 42.7997 24.7738 42.7997C24.7738 42.9122 24.9988 42.7872 25.0238 42.7622C25.2363 42.5497 25.5113 42.9872 25.6363 43.1247C25.8863 42.9997 25.4613 42.6997 25.4613 42.5872C25.5738 42.4747 26.9738 42.4497 26.9738 42.9247C27.1488 42.9247 27.1238 43.3872 27.1238 43.5372C27.3113 43.6747 27.2488 43.1997 27.2488 43.1372C27.2488 42.6747 27.5738 43.2497 27.6113 43.3122C27.6863 43.4497 28.2738 44.3122 28.4363 43.9997C28.0863 43.7622 27.8488 43.1747 27.5363 42.8872C27.4863 42.8372 27.2988 42.6872 27.4613 42.7747C27.8113 42.7747 28.1863 42.9747 28.3988 42.5622C28.2363 42.6247 26.4613 42.5497 26.4613 42.3497C26.2113 42.3497 25.9363 42.3497 25.6738 42.3497C25.8738 42.2122 26.5863 41.6247 26.5488 41.5247C26.2363 41.7247 25.8738 41.9622 25.5738 42.1747C24.5863 42.9497 25.1613 41.6372 25.1738 41.6372C25.2863 41.6372 25.3113 41.4622 25.2488 41.3872C25.4238 41.2122 25.6738 41.0497 25.8988 40.9497C25.9613 40.9247 26.4738 40.8372 26.4738 40.8872C26.5488 40.8872 26.6738 40.9872 26.7613 40.9872C26.7613 41.0997 26.9363 41.3372 26.9363 41.5372C26.9363 42.1872 27.6738 42.0872 28.1238 41.9747C28.3363 42.1247 28.7988 42.1497 28.7988 42.5372C28.6988 42.7622 28.6488 42.7747 28.4863 42.9372C28.4863 42.9872 28.4363 43.0747 28.4113 43.1122C28.4113 43.6247 29.0988 43.6372 29.0988 44.0247C29.0988 44.2122 29.1488 44.6247 28.8363 44.6247C28.6363 44.8372 27.9863 44.7497 27.9863 44.3497C27.9113 44.3497 27.7613 44.2622 27.7613 44.1997C27.3738 44.1622 27.2863 44.5622 26.9613 44.5622Z" fill="#2CA02C"/>
<path d="M26.0237 44.1631L25.9862 44.1256H25.9487V44.0881V44.0631H25.9112H25.8737L25.8487 44.0256V43.9881H25.8112L25.7737 43.9506V43.9131H25.7362V43.8756H25.6987V43.8506V43.7631H25.7362H25.7737H25.8112H25.8487H25.8737H25.9112L25.9862 43.7256V43.7631L26.0612 43.8131L26.0987 43.8506H26.1987L26.2362 43.8756L26.3112 43.9131L26.3487 43.9506L26.4112 43.9881V44.0631V44.0881V44.1256V44.1631V44.2256V44.3131H26.4487L26.4112 44.3506L26.4487 44.2756H26.3862H26.3112L26.2362 44.2256L26.1987 44.2006H26.1362L26.0987 44.1631H26.0237Z" fill="#217821"/>
<path d="M33.3863 43.8752C32.8863 43.9627 32.0863 44.0502 31.5488 44.0502C30.9863 44.0502 30.7613 43.7752 30.7738 43.4002C30.7863 42.7252 32.3363 43.3127 32.8238 43.3627C33.3988 43.4377 33.8613 43.5377 34.3988 43.5377C34.9488 43.5377 34.0988 43.7127 34.0363 43.7127C33.9488 43.7877 33.5363 43.8502 33.3863 43.8752Z" fill="#FFF200"/>
<path d="M17.6112 43.337C17.5737 43.337 17.3362 43.062 17.1487 43.1495C16.8112 43.1495 16.1112 43.512 16.1112 42.8745C16.1112 42.337 16.3237 42.387 16.6487 42.1495C16.7737 42.262 17.3612 42.187 17.3612 41.8995C17.5237 41.737 17.1112 41.0621 17.9737 41.4745C18.5612 41.4745 18.9112 41.5745 18.9112 40.8996C18.9112 40.3996 19.7487 40.1496 19.8862 40.5371C20.0612 40.5371 20.5362 41.0621 20.4612 41.1871C20.4612 41.6495 20.3612 41.562 20.4237 41.837C19.9612 41.837 19.8362 41.537 19.4237 41.412C19.3362 41.2745 19.3737 41.2995 19.2112 41.337C19.2112 41.5495 19.6737 41.7495 19.8612 41.7995C19.7737 41.837 18.8862 41.9745 18.7862 42.087C18.5487 42.137 17.9612 41.962 17.7737 41.762C17.7487 41.8245 17.7112 41.8745 17.7112 41.9495C17.8862 41.9495 18.2737 42.2245 18.3862 42.2245C18.1237 42.362 17.6112 42.362 17.3112 42.362C17.2737 42.412 16.7737 42.4995 17.4237 42.4995C17.8487 42.4995 18.1987 42.5495 18.5737 42.362C18.4862 42.4995 18.0487 43.037 18.1112 43.1495C18.2987 43.1495 18.5737 42.6245 18.7362 42.437C19.0987 42.137 19.2237 42.037 19.7737 42.037C20.1362 41.9245 18.9987 42.7245 19.4737 42.7245C19.5487 42.5495 20.2737 41.862 20.2737 42.037C20.4112 42.037 20.5612 42.037 20.6987 42.037C20.2987 42.2245 20.7487 42.437 20.7362 42.437C21.7112 42.6995 20.8737 43.212 20.0487 43.212C19.8862 43.212 19.8237 43.3245 19.6862 43.5745C19.5112 43.7495 19.0987 42.987 18.7112 43.3745C18.3862 43.687 18.3987 43.912 17.8737 43.912C17.6362 43.912 17.6737 43.337 17.6112 43.337Z" fill="#2CA02C"/>
<path d="M29.4738 43.6246L29.5738 43.5871L29.7238 43.5246L29.8238 43.4871L29.9738 43.4121L30.1113 43.3371L30.2613 43.2246H30.3988L30.5113 43.2996L30.3613 43.4121L30.2238 43.4496L30.1113 43.4871L30.0113 43.5246L29.8613 43.5871L29.7488 43.6246L29.6113 43.6871L29.4988 43.7246L29.4738 43.7621L29.4363 43.8121L29.3988 43.8496L29.3613 43.8746V43.9121H29.2738H29.2488V43.8746V43.8496V43.8121V43.7621V43.6871H29.3613L29.4738 43.6246Z" fill="#FFF200"/>
<path d="M29.1488 43.5256C28.9738 43.5256 28.9738 43.3881 28.8613 43.3881C28.8613 43.3506 28.7988 43.2506 28.7863 43.2381C28.7863 42.6881 29.4113 42.1131 29.7613 41.7631C30.2488 41.4006 30.7363 41.0881 31.2363 40.7881C30.7863 41.3006 30.3113 41.9131 30.1113 42.5881C29.9238 42.9131 29.5988 43.5256 29.1738 43.5256H29.1488Z" fill="#FFF200"/>
<path d="M22.3988 43.375C21.9488 43.2 22.2363 42.65 22.5738 42.4375C22.7488 42.1625 22.7113 42.2375 22.7113 41.9625C22.7113 41.475 21.4863 41.7125 21.4238 41.7125C21.1488 41.7125 20.6738 41.575 20.6738 41.2125C20.6738 41.1375 21.0613 41.2 21.2488 41.1C21.8988 40.8 21.1863 40.1625 20.7488 40.1625C20.6988 40.1125 20.4238 39.9625 20.4113 39.9375C20.2988 39.475 20.3363 39.1875 20.7113 39C20.7863 39.075 21.5738 39.3375 21.5738 39.425C21.5738 39.525 21.8488 39.7375 21.9363 39.7875C22.0488 39.875 22.7113 39.575 22.7113 39.925L22.9738 40C23.4488 40 22.7988 40.6875 23.6863 40.6875C24.0238 40.6875 24.2363 40.4375 24.5238 40.65C25.1988 41.1375 24.2863 42.075 24.1988 42.7C23.9738 42.3375 23.9488 41.575 23.9488 41.1625C23.7863 41.1625 23.8113 41.1125 23.7738 41.275C23.7738 41.4375 23.7363 41.7375 23.8113 41.8875C23.6988 41.8125 23.6113 41.7 23.5238 41.6C23.4613 41.5 22.9488 41.1125 22.9488 41.0625C22.7613 41.0625 22.6613 39.7625 22.4863 40.0125C22.4863 40.1 22.4988 40.725 22.6238 40.85C22.1238 40.75 21.3363 39.925 21.1863 39.4375H21.0488C21.1738 40.0125 21.7363 40.55 22.1988 40.85C22.8238 41.225 21.6613 40.975 21.6613 41.1375C21.6613 41.4125 22.5738 41.2375 22.7363 41.2125C23.1863 41.4 23.5738 41.9875 23.8613 42.3625C23.6613 42.3625 22.9863 42.3125 22.9238 42.475C22.9738 42.6875 23.8738 42.4875 23.9988 42.75C23.9988 42.8375 24.0113 43.2375 24.0613 43.3375C23.8738 43.4 23.5988 43.35 23.4238 43.4125C23.3363 43.4375 22.3988 43.375 22.3988 43.375Z" fill="#2CA02C"/>
<path d="M37.3113 43.0881C36.4613 43.5131 35.5113 43.4131 34.6113 43.2631C34.3738 43.2256 34.6613 43.1881 34.7863 43.1506C35.1363 43.0381 35.4988 43.0131 35.7863 42.7881C36.3238 42.9256 36.7863 43.1381 37.3113 43.0881Z" fill="#FFF200"/>
<path d="M32.4863 42.3252C32.7988 42.3252 33.1363 42.3252 33.4238 42.4002C34.3238 42.6127 34.6113 42.6252 35.2238 42.7127C35.2988 42.7252 35.6238 42.7877 35.3738 42.7877C35.3488 42.8002 34.8113 42.9377 34.7488 42.9377C34.4113 43.1002 32.6738 43.3002 32.4738 43.1127C31.9738 43.1127 32.1113 42.3252 32.4863 42.3252Z" fill="#FFF200"/>
<path d="M30.5862 43.1123C29.5362 42.5998 31.9112 40.7373 32.3237 40.4873C31.8112 41.1748 31.4987 41.9873 31.1612 42.7623C30.9612 42.9748 30.9487 43.1248 30.6237 43.1248H30.5862V43.1123Z" fill="#FFF200"/>
<path d="M35.9488 42.5125C35.7488 42.5125 35.4363 42.4875 35.8738 42.3375C36.4238 42.1625 36.9363 41.975 37.4113 41.6875C37.5863 41.6875 37.7113 41.8 37.8363 41.8C38.2988 41.8 38.7488 41.8 39.2113 41.725C38.8613 41.9375 37.7238 42.4125 37.3363 42.4875C36.6988 42.6125 37.0613 42.4875 35.9488 42.5125Z" fill="#FFF200"/>
<path d="M31.9738 42.3625C31.7988 42.3625 31.9238 42.2875 31.8363 42.2875C31.2238 41.675 33.3363 40.0875 33.4488 40.2C32.9238 40.975 33.0238 41.9625 31.9988 42.35H31.9738V42.3625Z" fill="#FFF200"/>
<path d="M36.0863 41.975C36.3363 41.975 36.0238 42.05 36.0238 42.05C35.9113 42.1625 34.7238 42.3375 34.5488 42.3375C34.1488 42.3375 33.6863 42.4625 33.6863 41.9125C33.6863 41.2625 35.0238 41.6125 35.3363 41.775C35.5363 41.85 35.8488 41.975 36.0863 41.975Z" fill="#FFF200"/>
<path d="M28.6362 41.8627L28.7362 41.7502L28.9237 41.6127L29.0737 41.5002L29.2487 41.3627L29.4362 41.2502L29.6487 41.1377L29.8612 41.0752L30.1112 40.9502L30.0362 41.0752L29.9737 41.1127L29.8987 41.2127L29.8237 41.2502L29.7237 41.3252L29.6487 41.4002L29.5737 41.4627L29.5362 41.5377L29.4737 41.5752L29.3612 41.6877L29.3237 41.7502L29.2737 41.7877L29.2487 41.8252L29.2112 41.8627V41.9002L29.1487 41.9377L29.1112 42.0002L29.0737 42.0377L29.0362 42.0752L28.9987 42.1127V42.1502H28.9237L28.8987 42.1127L28.8612 42.0752L28.8112 42.0377L28.7737 42.0002H28.7112V41.9752L28.6362 41.9377V41.8627Z" fill="#FFF200"/>
<path d="M16.4988 41.0376C16.4988 40.7626 17.1863 40.5876 17.1863 40.1376C17.1863 39.9001 16.6238 39.6126 16.5363 39.2751C16.5363 38.7751 17.0738 39.0626 16.9363 38.5501C16.9363 38.4251 16.6363 38.1501 16.5113 38.1501C16.4863 38.0876 16.1238 37.4876 16.2988 37.3251C16.3738 37.2126 16.5988 36.9251 16.7613 36.9251C17.0363 36.8001 17.0613 37.0626 17.2613 36.9626C17.6238 37.3251 17.4613 38.2501 18.3738 37.6126C18.5488 37.6876 18.5363 37.8126 18.6363 37.9001C18.8988 37.9001 18.7363 38.7001 18.9863 38.7001C19.2113 38.9126 19.7363 38.5126 19.8613 38.7751C20.0488 38.7751 20.1988 38.9501 20.2613 39.0876C20.3113 39.2126 20.1488 39.3251 20.1488 39.4501C20.1488 39.4501 19.9113 39.7751 19.9613 39.8501C20.2738 40.3251 19.0988 40.0251 19.4238 39.7751C19.4238 39.6751 19.4113 39.5876 19.4613 39.4751C19.1238 39.4751 19.3863 40.1251 19.0613 40.1251C19.0488 40.1376 18.9863 40.1626 18.9863 40.2001C18.7738 40.1501 19.0613 40.6501 18.7863 40.2376C18.4863 39.7876 18.1988 39.1626 18.3863 38.5751C18.4363 38.4251 18.3738 38.1751 18.4238 38.0001C18.1863 38.0001 18.1863 38.7001 18.1863 38.9001C18.1863 39.2626 17.5363 38.2876 17.4988 38.2251C17.2863 37.9626 16.9988 37.6626 16.8113 37.3876C16.5363 37.5251 17.6488 38.7376 17.8113 38.9626C18.0488 39.2626 17.9863 39.2251 17.7113 39.1501C17.4863 39.1501 17.0863 39.1376 16.9113 39.0751C16.7988 39.3251 17.8863 39.3126 18.0988 39.4001C18.1738 39.6251 18.4363 40.1376 18.5988 40.3126C18.6488 40.4876 18.8738 40.3001 18.5988 40.5626C18.3238 40.8376 17.9238 40.5126 17.7488 40.6001C17.3738 40.6001 18.3363 40.9376 17.9488 41.0251C17.8238 41.0501 17.8988 41.0501 17.7738 41.1001C17.5988 41.1626 17.7238 41.0751 17.4863 41.1876C17.3613 41.2501 17.1238 41.6751 17.1988 41.6751C16.8738 41.6876 16.4988 41.3001 16.4988 41.0376Z" fill="#2CA02C"/>
<path d="M35.8362 40.75C36.4487 40.75 36.9987 40.9625 37.5987 40.9625C37.0112 41.4125 34.9987 42.0375 35.1862 41.0375C35.2237 40.8 35.6987 40.75 35.8362 40.75Z" fill="#FFF200"/>
<path d="M33.5988 41.4998C33.5238 41.4998 33.3863 41.3873 33.3488 41.3623C33.3488 40.4248 33.9613 40.1873 34.5988 39.7123C34.6988 39.6373 34.7488 39.4873 34.8988 39.4873C34.7613 39.7498 34.5988 40.1123 34.4988 40.3623C34.3363 40.7623 34.1988 41.5123 33.6238 41.5123H33.5988V41.4998Z" fill="#FFF200"/>
<path d="M38.9113 41.2373C38.5238 41.3748 37.5988 41.4748 37.5988 41.3998C37.4238 41.2623 37.4238 41.3123 37.5988 41.2248C38.0488 40.9498 38.4488 40.7123 39.2488 40.6498C39.6113 40.6248 39.8863 40.6748 40.1488 40.6123C39.8613 40.8248 39.1863 41.1748 38.9113 41.2373Z" fill="#FFF200"/>
<path d="M34.8613 40.8252C34.4613 40.8252 34.8363 40.1877 34.9113 40.0252C35.2363 39.6127 35.6613 39.2627 36.0863 38.9502C35.6363 39.4377 35.6863 40.8252 34.9113 40.8252H34.8613Z" fill="#FFF200"/>
<path d="M37.4487 40.7877C37.6862 40.7877 38.2612 40.4502 38.4487 40.3252C38.4987 40.3377 38.8237 40.3752 38.9362 40.4002C38.7237 40.6377 37.8987 40.8002 37.6862 40.8002C37.6112 40.8002 37.5487 40.8002 37.4737 40.8002H37.4487V40.7877Z" fill="#FFF200"/>
<path d="M36.5238 40.4877C36.4488 40.4877 36.3113 40.0627 36.5613 40.0627C36.7113 39.9002 37.9488 40.1377 38.3613 40.1377C38.0113 40.4752 36.6988 40.8877 36.5238 40.4877Z" fill="#FFF200"/>
<path d="M41.4488 39.3125C41.0863 39.8125 39.6363 40.825 39.0613 40.2625C38.9613 40.1625 38.9738 40 39.1363 39.9125C39.3738 39.7625 39.6738 39.625 40.2238 39.4875C40.6488 39.3875 41.0363 39.45 41.4488 39.3125Z" fill="#FFF200"/>
<path d="M36.1113 40.0248C35.6363 39.6498 36.5363 38.7873 36.8363 38.4873C36.8488 38.4998 36.7238 39.1998 36.7238 39.2873C36.6613 39.5998 36.5113 40.0248 36.1113 40.0248Z" fill="#FFF200"/>
<path d="M39.1112 39.2381C39.2862 39.2381 39.4487 39.2256 39.6112 39.2006C39.3862 39.4756 37.4237 40.2756 37.3737 39.7006C37.1987 38.9256 38.6862 39.2381 39.1112 39.2381Z" fill="#FFF200"/>
<path d="M14.6863 39.275C14.6113 39.275 14.5363 38.9125 14.6488 38.9125C14.7988 38.8375 14.9113 38.85 15.0488 38.7C15.1863 38.55 15.1613 38.2125 14.9738 38.1125C14.9738 37.9375 14.2988 38 14.1363 38C13.8113 37.925 13.2988 37.7625 13.5363 37.2875C13.6988 37.1875 14.3113 36.9125 14.3113 36.6C14.1238 36.4125 13.7738 36.1375 13.6238 35.9125C13.5863 35.6375 13.5613 35.35 13.7363 35.125C13.8113 35.125 13.9988 34.8875 14.0613 34.9875C14.2238 34.9875 14.3613 35.025 14.5363 35.025C14.6738 35.3 15.0613 35.9875 15.4363 35.8C15.5488 35.8 15.6863 35.525 15.9363 35.525C16.3613 35.525 16.5363 35.925 16.7988 36.175C17.0238 36.3 16.8113 36.55 16.9363 36.675C16.6613 36.675 16.0363 36.8125 16.0363 37.1C15.9738 37.1125 15.8488 37.2375 15.8238 37.2375C15.6488 37.4 15.8238 37.1625 15.6363 37.1625C15.6363 36.7625 15.5363 36.425 15.6363 36.0125C15.4988 35.575 15.4238 36.875 15.4238 36.875C15.5613 37.325 15.2113 36.8875 15.0988 36.7625C14.7613 36.3875 14.3363 35.8375 14.0863 35.4C13.7863 35.5625 15.0613 37.025 15.3113 37.225C15.0738 37.275 14.5363 37.3 14.2988 37.225C14.2613 37.35 14.2238 37.375 14.3363 37.375C14.3363 37.3875 15.4988 37.5125 15.6238 37.5125C15.6238 37.6125 15.6238 37.7 15.6238 37.8C15.6238 38.3125 15.8863 37.775 15.8863 38.1625C15.8863 38.3375 15.8738 38.3375 15.9988 38.5125C15.6488 38.5125 15.7863 38.7375 15.9613 38.7375C16.2988 38.7375 15.9613 39.025 15.9613 39.1C16.2613 39.1 16.0488 39.2625 15.9238 39.3375C16.0238 39.75 15.4488 39.5625 15.2363 39.5625C15.0988 39.6 14.8488 39.275 14.6863 39.275Z" fill="#2CA02C"/>
<path d="M37.1237 39.3123C36.5362 39.0123 37.5362 37.9498 37.8362 37.7373C37.8362 37.9373 37.5362 39.1248 37.4362 39.2123C37.4487 39.1998 37.1237 39.3998 37.1237 39.3123Z" fill="#FFF200"/>
<path d="M41.1363 38.3744C41.5613 38.2619 41.7863 38.1369 42.1363 38.0869C42.1738 38.2619 40.4363 39.8244 40.1988 39.1369C40.2113 39.0119 39.9488 38.7369 40.4988 38.5244C41.0488 38.3119 40.8863 38.4369 41.1363 38.3744Z" fill="#FFF200"/>
<path d="M41.0487 37.7752C41.0112 37.7002 41.3862 37.2127 41.6988 37.0877C41.9988 36.9502 42.2363 36.8752 42.5238 36.8377C42.7363 36.8377 42.9488 36.7627 43.1363 36.7002C42.6988 37.3127 42.4238 37.8002 41.7862 37.8377C41.6487 37.9127 41.5738 37.9377 41.3363 37.9127C41.0737 37.8877 41.0862 37.8377 41.0487 37.7752Z" fill="#FFF200"/>
<path d="M39.8612 38.2994C40.1612 38.2994 40.4112 38.2994 40.6987 38.2744C39.9612 38.6619 39.5362 39.1119 38.7112 38.9494C38.6612 38.9369 38.4362 38.8369 38.5987 38.5494C38.7237 38.3744 39.6487 38.2494 39.8612 38.2994Z" fill="#FFF200"/>
<path d="M38.1362 38.5877C37.9612 38.5877 37.9987 38.4752 37.9987 38.3002C37.9987 37.8252 38.5487 37.3252 38.8612 37.0127C38.6612 37.4502 38.5362 37.9252 38.5362 38.4127C38.3862 38.5502 38.1862 38.7127 38.1862 38.5877H38.1362Z" fill="#FFF200"/>
<path d="M41.6488 36.625C41.3613 36.925 39.7863 38.75 39.2863 38.0125C39.2863 37.6125 40.1863 37.4125 40.4488 37.3625C40.7363 37.3 41.3238 36.9375 41.6488 36.625Z" fill="#FFF200"/>
<path d="M41.7113 36.4127C41.7238 35.8127 42.2738 35.5377 42.7738 35.5377C43.1113 35.5377 43.4238 35.2627 43.7113 35.1377C43.2363 35.7377 42.6363 36.9377 41.7113 36.4127Z" fill="#FFF200"/>
<path d="M38.9613 37.9377C38.3363 37.6252 39.9988 36.0127 40.2863 35.7002C40.3488 35.7627 39.7988 36.8627 39.7613 36.9752C39.6863 37.1877 39.4613 37.8252 38.9988 37.9377H38.9613Z" fill="#FFF200"/>
<path d="M39.9738 37.2881C39.6363 36.8006 40.3988 36.3881 40.5238 36.2506C40.6363 36.1131 41.1738 35.8381 41.2863 35.6631C41.2863 35.7631 41.0238 36.2631 40.9613 36.3756C40.5863 37.1381 40.3988 37.1631 39.9988 37.2756L39.9738 37.2881Z" fill="#FFF200"/>
<path d="M41.4363 33.6631C41.4363 34.0131 41.4238 34.8506 41.2613 35.1756C41.1363 35.4506 40.8363 35.8256 40.6738 35.6506C40.3988 35.3256 40.4988 35.2881 40.7613 34.7631C40.9363 34.4131 41.2238 34.0131 41.4363 33.6631Z" fill="#FFF200"/>
<path d="M42.7363 35.2369C42.1863 35.2369 42.4738 34.5869 43.0613 34.4869C43.4238 34.4244 43.6488 34.3369 43.9363 34.1494C43.6863 34.5369 43.2613 35.2369 42.7363 35.2369Z" fill="#FFF200"/>
<path d="M11.8862 31.8246C11.7612 31.8246 11.6112 31.3996 11.7737 31.3246C11.9237 31.1621 12.6112 30.9371 12.2362 30.5621C11.9737 30.3121 11.7362 30.0746 11.7362 29.6621C11.7362 29.2621 11.9737 29.1621 12.3112 29.1621C12.4612 29.2871 12.5862 29.5996 12.7112 29.6621C12.9487 29.9121 12.9112 29.4746 13.0362 30.0621C13.1987 30.7121 13.5737 31.5371 13.9362 32.1121C13.8612 32.4121 13.7487 32.1621 13.7487 32.0371C13.5112 31.6371 13.3612 31.1621 13.0612 30.8246C12.9237 30.5746 12.7237 30.3371 12.5987 30.0996C12.5862 30.1121 12.5362 30.1371 12.5237 30.1371C12.6987 30.5996 13.0362 30.9996 13.2487 31.4371C13.8362 32.4371 13.6362 32.3121 12.8862 31.5746C12.7987 31.7746 13.3737 32.0996 13.4237 32.2621C13.6612 32.4871 13.7612 32.8621 14.0112 33.0871C13.8987 33.1996 14.1237 33.2246 13.9362 33.4121C13.6487 33.6996 14.2362 33.3871 14.0112 33.6246C13.9987 33.6621 13.1737 33.7996 13.6737 33.7996C13.7862 33.9121 13.9487 33.8746 13.8112 34.0621C13.6862 33.9246 13.7237 33.9246 13.6362 34.0246C13.4612 34.1996 13.5362 34.2746 13.5362 34.4121C13.6737 34.4121 13.2237 34.8371 12.9987 34.4871C12.8987 34.6746 13.1362 34.8871 13.2737 34.9496C13.0862 34.9496 13.0362 34.7246 12.9487 34.7246C12.9487 34.7121 12.6362 34.6371 12.5862 34.5121C12.3987 34.4121 12.1737 33.6996 12.3737 33.4996C13.2862 32.6371 12.4112 32.3871 11.8862 31.8246Z" fill="#2CA02C"/>
<path d="M42.2738 32.5127C41.9863 33.3127 42.7113 34.1752 41.9113 34.6627C40.9238 34.6627 42.1863 32.7377 42.2738 32.5127Z" fill="#FFF200"/>
<path d="M43.6737 33.0877C43.8862 32.9627 44.1487 32.7502 44.3237 32.5752C44.4362 32.8252 43.5612 34.4877 43.0987 34.0252C42.8862 33.8002 43.0987 33.6877 43.0987 33.6252C43.1112 33.5377 43.5737 33.1502 43.6737 33.0877Z" fill="#FFF200"/>
<path d="M11.0863 32.3244V32.2619L11.2488 32.1494V32.1869H11.3113H11.3488H11.4238H11.4613H11.5238H11.5988H11.6738L11.8238 32.2244V32.2619H11.8613H11.8863V32.2869H11.9238L11.9613 32.3244H11.9863V32.3994L11.9238 32.4744L11.8863 32.5369L11.8613 32.6119L11.8238 32.6869L11.7863 32.7994L11.7488 32.8369L11.7113 32.8994L11.6738 32.9369H11.6363L11.5238 32.8994L11.4613 32.8369L11.3863 32.7994L11.3488 32.6869L11.2488 32.6119L11.2113 32.5369L11.1238 32.4369L11.0863 32.3244Z" fill="#D2AB67"/>
<path d="M43.5113 32.8381C42.7613 32.5381 43.9112 31.2256 44.2237 30.6006C44.2237 31.2506 44.2237 33.1131 43.5113 32.8381Z" fill="#FFF200"/>
<path d="M14.8612 33.7744C14.8612 33.7744 14.5237 34.0244 14.6862 34.3119C14.8612 34.5869 14.9237 34.4494 15.1862 34.6244C15.4612 34.7994 14.8737 35.1119 15.1862 35.3744C15.5112 35.6244 15.5487 34.9994 15.7112 35.1369C15.8237 35.1619 14.7862 33.7994 14.8612 33.7744Z" fill="#2CA02C"/>
<path d="M28.6362 45.3244L28.8737 45.1494L30.4612 45.7994L29.7487 45.9119L28.6362 45.3244Z" fill="#2CA02C"/>
<path d="M26.5113 46.0498L25.8113 45.9873L28.0988 44.7998L28.2988 44.9373L26.5113 46.0498Z" fill="#FFF200"/>
<path d="M26.9863 44.8373L25.2988 45.7498H25.0113L24.7363 45.7248L26.7738 44.7998L26.9863 44.8373Z" fill="#FFF200"/>
<path d="M29.9612 44.7373L29.8862 44.8623L31.2862 45.4498L31.6362 45.2998L29.9612 44.7373Z" fill="#2CA02C"/>
<path d="M33.8863 44.4752L33.3738 44.1002L37.5113 43.7627L37.1238 44.5377L33.8863 44.4752Z" fill="#2CA02C" stroke="black" stroke-width="0.1347" stroke-miterlimit="2.6131"/>
<path d="M35.3113 44.8006L35.0863 45.7256L29.8363 44.2131L30.0863 43.9756L35.3113 44.8006Z" fill="#2CA02C" stroke="black" stroke-width="0.1347" stroke-miterlimit="2.6131"/>
<path d="M22.8237 44.1494C22.8237 44.1494 23.0487 44.5494 23.0612 44.6369C23.0737 44.7119 23.1987 45.1619 23.6237 44.9994C24.1987 44.7869 23.8737 44.4994 23.4862 44.4119C22.8237 44.2494 22.8237 44.1494 22.8237 44.1494Z" stroke="black" stroke-width="0.216" stroke-miterlimit="2.6131"/>
<path d="M28.0238 40.875C36.7363 40.875 43.8363 33.775 43.8363 25.0625C43.8363 16.35 36.7363 9.25 28.0238 9.25C19.3238 9.25 12.2113 16.35 12.2113 25.0625C12.2113 33.775 19.3238 40.875 28.0238 40.875Z" fill="#FFCB05"/>
<path d="M42.7112 32.3745C42.7237 32.3245 43.0737 31.5745 42.9487 32.0495C42.9487 32.262 43.2237 33.5995 42.7487 33.7495C42.3862 33.862 42.4487 33.2245 42.4987 33.087C42.5612 32.8995 42.6612 32.587 42.7112 32.3745Z" fill="#FFF200"/>
<path d="M28.0238 39.75C36.1113 39.75 42.7113 33.1375 42.7113 25.0625C42.7113 16.975 36.1113 10.375 28.0238 10.375C19.9488 10.375 13.3363 16.975 13.3363 25.0625C13.3363 33.15 19.9488 39.75 28.0238 39.75Z" fill="#0092C7"/>
<path d="M28.0238 37.625C34.9363 37.625 40.5863 31.975 40.5863 25.0625C40.5863 18.15 34.9363 12.5 28.0238 12.5C21.1113 12.5 15.4613 18.15 15.4613 25.0625C15.4613 31.975 21.1113 37.625 28.0238 37.625Z" fill="#EA0437"/>
<path d="M28.0238 35.1875C33.5988 35.1875 38.1488 30.6375 38.1488 25.0625C38.1488 19.4875 33.5988 14.9375 28.0238 14.9375C22.4488 14.9375 17.8988 19.4875 17.8988 25.0625C17.8988 30.6375 22.4488 35.1875 28.0238 35.1875Z" fill="#00AE68"/>
<path d="M24.8362 17.6506L17.6862 14.7381L20.6612 21.9131L13.5112 24.9256L20.5612 27.8756L17.7112 35.0381L24.8862 32.0756L27.9487 39.8256L31.0112 32.0756L38.1987 35.0381L35.3362 27.8756L42.5612 24.9256L35.2362 21.9006L38.2112 14.7381L31.0612 17.6506L27.9487 10.4756L24.8362 17.6506Z" fill="#FFCB05"/>
<path d="M27.9488 11.875L25.1363 18.3625L18.7113 15.75L21.3988 22.2L14.9363 24.925L21.2863 27.575L18.7113 34.025L25.2113 31.35L27.9488 38.3125L30.6988 31.35L37.1988 34.025L34.6238 27.575L41.0988 24.925L34.5113 22.2L37.1988 15.75L30.7738 18.3625L27.9488 11.875Z" fill="white"/>
<path d="M29.5112 29.3869C29.4237 29.5494 29.0237 30.0369 28.7987 30.0369C28.6487 30.0369 28.3112 30.0494 28.2362 29.9619C28.0362 29.9619 28.1987 29.8244 27.9487 29.8244C27.2862 30.3119 26.5737 30.0994 26.0487 29.4619C25.8112 29.2244 25.4362 28.5869 25.4112 28.2744C25.3987 28.1869 24.9862 26.8244 24.9862 26.6119C24.9737 26.6869 24.8862 28.2369 25.0987 28.2369C23.8237 26.8369 24.5862 24.2369 25.4862 22.8744C25.3987 24.1369 25.4112 25.3994 25.6987 26.6494C25.6987 26.9869 26.1362 28.2994 26.3612 28.2994C26.3612 28.3869 26.6862 28.4494 26.6862 28.1994C26.6862 27.9369 26.6737 27.8619 26.5737 27.5994C26.1612 26.8744 25.8612 26.0369 25.7987 25.1994C25.7112 23.7869 25.9862 21.4869 26.9237 20.3994C27.1237 20.1244 27.1612 19.9369 27.0987 20.3619C27.0987 21.4119 27.3362 22.5869 27.4862 23.6119C27.6362 24.3869 27.8237 24.4744 27.9737 25.1619C28.0237 25.5869 28.0237 26.0369 27.9737 26.4619C27.8987 27.1494 27.7362 27.8619 27.7362 28.5494C27.8737 28.8244 27.7362 28.8994 28.0862 28.8994C28.4487 28.8994 28.5862 27.7119 28.5112 27.4244C28.5112 26.7369 28.4612 25.6869 28.1612 25.0994C28.0737 24.8994 27.8737 24.3119 27.8112 24.1119C27.7362 23.8494 27.6862 23.6244 27.6737 23.5119C27.4112 22.2494 27.2737 20.3369 27.8112 19.1369C27.8612 18.9869 27.8862 18.7744 27.9862 18.6494C27.9862 18.9869 27.9112 19.3619 28.0612 19.6744C28.0612 20.4869 29.6612 23.7244 29.8112 24.3619C29.8112 24.3744 29.9987 24.8994 30.0362 25.1119C30.1237 26.0494 30.1612 27.0994 30.0362 27.9994C29.9862 28.3619 29.7237 29.0119 29.5112 29.3869Z" fill="#EA0437"/>
<path d="M29.5988 29.3744C29.7613 29.1994 30.1738 28.2494 30.2488 27.7119C30.3613 26.8244 30.4863 25.8869 30.3613 25.0244C30.2613 24.3369 30.0113 23.6494 29.7238 23.0119C29.4988 22.5119 28.9363 21.2994 28.9488 20.1494C29.1238 20.3244 29.2113 20.5869 29.3113 20.7494C29.6988 21.4119 30.2488 22.0369 30.6488 22.6869C30.9988 23.2744 31.5613 24.2369 31.5988 24.9119C31.7738 26.7119 30.9863 28.3119 29.6238 29.4619L29.5988 29.3744Z" fill="#EA0437"/>
<path d="M22.7113 37.2002C22.9738 37.2002 23.1863 37.4127 23.1863 37.6627C23.1863 37.9252 22.9738 38.1377 22.7113 38.1377C22.4488 38.1377 22.2488 37.9252 22.2488 37.6627C22.2488 37.4127 22.4488 37.2002 22.7113 37.2002Z" fill="#FFCB05"/>
<path d="M32.8237 37.4131C32.9987 37.2256 33.2987 37.2256 33.4862 37.4131C33.6612 37.5881 33.6612 37.8881 33.4862 38.0756C33.2987 38.2506 32.9987 38.2506 32.8237 38.0756C32.6362 37.8881 32.6362 37.5881 32.8237 37.4131Z" fill="#FFCB05"/>
<path d="M40.1238 30.3998C40.1238 30.1373 40.3238 29.9248 40.5863 29.9248C40.8488 29.9248 41.0613 30.1373 41.0613 30.3998C41.0613 30.6498 40.8488 30.8623 40.5863 30.8623C40.3238 30.8623 40.1238 30.6498 40.1238 30.3998Z" fill="#FFCB05"/>
<path d="M40.3112 20.2879C40.1362 20.1129 40.1362 19.8129 40.3112 19.6254C40.4987 19.4504 40.7987 19.4504 40.9737 19.6254C41.1612 19.8129 41.1612 20.1129 40.9737 20.2879C40.7987 20.4754 40.4987 20.4754 40.3112 20.2879Z" fill="#FFCB05"/>
<path d="M23.1988 12.8754C23.0238 13.0504 22.7113 13.0504 22.5363 12.8754C22.3488 12.6879 22.3488 12.3879 22.5363 12.2129C22.7113 12.0254 23.0238 12.0254 23.1988 12.2129C23.3863 12.3879 23.3863 12.6879 23.1988 12.8754Z" fill="#FFCB05"/>
<path d="M15.9113 19.8002C15.9113 20.0627 15.6988 20.2627 15.4488 20.2627C15.1863 20.2627 14.9738 20.0502 14.9738 19.8002C14.9738 19.5377 15.1863 19.3252 15.4488 19.3252C15.6988 19.3252 15.9113 19.5377 15.9113 19.8002Z" fill="#FFCB05"/>
<path d="M15.6988 29.9127C15.8863 30.0877 15.8863 30.4002 15.6988 30.5752C15.5238 30.7627 15.2238 30.7627 15.0363 30.5752C14.8613 30.4002 14.8613 30.0877 15.0363 29.9127C15.2238 29.7127 15.5238 29.7127 15.6988 29.9127Z" fill="#FFCB05"/>
<path d="M15.9988 39.8125L16.0113 40.575C16.0113 40.575 15.0613 40.5625 15.0363 40.3C15.0113 40.025 15.5113 39.8375 15.9988 39.8125Z" fill="#D2AB67"/>
<path d="M18.2487 44.125L18.9737 44.525C18.9737 44.525 18.5737 45.2875 18.2987 45.2C18.0487 45.1125 18.0862 44.5875 18.2487 44.125Z" fill="#D2AB67"/>
<path d="M28.6113 41.8373L28.1238 41.2748C28.1238 41.2748 28.6988 40.7623 28.8863 40.9123C29.0863 41.0748 28.8988 41.4873 28.6113 41.8373Z" fill="#D2AB67"/>
<path d="M24.4987 44.3877L25.1487 44.9127C25.1487 44.9127 24.6237 45.6002 24.3862 45.4627C24.1237 45.3377 24.2487 44.8252 24.4987 44.3877Z" fill="#D2AB67"/>
<path d="M36.2612 41.9998C36.2612 41.9998 37.9612 41.5498 38.7862 40.9873M35.5737 42.7373C35.5737 42.7373 37.1362 42.4998 37.8487 42.1498L35.5737 42.7373Z" stroke="black" stroke-width="2.016" stroke-miterlimit="2.6131" stroke-linecap="round"/>
<path d="M41.5113 36.7744C41.6113 36.6994 41.8488 36.6119 42.2238 36.0244M38.3988 40.1494C38.3988 40.1494 39.6363 39.6494 40.4613 39.0869L38.3988 40.1494ZM39.7863 39.1869C39.7863 39.1869 40.7113 38.6869 41.5363 38.1244L39.7863 39.1869ZM40.7738 38.2744C40.7738 38.2744 41.6488 37.9494 42.4238 37.1494L40.7738 38.2744Z" stroke="black" stroke-width="1.8" stroke-miterlimit="2.6131" stroke-linecap="round"/>
<path d="M40.4362 35.8881C40.5362 35.8131 40.7737 35.7256 41.1487 35.1381M40.1362 35.7256C40.2362 35.6506 40.4737 35.5631 40.8487 34.9756L40.1362 35.7256ZM40.3112 35.7631C40.4112 35.6881 40.6487 35.6006 41.0237 35.0131L40.3112 35.7631Z" stroke="black" stroke-width="1.008" stroke-miterlimit="2.6131" stroke-linecap="round"/>
<path d="M38.7612 40.6377C38.7612 40.6377 39.1987 40.5127 40.0237 40.0127" stroke="black" stroke-width="1.8" stroke-miterlimit="2.6131" stroke-linecap="round"/>
<path d="M33.6363 12.8754C33.4613 13.0504 33.1488 13.0504 32.9738 12.8754C32.7863 12.6879 32.7863 12.3879 32.9738 12.2129C33.1488 12.0254 33.4613 12.0254 33.6363 12.2129C33.8238 12.3879 33.8238 12.6879 33.6363 12.8754Z" fill="#FFCB05"/>
<line opacity="0.05" x1="56" y1="47.5" x2="264" y2="47.5" stroke="white"/>
<rect x="80" y="12" width="184" height="4" rx="2" fill="#3B4046"/>
<rect x="88" y="64" width="34" height="4" rx="2" fill="#3B4046"/>
<rect x="88" y="72" width="74" height="4" rx="2" fill="#3B4046"/>
<rect x="88" y="84" width="14" height="4" rx="2" fill="#3B4046"/>
<rect x="88" y="92" width="54" height="4" rx="2" fill="#3B4046"/>
<rect x="88" y="104" width="54" height="4" rx="2" fill="#3B4046"/>
<rect x="88" y="112" width="114" height="4" rx="2" fill="#3B4046"/>
<rect x="88" y="124" width="84" height="4" rx="2" fill="#3B4046"/>
<rect x="88" y="132" width="144" height="4" rx="2" fill="#3B4046"/>
<rect x="16" y="160" width="248" height="4" rx="2" fill="#3B4046"/>
<rect x="16" y="171" width="86" height="4" rx="2" fill="#3B4046"/>
<rect x="88" y="140" width="51" height="4" rx="2" fill="#3B4046"/>
<rect x="112" y="22" width="152" height="4" rx="2" fill="#3B4046"/>
<path d="M139.6 38.6H138.6C138.58 40.13 139.54 41.15 141.11 41.15C142.55 41.15 143.58 40.19 143.58 38.9C143.58 36.36 139.96 37.15 139.96 35.55C139.96 34.96 140.44 34.69 141.12 34.69C142.02 34.69 142.23 35.28 142.22 35.9H143.2C143.22 34.7 142.56 33.83 141.12 33.83C139.76 33.83 138.95 34.67 138.95 35.73C138.95 38.01 142.55 37.34 142.55 39.02C142.55 39.75 141.92 40.24 141.12 40.24C140.18 40.24 139.59 39.66 139.6 38.6ZM149.453 38.15C149.453 36.34 148.413 35.43 147.033 35.43C145.303 35.43 144.513 36.96 144.513 38.49C144.513 40.21 145.743 41.14 147.133 41.14C148.343 41.14 149.293 40.36 149.413 39.14H148.563C148.443 39.75 148.003 40.34 147.153 40.34C146.243 40.34 145.523 39.85 145.513 38.45H149.453V38.15ZM147.033 36.23C147.853 36.23 148.433 36.76 148.443 37.71H145.573C145.723 36.88 146.153 36.23 147.033 36.23ZM151.633 36.29L151.563 35.56H150.683V41H151.643V37.22C151.943 36.62 152.483 36.43 153.163 36.43C153.253 36.43 153.343 36.43 153.433 36.44L153.513 35.44C152.813 35.44 152.123 35.7 151.633 36.29ZM154.431 34.12C154.431 34.51 154.711 34.71 155.031 34.71C155.361 34.71 155.631 34.51 155.631 34.12C155.631 33.75 155.401 33.38 155.031 33.38C154.661 33.38 154.431 33.75 154.431 34.12ZM154.551 35.56V41H155.511V35.56H154.551ZM160.642 35.56L159.212 39.71H159.162L157.482 35.56H156.452L158.712 40.8C158.402 41.58 158.052 42.07 157.592 42.07C157.342 42.07 157.162 42.05 156.932 42L156.782 42.65C157.052 42.78 157.432 42.88 157.772 42.88C158.502 42.88 159.162 42.12 159.532 41.13L161.642 35.56H160.642ZM164.396 35.43C163.186 35.43 162.326 36.02 162.306 37.14H163.226C163.256 36.55 163.696 36.24 164.386 36.24C165.166 36.24 165.596 36.64 165.596 37.45V37.94C165.116 37.81 164.496 37.71 164.006 37.71C162.766 37.71 162.046 38.34 162.046 39.41C162.046 40.6 162.936 41.1 163.906 41.1C164.536 41.1 165.276 40.88 165.696 40.6L165.806 41H166.556V37.66C166.556 36.29 166.016 35.43 164.396 35.43ZM163.036 39.35C163.036 38.67 163.496 38.44 164.246 38.44C164.626 38.44 165.166 38.5 165.596 38.59V40.01C165.196 40.17 164.656 40.28 164.186 40.28C163.446 40.28 163.036 40 163.036 39.35Z" fill="#FFB47D"/>
<path opacity="0.5" d="M177.23 41H178.29L175.94 34H174.59L172.24 41H173.29L173.91 39.1H176.61L177.23 41ZM174.2 38.21L175.21 35.09H175.31L176.32 38.21H174.2ZM183.603 34H179.133V34.93H182.363V35.01L179.033 40.16V41H183.783V40.05H180.283V39.97L183.603 34.86V34ZM189.065 34.93V34H185.075V41H189.065V40.05H186.075V37.78H188.925V36.85H186.075V34.93H189.065Z" fill="white"/>
<path d="M198.95 41V33.86H199.96L203.21 39.74H203.25C203.243 39.5667 203.233 39.3667 203.22 39.14C203.207 38.9133 203.197 38.6867 203.19 38.46C203.183 38.2267 203.18 38.0267 203.18 37.86V33.86H203.97V41H202.99L199.7 35.1H199.66C199.673 35.2733 199.683 35.48 199.69 35.72C199.703 35.9533 199.713 36.1867 199.72 36.42C199.733 36.6533 199.74 36.86 199.74 37.04V41H198.95ZM206.2 39.66C205.773 39.66 205.42 39.5133 205.14 39.22C204.86 38.9267 204.72 38.5067 204.72 37.96C204.72 37.4133 204.853 36.9967 205.12 36.71C205.393 36.4167 205.763 36.27 206.23 36.27C206.657 36.27 207.01 36.4133 207.29 36.7C207.577 36.9867 207.72 37.4067 207.72 37.96C207.72 38.5067 207.583 38.9267 207.31 39.22C207.037 39.5133 206.667 39.66 206.2 39.66ZM206.22 39.08C206.513 39.08 206.723 38.9867 206.85 38.8C206.977 38.6067 207.04 38.3267 207.04 37.96C207.04 37.5867 206.977 37.3133 206.85 37.14C206.723 36.96 206.513 36.87 206.22 36.87C205.933 36.87 205.723 36.96 205.59 37.14C205.457 37.3133 205.39 37.5867 205.39 37.96C205.39 38.3267 205.453 38.6067 205.58 38.8C205.713 38.9867 205.927 39.08 206.22 39.08ZM204.92 41V40.31H207.49V41H204.92Z" fill="#FFB47D"/>
<path opacity="0.5" d="M213.57 37.69C213.57 39.86 214.55 41.11 216.08 41.11C217.61 41.11 218.59 39.86 218.59 37.69C218.59 35.82 217.84 33.89 216.08 33.89C214.32 33.89 213.57 35.82 213.57 37.69ZM214.58 37.67C214.58 36.2 214.98 34.74 216.08 34.74C217.18 34.74 217.58 36.2 217.58 37.67C217.58 39.29 217.08 40.23 216.08 40.23C215.08 40.23 214.58 39.29 214.58 37.67ZM219.482 35.31L219.832 36.08L221.262 35.14H221.332V41H222.302V34H221.452L219.482 35.31ZM224.852 36.18C224.842 35.35 225.362 34.71 226.212 34.71C226.752 34.71 227.452 35 227.452 36.03C227.452 36.81 227.032 37.31 226.422 37.9L224.022 40.35L224.072 41H228.582V40.17H225.472V40.11L227.032 38.5C227.872 37.68 228.412 37.02 228.412 35.98C228.412 34.57 227.412 33.89 226.262 33.89C224.742 33.89 223.932 35.16 223.962 36.18H224.852ZM233.152 37.26V37.21C233.742 37.03 234.262 36.48 234.262 35.71C234.262 34.77 233.452 33.88 232.162 33.89C230.752 33.91 229.832 34.87 229.862 36.13H230.742C230.742 35.18 231.312 34.7 232.092 34.7C232.652 34.7 233.312 35.02 233.312 35.83C233.312 36.51 232.862 36.91 232.002 36.91H231.512V37.7H232.062C232.872 37.7 233.442 38.2 233.442 39C233.442 39.64 233.082 40.24 232.182 40.24C231.382 40.24 230.732 39.77 230.722 38.69H229.792C229.772 40.39 231.002 41.11 232.182 41.11C233.592 41.11 234.442 40.07 234.442 38.93C234.442 37.95 233.822 37.49 233.152 37.26ZM240.619 38.44H239.669V34H238.439L235.439 38.6V39.3H238.709V41H239.669V39.3H240.619V38.44ZM236.539 38.44V38.37L238.639 35.13H238.709V38.44H236.539ZM246.035 34H242.345L241.975 37.96L242.805 37.95C243.055 37.5 243.545 37.17 244.155 37.17C245.005 37.17 245.495 37.83 245.495 38.77C245.495 39.59 245.125 40.24 244.155 40.24C243.335 40.24 242.765 39.77 242.755 38.72H241.815C241.805 40.38 242.935 41.11 244.215 41.11C245.695 41.11 246.485 40.08 246.485 38.67C246.485 37.04 245.425 36.35 244.415 36.35C243.825 36.35 243.345 36.58 242.995 36.99H242.935L243.125 34.87H246.045L246.035 34ZM250.371 36.38C249.371 36.38 248.891 37.01 248.731 37.46H248.681C248.721 35.8 249.251 34.71 250.201 34.71C250.901 34.71 251.321 35.29 251.411 35.98H252.281C252.211 34.71 251.471 33.89 250.251 33.89C248.591 33.89 247.681 35.44 247.681 37.65C247.681 39.89 248.631 41.11 250.221 41.11C251.841 41.11 252.481 39.81 252.481 38.71C252.481 37.51 251.761 36.38 250.371 36.38ZM250.241 40.26C249.511 40.26 249.031 39.8 248.821 38.93C248.631 37.61 249.551 37.18 250.161 37.18C251.171 37.18 251.501 38.09 251.501 38.82C251.501 39.65 251.071 40.26 250.241 40.26ZM253.907 41H254.977L257.747 34.76V34H253.407V34.87H256.637V34.95L253.907 41ZM260.923 33.89C259.823 33.89 258.783 34.61 258.783 35.77C258.783 36.55 259.243 37.04 259.753 37.23V37.27C259.013 37.45 258.393 38.15 258.393 39.05C258.393 40.2 259.453 41.11 260.903 41.11C262.393 41.11 263.393 40.15 263.393 39.03C263.393 38.14 262.783 37.44 262.053 37.26V37.23C262.563 37.04 263.023 36.55 263.023 35.76C263.023 34.61 262.013 33.89 260.923 33.89ZM260.893 34.69C261.663 34.69 262.083 35.19 262.083 35.82C262.083 36.44 261.673 36.91 260.893 36.91C260.133 36.91 259.733 36.44 259.733 35.82C259.733 35.2 260.133 34.69 260.893 34.69ZM260.893 37.71C261.673 37.71 262.363 38.1 262.363 38.96C262.363 39.82 261.673 40.25 260.893 40.25C260.103 40.25 259.423 39.81 259.423 38.96C259.423 38.12 260.093 37.71 260.893 37.71Z" fill="white"/>
<g opacity="0.5">
<path d="M109.321 172.38C108.321 172.38 107.841 173.01 107.681 173.46H107.631C107.671 171.8 108.201 170.71 109.151 170.71C109.851 170.71 110.271 171.29 110.361 171.98H111.231C111.161 170.71 110.421 169.89 109.201 169.89C107.541 169.89 106.631 171.44 106.631 173.65C106.631 175.89 107.581 177.11 109.171 177.11C110.791 177.11 111.431 175.81 111.431 174.71C111.431 173.51 110.711 172.38 109.321 172.38ZM109.191 176.26C108.461 176.26 107.981 175.8 107.771 174.93C107.581 173.61 108.501 173.18 109.111 173.18C110.121 173.18 110.451 174.09 110.451 174.82C110.451 175.65 110.021 176.26 109.191 176.26ZM117.287 177H118.347L115.997 170H114.647L112.297 177H113.347L113.967 175.1H116.667L117.287 177ZM114.257 174.21L115.267 171.09H115.367L116.377 174.21H114.257ZM123.66 170H119.19V170.93H122.42V171.01L119.09 176.16V177H123.84V176.05H120.34V175.97L123.66 170.86V170ZM129.122 170.93V170H125.132V177H129.122V176.05H126.132V173.78H128.982V172.85H126.132V170.93H129.122ZM132.899 169.89C131.799 169.89 130.759 170.61 130.759 171.77C130.759 172.55 131.219 173.04 131.729 173.23V173.27C130.989 173.45 130.369 174.15 130.369 175.05C130.369 176.2 131.429 177.11 132.879 177.11C134.369 177.11 135.369 176.15 135.369 175.03C135.369 174.14 134.759 173.44 134.029 173.26V173.23C134.539 173.04 134.999 172.55 134.999 171.76C134.999 170.61 133.989 169.89 132.899 169.89ZM132.869 170.69C133.639 170.69 134.059 171.19 134.059 171.82C134.059 172.44 133.649 172.91 132.869 172.91C132.109 172.91 131.709 172.44 131.709 171.82C131.709 171.2 132.109 170.69 132.869 170.69ZM132.869 173.71C133.649 173.71 134.339 174.1 134.339 174.96C134.339 175.82 133.649 176.25 132.869 176.25C132.079 176.25 131.399 175.81 131.399 174.96C131.399 174.12 132.069 173.71 132.869 173.71ZM141.365 174.44H140.415V170H139.185L136.185 174.6V175.3H139.455V177H140.415V175.3H141.365V174.44ZM137.285 174.44V174.37L139.385 171.13H139.455V174.44H137.285ZM142.431 173.69C142.431 175.86 143.411 177.11 144.941 177.11C146.471 177.11 147.451 175.86 147.451 173.69C147.451 171.82 146.701 169.89 144.941 169.89C143.181 169.89 142.431 171.82 142.431 173.69ZM143.441 173.67C143.441 172.2 143.841 170.74 144.941 170.74C146.041 170.74 146.441 172.2 146.441 173.67C146.441 175.29 145.941 176.23 144.941 176.23C143.941 176.23 143.441 175.29 143.441 173.67ZM148.733 175.01C148.833 176.29 149.683 177.11 150.963 177.11C152.603 177.11 153.423 175.77 153.423 173.51C153.423 171.29 152.513 169.89 150.963 169.89C149.553 169.89 148.643 171.05 148.643 172.28C148.643 173.4 149.263 174.62 150.733 174.62C151.693 174.62 152.203 174.11 152.383 173.57H152.443V173.76C152.403 175.41 151.943 176.29 151.013 176.29C150.313 176.29 149.713 175.77 149.603 175.01H148.733ZM150.953 173.82C149.883 173.82 149.623 172.87 149.623 172.41C149.623 171.14 150.373 170.73 150.953 170.73C151.723 170.73 152.323 171.45 152.323 172.41C152.323 173.06 151.973 173.82 150.953 173.82ZM155.52 172.18C155.51 171.35 156.03 170.71 156.88 170.71C157.42 170.71 158.12 171 158.12 172.03C158.12 172.81 157.7 173.31 157.09 173.9L154.69 176.35L154.74 177H159.25V176.17H156.14V176.11L157.7 174.5C158.54 173.68 159.08 173.02 159.08 171.98C159.08 170.57 158.08 169.89 156.93 169.89C155.41 169.89 154.6 171.16 154.63 172.18H155.52ZM160.41 173.69C160.41 175.86 161.39 177.11 162.92 177.11C164.45 177.11 165.43 175.86 165.43 173.69C165.43 171.82 164.68 169.89 162.92 169.89C161.16 169.89 160.41 171.82 160.41 173.69ZM161.42 173.67C161.42 172.2 161.82 170.74 162.92 170.74C164.02 170.74 164.42 172.2 164.42 173.67C164.42 175.29 163.92 176.23 162.92 176.23C161.92 176.23 161.42 175.29 161.42 173.67ZM166.802 177H167.872L170.642 170.76V170H166.302V170.87H169.532V170.95L166.802 177ZM175.762 170.93V170H171.772V177H172.772V173.86H175.642V172.94H172.772V170.93H175.762ZM176.732 171.31L177.082 172.08L178.512 171.14H178.582V177H179.552V170H178.702L176.732 171.31ZM181.292 175.01C181.392 176.29 182.242 177.11 183.522 177.11C185.162 177.11 185.982 175.77 185.982 173.51C185.982 171.29 185.072 169.89 183.522 169.89C182.112 169.89 181.202 171.05 181.202 172.28C181.202 173.4 181.822 174.62 183.292 174.62C184.252 174.62 184.762 174.11 184.942 173.57H185.002V173.76C184.962 175.41 184.502 176.29 183.572 176.29C182.872 176.29 182.272 175.77 182.162 175.01H181.292ZM183.512 173.82C182.442 173.82 182.182 172.87 182.182 172.41C182.182 171.14 182.932 170.73 183.512 170.73C184.282 170.73 184.882 171.45 184.882 172.41C184.882 173.06 184.532 173.82 183.512 173.82ZM187.129 173.69C187.129 175.86 188.109 177.11 189.639 177.11C191.169 177.11 192.149 175.86 192.149 173.69C192.149 171.82 191.399 169.89 189.639 169.89C187.879 169.89 187.129 171.82 187.129 173.69ZM188.139 173.67C188.139 172.2 188.539 170.74 189.639 170.74C190.739 170.74 191.139 172.2 191.139 173.67C191.139 175.29 190.639 176.23 189.639 176.23C188.639 176.23 188.139 175.29 188.139 173.67ZM193.431 175.01C193.531 176.29 194.381 177.11 195.661 177.11C197.301 177.11 198.121 175.77 198.121 173.51C198.121 171.29 197.211 169.89 195.661 169.89C194.251 169.89 193.341 171.05 193.341 172.28C193.341 173.4 193.961 174.62 195.431 174.62C196.391 174.62 196.901 174.11 197.081 173.57H197.141V173.76C197.101 175.41 196.641 176.29 195.711 176.29C195.011 176.29 194.411 175.77 194.301 175.01H193.431ZM195.651 173.82C194.581 173.82 194.321 172.87 194.321 172.41C194.321 171.14 195.071 170.73 195.651 170.73C196.421 170.73 197.021 171.45 197.021 172.41C197.021 173.06 196.671 173.82 195.651 173.82ZM200.217 172.18C200.207 171.35 200.727 170.71 201.577 170.71C202.117 170.71 202.817 171 202.817 172.03C202.817 172.81 202.397 173.31 201.787 173.9L199.387 176.35L199.437 177H203.947V176.17H200.837V176.11L202.397 174.5C203.237 173.68 203.777 173.02 203.777 171.98C203.777 170.57 202.777 169.89 201.627 169.89C200.107 169.89 199.297 171.16 199.327 172.18H200.217ZM205.107 173.69C205.107 175.86 206.087 177.11 207.617 177.11C209.147 177.11 210.127 175.86 210.127 173.69C210.127 171.82 209.377 169.89 207.617 169.89C205.857 169.89 205.107 171.82 205.107 173.69ZM206.117 173.67C206.117 172.2 206.517 170.74 207.617 170.74C208.717 170.74 209.117 172.2 209.117 173.67C209.117 175.29 208.617 176.23 207.617 176.23C206.617 176.23 206.117 175.29 206.117 173.67ZM214.679 173.26V173.21C215.269 173.03 215.789 172.48 215.789 171.71C215.789 170.77 214.979 169.88 213.689 169.89C212.279 169.91 211.359 170.87 211.389 172.13H212.269C212.269 171.18 212.839 170.7 213.619 170.7C214.179 170.7 214.839 171.02 214.839 171.83C214.839 172.51 214.389 172.91 213.529 172.91H213.039V173.7H213.589C214.399 173.7 214.969 174.2 214.969 175C214.969 175.64 214.609 176.24 213.709 176.24C212.909 176.24 212.259 175.77 212.249 174.69H211.319C211.299 176.39 212.529 177.11 213.709 177.11C215.119 177.11 215.969 176.07 215.969 174.93C215.969 173.95 215.349 173.49 214.679 173.26ZM262.033 173.26V173.21C262.623 173.03 263.143 172.48 263.143 171.71C263.143 170.77 262.333 169.88 261.043 169.89C259.633 169.91 258.713 170.87 258.743 172.13H259.623C259.623 171.18 260.193 170.7 260.973 170.7C261.533 170.7 262.193 171.02 262.193 171.83C262.193 172.51 261.743 172.91 260.883 172.91H260.393V173.7H260.943C261.753 173.7 262.323 174.2 262.323 175C262.323 175.64 261.963 176.24 261.063 176.24C260.263 176.24 259.613 175.77 259.603 174.69H258.673C258.653 176.39 259.883 177.11 261.063 177.11C262.473 177.11 263.323 176.07 263.323 174.93C263.323 173.95 262.703 173.49 262.033 173.26Z" fill="white"/>
<path d="M216.966 171.31L217.316 172.08L218.746 171.14H218.816V177H219.786V170H218.936L216.966 171.31ZM226.726 170H223.566V170.93H225.726V174.22C225.726 175.5 225.156 176.24 224.136 176.24C222.886 176.24 222.376 175.03 222.396 173.92H221.406C221.386 175.67 222.256 177.15 224.146 177.15C225.786 177.15 226.726 176.02 226.726 174.23V170ZM232.024 173.22C232.424 173.06 233.024 172.6 233.024 171.69C233.024 170.67 232.294 170 231.024 170H228.354V177H230.994C232.524 177 233.254 176.15 233.254 175.01C233.254 174.04 232.744 173.39 232.024 173.22ZM230.864 170.91C231.734 170.91 232.024 171.24 232.024 171.85C232.024 172.23 231.914 172.88 230.994 172.88H229.354V170.91H230.864ZM230.824 176.1H229.354V173.75H231.004C231.884 173.75 232.244 174.23 232.244 174.95C232.244 175.51 232.024 176.1 230.824 176.1ZM238.624 170.93V170H234.634V177H235.634V173.86H238.504V172.94H235.634V170.93H238.624ZM240.58 174.6H239.58C239.56 176.13 240.52 177.15 242.09 177.15C243.53 177.15 244.56 176.19 244.56 174.9C244.56 172.36 240.94 173.15 240.94 171.55C240.94 170.96 241.42 170.69 242.1 170.69C243 170.69 243.21 171.28 243.2 171.9H244.18C244.2 170.7 243.54 169.83 242.1 169.83C240.74 169.83 239.93 170.67 239.93 171.73C239.93 174.01 243.53 173.34 243.53 175.02C243.53 175.75 242.9 176.24 242.1 176.24C241.16 176.24 240.57 175.66 240.58 174.6ZM250.314 177H251.374L249.024 170H247.674L245.324 177H246.374L246.994 175.1H249.694L250.314 177ZM247.284 174.21L248.294 171.09H248.394L249.404 174.21H247.284ZM257.507 170H252.167V170.93H254.307V177H255.307V170.93H257.507V170Z" fill="#FFB47D"/>
</g>
<rect x="216" y="178" width="42" height="1" fill="#C9FFC7"/>
<path d="M216.914 171.31L217.264 172.08L218.694 171.14H218.764V177H219.734V170H218.884L216.914 171.31ZM226.674 170H223.514V170.93H225.674V174.22C225.674 175.5 225.104 176.24 224.084 176.24C222.834 176.24 222.324 175.03 222.344 173.92H221.354C221.334 175.67 222.204 177.15 224.094 177.15C225.734 177.15 226.674 176.02 226.674 174.23V170ZM231.972 173.22C232.372 173.06 232.972 172.6 232.972 171.69C232.972 170.67 232.242 170 230.972 170H228.302V177H230.942C232.472 177 233.202 176.15 233.202 175.01C233.202 174.04 232.692 173.39 231.972 173.22ZM230.812 170.91C231.682 170.91 231.972 171.24 231.972 171.85C231.972 172.23 231.862 172.88 230.942 172.88H229.302V170.91H230.812ZM230.772 176.1H229.302V173.75H230.952C231.832 173.75 232.192 174.23 232.192 174.95C232.192 175.51 231.972 176.1 230.772 176.1ZM238.571 170.93V170H234.581V177H235.581V173.86H238.451V172.94H235.581V170.93H238.571ZM240.528 174.6H239.528C239.508 176.13 240.468 177.15 242.038 177.15C243.478 177.15 244.508 176.19 244.508 174.9C244.508 172.36 240.888 173.15 240.888 171.55C240.888 170.96 241.368 170.69 242.048 170.69C242.948 170.69 243.158 171.28 243.148 171.9H244.128C244.148 170.7 243.488 169.83 242.048 169.83C240.688 169.83 239.878 170.67 239.878 171.73C239.878 174.01 243.478 173.34 243.478 175.02C243.478 175.75 242.848 176.24 242.048 176.24C241.108 176.24 240.518 175.66 240.528 174.6ZM250.261 177H251.321L248.971 170H247.621L245.271 177H246.321L246.941 175.1H249.641L250.261 177ZM247.231 174.21L248.241 171.09H248.341L249.351 174.21H247.231ZM257.454 170H252.114V170.93H254.254V177H255.254V170.93H257.454V170Z" fill="#C9FFC7"/>
<rect x="16" y="64" width="64" height="72" fill="#3B4046"/>
<path d="M57.9329 91.7409C57.3313 94.7745 57.3696 98.3585 56.1921 100.637C54.5153 103.901 50.8417 105.911 47.8593 105.911C44.6849 105.911 41.1777 103.747 39.5265 100.138C38.5409 97.9617 37.4273 92.4193 37.1457 89.6161C36.3521 81.5905 39.9873 77.0465 47.9745 76.8801C56.8449 76.6753 59.4689 84.0865 57.9329 91.7409Z" fill="#242424"/>
<path d="M37.6449 89.0657C36.4033 88.3873 35.2641 88.5025 35.4945 89.9745C35.7249 91.4465 36.0577 95.4145 36.8513 96.0929C37.6449 96.7713 38.4385 97.0017 38.8865 96.2081C39.3473 95.4017 37.6449 89.0657 37.6449 89.0657Z" fill="#242424"/>
<path d="M57.4721 88.4378C58.7137 87.7594 59.8529 87.8746 59.6225 89.3466C59.3921 90.8186 59.0593 94.7866 58.2657 95.465C57.4721 96.1434 56.6785 96.3738 56.2305 95.5802C55.7697 94.7866 57.4721 88.4378 57.4721 88.4378Z" fill="#242424"/>
<path d="M40.8064 99.5744C41.152 102.749 41.0368 107.51 40.3584 109.891C40.4736 110.006 43.2768 115.766 48.6272 115.446C53.6576 115.139 55.5392 109.558 55.5392 109.558C55.5392 109.558 54.3872 103.606 55.1936 99.9328C55.9104 96.6816 40.8064 99.5744 40.8064 99.5744Z" fill="#242424"/>
<path d="M74.7137 117.175C73.9969 115.127 70.7201 113.975 70.7201 113.975L57.2672 108.381L54.8864 104.797L48.0256 108.983L41.1264 104.746L38.976 108.33L25.664 113.399C25.664 113.399 23.5776 114.192 22.2464 115.703C21.6832 116.343 19.4816 123.908 18.9056 136.733H77.0049C76.4161 123.908 74.9953 117.981 74.7137 117.175Z" fill="#242424"/>
<path d="M41.1521 78.8897C40.7937 75.9585 42.5089 74.7169 48.2049 75.6769C51.6481 76.2529 55.5777 77.8017 55.9233 75.8561C56.0641 75.1137 57.7921 79.1457 55.5649 80.3873C54.3105 81.0913 42.4193 79.6705 42.4193 79.6705L41.1521 78.8897Z" fill="#242424"/>
<path d="M41.5488 78.5949C41.1008 78.0573 39.68 77.7117 38.8864 78.5053C38.0928 79.2989 35.5328 82.4733 36.7744 88.8733C38.016 95.2606 39.68 89.6925 39.68 89.6925L41.472 78.9533L41.5488 78.5949Z" fill="#242424"/>
<path d="M55.3216 78.9032C55.8592 78.6984 56.832 78.3656 57.4464 79.4792C58.2016 80.8232 59.4049 84.4968 58.2657 89.1176C56.9344 94.5448 56.4736 88.7848 56.4736 88.7848L53.8752 80.0552L55.3216 78.9032Z" fill="#242424"/>
</svg>
