<svg width="264" height="176" viewBox="0 0 264 176" fill="none" xmlns="http://www.w3.org/2000/svg">
<rect width="264" height="176" rx="8" fill="#181C1F"/>
<path d="M107.102 110.8L105.962 114.292H105.878L104.732 110.8H104.096L105.518 115H106.304L107.732 110.8H107.102ZM109.209 111.658C108.429 111.658 107.925 112.246 107.793 112.858H108.339C108.447 112.576 108.651 112.138 109.209 112.138C109.665 112.138 110.121 112.432 110.157 113.278H107.715V113.452C107.715 114.532 108.381 115.084 109.227 115.084C110.235 115.084 110.757 114.316 110.757 113.374C110.757 112.216 109.965 111.658 109.209 111.658ZM109.233 114.616C108.711 114.616 108.321 114.274 108.321 113.686H110.139C110.061 114.262 109.761 114.616 109.233 114.616ZM111.734 113.884H111.182C111.176 114.856 111.998 115.084 112.532 115.084C113.228 115.084 113.852 114.67 113.852 114.01C113.852 112.894 111.938 113.272 111.938 112.534C111.938 112.264 112.178 112.126 112.514 112.126C112.874 112.126 113.138 112.294 113.138 112.66H113.672C113.678 111.904 113.126 111.658 112.538 111.658C111.758 111.658 111.362 112.084 111.362 112.6C111.362 113.746 113.252 113.356 113.252 114.088C113.252 114.412 112.91 114.592 112.544 114.592C112.088 114.592 111.728 114.322 111.734 113.884ZM114.491 110.872C114.491 111.106 114.659 111.226 114.851 111.226C115.049 111.226 115.211 111.106 115.211 110.872C115.211 110.65 115.073 110.428 114.851 110.428C114.629 110.428 114.491 110.65 114.491 110.872ZM114.563 111.736V115H115.139V111.736H114.563ZM118.206 111.736L118.134 112C117.978 111.874 117.618 111.676 117.174 111.676C116.244 111.676 115.824 112.576 115.824 113.44C115.824 114.508 116.46 115.054 117.204 115.054C117.558 115.054 117.852 114.928 118.074 114.76V116.074H118.65V111.736H118.206ZM117.336 114.562C116.778 114.562 116.424 114.238 116.424 113.428C116.424 112.78 116.64 112.174 117.372 112.174C117.654 112.174 117.888 112.264 118.074 112.378V114.382C117.852 114.49 117.594 114.562 117.336 114.562ZM120.816 111.658C120.036 111.658 119.532 112.246 119.4 112.858H119.946C120.054 112.576 120.258 112.138 120.816 112.138C121.272 112.138 121.728 112.432 121.764 113.278H119.322V113.452C119.322 114.532 119.988 115.084 120.834 115.084C121.842 115.084 122.364 114.316 122.364 113.374C122.364 112.216 121.572 111.658 120.816 111.658ZM120.84 114.616C120.318 114.616 119.928 114.274 119.928 113.686H121.746C121.668 114.262 121.368 114.616 120.84 114.616ZM124.667 111.682C124.289 111.682 123.899 111.808 123.605 112.096L123.569 111.736H123.041V115H123.617V112.594C123.839 112.282 124.187 112.168 124.487 112.168C125.027 112.168 125.183 112.522 125.183 113.068V115H125.759V112.876C125.759 112.252 125.501 111.682 124.667 111.682ZM126.561 110.872C126.561 111.106 126.729 111.226 126.921 111.226C127.119 111.226 127.281 111.106 127.281 110.872C127.281 110.65 127.143 110.428 126.921 110.428C126.699 110.428 126.561 110.65 126.561 110.872ZM126.633 111.736V115H127.209V111.736H126.633ZM129.712 111.682C129.334 111.682 128.944 111.808 128.65 112.096L128.614 111.736H128.086V115H128.662V112.594C128.884 112.282 129.232 112.168 129.532 112.168C130.072 112.168 130.228 112.522 130.228 113.068V115H130.804V112.876C130.804 112.252 130.546 111.682 129.712 111.682ZM135.777 111.682C135.399 111.682 135.009 111.808 134.715 112.096L134.679 111.736H134.151V115H134.727V112.594C134.949 112.282 135.297 112.168 135.597 112.168C136.137 112.168 136.293 112.522 136.293 113.068V115H136.869V112.876C136.869 112.252 136.611 111.682 135.777 111.682ZM138.493 111.4C138.667 111.4 138.805 111.262 138.805 111.088C138.805 110.914 138.667 110.776 138.493 110.776C138.319 110.776 138.181 110.914 138.181 111.088C138.181 111.262 138.319 111.4 138.493 111.4ZM139.681 111.4C139.855 111.4 139.993 111.262 139.993 111.088C139.993 110.914 139.855 110.776 139.681 110.776C139.507 110.776 139.369 110.914 139.369 111.088C139.369 111.262 139.507 111.4 139.681 111.4ZM137.539 113.488C137.539 114.526 138.223 115.084 139.087 115.084C139.951 115.084 140.629 114.526 140.629 113.494C140.629 112.57 140.077 111.658 139.081 111.658C138.091 111.658 137.539 112.57 137.539 113.488ZM138.139 113.476C138.139 112.774 138.457 112.15 139.087 112.15C139.711 112.15 140.029 112.768 140.029 113.476C140.029 114.22 139.663 114.58 139.087 114.58C138.505 114.58 138.139 114.22 138.139 113.476ZM144.923 111.682C144.533 111.682 144.113 111.802 143.819 112.15C143.675 111.934 143.387 111.682 142.859 111.682C142.499 111.682 142.139 111.802 141.857 112.072L141.827 111.736H141.299V115H141.875V112.564C142.085 112.276 142.403 112.168 142.691 112.168C143.231 112.168 143.387 112.522 143.387 112.966V115H143.957V112.564C144.167 112.276 144.485 112.168 144.779 112.168C145.313 112.168 145.469 112.522 145.469 113.068V115H146.051V112.876C146.051 112.258 145.799 111.682 144.923 111.682ZM147.477 112.174L147.435 111.736H146.907V115H147.483V112.732C147.663 112.372 147.987 112.258 148.395 112.258C148.449 112.258 148.503 112.258 148.557 112.264L148.605 111.664C148.185 111.664 147.771 111.82 147.477 112.174ZM150.377 111.658C149.597 111.658 149.093 112.246 148.961 112.858H149.507C149.615 112.576 149.819 112.138 150.377 112.138C150.833 112.138 151.289 112.432 151.325 113.278H148.883V113.452C148.883 114.532 149.549 115.084 150.395 115.084C151.403 115.084 151.925 114.316 151.925 113.374C151.925 112.216 151.133 111.658 150.377 111.658ZM150.401 114.616C149.879 114.616 149.489 114.274 149.489 113.686H151.307C151.229 114.262 150.929 114.616 150.401 114.616ZM152.902 113.884H152.35C152.344 114.856 153.166 115.084 153.7 115.084C154.396 115.084 155.02 114.67 155.02 114.01C155.02 112.894 153.106 113.272 153.106 112.534C153.106 112.264 153.346 112.126 153.682 112.126C154.042 112.126 154.306 112.294 154.306 112.66H154.84C154.846 111.904 154.294 111.658 153.706 111.658C152.926 111.658 152.53 112.084 152.53 112.6C152.53 113.746 154.42 113.356 154.42 114.088C154.42 114.412 154.078 114.592 153.712 114.592C153.256 114.592 152.896 114.322 152.902 113.884ZM155.659 110.872C155.659 111.106 155.827 111.226 156.019 111.226C156.217 111.226 156.379 111.106 156.379 110.872C156.379 110.65 156.241 110.428 156.019 110.428C155.797 110.428 155.659 110.65 155.659 110.872ZM155.731 111.736V115H156.307V111.736H155.731Z" fill="#FFB47D"/>
<path opacity="0.5" d="M109.23 130H110.29L107.94 123H106.59L104.24 130H105.29L105.91 128.1H108.61L109.23 130ZM106.2 127.21L107.21 124.09H107.31L108.32 127.21H106.2ZM115.763 130H116.823L114.473 123H113.123L110.773 130H111.823L112.443 128.1H115.143L115.763 130ZM112.733 127.21L113.743 124.09H113.843L114.853 127.21H112.733ZM117.636 126.69C117.636 128.86 118.616 130.11 120.146 130.11C121.676 130.11 122.656 128.86 122.656 126.69C122.656 124.82 121.906 122.89 120.146 122.89C118.386 122.89 117.636 124.82 117.636 126.69ZM118.646 126.67C118.646 125.2 119.046 123.74 120.146 123.74C121.246 123.74 121.646 125.2 121.646 126.67C121.646 128.29 121.146 129.23 120.146 129.23C119.146 129.23 118.646 128.29 118.646 126.67ZM123.549 124.31L123.899 125.08L125.329 124.14H125.399V130H126.369V123H125.519L123.549 124.31ZM128.918 125.18C128.908 124.35 129.428 123.71 130.278 123.71C130.818 123.71 131.518 124 131.518 125.03C131.518 125.81 131.098 126.31 130.488 126.9L128.088 129.35L128.138 130H132.648V129.17H129.538V129.11L131.098 127.5C131.938 126.68 132.478 126.02 132.478 124.98C132.478 123.57 131.478 122.89 130.328 122.89C128.808 122.89 127.998 124.16 128.028 125.18H128.918ZM137.218 126.26V126.21C137.808 126.03 138.328 125.48 138.328 124.71C138.328 123.77 137.518 122.88 136.228 122.89C134.818 122.91 133.898 123.87 133.928 125.13H134.808C134.808 124.18 135.378 123.7 136.158 123.7C136.718 123.7 137.378 124.02 137.378 124.83C137.378 125.51 136.928 125.91 136.068 125.91H135.578V126.7H136.128C136.938 126.7 137.508 127.2 137.508 128C137.508 128.64 137.148 129.24 136.248 129.24C135.448 129.24 134.798 128.77 134.788 127.69H133.858C133.838 129.39 135.068 130.11 136.248 130.11C137.658 130.11 138.508 129.07 138.508 127.93C138.508 126.95 137.888 126.49 137.218 126.26ZM144.686 127.44H143.736V123H142.506L139.506 127.6V128.3H142.776V130H143.736V128.3H144.686V127.44ZM140.606 127.44V127.37L142.706 124.13H142.776V127.44H140.606ZM150.102 123H146.412L146.042 126.96L146.872 126.95C147.122 126.5 147.612 126.17 148.222 126.17C149.072 126.17 149.562 126.83 149.562 127.77C149.562 128.59 149.192 129.24 148.222 129.24C147.402 129.24 146.832 128.77 146.822 127.72H145.882C145.872 129.38 147.002 130.11 148.282 130.11C149.762 130.11 150.552 129.08 150.552 127.67C150.552 126.04 149.492 125.35 148.482 125.35C147.892 125.35 147.412 125.58 147.062 125.99H147.002L147.192 123.87H150.112L150.102 123ZM154.438 125.38C153.438 125.38 152.958 126.01 152.798 126.46H152.748C152.788 124.8 153.318 123.71 154.268 123.71C154.968 123.71 155.388 124.29 155.478 124.98H156.348C156.278 123.71 155.538 122.89 154.318 122.89C152.658 122.89 151.748 124.44 151.748 126.65C151.748 128.89 152.698 130.11 154.288 130.11C155.908 130.11 156.548 128.81 156.548 127.71C156.548 126.51 155.828 125.38 154.438 125.38ZM154.308 129.26C153.578 129.26 153.098 128.8 152.888 127.93C152.698 126.61 153.618 126.18 154.228 126.18C155.238 126.18 155.568 127.09 155.568 127.82C155.568 128.65 155.138 129.26 154.308 129.26Z" fill="white"/>
<path d="M173.868 111.358V110.8H171.474V115H172.074V113.116H173.796V112.564H172.074V111.358H173.868ZM175.851 111.658C175.071 111.658 174.567 112.246 174.435 112.858H174.981C175.089 112.576 175.293 112.138 175.851 112.138C176.307 112.138 176.763 112.432 176.799 113.278H174.357V113.452C174.357 114.532 175.023 115.084 175.869 115.084C176.877 115.084 177.399 114.316 177.399 113.374C177.399 112.216 176.607 111.658 175.851 111.658ZM175.875 114.616C175.353 114.616 174.963 114.274 174.963 113.686H176.781C176.703 114.262 176.403 114.616 175.875 114.616ZM178.647 112.174L178.605 111.736H178.077V115H178.653V112.732C178.833 112.372 179.157 112.258 179.565 112.258C179.619 112.258 179.673 112.258 179.727 112.264L179.775 111.664C179.355 111.664 178.941 111.82 178.647 112.174ZM182.303 110.38V111.958C182.123 111.832 181.799 111.676 181.409 111.676C180.467 111.676 180.053 112.534 180.053 113.398C180.053 114.472 180.694 115.06 181.433 115.06C181.799 115.06 182.123 114.91 182.357 114.724L182.435 115H182.879V110.38H182.303ZM180.653 113.386C180.653 112.744 180.869 112.168 181.595 112.168C181.883 112.168 182.123 112.258 182.303 112.372V114.376C182.075 114.49 181.823 114.556 181.571 114.556C180.995 114.556 180.653 114.184 180.653 113.386ZM183.683 110.872C183.683 111.106 183.851 111.226 184.043 111.226C184.241 111.226 184.403 111.106 184.403 110.872C184.403 110.65 184.265 110.428 184.043 110.428C183.821 110.428 183.683 110.65 183.683 110.872ZM183.755 111.736V115H184.331V111.736H183.755ZM186.39 110.872C186.39 111.106 186.558 111.226 186.75 111.226C186.948 111.226 187.11 111.106 187.11 110.872C187.11 110.65 186.972 110.428 186.75 110.428C186.528 110.428 186.39 110.65 186.39 110.872ZM186.462 111.736V115H187.038V111.736H186.462ZM189.972 110.38V111.958C189.792 111.832 189.468 111.676 189.078 111.676C188.136 111.676 187.722 112.534 187.722 113.398C187.722 114.472 188.364 115.06 189.102 115.06C189.468 115.06 189.792 114.91 190.026 114.724L190.104 115H190.548V110.38H189.972ZM188.322 113.386C188.322 112.744 188.538 112.168 189.264 112.168C189.552 112.168 189.792 112.258 189.972 112.372V114.376C189.744 114.49 189.492 114.556 189.24 114.556C188.664 114.556 188.322 114.184 188.322 113.386ZM194.184 113.29C194.184 112.204 193.56 111.658 192.732 111.658C191.694 111.658 191.22 112.576 191.22 113.494C191.22 114.526 191.958 115.084 192.792 115.084C193.518 115.084 194.088 114.616 194.16 113.884H193.65C193.578 114.25 193.314 114.604 192.804 114.604C192.258 114.604 191.826 114.31 191.82 113.47H194.184V113.29ZM192.732 112.138C193.224 112.138 193.572 112.456 193.578 113.026H191.856C191.946 112.528 192.204 112.138 192.732 112.138ZM196.548 111.682C196.17 111.682 195.78 111.808 195.486 112.096L195.45 111.736H194.922V115H195.498V112.594C195.72 112.282 196.068 112.168 196.368 112.168C196.908 112.168 197.064 112.522 197.064 113.068V115H197.64V112.876C197.64 112.252 197.382 111.682 196.548 111.682ZM199.984 114.46C199.93 114.484 199.768 114.544 199.606 114.544C199.42 114.544 199.312 114.454 199.312 114.208V112.174H200.008V111.736H199.312V110.902H198.736V111.736H198.244V112.174H198.736V114.322C198.736 114.904 199.084 115.066 199.42 115.066C199.762 115.066 200.008 114.916 200.086 114.844L199.984 114.46ZM200.727 110.872C200.727 111.106 200.895 111.226 201.087 111.226C201.285 111.226 201.447 111.106 201.447 110.872C201.447 110.65 201.309 110.428 201.087 110.428C200.865 110.428 200.727 110.65 200.727 110.872ZM200.799 111.736V115H201.375V111.736H200.799ZM202.456 111.28V111.736H201.994V112.174H202.456V115H203.032V112.174H203.806V111.736H203.032V111.376C203.032 110.998 203.122 110.872 203.386 110.872C203.548 110.872 203.674 110.914 203.806 110.974V110.512C203.644 110.434 203.476 110.38 203.242 110.38C202.78 110.38 202.456 110.662 202.456 111.28ZM204.7 111.226C204.904 111.226 205.06 111.106 205.06 110.872C205.06 110.65 204.928 110.428 204.7 110.428C204.478 110.428 204.34 110.65 204.34 110.872C204.34 111.106 204.508 111.226 204.7 111.226ZM204.412 115H204.988V111.736H204.412V115ZM207.152 113.098L208.394 111.736H207.722L206.486 113.122H206.438V110.38H205.862V115H206.438V113.842L206.726 113.524H206.774L207.818 115H208.526L207.152 113.098ZM210.381 111.658C209.655 111.658 209.139 112.012 209.127 112.684H209.679C209.697 112.33 209.961 112.144 210.375 112.144C210.843 112.144 211.101 112.384 211.101 112.87V113.164C210.813 113.086 210.441 113.026 210.147 113.026C209.403 113.026 208.971 113.404 208.971 114.046C208.971 114.76 209.505 115.06 210.087 115.06C210.465 115.06 210.909 114.928 211.161 114.76L211.227 115H211.677V112.996C211.677 112.174 211.353 111.658 210.381 111.658ZM209.565 114.01C209.565 113.602 209.841 113.464 210.291 113.464C210.519 113.464 210.843 113.5 211.101 113.554V114.406C210.861 114.502 210.537 114.568 210.255 114.568C209.811 114.568 209.565 114.4 209.565 114.01ZM212.841 113.884H212.289C212.283 114.856 213.105 115.084 213.639 115.084C214.335 115.084 214.959 114.67 214.959 114.01C214.959 112.894 213.045 113.272 213.045 112.534C213.045 112.264 213.285 112.126 213.621 112.126C213.981 112.126 214.245 112.294 214.245 112.66H214.779C214.785 111.904 214.233 111.658 213.645 111.658C212.865 111.658 212.469 112.084 212.469 112.6C212.469 113.746 214.359 113.356 214.359 114.088C214.359 114.412 214.017 114.592 213.651 114.592C213.195 114.592 212.835 114.322 212.841 113.884ZM215.599 110.872C215.599 111.106 215.767 111.226 215.959 111.226C216.157 111.226 216.319 111.106 216.319 110.872C216.319 110.65 216.181 110.428 215.959 110.428C215.737 110.428 215.599 110.65 215.599 110.872ZM215.671 111.736V115H216.247V111.736H215.671ZM219.325 111.736L218.467 114.226H218.437L217.429 111.736H216.811L218.167 114.88C217.981 115.348 217.771 115.642 217.495 115.642C217.345 115.642 217.237 115.63 217.099 115.6L217.009 115.99C217.171 116.068 217.399 116.128 217.603 116.128C218.041 116.128 218.437 115.672 218.659 115.078L219.925 111.736H219.325ZM221.578 111.658C220.852 111.658 220.336 112.012 220.324 112.684H220.876C220.894 112.33 221.158 112.144 221.572 112.144C222.04 112.144 222.298 112.384 222.298 112.87V113.164C222.01 113.086 221.638 113.026 221.344 113.026C220.6 113.026 220.168 113.404 220.168 114.046C220.168 114.76 220.702 115.06 221.284 115.06C221.662 115.06 222.106 114.928 222.358 114.76L222.424 115H222.874V112.996C222.874 112.174 222.55 111.658 221.578 111.658ZM220.762 114.01C220.762 113.602 221.038 113.464 221.488 113.464C221.716 113.464 222.04 113.5 222.298 113.554V114.406C222.058 114.502 221.734 114.568 221.452 114.568C221.008 114.568 220.762 114.4 220.762 114.01ZM226.607 111.682C226.229 111.682 225.839 111.808 225.545 112.096L225.509 111.736H224.981V115H225.557V112.594C225.779 112.282 226.127 112.168 226.427 112.168C226.967 112.168 227.123 112.522 227.123 113.068V115H227.699V112.876C227.699 112.252 227.441 111.682 226.607 111.682ZM229.323 111.4C229.497 111.4 229.635 111.262 229.635 111.088C229.635 110.914 229.497 110.776 229.323 110.776C229.149 110.776 229.011 110.914 229.011 111.088C229.011 111.262 229.149 111.4 229.323 111.4ZM230.511 111.4C230.685 111.4 230.823 111.262 230.823 111.088C230.823 110.914 230.685 110.776 230.511 110.776C230.337 110.776 230.199 110.914 230.199 111.088C230.199 111.262 230.337 111.4 230.511 111.4ZM228.369 113.488C228.369 114.526 229.053 115.084 229.917 115.084C230.781 115.084 231.459 114.526 231.459 113.494C231.459 112.57 230.907 111.658 229.911 111.658C228.921 111.658 228.369 112.57 228.369 113.488ZM228.969 113.476C228.969 112.774 229.287 112.15 229.917 112.15C230.541 112.15 230.859 112.768 230.859 113.476C230.859 114.22 230.493 114.58 229.917 114.58C229.335 114.58 228.969 114.22 228.969 113.476ZM235.753 111.682C235.363 111.682 234.943 111.802 234.649 112.15C234.505 111.934 234.217 111.682 233.689 111.682C233.329 111.682 232.969 111.802 232.687 112.072L232.657 111.736H232.129V115H232.705V112.564C232.915 112.276 233.233 112.168 233.521 112.168C234.061 112.168 234.217 112.522 234.217 112.966V115H234.787V112.564C234.997 112.276 235.315 112.168 235.609 112.168C236.143 112.168 236.299 112.522 236.299 113.068V115H236.881V112.876C236.881 112.258 236.629 111.682 235.753 111.682ZM238.307 112.174L238.265 111.736H237.737V115H238.313V112.732C238.493 112.372 238.817 112.258 239.225 112.258C239.279 112.258 239.333 112.258 239.387 112.264L239.435 111.664C239.015 111.664 238.601 111.82 238.307 112.174ZM241.207 111.658C240.427 111.658 239.923 112.246 239.791 112.858H240.337C240.445 112.576 240.649 112.138 241.207 112.138C241.663 112.138 242.119 112.432 242.155 113.278H239.713V113.452C239.713 114.532 240.379 115.084 241.225 115.084C242.233 115.084 242.755 114.316 242.755 113.374C242.755 112.216 241.963 111.658 241.207 111.658ZM241.231 114.616C240.709 114.616 240.319 114.274 240.319 113.686H242.137C242.059 114.262 241.759 114.616 241.231 114.616ZM243.732 113.884H243.18C243.174 114.856 243.996 115.084 244.53 115.084C245.226 115.084 245.85 114.67 245.85 114.01C245.85 112.894 243.936 113.272 243.936 112.534C243.936 112.264 244.176 112.126 244.512 112.126C244.872 112.126 245.136 112.294 245.136 112.66H245.67C245.676 111.904 245.124 111.658 244.536 111.658C243.756 111.658 243.36 112.084 243.36 112.6C243.36 113.746 245.25 113.356 245.25 114.088C245.25 114.412 244.908 114.592 244.542 114.592C244.086 114.592 243.726 114.322 243.732 113.884ZM246.489 110.872C246.489 111.106 246.657 111.226 246.849 111.226C247.047 111.226 247.209 111.106 247.209 110.872C247.209 110.65 247.071 110.428 246.849 110.428C246.627 110.428 246.489 110.65 246.489 110.872ZM246.561 111.736V115H247.137V111.736H246.561Z" fill="#FFB47D"/>
<g opacity="0.1">
<path d="M221.754 68.7281C233.127 69.6387 246.515 62.1987 242.679 75.49C243.279 76.5943 244.849 72.855 244.965 72.4675C245.004 72.39 245.449 70.685 245.643 71.3631C245.159 72.4093 245.023 73.4556 244.81 74.095C244.791 74.1725 244.732 74.9281 244.81 74.8118C244.926 74.6181 245.062 74.1725 245.12 73.9012C245.43 73.1843 245.662 72.39 245.798 71.9056C245.837 71.7893 245.914 71.4793 245.992 71.2856C245.992 70.8981 246.457 70.7818 246.263 71.1693C246.263 71.4018 245.953 72.3512 245.856 72.6225C245.972 73.0487 246.031 72.7 246.147 72.5062C246.166 72.4868 246.321 71.9831 246.418 71.5956C246.534 71.1306 246.728 70.6268 246.864 69.9487C246.941 69.5806 247.135 69.1156 247.135 69.6193C247.019 70.375 246.67 71.5762 246.515 72.3318C246.515 72.4868 246.457 72.6806 246.612 72.6806C246.747 72.235 247.019 71.3243 247.135 71.2275C247.581 71.1112 246.709 72.855 246.728 73.5137C246.728 73.3006 247.212 72.545 247.348 72.3512C247.736 72.3512 247.271 72.6612 247.271 72.8937C247.251 72.9712 246.515 75.0831 246.689 75.0831C246.864 74.8506 247.445 73.2425 247.658 73.1843C247.832 73.3587 246.999 75.2187 246.999 75.5868C246.844 75.8581 246.747 76.2262 246.651 76.5362C246.554 76.6331 246.534 76.7687 246.592 76.9237C246.592 76.7493 246.98 76.4006 247.057 76.1681C247.193 75.955 247.232 75.7031 247.484 75.8581C247.193 76.7106 246.631 77.4662 246.282 78.3187C246.011 78.7062 245.566 79.52 245.992 79.0937C246.36 78.7256 246.36 78.6287 246.554 78.3768L246.961 77.7181C247.057 77.6406 247.154 77.5437 247.29 77.5437C247.057 78.1056 246.67 78.6868 246.399 79.2293C245.721 80.0043 245.314 80.9731 244.597 81.6706C244.384 81.9806 243.841 82.3681 244.713 82C245.585 81.2637 246.263 80.1012 246.883 79.1712C246.941 79.1906 247.057 79.21 247.096 79.2293C246.418 80.5662 245.488 81.5931 244.636 82.7943C244.384 83.0462 243.822 83.5112 243.686 83.8018C243.841 83.8793 243.802 83.86 243.977 83.7437C244.345 83.3175 244.791 82.9106 245.236 82.5618L245.352 82.6781C244.519 83.7437 243.725 84.6543 242.679 85.4681C242.349 85.72 242.001 85.9912 241.671 86.185C242.097 86.4175 243.667 85.0806 244.035 84.8093C244.093 84.6737 244.151 84.6737 244.248 84.5768C244.306 84.4606 244.713 84.1506 244.713 84.5187C244.19 84.9837 243.667 85.5262 243.144 85.9718C242.272 86.7275 241.322 87.4831 240.296 88.045C240.644 88.2193 242.233 87.2312 242.524 86.9793C242.756 86.8243 242.989 86.65 243.202 86.4756C243.202 86.5337 243.434 86.6306 243.473 86.6306C242.969 87.0568 242.349 87.4443 241.787 87.8125C241.167 88.2387 240.451 88.7618 239.792 89.0718C239.133 89.3431 238.436 89.8081 237.777 89.9825C237.777 90.1568 238.862 89.8081 239.017 89.8081C239.908 89.595 240.78 89.1881 241.516 88.6456C241.729 88.8781 241.691 88.8975 241.4 89.0718C241.032 89.3431 240.586 89.4981 240.276 89.8081C239.85 89.9631 239.327 90.3118 238.881 90.4668C237.951 90.9706 236.827 91.4162 235.82 91.7456C235.529 91.7456 235.2 91.9587 234.929 91.9587C234.716 91.9587 234.774 92.075 234.987 92.075C235.607 92.075 236.13 92.0362 236.711 91.9006C237.118 91.8231 237.544 91.6875 237.874 91.5712C238.436 91.3775 239.133 90.99 239.714 90.7381C239.734 90.8156 239.792 90.8931 239.831 90.9512C239.307 91.4743 238.416 91.61 237.816 91.9006C237.796 91.9006 237.699 92.0168 237.641 92.0168C237.37 92.0168 236.576 92.4237 236.362 92.4431C235.704 92.5593 234.812 93.0631 234.134 93.0631C234.619 93.2181 235.432 93.005 235.917 92.9081C235.917 93.0437 236.266 93.16 236.246 93.2375C236.072 93.7993 235.684 94.4 235.355 94.9231C234.619 95.2912 233.882 95.7368 233.127 96.0856C232.875 96.0856 232.739 96.0662 232.894 95.7562C232.894 95.7562 233.456 95.0975 233.185 95.0975C232.933 95.0975 232.72 95.0393 232.72 95.3687C232.701 95.4462 232.681 95.5237 232.623 95.5818C232.623 96.0081 232.449 96.7831 232.061 96.9962C231.79 97.2675 231.054 97.3837 230.666 97.5581C229.756 97.5581 228.651 98.12 227.779 97.5581C227.547 97.5581 227.217 97.6356 227.392 97.2868C227.566 97.2868 227.605 97.2868 227.721 97.2287C228.109 97.2287 229.969 96.7443 229.775 96.3181C229.601 96.3181 229.349 96.3568 229.213 96.2212C229.039 96.2212 229 96.1631 228.826 96.105C228.671 95.8337 228.147 96.0275 227.915 95.8337C227.741 95.7562 227.489 95.6593 227.857 95.95C227.857 96.26 227.896 96.57 227.586 96.725C227.45 96.8025 227.276 96.8993 227.121 96.8993C226.869 96.8993 226.132 96.9575 226.132 96.6668C225.919 96.7831 226.074 96.7831 226.074 96.9381C226.249 96.9381 225.958 97.345 225.9 97.3837C225.629 97.9068 224.292 97.8487 223.769 97.8487C223.575 97.81 223.381 97.7131 223.207 97.6743C222.451 97.2868 221.579 96.8993 220.862 96.4537C220.611 96.4537 220.223 96.7831 220.01 96.8993C219.293 97.3837 218.634 98.0618 217.685 98.0618C217.356 98.0618 217.065 98.0812 216.968 97.8487C216.774 97.8487 216.794 97.5 216.794 97.3837C216.794 97.3837 217.22 96.9187 216.852 97.1125C216.484 97.3837 215.689 97.4806 215.244 97.3256C214.779 96.8606 214.876 96.725 215.244 96.3762C215.186 96.3762 214.876 96.1243 214.837 96.105C214.837 95.9887 214.798 95.8918 214.74 95.7756C214.294 95.9887 213.829 95.9887 213.384 95.7175C213.074 96.0275 212.725 96.2212 212.221 96.2212C212.105 96.1631 211.969 96.105 211.872 96.0468C211.039 96.0468 211.156 96.0081 211.156 96.6668C211.156 96.8218 211.214 96.9381 211.156 97.0737C211.156 97.2093 211.039 97.5 210.884 97.5C210.613 97.7712 209.935 97.965 209.547 97.8487C209.141 97.8487 208.986 97.7131 208.714 97.4418C208.501 97.4418 208.54 97.3062 208.54 97.1706C208.211 96.9187 208.249 95.8531 208.714 95.5043C208.772 95.4462 209.024 95.1168 208.831 95.1168C208.831 94.9231 208.889 94.8843 208.656 94.8843C208.482 94.8843 208.579 94.71 208.366 94.71C207.959 94.5356 207.862 94.7681 207.474 94.7681C207.087 95.3493 206.467 96.0662 205.711 96.0662C205.517 96.0662 205.304 95.6981 205.304 95.5043C205.169 95.0781 205.266 94.4775 205.362 94.0512C205.091 94.0512 204.994 93.9156 204.801 93.78C204.723 93.78 204.626 93.5087 204.626 93.4312C204.626 93.0631 204.413 93.1406 204.413 93.005C204.413 92.7143 203.812 93.0631 203.638 93.0631C203.367 93.0631 203.076 93.0631 202.805 93.0631C202.805 93.0437 202.844 92.9856 202.863 92.9468C202.301 92.9468 201.875 92.0556 202.146 91.5518C202.049 91.5518 202.146 91.4356 202.146 91.3387C202.34 90.9318 203.115 90.6606 203.541 90.4281C203.309 90.4281 203.347 90.1568 203.154 90.1568C203.076 90.0793 203.037 90.06 203.037 89.9437C202.631 89.9437 203.173 89.2268 202.476 89.2268C202.301 89.0718 202.301 89.0525 202.088 89.0525C202.069 89.0525 201.991 89.0525 201.972 89.0525C201.468 89.0525 200.189 88.355 200.189 87.89C200.267 87.7156 200.441 87.5606 200.596 87.425C200.964 87.0956 200.228 87.2312 200.151 86.8631C199.821 86.7662 199.744 86.3981 199.744 86.0881C199.744 85.6618 200.306 85.4293 200.519 85.0806C200.17 84.8481 199.899 85.0225 199.453 84.9256C199.317 84.9256 199.182 84.9256 199.007 84.9256C198.717 84.8481 198.291 84.635 198.174 84.4025C198.039 84.1312 197.981 83.6856 198.058 83.3368C198.058 82.8912 199.066 82.7556 199.066 82.3875C198.756 82.2906 198.601 81.7675 198.407 81.4962C198.291 81.0893 198.232 80.5856 198.232 80.14C197.651 80.14 197.225 80.1012 196.837 79.52C196.392 79.0743 196.276 78.5125 196.276 77.9118C196.276 77.2531 195.714 77.6987 195.423 77.4081C195.171 77.4081 195.481 76.885 195.152 76.7881C194.726 76.5168 194.319 76.0712 194.319 75.5093C194.319 74.6956 195.268 75.4125 195.268 74.6762C195.268 73.5912 195.384 73.8818 196.082 73.3975C196.159 72.9712 195.869 73.0681 195.752 72.7775C195.462 72.545 195.481 72.1187 195.287 71.9443C195.287 70.995 195.539 70.685 196.256 70.2781C196.334 70.2781 196.469 70.2781 196.527 70.2781C196.934 70.2781 196.973 70.7237 197.186 70.7237C197.399 71.1887 197.38 70.7237 197.244 70.7237C197.244 70.5687 197.283 70.065 197.07 70.065C197.07 69.8712 197.07 69.6387 197.012 69.445C196.915 69.445 196.954 69.1737 196.954 69.1156L221.754 68.7281Z" fill="black"/>
<path d="M217.821 97.1709H217.995H218.15H218.324L218.499 97.229L218.654 97.2872L218.848 97.4034L219.041 97.4615L218.886 97.5584L218.731 97.6165H218.538L218.383 97.6747H218.208H218.053H217.879H217.704H217.549H217.491L217.317 97.5196V97.4034L217.375 97.3453H217.433L217.491 97.2872L217.549 97.229L217.666 97.1709H217.821Z" fill="#242424"/>
<path d="M223.943 97.1324L224.059 97.0743H224.156L224.272 97.0161H224.389L224.505 96.958H224.602H224.718H224.834H225.009H225.106H225.299H225.435H225.609L225.726 97.0743L225.667 97.1324L225.609 97.1711L225.551 97.2293L225.435 97.2874L225.396 97.3455H225.299L225.164 97.4036H225.047L224.951 97.4618L224.776 97.5199H224.602L224.447 97.5586H224.272H224.117H223.943H223.788H223.614L223.439 97.4618L223.614 97.2874H223.672H223.711L223.788 97.2293H223.827L223.885 97.1711L223.943 97.1324Z" fill="#242424"/>
<path d="M208.075 93.9351C208.075 92.8889 209.044 93.102 209.683 92.8889C210.09 92.8889 210.729 92.4626 210.962 92.172C211.136 91.3582 210.458 91.7264 210.458 91.0482C210.458 90.4864 211.001 90.622 211.349 90.6607C211.524 90.6801 211.504 90.777 211.679 90.777C211.214 91.0289 211.291 91.2032 211.291 91.6101C211.291 91.7845 210.865 92.6176 211.349 92.6176C211.349 92.7726 211.659 92.6757 211.407 92.792C211.407 93.3539 209.954 94.0901 209.741 94.2451C209.857 94.497 210.536 93.9739 210.691 93.8576C210.787 93.9351 210.361 94.7295 210.303 94.8457C210.148 95.3689 209.916 95.9501 209.916 96.5314C209.916 96.8607 210.09 96.5507 210.09 96.4151C210.09 96.0276 210.729 94.2064 211.097 93.8576C211.175 93.9739 211.252 94.5745 211.311 94.5745C211.311 94.7876 211.582 95.0976 211.64 95.2914C212.105 95.5239 211.466 94.2839 211.466 94.0514C211.214 93.7995 211.504 93.2764 211.64 93.0632C211.64 93.102 211.969 93.6832 211.969 93.2182C211.969 93.2957 212.551 93.2182 212.725 93.2182C212.744 93.2182 214.721 93.3345 214.721 93.3345C215.089 93.7607 214.585 94.2645 214.333 94.2645C213.713 94.2645 212.88 93.4895 212.686 93.6639C211.892 94.3032 213.577 95.3301 212.802 95.7176C212.492 95.7176 211.679 95.7951 211.466 95.4464C210.109 95.7757 211.272 97.3451 209.683 97.3451C208.753 97.3451 208.676 96.2795 209.218 95.737C209.586 95.3689 209.606 94.342 208.908 94.342C208.714 94.342 208.075 94.2451 208.075 93.9351Z" fill="#F0F4F0"/>
<path d="M230.182 96.8418H230.298L230.414 96.8999V96.958H230.472H230.511H230.569H230.627H230.686H230.744L230.86 96.8999L230.686 97.0162H230.569L230.472 97.0743H230.356L230.259 97.1324L230.085 97.1712H230.027H229.852H229.794L229.639 97.2293H229.581H229.407H229.349H229.291H229.349L229.465 97.1712H229.581L229.678 97.1324H229.794L229.911 97.0162L230.027 96.958L230.182 96.8418Z" fill="#F0F4F0"/>
<path d="M215.321 96.9581V96.8418L215.534 96.7256H215.651H215.689H215.825H215.883H215.98H216.096H216.213V96.7837H216.271H216.329V96.8418H216.387H216.426H216.542V96.9581L216.484 97.0162H216.426H216.387L216.329 97.0743H216.271L216.213 97.1325H216.096H216.038H215.98H215.941H215.825H215.748H215.689H215.651H215.593H215.534H215.496H215.438V97.0743H215.379V97.0162H215.321V96.9581Z" fill="#242424"/>
<path d="M226.191 96.2795H226.229H226.287H226.326H226.384L226.442 96.2214H226.501L226.617 96.1245H226.733L226.849 96.0664H226.966H227.062H227.121H227.217H227.276H227.411V96.1245V96.1827V96.2214V96.2795V96.3377V96.3958L227.159 96.512L227.062 96.5701H227.024H226.907H226.849H226.733H226.675H226.559H226.501H226.442H226.384H226.326H226.287H226.229L226.191 96.512L226.132 96.4539V96.3958L226.191 96.2795Z" fill="#242424"/>
<path d="M217.317 94.498L217.375 94.5562L217.433 94.6143L217.491 94.6724H217.549L217.607 94.7112L217.666 94.7693L217.704 94.8274H217.879V94.9437L217.762 95.0018H217.704L217.607 95.0599H217.549L217.433 95.118H217.375L217.317 95.1762H217.278V95.118V95.0599V95.0018V94.8855V94.8274V94.7112V94.6724L217.317 94.498Z" fill="white"/>
<path d="M219.39 94.6719C219.119 94.6719 218.673 93.5094 218.789 93.2769C218.557 93.2769 218.382 92.8507 218.131 92.8507C217.491 93.1025 216.484 93.9163 215.883 93.5675C215.709 93.4707 215.418 93.2188 215.767 92.8507C215.864 92.7732 215.651 91.94 215.999 91.94C215.999 92.1144 216.348 91.9207 216.387 91.8819C216.716 91.5525 217.142 92.2307 217.336 92.4438C217.724 92.25 217.065 91.785 217.065 91.6107C217.239 91.4363 219.409 91.3975 219.409 92.1338C219.681 92.1338 219.642 92.8507 219.642 93.0832C219.932 93.2963 219.836 92.56 219.836 92.4632C219.836 91.7463 220.339 92.6375 220.397 92.7344C220.514 92.9475 221.424 94.2844 221.676 93.8C221.134 93.4319 220.766 92.5213 220.281 92.0757C220.204 91.9982 219.913 91.7657 220.165 91.9013C220.707 91.9013 221.289 92.2113 221.618 91.5719C221.366 91.6688 218.615 91.5525 218.615 91.2425C218.227 91.2425 217.801 91.2425 217.394 91.2425C217.704 91.0294 218.809 90.1188 218.751 89.9638C218.266 90.2738 217.704 90.6419 217.239 90.9713C215.709 92.1725 216.6 90.1382 216.619 90.1382C216.794 90.1382 216.832 89.8669 216.736 89.7507C217.007 89.4794 217.394 89.2275 217.743 89.0725C217.84 89.0338 218.634 88.8982 218.634 88.9757C218.751 88.9757 218.944 89.1307 219.08 89.1307C219.08 89.305 219.351 89.6732 219.351 89.9832C219.351 90.9907 220.494 90.8357 221.192 90.6613C221.521 90.8938 222.238 90.9325 222.238 91.5332C222.083 91.8819 222.006 91.9013 221.754 92.1532C221.754 92.2307 221.676 92.3663 221.637 92.4244C221.637 93.2188 222.703 93.2382 222.703 93.8388C222.703 94.1294 222.781 94.7688 222.296 94.7688C221.986 95.0982 220.979 94.9625 220.979 94.3425C220.862 94.3425 220.63 94.2069 220.63 94.11C220.029 94.0519 219.894 94.6719 219.39 94.6719Z" fill="#F0F4F0"/>
<path d="M217.937 94.0521L217.879 93.994H217.821V93.9359V93.8972H217.762H217.704L217.666 93.839V93.7809H217.607L217.549 93.7228V93.6646H217.491V93.6065H217.433V93.5678V93.4322H217.491H217.549H217.607H217.666H217.704H217.762L217.879 93.374V93.4322L217.995 93.5097L218.053 93.5678H218.208L218.266 93.6065L218.382 93.6646L218.441 93.7228L218.537 93.7809V93.8972V93.9359V93.994V94.0521V94.149V94.2847H218.596L218.537 94.3428L218.596 94.2265H218.499H218.382L218.266 94.149L218.208 94.1103H218.111L218.053 94.0521H217.937Z" fill="#F0F4F0"/>
<path d="M229.349 93.6066C228.574 93.7423 227.334 93.8779 226.501 93.8779C225.629 93.8779 225.28 93.4516 225.299 92.8704C225.319 91.8241 227.721 92.7348 228.477 92.8123C229.368 92.9285 230.085 93.0835 230.918 93.0835C231.771 93.0835 230.453 93.3548 230.356 93.3548C230.221 93.471 229.581 93.5679 229.349 93.6066Z" fill="#F0F4F0"/>
<path d="M204.898 92.7722C204.839 92.7722 204.471 92.346 204.181 92.4816C203.658 92.4816 202.573 93.0435 202.573 92.0554C202.573 91.2222 202.902 91.2997 203.406 90.9316C203.599 91.106 204.51 90.9897 204.51 90.5441C204.762 90.2922 204.123 89.246 205.459 89.8854C206.37 89.8854 206.913 90.0404 206.913 88.9941C206.913 88.2191 208.211 87.8316 208.424 88.4322C208.695 88.4322 209.431 89.246 209.315 89.4397C209.315 90.1566 209.16 90.021 209.257 90.4472C208.54 90.4472 208.346 89.9822 207.707 89.7885C207.571 89.5754 207.629 89.6141 207.378 89.6722C207.378 90.0016 208.094 90.3116 208.385 90.3891C208.249 90.4472 206.874 90.6604 206.719 90.8347C206.351 90.9122 205.44 90.641 205.149 90.331C205.111 90.4279 205.053 90.5054 205.053 90.6216C205.324 90.6216 205.924 91.0479 206.099 91.0479C205.692 91.261 204.898 91.261 204.433 91.261C204.374 91.3385 203.599 91.4741 204.607 91.4741C205.266 91.4741 205.808 91.5516 206.389 91.261C206.254 91.4741 205.576 92.3072 205.673 92.4816C205.963 92.4816 206.389 91.6679 206.641 91.3772C207.203 90.9122 207.397 90.7572 208.249 90.7572C208.811 90.5829 207.048 91.8229 207.784 91.8229C207.901 91.5516 209.024 90.486 209.024 90.7572C209.238 90.7572 209.47 90.7572 209.683 90.7572C209.063 91.0479 209.761 91.3772 209.741 91.3772C211.253 91.7841 209.954 92.5785 208.676 92.5785C208.424 92.5785 208.327 92.7529 208.114 93.1404C207.843 93.4116 207.203 92.2297 206.603 92.8304C206.099 93.3147 206.118 93.6635 205.304 93.6635C204.936 93.6635 204.994 92.7722 204.898 92.7722Z" fill="#F0F4F0"/>
<path d="M223.284 93.2186L223.439 93.1605L223.672 93.0636L223.827 93.0055L224.059 92.8893L224.273 92.773L224.505 92.5986H224.718L224.893 92.7149L224.66 92.8893L224.447 92.9474L224.273 93.0055L224.118 93.0636L223.885 93.1605L223.711 93.2186L223.498 93.3155L223.323 93.3736L223.284 93.4318L223.226 93.5093L223.168 93.5674L223.11 93.6061V93.6643H222.974H222.936V93.6061V93.5674V93.5093V93.4318V93.3155H223.11L223.284 93.2186Z" fill="#F0F4F0"/>
<path d="M222.781 93.0644C222.509 93.0644 222.509 92.8513 222.335 92.8513C222.335 92.7932 222.238 92.6382 222.219 92.6188C222.219 91.7663 223.188 90.875 223.73 90.3325C224.486 89.7707 225.241 89.2863 226.016 88.8213C225.319 89.6157 224.582 90.565 224.272 91.6113C223.982 92.115 223.478 93.0644 222.819 93.0644H222.781Z" fill="#F0F4F0"/>
<path d="M212.318 92.8311C211.621 92.5598 212.066 91.7073 212.589 91.3779C212.861 90.9517 212.802 91.0679 212.802 90.6417C212.802 89.8861 210.904 90.2542 210.807 90.2542C210.381 90.2542 209.644 90.0411 209.644 89.4792C209.644 89.3629 210.245 89.4598 210.536 89.3048C211.543 88.8398 210.439 87.8517 209.761 87.8517C209.683 87.7742 209.257 87.5417 209.237 87.5029C209.063 86.7861 209.121 86.3404 209.702 86.0498C209.819 86.1661 211.039 86.5729 211.039 86.7086C211.039 86.8636 211.466 87.1929 211.601 87.2704C211.776 87.4061 212.802 86.9411 212.802 87.4836L213.209 87.5998C213.946 87.5998 212.938 88.6654 214.314 88.6654C214.837 88.6654 215.166 88.2779 215.612 88.6073C216.658 89.3629 215.244 90.8161 215.108 91.7848C214.759 91.2229 214.721 90.0411 214.721 89.4017C214.469 89.4017 214.508 89.3242 214.449 89.5761C214.449 89.8279 214.391 90.2929 214.508 90.5254C214.333 90.4092 214.198 90.2348 214.062 90.0798C213.965 89.9248 213.171 89.3242 213.171 89.2467C212.88 89.2467 212.725 87.2317 212.454 87.6192C212.454 87.7548 212.473 88.7236 212.667 88.9173C211.892 88.7623 210.671 87.4836 210.439 86.7279H210.226C210.419 87.6192 211.291 88.4523 212.008 88.9173C212.977 89.4986 211.175 89.1111 211.175 89.3629C211.175 89.7892 212.589 89.5179 212.841 89.4792C213.539 89.7698 214.139 90.6804 214.585 91.2617C214.275 91.2617 213.229 91.1842 213.132 91.4361C213.209 91.7654 214.604 91.4554 214.798 91.8623C214.798 91.9979 214.818 92.6179 214.895 92.7729C214.604 92.8698 214.178 92.7923 213.907 92.8892C213.771 92.928 212.318 92.8311 212.318 92.8311Z" fill="#F0F4F0"/>
<path d="M235.432 92.3859C234.115 93.0446 232.642 92.8896 231.247 92.6571C230.879 92.599 231.325 92.5409 231.519 92.4828C232.061 92.3084 232.623 92.2696 233.069 91.9209C233.902 92.134 234.619 92.4634 235.432 92.3859Z" fill="#F0F4F0"/>
<path d="M227.954 91.2041C228.438 91.2041 228.961 91.2041 229.407 91.3203C230.802 91.6497 231.247 91.6691 232.197 91.8047C232.313 91.8241 232.817 91.921 232.429 91.921C232.391 91.9403 231.557 92.1535 231.461 92.1535C230.937 92.4053 228.244 92.7153 227.934 92.4247C227.159 92.4247 227.372 91.2041 227.954 91.2041Z" fill="#F0F4F0"/>
<path d="M225.009 92.4242C223.381 91.6298 227.062 88.743 227.702 88.3555C226.907 89.4211 226.423 90.6805 225.9 91.8817C225.59 92.2111 225.571 92.4436 225.067 92.4436H225.009V92.4242Z" fill="#F0F4F0"/>
<path d="M233.321 91.4946C233.011 91.4946 232.526 91.4558 233.204 91.2233C234.057 90.9521 234.851 90.6614 235.587 90.2158C235.859 90.2158 236.052 90.3902 236.246 90.3902C236.963 90.3902 237.661 90.3902 238.377 90.2739C237.835 90.6033 236.072 91.3396 235.471 91.4558C234.483 91.6496 235.045 91.4558 233.321 91.4946Z" fill="#F0F4F0"/>
<path d="M227.159 91.2621C226.888 91.2621 227.082 91.1458 226.946 91.1458C225.997 90.1964 229.271 87.7358 229.446 87.9102C228.632 89.1114 228.787 90.6421 227.198 91.2427H227.159V91.2621Z" fill="#F0F4F0"/>
<path d="M233.534 90.6609C233.921 90.6609 233.437 90.7771 233.437 90.7771C233.262 90.9515 231.422 91.2227 231.151 91.2227C230.531 91.2227 229.814 91.4165 229.814 90.564C229.814 89.5565 231.887 90.099 232.371 90.3509C232.681 90.4671 233.166 90.6609 233.534 90.6609Z" fill="#F0F4F0"/>
<path d="M221.986 90.4876L222.141 90.3132L222.432 90.1001L222.664 89.9257L222.936 89.7126L223.226 89.5382L223.556 89.3639L223.885 89.267L224.272 89.0732L224.156 89.267L224.059 89.3251L223.943 89.4801L223.827 89.5382L223.672 89.6545L223.556 89.7707L223.439 89.8676L223.381 89.9839L223.284 90.042L223.11 90.2164L223.052 90.3132L222.974 90.3714L222.936 90.4295L222.877 90.4876V90.5457L222.781 90.6039L222.722 90.7007L222.664 90.7589L222.606 90.817L222.548 90.8751V90.9332H222.432L222.393 90.8751L222.335 90.817L222.257 90.7589L222.199 90.7007H222.102V90.662L221.986 90.6039V90.4876Z" fill="#F0F4F0"/>
<path d="M203.173 89.2081C203.173 88.7819 204.239 88.5106 204.239 87.8131C204.239 87.445 203.367 86.9994 203.231 86.4762C203.231 85.7012 204.064 86.1469 203.851 85.3525C203.851 85.1587 203.386 84.7325 203.193 84.7325C203.154 84.6356 202.592 83.7056 202.863 83.4537C202.979 83.2794 203.328 82.8337 203.58 82.8337C204.006 82.64 204.045 83.0469 204.355 82.8919C204.917 83.4537 204.665 84.8875 206.079 83.8994C206.351 84.0156 206.331 84.2094 206.486 84.345C206.893 84.345 206.641 85.585 207.029 85.585C207.378 85.9144 208.191 85.2944 208.385 85.7012C208.676 85.7012 208.908 85.9725 209.005 86.1856C209.083 86.3794 208.831 86.5537 208.831 86.7475C208.831 86.7475 208.463 87.2512 208.54 87.3675C209.024 88.1037 207.203 87.6387 207.707 87.2512C207.707 87.0962 207.688 86.9606 207.765 86.7862C207.242 86.7862 207.649 87.7937 207.145 87.7937C207.126 87.8131 207.029 87.8519 207.029 87.91C206.699 87.8325 207.145 88.6075 206.719 87.9681C206.254 87.2706 205.808 86.3019 206.099 85.3912C206.176 85.1587 206.079 84.7712 206.157 84.5C205.789 84.5 205.789 85.585 205.789 85.895C205.789 86.4569 204.781 84.9456 204.723 84.8487C204.394 84.4419 203.948 83.9769 203.658 83.5506C203.231 83.7637 204.956 85.6431 205.208 85.9919C205.576 86.4569 205.479 86.3987 205.053 86.2825C204.704 86.2825 204.084 86.2631 203.813 86.1662C203.638 86.5537 205.324 86.5344 205.653 86.67C205.769 87.0187 206.176 87.8131 206.428 88.0844C206.506 88.3556 206.854 88.065 206.428 88.4719C206.002 88.8981 205.382 88.3944 205.111 88.53C204.529 88.53 206.021 89.0531 205.421 89.1887C205.227 89.2275 205.343 89.2275 205.149 89.305C204.878 89.4019 205.072 89.2662 204.704 89.4406C204.51 89.5375 204.142 90.1962 204.258 90.1962C203.754 90.2156 203.173 89.615 203.173 89.2081Z" fill="#F0F4F0"/>
<path d="M233.146 88.7627C234.096 88.7627 234.948 89.0921 235.878 89.0921C234.967 89.7896 231.848 90.7584 232.139 89.2083C232.197 88.8402 232.933 88.7627 233.146 88.7627Z" fill="#F0F4F0"/>
<path d="M229.678 89.925C229.562 89.925 229.349 89.7507 229.291 89.7119C229.291 88.2588 230.24 87.8907 231.228 87.1544C231.383 87.0382 231.461 86.8057 231.693 86.8057C231.48 87.2125 231.228 87.7744 231.073 88.1619C230.821 88.7819 230.608 89.9444 229.717 89.9444H229.678V89.925Z" fill="#F0F4F0"/>
<path d="M237.913 89.5176C237.312 89.7307 235.878 89.8857 235.878 89.7694C235.607 89.5563 235.607 89.6338 235.878 89.4982C236.576 89.0719 237.196 88.7038 238.436 88.607C238.998 88.5682 239.424 88.6457 239.831 88.5488C239.385 88.8782 238.339 89.4207 237.913 89.5176Z" fill="#F0F4F0"/>
<path d="M231.635 88.8789C231.015 88.8789 231.596 87.8908 231.712 87.6389C232.216 86.9995 232.875 86.457 233.534 85.9727C232.836 86.7283 232.914 88.8789 231.712 88.8789H231.635Z" fill="#F0F4F0"/>
<path d="M235.646 88.8214C236.014 88.8214 236.905 88.2982 237.196 88.1045C237.273 88.1239 237.777 88.182 237.951 88.2207C237.622 88.5889 236.343 88.8407 236.014 88.8407C235.898 88.8407 235.801 88.8407 235.684 88.8407H235.646V88.8214Z" fill="#F0F4F0"/>
<path d="M234.212 88.3563C234.096 88.3563 233.883 87.6975 234.27 87.6975C234.503 87.4456 236.421 87.8137 237.06 87.8137C236.517 88.3369 234.483 88.9763 234.212 88.3563Z" fill="#F0F4F0"/>
<path d="M241.846 86.5342C241.284 87.3092 239.036 88.8785 238.145 88.0067C237.99 87.8517 238.009 87.5998 238.261 87.4642C238.629 87.2317 239.094 87.0186 239.947 86.8054C240.606 86.6504 241.206 86.7473 241.846 86.5342Z" fill="#F0F4F0"/>
<path d="M233.572 87.638C232.836 87.0568 234.231 85.7199 234.696 85.2549C234.716 85.2743 234.522 86.3593 234.522 86.4949C234.425 86.9793 234.192 87.638 233.572 87.638Z" fill="#F0F4F0"/>
<path d="M238.223 86.4188C238.494 86.4188 238.746 86.3994 238.998 86.3607C238.649 86.7869 235.607 88.0269 235.529 87.1357C235.258 85.9344 237.564 86.4188 238.223 86.4188Z" fill="#F0F4F0"/>
<path d="M200.364 86.4767C200.247 86.4767 200.131 85.9148 200.306 85.9148C200.538 85.7986 200.712 85.818 200.926 85.5855C201.139 85.353 201.1 84.8298 200.809 84.6748C200.809 84.4036 199.763 84.5004 199.511 84.5004C199.007 84.3842 198.213 84.1323 198.581 83.3961C198.833 83.2411 199.782 82.8148 199.782 82.3304C199.492 82.0398 198.949 81.6136 198.717 81.2648C198.659 80.8386 198.62 80.3929 198.891 80.0442C199.007 80.0442 199.298 79.6761 199.395 79.8311C199.647 79.8311 199.86 79.8892 200.131 79.8892C200.344 80.3154 200.945 81.3811 201.526 81.0904C201.701 81.0904 201.914 80.6642 202.301 80.6642C202.96 80.6642 203.231 81.2842 203.638 81.6717C203.987 81.8654 203.657 82.2529 203.851 82.4467C203.425 82.4467 202.456 82.6598 202.456 83.1054C202.359 83.1248 202.166 83.3186 202.127 83.3186C201.856 83.5704 202.127 83.2023 201.836 83.2023C201.836 82.5823 201.681 82.0592 201.836 81.4198C201.623 80.7417 201.507 82.7567 201.507 82.7567C201.72 83.4542 201.177 82.7761 201.003 82.5823C200.48 82.0011 199.821 81.1486 199.434 80.4704C198.969 80.7223 200.945 82.9892 201.332 83.2992C200.964 83.3767 200.131 83.4154 199.763 83.2992C199.705 83.4929 199.647 83.5317 199.821 83.5317C199.821 83.5511 201.623 83.7448 201.817 83.7448C201.817 83.8998 201.817 84.0354 201.817 84.1904C201.817 84.9848 202.224 84.1517 202.224 84.7523C202.224 85.0236 202.204 85.0236 202.398 85.2948C201.856 85.2948 202.069 85.6436 202.34 85.6436C202.863 85.6436 202.34 86.0892 202.34 86.2054C202.805 86.2054 202.476 86.4573 202.282 86.5736C202.437 87.213 201.546 86.9223 201.216 86.9223C201.003 86.9805 200.616 86.4767 200.364 86.4767Z" fill="#F0F4F0"/>
<path d="M235.142 86.534C234.231 86.069 235.781 84.4221 236.246 84.0928C236.246 84.4028 235.781 86.2434 235.626 86.379C235.646 86.3596 235.142 86.6696 235.142 86.534Z" fill="#F0F4F0"/>
<path d="M241.361 85.0804C242.02 84.906 242.369 84.7123 242.911 84.6348C242.969 84.906 240.276 87.3279 239.908 86.2623C239.927 86.0685 239.521 85.6423 240.373 85.3129C241.226 84.9835 240.974 85.1773 241.361 85.0804Z" fill="#F0F4F0"/>
<path d="M241.226 84.1516C241.167 84.0354 241.749 83.2797 242.233 83.086C242.698 82.8729 243.066 82.7566 243.512 82.6985C243.841 82.6985 244.171 82.5822 244.461 82.4854C243.783 83.4347 243.357 84.1904 242.369 84.2485C242.156 84.3647 242.039 84.4035 241.671 84.3647C241.264 84.326 241.284 84.2485 241.226 84.1516Z" fill="#F0F4F0"/>
<path d="M239.385 84.9645C239.85 84.9645 240.238 84.9645 240.683 84.9258C239.54 85.5264 238.881 86.2239 237.602 85.972C237.525 85.9527 237.176 85.7977 237.428 85.352C237.622 85.0808 239.056 84.887 239.385 84.9645Z" fill="#F0F4F0"/>
<path d="M236.711 85.411C236.44 85.411 236.498 85.2366 236.498 84.9654C236.498 84.2291 237.351 83.4541 237.835 82.9697C237.525 83.6479 237.331 84.3841 237.331 85.1397C237.099 85.3529 236.789 85.6047 236.789 85.411H236.711Z" fill="#F0F4F0"/>
<path d="M242.156 82.3691C241.71 82.8341 239.269 85.6629 238.494 84.5198C238.494 83.8998 239.889 83.5898 240.296 83.5123C240.741 83.4154 241.652 82.8535 242.156 82.3691Z" fill="#F0F4F0"/>
<path d="M242.252 82.0397C242.272 81.1097 243.124 80.6835 243.899 80.6835C244.422 80.6835 244.907 80.2572 245.352 80.0635C244.616 80.9935 243.686 82.8535 242.252 82.0397Z" fill="#F0F4F0"/>
<path d="M237.99 84.4037C237.021 83.9193 239.598 81.4199 240.044 80.9355C240.141 81.0324 239.288 82.7374 239.23 82.9118C239.114 83.2412 238.765 84.2293 238.048 84.4037H237.99Z" fill="#F0F4F0"/>
<path d="M239.559 83.3957C239.036 82.6401 240.218 82.0007 240.412 81.7876C240.586 81.5745 241.419 81.1482 241.594 80.877C241.594 81.032 241.187 81.807 241.09 81.9813C240.509 83.1632 240.218 83.202 239.598 83.3763L239.559 83.3957Z" fill="#F0F4F0"/>
<path d="M241.826 77.7773C241.826 78.3198 241.807 79.618 241.555 80.1217C241.361 80.548 240.896 81.1292 240.644 80.858C240.218 80.3542 240.373 80.2961 240.78 79.4823C241.051 78.9398 241.497 78.3198 241.826 77.7773Z" fill="#F0F4F0"/>
<path d="M243.841 80.2179C242.989 80.2179 243.434 79.2104 244.345 79.0554C244.907 78.9585 245.256 78.8229 245.701 78.5322C245.314 79.1329 244.655 80.2179 243.841 80.2179Z" fill="#F0F4F0"/>
<path d="M196.024 74.9286C195.83 74.9286 195.597 74.2699 195.849 74.1536C196.082 73.9018 197.147 73.553 196.566 72.9718C196.159 72.5843 195.791 72.2161 195.791 71.5768C195.791 70.9568 196.159 70.8018 196.682 70.8018C196.915 70.9955 197.109 71.4799 197.302 71.5768C197.671 71.9643 197.612 71.2861 197.806 72.1968C198.058 73.2043 198.639 74.483 199.201 75.3743C199.085 75.8393 198.911 75.4518 198.911 75.258C198.542 74.638 198.31 73.9018 197.845 73.3786C197.632 72.9911 197.322 72.623 197.128 72.2549C197.109 72.2743 197.031 72.313 197.012 72.313C197.283 73.0299 197.806 73.6499 198.136 74.328C199.046 75.878 198.736 75.6843 197.574 74.5411C197.438 74.8511 198.329 75.3549 198.407 75.6068C198.775 75.9555 198.93 76.5368 199.317 76.8855C199.143 77.0599 199.492 77.0986 199.201 77.3893C198.756 77.8349 199.666 77.3505 199.317 77.7186C199.298 77.7768 198.019 77.9899 198.794 77.9899C198.969 78.1643 199.221 78.1061 199.007 78.3968C198.814 78.1836 198.872 78.1836 198.736 78.3386C198.465 78.6099 198.581 78.7261 198.581 78.9393C198.794 78.9393 198.097 79.598 197.748 79.0555C197.593 79.3461 197.961 79.6755 198.174 79.7724C197.884 79.7724 197.806 79.4236 197.671 79.4236C197.671 79.4043 197.186 79.288 197.109 79.0943C196.818 78.9393 196.469 77.8349 196.779 77.5249C198.194 76.188 196.837 75.8005 196.024 74.9286Z" fill="#F0F4F0"/>
<path d="M243.124 75.9951C242.679 77.2351 243.802 78.572 242.562 79.3276C241.032 79.3276 242.989 76.3439 243.124 75.9951Z" fill="#F0F4F0"/>
<path d="M245.294 76.8862C245.624 76.6924 246.031 76.363 246.302 76.0918C246.476 76.4793 245.12 79.0562 244.403 78.3393C244.074 77.9905 244.403 77.8162 244.403 77.7193C244.422 77.5837 245.139 76.983 245.294 76.8862Z" fill="#F0F4F0"/>
<path d="M194.784 75.7029V75.606L195.036 75.4316V75.4898H195.133H195.191H195.307H195.365H195.462H195.578H195.694L195.927 75.5479V75.606H195.985H196.024V75.6448H196.082L196.14 75.7029H196.179V75.8191L196.082 75.9354L196.024 76.0323L195.985 76.1485L195.927 76.2648L195.869 76.4391L195.811 76.4973L195.753 76.5941L195.694 76.6523H195.636L195.462 76.5941L195.365 76.4973L195.249 76.4391L195.191 76.2648L195.036 76.1485L194.978 76.0323L194.842 75.8773L194.784 75.7029Z" fill="white"/>
<path d="M245.042 76.4984C243.88 76.0334 245.662 73.999 246.147 73.0303C246.147 74.0378 246.147 76.9246 245.042 76.4984Z" fill="#F0F4F0"/>
<path d="M200.635 77.9512C200.635 77.9512 200.112 78.3387 200.364 78.7843C200.635 79.2105 200.732 78.9974 201.139 79.2687C201.565 79.5399 200.654 80.0243 201.139 80.4312C201.642 80.8187 201.701 79.8499 201.952 80.063C202.127 80.1018 200.519 77.9899 200.635 77.9512Z" fill="#F0F4F0"/>
<path d="M221.986 95.8533L222.354 95.582L224.815 96.5895L223.711 96.7639L221.986 95.8533Z" fill="#F0F4F0"/>
<path d="M218.692 96.9775L217.607 96.8807L221.153 95.04L221.463 95.2532L218.692 96.9775Z" fill="#F0F4F0"/>
<path d="M219.429 95.0982L216.813 96.5125H216.368L215.941 96.4738L219.099 95.04L219.429 95.0982Z" fill="#F0F4F0"/>
<path d="M224.04 94.9424L223.924 95.1361L226.094 96.0468L226.636 95.8143L224.04 94.9424Z" fill="#F0F4F0"/>
<path d="M230.124 94.537L229.329 93.9557L235.742 93.4326L235.142 94.6339L230.124 94.537Z" fill="#F0F4F0" stroke="black" stroke-width="0.1347" stroke-miterlimit="2.6131"/>
<path d="M232.332 95.0405L231.984 96.4742L223.846 94.1298L224.234 93.7617L232.332 95.0405Z" fill="#F0F4F0" stroke="black" stroke-width="0.1347" stroke-miterlimit="2.6131"/>
<path d="M212.977 94.0322C212.977 94.0322 213.326 94.6522 213.345 94.7878C213.364 94.9041 213.558 95.6016 214.217 95.3497C215.108 95.0203 214.604 94.5747 214.004 94.4391C212.977 94.1872 212.977 94.0322 212.977 94.0322Z" stroke="black" stroke-width="0.216" stroke-miterlimit="2.6131"/>
<path d="M221.037 88.9562C234.541 88.9562 245.546 77.9512 245.546 64.4469C245.546 50.9425 234.541 39.9375 221.037 39.9375C207.552 39.9375 196.527 50.9425 196.527 64.4469C196.527 77.9512 207.552 88.9562 221.037 88.9562Z" fill="#F0F4F0"/>
<path d="M243.802 75.7812C243.822 75.7037 244.364 74.5412 244.171 75.2774C244.171 75.6068 244.597 77.6799 243.861 77.9124C243.299 78.0868 243.396 77.0987 243.473 76.8855C243.57 76.5949 243.725 76.1106 243.802 75.7812Z" fill="#F0F4F0"/>
<path d="M221.037 87.2129C233.572 87.2129 243.802 76.9635 243.802 64.4473C243.802 51.9116 233.572 41.6816 221.037 41.6816C208.521 41.6816 198.271 51.9116 198.271 64.4473C198.271 76.9829 208.521 87.2129 221.037 87.2129Z" fill="#22252C"/>
<path d="M221.037 83.9184C231.751 83.9184 240.509 75.1609 240.509 64.4465C240.509 53.7321 231.751 44.9746 221.037 44.9746C210.323 44.9746 201.565 53.7321 201.565 64.4465C201.565 75.1609 210.323 83.9184 221.037 83.9184Z" fill="#3B4046"/>
<path d="M221.037 80.1404C229.678 80.1404 236.731 73.0879 236.731 64.4467C236.731 55.8054 229.678 48.7529 221.037 48.7529C212.396 48.7529 205.343 55.8054 205.343 64.4467C205.343 73.0879 212.396 80.1404 221.037 80.1404Z" fill="#181C1F"/>
<path d="M216.096 52.9582L205.014 48.4438L209.625 59.565L198.542 64.2344L209.47 68.8069L205.052 79.9088L216.174 75.3169L220.921 87.3294L225.667 75.3169L236.808 79.9088L232.371 68.8069L243.57 64.2344L232.216 59.5457L236.827 48.4438L225.745 52.9582L220.921 41.8369L216.096 52.9582Z" fill="#F0F4F0"/>
<path d="M220.921 44.0059L216.561 54.0615L206.602 50.0121L210.768 60.0096L200.751 64.2334L210.594 68.3409L206.602 78.3384L216.677 74.1921L220.921 84.984L225.183 74.1921L235.258 78.3384L231.267 68.3409L241.303 64.2334L231.092 60.0096L235.258 50.0121L225.299 54.0615L220.921 44.0059Z" fill="white"/>
<path d="M223.342 71.15C223.207 71.4019 222.587 72.1575 222.238 72.1575C222.006 72.1575 221.482 72.1768 221.366 72.0412C221.056 72.0412 221.308 71.8281 220.921 71.8281C219.894 72.5837 218.789 72.2543 217.976 71.2662C217.607 70.8981 217.026 69.91 216.987 69.4256C216.968 69.29 216.329 67.1781 216.329 66.8487C216.309 66.965 216.174 69.3675 216.503 69.3675C214.527 67.1975 215.709 63.1675 217.104 61.0556C216.968 63.0125 216.987 64.9693 217.433 66.9068C217.433 67.43 218.111 69.4643 218.46 69.4643C218.46 69.6 218.964 69.6968 218.964 69.3093C218.964 68.9025 218.944 68.7862 218.789 68.3793C218.15 67.2556 217.685 65.9575 217.588 64.6593C217.452 62.47 217.879 58.905 219.332 57.2193C219.642 56.7931 219.7 56.5025 219.603 57.1612C219.603 58.7887 219.971 60.61 220.204 62.1987C220.436 63.4 220.727 63.5356 220.959 64.6012C221.037 65.26 221.037 65.9575 220.959 66.6162C220.843 67.6818 220.591 68.7862 220.591 69.8518C220.804 70.2781 220.591 70.3943 221.134 70.3943C221.696 70.3943 221.909 68.5537 221.792 68.1081C221.792 67.0425 221.715 65.415 221.25 64.5043C221.114 64.1943 220.804 63.2837 220.707 62.9737C220.591 62.5668 220.514 62.2181 220.494 62.0437C220.087 60.0868 219.874 57.1225 220.707 55.2625C220.785 55.03 220.824 54.7006 220.979 54.5068C220.979 55.03 220.862 55.6112 221.095 56.0956C221.095 57.355 223.575 62.3731 223.807 63.3612C223.807 63.3806 224.098 64.1943 224.156 64.5237C224.292 65.9768 224.35 67.6043 224.156 68.9993C224.079 69.5612 223.672 70.5687 223.342 71.15Z" fill="#3B4046"/>
<path d="M223.478 71.1308C223.73 70.8595 224.369 69.387 224.486 68.5539C224.66 67.1783 224.854 65.7252 224.66 64.3883C224.505 63.3227 224.118 62.257 223.672 61.2689C223.323 60.4939 222.451 58.6145 222.471 56.832C222.742 57.1033 222.878 57.5102 223.033 57.762C223.633 58.7889 224.486 59.7577 225.106 60.7652C225.648 61.6758 226.52 63.1677 226.578 64.2139C226.849 67.0039 225.629 69.4839 223.517 71.2664L223.478 71.1308Z" fill="#3B4046"/>
<path d="M212.802 83.2607C213.209 83.2607 213.539 83.5901 213.539 83.9776C213.539 84.3845 213.209 84.7139 212.802 84.7139C212.396 84.7139 212.086 84.3845 212.086 83.9776C212.086 83.5901 212.396 83.2607 212.802 83.2607Z" fill="#F0F4F0"/>
<path d="M228.477 83.59C228.748 83.2994 229.213 83.2994 229.504 83.59C229.775 83.8613 229.775 84.3263 229.504 84.6169C229.213 84.8882 228.748 84.8882 228.477 84.6169C228.186 84.3263 228.186 83.8613 228.477 83.59Z" fill="#F0F4F0"/>
<path d="M239.792 72.7196C239.792 72.3128 240.102 71.9834 240.509 71.9834C240.916 71.9834 241.245 72.3128 241.245 72.7196C241.245 73.1071 240.916 73.4365 240.509 73.4365C240.102 73.4365 239.792 73.1071 239.792 72.7196Z" fill="#F0F4F0"/>
<path d="M240.082 57.0457C239.811 56.7745 239.811 56.3095 240.082 56.0189C240.373 55.7476 240.838 55.7476 241.109 56.0189C241.4 56.3095 241.4 56.7745 241.109 57.0457C240.838 57.3364 240.373 57.3364 240.082 57.0457Z" fill="#F0F4F0"/>
<path d="M213.558 45.5564C213.287 45.8276 212.802 45.8276 212.531 45.5564C212.241 45.2657 212.241 44.8007 212.531 44.5295C212.802 44.2389 213.287 44.2389 213.558 44.5295C213.849 44.8007 213.849 45.2657 213.558 45.5564Z" fill="#F0F4F0"/>
<path d="M202.262 56.2909C202.262 56.6978 201.933 57.0078 201.546 57.0078C201.139 57.0078 200.809 56.6784 200.809 56.2909C200.809 55.8841 201.139 55.5547 201.546 55.5547C201.933 55.5547 202.262 55.8841 202.262 56.2909Z" fill="#F0F4F0"/>
<path d="M201.933 71.9649C202.224 72.2362 202.224 72.7206 201.933 72.9918C201.662 73.2824 201.197 73.2824 200.906 72.9918C200.635 72.7206 200.635 72.2362 200.906 71.9649C201.197 71.6549 201.662 71.6549 201.933 71.9649Z" fill="#F0F4F0"/>
<path d="M202.398 87.3096L202.418 88.4915C202.418 88.4915 200.945 88.4721 200.906 88.0652C200.868 87.6389 201.643 87.3483 202.398 87.3096Z" fill="white"/>
<path d="M205.886 93.9941L207.009 94.6141C207.009 94.6141 206.389 95.796 205.963 95.6604C205.576 95.5248 205.634 94.711 205.886 93.9941Z" fill="white"/>
<path d="M221.948 90.4481L221.192 89.5762C221.192 89.5762 222.083 88.7818 222.374 89.0143C222.684 89.2662 222.393 89.9056 221.948 90.4481Z" fill="white"/>
<path d="M215.573 94.4014L216.581 95.2151C216.581 95.2151 215.767 96.2808 215.399 96.0676C214.992 95.8739 215.186 95.0795 215.573 94.4014Z" fill="white"/>
<path d="M233.805 90.6993C233.805 90.6993 236.44 90.0018 237.719 89.1299M232.739 91.8424C232.739 91.8424 235.161 91.4743 236.266 90.9318L232.739 91.8424Z" stroke="black" stroke-width="2.016" stroke-miterlimit="2.6131" stroke-linecap="round"/>
<path d="M241.943 82.601C242.098 82.4847 242.466 82.3491 243.047 81.4385M237.118 87.8322C237.118 87.8322 239.036 87.0572 240.315 86.1854L237.118 87.8322ZM239.269 86.3404C239.269 86.3404 240.703 85.5654 241.981 84.6935L239.269 86.3404ZM240.799 84.926C240.799 84.926 242.156 84.4222 243.357 83.1822L240.799 84.926Z" stroke="black" stroke-width="1.8" stroke-miterlimit="2.6131" stroke-linecap="round"/>
<path d="M240.276 81.2259C240.431 81.1096 240.799 80.974 241.381 80.0634M239.811 80.974C239.966 80.8578 240.334 80.7221 240.916 79.8115L239.811 80.974ZM240.083 81.0321C240.238 80.9159 240.606 80.7803 241.187 79.8697L240.083 81.0321Z" stroke="black" stroke-width="1.008" stroke-miterlimit="2.6131" stroke-linecap="round"/>
<path d="M237.68 88.5889C237.68 88.5889 238.358 88.3951 239.637 87.6201" stroke="black" stroke-width="1.8" stroke-miterlimit="2.6131" stroke-linecap="round"/>
<path d="M229.736 45.5564C229.465 45.8276 228.981 45.8276 228.709 45.5564C228.419 45.2657 228.419 44.8007 228.709 44.5295C228.981 44.2389 229.465 44.2389 229.736 44.5295C230.027 44.8007 230.027 45.2657 229.736 45.5564Z" fill="#F0F4F0"/>
</g>
<rect x="218" y="8" width="30" height="18" fill="#3B4046"/>
<circle cx="233" cy="17" r="3.5" fill="#3B4046" stroke="#181C1F"/>
<rect x="218" y="16.5" width="12" height="1" fill="#181C1F"/>
<rect x="236" y="16.5" width="12" height="1" fill="#181C1F"/>
<path d="M52 8H16V32H52V8Z" fill="#3F9C35"/>
<path d="M52 8H16V24H52V8Z" fill="#ED2939"/>
<path d="M52 8H16V16H52V8Z" fill="#00B9E4"/>
<path d="M33.1 23.5994C35.0882 23.5994 36.7 21.9876 36.7 19.9994C36.7 18.0112 35.0882 16.3994 33.1 16.3994C31.1118 16.3994 29.5 18.0112 29.5 19.9994C29.5 21.9876 31.1118 23.5994 33.1 23.5994Z" fill="white"/>
<path d="M33.8998 23C35.5566 23 36.8998 21.6569 36.8998 20C36.8998 18.3431 35.5566 17 33.8998 17C32.2429 17 30.8998 18.3431 30.8998 20C30.8998 21.6569 32.2429 23 33.8998 23Z" fill="#ED2939"/>
<path d="M37.0995 18.001L37.4817 19.0765L38.5128 18.5854L38.0217 19.6165L39.0995 20.001L38.0239 20.3832L38.515 21.4143L37.4839 20.9232L37.0995 22.001L36.7173 20.9254L35.6862 21.4165L36.1773 20.3854L35.0995 20.001L36.175 19.6188L35.6839 18.5876L36.715 19.0788L37.0995 18.001Z" fill="white"/>
<rect x="104" y="44" width="23.8919" height="2" rx="1" fill="#3B4046"/>
<rect x="104" y="50" width="52" height="2" rx="1" fill="#3B4046"/>
<rect x="104" y="60" width="41" height="2" rx="1" fill="#3B4046"/>
<rect x="104" y="66" width="27.5469" height="2" rx="1" fill="#3B4046"/>
<rect x="104" y="76" width="56" height="2" rx="1" fill="#3B4046"/>
<rect x="104" y="82" width="69" height="2" rx="1" fill="#3B4046"/>
<rect x="104" y="142" width="55.0872" height="2" rx="1" fill="#3B4046"/>
<rect x="104" y="148" width="38.6577" height="2" rx="1" fill="#3B4046"/>
<rect x="171.087" y="142" width="55.0872" height="2" rx="1" fill="#3B4046"/>
<rect x="104" y="92" width="16" height="2" rx="1" fill="#3B4046"/>
<rect x="104" y="98" width="11" height="2" rx="1" fill="#3B4046"/>
<rect x="127.591" y="92" width="55.0872" height="2" rx="1" fill="#3B4046"/>
<rect x="127.591" y="98" width="38.6577" height="2" rx="1" fill="#3B4046"/>
<rect x="190.409" y="92" width="40.5906" height="2" rx="1" fill="#3B4046"/>
<rect x="190.409" y="98" width="28.0268" height="2" rx="1" fill="#3B4046"/>
<rect x="70" y="13" width="123" height="4" rx="2" fill="#3B4046"/>
<rect x="80.25" y="23" width="102.5" height="4" rx="2" fill="#3B4046"/>
<path d="M171.914 124.31L172.264 125.08L173.694 124.14H173.764V130H174.734V123H173.884L171.914 124.31ZM181.674 123H178.514V123.93H180.674V127.22C180.674 128.5 180.104 129.24 179.084 129.24C177.834 129.24 177.324 128.03 177.344 126.92H176.354C176.334 128.67 177.204 130.15 179.094 130.15C180.734 130.15 181.674 129.02 181.674 127.23V123ZM186.972 126.22C187.372 126.06 187.972 125.6 187.972 124.69C187.972 123.67 187.242 123 185.972 123H183.302V130H185.942C187.472 130 188.202 129.15 188.202 128.01C188.202 127.04 187.692 126.39 186.972 126.22ZM185.812 123.91C186.682 123.91 186.972 124.24 186.972 124.85C186.972 125.23 186.862 125.88 185.942 125.88H184.302V123.91H185.812ZM185.772 129.1H184.302V126.75H185.952C186.832 126.75 187.192 127.23 187.192 127.95C187.192 128.51 186.972 129.1 185.772 129.1ZM193.571 123.93V123H189.581V130H190.581V126.86H193.451V125.94H190.581V123.93H193.571ZM195.528 127.6H194.528C194.508 129.13 195.468 130.15 197.038 130.15C198.478 130.15 199.508 129.19 199.508 127.9C199.508 125.36 195.888 126.15 195.888 124.55C195.888 123.96 196.368 123.69 197.048 123.69C197.948 123.69 198.158 124.28 198.148 124.9H199.128C199.148 123.7 198.488 122.83 197.048 122.83C195.688 122.83 194.878 123.67 194.878 124.73C194.878 127.01 198.478 126.34 198.478 128.02C198.478 128.75 197.848 129.24 197.048 129.24C196.108 129.24 195.518 128.66 195.528 127.6ZM205.261 130H206.321L203.971 123H202.621L200.271 130H201.321L201.941 128.1H204.641L205.261 130ZM202.231 127.21L203.241 124.09H203.341L204.351 127.21H202.231ZM212.454 123H207.114V123.93H209.254V130H210.254V123.93H212.454V123Z" fill="#C9FFC7"/>
<rect x="171" y="131" width="42" height="1" fill="#C9FFC7"/>
<rect x="16" y="44" width="80" height="96" fill="#3B4046"/>
<rect opacity="0.04" x="24" y="144" width="64" height="24" fill="white"/>
<path d="M68.4161 84.1758C67.6641 87.9678 67.7121 92.4478 66.2401 95.2958C64.1441 99.3758 59.5521 101.888 55.8241 101.888C51.8561 101.888 47.4721 99.1838 45.4081 94.6718C44.1761 91.9518 42.7841 85.0238 42.4321 81.5199C41.4401 71.4879 45.9841 65.8079 55.9681 65.5999C67.0561 65.3439 70.3361 74.6079 68.4161 84.1758Z" fill="#242424"/>
<path d="M43.056 80.8324C41.504 79.9844 40.08 80.1284 40.368 81.9684C40.656 83.8084 41.072 88.7683 42.064 89.6163C43.056 90.4643 44.048 90.7523 44.608 89.7603C45.184 88.7523 43.056 80.8324 43.056 80.8324Z" fill="#242424"/>
<path d="M67.84 80.0472C69.392 79.1992 70.816 79.3432 70.528 81.1832C70.24 83.0232 69.824 87.9832 68.832 88.8312C67.84 89.6792 66.848 89.9672 66.288 88.9752C65.712 87.9832 67.84 80.0472 67.84 80.0472Z" fill="#242424"/>
<path d="M47.008 93.9675C47.44 97.9355 47.296 103.887 46.448 106.863C46.592 107.007 50.096 114.207 56.784 113.807C63.072 113.423 65.424 106.447 65.424 106.447C65.424 106.447 63.984 99.0075 64.992 94.4155C65.888 90.3515 47.008 93.9675 47.008 93.9675Z" fill="#242424"/>
<path d="M89.392 115.968C88.496 113.408 84.4 111.968 84.4 111.968L67.584 104.976L64.608 100.496L56.032 105.728L47.408 100.432L44.72 104.912L28.08 111.248C28.08 111.248 25.472 112.24 23.808 114.128C23.104 114.928 20.352 124.384 19.632 140.415H92.256C91.52 124.384 89.744 116.976 89.392 115.968Z" fill="#242424"/>
<path d="M47.44 68.1116C46.992 64.4476 49.136 62.8956 56.256 64.0956C60.56 64.8156 65.472 66.7516 65.904 64.3196C66.08 63.3916 68.24 68.4316 65.456 69.9836C63.888 70.8636 49.024 69.0876 49.024 69.0876L47.44 68.1116Z" fill="#242424"/>
<path d="M47.9359 67.7439C47.3759 67.0719 45.5999 66.6399 44.6079 67.6319C43.6159 68.6239 40.4159 72.5919 41.9679 80.5919C43.5199 88.5758 45.5999 81.6159 45.5999 81.6159L47.8399 68.1919L47.9359 67.7439Z" fill="#242424"/>
<path d="M65.152 68.1287C65.824 67.8727 67.04 67.4567 67.808 68.8487C68.752 70.5287 70.256 75.1207 68.832 80.8967C67.168 87.6806 66.592 80.4807 66.592 80.4807L63.344 69.5687L65.152 68.1287Z" fill="#242424"/>
</svg>
