<?xml version="1.0" standalone="no"?>
<!DOCTYPE svg PUBLIC "-//W3C//DTD SVG 1.1//EN" "http://www.w3.org/Graphics/SVG/1.1/DTD/svg11.dtd" >
<svg xmlns="http://www.w3.org/2000/svg" xmlns:xlink="http://www.w3.org/1999/xlink" version="1.1">
<metadata>
Created by FontForge 20170731 at Wed Mar 17 01:27:50 2021
 By Aleksey,,,
Copyright (c) 2019 by Paulo Goode. All rights reserved.
</metadata>
<defs>
<font id="Yolk-SemiBold" horiz-adv-x="1228" >
  <font-face 
    font-family="Yolk SemBd"
    font-weight="600"
    font-stretch="normal"
    units-per-em="2048"
    panose-1="1 0 0 0 0 0 0 0 0 0"
    ascent="1638"
    descent="-410"
    x-height="1118"
    cap-height="1434"
    bbox="-942 -446 2542 2138"
    underline-thickness="102"
    underline-position="-358"
    unicode-range="U+000D-FB02"
  />
<missing-glyph 
d="M0 1638h1229v-2048h-1229v2048zM1174 -356v1941h-1119v-1941h1119zM393 252l-121 121l222 221l-222 221l121 121l221 -221l222 221l120 -121l-221 -221l221 -221l-120 -121l-222 221z" />
    <glyph glyph-name="fi" unicode="fi" horiz-adv-x="1273" 
d="M1012 1274q-64 0 -106 35.5t-42 101.5q0 69 40.5 122.5t107.5 53.5q66 0 106.5 -53.5t40.5 -122.5q0 -66 -41.5 -101.5t-105.5 -35.5zM201 1276q0 155 75.5 232t200.5 77q107 0 217 -45v-184q-77 30 -135 30q-64 0 -88.5 -34.5t-24.5 -118.5v-115h248v-180h-248v-938
h-245v938h-150v180h150v158zM889 0v1118h246v-1118h-246z" />
    <glyph glyph-name="fl" unicode="fl" horiz-adv-x="1261" 
d="M201 1276q0 155 75.5 232t200.5 77q107 0 217 -45v-184q-77 30 -135 30q-64 0 -88.5 -34.5t-24.5 -118.5v-115h248v-180h-248v-938h-245v938h-150v180h150v158zM883 1577h245v-1577h-245v1577z" />
    <glyph glyph-name=".notdef" 
d="M0 1638h1229v-2048h-1229v2048zM1174 -356v1941h-1119v-1941h1119zM393 252l-121 121l222 221l-222 221l121 121l221 -221l222 221l120 -121l-221 -221l221 -221l-120 -121l-222 221z" />
    <glyph glyph-name="uni0000" horiz-adv-x="0" 
 />
    <glyph glyph-name="uni0000" horiz-adv-x="0" 
 />
    <glyph glyph-name="uni000D" unicode="&#xd;" horiz-adv-x="512" 
 />
    <glyph glyph-name="space" unicode=" " horiz-adv-x="415" 
 />
    <glyph glyph-name="exclam" unicode="!" horiz-adv-x="659" 
d="M199 1468h272l-35 -964h-203zM174 135q0 72 42 124t114 52t113.5 -52t41.5 -124q0 -76 -43 -118t-112 -42q-67 0 -111.5 42.5t-44.5 117.5z" />
    <glyph glyph-name="quotedbl" unicode="&#x22;" horiz-adv-x="987" 
d="M180 1538h207v-670h-207v670zM600 1538h207v-670h-207v670z" />
    <glyph glyph-name="numbersign" unicode="#" horiz-adv-x="1478" 
d="M1366 881h-244l-55 -320h242l-31 -172h-242l-67 -389h-205l70 389h-326l-68 -389h-204l69 389h-223l31 172h221l57 320h-221l31 172h221l67 387h203l-67 -387h325l68 387h203l-68 -387h244zM862 561l58 320h-326l-55 -320h323z" />
    <glyph glyph-name="dollar" unicode="$" horiz-adv-x="1249" 
d="M1165 453q0 -182 -118.5 -302.5t-307.5 -144.5l19 -205h-234l19 209q-159 28 -275 124t-151 231l205 84q44 -106 126 -173t199 -67q112 0 186 60.5t74 156.5q0 65 -39.5 111t-102.5 73t-139 50t-152 50.5t-139 65.5t-102.5 104.5t-39.5 157.5q0 149 93.5 254t254.5 133
l-17 189h234l-17 -189q113 -17 195 -72t127 -124l-172 -115q-33 46 -98 82.5t-156 36.5q-88 0 -143.5 -39t-55.5 -115q0 -47 25 -83t67 -59t96.5 -41.5t115 -36t120.5 -38t114.5 -51.5t96.5 -71.5t67 -103t25 -142.5z" />
    <glyph glyph-name="percent" unicode="%" horiz-adv-x="1839" 
d="M428 717q-165 0 -267 105t-102 263q0 155 103 262t266 107t266 -107t103 -262q0 -158 -102 -263t-267 -105zM1239 1434h182l-876 -1434h-180zM428 905q74 0 119 48.5t45 131.5q0 79 -45.5 130t-118.5 51q-71 0 -116.5 -51t-45.5 -130q0 -82 44.5 -131t117.5 -49z
M1352 -20q-164 0 -266.5 105.5t-102.5 262.5q0 156 102.5 262.5t266.5 106.5t266 -106.5t102 -262.5q0 -157 -102 -262.5t-266 -105.5zM1352 168q72 0 116.5 49.5t44.5 130.5q0 80 -44.5 130t-116.5 50q-73 0 -118.5 -50t-45.5 -130q0 -81 45 -130.5t119 -49.5z" />
    <glyph glyph-name="ampersand" unicode="&#x26;" horiz-adv-x="1519" 
d="M1464 0h-290l-123 133q-188 -156 -447 -156q-73 0 -141.5 13t-135.5 43t-116.5 75.5t-80 115.5t-30.5 157q0 78 23.5 142t71.5 116t101 90t130 82q-94 104 -136 177t-42 159q0 145 107.5 227t271.5 82q75 0 142.5 -18.5t122.5 -55t87.5 -97t32.5 -138.5
q0 -113 -67.5 -193.5t-203.5 -165.5l295 -321q59 142 62 354h235q0 -310 -139 -526zM637 1284q-76 0 -118 -38t-42 -99q0 -52 31 -98.5t110 -128.5q95 55 136 101.5t41 115.5q0 55 -25.5 89.5t-58.5 46t-74 11.5zM629 174q171 0 286 109l-362 393q-50 -30 -80.5 -52.5
t-59 -54t-41 -70t-12.5 -87.5q0 -116 71.5 -177t197.5 -61z" />
    <glyph glyph-name="quotesingle" unicode="'" horiz-adv-x="567" 
d="M180 1538h207v-670h-207v670z" />
    <glyph glyph-name="parenleft" unicode="(" horiz-adv-x="708" 
d="M502 1520l141 -82q-111 -229 -162 -414t-51 -416q0 -232 51.5 -423.5t161.5 -417.5l-141 -84q-153 220 -239.5 445t-86.5 480q0 132 24.5 257.5t71 239.5t101.5 212t129 203z" />
    <glyph glyph-name="parenright" unicode=")" horiz-adv-x="708" 
d="M207 1520q154 -220 239.5 -439t85.5 -473q0 -255 -86 -480t-239 -445l-141 84q110 226 161.5 417.5t51.5 423.5q0 231 -51 416t-162 414z" />
    <glyph glyph-name="asterisk" unicode="*" horiz-adv-x="958" 
d="M840 1298l-240 -108l240 -109l-86 -149l-215 153l26 -262h-172l27 262l-215 -153l-86 149l239 109l-239 108l86 152l215 -156l-27 265h172l-26 -265l215 156z" />
    <glyph glyph-name="plus" unicode="+" 
d="M1012 678v-168h-310v-307h-176v307h-309v168h309v307h176v-307h310z" />
    <glyph glyph-name="comma" unicode="," horiz-adv-x="659" 
d="M330 315q74 0 114.5 -59t40.5 -166q0 -128 -68 -238.5t-190 -164.5l-51 120q68 37 99 89t28 100q-47 0 -88 36.5t-41 108.5q0 70 42.5 122t113.5 52z" />
    <glyph glyph-name="hyphen" unicode="-" horiz-adv-x="1024" 
d="M215 664h594v-185h-594v185z" />
    <glyph glyph-name="period" unicode="." horiz-adv-x="659" 
d="M174 135q0 72 42 124t114 52t113.5 -52t41.5 -124q0 -76 -43 -118t-112 -42q-67 0 -111.5 42.5t-44.5 117.5z" />
    <glyph glyph-name="slash" unicode="/" horiz-adv-x="759" 
d="M592 1638h207l-639 -1941h-207z" />
    <glyph glyph-name="zero" unicode="0" horiz-adv-x="1261" 
d="M104 678q0 119 20.5 231t63.5 211.5t104 174t148.5 118t190.5 43.5q128 0 230.5 -66t166 -177t96.5 -248t33 -287q0 -330 -142.5 -515.5t-383.5 -185.5t-384 185.5t-143 515.5zM358 682q0 -235 69.5 -360t203.5 -125t203 125t69 360q0 116 -15 214t-46.5 177t-85.5 123.5
t-125 44.5t-124.5 -44.5t-85.5 -123.5t-47.5 -177t-15.5 -214z" />
    <glyph glyph-name="one" unicode="1" horiz-adv-x="868" 
d="M51 1178l404 256h215v-1434h-246v1155h-12l-277 -176z" />
    <glyph glyph-name="two" unicode="2" horiz-adv-x="1189" 
d="M340 961h-221q-6 91 24 179t89 158.5t153.5 114t208.5 43.5q94 0 175.5 -28t144 -81.5t98 -137t35.5 -187.5q0 -74 -17.5 -138t-56 -125.5t-85 -115.5t-118.5 -123l-289 -299v-12h598v-209h-946l-8 168l491 498q93 89 139 165t46 175q0 67 -19.5 116.5t-53 76t-70 38.5
t-76.5 12q-114 0 -179.5 -78.5t-62.5 -209.5z" />
    <glyph glyph-name="three" unicode="3" horiz-adv-x="1214" 
d="M836 768q251 -95 251 -338q0 -91 -32.5 -173t-92.5 -144.5t-151 -99t-201 -36.5q-78 0 -150 18t-136.5 57.5t-111.5 97t-72.5 141.5t-22.5 186h227q1 -140 74.5 -212t189.5 -72q114 0 170 64.5t56 162.5q0 109 -68 172t-182 63h-111v191h92q119 0 180.5 53.5t61.5 149.5
q0 102 -65 154t-150 52q-110 0 -176.5 -68t-69.5 -200h-213q-12 203 120.5 335.5t354.5 133.5q84 0 162.5 -25.5t140.5 -72.5t99 -120t37 -161q0 -106 -60.5 -187t-150.5 -112v-10z" />
    <glyph glyph-name="four" unicode="4" 
d="M1141 537v-205h-189v-332h-241v332h-652v166l586 936h307v-897h189zM313 537h398v628h-17l-381 -612v-16z" />
    <glyph glyph-name="five" unicode="5" 
d="M1018 1434l2 -211h-582l-37 -389h13q98 118 272 118q83 0 157.5 -28t135 -83t96 -148t35.5 -212q0 -227 -124.5 -365.5t-348.5 -138.5t-365.5 124.5t-140.5 361.5h236q3 -134 70 -202t181 -68q124 0 184 73t60 195q0 133 -66.5 212t-179.5 79q-76 0 -141.5 -38
t-101.5 -100l-211 -2l80 822h776z" />
    <glyph glyph-name="six" unicode="6" 
d="M688 938q83 0 152 -25.5t117.5 -69.5t82.5 -103.5t50 -128t16 -142.5t-17 -144t-54.5 -133.5t-91.5 -111t-132.5 -75.5t-173.5 -28q-247 0 -390 185t-143 524q0 226 63 399.5t186 272t290 98.5q189 0 303.5 -116.5t120.5 -319.5h-215q-14 102 -71 168.5t-148 66.5
q-127 0 -199.5 -132.5t-79.5 -381.5h11q37 80 117.5 138.5t205.5 58.5zM637 180q108 0 168.5 75t60.5 196q0 43 -7.5 83.5t-25.5 79t-45 67.5t-69 46.5t-94 17.5q-37 0 -73 -10t-71.5 -34t-60 -59.5t-35.5 -92.5t-2 -127q62 -242 254 -242z" />
    <glyph glyph-name="seven" unicode="7" horiz-adv-x="1021" 
d="M150 0l540 1208v15h-637v211h903v-185l-548 -1249h-258z" />
    <glyph glyph-name="eight" unicode="8" 
d="M618 1456q119 0 220 -46.5t164 -136.5t63 -204q0 -112 -51.5 -187t-128.5 -110v-6q109 -32 180.5 -127.5t71.5 -226.5q0 -88 -38 -167.5t-105 -138.5t-165 -94t-213 -35q-227 0 -375.5 124t-148.5 307q0 132 73 227t183 129v8q-75 33 -126.5 108.5t-51.5 186.5
q0 114 63 204.5t164.5 137.5t220.5 47zM614 1264q-100 0 -155.5 -59t-55.5 -152q0 -90 55.5 -144.5t155.5 -54.5q102 0 158.5 55t56.5 146q0 92 -57 150.5t-158 58.5zM614 659q-116 0 -190 -61.5t-74 -175.5q0 -113 75 -175.5t189 -62.5q113 0 189 62.5t76 175.5
q0 116 -75.5 176.5t-189.5 60.5z" />
    <glyph glyph-name="nine" unicode="9" horiz-adv-x="1218" 
d="M131 418h219q18 -113 89.5 -177.5t168.5 -64.5q250 0 262 463v43h-12q-31 -82 -110.5 -135t-206.5 -53q-88 0 -160.5 28t-120.5 74.5t-81 109t-47.5 129t-14.5 136.5q0 132 59.5 242t171.5 176.5t254 66.5q165 0 281.5 -94t173.5 -259.5t57 -387.5q0 -350 -133.5 -544
t-386.5 -194q-200 0 -323 119.5t-140 321.5zM598 688q124 0 184 75.5t60 186.5q0 130 -71 217.5t-175 87.5q-43 0 -83.5 -17t-76 -51.5t-57 -95.5t-21.5 -141q0 -34 7 -67.5t24.5 -69.5t43.5 -63t69 -44.5t96 -17.5z" />
    <glyph glyph-name="colon" unicode=":" horiz-adv-x="659" 
d="M174 926q0 72 42 124t114 52t113.5 -52t41.5 -124q0 -76 -43 -118t-112 -42q-67 0 -111.5 42.5t-44.5 117.5zM174 135q0 72 42 124t114 52t113.5 -52t41.5 -124q0 -76 -43 -118t-112 -42q-67 0 -111.5 42.5t-44.5 117.5z" />
    <glyph glyph-name="semicolon" unicode=";" horiz-adv-x="659" 
d="M174 926q0 72 42 124t114 52t113.5 -52t41.5 -124q0 -76 -43 -118t-112 -42q-67 0 -111.5 42.5t-44.5 117.5zM330 315q74 0 114.5 -59t40.5 -166q0 -128 -68 -238.5t-190 -164.5l-51 120q68 37 99 89t28 100q-47 0 -88 36.5t-41 108.5q0 70 42.5 122t113.5 52z" />
    <glyph glyph-name="less" unicode="&#x3c;" 
d="M1073 903l-684 -321v-17l684 -321v-191l-938 451v139l938 451v-191z" />
    <glyph glyph-name="equal" unicode="=" 
d="M217 885h795v-168h-795v168zM217 475h795v-168h-795v168z" />
    <glyph glyph-name="greater" unicode="&#x3e;" 
d="M156 903v191l938 -451v-139l-938 -451v191l684 321v17z" />
    <glyph glyph-name="question" unicode="?" horiz-adv-x="1114" 
d="M631 496h-232v45q0 73 19 130t50 93t68.5 65t74.5 54t68 51.5t50 65t19 87.5q0 95 -57 143t-146 48q-33 0 -62 -6.5t-58.5 -24.5t-49.5 -46t-31 -76.5t-6 -110.5h-221q-9 112 23 202.5t94 148.5t145 89t178 31q63 0 124.5 -13.5t119.5 -44t101.5 -74t70 -108.5t26.5 -143
q0 -70 -20.5 -124.5t-53 -89t-71.5 -63t-78 -54t-71.5 -53.5t-53 -70.5t-20.5 -96.5v-55zM371 127q0 68 41.5 117t113.5 49q71 0 113.5 -49t42.5 -117q0 -71 -44 -111.5t-112 -40.5t-111.5 40.5t-43.5 111.5z" />
    <glyph glyph-name="at" unicode="@" horiz-adv-x="1923" 
d="M1397 932l-103 -582q-18 -114 95 -114q72 0 126 40t82.5 105t42 133.5t13.5 138.5q0 140 -52 256.5t-141.5 193.5t-209 119t-253.5 42q-201 0 -365.5 -89t-263 -259.5t-98.5 -393.5q0 -170 58.5 -304t162 -218.5t241.5 -128t302 -43.5q134 0 301 37l25 -131
q-174 -47 -361 -47q-137 0 -267.5 34.5t-244 105t-199 169t-135 235.5t-49.5 295q0 193 73.5 359.5t196 279.5t284.5 177.5t337 64.5q103 0 203.5 -22.5t192.5 -65t170 -107.5t135.5 -146.5t90 -186.5t32.5 -222q0 -89 -18.5 -172t-57.5 -155.5t-94.5 -126.5t-134 -85.5
t-171.5 -31.5q-97 0 -167 34t-101 97q-118 -92 -264 -92q-150 0 -232.5 99t-82.5 268q0 224 145.5 366.5t390.5 142.5q171 0 365 -69zM737 514q0 -190 148 -190q70 0 174 38l74 420q-70 17 -127 17q-117 0 -193 -82.5t-76 -202.5z" />
    <glyph glyph-name="A" unicode="A" horiz-adv-x="1366" 
d="M1057 0l-109 346h-532l-109 -346h-270l477 1434h338l477 -1434h-272zM483 563h398l-187 598h-24z" />
    <glyph glyph-name="B" unicode="B" horiz-adv-x="1294" 
d="M950 774q104 -27 172 -119t68 -239q0 -188 -117.5 -302t-343.5 -114h-579v1434h579q195 0 304.5 -91.5t109.5 -255.5q0 -68 -19.5 -125t-51.5 -93.5t-61.5 -58.5t-60.5 -36zM686 1214h-278v-360h297q190 0 190 188q0 87 -47.5 129.5t-161.5 42.5zM682 221
q76 0 128.5 17.5t78.5 49t36.5 66t10.5 78.5q0 215 -225 215h-303v-426h274z" />
    <glyph glyph-name="C" unicode="C" horiz-adv-x="1374" 
d="M997 891q-2 69 -18 129.5t-49.5 113t-93 83t-138.5 30.5q-84 0 -149.5 -47t-105.5 -127t-60.5 -179.5t-20.5 -211.5q0 -236 91 -356.5t249 -120.5q86 0 147 31t94 86t47.5 117.5t15.5 138.5h249q0 -131 -33.5 -241t-99 -193.5t-172.5 -130t-245 -46.5
q-274 0 -441.5 188.5t-167.5 512.5q0 120 22 233t70 216.5t118 181t172.5 123.5t226.5 46q133 0 238.5 -48.5t170 -130.5t98.5 -183.5t35 -214.5h-250z" />
    <glyph glyph-name="D" unicode="D" horiz-adv-x="1368" 
d="M610 1434q167 0 296.5 -59.5t207 -161.5t117 -230t39.5 -274q0 -117 -24 -221t-75.5 -194t-126.5 -155t-183.5 -102t-239.5 -37h-471v1434h460zM633 223q375 0 375 479q0 119 -22 209.5t-69.5 158t-127.5 102t-191 34.5h-190v-983h225z" />
    <glyph glyph-name="E" unicode="E" horiz-adv-x="1134" 
d="M995 1206h-587v-346h561v-225h-561v-404h587v-231h-845v1434h845v-228z" />
    <glyph glyph-name="F" unicode="F" horiz-adv-x="1114" 
d="M995 1206h-587v-364h559v-228h-559v-614h-258v1434h845v-228z" />
    <glyph glyph-name="G" unicode="G" horiz-adv-x="1396" 
d="M707 780h557v-272q0 -80 -20 -156t-63.5 -146.5t-106.5 -123t-155.5 -84t-203.5 -31.5q-286 0 -451.5 195.5t-165.5 521.5q0 111 20.5 218.5t68 211t117 181.5t175.5 125.5t236 47.5q118 0 215 -43.5t160.5 -117t102 -164.5t48.5 -193h-254q-15 131 -86.5 215t-195.5 84
q-91 0 -160 -48t-108 -130.5t-58 -178.5t-19 -204q0 -244 96 -365.5t267 -121.5q80 0 140 27t92.5 71.5t47.5 93.5t15 103v73h-311v211z" />
    <glyph glyph-name="H" unicode="H" horiz-adv-x="1445" 
d="M1038 1434h258v-1434h-258v655h-630v-655h-258v1434h258v-549h630v549z" />
    <glyph glyph-name="I" unicode="I" horiz-adv-x="567" 
d="M154 1434h258v-1434h-258v1434z" />
    <glyph glyph-name="J" unicode="J" horiz-adv-x="1374" 
d="M1221 1434v-873q0 -276 -147 -435t-404 -159q-146 0 -258 53t-179.5 145t-101 208.5t-31.5 251.5h252q-2 -114 30 -208.5t106.5 -157t181.5 -62.5q139 0 216 94.5t77 267.5v647h-420v228h678z" />
    <glyph glyph-name="K" unicode="K" horiz-adv-x="1331" 
d="M717 823l569 -823h-319l-414 606h-18l-127 -149v-457h-258v1434h258v-635h14l512 635h299z" />
    <glyph glyph-name="L" unicode="L" horiz-adv-x="1093" 
d="M408 231h575v-231h-833v1434h258v-1203z" />
    <glyph glyph-name="M" unicode="M" horiz-adv-x="1722" 
d="M1573 1434v-1434h-254v1047h-16l-359 -916h-170l-356 916h-15v-1047h-253v1434h323l385 -969h8l387 969h320z" />
    <glyph glyph-name="N" unicode="N" horiz-adv-x="1431" 
d="M1026 1434h256v-1434h-235l-627 1004h-14v-1004h-256v1434h268l592 -963h16v963z" />
    <glyph glyph-name="O" unicode="O" horiz-adv-x="1396" 
d="M96 670q0 121 26 237t77.5 217.5t122.5 178t168 121t208 44.5q110 0 207 -44.5t167.5 -121t122 -178t77.5 -217.5t26 -237q0 -165 -48 -300t-130.5 -222t-191 -134t-230.5 -47q-123 0 -231.5 47t-191.5 134t-131 222t-48 300zM362 676q0 -224 94.5 -350.5t241.5 -126.5
t240.5 126.5t93.5 350.5q0 153 -40.5 282.5t-118 209t-175.5 79.5q-99 0 -177 -79.5t-118.5 -209t-40.5 -282.5z" />
    <glyph glyph-name="P" unicode="P" horiz-adv-x="1232" 
d="M635 1434q130 0 228.5 -36.5t158.5 -102.5t89.5 -153t29.5 -194q0 -123 -38.5 -223t-105 -163.5t-154 -97.5t-188.5 -34h-247v-430h-258v1434h485zM635 649q119 0 185.5 75t66.5 224q0 63 -13.5 109t-45.5 82.5t-90.5 54.5t-143.5 18h-186v-563h227z" />
    <glyph glyph-name="Q" unicode="Q" horiz-adv-x="1406" 
d="M1311 -135l24 -123q-49 -29 -92.5 -44t-103.5 -15q-138 0 -234 76.5t-127 213.5q-41 -6 -80 -6q-123 0 -231.5 47t-191.5 134t-131 222t-48 300q0 121 26 237t77.5 217.5t122.5 178t168 121t208 44.5q110 0 207 -44.5t167.5 -121t122 -178t77.5 -217.5t26 -237
q0 -213 -76 -369t-208 -242q21 -204 207 -204q44 0 90 10zM362 676q0 -224 94.5 -350.5t241.5 -126.5t240.5 126.5t93.5 350.5q0 153 -40.5 282.5t-118 209t-175.5 79.5q-99 0 -177 -79.5t-118.5 -209t-40.5 -282.5z" />
    <glyph glyph-name="R" unicode="R" horiz-adv-x="1280" 
d="M1210 0h-284l-260 471h-258v-471h-258v1434h516q105 0 188.5 -26t138 -70t91 -105t52 -126t15.5 -138q0 -150 -65 -263.5t-177 -173.5zM408 1212v-522h245q115 0 179.5 64.5t64.5 199.5q0 58 -12 102t-40 80.5t-79.5 56t-124.5 19.5h-233z" />
    <glyph glyph-name="S" unicode="S" horiz-adv-x="1261" 
d="M365 492q-4 -147 72 -225.5t206 -78.5q115 0 187.5 63.5t72.5 158.5q0 51 -24.5 90t-66.5 64.5t-96.5 47t-114.5 41t-119.5 41t-114 53t-96.5 72t-66.5 102t-24.5 138.5q0 184 130 296.5t343 112.5q221 0 333.5 -117t107.5 -315h-244q8 226 -201 226q-97 0 -154 -40.5
t-57 -117.5q0 -49 25 -86t67 -61t97 -43t115 -37.5t120.5 -39.5t115.5 -54t97 -75.5t67 -109.5t25 -152q0 -211 -148.5 -344t-379.5 -133q-247 0 -390.5 142.5t-137.5 380.5h254z" />
    <glyph glyph-name="T" unicode="T" horiz-adv-x="1306" 
d="M1206 1434v-228h-430v-1206h-258v1206h-418v228h1106z" />
    <glyph glyph-name="U" unicode="U" horiz-adv-x="1427" 
d="M1280 1434v-916q0 -147 -45.5 -256t-126 -171.5t-179 -92t-216.5 -29.5q-117 0 -215.5 29.5t-179.5 92t-127 171.5t-46 256v916h258v-897q0 -172 81 -254t229 -82q309 0 309 336v897h258z" />
    <glyph glyph-name="V" unicode="V" horiz-adv-x="1323" 
d="M1032 1434h271l-480 -1434h-323l-480 1434h275l350 -1131h35z" />
    <glyph glyph-name="W" unicode="W" horiz-adv-x="2066" 
d="M1753 1434h268l-391 -1434h-311l-268 1042h-31l-268 -1042h-312l-393 1434h277l272 -1100h25l292 1100h248l293 -1100h27z" />
    <glyph glyph-name="X" unicode="X" horiz-adv-x="1296" 
d="M958 0l-296 539h-25l-301 -539h-291l444 741l-423 693h292l281 -492h20l285 492h287l-424 -693l444 -741h-293z" />
    <glyph glyph-name="Y" unicode="Y" horiz-adv-x="1249" 
d="M1229 1434l-475 -787v-647h-258v647l-476 787h287l314 -531h16l319 531h273z" />
    <glyph glyph-name="Z" unicode="Z" horiz-adv-x="1175" 
d="M1049 1434v-213l-639 -973v-17h669v-231h-983v209l641 981v16h-624v228h936z" />
    <glyph glyph-name="bracketleft" unicode="[" horiz-adv-x="747" 
d="M682 1358h-283v-1503h283v-164h-506v1831h506v-164z" />
    <glyph glyph-name="backslash" unicode="\" horiz-adv-x="759" 
d="M158 1638l639 -1941h-207l-641 1941h209z" />
    <glyph glyph-name="bracketright" unicode="]" horiz-adv-x="747" 
d="M571 1522v-1831h-505v164h284v1503h-284v164h505z" />
    <glyph glyph-name="asciicircum" unicode="^" 
d="M801 776l-183 410h-10l-184 -410h-199l312 658h155l312 -658h-203z" />
    <glyph glyph-name="underscore" unicode="_" horiz-adv-x="1214" 
d="M133 -109h948v-155h-948v155z" />
    <glyph glyph-name="grave" unicode="`" horiz-adv-x="1216" 
d="M653 1491l160 -262h-182l-228 262h250z" />
    <glyph glyph-name="a" unicode="a" horiz-adv-x="1189" 
d="M594 1145q247 0 355 -117t108 -344v-684h-191l-28 80q-65 -42 -163.5 -71t-195.5 -29q-166 0 -272.5 89t-106.5 261q0 164 103 255t303 91q143 0 305 -43v90q0 229 -219 229q-97 0 -154 -43t-61 -125h-227q6 168 123 264.5t321 96.5zM346 346q0 -88 53 -130t160 -42
q127 0 252 47v264q-154 27 -246 27q-110 0 -164.5 -38.5t-54.5 -127.5z" />
    <glyph glyph-name="b" unicode="b" horiz-adv-x="1202" 
d="M674 1139q107 0 195 -49.5t144 -132.5t86.5 -188.5t30.5 -221.5q0 -134 -40 -244t-107.5 -179.5t-152 -106.5t-175.5 -37q-162 0 -311 102l-39 -82h-172v1577h246v-545q141 107 295 107zM598 186q134 0 207.5 94t73.5 275q0 61 -9 115.5t-29.5 104t-52 85.5t-79 57
t-107.5 21q-118 0 -223 -78v-620q114 -54 219 -54z" />
    <glyph glyph-name="c" unicode="c" horiz-adv-x="1187" 
d="M860 709q-15 100 -80 166.5t-176 66.5q-137 0 -209.5 -113t-72.5 -292q0 -172 75 -266.5t213 -94.5q227 0 260 270h236q-7 -121 -48.5 -214t-109.5 -149.5t-154 -85t-186 -28.5q-232 0 -384 149.5t-152 409.5q0 98 21.5 188.5t66 168.5t106.5 136t148 91t186 33
q215 0 351 -125.5t141 -310.5h-232z" />
    <glyph glyph-name="d" unicode="d" horiz-adv-x="1202" 
d="M823 1577h246v-1577h-190l-33 90q-133 -110 -301 -110q-95 0 -179.5 37t-150.5 106t-104.5 178t-38.5 244q0 90 17 175t53.5 161.5t89 133.5t129.5 90.5t169 33.5q165 0 293 -99v537zM324 549q0 -179 73 -271t213 -92q103 0 213 47v646q-96 59 -209 59
q-82 0 -140.5 -31.5t-90 -88.5t-45.5 -122.5t-14 -146.5z" />
    <glyph glyph-name="e" unicode="e" horiz-adv-x="1200" 
d="M1110 569v-61h-788q4 -94 29 -161t67.5 -104t93 -54t113.5 -17q107 0 172 60t86 149h219q-17 -183 -152.5 -297.5t-328.5 -114.5q-108 0 -206 36t-175 103t-122.5 174t-45.5 238q0 122 33.5 232t97 199t167.5 141.5t234 52.5q85 0 160.5 -21.5t139 -67.5t109.5 -113
t71.5 -162.5t25.5 -211.5zM600 952q-111 0 -176 -72.5t-90 -195.5h524q-1 125 -72 196.5t-186 71.5z" />
    <glyph glyph-name="f" unicode="f" horiz-adv-x="749" 
d="M559 1386q-64 0 -88.5 -34.5t-24.5 -118.5v-115h248v-180h-248v-938h-245v938h-150v180h150v158q0 155 75.5 232t200.5 77q75 0 128.5 -16t127.5 -51l-24 -166q-93 34 -150 34z" />
    <glyph glyph-name="g" unicode="g" horiz-adv-x="1202" 
d="M879 1118h190v-1014q0 -108 -27.5 -194t-74.5 -142.5t-113 -93.5t-140 -53t-159 -16q-204 0 -391 88l55 190q174 -71 336 -71q134 0 201 68t67 220v15q-125 -78 -278 -78q-100 0 -185.5 33t-150 96.5t-101 164t-36.5 228.5q0 92 18.5 176.5t57 158.5t93 128.5t132 85.5
t168.5 31q154 0 309 -107zM623 231q103 0 200 39v611q-97 57 -209 57q-81 0 -139.5 -31t-90.5 -85.5t-46 -116.5t-14 -136q0 -175 76 -256.5t223 -81.5z" />
    <glyph glyph-name="h" unicode="h" horiz-adv-x="1234" 
d="M735 1135q98 0 170.5 -31.5t114 -87.5t61 -125t19.5 -152v-739h-246v659q0 134 -49 204.5t-166 70.5q-74 0 -143 -30.5t-117 -94.5v-809h-246v1577h246v-578q76 67 169 101.5t187 34.5z" />
    <glyph glyph-name="i" unicode="i" horiz-adv-x="524" 
d="M115 1411q0 69 40.5 122.5t106.5 53.5t107 -53.5t41 -122.5q0 -66 -42 -101.5t-106 -35.5q-62 0 -104.5 35.5t-42.5 101.5zM139 1118h246v-1118h-246v1118z" />
    <glyph glyph-name="j" unicode="j" horiz-adv-x="522" 
d="M113 1411q0 69 40.5 122.5t106.5 53.5t107 -53.5t41 -122.5q0 -66 -41.5 -101.5t-106.5 -35.5q-62 0 -104.5 35.5t-42.5 101.5zM137 1118h246v-1206q0 -161 -75.5 -235t-205.5 -74q-113 0 -211 59l29 152q86 -13 105 -13q64 0 88 33t24 119v1165z" />
    <glyph glyph-name="k" unicode="k" horiz-adv-x="1130" 
d="M651 668l443 -668h-289l-320 494h-14l-92 -101v-393h-246v1577h246v-899h16l389 440h271z" />
    <glyph glyph-name="l" unicode="l" horiz-adv-x="514" 
d="M133 1577h246v-1577h-246v1577z" />
    <glyph glyph-name="m" unicode="m" horiz-adv-x="1912" 
d="M1405 1135q102 0 177 -31.5t117 -88t61.5 -125t19.5 -151.5v-739h-246v657q0 135 -49.5 206t-165.5 71q-154 0 -242 -115v-819h-241v684q0 250 -215 250q-154 0 -242 -115v-819h-246v1118h221l15 -112q144 129 346 129q212 0 313 -152q73 78 172 115t205 37z" />
    <glyph glyph-name="n" unicode="n" horiz-adv-x="1234" 
d="M735 1135q98 0 170.5 -31.5t114 -87.5t61 -125t19.5 -152v-739h-246v657q0 137 -49 207t-166 70q-74 0 -143 -31.5t-117 -97.5v-805h-246v1118h221l15 -123q75 70 171 105t195 35z" />
    <glyph glyph-name="o" unicode="o" horiz-adv-x="1222" 
d="M72 520q0 97 23 188.5t69 170.5t109.5 138.5t150.5 93.5t186 34q123 0 226 -52t170.5 -139.5t105 -200t37.5 -235.5q0 -131 -42.5 -237t-116.5 -173t-171 -103t-209 -36t-209 36t-170.5 104t-116 174t-42.5 237zM324 524q0 -169 74.5 -256.5t211.5 -87.5t213 87.5
t76 256.5q0 179 -77 296.5t-212 117.5t-210.5 -118t-75.5 -296z" />
    <glyph glyph-name="p" unicode="p" horiz-adv-x="1202" 
d="M674 1139q108 0 196 -51t144 -136t86 -191.5t30 -221.5q0 -134 -40 -242t-107.5 -174.5t-151 -101.5t-174.5 -35q-145 0 -278 75v-423h-246v1480h191l34 -102q146 123 316 123zM598 182q135 0 208 89.5t73 269.5q0 62 -8.5 117t-29.5 106t-52 87.5t-79 58.5t-108 22
q-115 0 -223 -80v-614q112 -56 219 -56z" />
    <glyph glyph-name="q" unicode="q" horiz-adv-x="1202" 
d="M879 1118h190v-1480h-246v436q-128 -88 -280 -88q-96 0 -180.5 35.5t-150 102.5t-103 173t-37.5 238q0 90 17 176t54 164t89.5 136.5t129.5 93t168 34.5q95 0 178.5 -34t137.5 -81zM610 182q103 0 213 47v643q-101 60 -207 60q-67 0 -118.5 -21.5t-83.5 -58t-53 -88.5
t-29 -107t-8 -120q0 -355 286 -355z" />
    <glyph glyph-name="r" unicode="r" horiz-adv-x="806" 
d="M375 977q151 170 381 170l-27 -254q-23 2 -67 2q-103 0 -172 -30.5t-109 -110.5l-2 -754h-246v1118h225z" />
    <glyph glyph-name="s" unicode="s" horiz-adv-x="1077" 
d="M291 381q-3 -98 64.5 -156.5t174.5 -58.5q89 0 151 40t62 109q0 42 -27 72.5t-71.5 47.5t-101.5 34t-116 30.5t-116 38.5t-101.5 57t-71.5 87t-27 127q0 144 109.5 240t307.5 96q87 0 158 -18.5t129 -58t89.5 -109.5t29.5 -166h-221q1 81 -49 124.5t-140 43.5
q-80 0 -128 -32t-48 -93q0 -46 35.5 -78.5t92.5 -51.5t126 -36.5t138.5 -41t126.5 -57t92.5 -92.5t35.5 -139q0 -109 -64 -195t-169.5 -131t-231.5 -45q-66 0 -127.5 10.5t-127 39t-113 73t-77.5 119t-28 170.5h234z" />
    <glyph glyph-name="t" unicode="t" horiz-adv-x="788" 
d="M678 215l29 -168q-27 -23 -95 -46.5t-149 -23.5q-52 0 -94.5 12.5t-80 42t-58.5 85t-21 133.5v688h-158v180h158v285h246v-285h229v-180h-229v-645q0 -105 92 -105q40 0 131 27z" />
    <glyph glyph-name="u" unicode="u" horiz-adv-x="1226" 
d="M846 1118h246v-1118h-199l-31 111q-140 -140 -340 -140q-106 0 -185 33.5t-124 93.5t-66.5 135t-21.5 166v719h246v-655q0 -138 52 -212.5t177 -74.5q65 0 131.5 31.5t114.5 95.5v815z" />
    <glyph glyph-name="v" unicode="v" horiz-adv-x="1134" 
d="M850 1118h256l-418 -1118h-246l-415 1118h262l266 -842h25z" />
    <glyph glyph-name="w" unicode="w" horiz-adv-x="1622" 
d="M1329 1118h252l-315 -1118h-246l-201 766h-20l-199 -766h-244l-315 1118h254l184 -803h21l207 803h211l206 -803h19z" />
    <glyph glyph-name="x" unicode="x" horiz-adv-x="1091" 
d="M788 0l-233 401h-16l-236 -401h-268l366 580l-340 538h265l213 -364h16l221 364h256l-338 -538l363 -580h-269z" />
    <glyph glyph-name="y" unicode="y" horiz-adv-x="1153" 
d="M874 1118h250l-428 -1130q-64 -172 -162.5 -275.5t-214.5 -103.5q-117 0 -225 57l39 162q65 -16 137 -16q66 0 116 59t99 178l-458 1069h262l303 -794h18z" />
    <glyph glyph-name="z" unicode="z" horiz-adv-x="985" 
d="M385 182h508v-182h-801v156l494 768v12h-477v182h753v-164l-477 -759v-13z" />
    <glyph glyph-name="braceleft" unicode="{" horiz-adv-x="837" 
d="M772 1522v-168q-95 0 -136.5 -39t-41.5 -148v-299q0 -123 -63.5 -188.5t-153.5 -65.5v-16q90 0 153.5 -65.5t63.5 -188.5v-299q0 -109 41.5 -147.5t136.5 -38.5v-168q-60 0 -114.5 9.5t-106.5 33.5t-90 61t-61 95.5t-23 132.5v321q0 99 -47 138.5t-154 39.5v168
q107 0 154 39.5t47 138.5v322q0 87 32.5 153t89.5 104t125.5 56.5t147.5 18.5z" />
    <glyph glyph-name="bar" unicode="|" horiz-adv-x="1064" 
d="M430 1638h205v-1941h-205v1941z" />
    <glyph glyph-name="braceright" unicode="}" horiz-adv-x="837" 
d="M66 1522q79 0 147.5 -18.5t125.5 -56.5t89.5 -104t32.5 -153v-322q0 -99 47 -138.5t154 -39.5v-168q-107 0 -154 -39.5t-47 -138.5v-321q0 -74 -23 -132.5t-61 -95.5t-90 -61t-106.5 -33.5t-114.5 -9.5v168q95 0 136.5 38.5t41.5 147.5v299q0 123 63.5 188.5t153.5 65.5
v16q-90 0 -153.5 65.5t-63.5 188.5v299q0 109 -41.5 148t-136.5 39v168z" />
    <glyph glyph-name="asciitilde" unicode="~" 
d="M113 397q-9 159 71.5 264t218.5 105q57 0 109.5 -22t90.5 -54t73 -63.5t72 -53.5t73 -22q55 0 81.5 47t17.5 129h196q9 -159 -72 -264t-219 -105q-57 0 -109 22t-90.5 54t-73 63.5t-71.5 53.5t-73 22q-55 0 -81.5 -47t-17.5 -129h-196z" />
    <glyph glyph-name="exclamdown" unicode="&#xa1;" horiz-adv-x="659" 
d="M174 979q0 75 44.5 117.5t111.5 42.5q69 0 112 -42t43 -118q0 -72 -41.5 -124t-113.5 -52t-114 52t-42 124zM199 -354l34 964h203l35 -964h-272z" />
    <glyph glyph-name="cent" unicode="&#xa2;" horiz-adv-x="1169" 
d="M1059 356q-42 -68 -129 -117.5t-197 -64.5l15 -174h-226l15 178q-87 15 -161.5 54t-133.5 100t-93 151t-34 199q0 136 50.5 254.5t148 200.5t225.5 106l-17 191h226l-17 -187q104 -18 185.5 -69.5t132.5 -126.5l-158 -117q-89 129 -240 129q-138 0 -214.5 -98.5
t-76.5 -266.5q0 -91 23.5 -157.5t65.5 -104.5t93.5 -56t114.5 -18q164 0 250 121z" />
    <glyph glyph-name="sterling" unicode="&#xa3;" horiz-adv-x="1234" 
d="M963 391l221 -61q-19 -54 -45.5 -102.5t-68 -95.5t-91.5 -81t-119.5 -54.5t-148.5 -19.5q-103 0 -184 27.5t-169 79.5q-61 -48 -125 -84h-88l-22 174q36 15 66.5 36.5t60.5 55.5t47.5 85t17.5 114q0 67 -24 168h-176l8 155h129q-31 143 -31 222q0 185 124.5 307.5
t336.5 122.5q270 0 410 -189l-170 -137q-105 117 -242 117q-103 0 -161 -57t-58 -156q0 -69 43 -230h342l-8 -155h-297q16 -82 16 -156q0 -135 -63 -239q109 -50 200 -50q103 0 167 51t102 152z" />
    <glyph glyph-name="currency" unicode="&#xa4;" horiz-adv-x="1249" 
d="M1032 655q0 -118 -65 -223l153 -133l-139 -141l-135 155q-100 -65 -221 -65q-119 0 -224 65l-135 -155l-139 141l156 133q-66 106 -66 223q0 121 66 222l-156 135l139 141l137 -156q101 66 222 66q120 0 221 -66l135 156l139 -141l-153 -135q65 -100 65 -222zM625 434
q94 0 154.5 64.5t60.5 156.5t-60.5 157t-154.5 65q-96 0 -155.5 -65t-59.5 -157t59.5 -156.5t155.5 -64.5z" />
    <glyph glyph-name="yen" unicode="&#xa5;" horiz-adv-x="1306" 
d="M1257 1434l-393 -650h176v-145h-258v-152h258v-143h-258v-344h-258v344h-256v143h256v152h-256v145h174l-393 650h275l325 -572h17l331 572h260z" />
    <glyph glyph-name="brokenbar" unicode="&#xa6;" horiz-adv-x="1064" 
d="M430 872v766h205v-766h-205zM635 463v-766h-205v766h205z" />
    <glyph glyph-name="section" unicode="&#xa7;" horiz-adv-x="1234" 
d="M987 1391l-102 -164q-68 47 -140 47q-56 0 -101.5 -33.5t-45.5 -101.5q0 -50 29 -100t75 -94t102 -91t112 -101t102 -112.5t75 -136.5t29 -164q0 -135 -50 -255.5t-133 -205t-194.5 -133.5t-230.5 -49q-86 0 -177 26.5t-147 77.5l86 162q101 -74 197 -74q67 0 106 34.5
t39 96.5q0 50 -28 99t-72.5 93t-98 90t-107.5 99t-98.5 110.5t-72.5 133.5t-28 160q0 136 50.5 257.5t135 207.5t198 136t236.5 50q67 0 138 -15.5t116 -49.5zM451 1219q-144 -127 -144 -357q0 -76 28.5 -147t73.5 -127t100 -109t110 -102.5t100 -97t73.5 -102.5t28.5 -111
q0 -65 -49 -127l6 -5q81 73 112.5 159t31.5 192q0 78 -28.5 150.5t-74 129t-100.5 110t-110 102.5t-100.5 96t-74 100.5t-28.5 107.5q0 71 49 133z" />
    <glyph glyph-name="dieresis" unicode="&#xa8;" horiz-adv-x="1216" 
d="M393 1227q-48 0 -82.5 33.5t-34.5 82.5q0 47 35 81t82 34t82 -34t35 -81q0 -49 -34.5 -82.5t-82.5 -33.5zM823 1227q-48 0 -82 33.5t-34 82.5q0 47 34.5 81t81.5 34t82 -34t35 -81q0 -49 -34.5 -82.5t-82.5 -33.5z" />
    <glyph glyph-name="copyright" unicode="&#xa9;" horiz-adv-x="1658" 
d="M829 -27q-153 0 -291 59t-237.5 158.5t-158 237t-58.5 289.5t59 290t158.5 237t237.5 157.5t290 58.5t290 -58.5t238 -158t159 -237t59 -289.5q0 -203 -100 -374.5t-271.5 -270.5t-374.5 -99zM829 57q183 0 334 89t236.5 240.5t85.5 330.5q0 181 -86.5 332.5t-237.5 239
t-332 87.5q-135 0 -256 -51.5t-208.5 -139.5t-139 -210t-51.5 -258q0 -180 85 -331.5t236 -240t334 -88.5zM1225 649q-9 -188 -112 -282.5t-273 -94.5q-116 0 -208.5 48t-149 146.5t-56.5 233.5q0 122 47.5 227t144 172.5t222.5 67.5q164 0 270 -96t111 -248h-193
q-11 75 -59.5 118.5t-126.5 43.5q-92 0 -142.5 -76t-50.5 -196q0 -252 201 -252q76 0 122.5 42.5t59.5 145.5h193z" />
    <glyph glyph-name="ordfeminine" unicode="&#xaa;" horiz-adv-x="897" 
d="M473 1444q169 0 251.5 -86.5t82.5 -265.5v-519h-154l-18 58q-104 -72 -244 -72q-128 0 -214.5 69t-86.5 201q0 128 83.5 195.5t234.5 67.5q103 0 206 -35v53q0 98 -33.5 135t-121.5 37q-80 0 -119.5 -29t-38.5 -104h-168q-4 144 84.5 219.5t255.5 75.5zM285 838
q0 -119 164 -119q84 0 165 33v186q-82 20 -163 20q-166 0 -166 -120zM156 410h610v-150h-610v150z" />
    <glyph glyph-name="guillemotleft" unicode="&#xab;" horiz-adv-x="1378" 
d="M426 1022h256l-328 -416l328 -422h-256l-350 422zM985 1022h258l-328 -416l328 -422h-258l-348 422z" />
    <glyph glyph-name="logicalnot" unicode="&#xac;" 
d="M219 678h791v-475h-176v307h-615v168z" />
    <glyph glyph-name="uni00AD" unicode="&#xad;" horiz-adv-x="727" 
d="M106 664h515v-185h-515v185z" />
    <glyph glyph-name="registered" unicode="&#xae;" horiz-adv-x="1134" 
d="M567 592q-214 0 -348.5 134.5t-134.5 336.5q0 203 135 338t348 135t348.5 -135t135.5 -338t-135.5 -337t-348.5 -134zM567 659q186 0 297 116t111 288q0 174 -112 289.5t-296 115.5q-182 0 -294.5 -114.5t-112.5 -290.5q0 -173 111 -288.5t296 -115.5zM686 784l-104 174
h-105v-174h-108v576h213q92 0 147 -51.5t55 -139.5q0 -62 -25.5 -109t-68.5 -73l123 -203h-127zM477 1257v-196h96q91 0 91 100q0 96 -97 96h-90z" />
    <glyph glyph-name="macron" unicode="&#xaf;" horiz-adv-x="1216" 
d="M354 1397h508v-127h-508v127z" />
    <glyph glyph-name="degree" unicode="&#xb0;" horiz-adv-x="864" 
d="M432 797q-166 0 -270.5 104t-104.5 260q0 158 105 261.5t270 103.5t270 -103.5t105 -261.5q0 -157 -105.5 -260.5t-269.5 -103.5zM432 971q86 0 134 55t48 135q0 82 -48.5 137.5t-133.5 55.5t-133.5 -55t-48.5 -138q0 -80 48 -135t134 -55z" />
    <glyph glyph-name="plusminus" unicode="&#xb1;" 
d="M702 764h310v-168h-310v-307h-176v307h-309v168h309v307h176v-307zM217 0v170h795v-170h-795z" />
    <glyph glyph-name="twosuperior" unicode="&#xb2;" horiz-adv-x="841" 
d="M287 1362h-150q-7 79 23 152.5t101.5 124.5t168.5 51q123 0 197.5 -77.5t74.5 -203.5q0 -100 -39.5 -172t-123.5 -154l-142 -151v-12h312v-142h-564l-6 107l260 266q71 71 102 126t31 122q0 71 -30 111t-84 40q-62 0 -98 -50t-33 -138z" />
    <glyph glyph-name="threesuperior" unicode="&#xb3;" horiz-adv-x="843" 
d="M596 1260q123 -60 123 -207q0 -124 -82.5 -204.5t-210.5 -80.5q-137 0 -220 91.5t-77 234.5h158q3 -181 141 -181q117 0 117 131q0 65 -34 103.5t-95 38.5h-82v125h78q58 0 87 33t29 92q0 56 -28 86t-80 30q-63 0 -97 -44t-34 -126h-150q-7 136 73 222t210 86
q117 0 194.5 -68t77.5 -172q0 -65 -28.5 -111t-69.5 -69v-10z" />
    <glyph glyph-name="acute" unicode="&#xb4;" horiz-adv-x="1216" 
d="M563 1491h250l-227 -262h-183z" />
    <glyph glyph-name="mu" unicode="&#xb5;" horiz-adv-x="1226" 
d="M1092 305q0 -127 135 -127v-180q-140 2 -223 33.5t-121 99.5q-69 -80 -159 -120t-185 -40q-91 0 -170 37v-370h-244v1480h246v-655q0 -138 52 -212.5t177 -74.5q65 0 131.5 31.5t114.5 95.5v815h246v-813z" />
    <glyph glyph-name="paragraph" unicode="&#xb6;" horiz-adv-x="1372" 
d="M96 983q0 209 145.5 342t372.5 133q112 0 232 -24v-1737h-211v817q-16 -2 -53 -2q-100 0 -187.5 30t-154.5 87t-105.5 148t-38.5 206zM1012 1434h213v-1737h-213v1737zM614 696h21v572h-33q-125 0 -198.5 -71.5t-73.5 -192.5q0 -148 80.5 -228t203.5 -80z" />
    <glyph glyph-name="periodcentered" unicode="&#xb7;" horiz-adv-x="659" 
d="M174 664q0 72 42 124t114 52t113.5 -52t41.5 -124q0 -76 -43 -118t-112 -42q-67 0 -111.5 42.5t-44.5 117.5z" />
    <glyph glyph-name="cedilla" unicode="&#xb8;" horiz-adv-x="1222" 
d="M625 -109q186 0 186 -135q0 -87 -72 -136.5t-178 -49.5q-77 0 -141 22v72q50 -8 106 -8q45 0 76 20.5t31 53.5q0 71 -113 71h-24l49 90h80z" />
    <glyph glyph-name="onesuperior" unicode="&#xb9;" horiz-adv-x="843" 
d="M162 1505l250 174h143v-901h-172v701h-10l-152 -111z" />
    <glyph glyph-name="ordmasculine" unicode="&#xba;" horiz-adv-x="997" 
d="M90 979q0 124 47.5 231t142.5 175.5t218 68.5t218 -68t143 -175.5t48 -233.5q0 -195 -114.5 -307.5t-294.5 -112.5q-178 0 -293 113.5t-115 308.5zM289 981q0 -123 53 -186.5t156 -63.5q104 0 157.5 64t53.5 186q0 132 -55.5 217.5t-155.5 85.5t-154.5 -86t-54.5 -217z
M193 410h610v-150h-610v150z" />
    <glyph glyph-name="guillemotright" unicode="&#xbb;" horiz-adv-x="1378" 
d="M393 1022l350 -416l-350 -422h-256l328 422l-328 416h256zM954 1022l349 -416l-349 -422h-258l328 422l-328 416h258z" />
    <glyph glyph-name="onequarter" unicode="&#xbc;" horiz-adv-x="1853" 
d="M555 588h-172v700h-10l-152 -110l-59 137l250 174h143v-901zM1327 1466h168l-934 -1499h-168zM1761 319v-143h-110v-203h-164v203h-383v115l348 583h199v-555h110zM1292 319h195v336h-12l-183 -321v-15z" />
    <glyph glyph-name="onehalf" unicode="&#xbd;" horiz-adv-x="1933" 
d="M162 1315l250 174h143v-901h-172v700h-10l-152 -110zM1327 1466h168l-934 -1499h-168zM1378 557h-149q-7 79 23 152.5t101.5 124.5t168.5 51q123 0 197.5 -77.5t74.5 -203.5q0 -100 -40 -171t-124 -154l-141 -152v-12h311v-142h-563l-6 107l260 266q71 71 102 126t31 122
q0 71 -30.5 111t-84.5 40q-62 0 -98 -50t-33 -138z" />
    <glyph glyph-name="threequarters" unicode="&#xbe;" horiz-adv-x="1914" 
d="M719 862q0 -124 -82.5 -204t-210.5 -80q-138 0 -220.5 91t-76.5 234h158q3 -180 141 -180q117 0 117 131q0 65 -34 103t-95 38h-82v125h78q58 0 87 33t29 92q0 57 -28.5 87t-79.5 30q-63 0 -97 -44t-34 -126h-150q-7 135 73 221t210 86q117 0 194.5 -67.5t77.5 -171.5
q0 -65 -28.5 -111.5t-69.5 -69.5v-10q123 -60 123 -207zM1389 1466h167l-933 -1499h-168zM1823 319v-143h-111v-203h-164v203h-383v115l348 583h199v-555h111zM1354 319h194v336h-12l-182 -321v-15z" />
    <glyph glyph-name="questiondown" unicode="&#xbf;" horiz-adv-x="1126" 
d="M756 983q0 -68 -42 -117t-114 -49q-71 0 -113.5 49t-42.5 117q0 71 44 111.5t112 40.5t112 -40.5t44 -111.5zM496 614h231v-45q0 -73 -19 -130t-50 -93t-68 -65t-74 -54t-68 -51.5t-50 -65t-19 -87.5q0 -95 57 -143t146 -48q42 0 77.5 11.5t68.5 38.5t49.5 82t10.5 132
h222q9 -112 -23 -202.5t-94.5 -148.5t-145.5 -89t-178 -31q-63 0 -124.5 13.5t-119.5 44t-101.5 74t-70 108.5t-26.5 143q0 70 20.5 124.5t53 89t71.5 63t78.5 54t72 53.5t53 70.5t20.5 96.5v55z" />
    <glyph glyph-name="Agrave" unicode="&#xc0;" horiz-adv-x="1366" 
d="M887 1544h-182l-228 262h250zM1057 0l-109 346h-532l-109 -346h-270l477 1434h338l477 -1434h-272zM483 563h398l-187 598h-24z" />
    <glyph glyph-name="Aacute" unicode="&#xc1;" horiz-adv-x="1366" 
d="M887 1806l-228 -262h-182l160 262h250zM1057 0l-109 346h-532l-109 -346h-270l477 1434h338l477 -1434h-272zM483 563h398l-187 598h-24z" />
    <glyph glyph-name="Acircumflex" unicode="&#xc2;" horiz-adv-x="1366" 
d="M672 1688l-129 -144h-189l254 268h148l254 -268h-189l-129 144h-20zM1057 0l-109 346h-532l-109 -346h-270l477 1434h338l477 -1434h-272zM483 563h398l-187 598h-24z" />
    <glyph glyph-name="Atilde" unicode="&#xc3;" horiz-adv-x="1366" 
d="M494 1563h-132q-18 112 38 183t155 71q45 0 85 -19.5t63.5 -43t53 -43t56.5 -19.5q36 0 53 27.5t4 84.5h131q18 -112 -37 -183t-153 -71q-46 0 -86 19.5t-63.5 43t-51.5 43t-53 19.5q-38 0 -57 -29t-6 -83zM1057 0l-109 346h-532l-109 -346h-270l477 1434h338l477 -1434
h-272zM483 563h398l-187 598h-24z" />
    <glyph glyph-name="Adieresis" unicode="&#xc4;" horiz-adv-x="1366" 
d="M467 1542q-48 0 -82.5 34t-34.5 83q0 47 35 81t82 34t82 -34t35 -81q0 -49 -34.5 -83t-82.5 -34zM897 1542q-48 0 -82.5 34t-34.5 83q0 47 35 81t82 34t82 -34t35 -81q0 -49 -34.5 -83t-82.5 -34zM1057 0l-109 346h-532l-109 -346h-270l477 1434h338l477 -1434h-272z
M483 563h398l-187 598h-24z" />
    <glyph glyph-name="Aring" unicode="&#xc5;" horiz-adv-x="1370" 
d="M1057 0l-109 346h-532l-109 -346h-270l461 1382q-74 67 -74 177q0 112 75.5 182.5t182.5 70.5q109 0 184.5 -70t75.5 -183q0 -112 -74 -177l461 -1382h-272zM682 1698q-56 0 -93.5 -37t-37.5 -98q0 -59 36 -93t95 -34t95 34t36 93q0 61 -37.5 98t-93.5 37zM483 563h398
l-187 598h-24z" />
    <glyph glyph-name="AE" unicode="&#xc6;" horiz-adv-x="1777" 
d="M1638 1206h-710l114 -346h570v-225l-494 -4l133 -400h387v-231h-581l-109 346h-532l-109 -346h-270l477 1434h1124v-228zM483 563h398l-187 598h-24z" />
    <glyph glyph-name="Ccedilla" unicode="&#xc7;" horiz-adv-x="1374" 
d="M997 891q-2 69 -18 129.5t-49.5 113t-93 83t-138.5 30.5q-84 0 -149.5 -47t-105.5 -127t-60.5 -179.5t-20.5 -211.5q0 -236 91 -356.5t249 -120.5q86 0 147 31t94 86t47.5 117.5t15.5 138.5h249q0 -131 -33.5 -241t-99 -193.5t-172.5 -130t-245 -46.5
q-274 0 -441.5 188.5t-167.5 512.5q0 120 22 233t70 216.5t118 181t172.5 123.5t226.5 46q133 0 238.5 -48.5t170 -130.5t98.5 -183.5t35 -214.5h-250zM700 -109q187 0 187 -135q0 -87 -72 -136.5t-178 -49.5q-77 0 -141 22v72q50 -8 106 -8q45 0 76 20.5t31 53.5
q0 71 -113 71h-25l50 90h79z" />
    <glyph glyph-name="Egrave" unicode="&#xc8;" horiz-adv-x="1134" 
d="M772 1544h-182l-228 262h250zM995 1206h-587v-346h561v-225h-561v-404h587v-231h-845v1434h845v-228z" />
    <glyph glyph-name="Eacute" unicode="&#xc9;" horiz-adv-x="1134" 
d="M772 1806l-227 -262h-183l160 262h250zM995 1206h-587v-346h561v-225h-561v-404h587v-231h-845v1434h845v-228z" />
    <glyph glyph-name="Ecircumflex" unicode="&#xca;" horiz-adv-x="1134" 
d="M557 1688l-129 -144h-188l254 268h147l254 -268h-188l-129 144h-21zM995 1206h-587v-346h561v-225h-561v-404h587v-231h-845v1434h845v-228z" />
    <glyph glyph-name="Edieresis" unicode="&#xcb;" horiz-adv-x="1134" 
d="M352 1542q-48 0 -82 34t-34 83q0 47 34.5 81t81.5 34t82 -34t35 -81q0 -49 -34.5 -83t-82.5 -34zM782 1542q-48 0 -82 34t-34 83q0 47 34.5 81t81.5 34t82 -34t35 -81q0 -49 -34.5 -83t-82.5 -34zM995 1206h-587v-346h561v-225h-561v-404h587v-231h-845v1434h845v-228z
" />
    <glyph glyph-name="Igrave" unicode="&#xcc;" horiz-adv-x="567" 
d="M383 1815l51 -263h-153l-148 263h250zM154 1434h258v-1434h-258v1434z" />
    <glyph glyph-name="Iacute" unicode="&#xcd;" horiz-adv-x="567" 
d="M184 1815h250l-147 -263h-154zM154 1434h258v-1434h-258v1434z" />
    <glyph glyph-name="Icircumflex" unicode="&#xce;" horiz-adv-x="567" 
d="M51 1546l160 269h145l160 -269h-141l-82 152h-21l-79 -152h-142zM154 1434h258v-1434h-258v1434z" />
    <glyph glyph-name="Idieresis" unicode="&#xcf;" horiz-adv-x="567" 
d="M133 1542q-49 0 -83 34t-34 83q0 48 34 81.5t83 33.5q47 0 81 -34t34 -81q0 -49 -33.5 -83t-81.5 -34zM434 1542q-48 0 -82.5 34t-34.5 83q0 47 35 81t82 34t82 -34t35 -81q0 -49 -34.5 -83t-82.5 -34zM154 1434h258v-1434h-258v1434z" />
    <glyph glyph-name="Eth" unicode="&#xd0;" horiz-adv-x="1382" 
d="M625 1434q134 0 245 -39t186.5 -107t127.5 -160.5t76 -197.5t24 -221q0 -117 -24 -221t-75.5 -194t-126.5 -155t-183.5 -102t-239.5 -37h-471v608h-113v185h113v641h461zM647 223q375 0 375 479q0 119 -22 209.5t-69.5 158t-127.5 102t-191 34.5h-190v-413h287v-185h-287
v-385h225z" />
    <glyph glyph-name="Ntilde" unicode="&#xd1;" horiz-adv-x="1431" 
d="M526 1563h-131q-18 112 38 183t155 71q45 0 85 -19.5t63.5 -43t53 -43t56.5 -19.5q36 0 53 27.5t4 84.5h131q18 -112 -37 -183t-153 -71q-46 0 -86 19.5t-63.5 43t-51.5 43t-53 19.5q-38 0 -57.5 -29t-6.5 -83zM1026 1434h256v-1434h-235l-627 1004h-14v-1004h-256v1434
h268l592 -963h16v963z" />
    <glyph glyph-name="Ograve" unicode="&#xd2;" horiz-adv-x="1396" 
d="M743 1806l160 -262h-182l-227 262h249zM96 670q0 121 26 237t77.5 217.5t122.5 178t168 121t208 44.5q110 0 207 -44.5t167.5 -121t122 -178t77.5 -217.5t26 -237q0 -165 -48 -300t-130.5 -222t-191 -134t-230.5 -47q-123 0 -231.5 47t-191.5 134t-131 222t-48 300z
M362 676q0 -224 94.5 -350.5t241.5 -126.5t240.5 126.5t93.5 350.5q0 153 -40.5 282.5t-118 209t-175.5 79.5q-99 0 -177 -79.5t-118.5 -209t-40.5 -282.5z" />
    <glyph glyph-name="Oacute" unicode="&#xd3;" horiz-adv-x="1396" 
d="M653 1806h250l-227 -262h-182zM96 670q0 121 26 237t77.5 217.5t122.5 178t168 121t208 44.5q110 0 207 -44.5t167.5 -121t122 -178t77.5 -217.5t26 -237q0 -165 -48 -300t-130.5 -222t-191 -134t-230.5 -47q-123 0 -231.5 47t-191.5 134t-131 222t-48 300zM362 676
q0 -224 94.5 -350.5t241.5 -126.5t240.5 126.5t93.5 350.5q0 153 -40.5 282.5t-118 209t-175.5 79.5q-99 0 -177 -79.5t-118.5 -209t-40.5 -282.5z" />
    <glyph glyph-name="Ocircumflex" unicode="&#xd4;" horiz-adv-x="1396" 
d="M371 1544l254 268h147l254 -268h-188l-129 144h-21l-129 -144h-188zM96 670q0 121 26 237t77.5 217.5t122.5 178t168 121t208 44.5q110 0 207 -44.5t167.5 -121t122 -178t77.5 -217.5t26 -237q0 -165 -48 -300t-130.5 -222t-191 -134t-230.5 -47q-123 0 -231.5 47
t-191.5 134t-131 222t-48 300zM362 676q0 -224 94.5 -350.5t241.5 -126.5t240.5 126.5t93.5 350.5q0 153 -40.5 282.5t-118 209t-175.5 79.5q-99 0 -177 -79.5t-118.5 -209t-40.5 -282.5z" />
    <glyph glyph-name="Otilde" unicode="&#xd5;" horiz-adv-x="1396" 
d="M1018 1804q18 -112 -37 -183t-154 -71q-46 0 -86 19.5t-63.5 43t-51.5 43t-53 19.5q-38 0 -57 -29t-6 -83h-131q-18 112 37.5 183t154.5 71q45 0 85 -19.5t63.5 -43t53 -43t56.5 -19.5q37 0 54 27.5t4 84.5h131zM96 670q0 121 26 237t77.5 217.5t122.5 178t168 121
t208 44.5q110 0 207 -44.5t167.5 -121t122 -178t77.5 -217.5t26 -237q0 -165 -48 -300t-130.5 -222t-191 -134t-230.5 -47q-123 0 -231.5 47t-191.5 134t-131 222t-48 300zM362 676q0 -224 94.5 -350.5t241.5 -126.5t240.5 126.5t93.5 350.5q0 153 -40.5 282.5t-118 209
t-175.5 79.5q-99 0 -177 -79.5t-118.5 -209t-40.5 -282.5z" />
    <glyph glyph-name="Odieresis" unicode="&#xd6;" horiz-adv-x="1396" 
d="M483 1542q-48 0 -82 34t-34 83q0 47 34.5 81t81.5 34t82 -34t35 -81q0 -49 -34.5 -83t-82.5 -34zM913 1542q-48 0 -82 34t-34 83q0 47 34.5 81t81.5 34t82 -34t35 -81q0 -49 -34.5 -83t-82.5 -34zM96 670q0 121 26 237t77.5 217.5t122.5 178t168 121t208 44.5
q110 0 207 -44.5t167.5 -121t122 -178t77.5 -217.5t26 -237q0 -165 -48 -300t-130.5 -222t-191 -134t-230.5 -47q-123 0 -231.5 47t-191.5 134t-131 222t-48 300zM362 676q0 -224 94.5 -350.5t241.5 -126.5t240.5 126.5t93.5 350.5q0 153 -40.5 282.5t-118 209t-175.5 79.5
q-99 0 -177 -79.5t-118.5 -209t-40.5 -282.5z" />
    <glyph glyph-name="multiply" unicode="&#xd7;" 
d="M956 815l-221 -221l221 -221l-120 -121l-222 221l-221 -221l-121 121l222 221l-222 221l121 121l221 -221l222 221z" />
    <glyph glyph-name="Oslash" unicode="&#xd8;" horiz-adv-x="1396" 
d="M1100 1272q95 -114 146.5 -272.5t51.5 -329.5q0 -165 -48 -300t-130.5 -222t-191 -134t-230.5 -47q-166 0 -303 84l-49 -86l-123 70l62 104q-89 92 -139 227.5t-50 303.5q0 121 26 237t77.5 217.5t122.5 178t168 121t208 44.5q160 0 297 -96l56 96l123 -69zM362 676
q0 -174 62 -295l453 784q-79 82 -179 82q-99 0 -177 -79.5t-118.5 -209t-40.5 -282.5zM698 199q147 0 240.5 126.5t93.5 350.5q0 205 -69 358l-447 -772q78 -63 182 -63z" />
    <glyph glyph-name="Ugrave" unicode="&#xd9;" horiz-adv-x="1427" 
d="M758 1806l160 -262h-183l-227 262h250zM1280 1434v-916q0 -147 -45.5 -256t-126 -171.5t-179 -92t-216.5 -29.5q-117 0 -215.5 29.5t-179.5 92t-127 171.5t-46 256v916h258v-897q0 -172 81 -254t229 -82q309 0 309 336v897h258z" />
    <glyph glyph-name="Uacute" unicode="&#xda;" horiz-adv-x="1427" 
d="M668 1806h250l-228 -262h-182zM1280 1434v-916q0 -147 -45.5 -256t-126 -171.5t-179 -92t-216.5 -29.5q-117 0 -215.5 29.5t-179.5 92t-127 171.5t-46 256v916h258v-897q0 -172 81 -254t229 -82q309 0 309 336v897h258z" />
    <glyph glyph-name="Ucircumflex" unicode="&#xdb;" horiz-adv-x="1427" 
d="M385 1544l254 268h147l254 -268h-188l-129 144h-21l-129 -144h-188zM1280 1434v-916q0 -147 -45.5 -256t-126 -171.5t-179 -92t-216.5 -29.5q-117 0 -215.5 29.5t-179.5 92t-127 171.5t-46 256v916h258v-897q0 -172 81 -254t229 -82q309 0 309 336v897h258z" />
    <glyph glyph-name="Udieresis" unicode="&#xdc;" horiz-adv-x="1427" 
d="M498 1542q-48 0 -82.5 34t-34.5 83q0 47 35 81t82 34t81.5 -34t34.5 -81q0 -49 -34 -83t-82 -34zM928 1542q-48 0 -82.5 34t-34.5 83q0 47 35 81t82 34t81.5 -34t34.5 -81q0 -49 -34 -83t-82 -34zM1280 1434v-916q0 -147 -45.5 -256t-126 -171.5t-179 -92t-216.5 -29.5
q-117 0 -215.5 29.5t-179.5 92t-127 171.5t-46 256v916h258v-897q0 -172 81 -254t229 -82q309 0 309 336v897h258z" />
    <glyph glyph-name="Yacute" unicode="&#xdd;" horiz-adv-x="1249" 
d="M829 1806l-227 -262h-182l160 262h249zM1229 1434l-475 -787v-647h-258v647l-476 787h287l314 -531h16l319 531h273z" />
    <glyph glyph-name="Thorn" unicode="&#xde;" horiz-adv-x="1245" 
d="M641 1239q131 0 229.5 -36t158 -102t89 -153t29.5 -194q0 -123 -38 -223t-104.5 -163.5t-153.5 -97.5t-187 -34h-256v-236h-258v1434h258v-195h233zM641 455q119 0 185.5 75t66.5 224q0 63 -13.5 109t-45 82.5t-89.5 54.5t-143 18h-194v-563h233z" />
    <glyph glyph-name="germandbls" unicode="&#xdf;" horiz-adv-x="1193" 
d="M815 791q130 -70 213.5 -186.5t83.5 -250.5q0 -75 -28.5 -143t-82 -122t-140.5 -86t-195 -32q-90 0 -191 35l37 182q73 -24 143 -24q93 0 150 56t57 151q0 206 -268 313v178q45 16 78 33.5t67 45.5t52 69.5t18 93.5q0 158 -172 158q-34 0 -65 -5.5t-67 -24.5t-62.5 -49.5
t-44 -85.5t-17.5 -128v-1164h-248v1164q0 109 31 196.5t81.5 142t118 91t136 51t141.5 14.5q172 0 289 -85.5t117 -239.5q0 -111 -63 -198.5t-169 -139.5v-10z" />
    <glyph glyph-name="agrave" unicode="&#xe0;" horiz-adv-x="1193" 
d="M782 1229h-182l-229 262h250zM594 1145q247 0 355 -117t108 -344v-684h-191l-28 80q-65 -42 -163.5 -71t-195.5 -29q-166 0 -272.5 89t-106.5 261q0 164 103 255t303 91q143 0 305 -43v90q0 229 -219 229q-97 0 -154 -43t-61 -125h-227q6 168 123 264.5t321 96.5z
M346 346q0 -88 53 -130t160 -42q127 0 252 47v264q-154 27 -246 27q-110 0 -164.5 -38.5t-54.5 -127.5z" />
    <glyph glyph-name="aacute" unicode="&#xe1;" horiz-adv-x="1193" 
d="M782 1491l-229 -262h-182l161 262h250zM594 1145q247 0 355 -117t108 -344v-684h-191l-28 80q-65 -42 -163.5 -71t-195.5 -29q-166 0 -272.5 89t-106.5 261q0 164 103 255t303 91q143 0 305 -43v90q0 229 -219 229q-97 0 -154 -43t-61 -125h-227q6 168 123 264.5
t321 96.5zM346 346q0 -88 53 -130t160 -42q127 0 252 47v264q-154 27 -246 27q-110 0 -164.5 -38.5t-54.5 -127.5z" />
    <glyph glyph-name="acircumflex" unicode="&#xe2;" horiz-adv-x="1193" 
d="M567 1372l-129 -143h-188l254 268h145l254 -268h-188l-127 143h-21zM594 1145q247 0 355 -117t108 -344v-684h-191l-28 80q-65 -42 -163.5 -71t-195.5 -29q-166 0 -272.5 89t-106.5 261q0 164 103 255t303 91q143 0 305 -43v90q0 229 -219 229q-97 0 -154 -43t-61 -125
h-227q6 168 123 264.5t321 96.5zM346 346q0 -88 53 -130t160 -42q127 0 252 47v264q-154 27 -246 27q-110 0 -164.5 -38.5t-54.5 -127.5z" />
    <glyph glyph-name="atilde" unicode="&#xe3;" horiz-adv-x="1193" 
d="M387 1247h-129q-18 112 37 183t154 71q46 0 86 -19.5t64 -43t53 -43t55 -19.5q37 0 53.5 28t5.5 85h129q18 -112 -37 -183t-153 -71q-45 0 -84.5 19.5t-63 43t-51.5 43t-53 19.5q-39 0 -58 -29t-8 -84zM594 1145q247 0 355 -117t108 -344v-684h-191l-28 80
q-65 -42 -163.5 -71t-195.5 -29q-166 0 -272.5 89t-106.5 261q0 164 103 255t303 91q143 0 305 -43v90q0 229 -219 229q-97 0 -154 -43t-61 -125h-227q6 168 123 264.5t321 96.5zM346 346q0 -88 53 -130t160 -42q127 0 252 47v264q-154 27 -246 27q-110 0 -164.5 -38.5
t-54.5 -127.5z" />
    <glyph glyph-name="adieresis" unicode="&#xe4;" horiz-adv-x="1193" 
d="M362 1227q-50 0 -83 33.5t-33 82.5q0 48 33.5 81.5t82.5 33.5q47 0 81 -34t34 -81q0 -49 -33.5 -82.5t-81.5 -33.5zM793 1227q-50 0 -83.5 33.5t-33.5 82.5q0 48 34 81.5t83 33.5q47 0 80.5 -34t33.5 -81q0 -49 -33 -82.5t-81 -33.5zM594 1145q247 0 355 -117t108 -344
v-684h-191l-28 80q-65 -42 -163.5 -71t-195.5 -29q-166 0 -272.5 89t-106.5 261q0 164 103 255t303 91q143 0 305 -43v90q0 229 -219 229q-97 0 -154 -43t-61 -125h-227q6 168 123 264.5t321 96.5zM346 346q0 -88 53 -130t160 -42q127 0 252 47v264q-154 27 -246 27
q-110 0 -164.5 -38.5t-54.5 -127.5z" />
    <glyph glyph-name="aring" unicode="&#xe5;" horiz-adv-x="1185" 
d="M823 1108q123 -46 178.5 -152.5t55.5 -271.5v-684h-191l-28 80q-65 -42 -163.5 -71t-195.5 -29q-166 0 -272.5 89t-106.5 261q0 164 103 255t303 91q143 0 305 -43v90q0 229 -219 229q-97 0 -154 -43t-61 -125h-227q5 126 72 212.5t190 123.5q-47 59 -47 148
q0 113 75.5 183.5t182.5 70.5t182.5 -70.5t75.5 -183.5q0 -99 -58 -160zM623 1407q-57 0 -94 -37.5t-37 -97.5q0 -59 36 -93t95 -34t95 34t36 93q0 60 -37 97.5t-94 37.5zM346 346q0 -88 53 -130t160 -42q127 0 252 47v264q-154 27 -246 27q-110 0 -164.5 -38.5
t-54.5 -127.5z" />
    <glyph glyph-name="ae" unicode="&#xe6;" horiz-adv-x="1939" 
d="M1847 569v-61h-786q7 -180 89 -258t212 -78q109 0 174 60t86 149h219q-17 -183 -152.5 -297.5t-330.5 -114.5q-116 0 -220.5 40.5t-179.5 117.5q-105 -74 -227.5 -110.5t-234.5 -36.5q-175 0 -285.5 88.5t-110.5 259.5q0 165 105.5 256.5t308.5 91.5q144 0 299 -43v65
q0 132 -53.5 193t-167.5 61q-96 0 -153.5 -43t-61.5 -125h-225q5 169 123.5 265t332.5 96q262 0 353 -170q143 170 380 170q108 0 198.5 -35t160 -104t108.5 -181t39 -256zM1337 952q-111 0 -176 -72.5t-88 -195.5h522q-1 125 -72 196.5t-186 71.5zM561 174q165 0 299 100
q-43 94 -49 211q-143 27 -240 27q-109 0 -167 -38.5t-58 -127.5q0 -172 215 -172z" />
    <glyph glyph-name="ccedilla" unicode="&#xe7;" horiz-adv-x="1187" 
d="M860 709q-15 100 -80 166.5t-176 66.5q-137 0 -209.5 -113t-72.5 -292q0 -172 75 -266.5t213 -94.5q227 0 260 270h236q-7 -121 -48.5 -214t-109.5 -149.5t-154 -85t-186 -28.5q-232 0 -384 149.5t-152 409.5q0 98 21.5 188.5t66 168.5t106.5 136t148 91t186 33
q215 0 351 -125.5t141 -310.5h-232zM606 -109q187 0 187 -135q0 -87 -72 -136.5t-178 -49.5q-78 0 -142 22v72q50 -8 107 -8q45 0 75.5 20.5t30.5 53.5q0 71 -112 71h-25l49 90h80z" />
    <glyph glyph-name="egrave" unicode="&#xe8;" horiz-adv-x="1200" 
d="M805 1229h-182l-228 262h250zM1110 569v-61h-788q4 -94 29 -161t67.5 -104t93 -54t113.5 -17q107 0 172 60t86 149h219q-17 -183 -152.5 -297.5t-328.5 -114.5q-108 0 -206 36t-175 103t-122.5 174t-45.5 238q0 122 33.5 232t97 199t167.5 141.5t234 52.5
q85 0 160.5 -21.5t139 -67.5t109.5 -113t71.5 -162.5t25.5 -211.5zM600 952q-111 0 -176 -72.5t-90 -195.5h524q-1 125 -72 196.5t-186 71.5z" />
    <glyph glyph-name="eacute" unicode="&#xe9;" horiz-adv-x="1200" 
d="M805 1491l-227 -262h-183l160 262h250zM1110 569v-61h-788q4 -94 29 -161t67.5 -104t93 -54t113.5 -17q107 0 172 60t86 149h219q-17 -183 -152.5 -297.5t-328.5 -114.5q-108 0 -206 36t-175 103t-122.5 174t-45.5 238q0 122 33.5 232t97 199t167.5 141.5t234 52.5
q85 0 160.5 -21.5t139 -67.5t109.5 -113t71.5 -162.5t25.5 -211.5zM600 952q-111 0 -176 -72.5t-90 -195.5h524q-1 125 -72 196.5t-186 71.5z" />
    <glyph glyph-name="ecircumflex" unicode="&#xea;" horiz-adv-x="1200" 
d="M590 1372l-129 -143h-189l254 268h148l254 -268h-189l-129 143h-20zM1110 569v-61h-788q4 -94 29 -161t67.5 -104t93 -54t113.5 -17q107 0 172 60t86 149h219q-17 -183 -152.5 -297.5t-328.5 -114.5q-108 0 -206 36t-175 103t-122.5 174t-45.5 238q0 122 33.5 232t97 199
t167.5 141.5t234 52.5q85 0 160.5 -21.5t139 -67.5t109.5 -113t71.5 -162.5t25.5 -211.5zM600 952q-111 0 -176 -72.5t-90 -195.5h524q-1 125 -72 196.5t-186 71.5z" />
    <glyph glyph-name="edieresis" unicode="&#xeb;" horiz-adv-x="1200" 
d="M385 1227q-48 0 -82.5 33.5t-34.5 82.5q0 47 35 81t82 34t82 -34t35 -81q0 -49 -34.5 -82.5t-82.5 -33.5zM815 1227q-48 0 -82.5 33.5t-34.5 82.5q0 47 35 81t82 34t82 -34t35 -81q0 -49 -34.5 -82.5t-82.5 -33.5zM1110 569v-61h-788q4 -94 29 -161t67.5 -104t93 -54
t113.5 -17q107 0 172 60t86 149h219q-17 -183 -152.5 -297.5t-328.5 -114.5q-108 0 -206 36t-175 103t-122.5 174t-45.5 238q0 122 33.5 232t97 199t167.5 141.5t234 52.5q85 0 160.5 -21.5t139 -67.5t109.5 -113t71.5 -162.5t25.5 -211.5zM600 952q-111 0 -176 -72.5
t-90 -195.5h524q-1 125 -72 196.5t-186 71.5z" />
    <glyph glyph-name="igrave" unicode="&#xec;" horiz-adv-x="514" 
d="M356 1491l52 -262h-154l-148 262h250zM133 1118h246v-1118h-246v1118z" />
    <glyph glyph-name="iacute" unicode="&#xed;" horiz-adv-x="514" 
d="M158 1491h250l-148 -262h-154zM133 1118h246v-1118h-246v1118z" />
    <glyph glyph-name="icircumflex" unicode="&#xee;" horiz-adv-x="514" 
d="M25 1229l159 268h146l159 -268h-141l-82 151h-20l-80 -151h-141zM133 1118h246v-1118h-246v1118z" />
    <glyph glyph-name="idieresis" unicode="&#xef;" horiz-adv-x="514" 
d="M106 1227q-48 0 -81 33.5t-33 82.5q0 47 33.5 81t80.5 34q49 0 83 -33.5t34 -81.5q0 -49 -33.5 -82.5t-83.5 -33.5zM406 1227q-48 0 -81.5 33.5t-33.5 82.5q0 47 34 81t81 34q49 0 82.5 -33.5t33.5 -81.5q0 -49 -33 -82.5t-83 -33.5zM133 1118h246v-1118h-246v1118z" />
    <glyph glyph-name="eth" unicode="&#xf0;" horiz-adv-x="1247" 
d="M758 1497q391 -243 391 -762q0 -117 -20 -225t-64 -206t-108 -170.5t-159.5 -115.5t-211.5 -43q-104 0 -195.5 33.5t-163.5 98.5t-113.5 169.5t-41.5 237.5q0 155 54 281t166.5 205t266.5 79q210 0 334 -151h12q-38 257 -264 405l-90 -127l-94 68l82 115q-91 42 -193 63
l49 186q144 -32 258 -86l92 129l95 -67zM584 180q151 0 231 144.5t80 398.5q-50 81 -129.5 124.5t-167.5 43.5q-73 0 -127.5 -30.5t-86 -84t-47 -118t-15.5 -138.5q0 -165 72.5 -252.5t189.5 -87.5z" />
    <glyph glyph-name="ntilde" unicode="&#xf1;" horiz-adv-x="1234" 
d="M430 1247h-131q-18 112 38 183t155 71q45 0 85 -19.5t63.5 -43t53 -43t56.5 -19.5q36 0 53 28t4 85h131q18 -112 -37 -183t-153 -71q-46 0 -86 19.5t-63.5 43t-51.5 43t-53 19.5q-38 0 -57.5 -29.5t-6.5 -83.5zM735 1135q98 0 170.5 -31.5t114 -87.5t61 -125t19.5 -152
v-739h-246v657q0 137 -49 207t-166 70q-74 0 -143 -31.5t-117 -97.5v-805h-246v1118h221l15 -123q75 70 171 105t195 35z" />
    <glyph glyph-name="ograve" unicode="&#xf2;" horiz-adv-x="1222" 
d="M655 1491l160 -262h-182l-227 262h249zM72 520q0 97 23 188.5t69 170.5t109.5 138.5t150.5 93.5t186 34q123 0 226 -52t170.5 -139.5t105 -200t37.5 -235.5q0 -131 -42.5 -237t-116.5 -173t-171 -103t-209 -36t-209 36t-170.5 104t-116 174t-42.5 237zM324 524
q0 -169 74.5 -256.5t211.5 -87.5t213 87.5t76 256.5q0 179 -77 296.5t-212 117.5t-210.5 -118t-75.5 -296z" />
    <glyph glyph-name="oacute" unicode="&#xf3;" horiz-adv-x="1222" 
d="M565 1491h250l-227 -262h-182zM72 520q0 97 23 188.5t69 170.5t109.5 138.5t150.5 93.5t186 34q123 0 226 -52t170.5 -139.5t105 -200t37.5 -235.5q0 -131 -42.5 -237t-116.5 -173t-171 -103t-209 -36t-209 36t-170.5 104t-116 174t-42.5 237zM324 524
q0 -169 74.5 -256.5t211.5 -87.5t213 87.5t76 256.5q0 179 -77 296.5t-212 117.5t-210.5 -118t-75.5 -296z" />
    <glyph glyph-name="ocircumflex" unicode="&#xf4;" horiz-adv-x="1222" 
d="M283 1229l254 268h147l254 -268h-188l-129 143h-21l-129 -143h-188zM72 520q0 97 23 188.5t69 170.5t109.5 138.5t150.5 93.5t186 34q123 0 226 -52t170.5 -139.5t105 -200t37.5 -235.5q0 -131 -42.5 -237t-116.5 -173t-171 -103t-209 -36t-209 36t-170.5 104t-116 174
t-42.5 237zM324 524q0 -169 74.5 -256.5t211.5 -87.5t213 87.5t76 256.5q0 179 -77 296.5t-212 117.5t-210.5 -118t-75.5 -296z" />
    <glyph glyph-name="otilde" unicode="&#xf5;" horiz-adv-x="1222" 
d="M930 1489q18 -112 -37 -183t-154 -71q-46 0 -86 19.5t-63.5 43t-51.5 43t-53 19.5q-38 0 -57 -29.5t-6 -83.5h-131q-18 112 37.5 183t154.5 71q45 0 85 -19.5t63.5 -43t53 -43t56.5 -19.5q36 0 53.5 28t4.5 85h131zM72 520q0 97 23 188.5t69 170.5t109.5 138.5
t150.5 93.5t186 34q123 0 226 -52t170.5 -139.5t105 -200t37.5 -235.5q0 -131 -42.5 -237t-116.5 -173t-171 -103t-209 -36t-209 36t-170.5 104t-116 174t-42.5 237zM324 524q0 -169 74.5 -256.5t211.5 -87.5t213 87.5t76 256.5q0 179 -77 296.5t-212 117.5t-210.5 -118
t-75.5 -296z" />
    <glyph glyph-name="odieresis" unicode="&#xf6;" horiz-adv-x="1222" 
d="M395 1227q-48 0 -82 33.5t-34 82.5q0 47 34.5 81t81.5 34t82 -34t35 -81q0 -49 -34.5 -82.5t-82.5 -33.5zM825 1227q-48 0 -82 33.5t-34 82.5q0 47 34.5 81t81.5 34t82 -34t35 -81q0 -49 -34.5 -82.5t-82.5 -33.5zM72 520q0 97 23 188.5t69 170.5t109.5 138.5t150.5 93.5
t186 34q123 0 226 -52t170.5 -139.5t105 -200t37.5 -235.5q0 -131 -42.5 -237t-116.5 -173t-171 -103t-209 -36t-209 36t-170.5 104t-116 174t-42.5 237zM324 524q0 -169 74.5 -256.5t211.5 -87.5t213 87.5t76 256.5q0 179 -77 296.5t-212 117.5t-210.5 -118t-75.5 -296z
" />
    <glyph glyph-name="divide" unicode="&#xf7;" 
d="M616 840q-41 0 -69.5 28.5t-28.5 69.5t28.5 70.5t69.5 29.5t70 -29.5t29 -70.5t-29 -69.5t-70 -28.5zM217 678h795v-168h-795v168zM616 150q-41 0 -69.5 29.5t-28.5 70.5t28.5 69.5t69.5 28.5t70 -28.5t29 -69.5t-29 -70.5t-70 -29.5z" />
    <glyph glyph-name="oslash" unicode="&#xf8;" horiz-adv-x="1222" 
d="M946 1018q97 -88 150 -220t53 -280q0 -131 -42.5 -237t-116.5 -173t-171 -103t-209 -36q-131 0 -241 49l-62 -106l-102 59l61 107q-194 150 -194 442q0 97 23 188.5t69 170.5t109.5 138.5t150.5 93.5t186 34q131 0 238 -58l67 115l103 -61zM324 524q0 -153 61 -239
l356 616q-55 37 -131 37q-135 0 -210.5 -118t-75.5 -296zM610 180q137 0 213 87.5t76 256.5q0 173 -72 289l-350 -606q59 -27 133 -27z" />
    <glyph glyph-name="ugrave" unicode="&#xf9;" horiz-adv-x="1226" 
d="M819 1229h-182l-227 262h249zM846 1118h246v-1118h-199l-31 111q-140 -140 -340 -140q-106 0 -185 33.5t-124 93.5t-66.5 135t-21.5 166v719h246v-655q0 -138 52 -212.5t177 -74.5q65 0 131.5 31.5t114.5 95.5v815z" />
    <glyph glyph-name="uacute" unicode="&#xfa;" horiz-adv-x="1226" 
d="M819 1491l-227 -262h-182l159 262h250zM846 1118h246v-1118h-199l-31 111q-140 -140 -340 -140q-106 0 -185 33.5t-124 93.5t-66.5 135t-21.5 166v719h246v-655q0 -138 52 -212.5t177 -74.5q65 0 131.5 31.5t114.5 95.5v815z" />
    <glyph glyph-name="ucircumflex" unicode="&#xfb;" horiz-adv-x="1226" 
d="M604 1372l-129 -143h-188l254 268h147l254 -268h-188l-129 143h-21zM846 1118h246v-1118h-199l-31 111q-140 -140 -340 -140q-106 0 -185 33.5t-124 93.5t-66.5 135t-21.5 166v719h246v-655q0 -138 52 -212.5t177 -74.5q65 0 131.5 31.5t114.5 95.5v815z" />
    <glyph glyph-name="udieresis" unicode="&#xfc;" horiz-adv-x="1226" 
d="M399 1227q-48 0 -82 33.5t-34 82.5q0 47 34.5 81t81.5 34t82 -34t35 -81q0 -49 -34.5 -82.5t-82.5 -33.5zM829 1227q-48 0 -82 33.5t-34 82.5q0 47 34.5 81t81.5 34t82 -34t35 -81q0 -49 -34.5 -82.5t-82.5 -33.5zM846 1118h246v-1118h-199l-31 111q-140 -140 -340 -140
q-106 0 -185 33.5t-124 93.5t-66.5 135t-21.5 166v719h246v-655q0 -138 52 -212.5t177 -74.5q65 0 131.5 31.5t114.5 95.5v815z" />
    <glyph glyph-name="yacute" unicode="&#xfd;" horiz-adv-x="1153" 
d="M780 1491l-227 -262h-182l159 262h250zM874 1118h250l-428 -1130q-64 -172 -162.5 -275.5t-214.5 -103.5q-117 0 -225 57l39 162q65 -16 137 -16q66 0 116 59t99 178l-458 1069h262l303 -794h18z" />
    <glyph glyph-name="thorn" unicode="&#xfe;" horiz-adv-x="1202" 
d="M674 1139q87 0 161.5 -33t128 -90.5t91.5 -134.5t56.5 -165t18.5 -181q0 -133 -40 -241t-107.5 -175t-151 -103t-174.5 -36q-144 0 -278 79v-421h-246v1939h246v-551q139 113 295 113zM598 186q135 0 208 88t73 267q0 62 -8.5 117t-29.5 106t-52 87.5t-79 58.5t-108 22
q-115 0 -223 -80v-612q114 -54 219 -54z" />
    <glyph glyph-name="ydieresis" unicode="&#xff;" horiz-adv-x="1153" 
d="M360 1227q-48 0 -82 33.5t-34 82.5q0 47 34.5 81t81.5 34t82 -34t35 -81q0 -49 -34.5 -82.5t-82.5 -33.5zM791 1227q-48 0 -82.5 33.5t-34.5 82.5q0 47 35 81t82 34t81.5 -34t34.5 -81q0 -49 -34 -82.5t-82 -33.5zM874 1118h250l-428 -1130q-64 -172 -162.5 -275.5
t-214.5 -103.5q-117 0 -225 57l39 162q65 -16 137 -16q66 0 116 59t99 178l-458 1069h262l303 -794h18z" />
    <glyph glyph-name="Amacron" unicode="&#x100;" horiz-adv-x="1366" 
d="M936 1720v-127h-508v127h508zM1057 0l-109 346h-532l-109 -346h-270l477 1434h338l477 -1434h-272zM483 563h398l-187 598h-24z" />
    <glyph glyph-name="amacron" unicode="&#x101;" horiz-adv-x="1193" 
d="M829 1405v-127h-505v127h505zM594 1145q247 0 355 -117t108 -344v-684h-191l-28 80q-65 -42 -163.5 -71t-195.5 -29q-166 0 -272.5 89t-106.5 261q0 164 103 255t303 91q143 0 305 -43v90q0 229 -219 229q-97 0 -154 -43t-61 -125h-227q6 168 123 264.5t321 96.5z
M346 346q0 -88 53 -130t160 -42q127 0 252 47v264q-154 27 -246 27q-110 0 -164.5 -38.5t-54.5 -127.5z" />
    <glyph glyph-name="Abreve" unicode="&#x102;" horiz-adv-x="1366" 
d="M682 1532q-82 0 -145 24.5t-99.5 65t-53.5 89.5t-15 101h166q-4 -61 30.5 -107t116.5 -46t116.5 46t30.5 107h166q2 -52 -15 -101t-53.5 -89.5t-99.5 -65t-145 -24.5zM1057 0l-109 346h-532l-109 -346h-270l477 1434h338l477 -1434h-272zM483 563h398l-187 598h-24z" />
    <glyph glyph-name="abreve" unicode="&#x103;" horiz-adv-x="1193" 
d="M578 1217q-82 0 -146 24.5t-100.5 65t-53.5 89.5t-14 101h166q-4 -61 31 -107.5t117 -46.5q43 0 74 14t46.5 37.5t21 49.5t3.5 53h168q2 -52 -15 -101t-53.5 -89.5t-99.5 -65t-145 -24.5zM594 1145q247 0 355 -117t108 -344v-684h-191l-28 80q-65 -42 -163.5 -71
t-195.5 -29q-166 0 -272.5 89t-106.5 261q0 164 103 255t303 91q143 0 305 -43v90q0 229 -219 229q-97 0 -154 -43t-61 -125h-227q6 168 123 264.5t321 96.5zM346 346q0 -88 53 -130t160 -42q127 0 252 47v264q-154 27 -246 27q-110 0 -164.5 -38.5t-54.5 -127.5z" />
    <glyph glyph-name="Aogonek" unicode="&#x104;" horiz-adv-x="1366" 
d="M1364 -293l14 -96q-51 -41 -145 -41q-101 0 -159 55.5t-58 136.5q0 65 37 130.5t100 107.5h-96l-109 346h-532l-109 -346h-270l477 1434h338l477 -1434q-135 -88 -135 -207q0 -98 98 -98q32 0 72 12zM483 563h398l-187 598h-24z" />
    <glyph glyph-name="aogonek" unicode="&#x105;" horiz-adv-x="1193" 
d="M1092 -293l14 -96q-51 -41 -145 -41q-101 0 -159.5 55.5t-58.5 136.5q0 64 37.5 130t100.5 108h-15l-28 80q-65 -42 -163.5 -71t-195.5 -29q-166 0 -272.5 89t-106.5 261q0 164 103 255t303 91q143 0 305 -43v90q0 229 -219 229q-97 0 -154 -43t-61 -125h-227
q6 168 123 264.5t321 96.5q247 0 355 -117t108 -344v-684q-135 -88 -135 -207q0 -98 98 -98q32 0 72 12zM346 346q0 -88 53 -130t160 -42q127 0 252 47v264q-154 27 -246 27q-110 0 -164.5 -38.5t-54.5 -127.5z" />
    <glyph glyph-name="Cacute" unicode="&#x106;" horiz-adv-x="1374" 
d="M643 1806h250l-227 -262h-183zM997 891q-2 69 -18 129.5t-49.5 113t-93 83t-138.5 30.5q-84 0 -149.5 -47t-105.5 -127t-60.5 -179.5t-20.5 -211.5q0 -236 91 -356.5t249 -120.5q86 0 147 31t94 86t47.5 117.5t15.5 138.5h249q0 -131 -33.5 -241t-99 -193.5t-172.5 -130
t-245 -46.5q-274 0 -441.5 188.5t-167.5 512.5q0 120 22 233t70 216.5t118 181t172.5 123.5t226.5 46q133 0 238.5 -48.5t170 -130.5t98.5 -183.5t35 -214.5h-250z" />
    <glyph glyph-name="cacute" unicode="&#x107;" horiz-adv-x="1187" 
d="M549 1491h250l-228 -262h-182zM860 709q-15 100 -80 166.5t-176 66.5q-137 0 -209.5 -113t-72.5 -292q0 -172 75 -266.5t213 -94.5q227 0 260 270h236q-7 -121 -48.5 -214t-109.5 -149.5t-154 -85t-186 -28.5q-232 0 -384 149.5t-152 409.5q0 98 21.5 188.5t66 168.5
t106.5 136t148 91t186 33q215 0 351 -125.5t141 -310.5h-232z" />
    <glyph glyph-name="Ccircumflex" unicode="&#x108;" horiz-adv-x="1374" 
d="M360 1544l254 268h148l254 -268h-189l-129 144h-20l-129 -144h-189zM997 891q-2 69 -18 129.5t-49.5 113t-93 83t-138.5 30.5q-84 0 -149.5 -47t-105.5 -127t-60.5 -179.5t-20.5 -211.5q0 -236 91 -356.5t249 -120.5q86 0 147 31t94 86t47.5 117.5t15.5 138.5h249
q0 -131 -33.5 -241t-99 -193.5t-172.5 -130t-245 -46.5q-274 0 -441.5 188.5t-167.5 512.5q0 120 22 233t70 216.5t118 181t172.5 123.5t226.5 46q133 0 238.5 -48.5t170 -130.5t98.5 -183.5t35 -214.5h-250z" />
    <glyph glyph-name="ccircumflex" unicode="&#x109;" horiz-adv-x="1187" 
d="M266 1229l254 268h148l254 -268h-189l-129 143h-20l-129 -143h-189zM860 709q-15 100 -80 166.5t-176 66.5q-137 0 -209.5 -113t-72.5 -292q0 -172 75 -266.5t213 -94.5q227 0 260 270h236q-7 -121 -48.5 -214t-109.5 -149.5t-154 -85t-186 -28.5q-232 0 -384 149.5
t-152 409.5q0 98 21.5 188.5t66 168.5t106.5 136t148 91t186 33q215 0 351 -125.5t141 -310.5h-232z" />
    <glyph glyph-name="Cdotaccent" unicode="&#x10a;" horiz-adv-x="1374" 
d="M688 1548q-56 0 -93.5 37t-37.5 94q0 55 37.5 93t93.5 38t93.5 -38t37.5 -93q0 -57 -37.5 -94t-93.5 -37zM997 891q-2 69 -18 129.5t-49.5 113t-93 83t-138.5 30.5q-84 0 -149.5 -47t-105.5 -127t-60.5 -179.5t-20.5 -211.5q0 -236 91 -356.5t249 -120.5q86 0 147 31
t94 86t47.5 117.5t15.5 138.5h249q0 -131 -33.5 -241t-99 -193.5t-172.5 -130t-245 -46.5q-274 0 -441.5 188.5t-167.5 512.5q0 120 22 233t70 216.5t118 181t172.5 123.5t226.5 46q133 0 238.5 -48.5t170 -130.5t98.5 -183.5t35 -214.5h-250z" />
    <glyph glyph-name="cdotaccent" unicode="&#x10b;" horiz-adv-x="1187" 
d="M594 1233q-56 0 -93.5 37t-37.5 94q0 56 37.5 93.5t93.5 37.5t93.5 -37.5t37.5 -93.5q0 -57 -37.5 -94t-93.5 -37zM860 709q-15 100 -80 166.5t-176 66.5q-137 0 -209.5 -113t-72.5 -292q0 -172 75 -266.5t213 -94.5q227 0 260 270h236q-7 -121 -48.5 -214t-109.5 -149.5
t-154 -85t-186 -28.5q-232 0 -384 149.5t-152 409.5q0 98 21.5 188.5t66 168.5t106.5 136t148 91t186 33q215 0 351 -125.5t141 -310.5h-232z" />
    <glyph glyph-name="Ccaron" unicode="&#x10c;" horiz-adv-x="1374" 
d="M360 1812h189l129 -141h20l129 141h189l-254 -268h-148zM997 891q-2 69 -18 129.5t-49.5 113t-93 83t-138.5 30.5q-84 0 -149.5 -47t-105.5 -127t-60.5 -179.5t-20.5 -211.5q0 -236 91 -356.5t249 -120.5q86 0 147 31t94 86t47.5 117.5t15.5 138.5h249q0 -131 -33.5 -241
t-99 -193.5t-172.5 -130t-245 -46.5q-274 0 -441.5 188.5t-167.5 512.5q0 120 22 233t70 216.5t118 181t172.5 123.5t226.5 46q133 0 238.5 -48.5t170 -130.5t98.5 -183.5t35 -214.5h-250z" />
    <glyph glyph-name="ccaron" unicode="&#x10d;" horiz-adv-x="1187" 
d="M266 1497h189l129 -141h20l129 141h189l-254 -268h-148zM860 709q-15 100 -80 166.5t-176 66.5q-137 0 -209.5 -113t-72.5 -292q0 -172 75 -266.5t213 -94.5q227 0 260 270h236q-7 -121 -48.5 -214t-109.5 -149.5t-154 -85t-186 -28.5q-232 0 -384 149.5t-152 409.5
q0 98 21.5 188.5t66 168.5t106.5 136t148 91t186 33q215 0 351 -125.5t141 -310.5h-232z" />
    <glyph glyph-name="Dcaron" unicode="&#x10e;" horiz-adv-x="1368" 
d="M684 1544h-147l-254 268h188l129 -141h21l129 141h188zM610 1434q167 0 296.5 -59.5t207 -161.5t117 -230t39.5 -274q0 -117 -24 -221t-75.5 -194t-126.5 -155t-183.5 -102t-239.5 -37h-471v1434h460zM633 223q375 0 375 479q0 119 -22 209.5t-69.5 158t-127.5 102
t-191 34.5h-190v-983h225z" />
    <glyph glyph-name="dcaron" unicode="&#x10f;" horiz-adv-x="1544" 
d="M1407 1632q62 0 95.5 -53.5t33.5 -144.5q0 -85 -28 -163.5t-88 -133t-140 -54.5v99q59 4 90 54t33 124q-46 0 -75.5 40.5t-29.5 98.5q0 55 27 94t82 39zM823 1040v537h246v-1577h-190l-33 90q-133 -110 -301 -110q-95 0 -179.5 37t-150.5 106t-104.5 178t-38.5 244
q0 90 17 175t53.5 161.5t89 133.5t129.5 90.5t169 33.5q165 0 293 -99zM324 549q0 -179 73 -271t213 -92q103 0 213 47v646q-96 59 -209 59q-82 0 -140.5 -31.5t-90 -88.5t-45.5 -122.5t-14 -146.5z" />
    <glyph glyph-name="Dcroat" unicode="&#x110;" horiz-adv-x="1382" 
d="M625 1434q134 0 245 -39t186.5 -107t127.5 -160.5t76 -197.5t24 -221q0 -117 -24 -221t-75.5 -194t-126.5 -155t-183.5 -102t-239.5 -37h-471v608h-113v185h113v641h461zM647 223q375 0 375 479q0 119 -22 209.5t-69.5 158t-127.5 102t-191 34.5h-190v-413h287v-185h-287
v-385h225z" />
    <glyph glyph-name="dcroat" unicode="&#x111;" horiz-adv-x="1202" 
d="M1176 1413v-135h-107v-1278h-190l-33 90q-133 -110 -301 -110q-95 0 -179.5 37t-150.5 106t-104.5 178t-38.5 244q0 90 17 175t53.5 161.5t89 133.5t129.5 90.5t169 33.5q165 0 293 -99v238h-254v135h254v164h246v-164h107zM324 549q0 -179 73 -271t213 -92q103 0 213 47
v646q-96 59 -209 59q-82 0 -140.5 -31.5t-90 -88.5t-45.5 -122.5t-14 -146.5z" />
    <glyph glyph-name="Emacron" unicode="&#x112;" horiz-adv-x="1134" 
d="M821 1720v-127h-508v127h508zM995 1206h-587v-346h561v-225h-561v-404h587v-231h-845v1434h845v-228z" />
    <glyph glyph-name="emacron" unicode="&#x113;" horiz-adv-x="1200" 
d="M854 1405v-127h-508v127h508zM1110 569v-61h-788q4 -94 29 -161t67.5 -104t93 -54t113.5 -17q107 0 172 60t86 149h219q-17 -183 -152.5 -297.5t-328.5 -114.5q-108 0 -206 36t-175 103t-122.5 174t-45.5 238q0 122 33.5 232t97 199t167.5 141.5t234 52.5
q85 0 160.5 -21.5t139 -67.5t109.5 -113t71.5 -162.5t25.5 -211.5zM600 952q-111 0 -176 -72.5t-90 -195.5h524q-1 125 -72 196.5t-186 71.5z" />
    <glyph glyph-name="Ebreve" unicode="&#x114;" horiz-adv-x="1134" 
d="M567 1532q-82 0 -145 24.5t-99.5 65t-53.5 89.5t-15 101h166q-4 -61 30.5 -107t116.5 -46q57 0 92.5 25t46.5 57.5t9 70.5h166q2 -52 -15.5 -101t-53.5 -89.5t-99.5 -65t-145.5 -24.5zM995 1206h-587v-346h561v-225h-561v-404h587v-231h-845v1434h845v-228z" />
    <glyph glyph-name="ebreve" unicode="&#x115;" horiz-adv-x="1200" 
d="M600 1217q-82 0 -145 24.5t-99.5 65t-53.5 89.5t-15 101h166q-4 -61 30.5 -107.5t116.5 -46.5t117 46.5t31 107.5h165q2 -52 -15 -101t-53.5 -89.5t-99.5 -65t-145 -24.5zM1110 569v-61h-788q4 -94 29 -161t67.5 -104t93 -54t113.5 -17q107 0 172 60t86 149h219
q-17 -183 -152.5 -297.5t-328.5 -114.5q-108 0 -206 36t-175 103t-122.5 174t-45.5 238q0 122 33.5 232t97 199t167.5 141.5t234 52.5q85 0 160.5 -21.5t139 -67.5t109.5 -113t71.5 -162.5t25.5 -211.5zM600 952q-111 0 -176 -72.5t-90 -195.5h524q-1 125 -72 196.5
t-186 71.5z" />
    <glyph glyph-name="Edotaccent" unicode="&#x116;" horiz-adv-x="1134" 
d="M567 1548q-56 0 -93.5 37t-37.5 94q0 55 38 93t93 38t93 -38t38 -93q0 -57 -37.5 -94t-93.5 -37zM995 1206h-587v-346h561v-225h-561v-404h587v-231h-845v1434h845v-228z" />
    <glyph glyph-name="edotaccent" unicode="&#x117;" horiz-adv-x="1200" 
d="M600 1233q-56 0 -93.5 37t-37.5 94q0 56 37.5 93.5t93.5 37.5t93.5 -37.5t37.5 -93.5q0 -57 -37.5 -94t-93.5 -37zM1110 569v-61h-788q4 -94 29 -161t67.5 -104t93 -54t113.5 -17q107 0 172 60t86 149h219q-17 -183 -152.5 -297.5t-328.5 -114.5q-108 0 -206 36t-175 103
t-122.5 174t-45.5 238q0 122 33.5 232t97 199t167.5 141.5t234 52.5q85 0 160.5 -21.5t139 -67.5t109.5 -113t71.5 -162.5t25.5 -211.5zM600 952q-111 0 -176 -72.5t-90 -195.5h524q-1 125 -72 196.5t-186 71.5z" />
    <glyph glyph-name="Eogonek" unicode="&#x118;" horiz-adv-x="1134" 
d="M1030 -293l14 -96q-51 -41 -145 -41q-101 0 -159 55.5t-58 136.5q0 65 37 130.5t100 107.5h-669v1434h845v-228h-587v-346h561v-225h-561v-404h587v-231q-135 -88 -135 -207q0 -98 98 -98q32 0 72 12z" />
    <glyph glyph-name="eogonek" unicode="&#x119;" horiz-adv-x="1200" 
d="M1110 569v-61h-788q4 -94 29 -161t67.5 -104t93 -54t113.5 -17q107 0 172 60t86 149h219q-13 -143 -100.5 -246t-223.5 -143q-123 -84 -123 -199q0 -44 24 -71t75 -27q31 0 71 12l15 -96q-51 -41 -146 -41q-101 0 -159 55.5t-58 136.5q0 54 27 110t74 99
q-102 7 -192.5 45.5t-161 106t-111.5 170t-41 227.5q0 122 33.5 232t97 199t167.5 141.5t234 52.5q85 0 160.5 -21.5t139 -67.5t109.5 -113t71.5 -162.5t25.5 -211.5zM600 952q-111 0 -176 -72.5t-90 -195.5h524q-1 125 -72 196.5t-186 71.5z" />
    <glyph glyph-name="Ecaron" unicode="&#x11a;" horiz-adv-x="1134" 
d="M641 1544h-147l-254 268h188l129 -141h21l129 141h188zM995 1206h-587v-346h561v-225h-561v-404h587v-231h-845v1434h845v-228z" />
    <glyph glyph-name="ecaron" unicode="&#x11b;" horiz-adv-x="1200" 
d="M674 1229h-148l-254 268h189l129 -141h20l129 141h189zM1110 569v-61h-788q4 -94 29 -161t67.5 -104t93 -54t113.5 -17q107 0 172 60t86 149h219q-17 -183 -152.5 -297.5t-328.5 -114.5q-108 0 -206 36t-175 103t-122.5 174t-45.5 238q0 122 33.5 232t97 199t167.5 141.5
t234 52.5q85 0 160.5 -21.5t139 -67.5t109.5 -113t71.5 -162.5t25.5 -211.5zM600 952q-111 0 -176 -72.5t-90 -195.5h524q-1 125 -72 196.5t-186 71.5z" />
    <glyph glyph-name="Gcircumflex" unicode="&#x11c;" horiz-adv-x="1396" 
d="M371 1544l254 268h147l254 -268h-188l-129 144h-21l-129 -144h-188zM707 780h557v-272q0 -80 -20 -156t-63.5 -146.5t-106.5 -123t-155.5 -84t-203.5 -31.5q-286 0 -451.5 195.5t-165.5 521.5q0 111 20.5 218.5t68 211t117 181.5t175.5 125.5t236 47.5q118 0 215 -43.5
t160.5 -117t102 -164.5t48.5 -193h-254q-15 131 -86.5 215t-195.5 84q-91 0 -160 -48t-108 -130.5t-58 -178.5t-19 -204q0 -244 96 -365.5t267 -121.5q80 0 140 27t92.5 71.5t47.5 93.5t15 103v73h-311v211z" />
    <glyph glyph-name="gcircumflex" unicode="&#x11d;" horiz-adv-x="1202" 
d="M592 1372l-129 -143h-189l254 268h148l254 -268h-189l-129 143h-20zM879 1118h190v-1014q0 -108 -27.5 -194t-74.5 -142.5t-113 -93.5t-140 -53t-159 -16q-204 0 -391 88l55 190q174 -71 336 -71q134 0 201 68t67 220v15q-125 -78 -278 -78q-100 0 -185.5 33t-150 96.5
t-101 164t-36.5 228.5q0 92 18.5 176.5t57 158.5t93 128.5t132 85.5t168.5 31q154 0 309 -107zM623 231q103 0 200 39v611q-97 57 -209 57q-81 0 -139.5 -31t-90.5 -85.5t-46 -116.5t-14 -136q0 -175 76 -256.5t223 -81.5z" />
    <glyph glyph-name="Gbreve" unicode="&#x11e;" horiz-adv-x="1396" 
d="M551 1812q-4 -61 30.5 -107t116.5 -46q57 0 92.5 25t46.5 57.5t9 70.5h166q2 -52 -15.5 -101t-53.5 -89.5t-99.5 -65t-145.5 -24.5t-145 24.5t-99.5 65t-53.5 89.5t-15 101h166zM707 780h557v-272q0 -80 -20 -156t-63.5 -146.5t-106.5 -123t-155.5 -84t-203.5 -31.5
q-286 0 -451.5 195.5t-165.5 521.5q0 111 20.5 218.5t68 211t117 181.5t175.5 125.5t236 47.5q118 0 215 -43.5t160.5 -117t102 -164.5t48.5 -193h-254q-15 131 -86.5 215t-195.5 84q-91 0 -160 -48t-108 -130.5t-58 -178.5t-19 -204q0 -244 96 -365.5t267 -121.5
q80 0 140 27t92.5 71.5t47.5 93.5t15 103v73h-311v211z" />
    <glyph glyph-name="gbreve" unicode="&#x11f;" horiz-adv-x="1202" 
d="M602 1217q-82 0 -145 24.5t-99.5 65t-53.5 89.5t-15 101h166q-4 -61 30.5 -107.5t116.5 -46.5t117 46.5t31 107.5h165q2 -52 -15 -101t-53.5 -89.5t-99.5 -65t-145 -24.5zM879 1118h190v-1014q0 -108 -27.5 -194t-74.5 -142.5t-113 -93.5t-140 -53t-159 -16
q-204 0 -391 88l55 190q174 -71 336 -71q134 0 201 68t67 220v15q-125 -78 -278 -78q-100 0 -185.5 33t-150 96.5t-101 164t-36.5 228.5q0 92 18.5 176.5t57 158.5t93 128.5t132 85.5t168.5 31q154 0 309 -107zM623 231q103 0 200 39v611q-97 57 -209 57q-81 0 -139.5 -31
t-90.5 -85.5t-46 -116.5t-14 -136q0 -175 76 -256.5t223 -81.5z" />
    <glyph glyph-name="Gdotaccent" unicode="&#x120;" horiz-adv-x="1396" 
d="M698 1548q-56 0 -93.5 37t-37.5 94q0 55 37.5 93t93.5 38t93.5 -38t37.5 -93q0 -57 -37.5 -94t-93.5 -37zM707 780h557v-272q0 -80 -20 -156t-63.5 -146.5t-106.5 -123t-155.5 -84t-203.5 -31.5q-286 0 -451.5 195.5t-165.5 521.5q0 111 20.5 218.5t68 211t117 181.5
t175.5 125.5t236 47.5q118 0 215 -43.5t160.5 -117t102 -164.5t48.5 -193h-254q-15 131 -86.5 215t-195.5 84q-91 0 -160 -48t-108 -130.5t-58 -178.5t-19 -204q0 -244 96 -365.5t267 -121.5q80 0 140 27t92.5 71.5t47.5 93.5t15 103v73h-311v211z" />
    <glyph glyph-name="gdotaccent" unicode="&#x121;" horiz-adv-x="1202" 
d="M602 1233q-56 0 -93.5 37t-37.5 94q0 56 37.5 93.5t93.5 37.5t93.5 -37.5t37.5 -93.5q0 -57 -37.5 -94t-93.5 -37zM879 1118h190v-1014q0 -108 -27.5 -194t-74.5 -142.5t-113 -93.5t-140 -53t-159 -16q-204 0 -391 88l55 190q174 -71 336 -71q134 0 201 68t67 220v15
q-125 -78 -278 -78q-100 0 -185.5 33t-150 96.5t-101 164t-36.5 228.5q0 92 18.5 176.5t57 158.5t93 128.5t132 85.5t168.5 31q154 0 309 -107zM623 231q103 0 200 39v611q-97 57 -209 57q-81 0 -139.5 -31t-90.5 -85.5t-46 -116.5t-14 -136q0 -175 76 -256.5t223 -81.5z
" />
    <glyph glyph-name="uni0122" unicode="&#x122;" horiz-adv-x="1396" 
d="M707 780h557v-272q0 -80 -20 -156t-63.5 -146.5t-106.5 -123t-155.5 -84t-203.5 -31.5q-286 0 -451.5 195.5t-165.5 521.5q0 111 20.5 218.5t68 211t117 181.5t175.5 125.5t236 47.5q118 0 215 -43.5t160.5 -117t102 -164.5t48.5 -193h-254q-15 131 -86.5 215t-195.5 84
q-91 0 -160 -48t-108 -130.5t-58 -178.5t-19 -204q0 -244 96 -365.5t267 -121.5q80 0 140 27t92.5 71.5t47.5 93.5t15 103v73h-311v211zM696 -68q44 0 74.5 -37t30.5 -98q0 -76 -45.5 -134t-126.5 -93l-25 72q35 14 56 40.5t20 57.5q-29 0 -56.5 23.5t-27.5 66.5
q0 40 28.5 71t71.5 31z" />
    <glyph glyph-name="uni0123" unicode="&#x123;" horiz-adv-x="1202" 
d="M604 1221q-41 0 -69.5 34t-28.5 91q0 66 43 118.5t117 85.5l24 -67q-33 -13 -52.5 -36.5t-19.5 -47.5q27 0 53.5 -22t26.5 -62q0 -37 -27 -65.5t-67 -28.5zM879 1118h190v-1014q0 -108 -27.5 -194t-74.5 -142.5t-113 -93.5t-140 -53t-159 -16q-204 0 -391 88l55 190
q174 -71 336 -71q134 0 201 68t67 220v15q-125 -78 -278 -78q-100 0 -185.5 33t-150 96.5t-101 164t-36.5 228.5q0 92 18.5 176.5t57 158.5t93 128.5t132 85.5t168.5 31q154 0 309 -107zM623 231q103 0 200 39v611q-97 57 -209 57q-81 0 -139.5 -31t-90.5 -85.5t-46 -116.5
t-14 -136q0 -175 76 -256.5t223 -81.5z" />
    <glyph glyph-name="Hcircumflex" unicode="&#x124;" horiz-adv-x="1445" 
d="M713 1688l-129 -144h-189l254 268h148l254 -268h-189l-129 144h-20zM1038 1434h258v-1434h-258v655h-630v-655h-258v1434h258v-549h630v549z" />
    <glyph glyph-name="hcircumflex" unicode="&#x125;" horiz-adv-x="1234" 
d="M608 1788l-129 -143h-188l254 268h147l254 -268h-188l-129 143h-21zM735 1135q98 0 170.5 -31.5t114 -87.5t61 -125t19.5 -152v-739h-246v659q0 134 -49 204.5t-166 70.5q-74 0 -143 -30.5t-117 -94.5v-809h-246v1577h246v-578q76 67 169 101.5t187 34.5z" />
    <glyph glyph-name="Hbar" unicode="&#x126;" horiz-adv-x="1445" 
d="M1038 1434h258v-1434h-258v410h-630v-410h-258v1434h258v-338h630v338zM408 623h630v260h-630v-260z" />
    <glyph glyph-name="hbar" unicode="&#x127;" horiz-adv-x="1259" 
d="M760 1135q98 0 170.5 -31.5t113.5 -87.5t60.5 -125t19.5 -152v-739h-245v659q0 134 -49 204.5t-166 70.5q-74 0 -143.5 -30.5t-117.5 -94.5v-809h-245v1278h-107v135h107v164h245v-164h254v-135h-254v-279q76 67 169.5 101.5t187.5 34.5z" />
    <glyph glyph-name="Itilde" unicode="&#x128;" horiz-adv-x="567" 
d="M31 1561q-32 219 143 219q49 0 84.5 -19.5t51.5 -43t37 -43t44 -19.5q28 0 31 28t-10 82h125q30 -219 -144 -219q-40 0 -70.5 13t-48 31t-31.5 36.5t-30 31.5t-35 13q-29 0 -32.5 -28.5t10.5 -81.5h-125zM154 1434h258v-1434h-258v1434z" />
    <glyph glyph-name="itilde" unicode="&#x129;" horiz-adv-x="514" 
d="M8 1245q-18 104 18 161.5t126 57.5q40 0 69.5 -13t46 -31t29.5 -36.5t29 -31.5t36 -13q27 0 30 28.5t-11 82.5h125q30 -219 -141 -219q-40 0 -70 13t-47 31.5t-30.5 36.5t-28.5 31t-33 13q-20 0 -27.5 -14t-6.5 -36t9 -61h-123zM133 1118h246v-1118h-246v1118z" />
    <glyph glyph-name="Imacron" unicode="&#x12a;" horiz-adv-x="567" 
d="M57 1720h453v-127h-453v127zM154 1434h258v-1434h-258v1434z" />
    <glyph glyph-name="imacron" unicode="&#x12b;" horiz-adv-x="514" 
d="M78 1405h356v-127h-356v127zM133 1118h246v-1118h-246v1118z" />
    <glyph glyph-name="Ibreve" unicode="&#x12c;" horiz-adv-x="567" 
d="M197 1821q-5 -154 86 -154q93 0 88 154h143q6 -119 -54.5 -200t-176.5 -81q-115 0 -176 81t-56 200h146zM154 1434h258v-1434h-258v1434z" />
    <glyph glyph-name="ibreve" unicode="&#x12d;" horiz-adv-x="514" 
d="M170 1497q-5 -154 86 -154q93 0 88 154h143q6 -119 -54.5 -199.5t-176.5 -80.5q-115 0 -175.5 80.5t-55.5 199.5h145zM133 1118h246v-1118h-246v1118z" />
    <glyph glyph-name="Iogonek" unicode="&#x12e;" horiz-adv-x="567" 
d="M426 -293l14 -96q-51 -41 -145 -41q-101 0 -159 55.5t-58 136.5q0 65 37 130.5t100 107.5h-61v1434h258v-1434h-21q-135 -88 -135 -207q0 -98 98 -98q32 0 72 12z" />
    <glyph glyph-name="iogonek" unicode="&#x12f;" horiz-adv-x="514" 
d="M256 1233q-56 0 -93.5 37t-37.5 94q0 56 37.5 93.5t93.5 37.5t93.5 -37.5t37.5 -93.5q0 -57 -37.5 -94t-93.5 -37zM395 -293l15 -96q-51 -41 -146 -41q-101 0 -159 55.5t-58 136.5q0 65 37 130.5t100 107.5h-51v1118h246v-1118h-19q-135 -88 -135 -207q0 -44 24 -71
t75 -27q31 0 71 12z" />
    <glyph glyph-name="Idotaccent" unicode="&#x130;" horiz-adv-x="567" 
d="M283 1548q-56 0 -93.5 37t-37.5 94q0 55 38 93t93 38t93 -38t38 -93q0 -57 -37.5 -94t-93.5 -37zM154 1434h258v-1434h-258v1434z" />
    <glyph glyph-name="dotlessi" unicode="&#x131;" horiz-adv-x="514" 
d="M133 1118h246v-1118h-246v1118z" />
    <glyph glyph-name="Jcircumflex" unicode="&#x134;" horiz-adv-x="1374" 
d="M864 1688l-129 -144h-188l254 268h147l254 -268h-188l-129 144h-21zM1221 1434v-873q0 -276 -147 -435t-404 -159q-146 0 -258 53t-179.5 145t-101 208.5t-31.5 251.5h252q-2 -114 30 -208.5t106.5 -157t181.5 -62.5q139 0 216 94.5t77 267.5v647h-420v228h678z" />
    <glyph glyph-name="jcircumflex" unicode="&#x135;" horiz-adv-x="518" 
d="M-68 1229l254 268h148l254 -268h-189l-129 143h-20l-129 -143h-189zM137 1118h246v-1206q0 -161 -75.5 -235t-205.5 -74q-113 0 -211 59l29 152q86 -13 105 -13q64 0 88 33t24 119v1165z" />
    <glyph glyph-name="uni0136" unicode="&#x136;" horiz-adv-x="1331" 
d="M717 823l569 -823h-319l-414 606h-18l-127 -149v-457h-258v1434h258v-635h14l512 635h299zM666 -68q44 0 74 -37t30 -98q0 -76 -45.5 -134t-126.5 -93l-25 72q35 14 56 40.5t20 57.5q-29 0 -56.5 23.5t-27.5 66.5q0 40 29 71t72 31z" />
    <glyph glyph-name="uni0137" unicode="&#x137;" horiz-adv-x="1130" 
d="M651 668l443 -668h-289l-320 494h-14l-92 -101v-393h-246v1577h246v-899h16l389 440h271zM559 -68q44 0 74.5 -37t30.5 -98q0 -76 -45.5 -134t-126.5 -93l-25 72q35 14 56 40.5t20 57.5q-29 0 -56.5 23.5t-27.5 66.5q0 40 28.5 71t71.5 31z" />
    <glyph glyph-name="kgreenlandic" unicode="&#x138;" horiz-adv-x="1130" 
d="M651 668l443 -668h-289l-320 494h-14l-92 -101v-393h-246v1118h246v-440h16l389 440h271z" />
    <glyph glyph-name="Lacute" unicode="&#x139;" horiz-adv-x="1093" 
d="M788 1806l-227 -262h-182l160 262h249zM408 231h575v-231h-833v1434h258v-1203z" />
    <glyph glyph-name="lacute" unicode="&#x13a;" horiz-adv-x="514" 
d="M158 1991h250l-148 -262h-154zM133 1577h246v-1577h-246v1577z" />
    <glyph glyph-name="uni013B" unicode="&#x13b;" horiz-adv-x="1093" 
d="M408 231h575v-231h-833v1434h258v-1203zM582 -68q44 0 74 -37t30 -98q0 -76 -45.5 -134t-126.5 -93l-25 72q35 14 56 40.5t20 57.5q-29 0 -56.5 23.5t-27.5 66.5q0 40 29 71t72 31z" />
    <glyph glyph-name="uni013C" unicode="&#x13c;" horiz-adv-x="514" 
d="M133 1577h246v-1577h-246v1577zM254 -68q44 0 74 -37t30 -98q0 -76 -45.5 -134t-126.5 -93l-24 72q35 14 56 40.5t20 57.5q-29 0 -56.5 23.5t-27.5 66.5q0 40 28.5 71t71.5 31z" />
    <glyph glyph-name="Lcaron" unicode="&#x13d;" horiz-adv-x="1093" 
d="M944 1329q0 -85 -28 -163.5t-88 -132.5t-140 -54v98q59 4 90 54t33 124q-46 0 -75 41t-29 101q0 55 27 94t81 39q62 0 95.5 -54t33.5 -147zM408 231h575v-231h-833v1434h258v-1203z" />
    <glyph glyph-name="lcaron" unicode="&#x13e;" horiz-adv-x="856" 
d="M717 1632q63 0 97 -53.5t34 -144.5q0 -85 -28.5 -163.5t-88.5 -133t-139 -54.5v99q59 4 90 54t33 124q-46 0 -75.5 40.5t-29.5 98.5q0 55 27 94t80 39zM133 1577h246v-1577h-246v1577z" />
    <glyph glyph-name="Ldot" unicode="&#x13f;" horiz-adv-x="1122" 
d="M408 231h575v-231h-833v1434h258v-1203zM758 639q-64 0 -105 39t-41 110q0 67 40 115.5t106 48.5t105.5 -48.5t39.5 -115.5q0 -71 -40 -110t-105 -39z" />
    <glyph glyph-name="ldot" unicode="&#x140;" horiz-adv-x="860" 
d="M133 1577h246v-1577h-246v1577zM508 782q0 65 38.5 112.5t104.5 47.5t105 -47.5t39 -112.5q0 -70 -40 -108.5t-104 -38.5q-62 0 -102.5 38.5t-40.5 108.5z" />
    <glyph glyph-name="Lslash" unicode="&#x141;" horiz-adv-x="1142" 
d="M457 231h575v-231h-833v602l-148 -45v197l148 45v635h258v-555l258 79v-196l-258 -80v-451z" />
    <glyph glyph-name="lslash" unicode="&#x142;" horiz-adv-x="546" 
d="M535 969v-168l-140 -45v-756h-245v678l-140 -45v168l140 45v731h245v-653z" />
    <glyph glyph-name="Nacute" unicode="&#x143;" horiz-adv-x="1431" 
d="M920 1806l-228 -262h-182l160 262h250zM1026 1434h256v-1434h-235l-627 1004h-14v-1004h-256v1434h268l592 -963h16v963z" />
    <glyph glyph-name="nacute" unicode="&#x144;" horiz-adv-x="1234" 
d="M823 1491l-227 -262h-182l159 262h250zM735 1135q98 0 170.5 -31.5t114 -87.5t61 -125t19.5 -152v-739h-246v657q0 137 -49 207t-166 70q-74 0 -143 -31.5t-117 -97.5v-805h-246v1118h221l15 -123q75 70 171 105t195 35z" />
    <glyph glyph-name="uni0145" unicode="&#x145;" horiz-adv-x="1431" 
d="M1026 1434h256v-1434h-235l-627 1004h-14v-1004h-256v1434h268l592 -963h16v963zM713 -68q44 0 74 -37t30 -98q0 -76 -45.5 -134t-126.5 -93l-24 72q35 14 55.5 40.5t19.5 57.5q-29 0 -56.5 23.5t-27.5 66.5q0 40 29 71t72 31z" />
    <glyph glyph-name="uni0146" unicode="&#x146;" horiz-adv-x="1234" 
d="M735 1135q98 0 170.5 -31.5t114 -87.5t61 -125t19.5 -152v-739h-246v657q0 137 -49 207t-166 70q-74 0 -143 -31.5t-117 -97.5v-805h-246v1118h221l15 -123q75 70 171 105t195 35zM616 -68q44 0 74.5 -37t30.5 -98q0 -76 -45.5 -134t-126.5 -93l-25 72q35 14 56 40.5
t20 57.5q-29 0 -56.5 23.5t-27.5 66.5q0 40 28.5 71t71.5 31z" />
    <glyph glyph-name="Ncaron" unicode="&#x147;" horiz-adv-x="1431" 
d="M788 1544h-147l-254 268h188l130 -141h20l129 141h188zM1026 1434h256v-1434h-235l-627 1004h-14v-1004h-256v1434h268l592 -963h16v963z" />
    <glyph glyph-name="ncaron" unicode="&#x148;" horiz-adv-x="1234" 
d="M692 1229h-147l-254 268h188l129 -141h21l129 141h188zM735 1135q98 0 170.5 -31.5t114 -87.5t61 -125t19.5 -152v-739h-246v657q0 137 -49 207t-166 70q-74 0 -143 -31.5t-117 -97.5v-805h-246v1118h221l15 -123q75 70 171 105t195 35z" />
    <glyph glyph-name="napostrophe" unicode="&#x149;" horiz-adv-x="1589" 
d="M287 1565q78 0 121 -64.5t43 -171.5q0 -91 -34.5 -167t-108.5 -127.5t-177 -59.5v117q68 12 105.5 53t37.5 106q-61 0 -103 38.5t-42 103.5q0 72 42 122t116 50zM1090 1135q99 0 171.5 -31.5t114 -87.5t61 -125t19.5 -152v-739h-246v657q0 136 -49.5 206.5t-165.5 70.5
q-74 0 -142.5 -31.5t-117.5 -95.5v-807h-246v1118h222l14 -121q76 68 171 103t194 35z" />
    <glyph glyph-name="Eng" unicode="&#x14a;" horiz-adv-x="1431" 
d="M1026 1434h256v-1522q0 -160 -76.5 -234.5t-206.5 -74.5q-110 0 -208 59l28 152q83 -13 105 -13q64 0 88 33t24 119v63l-616 988h-14v-1004h-256v1434h268l592 -963h16v963z" />
    <glyph glyph-name="eng" unicode="&#x14b;" horiz-adv-x="1234" 
d="M735 1135q98 0 170.5 -31.5t114 -87.5t61 -125t19.5 -152v-766q0 -161 -75.5 -235t-205.5 -74q-111 0 -211 60l29 151q79 -12 104 -12q64 0 88.5 33t24.5 118v643q0 137 -49 207t-166 70q-74 0 -143 -31.5t-117 -97.5v-805h-246v1118h221l15 -123q75 70 171 105t195 35z
" />
    <glyph glyph-name="Omacron" unicode="&#x14c;" horiz-adv-x="1396" 
d="M444 1720h508v-127h-508v127zM96 670q0 121 26 237t77.5 217.5t122.5 178t168 121t208 44.5q110 0 207 -44.5t167.5 -121t122 -178t77.5 -217.5t26 -237q0 -165 -48 -300t-130.5 -222t-191 -134t-230.5 -47q-123 0 -231.5 47t-191.5 134t-131 222t-48 300zM362 676
q0 -224 94.5 -350.5t241.5 -126.5t240.5 126.5t93.5 350.5q0 153 -40.5 282.5t-118 209t-175.5 79.5q-99 0 -177 -79.5t-118.5 -209t-40.5 -282.5z" />
    <glyph glyph-name="omacron" unicode="&#x14d;" horiz-adv-x="1222" 
d="M356 1405h508v-127h-508v127zM72 520q0 97 23 188.5t69 170.5t109.5 138.5t150.5 93.5t186 34q123 0 226 -52t170.5 -139.5t105 -200t37.5 -235.5q0 -131 -42.5 -237t-116.5 -173t-171 -103t-209 -36t-209 36t-170.5 104t-116 174t-42.5 237zM324 524q0 -169 74.5 -256.5
t211.5 -87.5t213 87.5t76 256.5q0 179 -77 296.5t-212 117.5t-210.5 -118t-75.5 -296z" />
    <glyph glyph-name="Obreve" unicode="&#x14e;" horiz-adv-x="1396" 
d="M551 1812q-4 -61 30.5 -107t116.5 -46q57 0 92.5 25t46.5 57.5t9 70.5h166q2 -52 -15.5 -101t-53.5 -89.5t-99.5 -65t-145.5 -24.5t-145 24.5t-99.5 65t-53.5 89.5t-15 101h166zM96 670q0 121 26 237t77.5 217.5t122.5 178t168 121t208 44.5q110 0 207 -44.5t167.5 -121
t122 -178t77.5 -217.5t26 -237q0 -165 -48 -300t-130.5 -222t-191 -134t-230.5 -47q-123 0 -231.5 47t-191.5 134t-131 222t-48 300zM362 676q0 -224 94.5 -350.5t241.5 -126.5t240.5 126.5t93.5 350.5q0 153 -40.5 282.5t-118 209t-175.5 79.5q-99 0 -177 -79.5
t-118.5 -209t-40.5 -282.5z" />
    <glyph glyph-name="obreve" unicode="&#x14f;" horiz-adv-x="1222" 
d="M463 1497q-4 -61 30.5 -107.5t116.5 -46.5t117 46.5t31 107.5h166q2 -52 -15.5 -101t-53.5 -89.5t-99.5 -65t-145.5 -24.5t-145 24.5t-99.5 65t-53.5 89.5t-15 101h166zM72 520q0 97 23 188.5t69 170.5t109.5 138.5t150.5 93.5t186 34q123 0 226 -52t170.5 -139.5
t105 -200t37.5 -235.5q0 -131 -42.5 -237t-116.5 -173t-171 -103t-209 -36t-209 36t-170.5 104t-116 174t-42.5 237zM324 524q0 -169 74.5 -256.5t211.5 -87.5t213 87.5t76 256.5q0 179 -77 296.5t-212 117.5t-210.5 -118t-75.5 -296z" />
    <glyph glyph-name="Ohungarumlaut" unicode="&#x150;" horiz-adv-x="1396" 
d="M508 1815h172l-100 -263h-136zM776 1815h174l-102 -263h-133zM96 670q0 121 26 237t77.5 217.5t122.5 178t168 121t208 44.5q110 0 207 -44.5t167.5 -121t122 -178t77.5 -217.5t26 -237q0 -165 -48 -300t-130.5 -222t-191 -134t-230.5 -47q-123 0 -231.5 47t-191.5 134
t-131 222t-48 300zM362 676q0 -224 94.5 -350.5t241.5 -126.5t240.5 126.5t93.5 350.5q0 153 -40.5 282.5t-118 209t-175.5 79.5q-99 0 -177 -79.5t-118.5 -209t-40.5 -282.5z" />
    <glyph glyph-name="ohungarumlaut" unicode="&#x151;" horiz-adv-x="1222" 
d="M420 1499h172l-100 -262h-136zM688 1499h174l-102 -262h-133zM72 520q0 97 23 188.5t69 170.5t109.5 138.5t150.5 93.5t186 34q123 0 226 -52t170.5 -139.5t105 -200t37.5 -235.5q0 -131 -42.5 -237t-116.5 -173t-171 -103t-209 -36t-209 36t-170.5 104t-116 174
t-42.5 237zM324 524q0 -169 74.5 -256.5t211.5 -87.5t213 87.5t76 256.5q0 179 -77 296.5t-212 117.5t-210.5 -118t-75.5 -296z" />
    <glyph glyph-name="OE" unicode="&#x152;" horiz-adv-x="1792" 
d="M1653 1206h-504q96 -143 133 -346h344v-225h-328q-9 -243 -114 -404h469v-231h-758q-90 -33 -197 -33q-123 0 -231.5 47t-191.5 134t-131 222t-48 300q0 121 26 237t77.5 217.5t122.5 178t168 121t208 44.5q101 0 185 -34h770v-228zM362 676q0 -224 94.5 -350.5
t241.5 -126.5t240.5 126.5t93.5 350.5q0 153 -40.5 282.5t-118 209t-175.5 79.5q-99 0 -177 -79.5t-118.5 -209t-40.5 -282.5z" />
    <glyph glyph-name="oe" unicode="&#x153;" horiz-adv-x="2025" 
d="M1933 508h-784q0 -25 -2 -35q7 -83 33.5 -143t68.5 -93.5t91 -49t108 -15.5q108 0 173.5 60t86.5 149h217q-17 -183 -152.5 -297.5t-328.5 -114.5q-123 0 -232 45t-186 131q-74 -86 -182 -131t-234 -45q-112 0 -209 36t-170.5 104t-116 174t-42.5 237q0 97 23 188.5
t69 170.5t109.5 138.5t150.5 93.5t186 34q251 0 408 -205q147 205 409 205q85 0 160.5 -21.5t139 -67.5t109.5 -113t71.5 -162.5t25.5 -211.5v-61zM1423 952q-111 0 -176 -72.5t-90 -195.5h524q-1 125 -72 196.5t-186 71.5zM610 180q126 0 200.5 73t86.5 216q-2 16 -2 51
q0 40 2 60q-11 158 -86.5 258t-200.5 100q-135 0 -210.5 -118t-75.5 -296q0 -169 74.5 -256.5t211.5 -87.5z" />
    <glyph glyph-name="Racute" unicode="&#x154;" horiz-adv-x="1280" 
d="M846 1806l-228 -262h-182l160 262h250zM1210 0h-284l-260 471h-258v-471h-258v1434h516q105 0 188.5 -26t138 -70t91 -105t52 -126t15.5 -138q0 -150 -65 -263.5t-177 -173.5zM408 1212v-522h245q115 0 179.5 64.5t64.5 199.5q0 58 -12 102t-40 80.5t-79.5 56
t-124.5 19.5h-233z" />
    <glyph glyph-name="racute" unicode="&#x155;" horiz-adv-x="806" 
d="M608 1491l-227 -262h-182l159 262h250zM375 977q151 170 381 170l-27 -254q-23 2 -67 2q-103 0 -172 -30.5t-109 -110.5l-2 -754h-246v1118h225z" />
    <glyph glyph-name="uni0156" unicode="&#x156;" horiz-adv-x="1280" 
d="M909 532l301 -532h-284l-260 471h-258v-471h-258v1434h516q105 0 188.5 -26t138 -70t91 -105t52 -126t15.5 -138q0 -150 -65 -263.5t-177 -173.5zM408 1212v-522h245q115 0 179.5 64.5t64.5 199.5q0 58 -12 102t-40 80.5t-79.5 56t-124.5 19.5h-233zM639 -68q44 0 74 -37
t30 -98q0 -76 -45.5 -134t-126.5 -93l-24 72q35 14 56 40.5t20 57.5q-29 0 -56.5 23.5t-27.5 66.5q0 40 28.5 71t71.5 31z" />
    <glyph glyph-name="uni0157" unicode="&#x157;" horiz-adv-x="806" 
d="M375 977q151 170 381 170l-27 -254q-23 2 -67 2q-103 0 -172 -30.5t-109 -110.5l-2 -754h-246v1118h225zM401 -68q44 0 74.5 -37t30.5 -98q0 -76 -45.5 -134t-126.5 -93l-25 72q35 14 56 40.5t20 57.5q-29 0 -56.5 23.5t-27.5 66.5q0 40 28.5 71t71.5 31z" />
    <glyph glyph-name="Rcaron" unicode="&#x158;" horiz-adv-x="1280" 
d="M715 1544h-148l-254 268h189l129 -141h20l129 141h189zM1210 0h-284l-260 471h-258v-471h-258v1434h516q105 0 188.5 -26t138 -70t91 -105t52 -126t15.5 -138q0 -150 -65 -263.5t-177 -173.5zM408 1212v-522h245q115 0 179.5 64.5t64.5 199.5q0 58 -12 102t-40 80.5
t-79.5 56t-124.5 19.5h-233z" />
    <glyph glyph-name="rcaron" unicode="&#x159;" horiz-adv-x="806" 
d="M477 1229h-147l-254 268h188l129 -141h21l129 141h188zM375 977q151 170 381 170l-27 -254q-23 2 -67 2q-103 0 -172 -30.5t-109 -110.5l-2 -754h-246v1118h225z" />
    <glyph glyph-name="Sacute" unicode="&#x15a;" horiz-adv-x="1261" 
d="M586 1806h250l-228 -262h-182zM365 492q-4 -147 72 -225.5t206 -78.5q115 0 187.5 63.5t72.5 158.5q0 51 -24.5 90t-66.5 64.5t-96.5 47t-114.5 41t-119.5 41t-114 53t-96.5 72t-66.5 102t-24.5 138.5q0 184 130 296.5t343 112.5q221 0 333.5 -117t107.5 -315h-244
q8 226 -201 226q-97 0 -154 -40.5t-57 -117.5q0 -49 25 -86t67 -61t97 -43t115 -37.5t120.5 -39.5t115.5 -54t97 -75.5t67 -109.5t25 -152q0 -211 -148.5 -344t-379.5 -133q-247 0 -390.5 142.5t-137.5 380.5h254z" />
    <glyph glyph-name="sacute" unicode="&#x15b;" horiz-adv-x="1069" 
d="M492 1491h249l-229 -262h-182zM291 381q-3 -98 64.5 -156.5t174.5 -58.5q89 0 151 40t62 109q0 42 -27 72.5t-71.5 47.5t-101.5 34t-116 30.5t-116 38.5t-101.5 57t-71.5 87t-27 127q0 144 109.5 240t307.5 96q87 0 158 -18.5t129 -58t89.5 -109.5t29.5 -166h-221
q1 81 -49 124.5t-140 43.5q-80 0 -128 -32t-48 -93q0 -46 35.5 -78.5t92.5 -51.5t126 -36.5t138.5 -41t126.5 -57t92.5 -92.5t35.5 -139q0 -109 -64 -195t-169.5 -131t-231.5 -45q-66 0 -127.5 10.5t-127 39t-113 73t-77.5 119t-28 170.5h234z" />
    <glyph glyph-name="Scircumflex" unicode="&#x15c;" horiz-adv-x="1261" 
d="M303 1544l254 268h148l253 -268h-188l-129 144h-20l-129 -144h-189zM365 492q-4 -147 72 -225.5t206 -78.5q115 0 187.5 63.5t72.5 158.5q0 51 -24.5 90t-66.5 64.5t-96.5 47t-114.5 41t-119.5 41t-114 53t-96.5 72t-66.5 102t-24.5 138.5q0 184 130 296.5t343 112.5
q221 0 333.5 -117t107.5 -315h-244q8 226 -201 226q-97 0 -154 -40.5t-57 -117.5q0 -49 25 -86t67 -61t97 -43t115 -37.5t120.5 -39.5t115.5 -54t97 -75.5t67 -109.5t25 -152q0 -211 -148.5 -344t-379.5 -133q-247 0 -390.5 142.5t-137.5 380.5h254z" />
    <glyph glyph-name="scircumflex" unicode="&#x15d;" horiz-adv-x="1069" 
d="M209 1229l254 268h145l254 -268h-188l-129 143h-21l-127 -143h-188zM291 381q-3 -98 64.5 -156.5t174.5 -58.5q89 0 151 40t62 109q0 42 -27 72.5t-71.5 47.5t-101.5 34t-116 30.5t-116 38.5t-101.5 57t-71.5 87t-27 127q0 144 109.5 240t307.5 96q87 0 158 -18.5
t129 -58t89.5 -109.5t29.5 -166h-221q1 81 -49 124.5t-140 43.5q-80 0 -128 -32t-48 -93q0 -46 35.5 -78.5t92.5 -51.5t126 -36.5t138.5 -41t126.5 -57t92.5 -92.5t35.5 -139q0 -109 -64 -195t-169.5 -131t-231.5 -45q-66 0 -127.5 10.5t-127 39t-113 73t-77.5 119
t-28 170.5h234z" />
    <glyph glyph-name="Scedilla" unicode="&#x15e;" horiz-adv-x="1261" 
d="M365 492q-4 -147 72 -225.5t206 -78.5q115 0 187.5 63.5t72.5 158.5q0 51 -24.5 90t-66.5 64.5t-96.5 47t-114.5 41t-119.5 41t-114 53t-96.5 72t-66.5 102t-24.5 138.5q0 184 130 296.5t343 112.5q221 0 333.5 -117t107.5 -315h-244q8 226 -201 226q-97 0 -154 -40.5
t-57 -117.5q0 -49 25 -86t67 -61t97 -43t115 -37.5t120.5 -39.5t115.5 -54t97 -75.5t67 -109.5t25 -152q0 -211 -148.5 -344t-379.5 -133q-247 0 -390.5 142.5t-137.5 380.5h254zM643 -109q186 0 186 -135q0 -87 -71.5 -136.5t-177.5 -49.5q-78 0 -142 22v72q50 -8 107 -8
q45 0 75.5 20.5t30.5 53.5q0 71 -112 71h-25l49 90h80z" />
    <glyph glyph-name="scedilla" unicode="&#x15f;" horiz-adv-x="1069" 
d="M291 381q-3 -98 64.5 -156.5t174.5 -58.5q89 0 151 40t62 109q0 42 -27 72.5t-71.5 47.5t-101.5 34t-116 30.5t-116 38.5t-101.5 57t-71.5 87t-27 127q0 144 109.5 240t307.5 96q87 0 158 -18.5t129 -58t89.5 -109.5t29.5 -166h-221q1 81 -49 124.5t-140 43.5
q-80 0 -128 -32t-48 -93q0 -46 35.5 -78.5t92.5 -51.5t126 -36.5t138.5 -41t126.5 -57t92.5 -92.5t35.5 -139q0 -109 -64 -195t-169.5 -131t-231.5 -45q-66 0 -127.5 10.5t-127 39t-113 73t-77.5 119t-28 170.5h234zM547 -109q186 0 186 -135q0 -87 -71.5 -136.5
t-178.5 -49.5q-75 0 -139 22v72q50 -8 105 -8q45 0 75.5 20.5t30.5 53.5q0 71 -111 71h-26l49 90h80z" />
    <glyph glyph-name="Scaron" unicode="&#x160;" horiz-adv-x="1261" 
d="M303 1812h189l129 -141h20l129 141h188l-253 -268h-148zM365 492q-4 -147 72 -225.5t206 -78.5q115 0 187.5 63.5t72.5 158.5q0 51 -24.5 90t-66.5 64.5t-96.5 47t-114.5 41t-119.5 41t-114 53t-96.5 72t-66.5 102t-24.5 138.5q0 184 130 296.5t343 112.5
q221 0 333.5 -117t107.5 -315h-244q8 226 -201 226q-97 0 -154 -40.5t-57 -117.5q0 -49 25 -86t67 -61t97 -43t115 -37.5t120.5 -39.5t115.5 -54t97 -75.5t67 -109.5t25 -152q0 -211 -148.5 -344t-379.5 -133q-247 0 -390.5 142.5t-137.5 380.5h254z" />
    <glyph glyph-name="scaron" unicode="&#x161;" horiz-adv-x="1069" 
d="M209 1497h188l127 -141h21l129 141h188l-254 -268h-145zM291 381q-3 -98 64.5 -156.5t174.5 -58.5q89 0 151 40t62 109q0 42 -27 72.5t-71.5 47.5t-101.5 34t-116 30.5t-116 38.5t-101.5 57t-71.5 87t-27 127q0 144 109.5 240t307.5 96q87 0 158 -18.5t129 -58
t89.5 -109.5t29.5 -166h-221q1 81 -49 124.5t-140 43.5q-80 0 -128 -32t-48 -93q0 -46 35.5 -78.5t92.5 -51.5t126 -36.5t138.5 -41t126.5 -57t92.5 -92.5t35.5 -139q0 -109 -64 -195t-169.5 -131t-231.5 -45q-66 0 -127.5 10.5t-127 39t-113 73t-77.5 119t-28 170.5h234z
" />
    <glyph glyph-name="uni0162" unicode="&#x162;" horiz-adv-x="1306" 
d="M1206 1434v-228h-430v-1206h-258v1206h-418v228h1106zM666 -109q186 0 186 -135q0 -87 -72 -136.5t-178 -49.5q-77 0 -141 22v72q50 -8 106 -8q45 0 76 20.5t31 53.5q0 71 -113 71h-24l49 90h80z" />
    <glyph glyph-name="uni0163" unicode="&#x163;" horiz-adv-x="788" 
d="M463 -23q-52 0 -94.5 12.5t-80 42t-58.5 85t-21 133.5v688h-158v180h158v285h246v-285h229v-180h-229v-645q0 -105 92 -105q40 0 131 27l29 -168q-27 -23 -95 -46.5t-149 -23.5zM461 -109q186 0 186 -135q0 -87 -72 -136.5t-178 -49.5q-77 0 -141 22v72q50 -8 106 -8
q45 0 76 20.5t31 53.5q0 71 -113 71h-24l49 90h80z" />
    <glyph glyph-name="Tcaron" unicode="&#x164;" horiz-adv-x="1306" 
d="M727 1544h-147l-254 268h188l129 -141h21l129 141h188zM1206 1434v-228h-430v-1206h-258v1206h-418v228h1106z" />
    <glyph glyph-name="tcaron" unicode="&#x165;" horiz-adv-x="1050" 
d="M944 1632q63 0 97 -53.5t34 -146.5q0 -84 -28.5 -162.5t-88.5 -133.5t-139 -55v99q59 6 90 55.5t33 124.5q-46 0 -75 40.5t-29 98.5q0 55 26.5 94t79.5 39zM547 188q40 0 131 27l29 -168q-27 -23 -95 -46.5t-149 -23.5q-52 0 -94.5 12.5t-80 42t-58.5 85t-21 133.5v688
h-158v180h158v285h246v-285h229v-180h-229v-645q0 -105 92 -105z" />
    <glyph glyph-name="Tbar" unicode="&#x166;" horiz-adv-x="1306" 
d="M1206 1206h-430v-411h195v-183h-195v-612h-258v612h-182v183h182v411h-418v228h1106v-228z" />
    <glyph glyph-name="tbar" unicode="&#x167;" horiz-adv-x="788" 
d="M678 215l29 -168q-27 -23 -95 -46.5t-149 -23.5q-52 0 -94.5 12.5t-80 42t-58.5 85t-21 133.5v325h-158v177h158v186h-158v180h158v285h246v-285h229v-180h-229v-186h229v-177h-229v-282q0 -105 92 -105q40 0 131 27z" />
    <glyph glyph-name="Utilde" unicode="&#x168;" horiz-adv-x="1427" 
d="M1032 1804q18 -112 -37 -183t-153 -71q-46 0 -86 19.5t-63.5 43t-51.5 43t-53 19.5q-38 0 -57.5 -29t-6.5 -83h-131q-18 112 38 183t155 71q45 0 85 -19.5t63.5 -43t53 -43t56.5 -19.5q36 0 53 27.5t4 84.5h131zM1280 1434v-916q0 -147 -45.5 -256t-126 -171.5t-179 -92
t-216.5 -29.5q-117 0 -215.5 29.5t-179.5 92t-127 171.5t-46 256v916h258v-897q0 -172 81 -254t229 -82q309 0 309 336v897h258z" />
    <glyph glyph-name="utilde" unicode="&#x169;" horiz-adv-x="1226" 
d="M426 1247h-131q-18 112 37.5 183t154.5 71q45 0 85 -19.5t63.5 -43t53 -43t56.5 -19.5q36 0 53.5 28t4.5 85h131q18 -112 -37 -183t-154 -71q-46 0 -86 19.5t-63.5 43t-51.5 43t-53 19.5q-38 0 -57 -29.5t-6 -83.5zM846 1118h246v-1118h-199l-31 111q-140 -140 -340 -140
q-106 0 -185 33.5t-124 93.5t-66.5 135t-21.5 166v719h246v-655q0 -138 52 -212.5t177 -74.5q65 0 131.5 31.5t114.5 95.5v815z" />
    <glyph glyph-name="Umacron" unicode="&#x16a;" horiz-adv-x="1427" 
d="M459 1720h508v-127h-508v127zM1280 1434v-916q0 -147 -45.5 -256t-126 -171.5t-179 -92t-216.5 -29.5q-117 0 -215.5 29.5t-179.5 92t-127 171.5t-46 256v916h258v-897q0 -172 81 -254t229 -82q309 0 309 336v897h258z" />
    <glyph glyph-name="umacron" unicode="&#x16b;" horiz-adv-x="1226" 
d="M868 1405v-127h-508v127h508zM846 1118h246v-1118h-199l-31 111q-140 -140 -340 -140q-106 0 -185 33.5t-124 93.5t-66.5 135t-21.5 166v719h246v-655q0 -138 52 -212.5t177 -74.5q65 0 131.5 31.5t114.5 95.5v815z" />
    <glyph glyph-name="Ubreve" unicode="&#x16c;" horiz-adv-x="1427" 
d="M565 1812q-2 -38 9 -70.5t46.5 -57.5t92.5 -25q82 0 116.5 46t30.5 107h166q2 -52 -15 -101t-53.5 -89.5t-99.5 -65t-145 -24.5t-145.5 24.5t-99.5 65t-53.5 89.5t-15.5 101h166zM1280 1434v-916q0 -147 -45.5 -256t-126 -171.5t-179 -92t-216.5 -29.5
q-117 0 -215.5 29.5t-179.5 92t-127 171.5t-46 256v916h258v-897q0 -172 81 -254t229 -82q309 0 309 336v897h258z" />
    <glyph glyph-name="ubreve" unicode="&#x16d;" horiz-adv-x="1226" 
d="M614 1217q-82 0 -145 24.5t-99.5 65t-53.5 89.5t-15 101h166q-4 -61 30.5 -107.5t116.5 -46.5t117 46.5t31 107.5h166q2 -52 -15.5 -101t-53.5 -89.5t-99.5 -65t-145.5 -24.5zM846 1118h246v-1118h-199l-31 111q-140 -140 -340 -140q-106 0 -185 33.5t-124 93.5
t-66.5 135t-21.5 166v719h246v-655q0 -138 52 -212.5t177 -74.5q65 0 131.5 31.5t114.5 95.5v815z" />
    <glyph glyph-name="Uring" unicode="&#x16e;" horiz-adv-x="1427" 
d="M713 1497q-89 0 -145 55t-56 140t56.5 139.5t144.5 54.5q89 0 144.5 -54.5t55.5 -139.5t-55.5 -140t-144.5 -55zM713 1589q48 0 75 28.5t27 74.5t-27.5 75t-74.5 29q-46 0 -74.5 -29t-28.5 -75q0 -44 28.5 -73.5t74.5 -29.5zM1280 1434v-916q0 -147 -45.5 -256
t-126 -171.5t-179 -92t-216.5 -29.5q-117 0 -215.5 29.5t-179.5 92t-127 171.5t-46 256v916h258v-897q0 -172 81 -254t229 -82q309 0 309 336v897h258z" />
    <glyph glyph-name="uring" unicode="&#x16f;" horiz-adv-x="1226" 
d="M614 1182q-89 0 -144.5 54.5t-55.5 139.5t56 140t144 55q89 0 145 -55t56 -140t-56 -139.5t-145 -54.5zM614 1481q-45 0 -73.5 -29.5t-28.5 -75.5q0 -44 28 -73t74 -29q48 0 75.5 28.5t27.5 73.5q0 46 -28 75.5t-75 29.5zM846 1118h246v-1118h-199l-31 111
q-140 -140 -340 -140q-106 0 -185 33.5t-124 93.5t-66.5 135t-21.5 166v719h246v-655q0 -138 52 -212.5t177 -74.5q65 0 131.5 31.5t114.5 95.5v815z" />
    <glyph glyph-name="Uhungarumlaut" unicode="&#x170;" horiz-adv-x="1427" 
d="M522 1815h172l-100 -263h-135zM791 1815h174l-103 -263h-133zM1280 1434v-916q0 -147 -45.5 -256t-126 -171.5t-179 -92t-216.5 -29.5q-117 0 -215.5 29.5t-179.5 92t-127 171.5t-46 256v916h258v-897q0 -172 81 -254t229 -82q309 0 309 336v897h258z" />
    <glyph glyph-name="uhungarumlaut" unicode="&#x171;" horiz-adv-x="1226" 
d="M596 1499l-100 -262h-136l64 262h172zM866 1499l-102 -262h-133l61 262h174zM846 1118h246v-1118h-199l-31 111q-140 -140 -340 -140q-106 0 -185 33.5t-124 93.5t-66.5 135t-21.5 166v719h246v-655q0 -138 52 -212.5t177 -74.5q65 0 131.5 31.5t114.5 95.5v815z" />
    <glyph glyph-name="Uogonek" unicode="&#x172;" horiz-adv-x="1427" 
d="M1022 1434h258v-916q0 -122 -31.5 -217.5t-89 -158.5t-130 -102t-163.5 -56q-110 -85 -110 -191q0 -98 98 -98q32 0 72 12l14 -96q-51 -41 -145 -41q-101 0 -159 55.5t-58 136.5q0 54 26 109t72 98q-88 4 -164.5 24t-144.5 62.5t-116.5 104.5t-77 153.5t-28.5 204.5v916
h258v-897q0 -172 81 -254t229 -82q309 0 309 336v897z" />
    <glyph glyph-name="uogonek" unicode="&#x173;" horiz-adv-x="1226" 
d="M1126 -293l15 -96q-51 -41 -146 -41q-101 0 -159 55.5t-58 136.5q0 65 37 130.5t100 107.5h-22l-31 111q-140 -140 -340 -140q-106 0 -185 33.5t-124 93.5t-66.5 135t-21.5 166v719h246v-655q0 -138 52 -212.5t177 -74.5q65 0 131.5 31.5t114.5 95.5v815h246v-1118
q-68 -44 -102 -98t-34 -109q0 -44 24 -71t75 -27q31 0 71 12z" />
    <glyph glyph-name="Wcircumflex" unicode="&#x174;" horiz-adv-x="2082" 
d="M1032 1688l-127 -144h-188l254 268h145l254 -268h-188l-129 144h-21zM1753 1434h268l-391 -1434h-311l-268 1042h-31l-268 -1042h-312l-393 1434h277l272 -1100h25l292 1100h248l293 -1100h27z" />
    <glyph glyph-name="wcircumflex" unicode="&#x175;" horiz-adv-x="1615" 
d="M799 1372l-129 -143h-189l254 268h146l254 -268h-189l-127 143h-20zM1329 1118h252l-315 -1118h-246l-201 766h-20l-199 -766h-244l-315 1118h254l184 -803h21l207 803h211l206 -803h19z" />
    <glyph glyph-name="Ycircumflex" unicode="&#x176;" horiz-adv-x="1249" 
d="M614 1688l-129 -144h-188l254 268h147l254 -268h-188l-129 144h-21zM1229 1434l-475 -787v-647h-258v647l-476 787h287l314 -531h16l319 531h273z" />
    <glyph glyph-name="ycircumflex" unicode="&#x177;" horiz-adv-x="1153" 
d="M565 1372l-129 -143h-188l254 268h147l254 -268h-188l-129 143h-21zM874 1118h250l-428 -1130q-64 -172 -162.5 -275.5t-214.5 -103.5q-117 0 -225 57l39 162q65 -16 137 -16q66 0 116 59t99 178l-458 1069h262l303 -794h18z" />
    <glyph glyph-name="Ydieresis" unicode="&#x178;" horiz-adv-x="1249" 
d="M410 1542q-48 0 -82.5 34t-34.5 83q0 47 35 81t82 34t81.5 -34t34.5 -81q0 -49 -34 -83t-82 -34zM840 1542q-48 0 -82.5 34t-34.5 83q0 47 35 81t82 34t81.5 -34t34.5 -81q0 -49 -34 -83t-82 -34zM1229 1434l-475 -787v-647h-258v647l-476 787h287l314 -531h16l319 531
h273z" />
    <glyph glyph-name="Zacute" unicode="&#x179;" horiz-adv-x="1175" 
d="M545 1806h250l-228 -262h-182zM1049 1434v-213l-639 -973v-17h669v-231h-983v209l641 981v16h-624v228h936z" />
    <glyph glyph-name="zacute" unicode="&#x17a;" horiz-adv-x="985" 
d="M449 1491h249l-227 -262h-182zM385 182h508v-182h-801v156l494 768v12h-477v182h753v-164l-477 -759v-13z" />
    <glyph glyph-name="Zdotaccent" unicode="&#x17b;" horiz-adv-x="1175" 
d="M590 1548q-56 0 -93.5 37t-37.5 94q0 55 37.5 93t93.5 38t93.5 -38t37.5 -93q0 -57 -37.5 -94t-93.5 -37zM1049 1434v-213l-639 -973v-17h669v-231h-983v209l641 981v16h-624v228h936z" />
    <glyph glyph-name="zdotaccent" unicode="&#x17c;" horiz-adv-x="985" 
d="M494 1233q-56 0 -94 37t-38 94q0 55 38 93t94 38t93.5 -37.5t37.5 -93.5q0 -57 -37.5 -94t-93.5 -37zM385 182h508v-182h-801v156l494 768v12h-477v182h753v-164l-477 -759v-13z" />
    <glyph glyph-name="Zcaron" unicode="&#x17d;" horiz-adv-x="1175" 
d="M262 1812h189l129 -141h20l129 141h189l-254 -268h-148zM1049 1434v-213l-639 -973v-17h669v-231h-983v209l641 981v16h-624v228h936z" />
    <glyph glyph-name="zcaron" unicode="&#x17e;" horiz-adv-x="985" 
d="M166 1497h188l129 -141h21l129 141h188l-254 -268h-147zM385 182h508v-182h-801v156l494 768v12h-477v182h753v-164l-477 -759v-13z" />
    <glyph glyph-name="uni018F" unicode="&#x18f;" horiz-adv-x="1396" 
d="M702 1470q103 0 196 -39.5t166 -111.5t126 -168.5t81.5 -215.5t28.5 -247q0 -171 -47.5 -309.5t-130 -227.5t-192 -136.5t-236.5 -47.5q-121 0 -228 47.5t-190 137t-131.5 230t-48.5 314.5v78h936q-15 216 -105 344.5t-229 128.5q-120 0 -201.5 -87t-113.5 -216h-260
q15 98 66 192.5t126 168.5t176.5 119.5t210.5 45.5zM698 195q135 0 221.5 100t108.5 280h-661l4 -2q0 -157 92 -267.5t235 -110.5z" />
    <glyph glyph-name="florin" unicode="&#x192;" horiz-adv-x="1165" 
d="M702 1440q272 0 412 -189l-170 -137q-111 117 -242 117q-103 0 -161 -57t-58 -156q0 -45 27 -230h356l-8 -155h-323q43 -256 43 -379q0 -181 -121 -301.5t-338 -126.5v207q109 6 164 61.5t55 149.5q0 95 -49 389h-152l8 155h119q-20 143 -20 222q0 89 31.5 167.5t89 137
t144.5 92t193 33.5z" />
    <glyph glyph-name="uni019D" unicode="&#x19d;" horiz-adv-x="1419" 
d="M1014 1434h258v-1434h-236l-626 1004h-15v-1092q0 -159 -80.5 -234t-212.5 -75q-113 0 -211 59l29 152q86 -13 105 -13q64 0 88 33t24 119v1481h271l591 -963h15v963z" />
    <glyph glyph-name="Ohorn" unicode="&#x1a0;" horiz-adv-x="1411" 
d="M1315 1444q0 -80 -52.5 -128t-132.5 -48h-26q93 -113 143.5 -271t50.5 -327q0 -165 -48 -300t-130.5 -222t-191 -134t-230.5 -47q-123 0 -231.5 47t-191.5 134t-131 222t-48 300q0 121 26 237t77.5 217.5t122.5 178t168 121t208 44.5q103 0 187 -34q14 -6 37 -15
t31.5 -12.5t23.5 -9t22 -7.5t17 -4.5t18 -3t17 -0.5q65 0 65 66v190h199v-194zM698 199q147 0 240.5 126.5t93.5 350.5q0 153 -40.5 282.5t-118 209t-175.5 79.5q-99 0 -177 -79.5t-118.5 -209t-40.5 -282.5q0 -224 94.5 -350.5t241.5 -126.5z" />
    <glyph glyph-name="ohorn" unicode="&#x1a1;" horiz-adv-x="1222" 
d="M1184 1176q0 -105 -50.5 -157.5t-129.5 -62.5q70 -87 107.5 -200.5t37.5 -237.5q0 -131 -42.5 -237t-116.5 -173t-171 -103t-209 -36t-209 36t-170.5 104t-116 174t-42.5 237q0 97 23 188.5t69 170.5t109.5 138.5t150.5 93.5t186 34q87 0 172 -29h2l35 -14
q64 -25 109 -25q57 0 57 49v185h199v-135zM610 180q137 0 213 87.5t76 256.5q0 179 -77 296.5t-212 117.5t-210.5 -118t-75.5 -296q0 -169 74.5 -256.5t211.5 -87.5z" />
    <glyph glyph-name="Uhorn" unicode="&#x1af;" horiz-adv-x="1640" 
d="M1427 1640h197v-149q0 -62 -19 -109.5t-51 -75t-69 -41.5t-78 -14q-69 0 -127 35v-768q0 -147 -45.5 -256t-126 -171.5t-179 -92t-216.5 -29.5q-117 0 -215.5 29.5t-179.5 92t-127 171.5t-46 256v916h258v-897q0 -172 81 -254t229 -82q309 0 309 336v897h258
q54 -48 96 -48q51 0 51 56v198z" />
    <glyph glyph-name="uhorn" unicode="&#x1b0;" horiz-adv-x="1468" 
d="M1239 1325h197v-149q0 -62 -19 -109.5t-51 -75t-69 -41.5t-78 -14q-69 0 -127 35v-971h-199l-31 111q-140 -140 -340 -140q-106 0 -185 33.5t-124 93.5t-66.5 135t-21.5 166v719h246v-655q0 -138 52 -212.5t177 -74.5q65 0 131.5 31.5t114.5 95.5v815h246q53 -47 96 -47
q51 0 51 55v199z" />
    <glyph glyph-name="uni01CD" unicode="&#x1cd;" horiz-adv-x="1366" 
d="M756 1544h-148l-254 268h189l129 -141h20l129 141h189zM1057 0l-109 346h-532l-109 -346h-270l477 1434h338l477 -1434h-272zM483 563h398l-187 598h-24z" />
    <glyph glyph-name="uni01CE" unicode="&#x1ce;" horiz-adv-x="1193" 
d="M649 1229h-145l-254 268h188l129 -141h21l127 141h188zM594 1145q247 0 355 -117t108 -344v-684h-191l-28 80q-65 -42 -163.5 -71t-195.5 -29q-166 0 -272.5 89t-106.5 261q0 164 103 255t303 91q143 0 305 -43v90q0 229 -219 229q-97 0 -154 -43t-61 -125h-227
q6 168 123 264.5t321 96.5zM346 346q0 -88 53 -130t160 -42q127 0 252 47v264q-154 27 -246 27q-110 0 -164.5 -38.5t-54.5 -127.5z" />
    <glyph glyph-name="uni01CF" unicode="&#x1cf;" horiz-adv-x="567" 
d="M51 1815h142l79 -152h21l82 152h141l-160 -269h-145zM154 1434h258v-1434h-258v1434z" />
    <glyph glyph-name="uni01D0" unicode="&#x1d0;" horiz-adv-x="514" 
d="M25 1497h141l80 -151h20l82 151h141l-159 -268h-146zM133 1118h246v-1118h-246v1118z" />
    <glyph glyph-name="uni01D1" unicode="&#x1d1;" horiz-adv-x="1396" 
d="M371 1812h188l129 -141h21l129 141h188l-254 -268h-147zM96 670q0 121 26 237t77.5 217.5t122.5 178t168 121t208 44.5q110 0 207 -44.5t167.5 -121t122 -178t77.5 -217.5t26 -237q0 -165 -48 -300t-130.5 -222t-191 -134t-230.5 -47q-123 0 -231.5 47t-191.5 134
t-131 222t-48 300zM362 676q0 -224 94.5 -350.5t241.5 -126.5t240.5 126.5t93.5 350.5q0 153 -40.5 282.5t-118 209t-175.5 79.5q-99 0 -177 -79.5t-118.5 -209t-40.5 -282.5z" />
    <glyph glyph-name="uni01D2" unicode="&#x1d2;" horiz-adv-x="1222" 
d="M283 1497h188l129 -141h21l129 141h188l-254 -268h-147zM72 520q0 97 23 188.5t69 170.5t109.5 138.5t150.5 93.5t186 34q123 0 226 -52t170.5 -139.5t105 -200t37.5 -235.5q0 -131 -42.5 -237t-116.5 -173t-171 -103t-209 -36t-209 36t-170.5 104t-116 174t-42.5 237z
M324 524q0 -169 74.5 -256.5t211.5 -87.5t213 87.5t76 256.5q0 179 -77 296.5t-212 117.5t-210.5 -118t-75.5 -296z" />
    <glyph glyph-name="uni01D3" unicode="&#x1d3;" horiz-adv-x="1427" 
d="M385 1812h188l129 -141h21l129 141h188l-254 -268h-147zM1280 1434v-916q0 -147 -45.5 -256t-126 -171.5t-179 -92t-216.5 -29.5q-117 0 -215.5 29.5t-179.5 92t-127 171.5t-46 256v916h258v-897q0 -172 81 -254t229 -82q309 0 309 336v897h258z" />
    <glyph glyph-name="uni01D4" unicode="&#x1d4;" horiz-adv-x="1226" 
d="M688 1229h-147l-254 268h188l129 -141h21l129 141h188zM846 1118h246v-1118h-199l-31 111q-140 -140 -340 -140q-106 0 -185 33.5t-124 93.5t-66.5 135t-21.5 166v719h246v-655q0 -138 52 -212.5t177 -74.5q65 0 131.5 31.5t114.5 95.5v815z" />
    <glyph glyph-name="uni01D5" unicode="&#x1d5;" horiz-adv-x="1427" 
d="M459 1985h508v-127h-508v127zM498 1542q-48 0 -82.5 34t-34.5 83q0 47 35 81t82 34t81.5 -34t34.5 -81q0 -49 -34 -83t-82 -34zM928 1542q-48 0 -82.5 34t-34.5 83q0 47 35 81t82 34t81.5 -34t34.5 -81q0 -49 -34 -83t-82 -34zM1280 1434v-916q0 -147 -45.5 -256
t-126 -171.5t-179 -92t-216.5 -29.5q-117 0 -215.5 29.5t-179.5 92t-127 171.5t-46 256v916h258v-897q0 -172 81 -254t229 -82q309 0 309 336v897h258z" />
    <glyph glyph-name="uni01D6" unicode="&#x1d6;" horiz-adv-x="1226" 
d="M868 1669v-127h-508v127h508zM399 1227q-48 0 -82 33.5t-34 82.5q0 47 34.5 81t81.5 34t82 -34t35 -81q0 -49 -34.5 -82.5t-82.5 -33.5zM713 1343q0 47 34.5 81t81.5 34t82 -34t35 -81q0 -49 -34.5 -82.5t-82.5 -33.5t-82 33.5t-34 82.5zM846 1118h246v-1118h-199
l-31 111q-140 -140 -340 -140q-106 0 -185 33.5t-124 93.5t-66.5 135t-21.5 166v719h246v-655q0 -138 52 -212.5t177 -74.5q65 0 131.5 31.5t114.5 95.5v815z" />
    <glyph glyph-name="uni01D7" unicode="&#x1d7;" horiz-adv-x="1427" 
d="M668 2071h250l-228 -263h-182zM498 1542q-48 0 -82.5 34t-34.5 83q0 47 35 81t82 34t81.5 -34t34.5 -81q0 -49 -34 -83t-82 -34zM928 1542q-48 0 -82.5 34t-34.5 83q0 47 35 81t82 34t81.5 -34t34.5 -81q0 -49 -34 -83t-82 -34zM1280 1434v-916q0 -147 -45.5 -256
t-126 -171.5t-179 -92t-216.5 -29.5q-117 0 -215.5 29.5t-179.5 92t-127 171.5t-46 256v916h258v-897q0 -172 81 -254t229 -82q309 0 309 336v897h258z" />
    <glyph glyph-name="uni01D8" unicode="&#x1d8;" horiz-adv-x="1226" 
d="M819 1755l-227 -262h-182l159 262h250zM399 1227q-48 0 -82 33.5t-34 82.5q0 47 34.5 81t81.5 34t82 -34t35 -81q0 -49 -34.5 -82.5t-82.5 -33.5zM713 1343q0 47 34.5 81t81.5 34t82 -34t35 -81q0 -49 -34.5 -82.5t-82.5 -33.5t-82 33.5t-34 82.5zM846 1118h246v-1118
h-199l-31 111q-140 -140 -340 -140q-106 0 -185 33.5t-124 93.5t-66.5 135t-21.5 166v719h246v-655q0 -138 52 -212.5t177 -74.5q65 0 131.5 31.5t114.5 95.5v815z" />
    <glyph glyph-name="uni01D9" unicode="&#x1d9;" horiz-adv-x="1427" 
d="M385 2077h188l129 -142h21l129 142h188l-254 -269h-147zM498 1542q-48 0 -82.5 34t-34.5 83q0 47 35 81t82 34t81.5 -34t34.5 -81q0 -49 -34 -83t-82 -34zM928 1542q-48 0 -82.5 34t-34.5 83q0 47 35 81t82 34t81.5 -34t34.5 -81q0 -49 -34 -83t-82 -34zM1280 1434v-916
q0 -147 -45.5 -256t-126 -171.5t-179 -92t-216.5 -29.5q-117 0 -215.5 29.5t-179.5 92t-127 171.5t-46 256v916h258v-897q0 -172 81 -254t229 -82q309 0 309 336v897h258z" />
    <glyph glyph-name="uni01DA" unicode="&#x1da;" horiz-adv-x="1226" 
d="M688 1493h-147l-254 268h188l129 -141h21l129 141h188zM399 1227q-48 0 -82 33.5t-34 82.5q0 47 34.5 81t81.5 34t82 -34t35 -81q0 -49 -34.5 -82.5t-82.5 -33.5zM829 1458q47 0 82 -34t35 -81q0 -49 -34.5 -82.5t-82.5 -33.5t-82 33.5t-34 82.5q0 47 34.5 81t81.5 34z
M846 1118h246v-1118h-199l-31 111q-140 -140 -340 -140q-106 0 -185 33.5t-124 93.5t-66.5 135t-21.5 166v719h246v-655q0 -138 52 -212.5t177 -74.5q65 0 131.5 31.5t114.5 95.5v815z" />
    <glyph glyph-name="uni01DB" unicode="&#x1db;" horiz-adv-x="1427" 
d="M758 2071l160 -263h-183l-227 263h250zM498 1542q-48 0 -82.5 34t-34.5 83q0 47 35 81t82 34t81.5 -34t34.5 -81q0 -49 -34 -83t-82 -34zM928 1542q-48 0 -82.5 34t-34.5 83q0 47 35 81t82 34t81.5 -34t34.5 -81q0 -49 -34 -83t-82 -34zM1280 1434v-916
q0 -147 -45.5 -256t-126 -171.5t-179 -92t-216.5 -29.5q-117 0 -215.5 29.5t-179.5 92t-127 171.5t-46 256v916h258v-897q0 -172 81 -254t229 -82q309 0 309 336v897h258z" />
    <glyph glyph-name="uni01DC" unicode="&#x1dc;" horiz-adv-x="1226" 
d="M819 1493h-182l-227 262h249zM399 1227q-48 0 -82 33.5t-34 82.5q0 47 34.5 81t81.5 34t82 -34t35 -81q0 -49 -34.5 -82.5t-82.5 -33.5zM713 1343q0 47 34.5 81t81.5 34t82 -34t35 -81q0 -49 -34.5 -82.5t-82.5 -33.5t-82 33.5t-34 82.5zM846 1118h246v-1118h-199
l-31 111q-140 -140 -340 -140q-106 0 -185 33.5t-124 93.5t-66.5 135t-21.5 166v719h246v-655q0 -138 52 -212.5t177 -74.5q65 0 131.5 31.5t114.5 95.5v815z" />
    <glyph glyph-name="Gcaron" unicode="&#x1e6;" horiz-adv-x="1396" 
d="M371 1812h188l129 -141h21l129 141h188l-254 -268h-147zM707 780h557v-272q0 -80 -20 -156t-63.5 -146.5t-106.5 -123t-155.5 -84t-203.5 -31.5q-286 0 -451.5 195.5t-165.5 521.5q0 111 20.5 218.5t68 211t117 181.5t175.5 125.5t236 47.5q118 0 215 -43.5t160.5 -117
t102 -164.5t48.5 -193h-254q-15 131 -86.5 215t-195.5 84q-91 0 -160 -48t-108 -130.5t-58 -178.5t-19 -204q0 -244 96 -365.5t267 -121.5q80 0 140 27t92.5 71.5t47.5 93.5t15 103v73h-311v211z" />
    <glyph glyph-name="gcaron" unicode="&#x1e7;" horiz-adv-x="1202" 
d="M676 1229h-148l-254 268h189l129 -141h20l129 141h189zM879 1118h190v-1014q0 -108 -27.5 -194t-74.5 -142.5t-113 -93.5t-140 -53t-159 -16q-204 0 -391 88l55 190q174 -71 336 -71q134 0 201 68t67 220v15q-125 -78 -278 -78q-100 0 -185.5 33t-150 96.5t-101 164
t-36.5 228.5q0 92 18.5 176.5t57 158.5t93 128.5t132 85.5t168.5 31q154 0 309 -107zM623 231q103 0 200 39v611q-97 57 -209 57q-81 0 -139.5 -31t-90.5 -85.5t-46 -116.5t-14 -136q0 -175 76 -256.5t223 -81.5z" />
    <glyph glyph-name="uni01EA" unicode="&#x1ea;" horiz-adv-x="1396" 
d="M821 -20q-106 -82 -106 -187q0 -98 98 -98q32 0 72 12l14 -96q-51 -41 -145 -41q-101 0 -159 55.5t-58 136.5q0 54 26.5 110.5t73.5 98.5q-113 11 -211 62.5t-171.5 138t-116 215t-42.5 283.5q0 121 26 237t77.5 217.5t122.5 178t168 121t208 44.5q110 0 207 -44.5
t167.5 -121t122 -178t77.5 -217.5t26 -237q0 -284 -133.5 -465.5t-343.5 -224.5zM362 676q0 -224 94.5 -350.5t241.5 -126.5t240.5 126.5t93.5 350.5q0 153 -40.5 282.5t-118 209t-175.5 79.5q-99 0 -177 -79.5t-118.5 -209t-40.5 -282.5z" />
    <glyph glyph-name="uni01EB" unicode="&#x1eb;" horiz-adv-x="1222" 
d="M764 -12q-117 -84 -117 -195q0 -98 98 -98q32 0 72 12l14 -96q-51 -41 -145 -41q-101 0 -159 55.5t-58 136.5q0 54 26.5 110.5t73.5 98.5q-105 6 -194.5 44.5t-157.5 106.5t-106.5 170t-38.5 228q0 97 23 188.5t69 170.5t109.5 138.5t150.5 93.5t186 34q123 0 226 -52
t170.5 -139.5t105 -200t37.5 -235.5q0 -213 -106 -350t-279 -180zM324 524q0 -169 74.5 -256.5t211.5 -87.5t213 87.5t76 256.5q0 179 -77 296.5t-212 117.5t-210.5 -118t-75.5 -296z" />
    <glyph glyph-name="Aringacute" unicode="&#x1fa;" horiz-adv-x="1370" 
d="M1057 0l-109 346h-532l-109 -346h-270l461 1382q-74 67 -74 177q0 106 65 174l146 237h250l-142 -164q88 -19 143.5 -85t55.5 -162q0 -112 -74 -177l461 -1382h-272zM813 1563q0 61 -37.5 98t-93.5 37t-93.5 -37t-37.5 -98q0 -59 36 -93t95 -34t95 34t36 93zM483 563h398
l-187 598h-24z" />
    <glyph glyph-name="aringacute" unicode="&#x1fb;" horiz-adv-x="1185" 
d="M823 1108q123 -46 178.5 -152.5t55.5 -271.5v-684h-191l-28 80q-65 -42 -163.5 -71t-195.5 -29q-166 0 -272.5 89t-106.5 261q0 164 103 255t303 91q143 0 305 -43v90q0 229 -219 229q-97 0 -154 -43t-61 -125h-227q5 126 72 212.5t190 123.5q-47 59 -47 148q0 97 57 164
l162 262h250l-156 -178q89 -18 146 -84.5t57 -163.5q0 -99 -58 -160zM754 1272q0 60 -37 97.5t-94 37.5t-94 -37.5t-37 -97.5q0 -59 36 -93t95 -34t95 34t36 93zM346 346q0 -88 53 -130t160 -42q127 0 252 47v264q-154 27 -246 27q-110 0 -164.5 -38.5t-54.5 -127.5z" />
    <glyph glyph-name="AEacute" unicode="&#x1fc;" horiz-adv-x="1777" 
d="M1094 1806l-228 -262h-182l160 262h250zM1638 1206h-710l114 -346h570v-225l-494 -4l133 -400h387v-231h-581l-109 346h-532l-109 -346h-270l477 1434h1124v-228zM483 563h398l-187 598h-24z" />
    <glyph glyph-name="aeacute" unicode="&#x1fd;" horiz-adv-x="1941" 
d="M1171 1491l-227 -262h-182l160 262h249zM1847 569v-61h-786q7 -180 89 -258t212 -78q109 0 174 60t86 149h219q-17 -183 -152.5 -297.5t-330.5 -114.5q-116 0 -220.5 40.5t-179.5 117.5q-105 -74 -227.5 -110.5t-234.5 -36.5q-175 0 -285.5 88.5t-110.5 259.5
q0 165 105.5 256.5t308.5 91.5q144 0 299 -43v65q0 132 -53.5 193t-167.5 61q-96 0 -153.5 -43t-61.5 -125h-225q5 169 123.5 265t332.5 96q262 0 353 -170q143 170 380 170q108 0 198.5 -35t160 -104t108.5 -181t39 -256zM1337 952q-111 0 -176 -72.5t-88 -195.5h522
q-1 125 -72 196.5t-186 71.5zM561 174q165 0 299 100q-43 94 -49 211q-143 27 -240 27q-109 0 -167 -38.5t-58 -127.5q0 -172 215 -172z" />
    <glyph glyph-name="Oslashacute" unicode="&#x1fe;" horiz-adv-x="1396" 
d="M903 1806l-227 -262h-182l159 262h250zM1100 1272q95 -114 146.5 -272.5t51.5 -329.5q0 -165 -48 -300t-130.5 -222t-191 -134t-230.5 -47q-166 0 -303 84l-49 -86l-123 70l62 104q-89 92 -139 227.5t-50 303.5q0 121 26 237t77.5 217.5t122.5 178t168 121t208 44.5
q160 0 297 -96l56 96l123 -69zM362 676q0 -174 62 -295l453 784q-79 82 -179 82q-99 0 -177 -79.5t-118.5 -209t-40.5 -282.5zM698 199q147 0 240.5 126.5t93.5 350.5q0 205 -69 358l-447 -772q78 -63 182 -63z" />
    <glyph glyph-name="oslashacute" unicode="&#x1ff;" horiz-adv-x="1222" 
d="M815 1491l-227 -262h-182l159 262h250zM946 1018q97 -88 150 -220t53 -280q0 -131 -42.5 -237t-116.5 -173t-171 -103t-209 -36q-131 0 -241 49l-62 -106l-102 59l61 107q-194 150 -194 442q0 97 23 188.5t69 170.5t109.5 138.5t150.5 93.5t186 34q131 0 238 -58l67 115
l103 -61zM324 524q0 -153 61 -239l356 616q-55 37 -131 37q-135 0 -210.5 -118t-75.5 -296zM610 180q137 0 213 87.5t76 256.5q0 173 -72 289l-350 -606q59 -27 133 -27z" />
    <glyph glyph-name="uni0218" unicode="&#x218;" horiz-adv-x="1261" 
d="M365 492q-4 -147 72 -225.5t206 -78.5q115 0 187.5 63.5t72.5 158.5q0 51 -24.5 90t-66.5 64.5t-96.5 47t-114.5 41t-119.5 41t-114 53t-96.5 72t-66.5 102t-24.5 138.5q0 184 130 296.5t343 112.5q221 0 333.5 -117t107.5 -315h-244q8 226 -201 226q-97 0 -154 -40.5
t-57 -117.5q0 -49 25 -86t67 -61t97 -43t115 -37.5t120.5 -39.5t115.5 -54t97 -75.5t67 -109.5t25 -152q0 -211 -148.5 -344t-379.5 -133q-247 0 -390.5 142.5t-137.5 380.5h254zM629 -68q44 0 74 -37t30 -98q0 -76 -45.5 -134t-126.5 -93l-24 72q35 14 55.5 40.5t19.5 57.5
q-29 0 -56.5 23.5t-27.5 66.5q0 40 29 71t72 31z" />
    <glyph glyph-name="uni0219" unicode="&#x219;" horiz-adv-x="1069" 
d="M291 381q-3 -98 64.5 -156.5t174.5 -58.5q89 0 151 40t62 109q0 42 -27 72.5t-71.5 47.5t-101.5 34t-116 30.5t-116 38.5t-101.5 57t-71.5 87t-27 127q0 144 109.5 240t307.5 96q87 0 158 -18.5t129 -58t89.5 -109.5t29.5 -166h-221q1 81 -49 124.5t-140 43.5
q-80 0 -128 -32t-48 -93q0 -46 35.5 -78.5t92.5 -51.5t126 -36.5t138.5 -41t126.5 -57t92.5 -92.5t35.5 -139q0 -109 -64 -195t-169.5 -131t-231.5 -45q-66 0 -127.5 10.5t-127 39t-113 73t-77.5 119t-28 170.5h234zM532 -68q46 0 76.5 -37t30.5 -98q0 -76 -45.5 -134
t-126.5 -93l-27 72q36 13 57 40t19 58q-29 0 -56.5 23.5t-27.5 66.5q0 40 28.5 71t71.5 31z" />
    <glyph glyph-name="uni021A" unicode="&#x21a;" horiz-adv-x="1306" 
d="M1206 1434v-228h-430v-1206h-258v1206h-418v228h1106zM651 -68q44 0 74.5 -37t30.5 -98q0 -76 -45.5 -134t-126.5 -93l-25 72q35 14 56 40.5t20 57.5q-29 0 -56.5 23.5t-27.5 66.5q0 40 28.5 71t71.5 31z" />
    <glyph glyph-name="uni021B" unicode="&#x21b;" horiz-adv-x="788" 
d="M707 47q-27 -23 -95 -46.5t-149 -23.5q-52 0 -94.5 12.5t-80 42t-58.5 85t-21 133.5v688h-158v180h158v285h246v-285h229v-180h-229v-645q0 -105 92 -105q40 0 131 27zM446 -68q44 0 74.5 -37t30.5 -98q0 -76 -45.5 -134t-126.5 -93l-25 72q35 14 56 40.5t20 57.5
q-29 0 -56.5 23.5t-27.5 66.5q0 40 28.5 71t71.5 31z" />
    <glyph glyph-name="uni0232" unicode="&#x232;" horiz-adv-x="1249" 
d="M879 1720v-127h-508v127h508zM1229 1434l-475 -787v-647h-258v647l-476 787h287l314 -531h16l319 531h273z" />
    <glyph glyph-name="uni0233" unicode="&#x233;" horiz-adv-x="1153" 
d="M829 1405v-127h-507v127h507zM874 1118h250l-428 -1130q-64 -172 -162.5 -275.5t-214.5 -103.5q-117 0 -225 57l39 162q65 -16 137 -16q66 0 116 59t99 178l-458 1069h262l303 -794h18z" />
    <glyph glyph-name="uni0237" unicode="&#x237;" horiz-adv-x="518" 
d="M137 1118h246v-1206q0 -161 -75.5 -235t-205.5 -74q-113 0 -211 59l29 152q86 -13 105 -13q64 0 88 33t24 119v1165z" />
    <glyph glyph-name="uni0259" unicode="&#x259;" horiz-adv-x="1204" 
d="M590 1145q78 0 154 -22t146.5 -69.5t124.5 -115t86 -166.5t32 -217q0 -121 -34 -226t-98.5 -186t-167.5 -127.5t-233 -46.5q-112 0 -207 36t-167.5 105.5t-113 181t-40.5 253.5v57h807q-6 93 -33 161.5t-68.5 106t-88.5 55t-101 17.5q-57 0 -103.5 -19.5t-77 -54
t-49 -65.5t-34.5 -70h-230q17 81 60 155t105.5 131.5t148.5 91.5t182 34zM598 158q117 0 186 75t90 211h-550q0 -132 76.5 -209t197.5 -77z" />
    <glyph glyph-name="uni0272" unicode="&#x272;" horiz-adv-x="1239" 
d="M739 1135q98 0 170.5 -31.5t114 -87.5t61 -125t19.5 -152v-739h-246v657q0 137 -49 207t-166 70q-74 0 -143 -31.5t-117 -97.5v-832q0 -161 -75.5 -235t-205.5 -74q-111 0 -211 60l29 151q80 -12 105 -12q64 0 88 33t24 118v1104h221l15 -123q75 70 171 105t195 35z" />
    <glyph glyph-name="circumflex" unicode="&#x2c6;" horiz-adv-x="1216" 
d="M281 1223l254 268h147l254 -268h-188l-130 141h-20l-129 -141h-188z" />
    <glyph glyph-name="caron" unicode="&#x2c7;" horiz-adv-x="1216" 
d="M281 1497h188l129 -141h20l130 141h188l-254 -268h-147z" />
    <glyph glyph-name="breve" unicode="&#x2d8;" horiz-adv-x="1216" 
d="M461 1497q-4 -61 30.5 -107.5t116.5 -46.5t117 46.5t31 107.5h166q2 -52 -15.5 -101t-53.5 -89.5t-99.5 -65t-145.5 -24.5t-145 24.5t-99.5 65t-53.5 89.5t-15 101h166z" />
    <glyph glyph-name="dotaccent" unicode="&#x2d9;" horiz-adv-x="1216" 
d="M608 1225q-56 0 -93.5 37t-37.5 94q0 56 37.5 93.5t93.5 37.5t93.5 -37.5t37.5 -93.5q0 -57 -37.5 -94t-93.5 -37z" />
    <glyph glyph-name="ring" unicode="&#x2da;" horiz-adv-x="1216" 
d="M608 1174q-89 0 -144.5 54.5t-55.5 139.5t56 140t144 55q89 0 145 -55t56 -140t-56 -139.5t-145 -54.5zM608 1266q48 0 75.5 28.5t27.5 73.5q0 46 -28 75.5t-75 29.5q-45 0 -73.5 -29.5t-28.5 -75.5q0 -44 28 -73t74 -29z" />
    <glyph glyph-name="ogonek" unicode="&#x2db;" horiz-adv-x="1214" 
d="M588 14l139 -2l12 -12q-135 -88 -135 -207q0 -98 98 -98q32 0 72 12l14 -96q-51 -41 -145 -41q-101 0 -159 55.5t-58 136.5q0 71 44.5 142t117.5 110z" />
    <glyph glyph-name="tilde" unicode="&#x2dc;" horiz-adv-x="1196" 
d="M918 1481q18 -112 -37 -183t-154 -71q-46 0 -86 19.5t-63.5 43t-51.5 43t-53 19.5q-38 0 -57 -29.5t-6 -83.5h-131q-18 112 37.5 183t154.5 71q45 0 85 -19.5t63.5 -43t53 -43t56.5 -19.5q36 0 53 28t4 85h132z" />
    <glyph glyph-name="hungarumlaut" unicode="&#x2dd;" horiz-adv-x="1218" 
d="M420 1491h172l-100 -262h-136zM688 1491h174l-102 -262h-133z" />
    <glyph glyph-name="gravecomb" unicode="&#x300;" horiz-adv-x="0" 
d="M-563 1491l160 -262h-183l-227 262h250z" />
    <glyph glyph-name="acutecomb" unicode="&#x301;" horiz-adv-x="0" 
d="M-653 1491h250l-228 -262h-182z" />
    <glyph glyph-name="uni0302" unicode="&#x302;" horiz-adv-x="0" 
d="M-936 1229l254 268h147l254 -268h-188l-129 143h-20l-130 -143h-188z" />
    <glyph glyph-name="tildecomb" unicode="&#x303;" horiz-adv-x="0" 
d="M-279 1481q18 -112 -37 -183t-153 -71q-46 0 -86 19.5t-63.5 43t-51.5 43t-53 19.5q-38 0 -57 -29.5t-6 -83.5h-132q-18 112 38 183t155 71q45 0 85 -19.5t63.5 -43t53 -43t56.5 -19.5q36 0 53 28t4 85h131z" />
    <glyph glyph-name="uni0304" unicode="&#x304;" horiz-adv-x="0" 
d="M-862 1397h508v-127h-508v127z" />
    <glyph glyph-name="uni0306" unicode="&#x306;" horiz-adv-x="0" 
d="M-756 1497q-4 -61 31 -107.5t117 -46.5t116.5 46.5t30.5 107.5h166q2 -52 -15 -101t-53.5 -89.5t-99.5 -65t-145 -24.5t-145.5 24.5t-99.5 65t-53.5 89.5t-15.5 101h166z" />
    <glyph glyph-name="uni0307" unicode="&#x307;" horiz-adv-x="0" 
d="M-608 1225q-56 0 -93.5 37t-37.5 94q0 56 37.5 93.5t93.5 37.5t93.5 -37.5t37.5 -93.5q0 -57 -37.5 -94t-93.5 -37z" />
    <glyph glyph-name="uni0308" unicode="&#x308;" horiz-adv-x="0" 
d="M-823 1227q-48 0 -82.5 33.5t-34.5 82.5q0 47 35 81t82 34t81.5 -34t34.5 -81q0 -49 -34 -82.5t-82 -33.5zM-393 1227q-48 0 -82.5 33.5t-34.5 82.5q0 47 35 81t82 34t82 -34t35 -81q0 -49 -34.5 -82.5t-82.5 -33.5z" />
    <glyph glyph-name="hookabovecomb" unicode="&#x309;" horiz-adv-x="0" 
d="M-797 1509q79 23 152 23q99 0 156 -35.5t57 -103.5q0 -161 -264 -187v74q48 14 70 32.5t22 49.5q0 63 -84 63q-21 0 -109 -18v102z" />
    <glyph glyph-name="uni030A" unicode="&#x30a;" horiz-adv-x="0" 
d="M-608 1174q-89 0 -145 54.5t-56 139.5t56.5 140t144.5 55q89 0 144.5 -55t55.5 -140t-55.5 -139.5t-144.5 -54.5zM-608 1266q48 0 75 28t27 74t-27.5 75.5t-74.5 29.5q-46 0 -74.5 -29.5t-28.5 -75.5q0 -44 28.5 -73t74.5 -29z" />
    <glyph glyph-name="uni030B" unicode="&#x30b;" horiz-adv-x="0" 
d="M-799 1491h172l-100 -262h-135zM-530 1491h174l-103 -262h-133z" />
    <glyph glyph-name="uni030C" unicode="&#x30c;" horiz-adv-x="0" 
d="M-936 1497h188l130 -141h20l129 141h188l-254 -268h-147z" />
    <glyph glyph-name="uni0312" unicode="&#x312;" horiz-adv-x="0" 
d="M-328 1221q-41 0 -69.5 34t-28.5 91q0 66 43 118.5t117 85.5l24 -67q-33 -13 -52 -36.5t-19 -47.5q27 0 53.5 -22t26.5 -62q0 -37 -27.5 -65.5t-67.5 -28.5z" />
    <glyph glyph-name="uni031B" unicode="&#x31b;" horiz-adv-x="0" 
d="M-408 1325v-149q0 -62 -19 -109.5t-51 -75t-69 -41.5t-78 -14q-112 0 -176 76v106h49q53 -47 97 -47q51 0 51 55v199h196z" />
    <glyph glyph-name="dotbelowcomb" unicode="&#x323;" horiz-adv-x="0" 
d="M-621 -354q-55 0 -93 38t-38 93q0 57 37.5 94t93.5 37t94 -37t38 -94q0 -55 -38 -93t-94 -38z" />
    <glyph glyph-name="uni0326" unicode="&#x326;" horiz-adv-x="0" 
d="M-616 -68q44 0 74 -37t30 -98q0 -76 -45.5 -134t-126.5 -93l-25 72q35 14 56 40.5t20 57.5q-29 0 -56.5 23.5t-27.5 66.5q0 40 29 71t72 31z" />
    <glyph glyph-name="uni0327" unicode="&#x327;" horiz-adv-x="0" 
d="M-598 -109q186 0 186 -135q0 -87 -72 -136.5t-178 -49.5q-77 0 -141 22v72q50 -8 107 -8q45 0 75.5 20.5t30.5 53.5q0 71 -112 71h-25l49 90h80z" />
    <glyph glyph-name="uni0328" unicode="&#x328;" horiz-adv-x="0" 
d="M-627 14l140 -2l12 -12q-135 -88 -135 -207q0 -98 98 -98q32 0 72 12l14 -96q-51 -41 -145 -41q-101 0 -159 55.5t-58 136.5q0 71 44 142t117 110z" />
    <glyph glyph-name="uni0394" unicode="&#x394;" horiz-adv-x="1392" 
d="M801 1434l518 -1239v-195h-1245v195l518 1239h209zM297 195h799l-394 968h-12z" />
    <glyph glyph-name="uni03A9" unicode="&#x3a9;" horiz-adv-x="1302" 
d="M1229 700q0 -179 -74 -319t-197 -215l269 29v-195h-498v141q104 41 174 209.5t70 362.5q0 235 -90 382.5t-232 147.5t-231.5 -148t-89.5 -382q0 -191 68 -358t169 -214h6v-141h-495v195l266 -29q-123 74 -196.5 214.5t-73.5 319.5q0 206 74 380t207.5 277t295.5 103
q163 0 296.5 -104t207.5 -277.5t74 -378.5z" />
    <glyph glyph-name="uni03BC" unicode="&#x3bc;" horiz-adv-x="1226" 
d="M1092 305q0 -127 135 -127v-180q-140 2 -223 33.5t-121 99.5q-69 -80 -159 -120t-185 -40q-91 0 -170 37v-370h-244v1480h246v-655q0 -138 52 -212.5t177 -74.5q65 0 131.5 31.5t114.5 95.5v815h246v-813z" />
    <glyph glyph-name="pi" unicode="&#x3c0;" horiz-adv-x="1347" 
d="M1237 215l29 -168q-27 -23 -95 -46.5t-149 -23.5q-52 0 -94.5 12.5t-80 42t-58.5 85t-21 133.5v688h-297v-938h-250v938h-170v180h1192v-180h-229v-645q0 -105 92 -105q47 0 131 27z" />
    <glyph glyph-name="Wgrave" unicode="&#x1e80;" horiz-adv-x="2082" 
d="M1249 1544h-182l-229 262h249zM1753 1434h268l-391 -1434h-311l-268 1042h-31l-268 -1042h-312l-393 1434h277l272 -1100h25l292 1100h248l293 -1100h27z" />
    <glyph glyph-name="wgrave" unicode="&#x1e81;" horiz-adv-x="1615" 
d="M1014 1229h-183l-229 262h250zM1329 1118h252l-315 -1118h-246l-201 766h-20l-199 -766h-244l-315 1118h254l184 -803h21l207 803h211l206 -803h19z" />
    <glyph glyph-name="Wacute" unicode="&#x1e82;" horiz-adv-x="2082" 
d="M1249 1806l-229 -262h-182l161 262h250zM1753 1434h268l-391 -1434h-311l-268 1042h-31l-268 -1042h-312l-393 1434h277l272 -1100h25l292 1100h248l293 -1100h27z" />
    <glyph glyph-name="wacute" unicode="&#x1e83;" horiz-adv-x="1615" 
d="M1014 1491l-230 -262h-182l162 262h250zM1329 1118h252l-315 -1118h-246l-201 766h-20l-199 -766h-244l-315 1118h254l184 -803h21l207 803h211l206 -803h19z" />
    <glyph glyph-name="Wdieresis" unicode="&#x1e84;" horiz-adv-x="2082" 
d="M827 1542q-47 0 -80.5 34t-33.5 83q0 47 33.5 81t80.5 34q49 0 83 -33.5t34 -81.5q0 -49 -34 -83t-83 -34zM1257 1542q-47 0 -80.5 34t-33.5 83q0 47 33.5 81t80.5 34q49 0 83 -33.5t34 -81.5q0 -49 -34 -83t-83 -34zM1753 1434h268l-391 -1434h-311l-268 1042h-31
l-268 -1042h-312l-393 1434h277l272 -1100h25l292 1100h248l293 -1100h27z" />
    <glyph glyph-name="wdieresis" unicode="&#x1e85;" horiz-adv-x="1615" 
d="M594 1227q-50 0 -83.5 33.5t-33.5 82.5q0 48 34 81.5t83 33.5q47 0 81 -34t34 -81q0 -49 -33.5 -82.5t-81.5 -33.5zM1024 1227q-50 0 -83.5 33.5t-33.5 82.5q0 48 34 81.5t83 33.5q47 0 81 -34t34 -81q0 -49 -33.5 -82.5t-81.5 -33.5zM1329 1118h252l-315 -1118h-246
l-201 766h-20l-199 -766h-244l-315 1118h254l184 -803h21l207 803h211l206 -803h19z" />
    <glyph glyph-name="Germandbls" unicode="&#x1e9e;" horiz-adv-x="1441" 
d="M1016 895q54 -25 97 -51.5t88.5 -67t76 -86.5t50.5 -110t20 -138q0 -215 -145.5 -342t-371.5 -127q-91 0 -174.5 22.5t-140.5 65.5l70 195q58 -31 130.5 -49.5t127.5 -18.5q108 0 175.5 62.5t67.5 165.5q0 101 -75 179t-250 138v113l209 338q-168 71 -320 71
q-60 0 -102 -13.5t-75.5 -48.5t-49.5 -99.5t-16 -161.5v-932h-258v928q3 538 489 538q175 0 336 -58t276 -138z" />
    <glyph glyph-name="uni1EA0" unicode="&#x1ea0;" horiz-adv-x="1366" 
d="M1329 0h-272l-109 346h-532l-109 -346h-270l477 1434h338zM483 563h398l-187 598h-24zM676 -92q56 0 93.5 -37t37.5 -94q0 -55 -37.5 -93t-93.5 -38t-93.5 38t-37.5 93q0 57 37.5 94t93.5 37z" />
    <glyph glyph-name="uni1EA1" unicode="&#x1ea1;" horiz-adv-x="1193" 
d="M594 1145q247 0 355 -117t108 -344v-684h-191l-28 80q-65 -42 -163.5 -71t-195.5 -29q-166 0 -272.5 89t-106.5 261q0 164 103 255t303 91q143 0 305 -43v90q0 229 -219 229q-97 0 -154 -43t-61 -125h-227q6 168 123 264.5t321 96.5zM346 346q0 -88 53 -130t160 -42
q127 0 252 47v264q-154 27 -246 27q-110 0 -164.5 -38.5t-54.5 -127.5zM571 -92q56 0 93.5 -37t37.5 -94q0 -55 -38 -93t-93 -38q-57 0 -94 37.5t-37 93.5q0 57 37 94t94 37z" />
    <glyph glyph-name="uni1EA2" unicode="&#x1ea2;" horiz-adv-x="1366" 
d="M702 1677q0 64 -84 64q-16 0 -32 -2.5t-41.5 -8.5t-34.5 -8v103q75 22 152 22q99 0 155.5 -35.5t56.5 -103.5q0 -160 -264 -186v73q48 14 70 32.5t22 49.5zM1057 0l-109 346h-532l-109 -346h-270l477 1434h338l477 -1434h-272zM483 563h398l-187 598h-24z" />
    <glyph glyph-name="uni1EA3" unicode="&#x1ea3;" horiz-adv-x="1193" 
d="M598 1362q0 63 -84 63q-19 0 -111 -18v102q82 23 152 23q99 0 157 -36t58 -103q0 -161 -264 -187v74q47 14 69.5 32.5t22.5 49.5zM594 1145q247 0 355 -117t108 -344v-684h-191l-28 80q-65 -42 -163.5 -71t-195.5 -29q-166 0 -272.5 89t-106.5 261q0 164 103 255t303 91
q143 0 305 -43v90q0 229 -219 229q-97 0 -154 -43t-61 -125h-227q6 168 123 264.5t321 96.5zM346 346q0 -88 53 -130t160 -42q127 0 252 47v264q-154 27 -246 27q-110 0 -164.5 -38.5t-54.5 -127.5z" />
    <glyph glyph-name="uni1EA4" unicode="&#x1ea4;" horiz-adv-x="1366" 
d="M887 2128l-228 -262h-182l160 262h250zM672 1688l-129 -144h-189l254 268h148l254 -268h-189l-129 144h-20zM1057 0l-109 346h-532l-109 -346h-270l477 1434h338l477 -1434h-272zM483 563h398l-187 598h-24z" />
    <glyph glyph-name="uni1EA5" unicode="&#x1ea5;" horiz-adv-x="1193" 
d="M782 1812l-229 -262h-182l161 262h250zM567 1372l-129 -143h-188l254 268h145l254 -268h-188l-127 143h-21zM594 1145q247 0 355 -117t108 -344v-684h-191l-28 80q-65 -42 -163.5 -71t-195.5 -29q-166 0 -272.5 89t-106.5 261q0 164 103 255t303 91q143 0 305 -43v90
q0 229 -219 229q-97 0 -154 -43t-61 -125h-227q6 168 123 264.5t321 96.5zM346 346q0 -88 53 -130t160 -42q127 0 252 47v264q-154 27 -246 27q-110 0 -164.5 -38.5t-54.5 -127.5z" />
    <glyph glyph-name="uni1EA6" unicode="&#x1ea6;" horiz-adv-x="1366" 
d="M887 1866h-182l-228 262h250zM672 1688l-129 -144h-189l254 268h148l254 -268h-189l-129 144h-20zM1057 0l-109 346h-532l-109 -346h-270l477 1434h338l477 -1434h-272zM483 563h398l-187 598h-24z" />
    <glyph glyph-name="uni1EA7" unicode="&#x1ea7;" horiz-adv-x="1193" 
d="M782 1550h-182l-229 262h250zM567 1372l-129 -143h-188l254 268h145l254 -268h-188l-127 143h-21zM594 1145q247 0 355 -117t108 -344v-684h-191l-28 80q-65 -42 -163.5 -71t-195.5 -29q-166 0 -272.5 89t-106.5 261q0 164 103 255t303 91q143 0 305 -43v90
q0 229 -219 229q-97 0 -154 -43t-61 -125h-227q6 168 123 264.5t321 96.5zM346 346q0 -88 53 -130t160 -42q127 0 252 47v264q-154 27 -246 27q-110 0 -164.5 -38.5t-54.5 -127.5z" />
    <glyph glyph-name="uni1EA8" unicode="&#x1ea8;" horiz-adv-x="1366" 
d="M606 1812q49 14 71.5 32.5t22.5 49.5q0 64 -84 64q-16 0 -32 -2.5t-43.5 -9t-34.5 -7.5v103q75 22 151 22q99 0 157 -36t58 -103q0 -93 -92 -141l228 -240h-189l-129 144h-20l-129 -144h-189zM1057 0l-109 346h-532l-109 -346h-270l477 1434h338l477 -1434h-272zM483 563
h398l-187 598h-24z" />
    <glyph glyph-name="uni1EA9" unicode="&#x1ea9;" horiz-adv-x="1193" 
d="M502 1497q48 14 70 32.5t22 49.5q0 63 -84 63q-21 0 -109 -18v102q79 23 152 23q99 0 156 -35.5t57 -103.5q0 -94 -92 -142l227 -239h-188l-127 143h-21l-129 -143h-188zM594 1145q247 0 355 -117t108 -344v-684h-191l-28 80q-65 -42 -163.5 -71t-195.5 -29
q-166 0 -272.5 89t-106.5 261q0 164 103 255t303 91q143 0 305 -43v90q0 229 -219 229q-97 0 -154 -43t-61 -125h-227q6 168 123 264.5t321 96.5zM346 346q0 -88 53 -130t160 -42q127 0 252 47v264q-154 27 -246 27q-110 0 -164.5 -38.5t-54.5 -127.5z" />
    <glyph glyph-name="uni1EAA" unicode="&#x1eaa;" horiz-adv-x="1366" 
d="M494 1886h-132q-18 110 38 181t155 71q45 0 85 -19.5t63.5 -43t53 -43t56.5 -19.5q36 0 53 28.5t4 84.5h131q18 -112 -36.5 -182t-153.5 -70q-46 0 -86 19.5t-63.5 43t-51.5 43t-53 19.5q-38 0 -57 -30t-6 -83zM672 1688l-129 -144h-189l254 268h148l254 -268h-189
l-129 144h-20zM1057 0l-109 346h-532l-109 -346h-270l477 1434h338l477 -1434h-272zM483 563h398l-187 598h-24z" />
    <glyph glyph-name="uni1EAB" unicode="&#x1eab;" horiz-adv-x="1193" 
d="M387 1571h-129q-18 111 37.5 181.5t153.5 70.5q46 0 86 -19.5t64 -43t53 -43t55 -19.5q37 0 54 28t5 84h129q18 -112 -36.5 -181.5t-153.5 -69.5q-45 0 -84.5 19.5t-63 42.5t-51.5 42.5t-53 19.5q-39 0 -58.5 -29.5t-7.5 -82.5zM567 1372l-129 -143h-188l254 268h145
l254 -268h-188l-127 143h-21zM594 1145q247 0 355 -117t108 -344v-684h-191l-28 80q-65 -42 -163.5 -71t-195.5 -29q-166 0 -272.5 89t-106.5 261q0 164 103 255t303 91q143 0 305 -43v90q0 229 -219 229q-97 0 -154 -43t-61 -125h-227q6 168 123 264.5t321 96.5zM346 346
q0 -88 53 -130t160 -42q127 0 252 47v264q-154 27 -246 27q-110 0 -164.5 -38.5t-54.5 -127.5z" />
    <glyph glyph-name="uni1EAC" unicode="&#x1eac;" horiz-adv-x="1366" 
d="M672 1688l-129 -144h-189l254 268h148l254 -268h-189l-129 144h-20zM1329 0h-272l-109 346h-532l-109 -346h-270l477 1434h338zM483 563h398l-187 598h-24zM676 -92q56 0 93.5 -37t37.5 -94q0 -55 -37.5 -93t-93.5 -38t-93.5 38t-37.5 93q0 57 37.5 94t93.5 37z" />
    <glyph glyph-name="uni1EAD" unicode="&#x1ead;" horiz-adv-x="1193" 
d="M567 1372l-129 -143h-188l254 268h145l254 -268h-188l-127 143h-21zM594 1145q247 0 355 -117t108 -344v-684h-191l-28 80q-65 -42 -163.5 -71t-195.5 -29q-166 0 -272.5 89t-106.5 261q0 164 103 255t303 91q143 0 305 -43v90q0 229 -219 229q-97 0 -154 -43t-61 -125
h-227q6 168 123 264.5t321 96.5zM346 346q0 -88 53 -130t160 -42q127 0 252 47v264q-154 27 -246 27q-110 0 -164.5 -38.5t-54.5 -127.5zM571 -92q56 0 93.5 -37t37.5 -94q0 -55 -38 -93t-93 -38q-57 0 -94 37.5t-37 93.5q0 57 37 94t94 37z" />
    <glyph glyph-name="uni1EAE" unicode="&#x1eae;" horiz-adv-x="1366" 
d="M887 2114l-228 -263h-182l160 263h250zM682 1532q-82 0 -145 24.5t-99.5 65t-53.5 89.5t-15 101h166q-4 -61 30.5 -107t116.5 -46t116.5 46t30.5 107h166q2 -52 -15 -101t-53.5 -89.5t-99.5 -65t-145 -24.5zM1057 0l-109 346h-532l-109 -346h-270l477 1434h338l477 -1434
h-272zM483 563h398l-187 598h-24z" />
    <glyph glyph-name="uni1EAF" unicode="&#x1eaf;" horiz-adv-x="1193" 
d="M782 1798l-229 -262h-182l161 262h250zM578 1217q-82 0 -146 24.5t-100.5 65t-53.5 89.5t-14 101h166q-4 -61 31 -107.5t117 -46.5q43 0 74 14t46.5 37.5t21 49.5t3.5 53h168q2 -52 -15 -101t-53.5 -89.5t-99.5 -65t-145 -24.5zM594 1145q247 0 355 -117t108 -344v-684
h-191l-28 80q-65 -42 -163.5 -71t-195.5 -29q-166 0 -272.5 89t-106.5 261q0 164 103 255t303 91q143 0 305 -43v90q0 229 -219 229q-97 0 -154 -43t-61 -125h-227q6 168 123 264.5t321 96.5zM346 346q0 -88 53 -130t160 -42q127 0 252 47v264q-154 27 -246 27
q-110 0 -164.5 -38.5t-54.5 -127.5z" />
    <glyph glyph-name="uni1EB0" unicode="&#x1eb0;" horiz-adv-x="1366" 
d="M887 1851h-182l-228 263h250zM682 1532q-82 0 -145 24.5t-99.5 65t-53.5 89.5t-15 101h166q-4 -61 30.5 -107t116.5 -46t116.5 46t30.5 107h166q2 -52 -15 -101t-53.5 -89.5t-99.5 -65t-145 -24.5zM1057 0l-109 346h-532l-109 -346h-270l477 1434h338l477 -1434h-272z
M483 563h398l-187 598h-24z" />
    <glyph glyph-name="uni1EB1" unicode="&#x1eb1;" horiz-adv-x="1193" 
d="M782 1536h-182l-229 262h250zM578 1217q-82 0 -146 24.5t-100.5 65t-53.5 89.5t-14 101h166q-4 -61 31 -107.5t117 -46.5q43 0 74 14t46.5 37.5t21 49.5t3.5 53h168q2 -52 -15 -101t-53.5 -89.5t-99.5 -65t-145 -24.5zM594 1145q247 0 355 -117t108 -344v-684h-191
l-28 80q-65 -42 -163.5 -71t-195.5 -29q-166 0 -272.5 89t-106.5 261q0 164 103 255t303 91q143 0 305 -43v90q0 229 -219 229q-97 0 -154 -43t-61 -125h-227q6 168 123 264.5t321 96.5zM346 346q0 -88 53 -130t160 -42q127 0 252 47v264q-154 27 -246 27
q-110 0 -164.5 -38.5t-54.5 -127.5z" />
    <glyph glyph-name="uni1EB2" unicode="&#x1eb2;" horiz-adv-x="1366" 
d="M692 1960q0 61 -84 61q-38 0 -108 -18v104q94 23 151 23q99 0 156 -36t57 -105q0 -161 -264 -187v76q48 14 70 32.5t22 49.5zM682 1532q-82 0 -145 24.5t-99.5 65t-53.5 89.5t-15 101h166q-4 -61 30.5 -107t116.5 -46t116.5 46t30.5 107h166q2 -52 -15 -101t-53.5 -89.5
t-99.5 -65t-145 -24.5zM1057 0l-109 346h-532l-109 -346h-270l477 1434h338l477 -1434h-272zM483 563h398l-187 598h-24z" />
    <glyph glyph-name="uni1EB3" unicode="&#x1eb3;" horiz-adv-x="1193" 
d="M588 1645q0 61 -84 61q-37 0 -111 -18v104q99 23 152 23q99 0 157 -36.5t58 -105.5q0 -160 -264 -186v76q47 14 69.5 32.5t22.5 49.5zM578 1217q-82 0 -146 24.5t-100.5 65t-53.5 89.5t-14 101h166q-4 -61 31 -107.5t117 -46.5q43 0 74 14t46.5 37.5t21 49.5t3.5 53h168
q2 -52 -15 -101t-53.5 -89.5t-99.5 -65t-145 -24.5zM594 1145q247 0 355 -117t108 -344v-684h-191l-28 80q-65 -42 -163.5 -71t-195.5 -29q-166 0 -272.5 89t-106.5 261q0 164 103 255t303 91q143 0 305 -43v90q0 229 -219 229q-97 0 -154 -43t-61 -125h-227
q6 168 123 264.5t321 96.5zM346 346q0 -88 53 -130t160 -42q127 0 252 47v264q-154 27 -246 27q-110 0 -164.5 -38.5t-54.5 -127.5z" />
    <glyph glyph-name="uni1EB4" unicode="&#x1eb4;" horiz-adv-x="1366" 
d="M494 1872h-132q-18 110 38 181t155 71q45 0 85 -19.5t63.5 -43t53 -43t56.5 -19.5q36 0 53 28t4 84h131q18 -112 -36.5 -181.5t-153.5 -69.5q-46 0 -86 19.5t-63.5 43t-51.5 43t-53 19.5q-38 0 -57 -30t-6 -83zM369 1812h166q-4 -61 30.5 -107t116.5 -46t116.5 46
t30.5 107h166q2 -52 -15 -101t-53.5 -89.5t-99.5 -65t-145 -24.5t-145 24.5t-99.5 65t-53.5 89.5t-15 101zM1057 0l-109 346h-532l-109 -346h-270l477 1434h338l477 -1434h-272zM483 563h398l-187 598h-24z" />
    <glyph glyph-name="uni1EB5" unicode="&#x1eb5;" horiz-adv-x="1193" 
d="M387 1556h-129q-18 111 37.5 181.5t153.5 70.5q46 0 86 -19.5t64 -43t53 -43t55 -19.5q37 0 54 28.5t5 84.5h129q18 -112 -36.5 -182t-153.5 -70q-45 0 -84.5 19.5t-63 43t-51.5 43t-53 19.5q-39 0 -58.5 -30t-7.5 -83zM264 1497h166q-4 -61 31 -107.5t117 -46.5
q43 0 74 14t46.5 37.5t21 49.5t3.5 53h168q2 -52 -15 -101t-53.5 -89.5t-99.5 -65t-145 -24.5t-146 24.5t-100.5 65t-53.5 89.5t-14 101zM594 1145q247 0 355 -117t108 -344v-684h-191l-28 80q-65 -42 -163.5 -71t-195.5 -29q-166 0 -272.5 89t-106.5 261q0 164 103 255
t303 91q143 0 305 -43v90q0 229 -219 229q-97 0 -154 -43t-61 -125h-227q6 168 123 264.5t321 96.5zM346 346q0 -88 53 -130t160 -42q127 0 252 47v264q-154 27 -246 27q-110 0 -164.5 -38.5t-54.5 -127.5z" />
    <glyph glyph-name="uni1EB6" unicode="&#x1eb6;" horiz-adv-x="1366" 
d="M682 1532q-82 0 -145 24.5t-99.5 65t-53.5 89.5t-15 101h166q-4 -61 30.5 -107t116.5 -46t116.5 46t30.5 107h166q2 -52 -15 -101t-53.5 -89.5t-99.5 -65t-145 -24.5zM1329 0h-272l-109 346h-532l-109 -346h-270l477 1434h338zM483 563h398l-187 598h-24zM676 -92
q56 0 93.5 -37t37.5 -94q0 -55 -37.5 -93t-93.5 -38t-93.5 38t-37.5 93q0 57 37.5 94t93.5 37z" />
    <glyph glyph-name="uni1EB7" unicode="&#x1eb7;" horiz-adv-x="1193" 
d="M578 1217q-82 0 -146 24.5t-100.5 65t-53.5 89.5t-14 101h166q-4 -61 31 -107.5t117 -46.5q43 0 74 14t46.5 37.5t21 49.5t3.5 53h168q2 -52 -15 -101t-53.5 -89.5t-99.5 -65t-145 -24.5zM594 1145q247 0 355 -117t108 -344v-684h-191l-28 80q-65 -42 -163.5 -71
t-195.5 -29q-166 0 -272.5 89t-106.5 261q0 164 103 255t303 91q143 0 305 -43v90q0 229 -219 229q-97 0 -154 -43t-61 -125h-227q6 168 123 264.5t321 96.5zM346 346q0 -88 53 -130t160 -42q127 0 252 47v264q-154 27 -246 27q-110 0 -164.5 -38.5t-54.5 -127.5zM571 -92
q56 0 93.5 -37t37.5 -94q0 -55 -38 -93t-93 -38q-57 0 -94 37.5t-37 93.5q0 57 37 94t94 37z" />
    <glyph glyph-name="uni1EB8" unicode="&#x1eb8;" horiz-adv-x="1134" 
d="M995 1206h-587v-346h561v-225h-561v-404h587v-231h-845v1434h845v-228zM561 -92q56 0 93.5 -37t37.5 -94q0 -55 -38 -93t-93 -38t-93 38t-38 93q0 57 37.5 94t93.5 37z" />
    <glyph glyph-name="uni1EB9" unicode="&#x1eb9;" horiz-adv-x="1200" 
d="M1110 569v-61h-788q4 -94 29 -161t67.5 -104t93 -54t113.5 -17q107 0 172 60t86 149h219q-17 -183 -152.5 -297.5t-328.5 -114.5q-108 0 -206 36t-175 103t-122.5 174t-45.5 238q0 122 33.5 232t97 199t167.5 141.5t234 52.5q85 0 160.5 -21.5t139 -67.5t109.5 -113
t71.5 -162.5t25.5 -211.5zM600 952q-111 0 -176 -72.5t-90 -195.5h524q-1 125 -72 196.5t-186 71.5zM594 -92q56 0 93.5 -37t37.5 -94q0 -55 -37.5 -93t-93.5 -38t-93.5 38t-37.5 93q0 57 37.5 94t93.5 37z" />
    <glyph glyph-name="uni1EBA" unicode="&#x1eba;" horiz-adv-x="1134" 
d="M588 1677q0 64 -84 64q-16 0 -32 -2.5t-42.5 -8.5t-34.5 -8v103q75 22 152 22q99 0 156 -35.5t57 -103.5q0 -160 -264 -186v73q48 14 70 32.5t22 49.5zM995 1206h-587v-346h561v-225h-561v-404h587v-231h-845v1434h845v-228z" />
    <glyph glyph-name="uni1EBB" unicode="&#x1ebb;" horiz-adv-x="1200" 
d="M621 1362q0 63 -84 63q-21 0 -109 -18v102q79 23 152 23q99 0 156 -35.5t57 -103.5q0 -161 -265 -187v74q48 14 70.5 32.5t22.5 49.5zM1110 569v-61h-788q4 -94 29 -161t67.5 -104t93 -54t113.5 -17q107 0 172 60t86 149h219q-17 -183 -152.5 -297.5t-328.5 -114.5
q-108 0 -206 36t-175 103t-122.5 174t-45.5 238q0 122 33.5 232t97 199t167.5 141.5t234 52.5q85 0 160.5 -21.5t139 -67.5t109.5 -113t71.5 -162.5t25.5 -211.5zM600 952q-111 0 -176 -72.5t-90 -195.5h524q-1 125 -72 196.5t-186 71.5z" />
    <glyph glyph-name="uni1EBC" unicode="&#x1ebc;" horiz-adv-x="1134" 
d="M379 1563h-131q-18 112 37.5 183t154.5 71q45 0 85 -19.5t63.5 -43t53 -43t56.5 -19.5q37 0 54 27.5t4 84.5h131q18 -112 -37 -183t-154 -71q-46 0 -86 19.5t-63.5 43t-51.5 43t-53 19.5q-38 0 -57 -29t-6 -83zM995 1206h-587v-346h561v-225h-561v-404h587v-231h-845
v1434h845v-228z" />
    <glyph glyph-name="uni1EBD" unicode="&#x1ebd;" horiz-adv-x="1200" 
d="M412 1247h-131q-18 112 37.5 183t154.5 71q45 0 85 -19.5t63.5 -43t53 -43t56.5 -19.5q36 0 53 28t4 85h132q18 -112 -37 -183t-154 -71q-46 0 -86 19.5t-63.5 43t-51.5 43t-53 19.5q-38 0 -57 -29.5t-6 -83.5zM1110 569v-61h-788q4 -94 29 -161t67.5 -104t93 -54
t113.5 -17q107 0 172 60t86 149h219q-17 -183 -152.5 -297.5t-328.5 -114.5q-108 0 -206 36t-175 103t-122.5 174t-45.5 238q0 122 33.5 232t97 199t167.5 141.5t234 52.5q85 0 160.5 -21.5t139 -67.5t109.5 -113t71.5 -162.5t25.5 -211.5zM600 952q-111 0 -176 -72.5
t-90 -195.5h524q-1 125 -72 196.5t-186 71.5z" />
    <glyph glyph-name="uni1EBE" unicode="&#x1ebe;" horiz-adv-x="1134" 
d="M772 2128l-227 -262h-183l160 262h250zM557 1688l-129 -144h-188l254 268h147l254 -268h-188l-129 144h-21zM995 1206h-587v-346h561v-225h-561v-404h587v-231h-845v1434h845v-228z" />
    <glyph glyph-name="uni1EBF" unicode="&#x1ebf;" horiz-adv-x="1200" 
d="M805 1812l-227 -262h-183l160 262h250zM590 1372l-129 -143h-189l254 268h148l254 -268h-189l-129 143h-20zM1110 569v-61h-788q4 -94 29 -161t67.5 -104t93 -54t113.5 -17q107 0 172 60t86 149h219q-17 -183 -152.5 -297.5t-328.5 -114.5q-108 0 -206 36t-175 103
t-122.5 174t-45.5 238q0 122 33.5 232t97 199t167.5 141.5t234 52.5q85 0 160.5 -21.5t139 -67.5t109.5 -113t71.5 -162.5t25.5 -211.5zM600 952q-111 0 -176 -72.5t-90 -195.5h524q-1 125 -72 196.5t-186 71.5z" />
    <glyph glyph-name="uni1EC0" unicode="&#x1ec0;" horiz-adv-x="1134" 
d="M772 1866h-182l-228 262h250zM557 1688l-129 -144h-188l254 268h147l254 -268h-188l-129 144h-21zM995 1206h-587v-346h561v-225h-561v-404h587v-231h-845v1434h845v-228z" />
    <glyph glyph-name="uni1EC1" unicode="&#x1ec1;" horiz-adv-x="1200" 
d="M805 1550h-182l-228 262h250zM590 1372l-129 -143h-189l254 268h148l254 -268h-189l-129 143h-20zM1110 569v-61h-788q4 -94 29 -161t67.5 -104t93 -54t113.5 -17q107 0 172 60t86 149h219q-17 -183 -152.5 -297.5t-328.5 -114.5q-108 0 -206 36t-175 103t-122.5 174
t-45.5 238q0 122 33.5 232t97 199t167.5 141.5t234 52.5q85 0 160.5 -21.5t139 -67.5t109.5 -113t71.5 -162.5t25.5 -211.5zM600 952q-111 0 -176 -72.5t-90 -195.5h524q-1 125 -72 196.5t-186 71.5z" />
    <glyph glyph-name="uni1EC2" unicode="&#x1ec2;" horiz-adv-x="1134" 
d="M492 1812q49 14 71.5 32.5t22.5 49.5q0 64 -84 64q-18 0 -111 -19v103q75 22 152 22q99 0 157 -36t58 -103q0 -93 -92 -141l227 -240h-188l-130 144h-20l-129 -144h-188zM995 1206h-587v-346h561v-225h-561v-404h587v-231h-845v1434h845v-228z" />
    <glyph glyph-name="uni1EC3" unicode="&#x1ec3;" horiz-adv-x="1200" 
d="M524 1497q49 14 71.5 32.5t22.5 49.5q0 63 -83 63q-23 0 -111 -18v102q79 23 151 23q99 0 157.5 -36t58.5 -103q0 -93 -93 -142l228 -239h-189l-129 143h-20l-129 -143h-189zM1110 569v-61h-788q4 -94 29 -161t67.5 -104t93 -54t113.5 -17q107 0 172 60t86 149h219
q-17 -183 -152.5 -297.5t-328.5 -114.5q-108 0 -206 36t-175 103t-122.5 174t-45.5 238q0 122 33.5 232t97 199t167.5 141.5t234 52.5q85 0 160.5 -21.5t139 -67.5t109.5 -113t71.5 -162.5t25.5 -211.5zM600 952q-111 0 -176 -72.5t-90 -195.5h524q-1 125 -72 196.5
t-186 71.5z" />
    <glyph glyph-name="uni1EC4" unicode="&#x1ec4;" horiz-adv-x="1134" 
d="M379 1886h-131q-18 111 37.5 181.5t154.5 70.5q45 0 85 -19.5t63.5 -43t53 -43t56.5 -19.5q36 0 53.5 28.5t4.5 84.5h131q18 -112 -37 -182t-154 -70q-46 0 -86 19.5t-63.5 43t-51.5 43t-53 19.5q-38 0 -57 -30t-6 -83zM557 1688l-129 -144h-188l254 268h147l254 -268
h-188l-129 144h-21zM995 1206h-587v-346h561v-225h-561v-404h587v-231h-845v1434h845v-228z" />
    <glyph glyph-name="uni1EC5" unicode="&#x1ec5;" horiz-adv-x="1200" 
d="M412 1571h-131q-18 111 37.5 181.5t154.5 70.5q45 0 85 -19.5t63.5 -43t53 -43t56.5 -19.5q36 0 53 28t4 84h132q18 -112 -37 -181.5t-154 -69.5q-46 0 -86 19.5t-63.5 42.5t-51.5 42.5t-53 19.5q-38 0 -57 -29.5t-6 -82.5zM590 1372l-129 -143h-189l254 268h148
l254 -268h-189l-129 143h-20zM1110 569v-61h-788q4 -94 29 -161t67.5 -104t93 -54t113.5 -17q107 0 172 60t86 149h219q-17 -183 -152.5 -297.5t-328.5 -114.5q-108 0 -206 36t-175 103t-122.5 174t-45.5 238q0 122 33.5 232t97 199t167.5 141.5t234 52.5q85 0 160.5 -21.5
t139 -67.5t109.5 -113t71.5 -162.5t25.5 -211.5zM600 952q-111 0 -176 -72.5t-90 -195.5h524q-1 125 -72 196.5t-186 71.5z" />
    <glyph glyph-name="uni1EC6" unicode="&#x1ec6;" horiz-adv-x="1134" 
d="M557 1688l-129 -144h-188l254 268h147l254 -268h-188l-129 144h-21zM995 1206h-587v-346h561v-225h-561v-404h587v-231h-845v1434h845v-228zM561 -92q56 0 93.5 -37t37.5 -94q0 -55 -38 -93t-93 -38t-93 38t-38 93q0 57 37.5 94t93.5 37z" />
    <glyph glyph-name="uni1EC7" unicode="&#x1ec7;" horiz-adv-x="1200" 
d="M590 1372l-129 -143h-189l254 268h148l254 -268h-189l-129 143h-20zM1110 569v-61h-788q4 -94 29 -161t67.5 -104t93 -54t113.5 -17q107 0 172 60t86 149h219q-17 -183 -152.5 -297.5t-328.5 -114.5q-108 0 -206 36t-175 103t-122.5 174t-45.5 238q0 122 33.5 232t97 199
t167.5 141.5t234 52.5q85 0 160.5 -21.5t139 -67.5t109.5 -113t71.5 -162.5t25.5 -211.5zM600 952q-111 0 -176 -72.5t-90 -195.5h524q-1 125 -72 196.5t-186 71.5zM594 -92q56 0 93.5 -37t37.5 -94q0 -55 -37.5 -93t-93.5 -38t-93.5 38t-37.5 93q0 57 37.5 94t93.5 37z" />
    <glyph glyph-name="uni1EC8" unicode="&#x1ec8;" horiz-adv-x="567" 
d="M111 1825q75 22 151 22q99 0 156 -35.5t57 -103.5q0 -160 -264 -186v73q48 14 70 32.5t22 49.5q0 64 -84 64q-16 0 -32 -2.5t-41.5 -8.5t-34.5 -8v103zM154 1434h258v-1434h-258v1434z" />
    <glyph glyph-name="uni1EC9" unicode="&#x1ec9;" horiz-adv-x="514" 
d="M84 1509q79 23 152 23q99 0 156 -35.5t57 -103.5q0 -161 -265 -187v74q48 14 70 32.5t22 49.5q0 63 -83 63q-21 0 -109 -18v102zM133 1118h246v-1118h-246v1118z" />
    <glyph glyph-name="uni1ECA" unicode="&#x1eca;" horiz-adv-x="567" 
d="M154 1434h258v-1434h-258v1434zM276 -354q-56 0 -93.5 38t-37.5 93q0 57 37.5 94t93.5 37t94 -37t38 -94q0 -55 -38 -93t-94 -38z" />
    <glyph glyph-name="uni1ECB" unicode="&#x1ecb;" horiz-adv-x="524" 
d="M115 1411q0 69 40.5 122.5t106.5 53.5t107 -53.5t41 -122.5q0 -66 -42 -101.5t-106 -35.5q-62 0 -104.5 35.5t-42.5 101.5zM139 1118h246v-1118h-246v1118zM258 -354q-56 0 -93.5 38t-37.5 93q0 57 37.5 94t93.5 37t93.5 -37t37.5 -94q0 -55 -37.5 -93t-93.5 -38z" />
    <glyph glyph-name="uni1ECC" unicode="&#x1ecc;" horiz-adv-x="1396" 
d="M96 670q0 121 26 237t77.5 217.5t122.5 178t168 121t208 44.5q110 0 207 -44.5t167.5 -121t122 -178t77.5 -217.5t26 -237q0 -165 -48 -300t-130.5 -222t-191 -134t-230.5 -47q-123 0 -231.5 47t-191.5 134t-131 222t-48 300zM362 676q0 -224 94.5 -350.5t241.5 -126.5
t240.5 126.5t93.5 350.5q0 153 -40.5 282.5t-118 209t-175.5 79.5q-99 0 -177 -79.5t-118.5 -209t-40.5 -282.5zM692 -354q-56 0 -93.5 38t-37.5 93q0 57 37.5 94t93.5 37t93.5 -37t37.5 -94q0 -55 -37.5 -93t-93.5 -38z" />
    <glyph glyph-name="uni1ECD" unicode="&#x1ecd;" horiz-adv-x="1222" 
d="M72 520q0 97 23 188.5t69 170.5t109.5 138.5t150.5 93.5t186 34q123 0 226 -52t170.5 -139.5t105 -200t37.5 -235.5q0 -131 -42.5 -237t-116.5 -173t-171 -103t-209 -36t-209 36t-170.5 104t-116 174t-42.5 237zM324 524q0 -169 74.5 -256.5t211.5 -87.5t213 87.5
t76 256.5q0 179 -77 296.5t-212 117.5t-210.5 -118t-75.5 -296zM604 -354q-56 0 -93.5 38t-37.5 93q0 57 37.5 94t93.5 37t93.5 -37t37.5 -94q0 -55 -37.5 -93t-93.5 -38z" />
    <glyph glyph-name="uni1ECE" unicode="&#x1ece;" horiz-adv-x="1396" 
d="M526 1825q75 22 152 22q99 0 156 -35.5t57 -103.5q0 -160 -264 -186v73q48 14 70 32.5t22 49.5q0 64 -84 64q-16 0 -32 -2.5t-42.5 -8.5t-34.5 -8v103zM96 670q0 121 26 237t77.5 217.5t122.5 178t168 121t208 44.5q110 0 207 -44.5t167.5 -121t122 -178t77.5 -217.5
t26 -237q0 -165 -48 -300t-130.5 -222t-191 -134t-230.5 -47q-123 0 -231.5 47t-191.5 134t-131 222t-48 300zM362 676q0 -224 94.5 -350.5t241.5 -126.5t240.5 126.5t93.5 350.5q0 153 -40.5 282.5t-118 209t-175.5 79.5q-99 0 -177 -79.5t-118.5 -209t-40.5 -282.5z" />
    <glyph glyph-name="uni1ECF" unicode="&#x1ecf;" horiz-adv-x="1222" 
d="M438 1509q79 23 152 23q99 0 156 -35.5t57 -103.5q0 -161 -264 -187v74q48 14 70 32.5t22 49.5q0 63 -84 63q-21 0 -109 -18v102zM72 520q0 97 23 188.5t69 170.5t109.5 138.5t150.5 93.5t186 34q123 0 226 -52t170.5 -139.5t105 -200t37.5 -235.5q0 -131 -42.5 -237
t-116.5 -173t-171 -103t-209 -36t-209 36t-170.5 104t-116 174t-42.5 237zM324 524q0 -169 74.5 -256.5t211.5 -87.5t213 87.5t76 256.5q0 179 -77 296.5t-212 117.5t-210.5 -118t-75.5 -296z" />
    <glyph glyph-name="uni1ED0" unicode="&#x1ed0;" horiz-adv-x="1396" 
d="M653 2128h250l-227 -262h-182zM371 1544l254 268h147l254 -268h-188l-129 144h-21l-129 -144h-188zM96 670q0 121 26 237t77.5 217.5t122.5 178t168 121t208 44.5q110 0 207 -44.5t167.5 -121t122 -178t77.5 -217.5t26 -237q0 -165 -48 -300t-130.5 -222t-191 -134
t-230.5 -47q-123 0 -231.5 47t-191.5 134t-131 222t-48 300zM362 676q0 -224 94.5 -350.5t241.5 -126.5t240.5 126.5t93.5 350.5q0 153 -40.5 282.5t-118 209t-175.5 79.5q-99 0 -177 -79.5t-118.5 -209t-40.5 -282.5z" />
    <glyph glyph-name="uni1ED1" unicode="&#x1ed1;" horiz-adv-x="1222" 
d="M565 1812h250l-227 -262h-182zM283 1229l254 268h147l254 -268h-188l-129 143h-21l-129 -143h-188zM72 520q0 97 23 188.5t69 170.5t109.5 138.5t150.5 93.5t186 34q123 0 226 -52t170.5 -139.5t105 -200t37.5 -235.5q0 -131 -42.5 -237t-116.5 -173t-171 -103t-209 -36
t-209 36t-170.5 104t-116 174t-42.5 237zM324 524q0 -169 74.5 -256.5t211.5 -87.5t213 87.5t76 256.5q0 179 -77 296.5t-212 117.5t-210.5 -118t-75.5 -296z" />
    <glyph glyph-name="uni1ED2" unicode="&#x1ed2;" horiz-adv-x="1396" 
d="M743 2128l160 -262h-182l-227 262h249zM371 1544l254 268h147l254 -268h-188l-129 144h-21l-129 -144h-188zM96 670q0 121 26 237t77.5 217.5t122.5 178t168 121t208 44.5q110 0 207 -44.5t167.5 -121t122 -178t77.5 -217.5t26 -237q0 -165 -48 -300t-130.5 -222
t-191 -134t-230.5 -47q-123 0 -231.5 47t-191.5 134t-131 222t-48 300zM362 676q0 -224 94.5 -350.5t241.5 -126.5t240.5 126.5t93.5 350.5q0 153 -40.5 282.5t-118 209t-175.5 79.5q-99 0 -177 -79.5t-118.5 -209t-40.5 -282.5z" />
    <glyph glyph-name="uni1ED3" unicode="&#x1ed3;" horiz-adv-x="1222" 
d="M655 1812l160 -262h-182l-227 262h249zM283 1229l254 268h147l254 -268h-188l-129 143h-21l-129 -143h-188zM72 520q0 97 23 188.5t69 170.5t109.5 138.5t150.5 93.5t186 34q123 0 226 -52t170.5 -139.5t105 -200t37.5 -235.5q0 -131 -42.5 -237t-116.5 -173t-171 -103
t-209 -36t-209 36t-170.5 104t-116 174t-42.5 237zM324 524q0 -169 74.5 -256.5t211.5 -87.5t213 87.5t76 256.5q0 179 -77 296.5t-212 117.5t-210.5 -118t-75.5 -296z" />
    <glyph glyph-name="uni1ED4" unicode="&#x1ed4;" horiz-adv-x="1396" 
d="M623 1812q49 14 71.5 32.5t22.5 49.5q0 64 -84 64q-18 0 -111 -19v103q75 22 152 22q99 0 157 -36t58 -103q0 -93 -92 -141l227 -240h-188l-129 144h-21l-129 -144h-188zM698 1468q110 0 207 -44.5t167.5 -121t122 -178t77.5 -217.5t26 -237q0 -165 -48 -300t-130.5 -222
t-191 -134t-230.5 -47q-123 0 -231.5 47t-191.5 134t-131 222t-48 300q0 121 26 237t77.5 217.5t122.5 178t168 121t208 44.5zM698 199q147 0 240.5 126.5t93.5 350.5q0 153 -40.5 282.5t-118 209t-175.5 79.5q-99 0 -177 -79.5t-118.5 -209t-40.5 -282.5
q0 -224 94.5 -350.5t241.5 -126.5z" />
    <glyph glyph-name="uni1ED5" unicode="&#x1ed5;" horiz-adv-x="1222" 
d="M535 1497q49 14 71.5 32.5t22.5 49.5q0 63 -84 63q-23 0 -111 -18v102q79 23 152 23q99 0 157 -36t58 -103q0 -94 -92 -142l227 -239h-188l-130 143h-20l-129 -143h-188zM610 1145q123 0 226 -52t170.5 -139.5t105 -200t37.5 -235.5q0 -131 -42.5 -237t-116.5 -173
t-171 -103t-209 -36t-209 36t-170.5 104t-116 174t-42.5 237q0 97 23 188.5t69 170.5t109.5 138.5t150.5 93.5t186 34zM610 180q137 0 213 87.5t76 256.5q0 179 -77 296.5t-212 117.5t-210.5 -118t-75.5 -296q0 -169 74.5 -256.5t211.5 -87.5z" />
    <glyph glyph-name="uni1ED6" unicode="&#x1ed6;" horiz-adv-x="1396" 
d="M1018 2126q18 -112 -37 -182t-154 -70q-46 0 -86 19.5t-63.5 43t-51.5 43t-53 19.5q-38 0 -57 -30t-6 -83h-131q-18 111 37.5 181.5t154.5 70.5q45 0 85 -19.5t63.5 -43t53 -43t56.5 -19.5q36 0 53.5 28.5t4.5 84.5h131zM371 1544l254 268h147l254 -268h-188l-129 144
h-21l-129 -144h-188zM96 670q0 121 26 237t77.5 217.5t122.5 178t168 121t208 44.5q110 0 207 -44.5t167.5 -121t122 -178t77.5 -217.5t26 -237q0 -165 -48 -300t-130.5 -222t-191 -134t-230.5 -47q-123 0 -231.5 47t-191.5 134t-131 222t-48 300zM362 676
q0 -224 94.5 -350.5t241.5 -126.5t240.5 126.5t93.5 350.5q0 153 -40.5 282.5t-118 209t-175.5 79.5q-99 0 -177 -79.5t-118.5 -209t-40.5 -282.5z" />
    <glyph glyph-name="uni1ED7" unicode="&#x1ed7;" horiz-adv-x="1222" 
d="M930 1810q18 -112 -37 -181.5t-154 -69.5q-46 0 -86 19.5t-63.5 42.5t-51.5 42.5t-53 19.5q-38 0 -57 -29.5t-6 -82.5h-131q-18 111 37.5 181.5t154.5 70.5q45 0 85 -19.5t63.5 -43t53 -43t56.5 -19.5q36 0 53.5 28.5t4.5 83.5h131zM283 1229l254 268h147l254 -268h-188
l-129 143h-21l-129 -143h-188zM72 520q0 97 23 188.5t69 170.5t109.5 138.5t150.5 93.5t186 34q123 0 226 -52t170.5 -139.5t105 -200t37.5 -235.5q0 -131 -42.5 -237t-116.5 -173t-171 -103t-209 -36t-209 36t-170.5 104t-116 174t-42.5 237zM324 524q0 -169 74.5 -256.5
t211.5 -87.5t213 87.5t76 256.5q0 179 -77 296.5t-212 117.5t-210.5 -118t-75.5 -296z" />
    <glyph glyph-name="uni1ED8" unicode="&#x1ed8;" horiz-adv-x="1396" 
d="M371 1544l254 268h147l254 -268h-188l-129 144h-21l-129 -144h-188zM96 670q0 121 26 237t77.5 217.5t122.5 178t168 121t208 44.5q110 0 207 -44.5t167.5 -121t122 -178t77.5 -217.5t26 -237q0 -165 -48 -300t-130.5 -222t-191 -134t-230.5 -47q-123 0 -231.5 47
t-191.5 134t-131 222t-48 300zM362 676q0 -224 94.5 -350.5t241.5 -126.5t240.5 126.5t93.5 350.5q0 153 -40.5 282.5t-118 209t-175.5 79.5q-99 0 -177 -79.5t-118.5 -209t-40.5 -282.5zM692 -354q-56 0 -93.5 38t-37.5 93q0 57 37.5 94t93.5 37t93.5 -37t37.5 -94
q0 -55 -37.5 -93t-93.5 -38z" />
    <glyph glyph-name="uni1ED9" unicode="&#x1ed9;" horiz-adv-x="1222" 
d="M283 1229l254 268h147l254 -268h-188l-129 143h-21l-129 -143h-188zM72 520q0 97 23 188.5t69 170.5t109.5 138.5t150.5 93.5t186 34q123 0 226 -52t170.5 -139.5t105 -200t37.5 -235.5q0 -131 -42.5 -237t-116.5 -173t-171 -103t-209 -36t-209 36t-170.5 104t-116 174
t-42.5 237zM324 524q0 -169 74.5 -256.5t211.5 -87.5t213 87.5t76 256.5q0 179 -77 296.5t-212 117.5t-210.5 -118t-75.5 -296zM604 -354q-56 0 -93.5 38t-37.5 93q0 57 37.5 94t93.5 37t93.5 -37t37.5 -94q0 -55 -37.5 -93t-93.5 -38z" />
    <glyph glyph-name="uni1EDA" unicode="&#x1eda;" horiz-adv-x="1411" 
d="M903 1806l-227 -262h-182l159 262h250zM1315 1444q0 -80 -52.5 -128t-132.5 -48h-26q93 -113 143.5 -271t50.5 -327q0 -165 -48 -300t-130.5 -222t-191 -134t-230.5 -47q-123 0 -231.5 47t-191.5 134t-131 222t-48 300q0 121 26 237t77.5 217.5t122.5 178t168 121
t208 44.5q103 0 187 -34q14 -6 37 -15t31.5 -12.5t23.5 -9t22 -7.5t17 -4.5t18 -3t17 -0.5q65 0 65 66v190h199v-194zM698 199q147 0 240.5 126.5t93.5 350.5q0 153 -40.5 282.5t-118 209t-175.5 79.5q-99 0 -177 -79.5t-118.5 -209t-40.5 -282.5q0 -224 94.5 -350.5
t241.5 -126.5z" />
    <glyph glyph-name="uni1EDB" unicode="&#x1edb;" horiz-adv-x="1222" 
d="M815 1491l-227 -262h-182l159 262h250zM1184 1176q0 -105 -50.5 -157.5t-129.5 -62.5q70 -87 107.5 -200.5t37.5 -237.5q0 -131 -42.5 -237t-116.5 -173t-171 -103t-209 -36t-209 36t-170.5 104t-116 174t-42.5 237q0 97 23 188.5t69 170.5t109.5 138.5t150.5 93.5
t186 34q87 0 172 -29h2l35 -14q64 -25 109 -25q57 0 57 49v185h199v-135zM610 180q137 0 213 87.5t76 256.5q0 179 -77 296.5t-212 117.5t-210.5 -118t-75.5 -296q0 -169 74.5 -256.5t211.5 -87.5z" />
    <glyph glyph-name="uni1EDC" unicode="&#x1edc;" horiz-adv-x="1411" 
d="M903 1544h-182l-227 262h249zM1315 1444q0 -80 -52.5 -128t-132.5 -48h-26q93 -113 143.5 -271t50.5 -327q0 -165 -48 -300t-130.5 -222t-191 -134t-230.5 -47q-123 0 -231.5 47t-191.5 134t-131 222t-48 300q0 121 26 237t77.5 217.5t122.5 178t168 121t208 44.5
q103 0 187 -34q14 -6 37 -15t31.5 -12.5t23.5 -9t22 -7.5t17 -4.5t18 -3t17 -0.5q65 0 65 66v190h199v-194zM698 199q147 0 240.5 126.5t93.5 350.5q0 153 -40.5 282.5t-118 209t-175.5 79.5q-99 0 -177 -79.5t-118.5 -209t-40.5 -282.5q0 -224 94.5 -350.5t241.5 -126.5z
" />
    <glyph glyph-name="uni1EDD" unicode="&#x1edd;" horiz-adv-x="1222" 
d="M815 1229h-182l-227 262h249zM1184 1176q0 -105 -50.5 -157.5t-129.5 -62.5q70 -87 107.5 -200.5t37.5 -237.5q0 -131 -42.5 -237t-116.5 -173t-171 -103t-209 -36t-209 36t-170.5 104t-116 174t-42.5 237q0 97 23 188.5t69 170.5t109.5 138.5t150.5 93.5t186 34
q87 0 172 -29h2l35 -14q64 -25 109 -25q57 0 57 49v185h199v-135zM610 180q137 0 213 87.5t76 256.5q0 179 -77 296.5t-212 117.5t-210.5 -118t-75.5 -296q0 -169 74.5 -256.5t211.5 -87.5z" />
    <glyph glyph-name="uni1EDE" unicode="&#x1ede;" horiz-adv-x="1411" 
d="M719 1677q0 64 -84 64q-16 0 -32 -2.5t-42.5 -8.5t-34.5 -8v103q75 22 152 22q99 0 156 -35.5t57 -103.5q0 -160 -264 -186v73q48 14 70 32.5t22 49.5zM1315 1444q0 -80 -52.5 -128t-132.5 -48h-26q93 -113 143.5 -271t50.5 -327q0 -165 -48 -300t-130.5 -222t-191 -134
t-230.5 -47q-123 0 -231.5 47t-191.5 134t-131 222t-48 300q0 121 26 237t77.5 217.5t122.5 178t168 121t208 44.5q103 0 187 -34q14 -6 37 -15t31.5 -12.5t23.5 -9t22 -7.5t17 -4.5t18 -3t17 -0.5q65 0 65 66v190h199v-194zM698 199q147 0 240.5 126.5t93.5 350.5
q0 153 -40.5 282.5t-118 209t-175.5 79.5q-99 0 -177 -79.5t-118.5 -209t-40.5 -282.5q0 -224 94.5 -350.5t241.5 -126.5z" />
    <glyph glyph-name="uni1EDF" unicode="&#x1edf;" horiz-adv-x="1222" 
d="M631 1362q0 63 -84 63q-21 0 -109 -18v102q79 23 152 23q99 0 156 -35.5t57 -103.5q0 -161 -264 -187v74q48 14 70 32.5t22 49.5zM1184 1176q0 -105 -50.5 -157.5t-129.5 -62.5q70 -87 107.5 -200.5t37.5 -237.5q0 -131 -42.5 -237t-116.5 -173t-171 -103t-209 -36
t-209 36t-170.5 104t-116 174t-42.5 237q0 97 23 188.5t69 170.5t109.5 138.5t150.5 93.5t186 34q87 0 172 -29h2l35 -14q64 -25 109 -25q57 0 57 49v185h199v-135zM610 180q137 0 213 87.5t76 256.5q0 179 -77 296.5t-212 117.5t-210.5 -118t-75.5 -296q0 -169 74.5 -256.5
t211.5 -87.5z" />
    <glyph glyph-name="uni1EE0" unicode="&#x1ee0;" horiz-adv-x="1411" 
d="M510 1563h-131q-18 112 37.5 183t154.5 71q45 0 85 -19.5t63.5 -43t53 -43t56.5 -19.5q37 0 54 27.5t4 84.5h131q18 -112 -37 -183t-154 -71q-46 0 -86 19.5t-63.5 43t-51.5 43t-53 19.5q-38 0 -57 -29t-6 -83zM1315 1444q0 -80 -52.5 -128t-132.5 -48h-26
q93 -113 143.5 -271t50.5 -327q0 -165 -48 -300t-130.5 -222t-191 -134t-230.5 -47q-123 0 -231.5 47t-191.5 134t-131 222t-48 300q0 121 26 237t77.5 217.5t122.5 178t168 121t208 44.5q103 0 187 -34q14 -6 37 -15t31.5 -12.5t23.5 -9t22 -7.5t17 -4.5t18 -3t17 -0.5
q65 0 65 66v190h199v-194zM698 199q147 0 240.5 126.5t93.5 350.5q0 153 -40.5 282.5t-118 209t-175.5 79.5q-99 0 -177 -79.5t-118.5 -209t-40.5 -282.5q0 -224 94.5 -350.5t241.5 -126.5z" />
    <glyph glyph-name="uni1EE1" unicode="&#x1ee1;" horiz-adv-x="1222" 
d="M422 1247h-131q-18 112 37.5 183t154.5 71q45 0 85 -19.5t63.5 -43t53 -43t56.5 -19.5q36 0 53.5 28t4.5 85h131q18 -112 -37 -183t-154 -71q-46 0 -86 19.5t-63.5 43t-51.5 43t-53 19.5q-38 0 -57 -29.5t-6 -83.5zM1184 1176q0 -105 -50.5 -157.5t-129.5 -62.5
q70 -87 107.5 -200.5t37.5 -237.5q0 -131 -42.5 -237t-116.5 -173t-171 -103t-209 -36t-209 36t-170.5 104t-116 174t-42.5 237q0 97 23 188.5t69 170.5t109.5 138.5t150.5 93.5t186 34q87 0 172 -29h2l35 -14q64 -25 109 -25q57 0 57 49v185h199v-135zM610 180
q137 0 213 87.5t76 256.5q0 179 -77 296.5t-212 117.5t-210.5 -118t-75.5 -296q0 -169 74.5 -256.5t211.5 -87.5z" />
    <glyph glyph-name="uni1EE2" unicode="&#x1ee2;" horiz-adv-x="1411" 
d="M1315 1444q0 -80 -52.5 -128t-132.5 -48h-26q93 -113 143.5 -271t50.5 -327q0 -165 -48 -300t-130.5 -222t-191 -134t-230.5 -47q-123 0 -231.5 47t-191.5 134t-131 222t-48 300q0 121 26 237t77.5 217.5t122.5 178t168 121t208 44.5q103 0 187 -34q14 -6 37 -15
t31.5 -12.5t23.5 -9t22 -7.5t17 -4.5t18 -3t17 -0.5q65 0 65 66v190h199v-194zM698 199q147 0 240.5 126.5t93.5 350.5q0 153 -40.5 282.5t-118 209t-175.5 79.5q-99 0 -177 -79.5t-118.5 -209t-40.5 -282.5q0 -224 94.5 -350.5t241.5 -126.5zM692 -92q56 0 93.5 -37
t37.5 -94q0 -55 -37.5 -93t-93.5 -38t-93.5 38t-37.5 93q0 57 37.5 94t93.5 37z" />
    <glyph glyph-name="uni1EE3" unicode="&#x1ee3;" horiz-adv-x="1222" 
d="M1184 1176q0 -105 -50.5 -157.5t-129.5 -62.5q70 -87 107.5 -200.5t37.5 -237.5q0 -131 -42.5 -237t-116.5 -173t-171 -103t-209 -36t-209 36t-170.5 104t-116 174t-42.5 237q0 97 23 188.5t69 170.5t109.5 138.5t150.5 93.5t186 34q87 0 172 -29h2l35 -14
q64 -25 109 -25q57 0 57 49v185h199v-135zM610 180q137 0 213 87.5t76 256.5q0 179 -77 296.5t-212 117.5t-210.5 -118t-75.5 -296q0 -169 74.5 -256.5t211.5 -87.5zM604 -92q56 0 93.5 -37t37.5 -94q0 -55 -37.5 -93t-93.5 -38t-93.5 38t-37.5 93q0 57 37.5 94t93.5 37z
" />
    <glyph glyph-name="uni1EE4" unicode="&#x1ee4;" horiz-adv-x="1427" 
d="M1280 1434v-916q0 -147 -45.5 -256t-126 -171.5t-179 -92t-216.5 -29.5q-117 0 -215.5 29.5t-179.5 92t-127 171.5t-46 256v916h258v-897q0 -172 81 -254t229 -82q309 0 309 336v897h258zM707 -354q-56 0 -94 38t-38 93q0 57 38 94t94 37t93.5 -37t37.5 -94
q0 -55 -38 -93t-93 -38z" />
    <glyph glyph-name="uni1EE5" unicode="&#x1ee5;" horiz-adv-x="1226" 
d="M846 1118h246v-1118h-199l-31 111q-140 -140 -340 -140q-106 0 -185 33.5t-124 93.5t-66.5 135t-21.5 166v719h246v-655q0 -138 52 -212.5t177 -74.5q65 0 131.5 31.5t114.5 95.5v815zM608 -92q56 0 93.5 -37t37.5 -94q0 -55 -37.5 -93t-93.5 -38t-93.5 38t-37.5 93
q0 57 37.5 94t93.5 37z" />
    <glyph glyph-name="uni1EE6" unicode="&#x1ee6;" horiz-adv-x="1427" 
d="M541 1825q75 22 151 22q99 0 156 -35.5t57 -103.5q0 -160 -264 -186v73q48 14 70 32.5t22 49.5q0 64 -84 64q-16 0 -32 -2.5t-41.5 -8.5t-34.5 -8v103zM1280 1434v-916q0 -147 -45.5 -256t-126 -171.5t-179 -92t-216.5 -29.5q-117 0 -215.5 29.5t-179.5 92t-127 171.5
t-46 256v916h258v-897q0 -172 81 -254t229 -82q309 0 309 336v897h258z" />
    <glyph glyph-name="uni1EE7" unicode="&#x1ee7;" horiz-adv-x="1226" 
d="M635 1362q0 63 -84 63q-21 0 -109 -18v102q79 23 152 23q99 0 156 -35.5t57 -103.5q0 -161 -264 -187v74q48 14 70 32.5t22 49.5zM846 1118h246v-1118h-199l-31 111q-140 -140 -340 -140q-106 0 -185 33.5t-124 93.5t-66.5 135t-21.5 166v719h246v-655q0 -138 52 -212.5
t177 -74.5q65 0 131.5 31.5t114.5 95.5v815z" />
    <glyph glyph-name="uni1EE8" unicode="&#x1ee8;" horiz-adv-x="1640" 
d="M918 1806l-228 -262h-182l160 262h250zM1427 1640h197v-149q0 -62 -19 -109.5t-51 -75t-69 -41.5t-78 -14q-69 0 -127 35v-768q0 -147 -45.5 -256t-126 -171.5t-179 -92t-216.5 -29.5q-117 0 -215.5 29.5t-179.5 92t-127 171.5t-46 256v916h258v-897q0 -172 81 -254
t229 -82q309 0 309 336v897h258q54 -48 96 -48q51 0 51 56v198z" />
    <glyph glyph-name="uni1EE9" unicode="&#x1ee9;" horiz-adv-x="1468" 
d="M819 1491l-227 -262h-182l159 262h250zM1239 1325h197v-149q0 -62 -19 -109.5t-51 -75t-69 -41.5t-78 -14q-69 0 -127 35v-971h-199l-31 111q-140 -140 -340 -140q-106 0 -185 33.5t-124 93.5t-66.5 135t-21.5 166v719h246v-655q0 -138 52 -212.5t177 -74.5
q65 0 131.5 31.5t114.5 95.5v815h246q53 -47 96 -47q51 0 51 55v199z" />
    <glyph glyph-name="uni1EEA" unicode="&#x1eea;" horiz-adv-x="1640" 
d="M918 1544h-183l-227 262h250zM1427 1640h197v-149q0 -62 -19 -109.5t-51 -75t-69 -41.5t-78 -14q-69 0 -127 35v-768q0 -147 -45.5 -256t-126 -171.5t-179 -92t-216.5 -29.5q-117 0 -215.5 29.5t-179.5 92t-127 171.5t-46 256v916h258v-897q0 -172 81 -254t229 -82
q309 0 309 336v897h258q54 -48 96 -48q51 0 51 56v198z" />
    <glyph glyph-name="uni1EEB" unicode="&#x1eeb;" horiz-adv-x="1468" 
d="M819 1229h-182l-227 262h249zM1239 1325h197v-149q0 -62 -19 -109.5t-51 -75t-69 -41.5t-78 -14q-69 0 -127 35v-971h-199l-31 111q-140 -140 -340 -140q-106 0 -185 33.5t-124 93.5t-66.5 135t-21.5 166v719h246v-655q0 -138 52 -212.5t177 -74.5q65 0 131.5 31.5
t114.5 95.5v815h246q53 -47 96 -47q51 0 51 55v199z" />
    <glyph glyph-name="uni1EEC" unicode="&#x1eec;" horiz-adv-x="1640" 
d="M733 1677q0 64 -84 64q-16 0 -32 -2.5t-41.5 -8.5t-34.5 -8v103q75 22 151 22q99 0 156 -35.5t57 -103.5q0 -160 -264 -186v73q48 14 70 32.5t22 49.5zM1427 1640h197v-149q0 -62 -19 -109.5t-51 -75t-69 -41.5t-78 -14q-69 0 -127 35v-768q0 -147 -45.5 -256
t-126 -171.5t-179 -92t-216.5 -29.5q-117 0 -215.5 29.5t-179.5 92t-127 171.5t-46 256v916h258v-897q0 -172 81 -254t229 -82q309 0 309 336v897h258q54 -48 96 -48q51 0 51 56v198z" />
    <glyph glyph-name="uni1EED" unicode="&#x1eed;" horiz-adv-x="1468" 
d="M635 1362q0 63 -84 63q-21 0 -109 -18v102q79 23 152 23q99 0 156 -35.5t57 -103.5q0 -161 -264 -187v74q48 14 70 32.5t22 49.5zM1239 1325h197v-149q0 -62 -19 -109.5t-51 -75t-69 -41.5t-78 -14q-69 0 -127 35v-971h-199l-31 111q-140 -140 -340 -140
q-106 0 -185 33.5t-124 93.5t-66.5 135t-21.5 166v719h246v-655q0 -138 52 -212.5t177 -74.5q65 0 131.5 31.5t114.5 95.5v815h246q53 -47 96 -47q51 0 51 55v199z" />
    <glyph glyph-name="uni1EEE" unicode="&#x1eee;" horiz-adv-x="1640" 
d="M524 1563h-131q-18 112 38 183t155 71q45 0 85 -19.5t63.5 -43t53 -43t56.5 -19.5q36 0 53 27.5t4 84.5h131q18 -112 -37 -183t-153 -71q-46 0 -86 19.5t-63.5 43t-51.5 43t-53 19.5q-38 0 -57.5 -29t-6.5 -83zM1427 1640h197v-149q0 -62 -19 -109.5t-51 -75t-69 -41.5
t-78 -14q-69 0 -127 35v-768q0 -147 -45.5 -256t-126 -171.5t-179 -92t-216.5 -29.5q-117 0 -215.5 29.5t-179.5 92t-127 171.5t-46 256v916h258v-897q0 -172 81 -254t229 -82q309 0 309 336v897h258q54 -48 96 -48q51 0 51 56v198z" />
    <glyph glyph-name="uni1EEF" unicode="&#x1eef;" horiz-adv-x="1468" 
d="M426 1247h-131q-18 112 37.5 183t154.5 71q45 0 85 -19.5t63.5 -43t53 -43t56.5 -19.5q36 0 53.5 28t4.5 85h131q18 -112 -37 -183t-154 -71q-46 0 -86 19.5t-63.5 43t-51.5 43t-53 19.5q-38 0 -57 -29.5t-6 -83.5zM1239 1325h197v-149q0 -62 -19 -109.5t-51 -75
t-69 -41.5t-78 -14q-69 0 -127 35v-971h-199l-31 111q-140 -140 -340 -140q-106 0 -185 33.5t-124 93.5t-66.5 135t-21.5 166v719h246v-655q0 -138 52 -212.5t177 -74.5q65 0 131.5 31.5t114.5 95.5v815h246q53 -47 96 -47q51 0 51 55v199z" />
    <glyph glyph-name="uni1EF0" unicode="&#x1ef0;" horiz-adv-x="1640" 
d="M1427 1640h197v-149q0 -62 -19 -109.5t-51 -75t-69 -41.5t-78 -14q-69 0 -127 35v-768q0 -147 -45.5 -256t-126 -171.5t-179 -92t-216.5 -29.5q-117 0 -215.5 29.5t-179.5 92t-127 171.5t-46 256v916h258v-897q0 -172 81 -254t229 -82q309 0 309 336v897h258
q54 -48 96 -48q51 0 51 56v198zM707 -92q56 0 93.5 -37t37.5 -94q0 -55 -38 -93t-93 -38q-56 0 -94 38t-38 93q0 57 38 94t94 37z" />
    <glyph glyph-name="uni1EF1" unicode="&#x1ef1;" horiz-adv-x="1468" 
d="M1239 1325h197v-149q0 -62 -19 -109.5t-51 -75t-69 -41.5t-78 -14q-69 0 -127 35v-971h-199l-31 111q-140 -140 -340 -140q-106 0 -185 33.5t-124 93.5t-66.5 135t-21.5 166v719h246v-655q0 -138 52 -212.5t177 -74.5q65 0 131.5 31.5t114.5 95.5v815h246q53 -47 96 -47
q51 0 51 55v199zM608 -92q56 0 93.5 -37t37.5 -94q0 -55 -37.5 -93t-93.5 -38t-93.5 38t-37.5 93q0 57 37.5 94t93.5 37z" />
    <glyph glyph-name="Ygrave" unicode="&#x1ef2;" horiz-adv-x="1249" 
d="M829 1544h-182l-227 262h250zM1229 1434l-475 -787v-647h-258v647l-476 787h287l314 -531h16l319 531h273z" />
    <glyph glyph-name="ygrave" unicode="&#x1ef3;" horiz-adv-x="1153" 
d="M780 1229h-182l-227 262h250zM874 1118h250l-428 -1130q-64 -172 -162.5 -275.5t-214.5 -103.5q-117 0 -225 57l39 162q65 -16 137 -16q66 0 116 59t99 178l-458 1069h262l303 -794h18z" />
    <glyph glyph-name="uni1EF4" unicode="&#x1ef4;" horiz-adv-x="1249" 
d="M1229 1434l-475 -787v-647h-258v647l-476 787h287l314 -531h16l319 531h273zM618 -92q56 0 94 -37t38 -94q0 -55 -38 -93t-94 -38t-93.5 38t-37.5 93q0 57 37.5 94t93.5 37z" />
    <glyph glyph-name="uni1EF5" unicode="&#x1ef5;" horiz-adv-x="1153" 
d="M874 1118h250l-428 -1130q-64 -172 -162.5 -275.5t-214.5 -103.5q-117 0 -225 57l39 162q65 -16 137 -16q66 0 116 59t99 178l-458 1069h262l303 -794h18zM838 -92q56 0 93.5 -37t37.5 -94q0 -55 -37.5 -93t-93.5 -38t-93.5 38t-37.5 93q0 57 37.5 94t93.5 37z" />
    <glyph glyph-name="uni1EF6" unicode="&#x1ef6;" horiz-adv-x="1249" 
d="M645 1677q0 64 -84 64q-16 0 -32 -2.5t-41.5 -8.5t-34.5 -8v103q75 22 151 22q99 0 156 -35.5t57 -103.5q0 -160 -264 -186v73q48 14 70 32.5t22 49.5zM1229 1434l-475 -787v-647h-258v647l-476 787h287l314 -531h16l319 531h273z" />
    <glyph glyph-name="uni1EF7" unicode="&#x1ef7;" horiz-adv-x="1153" 
d="M596 1362q0 63 -84 63q-21 0 -109 -18v102q79 23 152 23q99 0 156 -35.5t57 -103.5q0 -161 -264 -187v74q48 14 70 32.5t22 49.5zM874 1118h250l-428 -1130q-64 -172 -162.5 -275.5t-214.5 -103.5q-117 0 -225 57l39 162q65 -16 137 -16q66 0 116 59t99 178l-458 1069
h262l303 -794h18z" />
    <glyph glyph-name="uni1EF8" unicode="&#x1ef8;" horiz-adv-x="1249" 
d="M436 1563h-131q-18 112 38 183t155 71q45 0 85 -19.5t63.5 -43t53 -43t56.5 -19.5q36 0 53 27.5t4 84.5h131q18 -112 -37 -183t-153 -71q-46 0 -86 19.5t-63.5 43t-51.5 43t-53 19.5q-38 0 -57.5 -29t-6.5 -83zM1229 1434l-475 -787v-647h-258v647l-476 787h287l314 -531
h16l319 531h273z" />
    <glyph glyph-name="uni1EF9" unicode="&#x1ef9;" horiz-adv-x="1153" 
d="M387 1247h-131q-18 112 38 183t155 71q45 0 85 -19.5t63.5 -43t53 -43t56.5 -19.5q36 0 53 28t4 85h131q18 -112 -37 -183t-153 -71q-46 0 -86 19.5t-63.5 43t-51.5 43t-53 19.5q-38 0 -57.5 -29.5t-6.5 -83.5zM874 1118h250l-428 -1130q-64 -172 -162.5 -275.5
t-214.5 -103.5q-117 0 -225 57l39 162q65 -16 137 -16q66 0 116 59t99 178l-458 1069h262l303 -794h18z" />
    <glyph glyph-name="endash" unicode="&#x2013;" horiz-adv-x="1234" 
d="M133 664h967v-185h-967v185z" />
    <glyph glyph-name="emdash" unicode="&#x2014;" horiz-adv-x="1912" 
d="M133 664h1647v-185h-1647v185z" />
    <glyph glyph-name="quoteleft" unicode="&#x2018;" horiz-adv-x="579" 
d="M291 975q-77 0 -119.5 64.5t-42.5 170.5q0 91 34.5 167.5t108.5 128t177 59.5v-117q-69 -12 -106.5 -53t-37.5 -107q60 0 103 -38t43 -103q0 -72 -42 -122t-118 -50z" />
    <glyph glyph-name="quoteright" unicode="&#x2019;" horiz-adv-x="579" 
d="M287 1565q78 0 121 -64.5t43 -171.5q0 -91 -34.5 -167t-108.5 -127.5t-177 -59.5v117q68 12 105.5 53t37.5 106q-61 0 -103 38.5t-42 103.5q0 72 42 122t116 50z" />
    <glyph glyph-name="quotesinglbase" unicode="&#x201a;" horiz-adv-x="669" 
d="M334 338q76 0 119 -64.5t43 -171.5q0 -91 -34.5 -167t-108.5 -127.5t-177 -59.5v117q69 12 106 53t37 107q-60 0 -102.5 38t-42.5 103q0 72 42 122t118 50z" />
    <glyph glyph-name="quotedblleft" unicode="&#x201c;" horiz-adv-x="1060" 
d="M291 975q-77 0 -119.5 64.5t-42.5 170.5q0 91 34.5 167.5t108.5 128t177 59.5v-117q-69 -12 -106.5 -53t-37.5 -107q60 0 103 -38t43 -103q0 -72 -42 -122t-118 -50zM772 975q-77 0 -119.5 64.5t-42.5 170.5q0 91 34.5 167.5t108.5 128t177 59.5v-117q-69 -12 -106.5 -53
t-37.5 -107q60 0 103 -38t43 -103q0 -72 -42 -122t-118 -50z" />
    <glyph glyph-name="quotedblright" unicode="&#x201d;" horiz-adv-x="1060" 
d="M287 1565q78 0 121 -64.5t43 -171.5q0 -91 -34.5 -167t-108.5 -127.5t-177 -59.5v117q68 12 105.5 53t37.5 106q-61 0 -103 38.5t-42 103.5q0 72 42 122t116 50zM768 1565q78 0 121 -64.5t43 -171.5q0 -91 -34.5 -167t-108.5 -127.5t-177 -59.5v117q68 12 106 53t38 106
q-61 0 -103.5 38.5t-42.5 103.5q0 72 42 122t116 50z" />
    <glyph glyph-name="quotedblbase" unicode="&#x201e;" horiz-adv-x="1138" 
d="M334 338q76 0 119 -64.5t43 -171.5q0 -91 -34.5 -167t-108.5 -127.5t-177 -59.5v117q69 12 106 53t37 107q-60 0 -102.5 38t-42.5 103q0 72 42 122t118 50zM815 338q76 0 119 -64.5t43 -171.5q0 -91 -34.5 -167t-108.5 -127.5t-177 -59.5v117q69 12 106.5 53t37.5 107
q-60 0 -103 38t-43 103q0 72 42 122t118 50z" />
    <glyph glyph-name="dagger" unicode="&#x2020;" horiz-adv-x="720" 
d="M598 1356v-148h-154v-458h-168v458h-153v148h153v194h168v-194h154z" />
    <glyph glyph-name="daggerdbl" unicode="&#x2021;" horiz-adv-x="720" 
d="M598 1229h-154v-156h154v-147h-154v-176h-168v176h-153v147h153v156h-153v145h153v176h168v-176h154v-145z" />
    <glyph glyph-name="bullet" unicode="&#x2022;" horiz-adv-x="739" 
d="M115 674q0 75 29.5 142t89 111t137.5 44q114 0 184 -89.5t70 -207.5q0 -124 -71 -193t-183 -69t-184 69.5t-72 192.5z" />
    <glyph glyph-name="ellipsis" unicode="&#x2026;" horiz-adv-x="1978" 
d="M174 135q0 72 42 124t114 52t113.5 -52t41.5 -124q0 -76 -43 -118t-112 -42q-67 0 -111.5 42.5t-44.5 117.5zM834 135q0 72 41.5 124t113.5 52t114 -52t42 -124q0 -76 -43 -118t-113 -42q-67 0 -111 42.5t-44 117.5zM1493 135q0 72 42 124t114 52t113.5 -52t41.5 -124
q0 -76 -43 -118t-112 -42q-67 0 -111.5 42.5t-44.5 117.5z" />
    <glyph glyph-name="perthousand" unicode="&#x2030;" horiz-adv-x="2662" 
d="M428 717q-165 0 -267 105t-102 263q0 155 103 262t266 107t266 -107t103 -262q0 -158 -102 -263t-267 -105zM1239 1434h182l-876 -1434h-180zM428 905q74 0 119 48.5t45 131.5q0 79 -45.5 130t-118.5 51q-71 0 -116.5 -51t-45.5 -130q0 -82 44.5 -131t117.5 -49z
M1352 -20q-164 0 -266.5 105.5t-102.5 262.5q0 156 102.5 262.5t266.5 106.5t266 -106.5t102 -262.5q0 -157 -102 -262.5t-266 -105.5zM2173 -20q-164 0 -266.5 105.5t-102.5 262.5q0 156 102.5 262.5t266.5 106.5t266.5 -106.5t102.5 -262.5q0 -157 -102.5 -262.5
t-266.5 -105.5zM1352 168q72 0 116.5 49.5t44.5 130.5q0 80 -44.5 130t-116.5 50q-73 0 -118.5 -50t-45.5 -130q0 -81 45 -130.5t119 -49.5zM2173 168q74 0 119 49.5t45 130.5q0 80 -45.5 130t-118.5 50t-118.5 -50t-45.5 -130q0 -81 45 -130.5t119 -49.5z" />
    <glyph glyph-name="guilsinglleft" unicode="&#x2039;" horiz-adv-x="819" 
d="M426 1022h256l-328 -416l328 -422h-256l-350 422z" />
    <glyph glyph-name="guilsinglright" unicode="&#x203a;" horiz-adv-x="819" 
d="M393 1022l350 -416l-350 -422h-256l328 422l-328 416h256z" />
    <glyph glyph-name="fraction" unicode="&#x2044;" horiz-adv-x="329" 
d="M545 1466h168l-934 -1499h-168z" />
    <glyph glyph-name="uni2070" unicode="&#x2070;" horiz-adv-x="843" 
d="M100 1204q0 213 90 349.5t232 136.5q144 0 232.5 -136t88.5 -350q0 -202 -84.5 -319t-236.5 -117q-151 0 -236.5 117.5t-85.5 318.5zM276 1206q0 -140 38 -214t108 -74q71 0 108 73.5t37 214.5q0 158 -38.5 248t-106.5 90q-67 0 -106.5 -90.5t-39.5 -247.5z" />
    <glyph glyph-name="uni2074" unicode="&#x2074;" horiz-adv-x="843" 
d="M752 1124v-143h-111v-203h-164v203h-383v115l348 583h199v-555h111zM283 1124h194v336h-12l-182 -321v-15z" />
    <glyph glyph-name="uni2075" unicode="&#x2075;" horiz-adv-x="843" 
d="M668 1679v-145h-340l-21 -221h10q45 71 146 71q116 0 188 -82t72 -221q0 -146 -80 -229.5t-217 -83.5q-144 0 -225.5 83.5t-75.5 223.5h160q-2 -77 33.5 -119.5t101.5 -42.5q63 0 98 40t35 120q0 84 -36.5 129t-96.5 45q-43 0 -79 -21t-56 -59h-144l47 512h480z" />
    <glyph glyph-name="uni2076" unicode="&#x2076;" horiz-adv-x="843" 
d="M469 1372q117 0 188.5 -81t71.5 -210q0 -143 -81 -228t-210 -85q-154 0 -239.5 112t-85.5 326q0 223 88.5 353.5t238.5 130.5q117 0 188 -75t74 -206h-153q-4 64 -37 102.5t-78 38.5q-132 0 -147 -268h10q1 1 19.5 21t27 26t29 19.5t44 18.5t52.5 5zM436 909
q56 0 89.5 40.5t33.5 115.5q0 77 -36 122.5t-97 45.5q-88 0 -141 -49q6 -275 151 -275z" />
    <glyph glyph-name="uni2077" unicode="&#x2077;" horiz-adv-x="845" 
d="M197 778l309 742v14h-363v145h557v-116l-325 -785h-178z" />
    <glyph glyph-name="uni2078" unicode="&#x2078;" horiz-adv-x="843" 
d="M426 1690q114 0 190 -69t76 -177q0 -67 -26.5 -112t-67.5 -66v-6q57 -21 99 -79t42 -141q0 -118 -88 -195t-227 -77q-140 0 -230 77.5t-90 192.5q0 83 44 143t100 79v6q-38 17 -66 63t-28 113q0 108 79 178t193 70zM422 1556q-52 0 -82.5 -32t-30.5 -88q0 -57 29.5 -89
t83.5 -32t84.5 32t30.5 89q0 58 -31 89t-84 31zM422 1188q-69 0 -107.5 -37.5t-38.5 -103.5q0 -64 40 -102t106 -38q68 0 106.5 37t38.5 103t-38 103.5t-107 37.5z" />
    <glyph glyph-name="uni2079" unicode="&#x2079;" horiz-adv-x="843" 
d="M422 1704q146 0 227.5 -119.5t81.5 -329.5q0 -224 -83 -348.5t-236 -124.5q-122 0 -199.5 78.5t-83.5 206.5h154q5 -63 42 -105t91 -42q63 0 100.5 66.5t44.5 197.5h-10q-62 -84 -170 -84t-184 74t-76 208q0 136 86.5 229t214.5 93zM412 1237q105 0 151 61
q-6 129 -42 197t-99 68q-62 0 -98.5 -43t-36.5 -119q0 -164 125 -164z" />
    <glyph glyph-name="uni2080" unicode="&#x2080;" horiz-adv-x="843" 
d="M100 -10q0 213 90 349t232 136q144 0 232.5 -135.5t88.5 -349.5q0 -202 -84.5 -319t-236.5 -117q-151 0 -236.5 117.5t-85.5 318.5zM276 -8q0 -140 38 -214.5t108 -74.5q71 0 108 74t37 215q0 158 -38.5 248t-106.5 90q-67 0 -106.5 -90.5t-39.5 -247.5z" />
    <glyph glyph-name="uni2081" unicode="&#x2081;" horiz-adv-x="843" 
d="M162 291l250 174h143v-901h-172v700h-10l-152 -110z" />
    <glyph glyph-name="uni2082" unicode="&#x2082;" horiz-adv-x="841" 
d="M287 147h-150q-7 79 23 152.5t101.5 124.5t168.5 51q123 0 197.5 -77t74.5 -203q0 -100 -39.5 -172t-123.5 -154l-142 -152v-12h312v-141h-564l-6 106l260 267q72 72 102.5 126t30.5 121q0 71 -30 111.5t-84 40.5q-62 0 -98 -50.5t-33 -138.5z" />
    <glyph glyph-name="uni2083" unicode="&#x2083;" horiz-adv-x="843" 
d="M596 45q123 -60 123 -207q0 -124 -82.5 -204t-210.5 -80q-138 0 -220.5 91t-76.5 234h158q3 -180 141 -180q117 0 117 131q0 65 -34 103t-95 38h-82v125h78q58 0 87 33t29 92q0 57 -28.5 87t-79.5 30q-63 0 -97 -44t-34 -126h-150q-7 135 73 221t210 86
q117 0 194.5 -67.5t77.5 -171.5q0 -65 -28.5 -111.5t-69.5 -69.5v-10z" />
    <glyph glyph-name="uni2084" unicode="&#x2084;" horiz-adv-x="843" 
d="M752 -90v-143h-111v-203h-164v203h-383v114l348 584h199v-555h111zM283 -90h194v336h-12l-182 -322v-14z" />
    <glyph glyph-name="uni2085" unicode="&#x2085;" horiz-adv-x="843" 
d="M668 465v-146h-340l-21 -221h10q45 72 146 72q116 0 188 -82t72 -221q0 -146 -80 -229.5t-217 -83.5q-144 0 -225.5 83.5t-75.5 223.5h160q-2 -77 33.5 -119.5t101.5 -42.5q63 0 98 40t35 120q0 84 -36.5 129t-96.5 45q-43 0 -79 -21t-56 -59h-144l47 512h480z" />
    <glyph glyph-name="uni2086" unicode="&#x2086;" horiz-adv-x="843" 
d="M469 158q117 0 188.5 -81t71.5 -210q0 -143 -81 -228t-210 -85q-154 0 -239.5 112t-85.5 326q0 223 88.5 353t238.5 130q117 0 188 -74.5t74 -205.5h-153q-4 64 -37 102.5t-78 38.5q-132 0 -147 -268h10q1 1 19.5 21t27 26t29 19.5t44 18.5t52.5 5zM436 -305
q56 0 89.5 40t33.5 115q0 77 -36 122.5t-97 45.5q-88 0 -141 -49q6 -274 151 -274z" />
    <glyph glyph-name="uni2087" unicode="&#x2087;" horiz-adv-x="845" 
d="M197 -436l309 741v14h-363v146h557v-117l-325 -784h-178z" />
    <glyph glyph-name="uni2088" unicode="&#x2088;" horiz-adv-x="843" 
d="M426 475q114 0 190 -69t76 -177q0 -67 -26.5 -112t-67.5 -66v-6q57 -21 99 -78.5t42 -140.5q0 -118 -88 -195t-227 -77q-140 0 -230 77.5t-90 192.5q0 83 44 142t100 79v6q-38 17 -66 63t-28 113q0 108 79 178t193 70zM422 342q-52 0 -82.5 -32.5t-30.5 -88.5
q0 -57 29.5 -89t83.5 -32t84.5 32t30.5 89q0 58 -31 89.5t-84 31.5zM422 -27q-69 0 -107.5 -37.5t-38.5 -103.5q0 -64 40 -101.5t106 -37.5q68 0 106.5 36.5t38.5 102.5t-38 103.5t-107 37.5z" />
    <glyph glyph-name="uni2089" unicode="&#x2089;" horiz-adv-x="843" 
d="M422 475q146 0 227.5 -119t81.5 -329q0 -224 -83 -348.5t-236 -124.5q-123 0 -200 78t-83 206h154q5 -63 42 -105t91 -42q63 0 100.5 66.5t44.5 197.5h-10q-62 -84 -170 -84t-184 74.5t-76 208.5q0 136 86.5 228.5t214.5 92.5zM412 8q104 0 151 62q-6 129 -42 196.5
t-99 67.5q-62 0 -98.5 -43t-36.5 -119q0 -164 125 -164z" />
    <glyph glyph-name="Euro" unicode="&#x20ac;" horiz-adv-x="1202" 
d="M920 209q92 0 192 14v-198q-95 -31 -231 -31q-270 0 -429 132.5t-196 373.5h-139l8 141h119v16q0 65 6 129h-119l8 144h137q27 110 76 200t122.5 160.5t179 110t233.5 39.5q99 0 205 -27l-9 -194q-114 12 -184 12q-306 0 -379 -301h418l-6 -144h-434q-2 -31 -2 -90
q0 -37 2 -55h426l-9 -141h-399q36 -153 137 -222t267 -69z" />
    <glyph glyph-name="uni20BF" unicode="&#x20bf;" horiz-adv-x="1296" 
d="M1167 430q0 -141 -80 -242.5t-231 -132.5l16 -254h-174v240h-168v-240h-174l15 240h-203v1352h201l-13 221h174v-221h168v221h174l-14 -236q123 -30 193.5 -111t70.5 -198q0 -63 -17.5 -115.5t-46.5 -87t-58.5 -57t-61.5 -35.5q105 -26 167 -114.5t62 -229.5zM877 1028
q0 156 -189 156h-276v-334h295q170 0 170 178zM682 254q233 0 233 190q0 207 -202 207h-301v-397h270z" />
    <glyph glyph-name="trademark" unicode="&#x2122;" horiz-adv-x="1400" 
d="M604 1434v-117h-178v-459h-135v459h-174v117h487zM1284 1434v-576h-129v410h-8l-121 -363h-90l-119 363h-8v-410h-129v576h176l127 -369l131 369h170z" />
    <glyph glyph-name="onethird" unicode="&#x2153;" horiz-adv-x="1935" 
d="M162 1315l250 174h143v-901h-172v700h-10l-152 -110zM1327 1466h168l-934 -1499h-168zM1688 455q122 -59 122 -207q0 -124 -82 -204.5t-210 -80.5q-137 0 -220 91.5t-77 234.5h157q3 -180 142 -180q116 0 116 131q0 65 -34 103t-95 38h-82v125h78q58 0 87.5 33t29.5 92
q0 56 -28.5 86.5t-80.5 30.5q-63 0 -97 -44t-34 -126h-149q-7 136 72.5 221.5t209.5 85.5q117 0 195 -68t78 -172q0 -65 -28.5 -111t-69.5 -69v-10z" />
    <glyph glyph-name="twothirds" unicode="&#x2154;" horiz-adv-x="1994" 
d="M287 1163h-150q-7 79 23 152.5t101.5 124.5t168.5 51q123 0 197.5 -77.5t74.5 -203.5q0 -100 -39.5 -171.5t-123.5 -153.5l-142 -152v-12h312v-141h-564l-6 106l260 266q71 71 102 126t31 122q0 71 -30 111.5t-84 40.5q-62 0 -98 -50.5t-33 -138.5zM1386 1466h168
l-933 -1499h-168zM1747 455q123 -60 123 -207q0 -124 -82.5 -204.5t-210.5 -80.5q-137 0 -220 91.5t-77 234.5h158q3 -180 141 -180q117 0 117 131q0 65 -34 103t-95 38h-82v125h78q58 0 87 33t29 92q0 57 -28.5 87t-79.5 30q-63 0 -97 -44t-34 -126h-150q-7 135 73 221
t210 86q117 0 194.5 -68t77.5 -172q0 -65 -28.5 -111t-69.5 -69v-10z" />
    <glyph glyph-name="oneeighth" unicode="&#x215b;" horiz-adv-x="1914" 
d="M162 1315l250 174h143v-901h-172v700h-10l-152 -110zM1327 1466h168l-934 -1499h-168zM1497 885q114 0 190 -69t76 -177q0 -67 -26.5 -112t-67.5 -66v-6q57 -21 99 -78.5t42 -140.5q0 -118 -88.5 -195.5t-226.5 -77.5q-140 0 -229.5 77.5t-89.5 192.5q0 83 43.5 143
t99.5 79v6q-38 17 -66 63t-28 113q0 108 79 178t193 70zM1493 752q-52 0 -82.5 -32.5t-30.5 -88.5q0 -57 29.5 -89t83.5 -32t84.5 32t30.5 89q0 58 -31 89.5t-84 31.5zM1493 383q-69 0 -107 -37.5t-38 -103.5q0 -64 39.5 -102t105.5 -38q68 0 106.5 37t38.5 103t-38 103.5
t-107 37.5z" />
    <glyph glyph-name="threeeighths" unicode="&#x215c;" horiz-adv-x="1976" 
d="M596 1069q123 -60 123 -207q0 -124 -82.5 -204t-210.5 -80q-138 0 -220.5 91t-76.5 234h158q3 -180 141 -180q117 0 117 131q0 65 -34 103t-95 38h-82v125h78q58 0 87 33t29 92q0 57 -28.5 87t-79.5 30q-63 0 -97 -44t-34 -126h-150q-7 135 73 221t210 86
q117 0 194.5 -67.5t77.5 -171.5q0 -65 -28.5 -111.5t-69.5 -69.5v-10zM1389 1466h167l-933 -1499h-168zM1559 885q114 0 190 -69t76 -177q0 -67 -26.5 -112t-67.5 -66v-6q57 -21 99 -78.5t42 -140.5q0 -118 -88.5 -195.5t-227.5 -77.5q-140 0 -229.5 77.5t-89.5 192.5
q0 83 43.5 143t99.5 79v6q-38 17 -66 63t-28 113q0 108 79 178t194 70zM1554 752q-51 0 -81.5 -32t-30.5 -89t29 -89t83 -32t84.5 32t30.5 89q0 58 -31 89.5t-84 31.5zM1554 383q-69 0 -107 -37.5t-38 -103.5q0 -64 39.5 -102t105.5 -38q68 0 107 37t39 103t-38.5 103.5
t-107.5 37.5z" />
    <glyph glyph-name="fiveeighths" unicode="&#x215d;" horiz-adv-x="1976" 
d="M668 1489v-146h-340l-21 -221h10q45 72 146 72q116 0 188 -82t72 -221q0 -146 -80 -229.5t-217 -83.5q-144 0 -225.5 83.5t-75.5 223.5h160q-2 -77 33.5 -119.5t101.5 -42.5q63 0 98 40t35 120q0 84 -36.5 129t-96.5 45q-43 0 -79 -21t-56 -59h-144l47 512h480z
M1389 1466h167l-933 -1499h-168zM1559 885q114 0 190 -69t76 -177q0 -67 -26.5 -112t-67.5 -66v-6q57 -21 99 -78.5t42 -140.5q0 -118 -88.5 -195.5t-227.5 -77.5q-140 0 -229.5 77.5t-89.5 192.5q0 83 43.5 143t99.5 79v6q-38 17 -66 63t-28 113q0 108 79 178t194 70z
M1554 752q-51 0 -81.5 -32t-30.5 -89t29 -89t83 -32t84.5 32t30.5 89q0 58 -31 89.5t-84 31.5zM1554 383q-69 0 -107 -37.5t-38 -103.5q0 -64 39.5 -102t105.5 -38q68 0 107 37t39 103t-38.5 103.5t-107.5 37.5z" />
    <glyph glyph-name="seveneighths" unicode="&#x215e;" horiz-adv-x="1835" 
d="M197 588l309 741v14h-363v146h557v-117l-325 -784h-178zM1247 1466h168l-934 -1499h-168zM1417 885q114 0 190 -69t76 -177q0 -67 -26.5 -112t-67.5 -66v-6q57 -21 99.5 -78.5t42.5 -140.5q0 -118 -88.5 -195.5t-227.5 -77.5q-140 0 -229.5 77.5t-89.5 192.5
q0 83 43.5 143t99.5 79v6q-38 17 -66 63t-28 113q0 108 79 178t193 70zM1413 752q-52 0 -82.5 -32.5t-30.5 -88.5q0 -57 29.5 -89t83.5 -32t84.5 32t30.5 89q0 58 -31 89.5t-84 31.5zM1413 383q-69 0 -107 -37.5t-38 -103.5q0 -64 39.5 -102t105.5 -38q68 0 107 37t39 103
t-38.5 103.5t-107.5 37.5z" />
    <glyph glyph-name="arrowleft" unicode="&#x2190;" 
d="M690 1126l23 -12l-35 -248h432v-299h-432l35 -248l-23 -12l-586 410z" />
    <glyph glyph-name="arrowup" unicode="&#x2191;" 
d="M1024 641l-12 -23l-248 35v-432h-299v432l-248 -35l-12 23l409 586z" />
    <glyph glyph-name="arrowright" unicode="&#x2192;" 
d="M539 307l-23 12l35 248h-432v299h432l-35 248l23 12l585 -409z" />
    <glyph glyph-name="arrowdown" unicode="&#x2193;" 
d="M205 793l12 22l248 -35v432h299v-432l248 35l12 -22l-410 -586z" />
    <glyph glyph-name="arrowboth" unicode="&#x2194;" 
d="M764 1126l498 -409l-498 -410l-21 12l33 248h-323l32 -248l-20 -12l-498 410l498 409l20 -12l-32 -248h323l-33 248z" />
    <glyph glyph-name="arrowupdn" unicode="&#x2195;" 
d="M764 477l248 35l12 -20l-410 -498l-409 498l12 20l248 -35v479l-248 -34l-12 20l409 498l410 -498l-12 -20l-248 34v-479z" />
    <glyph glyph-name="uni2196" unicode="&#x2196;" 
d="M956 952l9 -24l-201 -150l307 -307l-213 -213l-305 307l-152 -198l-22 6l-125 704z" />
    <glyph glyph-name="uni2197" unicode="&#x2197;" 
d="M850 375l-25 -8l-149 200l-307 -307l-213 213l307 305l-199 152l6 22l705 125z" />
    <glyph glyph-name="uni2198" unicode="&#x2198;" 
d="M272 481l-8 25l201 149l-307 308l213 213l305 -308l151 199l23 -6l125 -705z" />
    <glyph glyph-name="uni2199" unicode="&#x2199;" 
d="M379 1059l24 8l150 -201l307 308l213 -213l-307 -306l199 -151l-7 -23l-704 -125z" />
    <glyph glyph-name="partialdiff" unicode="&#x2202;" 
d="M403 1540q96 -22 183 -58t181 -105t162 -159.5t112 -228.5t44 -305q0 -104 -15.5 -201.5t-53.5 -191t-94.5 -162.5t-145 -111.5t-198.5 -42.5q-93 0 -173.5 29.5t-141 85t-95.5 143.5t-35 199q0 105 31.5 199t88.5 164.5t142 111.5t185 41q185 0 301 -141h10
q-34 451 -535 579zM573 152q86 0 148 39.5t96 109.5t49 153t15 183q-89 143 -254 143q-68 0 -121 -21.5t-84.5 -55.5t-52 -80.5t-28 -92t-7.5 -94.5q0 -134 59.5 -209t179.5 -75z" />
    <glyph glyph-name="emptyset" unicode="&#x2205;" horiz-adv-x="1421" 
d="M1159 928q131 -160 131 -369q0 -119 -46 -226.5t-123.5 -184.5t-184.5 -122.5t-225 -45.5q-209 0 -369 131l-100 -101l-80 80l100 100q-131 160 -131 369q0 157 78 290.5t211.5 211.5t290.5 78q208 0 368 -131l101 100l80 -80zM326 559q0 -131 69 -235l555 555
q-98 82 -239 82q-117 0 -206 -57.5t-134 -148t-45 -196.5zM711 158q173 0 279 118.5t106 282.5q0 130 -70 236l-555 -555q98 -82 240 -82z" />
    <glyph glyph-name="product" unicode="&#x220f;" horiz-adv-x="1384" 
d="M1264 1434v-191h-201v-1546h-197v1546h-348v-1546h-196v1546h-201v191h1143z" />
    <glyph glyph-name="summation" unicode="&#x2211;" horiz-adv-x="1054" 
d="M920 1434v-191h-535l311 -631v-92l-311 -633h535v-190h-785v145l361 723l-361 723v146h785z" />
    <glyph glyph-name="minus" unicode="&#x2212;" 
d="M217 678h795v-168h-795v168z" />
    <glyph glyph-name="radical" unicode="&#x221a;" horiz-adv-x="1204" 
d="M872 1434h283v-191h-151l-525 -1546h-69l-361 1014h211l178 -564h17z" />
    <glyph glyph-name="infinity" unicode="&#x221e;" horiz-adv-x="1830" 
d="M502 1022q84 0 159.5 -34.5t129.5 -84t124 -131.5q106 125 199 187.5t215 62.5q159 0 270 -113.5t111 -267.5q0 -99 -45 -187t-134 -145t-202 -57q-53 0 -102 14.5t-83 32.5t-80.5 59t-71 66.5t-77.5 83.5q-36 -39 -49 -53t-44.5 -46.5t-47.5 -45t-45.5 -36t-51.5 -33
t-51.5 -21.5t-59.5 -16.5t-64 -4.5q-113 0 -202 57t-134 145t-45 187q0 154 111 267.5t270 113.5zM811 641q-95 124 -163 176.5t-152 52.5q-83 0 -144 -64t-61 -165q0 -92 54 -165t147 -73q27 0 53 6.5t45.5 14t43.5 25.5t37.5 29t37.5 38t33.5 38.5t35 44t33.5 42.5z
M1335 870q-84 0 -152 -52.5t-163 -176.5q8 -10 33.5 -42.5t35 -44t33.5 -38.5t37.5 -38t37.5 -29t43.5 -25.5t45.5 -14t53 -6.5q93 0 147 73t54 165q0 101 -61 165t-144 64z" />
    <glyph glyph-name="integral" unicode="&#x222b;" horiz-adv-x="913" 
d="M848 1290q-88 25 -117 25q-98 0 -117 -162l-143 -1184q-33 -280 -246 -280q-92 0 -176 20l17 168q5 -2 24 -9.5t26 -9.5t22 -6.5t27 -6t25 -1.5q40 0 58 24t26 79l154 1257q18 149 85.5 209t176.5 60q66 0 174 -15z" />
    <glyph glyph-name="approxequal" unicode="&#x2248;" 
d="M162 618q-8 143 65 239.5t197 96.5q51 0 98 -20.5t81 -49.5t65.5 -58t65.5 -49.5t67 -20.5q98 0 92 164h174q8 -147 -64.5 -242.5t-197.5 -95.5q-51 0 -98 20.5t-81 49.5t-65.5 58t-65.5 49.5t-67 20.5q-99 0 -92 -162h-174zM162 180q-8 145 65 240.5t197 95.5
q51 0 98 -20.5t81 -50t65.5 -58.5t65.5 -49.5t67 -20.5q98 0 92 164h174q8 -145 -65 -241.5t-197 -96.5q-51 0 -98 20.5t-81 50t-65.5 58.5t-65.5 49.5t-67 20.5q-98 0 -92 -162h-174z" />
    <glyph glyph-name="notequal" unicode="&#x2260;" 
d="M1012 717h-281l-102 -242h383v-168h-455l-88 -207h-131l88 207h-209v168h281l102 242h-383v168h455l88 207h131l-88 -207h209v-168z" />
    <glyph glyph-name="lessequal" unicode="&#x2264;" 
d="M1083 901l-675 -217v-16l675 -217v-181l-938 330v152l938 329v-180zM1083 162v-162h-938v162h938z" />
    <glyph glyph-name="greaterequal" unicode="&#x2265;" 
d="M145 901v180l938 -329v-152l-938 -330v181l676 217v16zM145 162h938v-162h-938v162z" />
    <glyph glyph-name="lozenge" unicode="&#x25ca;" 
d="M649 1434l334 -717l-334 -717h-172l-334 717l334 717h172zM575 219l205 498l-205 497h-20l-205 -497l205 -498h20z" />
    <glyph glyph-name="uni2605" unicode="&#x2605;" horiz-adv-x="1398" 
d="M96 670q0 121 26 237.5t78 217.5t123 178t168 121t207 44q137 0 253 -68t191 -180.5t116.5 -255t41.5 -294.5q0 -166 -48 -301t-131 -222t-191.5 -133.5t-231.5 -46.5t-231 46.5t-191 133.5t-131.5 222t-48.5 301z" />
    <glyph glyph-name="heart" unicode="&#x2665;" horiz-adv-x="1800" 
d="M901 27l-387 299q-88 72 -146 129.5t-107 125.5t-72 141.5t-23 158.5q0 190 116 291.5t302 101.5q183 0 317 -105q130 105 316 105t301.5 -101.5t115.5 -291.5q0 -85 -23 -159t-72.5 -142t-107 -125t-145.5 -129z" />
    <glyph glyph-name="uni00A40301" horiz-adv-x="1374" 
d="M1079 1806l-227 -262h-182l159 262h250zM1221 1434v-873q0 -276 -147 -435t-404 -159q-146 0 -258 53t-179.5 145t-101 208.5t-31.5 251.5h252q-2 -114 30 -208.5t106.5 -157t181.5 -62.5q139 0 216 94.5t77 267.5v647h-420v228h678z" />
    <glyph glyph-name="i.loclTRK" horiz-adv-x="514" 
d="M256 1233q-56 0 -93.5 37t-37.5 94q0 56 37.5 93.5t93.5 37.5t93.5 -37.5t37.5 -93.5q0 -57 -37.5 -94t-93.5 -37zM133 1118h246v-1118h-246v1118z" />
    <glyph glyph-name="uni006A0301" horiz-adv-x="518" 
d="M215 1491h250l-227 -262h-183zM137 1118h246v-1206q0 -161 -75.5 -235t-205.5 -74q-113 0 -211 59l29 152q86 -13 105 -13q64 0 88 33t24 119v1165z" />
    <glyph glyph-name="F_J" horiz-adv-x="2043" 
d="M967 614h-559v-614h-258v1434h845v-228h-587v-364h559v-228zM1212 1434h678v-873q0 -275 -147 -434.5t-402 -159.5q-164 0 -283.5 71.5t-185.5 194.5l175 158q109 -194 292 -194q139 0 216 94.5t77 267.5v647h-420v228z" />
    <glyph glyph-name="T_J" horiz-adv-x="2256" 
d="M1206 1206h-430v-1206h-258v1206h-418v228h1106v-228zM1425 1434h678v-873q0 -275 -147 -434.5t-402 -159.5q-164 0 -283.5 71.5t-185.5 194.5l175 158q109 -194 292 -194q139 0 216 94.5t77 267.5v647h-420v228z" />
    <glyph glyph-name="f_b" horiz-adv-x="1951" 
d="M201 1276q0 155 75.5 232t200.5 77q107 0 217 -45v-184q-77 30 -135 30q-64 0 -88.5 -34.5t-24.5 -118.5v-115h248v-180h-248v-938h-245v938h-150v180h150v158zM1423 1139q142 0 247.5 -85.5t156.5 -218t51 -288.5q0 -134 -40 -244t-107 -179.5t-151 -106.5t-175 -37
q-166 0 -311 102l-39 -82h-172v1577h245v-545q141 107 295 107zM1346 186q135 0 208.5 94t73.5 275q0 78 -15 144t-46 121t-86.5 86.5t-130.5 31.5q-117 0 -222 -78v-620q114 -54 218 -54z" />
    <glyph glyph-name="f_h" horiz-adv-x="1982" 
d="M201 1276q0 155 75.5 232t200.5 77q107 0 217 -45v-184q-77 30 -135 30q-64 0 -88.5 -34.5t-24.5 -118.5v-115h248v-180h-248v-938h-245v938h-150v180h150v158zM1485 1135q98 0 170.5 -31.5t113.5 -87.5t60.5 -125t19.5 -152v-739h-245v659q0 134 -49.5 204.5
t-165.5 70.5q-74 0 -143.5 -30.5t-117.5 -94.5v-809h-245v1577h245v-578q76 67 169.5 101.5t187.5 34.5z" />
    <glyph glyph-name="f_j" horiz-adv-x="1269" 
d="M1008 1274q-63 0 -105.5 35.5t-42.5 101.5q0 69 41 122.5t107 53.5t106.5 -53.5t40.5 -122.5q0 -66 -41 -101.5t-106 -35.5zM694 938h-248v-938h-245v938h-150v180h150v158q0 155 75.5 232t200.5 77q107 0 217 -45v-184q-77 30 -135 30q-64 0 -88.5 -34.5t-24.5 -118.5
v-115h248v-180zM885 -47v1165h245v-1206q0 -161 -75 -235t-205 -74q-113 0 -211 59l29 152q86 -13 104 -13q64 0 88.5 33.5t24.5 118.5z" />
    <glyph glyph-name="f_k" horiz-adv-x="1878" 
d="M201 1276q0 155 75.5 232t200.5 77q107 0 217 -45v-184q-77 30 -135 30q-64 0 -88.5 -34.5t-24.5 -118.5v-115h248v-180h-248v-938h-245v938h-150v180h150v158zM1401 668l442 -668h-289l-319 494h-16l-91 -101v-393h-245v1577h245v-899h15l389 440h272z" />
    <glyph glyph-name="F_j.sc" horiz-adv-x="2009" 
d="M967 614h-559v-614h-258v1434h845v-228h-587v-364h559v-228zM1217 1276h645v-780q0 -245 -134.5 -386t-369.5 -141q-169 0 -290.5 69.5t-190.5 192.5l172 160q109 -194 309 -194q117 0 182.5 77.5t65.5 219.5v559h-389v223z" />
    <glyph glyph-name="T_j.sc" horiz-adv-x="2220" 
d="M1206 1206h-430v-1206h-258v1206h-418v228h1106v-228zM1427 1276h648v-780q0 -245 -135 -386t-371 -141q-168 0 -291 69.5t-191 192.5l175 160q109 -194 309 -194q117 0 182.5 77.5t65.5 219.5v559h-392v223z" />
    <glyph glyph-name="a.sc" horiz-adv-x="1288" 
d="M965 0l-95 295h-454l-94 -295h-273l428 1276h334l430 -1276h-276zM475 500h336l-162 508h-14z" />
    <glyph glyph-name="aacute.sc" horiz-adv-x="1288" 
d="M600 1649h250l-227 -263h-183zM965 0l-95 295h-454l-94 -295h-273l428 1276h334l430 -1276h-276zM475 500h336l-162 508h-14z" />
    <glyph glyph-name="abreve.sc" horiz-adv-x="1288" 
d="M498 1655q-4 -61 30.5 -107.5t116.5 -46.5t117 46.5t31 107.5h165q2 -52 -15 -101t-53.5 -90t-99.5 -65.5t-145 -24.5t-145 24.5t-99.5 65.5t-53.5 90t-15 101h166zM965 0l-95 295h-454l-94 -295h-273l428 1276h334l430 -1276h-276zM475 500h336l-162 508h-14z" />
    <glyph glyph-name="uni1EAF.sc" horiz-adv-x="1288" 
d="M600 1956h250l-227 -262h-183zM498 1655q-4 -61 30.5 -107.5t116.5 -46.5t117 46.5t31 107.5h165q2 -52 -15 -101t-53.5 -90t-99.5 -65.5t-145 -24.5t-145 24.5t-99.5 65.5t-53.5 90t-15 101h166zM965 0l-95 295h-454l-94 -295h-273l428 1276h334l430 -1276h-276z
M475 500h336l-162 508h-14z" />
    <glyph glyph-name="uni1EB7.sc" horiz-adv-x="1288" 
d="M498 1655q-4 -61 30.5 -107.5t116.5 -46.5t117 46.5t31 107.5h165q2 -52 -15 -101t-53.5 -90t-99.5 -65.5t-145 -24.5t-145 24.5t-99.5 65.5t-53.5 90t-15 101h166zM965 0l-95 295h-454l-94 -295h-273l428 1276h334l430 -1276h-276zM475 500h336l-162 508h-14zM639 -354
q-55 0 -93 38t-38 93q0 57 37.5 94t93.5 37t93.5 -37t37.5 -94q0 -55 -38 -93t-93 -38z" />
    <glyph glyph-name="uni1EB1.sc" horiz-adv-x="1288" 
d="M690 1956l160 -262h-182l-228 262h250zM498 1655q-4 -61 30.5 -107.5t116.5 -46.5t117 46.5t31 107.5h165q2 -52 -15 -101t-53.5 -90t-99.5 -65.5t-145 -24.5t-145 24.5t-99.5 65.5t-53.5 90t-15 101h166zM965 0l-95 295h-454l-94 -295h-273l428 1276h334l430 -1276h-276
zM475 500h336l-162 508h-14z" />
    <glyph glyph-name="uni1EB3.sc" horiz-adv-x="1288" 
d="M463 1950q90 22 151 22q99 0 156 -36t57 -105q0 -160 -264 -186v75q48 14 70 32.5t22 49.5q0 62 -84 62q-34 0 -108 -19v105zM498 1655q-4 -61 30.5 -107.5t116.5 -46.5t117 46.5t31 107.5h165q2 -52 -15 -101t-53.5 -90t-99.5 -65.5t-145 -24.5t-145 24.5t-99.5 65.5
t-53.5 90t-15 101h166zM965 0l-95 295h-454l-94 -295h-273l428 1276h334l430 -1276h-276zM475 500h336l-162 508h-14z" />
    <glyph glyph-name="uni1EB5.sc" horiz-adv-x="1288" 
d="M965 1954q18 -112 -37 -182t-154 -70q-46 0 -86 19.5t-63.5 43t-51.5 43t-53 19.5q-38 0 -57 -30t-6 -83h-131q-18 111 37.5 181.5t154.5 70.5q45 0 85 -19.5t63.5 -43t53 -43t56.5 -19.5q36 0 53.5 28.5t4.5 84.5h131zM498 1655q-4 -61 30.5 -107.5t116.5 -46.5
t117 46.5t31 107.5h165q2 -52 -15 -101t-53.5 -90t-99.5 -65.5t-145 -24.5t-145 24.5t-99.5 65.5t-53.5 90t-15 101h166zM965 0l-95 295h-454l-94 -295h-273l428 1276h334l430 -1276h-276zM475 500h336l-162 508h-14z" />
    <glyph glyph-name="uni01CE.sc" horiz-adv-x="1288" 
d="M317 1655h189l129 -142h20l129 142h189l-254 -269h-148zM965 0l-95 295h-454l-94 -295h-273l428 1276h334l430 -1276h-276zM475 500h336l-162 508h-14z" />
    <glyph glyph-name="acircumflex.sc" horiz-adv-x="1288" 
d="M317 1386l254 269h148l254 -269h-189l-129 144h-20l-129 -144h-189zM965 0l-95 295h-454l-94 -295h-273l428 1276h334l430 -1276h-276zM475 500h336l-162 508h-14z" />
    <glyph glyph-name="uni1EA5.sc" horiz-adv-x="1288" 
d="M600 1970h250l-227 -262h-183zM317 1386l254 269h148l254 -269h-189l-129 144h-20l-129 -144h-189zM965 0l-95 295h-454l-94 -295h-273l428 1276h334l430 -1276h-276zM475 500h336l-162 508h-14z" />
    <glyph glyph-name="uni1EAD.sc" horiz-adv-x="1288" 
d="M317 1386l254 269h148l254 -269h-189l-129 144h-20l-129 -144h-189zM965 0l-95 295h-454l-94 -295h-273l428 1276h334l430 -1276h-276zM475 500h336l-162 508h-14zM639 -354q-55 0 -93 38t-38 93q0 57 37.5 94t93.5 37t93.5 -37t37.5 -94q0 -55 -38 -93t-93 -38z" />
    <glyph glyph-name="uni1EA7.sc" horiz-adv-x="1288" 
d="M690 1970l160 -262h-182l-228 262h250zM317 1386l254 269h148l254 -269h-189l-129 144h-20l-129 -144h-189zM965 0l-95 295h-454l-94 -295h-273l428 1276h334l430 -1276h-276zM475 500h336l-162 508h-14z" />
    <glyph glyph-name="uni1EA9.sc" horiz-adv-x="1288" 
d="M569 1655q49 14 72 32.5t23 49.5q0 63 -84 63q-23 0 -111 -18v102q79 23 152 23q99 0 157 -36t58 -104q0 -92 -93 -141l228 -240h-189l-129 144h-20l-129 -144h-189zM811 1276l430 -1276h-276l-95 295h-454l-94 -295h-273l428 1276h334zM475 500h336l-162 508h-14z" />
    <glyph glyph-name="uni1EAB.sc" horiz-adv-x="1288" 
d="M965 1968q18 -112 -37 -182t-154 -70q-46 0 -86 19.5t-63.5 43t-51.5 43t-53 19.5q-38 0 -57 -29.5t-6 -82.5h-131q-18 111 37.5 181t154.5 70q45 0 85 -19.5t63.5 -43t53 -43t56.5 -19.5q36 0 53.5 28.5t4.5 84.5h131zM317 1386l254 269h148l254 -269h-189l-129 144h-20
l-129 -144h-189zM965 0l-95 295h-454l-94 -295h-273l428 1276h334l430 -1276h-276zM475 500h336l-162 508h-14z" />
    <glyph glyph-name="adieresis.sc" horiz-adv-x="1288" 
d="M430 1384q-48 0 -82.5 34t-34.5 83q0 47 35 81t82 34t82 -34t35 -81q0 -49 -34.5 -83t-82.5 -34zM860 1384q-48 0 -82.5 34t-34.5 83q0 47 35 81t82 34t82 -34t35 -81q0 -49 -34.5 -83t-82.5 -34zM965 0l-95 295h-454l-94 -295h-273l428 1276h334l430 -1276h-276z
M475 500h336l-162 508h-14z" />
    <glyph glyph-name="uni1EA1.sc" horiz-adv-x="1288" 
d="M965 0l-95 295h-454l-94 -295h-273l428 1276h334l430 -1276h-276zM475 500h336l-162 508h-14zM639 -354q-55 0 -93 38t-38 93q0 57 37.5 94t93.5 37t93.5 -37t37.5 -94q0 -55 -38 -93t-93 -38z" />
    <glyph glyph-name="agrave.sc" horiz-adv-x="1288" 
d="M690 1649l160 -263h-182l-228 263h250zM965 0l-95 295h-454l-94 -295h-273l428 1276h334l430 -1276h-276zM475 500h336l-162 508h-14z" />
    </font>
</defs>
</svg>
