<?xml version="1.0" standalone="no"?>
<!DOCTYPE svg PUBLIC "-//W3C//DTD SVG 1.1//EN" "http://www.w3.org/Graphics/SVG/1.1/DTD/svg11.dtd" >
<svg xmlns="http://www.w3.org/2000/svg" xmlns:xlink="http://www.w3.org/1999/xlink" version="1.1">
<metadata>
Created by FontForge 20170731 at Wed Mar 17 01:27:52 2021
 By Aleksey,,,
Copyright (c) 2019 by Paulo Goode. All rights reserved.
</metadata>
<defs>
<font id="Yolk-Regular" horiz-adv-x="1216" >
  <font-face 
    font-family="Yolk"
    font-weight="400"
    font-stretch="normal"
    units-per-em="2048"
    panose-1="1 0 0 0 0 0 0 0 0 0"
    ascent="1638"
    descent="-410"
    x-height="1110"
    cap-height="1434"
    bbox="-928 -459 2363 2138"
    underline-thickness="102"
    underline-position="-358"
    unicode-range="U+000D-FB02"
  />
<missing-glyph horiz-adv-x="1228" 
d="M0 1638h1229v-2048h-1229v2048zM1188 -369v1966h-1147v-1966h1147zM389 274l-94 95l225 225l-225 225l94 94l225 -225l226 225l94 -94l-225 -225l225 -225l-94 -95l-226 226z" />
    <glyph glyph-name="fi" unicode="fi" horiz-adv-x="1206" 
d="M227 1264q0 154 70 231.5t192 77.5q101 0 177 -47v-137q-85 36 -148 36q-70 0 -98.5 -40.5t-28.5 -145.5v-129h275v-127h-275v-983h-164v983h-161v127h161v154zM965 1298q-45 0 -76 28.5t-31 80.5q0 54 30 95.5t77 41.5t76.5 -41.5t29.5 -95.5q0 -52 -30 -80.5t-76 -28.5
zM883 0v1110h164v-1110h-164z" />
    <glyph glyph-name="fl" unicode="fl" horiz-adv-x="1198" 
d="M879 1577h163v-1577h-163v1577zM227 1264q0 154 70 231.5t192 77.5q101 0 177 -47v-137q-85 36 -148 36q-70 0 -98.5 -40.5t-28.5 -145.5v-129h275v-127h-275v-983h-164v983h-161v127h161v154z" />
    <glyph glyph-name=".notdef" horiz-adv-x="1228" 
d="M0 1638h1229v-2048h-1229v2048zM1188 -369v1966h-1147v-1966h1147zM389 274l-94 95l225 225l-225 225l94 94l225 -225l226 225l94 -94l-225 -225l225 -225l-94 -95l-226 226z" />
    <glyph glyph-name="uni0000" horiz-adv-x="0" 
 />
    <glyph glyph-name="uni0000" horiz-adv-x="0" 
 />
    <glyph glyph-name="uni000D" unicode="&#xd;" horiz-adv-x="512" 
 />
    <glyph glyph-name="space" unicode=" " horiz-adv-x="430" 
 />
    <glyph glyph-name="exclam" unicode="!" horiz-adv-x="659" 
d="M242 1434h192l-22 -945h-148zM205 109q0 57 34 99t91 42t91 -42t34 -99q0 -61 -34.5 -95t-90.5 -34q-55 0 -90 34t-35 95z" />
    <glyph glyph-name="quotedbl" unicode="&#x22;" horiz-adv-x="860" 
d="M180 1507h148v-598h-148v598zM532 1507h148v-598h-148v598z" />
    <glyph glyph-name="numbersign" unicode="#" horiz-adv-x="1456" 
d="M1343 903h-288l-66 -364h289l-23 -127h-288l-72 -412h-127l72 412h-365l-72 -412h-127l72 412h-258l23 127h258l65 364h-258l23 127h258l71 412h127l-71 -412h364l72 412h127l-72 -412h289zM862 539l66 364h-365l-65 -364h364z" />
    <glyph glyph-name="dollar" unicode="$" horiz-adv-x="1243" 
d="M1145 449q0 -181 -120 -305.5t-308 -141.5l12 -199h-176l14 205q-157 24 -276 116.5t-156 213.5l133 80q140 -266 385 -266q134 0 227 77t93 199q0 60 -25.5 105.5t-68.5 75t-99 52.5t-117.5 41.5t-123 38t-117.5 47t-99 63.5t-68.5 91.5t-25.5 126.5q0 136 88 236
t248 122l-12 177h176l-12 -172q186 -18 323 -142l-98 -123q-136 119 -303 119q-109 0 -175.5 -46t-66.5 -138q0 -55 25.5 -97t69 -68.5t99.5 -47.5t118 -39.5t124 -38.5t118 -50t99.5 -69.5t69 -101.5t25.5 -141z" />
    <glyph glyph-name="percent" unicode="%" horiz-adv-x="1712" 
d="M414 758q-155 0 -251.5 99.5t-96.5 248.5q0 146 96.5 247t251.5 101t251.5 -101t96.5 -247q0 -149 -96.5 -248.5t-251.5 -99.5zM1184 1434h147l-868 -1434h-148zM414 895q86 0 138 57t52 154q0 93 -52 152t-138 59t-138.5 -59t-52.5 -152q0 -96 52 -153.5t139 -57.5z
M1233 -20q-155 0 -251.5 99.5t-96.5 248.5q0 146 96.5 247t251.5 101t251.5 -101t96.5 -247q0 -149 -96.5 -248.5t-251.5 -99.5zM1233 117q86 0 138 57t52 154q0 93 -52 152t-138 59t-138.5 -59t-52.5 -152q0 -96 52 -153.5t139 -57.5z" />
    <glyph glyph-name="ampersand" unicode="&#x26;" horiz-adv-x="1482" 
d="M1417 0h-221l-152 164q-184 -184 -460 -184q-71 0 -136 12.5t-126.5 42.5t-107 74t-72.5 112.5t-27 153.5q0 64 16.5 119t43 97t71.5 82.5t91 71.5t112 68q-69 72 -103.5 114.5t-62 104.5t-27.5 127q0 136 100 215.5t252 79.5q64 0 124 -15t115 -47.5t88.5 -92.5
t33.5 -140q0 -63 -20 -116.5t-61 -98.5t-86 -79.5t-110 -73.5l344 -375q76 164 76 405h168q0 -309 -131 -528zM621 1315q-90 0 -141.5 -44.5t-51.5 -117.5q0 -59 35 -108.5t133 -149.5q79 44 119.5 74t67 74t26.5 102q0 50 -17.5 85.5t-47 53t-59.5 24.5t-64 7zM592 127
q217 0 352 147l-399 433q-58 -32 -89.5 -51t-69 -49t-56 -57.5t-31 -67t-12.5 -87.5q0 -135 82 -201.5t223 -66.5z" />
    <glyph glyph-name="quotesingle" unicode="'" horiz-adv-x="507" 
d="M180 1507h148v-598h-148v598z" />
    <glyph glyph-name="parenleft" unicode="(" horiz-adv-x="675" 
d="M508 1507l94 -69q-60 -124 -95 -205t-70.5 -187.5t-51.5 -212.5t-16 -225t16 -227t51 -214.5t71 -191.5t95 -206l-94 -72q-158 231 -234.5 446.5t-76.5 464.5q0 247 76 456.5t235 442.5z" />
    <glyph glyph-name="parenright" unicode=")" horiz-adv-x="675" 
d="M168 1507q159 -233 235 -442.5t76 -456.5q0 -249 -76.5 -464.5t-234.5 -446.5l-94 72q59 121 95 206t71 191.5t51 214.5t16 227t-16 225t-51.5 212.5t-70.5 187.5t-95 205z" />
    <glyph glyph-name="asterisk" unicode="*" horiz-adv-x="958" 
d="M823 1311l-243 -123l243 -123l-65 -115l-230 152l17 -275h-131l16 275l-229 -152l-66 115l244 123l-244 123l66 114l229 -151l-16 274h131l-17 -274l230 151z" />
    <glyph glyph-name="plus" unicode="+" horiz-adv-x="1228" 
d="M991 659v-131h-307v-311h-139v311h-307v131h307v312h139v-312h307z" />
    <glyph glyph-name="comma" unicode="," horiz-adv-x="659" 
d="M330 250q60 0 92.5 -49.5t32.5 -137.5q0 -107 -49.5 -205.5t-157.5 -156.5l-43 88q120 72 106 195q-42 0 -74 33t-32 92q0 57 34 99t91 42z" />
    <glyph glyph-name="hyphen" unicode="-" horiz-adv-x="1089" 
d="M254 637h582v-131h-582v131z" />
    <glyph glyph-name="period" unicode="." horiz-adv-x="659" 
d="M205 109q0 57 34 99t91 42t91 -42t34 -99q0 -61 -34.5 -95t-90.5 -34q-55 0 -90 34t-35 95z" />
    <glyph glyph-name="slash" unicode="/" horiz-adv-x="759" 
d="M629 1638h147l-661 -1941h-148z" />
    <glyph glyph-name="zero" unicode="0" horiz-adv-x="1261" 
d="M127 678q0 118 17 226.5t55.5 210t96 176t143.5 119t192 44.5t192 -44.5t143.5 -119t96 -176t55.5 -210t17 -226.5q0 -331 -134.5 -514.5t-369.5 -183.5t-369.5 183.5t-134.5 514.5zM299 682q0 -262 84.5 -406.5t247.5 -144.5t247.5 144.5t84.5 406.5q0 95 -10.5 182
t-35.5 170t-62.5 143.5t-95 97t-128.5 36.5t-128.5 -36.5t-95 -97t-62.5 -143.5t-35.5 -170t-10.5 -182z" />
    <glyph glyph-name="one" unicode="1" horiz-adv-x="843" 
d="M74 1157l405 277h144v-1434h-164v1231h-15l-307 -205z" />
    <glyph glyph-name="two" unicode="2" horiz-adv-x="1198" 
d="M291 1004h-156q0 58 19 119.5t58.5 121t93.5 106t131.5 75t166.5 28.5q87 0 163 -25.5t137 -75t96.5 -132.5t35.5 -189q0 -81 -19.5 -150.5t-62.5 -135t-87.5 -116t-118.5 -122.5l-338 -352v-13h661v-143h-907l-10 111l491 503q57 55 93.5 97t69.5 93t48.5 105.5
t15.5 116.5q0 65 -17.5 117t-45.5 83.5t-66 52t-74.5 28.5t-74.5 8q-137 0 -220 -90t-83 -221z" />
    <glyph glyph-name="three" unicode="3" horiz-adv-x="1220" 
d="M799 766q274 -90 274 -346q0 -86 -31.5 -165.5t-88.5 -140.5t-143.5 -97.5t-188.5 -36.5q-72 0 -140 17.5t-131.5 56t-110.5 94.5t-75.5 139.5t-28.5 183.5h164q0 -87 25.5 -154t70.5 -106.5t102.5 -59.5t125.5 -20q73 0 128 22.5t87 61.5t47.5 86.5t15.5 101.5
q0 131 -84 209t-219 78h-115v144h107q139 0 211.5 60t72.5 171q0 64 -24.5 114.5t-65 78.5t-86.5 42.5t-94 14.5q-135 0 -218 -81t-83 -230h-156q0 191 129 319t338 131q111 0 206 -42.5t156.5 -128.5t61.5 -198q0 -116 -69 -198.5t-170 -110.5v-10z" />
    <glyph glyph-name="four" unicode="4" horiz-adv-x="1228" 
d="M1118 514v-156h-200v-358h-164v358h-684v127l632 949h216v-920h200zM274 514h480v715h-17l-463 -699v-16z" />
    <glyph glyph-name="five" unicode="5" horiz-adv-x="1228" 
d="M1001 1434l3 -156h-611l-41 -467h13q117 139 303 139q79 0 152.5 -27.5t136 -82.5t100 -150t37.5 -217q0 -220 -120 -356.5t-339 -136.5q-97 0 -181.5 28.5t-153 85.5t-108.5 154t-40 223h163q0 -173 83.5 -256.5t226.5 -83.5q79 0 137.5 25t92.5 70t50.5 101.5
t16.5 125.5q0 158 -78 256t-219 98q-98 0 -177 -49t-120 -127l-144 -2l74 805h743z" />
    <glyph glyph-name="six" unicode="6" horiz-adv-x="1228" 
d="M651 950q105 0 190.5 -40t140 -107.5t83.5 -153.5t29 -180q0 -68 -14.5 -134t-49.5 -131t-86 -114t-131 -79.5t-178 -30.5q-244 0 -376 181.5t-132 524.5q0 171 33.5 311.5t97.5 242.5t163 158t224 56q182 0 288 -113.5t120 -308.5h-152q-14 120 -85 199.5t-181 79.5
q-155 0 -243 -164.5t-93 -431.5h10q9 30 25 60t45 62.5t65.5 56.5t90.5 40t116 16zM643 131q135 0 207 87t72 226q0 50 -9 98t-31 97t-55 85.5t-85 59.5t-117 23q-43 0 -86.5 -11.5t-87.5 -40.5t-75.5 -71t-45.5 -109.5t-2 -150.5q70 -293 315 -293z" />
    <glyph glyph-name="seven" unicode="7" horiz-adv-x="1019" 
d="M172 0l576 1262v16h-682v156h880v-136l-581 -1298h-193z" />
    <glyph glyph-name="eight" unicode="8" horiz-adv-x="1228" 
d="M621 1454q110 0 204.5 -44.5t154.5 -132.5t60 -202q0 -115 -59 -193.5t-152 -111.5v-6q120 -24 204.5 -127.5t84.5 -237.5q0 -173 -141 -296t-361 -123q-218 0 -361.5 120t-143.5 295q0 135 84.5 238.5t207.5 128.5v8q-92 33 -151 111t-59 192t62.5 203t159 133.5
t206.5 44.5zM614 1311q-121 0 -189.5 -69.5t-68.5 -174.5t68 -172.5t190 -67.5q125 0 194 67.5t69 172.5q0 106 -69.5 175t-193.5 69zM614 684q-141 0 -234 -69.5t-93 -200.5q0 -133 95 -208t232 -75q138 0 233 74.5t95 208.5q0 90 -47 152.5t-119 90t-162 27.5z" />
    <glyph glyph-name="nine" unicode="9" horiz-adv-x="1228" 
d="M154 401h151q15 -119 104 -198.5t207 -79.5q299 0 314 559v35h-12q-31 -100 -120 -167t-233 -67q-86 0 -158.5 28t-121.5 75t-83.5 109t-50.5 130t-16 138q0 93 33 180.5t91.5 157t148 111.5t194.5 42q230 0 365 -196t135 -541q0 -354 -124.5 -545.5t-369.5 -191.5
q-193 0 -316 113.5t-138 307.5zM602 627q82 0 143.5 28.5t95.5 75.5t50 98t16 105q0 158 -88 263.5t-217 105.5q-52 0 -100.5 -18.5t-94 -58.5t-73 -115t-27.5 -177q0 -31 7 -66.5t27 -79.5t51 -78.5t86 -58.5t124 -24z" />
    <glyph glyph-name="colon" unicode=":" horiz-adv-x="659" 
d="M205 944q0 57 34 99t91 42t91 -42t34 -99q0 -61 -34.5 -95t-90.5 -34q-55 0 -90 34t-35 95zM205 109q0 57 34 99t91 42t91 -42t34 -99q0 -61 -34.5 -95t-90.5 -34q-55 0 -90 34t-35 95z" />
    <glyph glyph-name="semicolon" unicode=";" horiz-adv-x="659" 
d="M205 944q0 57 34 99t91 42t91 -42t34 -99q0 -61 -34.5 -95t-90.5 -34q-55 0 -90 34t-35 95zM330 250q60 0 92.5 -49.5t32.5 -137.5q0 -107 -49.5 -205.5t-157.5 -156.5l-43 88q120 72 106 195q-42 0 -74 33t-32 92q0 57 34 99t91 42z" />
    <glyph glyph-name="less" unicode="&#x3c;" horiz-adv-x="1228" 
d="M1073 934l-754 -352v-17l754 -352v-143l-917 434v139l917 434v-143z" />
    <glyph glyph-name="equal" unicode="=" horiz-adv-x="1228" 
d="M238 866h753v-131h-753v131zM238 457h753v-131h-753v131z" />
    <glyph glyph-name="greater" unicode="&#x3e;" horiz-adv-x="1228" 
d="M156 934v143l917 -434v-139l-917 -434v143l753 352v17z" />
    <glyph glyph-name="question" unicode="?" horiz-adv-x="1105" 
d="M594 489h-164v46q0 75 20.5 132t53 91.5t71.5 62.5t78.5 52t72 51.5t53 70t20.5 99.5q0 109 -68.5 163t-179.5 54q-271 0 -252 -289h-164q-6 107 26.5 191.5t92.5 136t136.5 78t162.5 26.5q56 0 112 -11t112 -37.5t98.5 -65.5t69 -100.5t26.5 -137.5q0 -67 -21 -121.5
t-54 -90t-73.5 -65.5t-80.5 -57t-73 -56t-54 -70t-21 -91v-62zM399 109q0 57 34 99t91 42t91 -42t34 -99q0 -61 -34.5 -95t-90.5 -34q-55 0 -90 34t-35 95z" />
    <glyph glyph-name="at" unicode="@" horiz-adv-x="1923" 
d="M995 1397q122 0 240 -31t221.5 -94t182 -150t124 -206.5t45.5 -256.5q0 -82 -15.5 -159t-50.5 -148.5t-85.5 -125t-126.5 -85.5t-168 -32q-101 0 -170.5 37.5t-89.5 103.5q-129 -113 -285 -113q-143 0 -216 96.5t-73 249.5q0 102 34.5 192t99 159.5t165.5 110t226 40.5
q31 0 62 -2.5t60.5 -8t52.5 -10.5t49.5 -13t39 -12t33.5 -11.5t22 -7.5l-100 -568q-17 -104 104 -104q52 0 95 18t71.5 49.5t49 70.5t32 85t16.5 89t5 87q0 118 -35.5 217.5t-96.5 170.5t-144 120.5t-177.5 73.5t-196.5 24q-198 0 -360 -87.5t-259 -256.5t-97 -389
q0 -168 57.5 -300t159 -215t236 -126t294.5 -43q114 0 291 33l24 -129q-64 -18 -162.5 -32.5t-189.5 -14.5q-133 0 -260 34.5t-238 104t-195 167t-132.5 233t-48.5 292.5q0 191 72 356t193.5 277t281 176t333.5 64zM1098 342l84 475q-102 25 -172 25q-137 0 -223.5 -101
t-86.5 -235q0 -225 164 -225q105 0 234 61z" />
    <glyph glyph-name="A" unicode="A" horiz-adv-x="1318" 
d="M1081 0l-141 420h-565l-142 -420h-176l486 1434h233l486 -1434h-181zM426 575h463l-225 670h-13z" />
    <glyph glyph-name="B" unicode="B" horiz-adv-x="1280" 
d="M889 774q119 -28 189.5 -127.5t70.5 -243.5q0 -180 -119.5 -291.5t-345.5 -111.5h-512v1434h522q191 0 299.5 -95.5t108.5 -248.5q0 -53 -14 -100t-35.5 -81t-50.5 -61.5t-56.5 -45t-56.5 -28.5zM670 1270h-330v-432h360q58 0 101 16t66.5 39.5t37.5 56.5t17.5 59.5
t3.5 55.5q0 103 -58.5 154t-197.5 51zM657 160q96 0 161.5 21t97.5 59.5t44.5 79t12.5 92.5q0 125 -66.5 195.5t-206.5 70.5h-360v-518h317z" />
    <glyph glyph-name="C" unicode="C" horiz-adv-x="1386" 
d="M1061 903q-1 61 -10.5 116t-34.5 110.5t-63.5 95.5t-102 65t-145.5 25q-104 0 -184.5 -55.5t-127.5 -149.5t-70.5 -205t-23.5 -233q0 -252 108.5 -396.5t305.5 -144.5q358 0 358 434h172q0 -100 -18 -186.5t-58 -162.5t-100.5 -129.5t-150.5 -84.5t-203 -31
q-277 0 -433.5 191t-156.5 508q0 119 20.5 231.5t67 216t113.5 180t166.5 122.5t220.5 46q107 0 195 -32t147.5 -86.5t101 -127.5t60 -152.5t18.5 -164.5h-172z" />
    <glyph glyph-name="D" unicode="D" horiz-adv-x="1351" 
d="M592 1434q132 0 239 -39t180.5 -106.5t123 -160.5t72 -198t22.5 -221q0 -117 -23 -221t-72 -194t-121.5 -155t-177.5 -102t-233 -37h-430v1434h420zM614 160q79 0 143.5 18t109.5 48t79 74t54 90t32 102t16.5 105t4.5 103q0 570 -473 570h-240v-1110h274z" />
    <glyph glyph-name="E" unicode="E" horiz-adv-x="1130" 
d="M967 1270h-627v-428h598v-164h-598v-510h627v-168h-795v1434h795v-164z" />
    <glyph glyph-name="F" unicode="F" horiz-adv-x="1110" 
d="M967 1270h-627v-445h606v-163h-606v-662h-168v1434h795v-164z" />
    <glyph glyph-name="G" unicode="G" horiz-adv-x="1411" 
d="M709 766h538v-301q0 -63 -17.5 -128.5t-59 -132t-101 -117.5t-152 -83.5t-204.5 -32.5q-274 0 -432 193.5t-158 517.5q0 78 9.5 155t31 155t54 147t81 129.5t108 104t139.5 68.5t173 25q101 0 185 -30t140 -79t96 -115.5t60.5 -135t26.5 -141.5h-172q-8 72 -32 133
t-64.5 110.5t-104.5 78t-145 28.5q-76 0 -139 -27t-106.5 -74.5t-76.5 -108t-51.5 -133t-27.5 -144t-9 -144.5q0 -264 111 -408.5t315 -144.5q82 0 145.5 22t102 57.5t63 84.5t34 97t9.5 102v120h-370v152z" />
    <glyph glyph-name="H" unicode="H" horiz-adv-x="1429" 
d="M1090 1434h167v-1434h-167v688h-750v-688h-168v1434h168v-582h750v582z" />
    <glyph glyph-name="I" unicode="I" horiz-adv-x="528" 
d="M180 1434h168v-1434h-168v1434z" />
    <glyph glyph-name="J" unicode="J" horiz-adv-x="1388" 
d="M1204 1434v-861q0 -279 -134 -440.5t-380 -161.5q-137 0 -245.5 52.5t-175.5 144t-101.5 210.5t-32.5 257h168q-1 -72 11.5 -142t42 -136.5t73 -117t110.5 -81.5t148 -31q168 0 258 117.5t90 330.5v695h-458v164h626z" />
    <glyph glyph-name="K" unicode="K" horiz-adv-x="1300" 
d="M610 784l625 -784h-229l-504 639h-19l-143 -168v-471h-168v1434h168v-721h16l605 721h208z" />
    <glyph glyph-name="L" unicode="L" horiz-adv-x="1101" 
d="M340 168h627v-168h-795v1434h168v-1266z" />
    <glyph glyph-name="M" unicode="M" horiz-adv-x="1691" 
d="M1520 1434v-1434h-168v1210h-17l-420 -1073h-139l-422 1073h-14v-1210h-168v1434h248l422 -1067h8l428 1067h242z" />
    <glyph glyph-name="N" unicode="N" horiz-adv-x="1409" 
d="M1069 1434h168v-1434h-152l-729 1133h-16v-1133h-168v1434h186l695 -1096h16v1096z" />
    <glyph glyph-name="O" unicode="O" horiz-adv-x="1417" 
d="M123 670q0 148 39.5 289t111.5 254.5t185.5 183t249.5 69.5q110 0 205.5 -45.5t164 -123t118 -179.5t73.5 -216t24 -232q0 -159 -46 -291.5t-125 -221t-186 -137.5t-228 -49t-228 49t-186.5 137.5t-125.5 221t-46 291.5zM299 676q0 -247 116 -396t294 -149t293.5 148.5
t115.5 396.5q0 118 -28 231.5t-79 204.5t-130 147t-172 56q-123 0 -219 -96t-143.5 -240t-47.5 -303z" />
    <glyph glyph-name="P" unicode="P" horiz-adv-x="1204" 
d="M588 1434q136 0 236.5 -36.5t158 -103t84.5 -148.5t27 -183q0 -121 -38 -218.5t-103 -159t-149 -94t-179 -32.5h-285v-459h-168v1434h416zM627 618q137 0 216 86.5t79 260.5q0 72 -15.5 125t-53.5 95t-108 63.5t-172 21.5h-233v-652h287z" />
    <glyph glyph-name="Q" unicode="Q" horiz-adv-x="1433" 
d="M1325 -147l35 -93q-65 -53 -172 -53q-130 0 -228.5 72t-123.5 207q-62 -15 -127 -15q-121 0 -228 49t-186.5 137.5t-125.5 221t-46 291.5q0 148 39.5 289t111.5 254.5t185.5 183t249.5 69.5q110 0 205.5 -45.5t164 -123t118 -179.5t73.5 -216t24 -232
q0 -214 -79.5 -373.5t-215.5 -243.5q7 -105 68.5 -158t163.5 -53q38 0 94 11zM299 676q0 -247 116 -396t294 -149t293.5 148.5t115.5 396.5q0 118 -28 231.5t-79 204.5t-130 147t-172 56q-123 0 -219 -96t-143.5 -240t-47.5 -303z" />
    <glyph glyph-name="R" unicode="R" horiz-adv-x="1253" 
d="M958 0l-299 500h-319v-500h-168v1434h459q100 0 180.5 -26t133 -70t88 -104.5t50.5 -126.5t15 -138q0 -161 -71 -272.5t-189 -161.5l317 -535h-197zM340 1270v-611h291q140 0 217.5 77t77.5 229q0 63 -14.5 114t-47.5 96t-96 70t-152 25h-276z" />
    <glyph glyph-name="S" unicode="S" horiz-adv-x="1239" 
d="M303 492q0 -170 88.5 -265.5t245.5 -95.5q132 0 223.5 75.5t91.5 196.5q0 58 -25.5 104t-69 77t-99.5 57t-118 49t-123.5 47t-117.5 55.5t-99.5 71t-69 98.5t-25.5 132q0 156 114 264t312 108q208 0 312 -113t104 -304h-173q0 266 -243 266q-117 0 -185.5 -47.5
t-68.5 -141.5q0 -54 25.5 -97t69 -71.5t99.5 -52.5t118 -46t123.5 -46.5t117.5 -59t99.5 -78t69 -109.5t25.5 -148q0 -191 -137.5 -319t-349.5 -128q-234 0 -370 142.5t-136 378.5h172z" />
    <glyph glyph-name="T" unicode="T" horiz-adv-x="1327" 
d="M1204 1434v-164h-463v-1270h-168v1270h-450v164h1081z" />
    <glyph glyph-name="U" unicode="U" horiz-adv-x="1433" 
d="M1262 1434v-916q0 -143 -42 -250.5t-117.5 -171t-172 -94.5t-213.5 -31t-213.5 31t-172 94.5t-117.5 171t-42 250.5v916h168v-910q0 -107 28.5 -185t81 -122.5t118.5 -65t149 -20.5t149 20.5t118.5 65t81 122.5t28.5 185v910h168z" />
    <glyph glyph-name="V" unicode="V" horiz-adv-x="1294" 
d="M1079 1434h174l-491 -1434h-230l-491 1434h178l420 -1235h20z" />
    <glyph glyph-name="W" unicode="W" horiz-adv-x="2029" 
d="M1794 1434h170l-397 -1434h-213l-326 1139h-22l-326 -1139h-213l-401 1434h182l325 -1223h11l354 1223h162l354 -1223h14z" />
    <glyph glyph-name="X" unicode="X" horiz-adv-x="1273" 
d="M1004 0l-357 590h-20l-361 -590h-200l477 733l-449 701h197l338 -555h16l346 555h189l-449 -701l477 -733h-204z" />
    <glyph glyph-name="Y" unicode="Y" 
d="M995 1434h181l-484 -775v-659h-168v659l-483 775h197l366 -605h17z" />
    <glyph glyph-name="Z" unicode="Z" horiz-adv-x="1177" 
d="M1032 1434v-152l-708 -1098v-16h747v-168h-965v147l711 1106v17h-686v164h901z" />
    <glyph glyph-name="bracketleft" unicode="[" horiz-adv-x="751" 
d="M678 1384h-318v-1556h318v-131h-481v1819h481v-132z" />
    <glyph glyph-name="backslash" unicode="\" horiz-adv-x="759" 
d="M115 1638l661 -1941h-147l-662 1941h148z" />
    <glyph glyph-name="bracketright" unicode="]" horiz-adv-x="751" 
d="M555 1516v-1819h-481v131h317v1556h-317v132h481z" />
    <glyph glyph-name="asciicircum" unicode="^" horiz-adv-x="1228" 
d="M825 825l-207 447h-10l-209 -447h-145l293 609h135l293 -609h-150z" />
    <glyph glyph-name="underscore" unicode="_" horiz-adv-x="1214" 
d="M156 -121h903v-131h-903v131z" />
    <glyph glyph-name="grave" unicode="`" 
d="M618 1491l168 -262h-139l-217 262h188z" />
    <glyph glyph-name="a" unicode="a" horiz-adv-x="1177" 
d="M594 1139q119 0 203.5 -32t133 -93.5t70 -141.5t21.5 -186v-686h-127l-18 82q-69 -44 -175.5 -73t-199.5 -29q-73 0 -139 19.5t-120.5 58.5t-87 107t-32.5 157q0 166 106.5 258t290.5 92q162 0 338 -51v108q0 130 -68 196t-196 66q-117 0 -183.5 -50t-70.5 -144h-164
q3 166 120 254t298 88zM295 332q0 -205 250 -205q163 0 313 63v310q-164 32 -297 32q-130 0 -198 -45.5t-68 -154.5z" />
    <glyph glyph-name="b" unicode="b" horiz-adv-x="1187" 
d="M653 1130q107 0 193.5 -49.5t140.5 -132t82.5 -186.5t28.5 -217q0 -133 -38.5 -242t-103 -178.5t-147 -107t-172.5 -37.5q-88 0 -176.5 32.5t-155.5 85.5l-22 -98h-127v1577h163v-567q161 120 334 120zM608 127q145 0 232.5 106t87.5 316q0 92 -18.5 169.5t-56.5 138.5
t-101.5 95.5t-147.5 34.5q-159 0 -285 -113v-659q65 -42 142.5 -65t146.5 -23z" />
    <glyph glyph-name="c" unicode="c" horiz-adv-x="1185" 
d="M909 723q-16 117 -95.5 194.5t-215.5 77.5q-112 0 -190 -65.5t-113 -168t-35 -231.5q0 -195 91.5 -303t254.5 -108q131 0 213.5 73.5t104.5 243.5h159q-8 -119 -49 -209.5t-106 -145.5t-146 -82.5t-176 -27.5q-230 0 -373 148t-143 405q0 118 32.5 226t93.5 196
t160 140.5t222 52.5q105 0 193.5 -35t147 -94t92.5 -133t38 -154h-160z" />
    <glyph glyph-name="d" unicode="d" horiz-adv-x="1187" 
d="M868 1577h164v-1577h-127l-22 98q-142 -118 -324 -118q-96 0 -180.5 38t-149 108t-102 179t-37.5 242q0 90 17 174t53.5 158.5t90 130t131 88t171.5 32.5q160 0 315 -90v537zM260 551q0 -214 87.5 -319t244.5 -105q141 0 276 74v706q-117 80 -264 80q-76 0 -136 -23.5
t-98.5 -63t-63.5 -96t-35.5 -118.5t-10.5 -135z" />
    <glyph glyph-name="e" unicode="e" horiz-adv-x="1196" 
d="M1081 532h-819v-14q0 -211 98 -309t263 -98q130 0 208 78t101 192h143q-20 -188 -147 -299t-310 -111q-108 0 -203 36t-167.5 103t-115 170.5t-42.5 229.5q0 95 18.5 184t58.5 170.5t98 142t143.5 96.5t187.5 36q217 0 351 -143.5t134 -403.5v-60zM596 995
q-138 0 -217.5 -89.5t-104.5 -237.5h633q-3 155 -87.5 241t-223.5 86z" />
    <glyph glyph-name="f" unicode="f" horiz-adv-x="722" 
d="M518 1425q-70 0 -98.5 -40.5t-28.5 -145.5v-129h275v-127h-275v-983h-164v983h-161v127h161v154q0 154 70 231.5t192 77.5q126 0 218 -78l-29 -111q-4 1 -18.5 7t-19.5 8t-18 6.5t-20 6.5t-19 5t-21 4.5t-20.5 2.5t-23.5 1z" />
    <glyph glyph-name="g" unicode="g" horiz-adv-x="1187" 
d="M905 1110h127v-1032q0 -227 -128 -343t-347 -116q-186 0 -375 88l49 131q165 -76 328 -76q145 0 227 79.5t82 236.5v45q-140 -90 -315 -90q-98 0 -181 32.5t-146.5 95t-99.5 163.5t-36 229q0 90 17 173t54 157t90.5 128.5t131 86.5t170.5 32q72 0 146.5 -20.5t107 -36.5
t80.5 -43zM604 176q129 0 264 60v671q-116 80 -266 80q-93 0 -161 -33.5t-106.5 -94t-56.5 -134t-18 -162.5q0 -205 89 -296t255 -91z" />
    <glyph glyph-name="h" unicode="h" horiz-adv-x="1214" 
d="M680 1130q85 0 151.5 -23t108.5 -61.5t69.5 -93t38.5 -112.5t11 -125v-715h-164v662q0 78 -11.5 135t-39.5 102.5t-78 68.5t-123 23q-90 0 -178 -36t-146 -115v-840h-163v1577h163v-590q143 143 361 143z" />
    <glyph glyph-name="i" unicode="i" horiz-adv-x="483" 
d="M135 1407q0 54 30 95.5t77 41.5t76.5 -41.5t29.5 -95.5q0 -52 -30 -80.5t-76 -28.5q-45 0 -76 28.5t-31 80.5zM160 1110h164v-1110h-164v1110z" />
    <glyph glyph-name="j" unicode="j" horiz-adv-x="485" 
d="M137 1407q0 54 30 95.5t77 41.5t76.5 -41.5t29.5 -95.5q0 -52 -30 -80.5t-76 -28.5q-45 0 -76 28.5t-31 80.5zM162 1110h164v-1182q0 -155 -69.5 -232t-190.5 -77q-45 0 -93.5 17.5t-83.5 44.5l39 106q62 -20 107 -20q70 0 98.5 41.5t28.5 144.5v1157z" />
    <glyph glyph-name="k" unicode="k" horiz-adv-x="1081" 
d="M543 637l489 -637h-209l-383 510h-16l-105 -113v-397h-163v1577h163v-961h17l444 494h201z" />
    <glyph glyph-name="l" unicode="l" horiz-adv-x="475" 
d="M156 1577h163v-1577h-163v1577z" />
    <glyph glyph-name="m" unicode="m" horiz-adv-x="1916" 
d="M1370 1130q90 0 159.5 -23.5t112.5 -61.5t70.5 -93t38 -112.5t10.5 -124.5v-715h-164v662q0 78 -11.5 135t-39 102.5t-77.5 68.5t-123 23q-88 0 -169.5 -36.5t-136.5 -114.5v-840h-163v700q0 291 -252 291q-88 0 -169.5 -36.5t-136.5 -114.5v-840h-163v1110h151l8 -119
q133 139 342 139q226 0 338 -165q127 165 375 165z" />
    <glyph glyph-name="n" unicode="n" horiz-adv-x="1214" 
d="M680 1130q85 0 151.5 -23t108.5 -61.5t69.5 -93t38.5 -112.5t11 -125v-715h-164v662q0 78 -11.5 135t-39.5 102.5t-78 68.5t-123 23q-92 0 -179.5 -37.5t-144.5 -119.5v-834h-163v1110h151l10 -127q139 147 363 147z" />
    <glyph glyph-name="o" unicode="o" 
d="M90 512q0 117 34 227.5t97 200.5t163.5 144.5t223.5 54.5t223.5 -54.5t163.5 -144.5t97 -200.5t34 -227.5q0 -254 -145 -397.5t-373 -143.5t-373 143.5t-145 397.5zM260 516q0 -197 93 -297t255 -100t255 100t93 297q0 129 -37.5 235.5t-118 175t-192.5 68.5
t-192.5 -68.5t-118 -175t-37.5 -235.5z" />
    <glyph glyph-name="p" unicode="p" horiz-adv-x="1187" 
d="M651 1130q87 0 161 -34.5t126 -92.5t88.5 -135.5t54 -163.5t17.5 -176q0 -131 -38.5 -237.5t-103 -173t-146 -102t-171.5 -35.5q-85 0 -169.5 30.5t-150.5 79.5v-459h-163v1479h127l26 -109q63 52 154 90.5t188 38.5zM608 127q147 0 233.5 98.5t86.5 306.5
q0 73 -11.5 138.5t-36.5 124t-62 101t-92 67t-122 24.5q-159 0 -285 -113v-659q65 -42 142.5 -65t146.5 -23z" />
    <glyph glyph-name="q" unicode="q" horiz-adv-x="1187" 
d="M905 1110h127v-1479h-164v455q-139 -106 -309 -106q-96 0 -180 35.5t-149 102t-102.5 173t-37.5 239.5q0 91 17 176t53.5 162.5t90 135.5t131 92t171.5 34q170 0 334 -100zM588 127q145 0 280 74v706q-117 80 -262 80q-77 0 -137 -24.5t-99 -66.5t-64 -100.5t-35.5 -122
t-10.5 -136.5q0 -213 86.5 -311.5t241.5 -98.5z" />
    <glyph glyph-name="r" unicode="r" horiz-adv-x="774" 
d="M319 954q72 91 174.5 136t215.5 45l-13 -172q-8 0 -24.5 1t-24.5 1q-239 0 -328 -174v-791h-163v1110h151z" />
    <glyph glyph-name="s" unicode="s" horiz-adv-x="1054" 
d="M221 381q0 -117 86.5 -189.5t214.5 -72.5q107 0 184.5 51.5t77.5 138.5q0 52 -36 89.5t-93.5 60t-126.5 41.5t-138.5 43.5t-127 57t-93.5 89.5t-36 135q0 136 101.5 225t285.5 89q59 0 111.5 -10.5t101.5 -35.5t84.5 -62.5t56.5 -96t21 -131.5h-156q0 97 -63.5 144.5
t-163.5 47.5q-97 0 -154 -38.5t-57 -110.5q0 -47 28 -83t74 -56.5t105 -40.5t120.5 -35t120.5 -40t105 -55.5t74 -81.5t28 -118q0 -109 -63 -193.5t-162.5 -128t-214.5 -43.5q-56 0 -112 10.5t-118.5 39t-110 72.5t-78.5 118.5t-31 169.5h155z" />
    <glyph glyph-name="t" unicode="t" horiz-adv-x="774" 
d="M637 162l39 -107q-29 -27 -85 -51t-130 -24q-42 0 -79 11.5t-70 37.5t-52.5 74.5t-19.5 115.5v764h-174v127h174v287h163v-287h244v-127h-244v-729q0 -123 107 -123q55 0 127 31z" />
    <glyph glyph-name="u" unicode="u" horiz-adv-x="1206" 
d="M887 1110h164v-1110h-136l-22 127q-71 -78 -161.5 -117t-184.5 -39q-91 0 -161.5 24.5t-115 64.5t-73 96.5t-39.5 115.5t-11 127v711h164v-657q0 -79 12.5 -137.5t41.5 -106.5t84 -73t135 -25q77 0 161 38.5t142 116.5v844z" />
    <glyph glyph-name="v" unicode="v" horiz-adv-x="1126" 
d="M901 1110h176l-434 -1110h-160l-434 1110h180l332 -932h8z" />
    <glyph glyph-name="w" unicode="w" horiz-adv-x="1601" 
d="M1368 1110h168l-322 -1110h-172l-235 866h-12l-236 -866h-172l-321 1110h172l235 -909h4l250 909h152l245 -909h6z" />
    <glyph glyph-name="x" unicode="x" horiz-adv-x="1056" 
d="M821 0l-282 440h-21l-287 -440h-182l389 567l-364 543h180l266 -414h17l274 414h172l-362 -543l387 -567h-187z" />
    <glyph glyph-name="y" unicode="y" horiz-adv-x="1138" 
d="M918 1110h172l-435 -1147q-56 -148 -152 -246t-198 -98q-95 0 -186 41l26 113q68 -15 131 -15q68 0 129.5 74t110.5 205l-467 1073h176l371 -887h8z" />
    <glyph glyph-name="z" unicode="z" horiz-adv-x="980" 
d="M307 131h567v-131h-768v111l543 856v12h-524v131h717v-111l-535 -856v-12z" />
    <glyph glyph-name="braceleft" unicode="{" horiz-adv-x="825" 
d="M752 1516v-132q-95 0 -137 -38.5t-42 -147.5v-330q0 -123 -63.5 -188.5t-153.5 -65.5v-16q90 0 153.5 -65.5t63.5 -188.5v-330q0 -109 42 -147.5t137 -38.5v-131q-151 0 -242.5 81t-91.5 245v321q0 101 -50.5 142.5t-170.5 41.5v156q120 0 170.5 41.5t50.5 142.5v322
q0 158 89.5 242t244.5 84z" />
    <glyph glyph-name="bar" unicode="|" horiz-adv-x="1064" 
d="M459 1638h147v-1941h-147v1941z" />
    <glyph glyph-name="braceright" unicode="}" horiz-adv-x="825" 
d="M74 1516q155 0 244.5 -84t89.5 -242v-322q0 -101 50.5 -142.5t170.5 -41.5v-156q-120 0 -170.5 -41.5t-50.5 -142.5v-321q0 -164 -91.5 -245t-242.5 -81v131q95 0 136.5 38.5t41.5 147.5v330q0 123 63.5 188.5t153.5 65.5v16q-90 0 -153.5 65.5t-63.5 188.5v330
q0 109 -41.5 147.5t-136.5 38.5v132z" />
    <glyph glyph-name="asciitilde" unicode="~" horiz-adv-x="1228" 
d="M135 422q0 138 72.5 228.5t195.5 90.5q49 0 93 -16t74.5 -40t62.5 -51.5t58.5 -51.5t60.5 -40t69 -16q64 0 94.5 48.5t30.5 127.5h148q0 -137 -73 -228t-196 -91q-58 0 -108 22t-86 53.5t-69.5 63.5t-72.5 54t-81 22q-64 0 -94.5 -48.5t-30.5 -127.5h-148z" />
    <glyph glyph-name="exclamdown" unicode="&#xa1;" horiz-adv-x="659" 
d="M205 1001q0 61 35 95t90 34q56 0 90.5 -34t34.5 -95q0 -57 -34 -99t-91 -42t-91 42t-34 99zM242 -324l22 945h148l22 -945h-192z" />
    <glyph glyph-name="cent" unicode="&#xa2;" horiz-adv-x="1169" 
d="M1042 344q-42 -66 -130.5 -113t-200.5 -59l12 -172h-176l12 174q-88 13 -163 50.5t-134.5 99.5t-93 154.5t-33.5 205.5q0 141 49 260.5t146.5 201t228.5 101.5l-12 187h176l-12 -185q106 -13 186 -61.5t129 -116.5l-108 -96q-91 135 -269 135q-165 0 -253.5 -114
t-88.5 -302q0 -100 27 -174.5t75.5 -118.5t110 -65t137.5 -21q191 0 285 125z" />
    <glyph glyph-name="sterling" unicode="&#xa3;" horiz-adv-x="1224" 
d="M995 350l164 -35q-53 -150 -162.5 -243t-283.5 -92q-170 2 -373 112q-48 -49 -104 -92h-68l-31 131q81 45 142 130t61 204q0 66 -29 186h-176l8 119h136q-37 160 -37 240q0 186 115.5 305t326.5 119q221 0 381 -144l-98 -123q-136 119 -293 119q-120 0 -192 -67t-72 -185
q0 -13 0.5 -26.5t3 -29t4 -26.5t5.5 -30.5t6 -28.5t8 -31.5t7.5 -29t8.5 -32.5t8 -30h375l-9 -119h-335q20 -95 20 -174q0 -149 -80 -270q141 -80 266 -80q109 0 186 58.5t111 164.5z" />
    <glyph glyph-name="currency" unicode="&#xa4;" horiz-adv-x="1249" 
d="M1018 655q0 -121 -68 -221l164 -143l-125 -125l-143 164q-100 -68 -221 -68q-122 0 -222 68l-143 -164l-125 125l164 143q-68 100 -68 221q0 123 68 219l-164 146l125 125l146 -164q96 68 219 68t219 -68l145 164l125 -125l-164 -146q68 -96 68 -219zM625 401
q109 0 177 74t68 180t-68 180t-177 74q-110 0 -178 -74t-68 -180t68 -180t178 -74z" />
    <glyph glyph-name="yen" unicode="&#xa5;" horiz-adv-x="1265" 
d="M1200 1434l-409 -658h219v-119h-293v-168h293v-118h-293v-371h-168v371h-293v118h293v168h-293v119h219l-409 658h188l375 -625h16l383 625h172z" />
    <glyph glyph-name="brokenbar" unicode="&#xa6;" horiz-adv-x="1064" 
d="M459 872v766h147v-766h-147zM606 463v-766h-147v766h147z" />
    <glyph glyph-name="section" unicode="&#xa7;" horiz-adv-x="1204" 
d="M915 1411l-71 -133q-67 33 -133 33q-29 0 -58.5 -9t-57.5 -27t-45.5 -51t-17.5 -75q0 -52 29.5 -104.5t77 -99t104.5 -95t114.5 -103t105 -113t77 -134.5t29.5 -158q0 -136 -47.5 -257.5t-126.5 -205.5t-183 -133t-214 -49q-70 0 -143 23.5t-117 60.5l65 117
q105 -54 191 -54q83 0 130.5 43.5t47.5 114.5q0 52 -29.5 104.5t-77 98t-104.5 94t-114.5 102t-105 111t-77 132t-29.5 155.5q0 138 49 261t130.5 208.5t189 135.5t221.5 50q115 0 190 -43zM457 1260q-101 -88 -137.5 -186.5t-36.5 -223.5q0 -78 29 -151t75.5 -130
t103 -110.5t113 -102t103 -94.5t75.5 -98.5t29 -104.5q0 -25 -3.5 -45t-19.5 -51.5t-45 -64.5l5 -7q101 88 137.5 186.5t36.5 223.5q0 78 -29 151t-76 130t-103.5 110.5t-112.5 102t-103 94.5t-76 98.5t-29 104.5q0 25 3.5 45t19.5 51.5t45 64.5z" />
    <glyph glyph-name="dieresis" unicode="&#xa8;" 
d="M414 1229q-41 0 -71 29.5t-30 70.5t30 71t71 30t70.5 -30t29.5 -71t-29.5 -70.5t-70.5 -29.5zM803 1229q-41 0 -71 29.5t-30 70.5t30 71t71 30t70.5 -30t29.5 -71t-29.5 -70.5t-70.5 -29.5z" />
    <glyph glyph-name="copyright" unicode="&#xa9;" horiz-adv-x="1654" 
d="M827 -20q-151 0 -287.5 58t-235 157t-156.5 235.5t-58 286.5q0 151 58 287.5t157 235t235.5 156.5t286.5 58t287 -58t235.5 -157t157 -235.5t58.5 -286.5q0 -202 -99 -372t-268.5 -267.5t-370.5 -97.5zM827 45q139 0 263.5 53.5t213 144t140 214.5t51.5 260
q0 138 -52 262t-141 214t-213 143t-262 53q-183 0 -336 -89t-242 -244t-89 -339q0 -183 87 -337.5t240.5 -244.5t339.5 -90zM1210 643q-6 -96 -36 -167t-80 -113.5t-114 -63t-142 -20.5q-169 0 -282.5 116t-113.5 310q0 87 27.5 168t76.5 145t126 102.5t168 38.5
q158 0 258 -94.5t106 -233.5h-139q-11 90 -70 140.5t-155 50.5q-113 0 -175.5 -86.5t-62.5 -222.5q0 -147 65.5 -220t182.5 -73q43 0 76 9t64 32.5t51.5 69t29.5 112.5h139z" />
    <glyph glyph-name="ordfeminine" unicode="&#xaa;" horiz-adv-x="866" 
d="M461 1440q160 0 233.5 -82t73.5 -260v-523h-102l-15 60q-110 -74 -252 -74q-55 0 -106.5 15t-96 45t-71.5 83t-27 121q0 123 85.5 196t226.5 73q117 0 227 -43v47q0 123 -39.5 169t-146.5 46q-94 0 -141 -34t-46 -122h-121q-4 135 79.5 209t238.5 74zM236 836
q0 -150 198 -150q108 0 203 45v219q-105 25 -199 25q-202 0 -202 -139zM160 393h567v-123h-567v123z" />
    <glyph glyph-name="guillemotleft" unicode="&#xab;" horiz-adv-x="1314" 
d="M444 1022h203l-364 -416l364 -422h-203l-354 422zM956 1022h203l-364 -416l364 -422h-203l-354 422z" />
    <glyph glyph-name="logicalnot" unicode="&#xac;" horiz-adv-x="1228" 
d="M238 659h753v-442h-139v311h-614v131z" />
    <glyph glyph-name="uni00AD" unicode="&#xad;" horiz-adv-x="770" 
d="M135 637h500v-131h-500v131z" />
    <glyph glyph-name="registered" unicode="&#xae;" horiz-adv-x="1138" 
d="M569 596q-212 0 -345.5 133t-133.5 334q0 202 134 335.5t345 133.5q212 0 346 -133.5t134 -335.5t-134 -334.5t-346 -132.5zM569 657q187 0 298.5 116t111.5 290q0 176 -112.5 291.5t-297.5 115.5q-184 0 -296.5 -115t-112.5 -292q0 -174 111 -290t298 -116zM705 784
l-117 185h-119v-185h-88v576h203q90 0 141 -51t51 -140q0 -129 -94 -182l127 -203h-104zM469 1274v-219h115q100 0 100 112q0 107 -106 107h-109z" />
    <glyph glyph-name="macron" unicode="&#xaf;" 
d="M369 1376h479v-106h-479v106z" />
    <glyph glyph-name="degree" unicode="&#xb0;" horiz-adv-x="827" 
d="M414 811q-154 0 -251 97.5t-97 242.5q0 146 97 242t251 96t251 -96t97 -242t-97 -243t-251 -97zM414 940q95 0 149.5 61t54.5 150q0 91 -55.5 152t-148.5 61t-149 -60.5t-56 -152.5q0 -89 55 -150t150 -61z" />
    <glyph glyph-name="plusminus" unicode="&#xb1;" horiz-adv-x="1228" 
d="M684 707h307v-132h-307v-311h-139v311h-307v132h307v311h139v-311zM238 0v131h753v-131h-753z" />
    <glyph glyph-name="twosuperior" unicode="&#xb2;" horiz-adv-x="845" 
d="M266 1378h-127q-3 49 14 102t52 100t94.5 77.5t132.5 30.5q121 0 193.5 -76.5t72.5 -202.5q0 -102 -44 -178.5t-128 -157.5l-157 -170v-12h333v-113h-540l-8 84l284 295q62 65 91.5 119.5t29.5 130.5q0 79 -36 124.5t-101 45.5q-73 0 -116 -55.5t-40 -143.5z" />
    <glyph glyph-name="threesuperior" unicode="&#xb3;" horiz-adv-x="847" 
d="M590 1260q123 -63 123 -209q0 -123 -81 -202t-204 -79q-134 0 -215 91t-78 235h133q-2 -100 41 -153.5t127 -53.5q66 0 100.5 38.5t34.5 112.5q0 73 -39 114.5t-108 41.5h-88v113h84q68 0 101.5 35.5t33.5 99.5q0 65 -34 99t-95 34q-76 0 -116 -50.5t-40 -140.5h-127
q-2 132 78 217t207 85q113 0 187.5 -67t74.5 -169q0 -67 -30 -113.5t-70 -66.5v-12z" />
    <glyph glyph-name="acute" unicode="&#xb4;" 
d="M598 1491h188l-217 -262h-139z" />
    <glyph glyph-name="mu" unicode="&#xb5;" horiz-adv-x="1206" 
d="M1051 295q0 -78 36.5 -114t118.5 -36v-147q-119 2 -191.5 35.5t-103.5 111.5q-70 -87 -160.5 -130.5t-179.5 -43.5q-155 0 -260 88v-428h-164v1479h164v-657q0 -79 12.5 -137.5t41.5 -106.5t84 -73t135 -25q77 0 161.5 38.5t141.5 116.5v844h164v-815z" />
    <glyph glyph-name="paragraph" unicode="&#xb6;" horiz-adv-x="1304" 
d="M123 989q0 209 140 339t362 130q111 0 188 -24v-1737h-160v840q-62 -5 -73 -5q-90 0 -171 28.5t-145.5 83.5t-102.5 144t-38 201zM973 1434h160v-1737h-160v1737zM653 674v637q-32 4 -51 4q-143 0 -225 -83.5t-82 -221.5q0 -162 90.5 -250t232.5 -88q23 0 35 2z" />
    <glyph glyph-name="periodcentered" unicode="&#xb7;" horiz-adv-x="659" 
d="M205 662q0 57 34 99t91 42t91 -42t34 -99q0 -61 -34.5 -95.5t-90.5 -34.5q-54 0 -89.5 34.5t-35.5 95.5z" />
    <glyph glyph-name="cedilla" unicode="&#xb8;" horiz-adv-x="1222" 
d="M616 -115q181 0 181 -135q0 -86 -65.5 -133t-162.5 -47q-79 0 -143 22v66q45 -10 113 -10q42 0 72 21t30 57q0 44 -30 62.5t-89 18.5h-24l47 78h71z" />
    <glyph glyph-name="onesuperior" unicode="&#xb9;" horiz-adv-x="847" 
d="M178 1495l252 184h111v-901h-135v735h-13l-164 -124z" />
    <glyph glyph-name="ordmasculine" unicode="&#xba;" horiz-adv-x="983" 
d="M98 977q0 88 26 172t74 152.5t124.5 110.5t169.5 42q92 0 168.5 -41.5t124.5 -110t74 -152.5t26 -173q0 -189 -107 -301.5t-286 -112.5t-286.5 112.5t-107.5 301.5zM236 979q0 -140 66 -214.5t190 -74.5t190 75t66 214q0 96 -27.5 174t-86.5 128t-142 50q-84 0 -143 -50
t-86 -128t-27 -174zM207 393h567v-123h-567v123z" />
    <glyph glyph-name="guillemotright" unicode="&#xbb;" horiz-adv-x="1314" 
d="M358 1022l355 -416l-355 -422h-202l364 422l-364 416h202zM870 1022l355 -416l-355 -422h-202l364 422l-364 416h202z" />
    <glyph glyph-name="onequarter" unicode="&#xbc;" horiz-adv-x="1861" 
d="M406 1309h-13l-164 -125l-51 106l252 185h111v-902h-135v736zM1391 1466h135l-1014 -1499h-135zM1759 297v-121h-119v-217h-127v217h-397v92l373 592h151v-563h119zM1288 297h225v365h-12l-213 -351v-14z" />
    <glyph glyph-name="onehalf" unicode="&#xbd;" horiz-adv-x="1941" 
d="M178 1290l252 185h111v-902h-135v736h-13l-164 -125zM1391 1466h135l-1014 -1499h-135zM1362 559h-127q-3 49 14 102t52 100t94.5 77t132.5 30q121 0 193.5 -76t72.5 -202q0 -102 -44 -178.5t-128 -157.5l-158 -170v-12h334v-113h-541l-8 84l285 295q62 65 91.5 119.5
t29.5 130.5q0 79 -36 124.5t-101 45.5q-73 0 -116 -55.5t-40 -143.5z" />
    <glyph glyph-name="threequarters" unicode="&#xbe;" horiz-adv-x="1923" 
d="M713 846q0 -123 -81 -202t-204 -79q-134 0 -215 91t-78 235h133q-2 -100 41 -153.5t127 -53.5q66 0 100.5 39t34.5 113q0 73 -39 114t-108 41h-88v113h84q68 0 101.5 35.5t33.5 99.5q0 65 -34 99t-95 34q-76 0 -116 -50t-40 -140h-127q-2 132 78 216.5t207 84.5
q113 0 187.5 -67t74.5 -169q0 -67 -30 -113.5t-70 -66.5v-12q123 -63 123 -209zM1452 1466h135l-1014 -1499h-135zM1821 297v-121h-119v-217h-127v217h-397v92l372 592h152v-563h119zM1350 297h225v365h-12l-213 -351v-14z" />
    <glyph glyph-name="questiondown" unicode="&#xbf;" horiz-adv-x="1126" 
d="M727 1001q0 -57 -34 -99t-91 -42t-91 42t-34 99q0 61 34.5 95t90.5 34q55 0 90 -34t35 -95zM532 621h164v-46q0 -75 -20.5 -132t-53 -91.5t-71.5 -62.5t-78 -52t-71.5 -51.5t-53 -70t-20.5 -99.5q0 -109 68 -163t179 -54q271 0 252 289h164q6 -107 -26.5 -191.5
t-92.5 -136t-136.5 -78t-162.5 -26.5q-56 0 -112 11t-111.5 37.5t-98 65.5t-69 100.5t-26.5 137.5q0 67 20.5 121.5t54 90t73.5 65.5t80 57t73.5 56t54 70t20.5 91v62z" />
    <glyph glyph-name="Agrave" unicode="&#xc0;" horiz-adv-x="1318" 
d="M838 1552h-140l-217 263h189zM1081 0l-141 420h-565l-142 -420h-176l486 1434h233l486 -1434h-181zM426 575h463l-225 670h-13z" />
    <glyph glyph-name="Aacute" unicode="&#xc1;" horiz-adv-x="1318" 
d="M838 1815l-217 -263h-140l168 263h189zM1081 0l-141 420h-565l-142 -420h-176l486 1434h233l486 -1434h-181zM426 575h463l-225 670h-13z" />
    <glyph glyph-name="Acircumflex" unicode="&#xc2;" horiz-adv-x="1318" 
d="M649 1718l-155 -166h-148l254 263h119l254 -263h-148l-155 166h-21zM1081 0l-141 420h-565l-142 -420h-176l486 1434h233l486 -1434h-181zM426 575h463l-225 670h-13z" />
    <glyph glyph-name="Atilde" unicode="&#xc3;" horiz-adv-x="1318" 
d="M459 1565h-107q-15 105 36 169t140 64q46 0 86 -20.5t63.5 -45t53.5 -45t60 -20.5q39 0 60.5 30t8.5 89h107q15 -105 -36 -169.5t-140 -64.5q-38 0 -70.5 13.5t-55 33t-42 38.5t-42 32.5t-46.5 13.5q-41 0 -65 -31t-11 -87zM1081 0l-141 420h-565l-142 -420h-176
l486 1434h233l486 -1434h-181zM426 575h463l-225 670h-13z" />
    <glyph glyph-name="Adieresis" unicode="&#xc4;" horiz-adv-x="1318" 
d="M465 1552q-41 0 -70.5 30t-29.5 71t29.5 70.5t70.5 29.5t70.5 -29.5t29.5 -70.5t-29.5 -71t-70.5 -30zM854 1552q-41 0 -70.5 30t-29.5 71t29.5 70.5t70.5 29.5t70.5 -29.5t29.5 -70.5t-29.5 -71t-70.5 -30zM1081 0l-141 420h-565l-142 -420h-176l486 1434h233l486 -1434
h-181zM426 575h463l-225 670h-13z" />
    <glyph glyph-name="Aring" unicode="&#xc5;" horiz-adv-x="1327" 
d="M1081 0l-141 420h-565l-142 -420h-176l467 1382q-100 54 -100 181q0 102 69 166.5t166 64.5t166.5 -65t69.5 -166q0 -127 -100 -181l467 -1382h-181zM659 1712q-60 0 -101.5 -39.5t-41.5 -105.5q0 -64 39 -98.5t104 -34.5t104.5 34.5t39.5 98.5q0 66 -41.5 105.5
t-102.5 39.5zM426 575h463l-225 670h-13z" />
    <glyph glyph-name="AE" unicode="&#xc6;" horiz-adv-x="1724" 
d="M1561 1270h-730l146 -428h555v-164h-500l172 -510h357v-168h-480l-141 420h-565l-142 -420h-176l486 1434h1018v-164zM426 575h463l-225 670h-13z" />
    <glyph glyph-name="Ccedilla" unicode="&#xc7;" horiz-adv-x="1386" 
d="M1061 903q-1 61 -10.5 116t-34.5 110.5t-63.5 95.5t-102 65t-145.5 25q-104 0 -184.5 -55.5t-127.5 -149.5t-70.5 -205t-23.5 -233q0 -252 108.5 -396.5t305.5 -144.5q358 0 358 434h172q0 -100 -18 -186.5t-58 -162.5t-100.5 -129.5t-150.5 -84.5t-203 -31
q-277 0 -433.5 191t-156.5 508q0 119 20.5 231.5t67 216t113.5 180t166.5 122.5t220.5 46q107 0 195 -32t147.5 -86.5t101 -127.5t60 -152.5t18.5 -164.5h-172zM698 -115q181 0 181 -135q0 -86 -65.5 -133t-162.5 -47q-79 0 -143 22v66q45 -10 113 -10q42 0 72 21t30 57
q0 44 -30 62.5t-89 18.5h-24l47 78h71z" />
    <glyph glyph-name="Egrave" unicode="&#xc8;" horiz-adv-x="1130" 
d="M743 1552h-139l-217 263h188zM967 1270h-627v-428h598v-164h-598v-510h627v-168h-795v1434h795v-164z" />
    <glyph glyph-name="Eacute" unicode="&#xc9;" horiz-adv-x="1130" 
d="M743 1815l-217 -263h-139l168 263h188zM967 1270h-627v-428h598v-164h-598v-510h627v-168h-795v1434h795v-164z" />
    <glyph glyph-name="Ecircumflex" unicode="&#xca;" horiz-adv-x="1130" 
d="M555 1718l-156 -166h-147l254 263h119l254 -263h-148l-156 166h-20zM967 1270h-627v-428h598v-164h-598v-510h627v-168h-795v1434h795v-164z" />
    <glyph glyph-name="Edieresis" unicode="&#xcb;" horiz-adv-x="1130" 
d="M371 1552q-41 0 -71 30t-30 71t30 70.5t71 29.5t70.5 -29.5t29.5 -70.5t-29.5 -71t-70.5 -30zM760 1552q-41 0 -71 30t-30 71t30 70.5t71 29.5t70.5 -29.5t29.5 -70.5t-29.5 -71t-70.5 -30zM967 1270h-627v-428h598v-164h-598v-510h627v-168h-795v1434h795v-164z" />
    <glyph glyph-name="Igrave" unicode="&#xcc;" horiz-adv-x="528" 
d="M336 1815l45 -263h-127l-107 263h189zM180 1434h168v-1434h-168v1434z" />
    <glyph glyph-name="Iacute" unicode="&#xcd;" horiz-adv-x="528" 
d="M193 1815h188l-107 -263h-127zM180 1434h168v-1434h-168v1434z" />
    <glyph glyph-name="Icircumflex" unicode="&#xce;" horiz-adv-x="528" 
d="M53 1552l152 263h119l151 -263h-119l-82 160h-20l-82 -160h-119zM180 1434h168v-1434h-168v1434z" />
    <glyph glyph-name="Idieresis" unicode="&#xcf;" horiz-adv-x="528" 
d="M125 1552q-41 0 -70.5 30t-29.5 71t29.5 70.5t70.5 29.5t70.5 -29.5t29.5 -70.5t-29.5 -71t-70.5 -30zM403 1552q-41 0 -70.5 30t-29.5 71t29.5 70.5t70.5 29.5t71 -29.5t30 -70.5t-30 -71t-71 -30zM180 1434h168v-1434h-168v1434z" />
    <glyph glyph-name="Eth" unicode="&#xd0;" horiz-adv-x="1351" 
d="M592 1434q132 0 239 -39t180.5 -106.5t123 -160.5t72 -198t22.5 -221q0 -117 -23 -221t-72 -194t-121.5 -155t-177.5 -102t-233 -37h-430v635h-106v131h106v668h420zM614 160q79 0 143.5 18t109.5 48t79 74t54 90t32 102t16.5 105t4.5 103q0 570 -473 570h-240v-504h348
v-131h-348v-475h274z" />
    <glyph glyph-name="Ntilde" unicode="&#xd1;" horiz-adv-x="1409" 
d="M504 1565h-107q-15 105 36 169t140 64q46 0 86 -20.5t63.5 -45t53.5 -45t60 -20.5q39 0 60.5 30t8.5 89h107q15 -105 -36 -169.5t-140 -64.5q-38 0 -70.5 13.5t-55 33t-42 38.5t-42 32.5t-46.5 13.5q-41 0 -65 -31t-11 -87zM1069 1434h168v-1434h-152l-729 1133h-16
v-1133h-168v1434h186l695 -1096h16v1096z" />
    <glyph glyph-name="Ograve" unicode="&#xd2;" horiz-adv-x="1417" 
d="M719 1815l168 -263h-139l-218 263h189zM123 670q0 148 39.5 289t111.5 254.5t185.5 183t249.5 69.5q110 0 205.5 -45.5t164 -123t118 -179.5t73.5 -216t24 -232q0 -159 -46 -291.5t-125 -221t-186 -137.5t-228 -49t-228 49t-186.5 137.5t-125.5 221t-46 291.5zM299 676
q0 -247 116 -396t294 -149t293.5 148.5t115.5 396.5q0 118 -28 231.5t-79 204.5t-130 147t-172 56q-123 0 -219 -96t-143.5 -240t-47.5 -303z" />
    <glyph glyph-name="Oacute" unicode="&#xd3;" horiz-adv-x="1417" 
d="M698 1815h189l-217 -263h-140zM123 670q0 148 39.5 289t111.5 254.5t185.5 183t249.5 69.5q110 0 205.5 -45.5t164 -123t118 -179.5t73.5 -216t24 -232q0 -159 -46 -291.5t-125 -221t-186 -137.5t-228 -49t-228 49t-186.5 137.5t-125.5 221t-46 291.5zM299 676
q0 -247 116 -396t294 -149t293.5 148.5t115.5 396.5q0 118 -28 231.5t-79 204.5t-130 147t-172 56q-123 0 -219 -96t-143.5 -240t-47.5 -303z" />
    <glyph glyph-name="Ocircumflex" unicode="&#xd4;" horiz-adv-x="1417" 
d="M395 1552l254 263h119l254 -263h-148l-155 166h-21l-155 -166h-148zM123 670q0 148 39.5 289t111.5 254.5t185.5 183t249.5 69.5q110 0 205.5 -45.5t164 -123t118 -179.5t73.5 -216t24 -232q0 -159 -46 -291.5t-125 -221t-186 -137.5t-228 -49t-228 49t-186.5 137.5
t-125.5 221t-46 291.5zM299 676q0 -247 116 -396t294 -149t293.5 148.5t115.5 396.5q0 118 -28 231.5t-79 204.5t-130 147t-172 56q-123 0 -219 -96t-143.5 -240t-47.5 -303z" />
    <glyph glyph-name="Otilde" unicode="&#xd5;" horiz-adv-x="1417" 
d="M1016 1786q15 -105 -36 -169.5t-140 -64.5q-38 0 -70.5 13.5t-55 33t-42 38.5t-42 32.5t-46.5 13.5q-41 0 -65 -31t-11 -87h-107q-15 105 36.5 169t140.5 64q38 0 70.5 -13.5t55.5 -33t43.5 -38.5t44 -32.5t48.5 -13.5q39 0 60.5 30t8.5 89h107zM123 670q0 148 39.5 289
t111.5 254.5t185.5 183t249.5 69.5q110 0 205.5 -45.5t164 -123t118 -179.5t73.5 -216t24 -232q0 -159 -46 -291.5t-125 -221t-186 -137.5t-228 -49t-228 49t-186.5 137.5t-125.5 221t-46 291.5zM299 676q0 -247 116 -396t294 -149t293.5 148.5t115.5 396.5q0 118 -28 231.5
t-79 204.5t-130 147t-172 56q-123 0 -219 -96t-143.5 -240t-47.5 -303z" />
    <glyph glyph-name="Odieresis" unicode="&#xd6;" horiz-adv-x="1417" 
d="M514 1552q-41 0 -70.5 30t-29.5 71t29.5 70.5t70.5 29.5t70.5 -29.5t29.5 -70.5t-29.5 -71t-70.5 -30zM903 1552q-41 0 -70.5 30t-29.5 71t29.5 70.5t70.5 29.5t71 -29.5t30 -70.5t-30 -71t-71 -30zM123 670q0 148 39.5 289t111.5 254.5t185.5 183t249.5 69.5
q110 0 205.5 -45.5t164 -123t118 -179.5t73.5 -216t24 -232q0 -159 -46 -291.5t-125 -221t-186 -137.5t-228 -49t-228 49t-186.5 137.5t-125.5 221t-46 291.5zM299 676q0 -247 116 -396t294 -149t293.5 148.5t115.5 396.5q0 118 -28 231.5t-79 204.5t-130 147t-172 56
q-123 0 -219 -96t-143.5 -240t-47.5 -303z" />
    <glyph glyph-name="multiply" unicode="&#xd7;" horiz-adv-x="1228" 
d="M934 819l-225 -225l225 -225l-94 -95l-226 226l-225 -226l-94 95l225 225l-225 225l94 94l225 -225l226 225z" />
    <glyph glyph-name="Oslash" unicode="&#xd8;" horiz-adv-x="1417" 
d="M1106 1266q90 -113 139 -271.5t49 -324.5q0 -159 -46 -291.5t-125 -221t-186 -137.5t-228 -49q-165 0 -301 88l-54 -92l-118 68l65 115q-178 194 -178 520q0 148 39.5 289t111.5 254.5t185.5 183t249.5 69.5q165 0 295 -100l59 100l119 -67zM299 676q0 -220 94 -367
l531 916q-97 90 -215 90q-123 0 -219 -96t-143.5 -240t-47.5 -303zM709 131q178 0 293.5 148.5t115.5 396.5q0 247 -104 432l-522 -905q93 -72 217 -72z" />
    <glyph glyph-name="Ugrave" unicode="&#xd9;" horiz-adv-x="1433" 
d="M727 1815l168 -263h-139l-217 263h188zM1262 1434v-916q0 -143 -42 -250.5t-117.5 -171t-172 -94.5t-213.5 -31t-213.5 31t-172 94.5t-117.5 171t-42 250.5v916h168v-910q0 -107 28.5 -185t81 -122.5t118.5 -65t149 -20.5t149 20.5t118.5 65t81 122.5t28.5 185v910h168z
" />
    <glyph glyph-name="Uacute" unicode="&#xda;" horiz-adv-x="1433" 
d="M707 1815h188l-217 -263h-139zM1262 1434v-916q0 -143 -42 -250.5t-117.5 -171t-172 -94.5t-213.5 -31t-213.5 31t-172 94.5t-117.5 171t-42 250.5v916h168v-910q0 -107 28.5 -185t81 -122.5t118.5 -65t149 -20.5t149 20.5t118.5 65t81 122.5t28.5 185v910h168z" />
    <glyph glyph-name="Ucircumflex" unicode="&#xdb;" horiz-adv-x="1433" 
d="M403 1552l254 263h119l254 -263h-147l-156 166h-20l-156 -166h-148zM1262 1434v-916q0 -143 -42 -250.5t-117.5 -171t-172 -94.5t-213.5 -31t-213.5 31t-172 94.5t-117.5 171t-42 250.5v916h168v-910q0 -107 28.5 -185t81 -122.5t118.5 -65t149 -20.5t149 20.5t118.5 65
t81 122.5t28.5 185v910h168z" />
    <glyph glyph-name="Udieresis" unicode="&#xdc;" horiz-adv-x="1433" 
d="M522 1552q-41 0 -70.5 30t-29.5 71t29.5 70.5t70.5 29.5t71 -29.5t30 -70.5t-30 -71t-71 -30zM911 1552q-41 0 -70.5 30t-29.5 71t29.5 70.5t70.5 29.5t71 -29.5t30 -70.5t-30 -71t-71 -30zM1262 1434v-916q0 -143 -42 -250.5t-117.5 -171t-172 -94.5t-213.5 -31
t-213.5 31t-172 94.5t-117.5 171t-42 250.5v916h168v-910q0 -107 28.5 -185t81 -122.5t118.5 -65t149 -20.5t149 20.5t118.5 65t81 122.5t28.5 185v910h168z" />
    <glyph glyph-name="Yacute" unicode="&#xdd;" 
d="M786 1815l-217 -263h-139l168 263h188zM995 1434h181l-484 -775v-659h-168v659l-483 775h197l366 -605h17z" />
    <glyph glyph-name="Thorn" unicode="&#xde;" 
d="M588 1225q136 0 236.5 -36.5t158 -103t84.5 -148.5t27 -183q0 -121 -38 -218.5t-103 -159t-149 -94t-179 -32.5h-285v-250h-168v1434h168v-209h248zM627 410q137 0 216 86t79 260q0 72 -15.5 125t-53.5 95t-108 63.5t-172 21.5h-233v-651h287z" />
    <glyph glyph-name="germandbls" unicode="&#xdf;" horiz-adv-x="1163" 
d="M768 799q127 -67 212 -188.5t85 -252.5q0 -70 -26 -136t-78 -123.5t-141.5 -92.5t-203.5 -35q-84 0 -188 35l33 139q79 -26 170 -26q112 0 187 64.5t75 185.5q0 239 -320 370v111q46 14 79 27.5t70.5 36.5t61 50t39 68.5t15.5 91.5q0 189 -211 189q-40 0 -76.5 -6
t-80 -27t-75 -54.5t-52.5 -94.5t-21 -142v-1184h-166v1184q0 110 32 196t81.5 137t115 84.5t125 45.5t119.5 12q160 0 266 -86.5t106 -236.5q0 -113 -63 -199.5t-170 -134.5v-8z" />
    <glyph glyph-name="agrave" unicode="&#xe0;" horiz-adv-x="1177" 
d="M737 1229h-139l-217 262h188zM594 1139q119 0 203.5 -32t133 -93.5t70 -141.5t21.5 -186v-686h-127l-18 82q-69 -44 -175.5 -73t-199.5 -29q-73 0 -139 19.5t-120.5 58.5t-87 107t-32.5 157q0 166 106.5 258t290.5 92q162 0 338 -51v108q0 130 -68 196t-196 66
q-117 0 -183.5 -50t-70.5 -144h-164q3 166 120 254t298 88zM295 332q0 -205 250 -205q163 0 313 63v310q-164 32 -297 32q-130 0 -198 -45.5t-68 -154.5z" />
    <glyph glyph-name="aacute" unicode="&#xe1;" horiz-adv-x="1177" 
d="M737 1491l-217 -262h-139l168 262h188zM594 1139q119 0 203.5 -32t133 -93.5t70 -141.5t21.5 -186v-686h-127l-18 82q-69 -44 -175.5 -73t-199.5 -29q-73 0 -139 19.5t-120.5 58.5t-87 107t-32.5 157q0 166 106.5 258t290.5 92q162 0 338 -51v108q0 130 -68 196t-196 66
q-117 0 -183.5 -50t-70.5 -144h-164q3 166 120 254t298 88zM295 332q0 -205 250 -205q163 0 313 63v310q-164 32 -297 32q-130 0 -198 -45.5t-68 -154.5z" />
    <glyph glyph-name="acircumflex" unicode="&#xe2;" horiz-adv-x="1177" 
d="M549 1395l-156 -166h-147l254 262h118l254 -262h-147l-156 166h-20zM594 1139q119 0 203.5 -32t133 -93.5t70 -141.5t21.5 -186v-686h-127l-18 82q-69 -44 -175.5 -73t-199.5 -29q-73 0 -139 19.5t-120.5 58.5t-87 107t-32.5 157q0 166 106.5 258t290.5 92q162 0 338 -51
v108q0 130 -68 196t-196 66q-117 0 -183.5 -50t-70.5 -144h-164q3 166 120 254t298 88zM295 332q0 -205 250 -205q163 0 313 63v310q-164 32 -297 32q-130 0 -198 -45.5t-68 -154.5z" />
    <glyph glyph-name="atilde" unicode="&#xe3;" horiz-adv-x="1177" 
d="M358 1241h-106q-15 105 36 169.5t140 64.5q38 0 70.5 -13.5t55.5 -33t43.5 -39t44 -33t48.5 -13.5q39 0 61 30t9 89h106q15 -105 -36 -169t-140 -64q-38 0 -70.5 13.5t-55 32.5t-42 38.5t-42 33t-46.5 13.5q-41 0 -65 -31.5t-11 -87.5zM594 1139q119 0 203.5 -32
t133 -93.5t70 -141.5t21.5 -186v-686h-127l-18 82q-69 -44 -175.5 -73t-199.5 -29q-73 0 -139 19.5t-120.5 58.5t-87 107t-32.5 157q0 166 106.5 258t290.5 92q162 0 338 -51v108q0 130 -68 196t-196 66q-117 0 -183.5 -50t-70.5 -144h-164q3 166 120 254t298 88zM295 332
q0 -205 250 -205q163 0 313 63v310q-164 32 -297 32q-130 0 -198 -45.5t-68 -154.5z" />
    <glyph glyph-name="adieresis" unicode="&#xe4;" horiz-adv-x="1177" 
d="M365 1229q-41 0 -71 29.5t-30 70.5t30 71t71 30t70.5 -30t29.5 -71t-29.5 -70.5t-70.5 -29.5zM754 1229q-41 0 -71 29.5t-30 70.5t30 71t71 30t70.5 -30t29.5 -71t-29.5 -70.5t-70.5 -29.5zM594 1139q119 0 203.5 -32t133 -93.5t70 -141.5t21.5 -186v-686h-127l-18 82
q-69 -44 -175.5 -73t-199.5 -29q-73 0 -139 19.5t-120.5 58.5t-87 107t-32.5 157q0 166 106.5 258t290.5 92q162 0 338 -51v108q0 130 -68 196t-196 66q-117 0 -183.5 -50t-70.5 -144h-164q3 166 120 254t298 88zM295 332q0 -205 250 -205q163 0 313 63v310q-164 32 -297 32
q-130 0 -198 -45.5t-68 -154.5z" />
    <glyph glyph-name="aring" unicode="&#xe5;" horiz-adv-x="1167" 
d="M786 1110q126 -44 181 -151t55 -273v-686h-127l-18 82q-69 -44 -175.5 -73t-199.5 -29q-73 0 -139 19.5t-120.5 58.5t-87 107t-32.5 157q0 166 106.5 258t290.5 92q162 0 338 -51v108q0 130 -68 196t-196 66q-117 0 -183.5 -50t-70.5 -144h-164q3 128 73.5 209.5
t190.5 113.5q-57 54 -57 148q0 102 69 166.5t166 64.5t166.5 -65t69.5 -166q0 -103 -68 -158zM618 1417q-60 0 -101.5 -39.5t-41.5 -105.5q0 -64 39 -98.5t104 -34.5t104.5 34.5t39.5 98.5q0 66 -41.5 105.5t-102.5 39.5zM295 332q0 -205 250 -205q163 0 313 63v310
q-164 32 -297 32q-130 0 -198 -45.5t-68 -154.5z" />
    <glyph glyph-name="ae" unicode="&#xe6;" horiz-adv-x="1964" 
d="M1849 532h-819v-14q0 -211 98 -309t263 -98q130 0 208 78t101 192h143q-20 -188 -147 -299t-310 -111q-118 0 -221 42.5t-176 123.5q-102 -78 -229.5 -117.5t-239.5 -39.5q-77 0 -145.5 19t-126 58t-91.5 106.5t-34 155.5q0 166 111.5 259.5t297.5 93.5q156 0 328 -51v65
q0 161 -63 233t-203 72q-115 0 -181.5 -50t-70.5 -144h-164q3 167 121 254.5t307 87.5q279 0 363 -215q139 215 395 215q217 0 351 -143.5t134 -403.5v-60zM1364 995q-138 0 -217.5 -89.5t-104.5 -237.5h633q-3 155 -87.5 241t-223.5 86zM549 125q186 0 366 123
q-54 111 -57 252q-160 32 -287 32q-276 0 -276 -200q0 -104 69 -155.5t185 -51.5z" />
    <glyph glyph-name="ccedilla" unicode="&#xe7;" horiz-adv-x="1185" 
d="M909 723q-16 117 -95.5 194.5t-215.5 77.5q-112 0 -190 -65.5t-113 -168t-35 -231.5q0 -195 91.5 -303t254.5 -108q131 0 213.5 73.5t104.5 243.5h159q-8 -119 -49 -209.5t-106 -145.5t-146 -82.5t-176 -27.5q-230 0 -373 148t-143 405q0 118 32.5 226t93.5 196
t160 140.5t222 52.5q105 0 193.5 -35t147 -94t92.5 -133t38 -154h-160zM598 -115q180 0 180 -135q0 -86 -65 -133t-162 -47q-79 0 -143 22v66q45 -10 112 -10q42 0 72.5 21t30.5 57q0 44 -30 62.5t-89 18.5h-25l47 78h72z" />
    <glyph glyph-name="egrave" unicode="&#xe8;" horiz-adv-x="1196" 
d="M776 1229h-139l-217 262h188zM1081 532h-819v-14q0 -211 98 -309t263 -98q130 0 208 78t101 192h143q-20 -188 -147 -299t-310 -111q-108 0 -203 36t-167.5 103t-115 170.5t-42.5 229.5q0 95 18.5 184t58.5 170.5t98 142t143.5 96.5t187.5 36q217 0 351 -143.5
t134 -403.5v-60zM596 995q-138 0 -217.5 -89.5t-104.5 -237.5h633q-3 155 -87.5 241t-223.5 86z" />
    <glyph glyph-name="eacute" unicode="&#xe9;" horiz-adv-x="1196" 
d="M776 1491l-217 -262h-139l168 262h188zM1081 532h-819v-14q0 -211 98 -309t263 -98q130 0 208 78t101 192h143q-20 -188 -147 -299t-310 -111q-108 0 -203 36t-167.5 103t-115 170.5t-42.5 229.5q0 95 18.5 184t58.5 170.5t98 142t143.5 96.5t187.5 36q217 0 351 -143.5
t134 -403.5v-60zM596 995q-138 0 -217.5 -89.5t-104.5 -237.5h633q-3 155 -87.5 241t-223.5 86z" />
    <glyph glyph-name="ecircumflex" unicode="&#xea;" horiz-adv-x="1196" 
d="M588 1395l-156 -166h-147l254 262h118l254 -262h-147l-156 166h-20zM1081 532h-819v-14q0 -211 98 -309t263 -98q130 0 208 78t101 192h143q-20 -188 -147 -299t-310 -111q-108 0 -203 36t-167.5 103t-115 170.5t-42.5 229.5q0 95 18.5 184t58.5 170.5t98 142t143.5 96.5
t187.5 36q217 0 351 -143.5t134 -403.5v-60zM596 995q-138 0 -217.5 -89.5t-104.5 -237.5h633q-3 155 -87.5 241t-223.5 86z" />
    <glyph glyph-name="edieresis" unicode="&#xeb;" horiz-adv-x="1196" 
d="M403 1229q-41 0 -70.5 29.5t-29.5 70.5t29.5 71t70.5 30t71 -30t30 -71t-30 -70.5t-71 -29.5zM793 1229q-41 0 -71 29.5t-30 70.5t30 71t71 30t70.5 -30t29.5 -71t-29.5 -70.5t-70.5 -29.5zM1081 532h-819v-14q0 -211 98 -309t263 -98q130 0 208 78t101 192h143
q-20 -188 -147 -299t-310 -111q-108 0 -203 36t-167.5 103t-115 170.5t-42.5 229.5q0 95 18.5 184t58.5 170.5t98 142t143.5 96.5t187.5 36q217 0 351 -143.5t134 -403.5v-60zM596 995q-138 0 -217.5 -89.5t-104.5 -237.5h633q-3 155 -87.5 241t-223.5 86z" />
    <glyph glyph-name="igrave" unicode="&#xec;" horiz-adv-x="475" 
d="M309 1491l45 -262h-127l-106 262h188zM156 1110h163v-1110h-163v1110z" />
    <glyph glyph-name="iacute" unicode="&#xed;" horiz-adv-x="475" 
d="M166 1491h188l-106 -262h-127zM156 1110h163v-1110h-163v1110z" />
    <glyph glyph-name="icircumflex" unicode="&#xee;" horiz-adv-x="475" 
d="M27 1229l151 262h119l152 -262h-119l-82 160h-21l-82 -160h-118zM156 1110h163v-1110h-163v1110z" />
    <glyph glyph-name="idieresis" unicode="&#xef;" horiz-adv-x="475" 
d="M100 1229q-41 0 -70.5 29.5t-29.5 70.5t29.5 71t70.5 30t71 -30t30 -71t-30 -70.5t-71 -29.5zM375 1229q-41 0 -71 29.5t-30 70.5t30 71t71 30t70.5 -30t29.5 -71t-29.5 -70.5t-70.5 -29.5zM156 1110h163v-1110h-163v1110z" />
    <glyph glyph-name="eth" unicode="&#xf0;" horiz-adv-x="1249" 
d="M739 1505q387 -231 387 -749q0 -155 -34.5 -294t-100 -248.5t-171 -174t-236.5 -64.5q-76 0 -147.5 21t-134.5 65t-110 107t-74.5 153t-27.5 197q0 157 55.5 287t166 209.5t257.5 79.5q238 0 387 -195h9q-23 311 -306 483l-84 -129l-83 56l77 121q-89 44 -207 73l41 135
q135 -31 246 -84l88 136l84 -56zM578 123q120 0 205.5 77.5t128 214.5t42.5 322q-61 105 -159.5 161t-206.5 56q-74 0 -133 -27t-95 -70t-60 -101t-33 -115.5t-9 -118.5q0 -191 89.5 -295t230.5 -104z" />
    <glyph glyph-name="ntilde" unicode="&#xf1;" horiz-adv-x="1214" 
d="M408 1241h-107q-15 105 36 169.5t140 64.5q38 0 70.5 -13.5t55.5 -33t43.5 -39t44 -33t48.5 -13.5q39 0 61 30t9 89h106q15 -105 -36 -169t-140 -64q-38 0 -70.5 13.5t-55 32.5t-42 38.5t-42 33t-46.5 13.5q-40 0 -64 -31.5t-11 -87.5zM680 1130q85 0 151.5 -23
t108.5 -61.5t69.5 -93t38.5 -112.5t11 -125v-715h-164v662q0 78 -11.5 135t-39.5 102.5t-78 68.5t-123 23q-92 0 -179.5 -37.5t-144.5 -119.5v-834h-163v1110h151l10 -127q139 147 363 147z" />
    <glyph glyph-name="ograve" unicode="&#xf2;" 
d="M618 1491l168 -262h-139l-217 262h188zM90 512q0 117 34 227.5t97 200.5t163.5 144.5t223.5 54.5t223.5 -54.5t163.5 -144.5t97 -200.5t34 -227.5q0 -254 -145 -397.5t-373 -143.5t-373 143.5t-145 397.5zM260 516q0 -197 93 -297t255 -100t255 100t93 297
q0 129 -37.5 235.5t-118 175t-192.5 68.5t-192.5 -68.5t-118 -175t-37.5 -235.5z" />
    <glyph glyph-name="oacute" unicode="&#xf3;" 
d="M598 1491h188l-217 -262h-139zM90 512q0 117 34 227.5t97 200.5t163.5 144.5t223.5 54.5t223.5 -54.5t163.5 -144.5t97 -200.5t34 -227.5q0 -254 -145 -397.5t-373 -143.5t-373 143.5t-145 397.5zM260 516q0 -197 93 -297t255 -100t255 100t93 297q0 129 -37.5 235.5
t-118 175t-192.5 68.5t-192.5 -68.5t-118 -175t-37.5 -235.5z" />
    <glyph glyph-name="ocircumflex" unicode="&#xf4;" 
d="M295 1229l254 262h119l254 -262h-148l-156 166h-20l-156 -166h-147zM90 512q0 117 34 227.5t97 200.5t163.5 144.5t223.5 54.5t223.5 -54.5t163.5 -144.5t97 -200.5t34 -227.5q0 -254 -145 -397.5t-373 -143.5t-373 143.5t-145 397.5zM260 516q0 -197 93 -297t255 -100
t255 100t93 297q0 129 -37.5 235.5t-118 175t-192.5 68.5t-192.5 -68.5t-118 -175t-37.5 -235.5z" />
    <glyph glyph-name="otilde" unicode="&#xf5;" 
d="M915 1462q15 -105 -36 -169t-140 -64q-38 0 -70.5 13.5t-55 32.5t-42 38.5t-42 33t-46.5 13.5q-40 0 -64 -31.5t-11 -87.5h-107q-15 105 36 169.5t140 64.5q38 0 70.5 -13.5t55.5 -33t43.5 -39t44 -33t48.5 -13.5q39 0 61 30t9 89h106zM90 512q0 117 34 227.5t97 200.5
t163.5 144.5t223.5 54.5t223.5 -54.5t163.5 -144.5t97 -200.5t34 -227.5q0 -254 -145 -397.5t-373 -143.5t-373 143.5t-145 397.5zM260 516q0 -197 93 -297t255 -100t255 100t93 297q0 129 -37.5 235.5t-118 175t-192.5 68.5t-192.5 -68.5t-118 -175t-37.5 -235.5z" />
    <glyph glyph-name="odieresis" unicode="&#xf6;" 
d="M414 1229q-41 0 -71 29.5t-30 70.5t30 71t71 30t70.5 -30t29.5 -71t-29.5 -70.5t-70.5 -29.5zM803 1229q-41 0 -71 29.5t-30 70.5t30 71t71 30t70.5 -30t29.5 -71t-29.5 -70.5t-70.5 -29.5zM90 512q0 117 34 227.5t97 200.5t163.5 144.5t223.5 54.5t223.5 -54.5
t163.5 -144.5t97 -200.5t34 -227.5q0 -254 -145 -397.5t-373 -143.5t-373 143.5t-145 397.5zM260 516q0 -197 93 -297t255 -100t255 100t93 297q0 129 -37.5 235.5t-118 175t-192.5 68.5t-192.5 -68.5t-118 -175t-37.5 -235.5z" />
    <glyph glyph-name="divide" unicode="&#xf7;" horiz-adv-x="1228" 
d="M616 848q-35 0 -59.5 24.5t-24.5 59.5t24.5 59.5t59.5 24.5t59.5 -24.5t24.5 -59.5t-24.5 -59.5t-59.5 -24.5zM238 659h753v-131h-753v131zM616 172q-35 0 -59.5 24.5t-24.5 59.5t24.5 59.5t59.5 24.5t59.5 -24.5t24.5 -59.5t-24.5 -59.5t-59.5 -24.5z" />
    <glyph glyph-name="oslash" unicode="&#xf8;" 
d="M938 1006q91 -88 139.5 -220t48.5 -274q0 -254 -145 -397.5t-373 -143.5q-133 0 -237 49l-64 -108l-104 61l63 113q-84 69 -130 177.5t-46 248.5q0 117 34 227.5t97 200.5t163.5 144.5t223.5 54.5q124 0 234 -60l67 119l105 -61zM260 516q0 -185 88 -291l420 727
q-72 43 -160 43q-112 0 -192.5 -68.5t-118 -175t-37.5 -235.5zM608 119q162 0 255 100t93 297q0 216 -98 350l-414 -714q70 -33 164 -33z" />
    <glyph glyph-name="ugrave" unicode="&#xf9;" horiz-adv-x="1206" 
d="M782 1229h-139l-217 262h188zM887 1110h164v-1110h-136l-22 127q-71 -78 -161.5 -117t-184.5 -39q-91 0 -161.5 24.5t-115 64.5t-73 96.5t-39.5 115.5t-11 127v711h164v-657q0 -79 12.5 -137.5t41.5 -106.5t84 -73t135 -25q77 0 161 38.5t142 116.5v844z" />
    <glyph glyph-name="uacute" unicode="&#xfa;" horiz-adv-x="1206" 
d="M782 1491l-217 -262h-139l168 262h188zM887 1110h164v-1110h-136l-22 127q-71 -78 -161.5 -117t-184.5 -39q-91 0 -161.5 24.5t-115 64.5t-73 96.5t-39.5 115.5t-11 127v711h164v-657q0 -79 12.5 -137.5t41.5 -106.5t84 -73t135 -25q77 0 161 38.5t142 116.5v844z" />
    <glyph glyph-name="ucircumflex" unicode="&#xfb;" horiz-adv-x="1206" 
d="M594 1395l-156 -166h-147l254 262h119l254 -262h-148l-156 166h-20zM887 1110h164v-1110h-136l-22 127q-71 -78 -161.5 -117t-184.5 -39q-91 0 -161.5 24.5t-115 64.5t-73 96.5t-39.5 115.5t-11 127v711h164v-657q0 -79 12.5 -137.5t41.5 -106.5t84 -73t135 -25
q77 0 161 38.5t142 116.5v844z" />
    <glyph glyph-name="udieresis" unicode="&#xfc;" horiz-adv-x="1206" 
d="M410 1229q-41 0 -71 29.5t-30 70.5t30 71t71 30t70.5 -30t29.5 -71t-29.5 -70.5t-70.5 -29.5zM799 1229q-41 0 -71 29.5t-30 70.5t30 71t71 30t70.5 -30t29.5 -71t-29.5 -70.5t-70.5 -29.5zM887 1110h164v-1110h-136l-22 127q-71 -78 -161.5 -117t-184.5 -39
q-91 0 -161.5 24.5t-115 64.5t-73 96.5t-39.5 115.5t-11 127v711h164v-657q0 -79 12.5 -137.5t41.5 -106.5t84 -73t135 -25q77 0 161 38.5t142 116.5v844z" />
    <glyph glyph-name="yacute" unicode="&#xfd;" horiz-adv-x="1138" 
d="M748 1491l-218 -262h-139l168 262h189zM918 1110h172l-435 -1147q-56 -148 -152 -246t-198 -98q-95 0 -186 41l26 113q68 -15 131 -15q68 0 129.5 74t110.5 205l-467 1073h176l371 -887h8z" />
    <glyph glyph-name="thorn" unicode="&#xfe;" horiz-adv-x="1187" 
d="M651 1130q87 0 161 -34t126 -92.5t88.5 -136t54 -164.5t17.5 -179q0 -130 -38.5 -235.5t-103 -171.5t-146 -101.5t-171.5 -35.5q-85 0 -169.5 30.5t-150.5 79.5v-459h-163v1946h163v-580q63 56 150 94.5t182 38.5zM608 127q147 0 233.5 98.5t86.5 306.5q0 73 -11.5 138.5
t-36.5 124t-62 101t-92 67t-122 24.5q-159 0 -285 -113v-659q65 -42 142.5 -65t146.5 -23z" />
    <glyph glyph-name="ydieresis" unicode="&#xff;" horiz-adv-x="1138" 
d="M375 1229q-41 0 -71 29.5t-30 70.5t30 71t71 30t70.5 -30t29.5 -71t-29.5 -70.5t-70.5 -29.5zM764 1229q-41 0 -70.5 29.5t-29.5 70.5t29.5 71t70.5 30t70.5 -30t29.5 -71t-29.5 -70.5t-70.5 -29.5zM918 1110h172l-435 -1147q-56 -148 -152 -246t-198 -98q-95 0 -186 41
l26 113q68 -15 131 -15q68 0 129.5 74t110.5 205l-467 1073h176l371 -887h8z" />
    <glyph glyph-name="Amacron" unicode="&#x100;" horiz-adv-x="1318" 
d="M899 1700v-107h-479v107h479zM1081 0l-141 420h-565l-142 -420h-176l486 1434h233l486 -1434h-181zM426 575h463l-225 670h-13z" />
    <glyph glyph-name="amacron" unicode="&#x101;" horiz-adv-x="1177" 
d="M799 1376v-106h-480v106h480zM594 1139q119 0 203.5 -32t133 -93.5t70 -141.5t21.5 -186v-686h-127l-18 82q-69 -44 -175.5 -73t-199.5 -29q-73 0 -139 19.5t-120.5 58.5t-87 107t-32.5 157q0 166 106.5 258t290.5 92q162 0 338 -51v108q0 130 -68 196t-196 66
q-117 0 -183.5 -50t-70.5 -144h-164q3 166 120 254t298 88zM295 332q0 -205 250 -205q163 0 313 63v310q-164 32 -297 32q-130 0 -198 -45.5t-68 -154.5z" />
    <glyph glyph-name="Abreve" unicode="&#x102;" horiz-adv-x="1318" 
d="M659 1540q-72 0 -133 24.5t-99.5 64.5t-59.5 88.5t-21 97.5h135q0 -24 8 -50t26.5 -53t56 -44t87.5 -17t87.5 17t56 44t27 53t8.5 50h135q0 -105 -86 -190t-228 -85zM1081 0l-141 420h-565l-142 -420h-176l486 1434h233l486 -1434h-181zM426 575h463l-225 670h-13z" />
    <glyph glyph-name="abreve" unicode="&#x103;" horiz-adv-x="1177" 
d="M559 1217q-142 0 -227.5 84.5t-85.5 189.5h135q0 -24 8 -50t26.5 -53t56 -44t87.5 -17t87.5 17t56 44t26.5 53t8 50h135q0 -105 -85.5 -189.5t-227.5 -84.5zM594 1139q119 0 203.5 -32t133 -93.5t70 -141.5t21.5 -186v-686h-127l-18 82q-69 -44 -175.5 -73t-199.5 -29
q-73 0 -139 19.5t-120.5 58.5t-87 107t-32.5 157q0 166 106.5 258t290.5 92q162 0 338 -51v108q0 130 -68 196t-196 66q-117 0 -183.5 -50t-70.5 -144h-164q3 166 120 254t298 88zM295 332q0 -205 250 -205q163 0 313 63v310q-164 32 -297 32q-130 0 -198 -45.5t-68 -154.5z
" />
    <glyph glyph-name="Aogonek" unicode="&#x104;" horiz-adv-x="1318" 
d="M1233 -328q33 0 63 9v-82q-51 -29 -116 -29q-88 0 -144.5 53.5t-56.5 132.5q0 65 37.5 134t103.5 110h-39l-141 420h-565l-142 -420h-176l486 1434h233l486 -1434q-70 -43 -105 -98.5t-35 -114.5q0 -53 27 -84t84 -31zM426 575h463l-225 670h-13z" />
    <glyph glyph-name="aogonek" unicode="&#x105;" horiz-adv-x="1177" 
d="M993 -328q34 0 64 9v-82q-51 -29 -117 -29q-88 0 -144.5 53.5t-56.5 132.5q0 68 42 140t112 112l-16 74q-69 -44 -175.5 -73t-199.5 -29q-73 0 -139 19.5t-120.5 58.5t-87 107t-32.5 157q0 166 106.5 258t290.5 92q162 0 338 -51v108q0 130 -68 196t-196 66
q-117 0 -183.5 -50t-70.5 -144h-164q3 166 120 254t298 88q119 0 203.5 -32t133 -93.5t70 -141.5t21.5 -186v-686q-70 -43 -104.5 -98.5t-34.5 -114.5q0 -115 110 -115zM295 332q0 -205 250 -205q163 0 313 63v310q-164 32 -297 32q-130 0 -198 -45.5t-68 -154.5z" />
    <glyph glyph-name="Cacute" unicode="&#x106;" horiz-adv-x="1386" 
d="M684 1815h188l-217 -263h-139zM1061 903q-1 61 -10.5 116t-34.5 110.5t-63.5 95.5t-102 65t-145.5 25q-104 0 -184.5 -55.5t-127.5 -149.5t-70.5 -205t-23.5 -233q0 -252 108.5 -396.5t305.5 -144.5q358 0 358 434h172q0 -100 -18 -186.5t-58 -162.5t-100.5 -129.5
t-150.5 -84.5t-203 -31q-277 0 -433.5 191t-156.5 508q0 119 20.5 231.5t67 216t113.5 180t166.5 122.5t220.5 46q107 0 195 -32t147.5 -86.5t101 -127.5t60 -152.5t18.5 -164.5h-172z" />
    <glyph glyph-name="cacute" unicode="&#x107;" horiz-adv-x="1185" 
d="M584 1491h188l-217 -262h-139zM909 723q-16 117 -95.5 194.5t-215.5 77.5q-112 0 -190 -65.5t-113 -168t-35 -231.5q0 -195 91.5 -303t254.5 -108q131 0 213.5 73.5t104.5 243.5h159q-8 -119 -49 -209.5t-106 -145.5t-146 -82.5t-176 -27.5q-230 0 -373 148t-143 405
q0 118 32.5 226t93.5 196t160 140.5t222 52.5q105 0 193.5 -35t147 -94t92.5 -133t38 -154h-160z" />
    <glyph glyph-name="Ccircumflex" unicode="&#x108;" horiz-adv-x="1386" 
d="M381 1552l254 263h119l254 -263h-148l-155 166h-21l-156 -166h-147zM1061 903q-1 61 -10.5 116t-34.5 110.5t-63.5 95.5t-102 65t-145.5 25q-104 0 -184.5 -55.5t-127.5 -149.5t-70.5 -205t-23.5 -233q0 -252 108.5 -396.5t305.5 -144.5q358 0 358 434h172
q0 -100 -18 -186.5t-58 -162.5t-100.5 -129.5t-150.5 -84.5t-203 -31q-277 0 -433.5 191t-156.5 508q0 119 20.5 231.5t67 216t113.5 180t166.5 122.5t220.5 46q107 0 195 -32t147.5 -86.5t101 -127.5t60 -152.5t18.5 -164.5h-172z" />
    <glyph glyph-name="ccircumflex" unicode="&#x109;" horiz-adv-x="1185" 
d="M281 1229l254 262h118l254 -262h-147l-156 166h-20l-156 -166h-147zM909 723q-16 117 -95.5 194.5t-215.5 77.5q-112 0 -190 -65.5t-113 -168t-35 -231.5q0 -195 91.5 -303t254.5 -108q131 0 213.5 73.5t104.5 243.5h159q-8 -119 -49 -209.5t-106 -145.5t-146 -82.5
t-176 -27.5q-230 0 -373 148t-143 405q0 118 32.5 226t93.5 196t160 140.5t222 52.5q105 0 193.5 -35t147 -94t92.5 -133t38 -154h-160z" />
    <glyph glyph-name="Cdotaccent" unicode="&#x10a;" horiz-adv-x="1386" 
d="M694 1552q-46 0 -77 31.5t-31 77.5t31 77t77 31t77.5 -31t31.5 -77t-31.5 -77.5t-77.5 -31.5zM1061 903q-1 61 -10.5 116t-34.5 110.5t-63.5 95.5t-102 65t-145.5 25q-104 0 -184.5 -55.5t-127.5 -149.5t-70.5 -205t-23.5 -233q0 -252 108.5 -396.5t305.5 -144.5
q358 0 358 434h172q0 -100 -18 -186.5t-58 -162.5t-100.5 -129.5t-150.5 -84.5t-203 -31q-277 0 -433.5 191t-156.5 508q0 119 20.5 231.5t67 216t113.5 180t166.5 122.5t220.5 46q107 0 195 -32t147.5 -86.5t101 -127.5t60 -152.5t18.5 -164.5h-172z" />
    <glyph glyph-name="cdotaccent" unicode="&#x10b;" horiz-adv-x="1185" 
d="M594 1229q-46 0 -77.5 31t-31.5 77t31.5 77.5t77.5 31.5t77 -31.5t31 -77.5t-31 -77t-77 -31zM909 723q-16 117 -95.5 194.5t-215.5 77.5q-112 0 -190 -65.5t-113 -168t-35 -231.5q0 -195 91.5 -303t254.5 -108q131 0 213.5 73.5t104.5 243.5h159q-8 -119 -49 -209.5
t-106 -145.5t-146 -82.5t-176 -27.5q-230 0 -373 148t-143 405q0 118 32.5 226t93.5 196t160 140.5t222 52.5q105 0 193.5 -35t147 -94t92.5 -133t38 -154h-160z" />
    <glyph glyph-name="Ccaron" unicode="&#x10c;" horiz-adv-x="1386" 
d="M381 1815h147l156 -166h21l155 166h148l-254 -263h-119zM1061 903q-1 61 -10.5 116t-34.5 110.5t-63.5 95.5t-102 65t-145.5 25q-104 0 -184.5 -55.5t-127.5 -149.5t-70.5 -205t-23.5 -233q0 -252 108.5 -396.5t305.5 -144.5q358 0 358 434h172q0 -100 -18 -186.5
t-58 -162.5t-100.5 -129.5t-150.5 -84.5t-203 -31q-277 0 -433.5 191t-156.5 508q0 119 20.5 231.5t67 216t113.5 180t166.5 122.5t220.5 46q107 0 195 -32t147.5 -86.5t101 -127.5t60 -152.5t18.5 -164.5h-172z" />
    <glyph glyph-name="ccaron" unicode="&#x10d;" horiz-adv-x="1185" 
d="M281 1491h147l156 -166h20l156 166h147l-254 -262h-118zM909 723q-16 117 -95.5 194.5t-215.5 77.5q-112 0 -190 -65.5t-113 -168t-35 -231.5q0 -195 91.5 -303t254.5 -108q131 0 213.5 73.5t104.5 243.5h159q-8 -119 -49 -209.5t-106 -145.5t-146 -82.5t-176 -27.5
q-230 0 -373 148t-143 405q0 118 32.5 226t93.5 196t160 140.5t222 52.5q105 0 193.5 -35t147 -94t92.5 -133t38 -154h-160z" />
    <glyph glyph-name="Dcaron" unicode="&#x10e;" horiz-adv-x="1351" 
d="M651 1552h-119l-253 263h147l156 -166h20l156 166h147zM592 1434q132 0 239 -39t180.5 -106.5t123 -160.5t72 -198t22.5 -221q0 -117 -23 -221t-72 -194t-121.5 -155t-177.5 -102t-233 -37h-430v1434h420zM614 160q79 0 143.5 18t109.5 48t79 74t54 90t32 102t16.5 105
t4.5 103q0 570 -473 570h-240v-1110h274z" />
    <glyph glyph-name="dcaron" unicode="&#x10f;" horiz-adv-x="1503" 
d="M1378 1630q55 0 84 -49t29 -135q0 -55 -12.5 -111t-37.5 -108.5t-70.5 -85.5t-104.5 -33v82q55 0 83.5 53.5t28.5 128.5q-41 0 -66.5 38.5t-25.5 96.5q0 52 23 87.5t69 35.5zM868 1040v537h164v-1577h-127l-22 98q-142 -118 -324 -118q-96 0 -180.5 38t-149 108t-102 179
t-37.5 242q0 90 17 174t53.5 158.5t90 130t131 88t171.5 32.5q160 0 315 -90zM260 551q0 -214 87.5 -319t244.5 -105q141 0 276 74v706q-117 80 -264 80q-76 0 -136 -23.5t-98.5 -63t-63.5 -96t-35.5 -118.5t-10.5 -135z" />
    <glyph glyph-name="Dcroat" unicode="&#x110;" horiz-adv-x="1351" 
d="M592 1434q132 0 239 -39t180.5 -106.5t123 -160.5t72 -198t22.5 -221q0 -117 -23 -221t-72 -194t-121.5 -155t-177.5 -102t-233 -37h-430v635h-106v131h106v668h420zM614 160q79 0 143.5 18t109.5 48t79 74t54 90t32 102t16.5 105t4.5 103q0 570 -473 570h-240v-504h348
v-131h-348v-475h274z" />
    <glyph glyph-name="dcroat" unicode="&#x111;" horiz-adv-x="1187" 
d="M1147 1399v-111h-115v-1288h-127l-22 98q-142 -118 -324 -118q-96 0 -180.5 38t-149 108t-102 179t-37.5 242q0 90 17 174t53.5 158.5t90 130t131 88t171.5 32.5q160 0 315 -90v248h-290v111h290v178h164v-178h115zM260 551q0 -214 87.5 -319t244.5 -105q141 0 276 74
v706q-117 80 -264 80q-76 0 -136 -23.5t-98.5 -63t-63.5 -96t-35.5 -118.5t-10.5 -135z" />
    <glyph glyph-name="Emacron" unicode="&#x112;" horiz-adv-x="1130" 
d="M805 1700v-107h-479v107h479zM967 1270h-627v-428h598v-164h-598v-510h627v-168h-795v1434h795v-164z" />
    <glyph glyph-name="emacron" unicode="&#x113;" horiz-adv-x="1196" 
d="M838 1376v-106h-480v106h480zM1081 532h-819v-14q0 -211 98 -309t263 -98q130 0 208 78t101 192h143q-20 -188 -147 -299t-310 -111q-108 0 -203 36t-167.5 103t-115 170.5t-42.5 229.5q0 95 18.5 184t58.5 170.5t98 142t143.5 96.5t187.5 36q217 0 351 -143.5
t134 -403.5v-60zM596 995q-138 0 -217.5 -89.5t-104.5 -237.5h633q-3 155 -87.5 241t-223.5 86z" />
    <glyph glyph-name="Ebreve" unicode="&#x114;" horiz-adv-x="1130" 
d="M565 1540q-72 0 -133 24.5t-99.5 64.5t-59.5 88.5t-21 97.5h135q0 -24 8 -50t26.5 -53t56 -44t87.5 -17t87.5 17t56 44t26.5 53t8 50h136q0 -105 -86 -190t-228 -85zM967 1270h-627v-428h598v-164h-598v-510h627v-168h-795v1434h795v-164z" />
    <glyph glyph-name="ebreve" unicode="&#x115;" horiz-adv-x="1196" 
d="M598 1217q-142 0 -227.5 84.5t-85.5 189.5h135q0 -24 8 -50t26.5 -53t56 -44t87.5 -17t87.5 17t56 44t26.5 53t8 50h135q0 -105 -85.5 -189.5t-227.5 -84.5zM1081 532h-819v-14q0 -211 98 -309t263 -98q130 0 208 78t101 192h143q-20 -188 -147 -299t-310 -111
q-108 0 -203 36t-167.5 103t-115 170.5t-42.5 229.5q0 95 18.5 184t58.5 170.5t98 142t143.5 96.5t187.5 36q217 0 351 -143.5t134 -403.5v-60zM596 995q-138 0 -217.5 -89.5t-104.5 -237.5h633q-3 155 -87.5 241t-223.5 86z" />
    <glyph glyph-name="Edotaccent" unicode="&#x116;" horiz-adv-x="1130" 
d="M565 1552q-46 0 -77 31.5t-31 77.5t31 77t77 31t77.5 -31t31.5 -77t-31.5 -77.5t-77.5 -31.5zM967 1270h-627v-428h598v-164h-598v-510h627v-168h-795v1434h795v-164z" />
    <glyph glyph-name="edotaccent" unicode="&#x117;" horiz-adv-x="1196" 
d="M598 1229q-46 0 -77.5 31t-31.5 77t31.5 77.5t77.5 31.5t77.5 -31.5t31.5 -77.5t-31.5 -77t-77.5 -31zM1081 532h-819v-14q0 -211 98 -309t263 -98q130 0 208 78t101 192h143q-20 -188 -147 -299t-310 -111q-108 0 -203 36t-167.5 103t-115 170.5t-42.5 229.5
q0 95 18.5 184t58.5 170.5t98 142t143.5 96.5t187.5 36q217 0 351 -143.5t134 -403.5v-60zM596 995q-138 0 -217.5 -89.5t-104.5 -237.5h633q-3 155 -87.5 241t-223.5 86z" />
    <glyph glyph-name="Eogonek" unicode="&#x118;" horiz-adv-x="1130" 
d="M938 -328q33 0 63 9v-82q-51 -29 -116 -29q-88 0 -144.5 53.5t-56.5 132.5q0 65 37.5 134t103.5 110h-653v1434h795v-164h-627v-428h598v-164h-598v-510h627v-168q-70 -43 -105 -98.5t-35 -114.5q0 -53 27 -84t84 -31z" />
    <glyph glyph-name="eogonek" unicode="&#x119;" horiz-adv-x="1196" 
d="M1081 532h-819v-14q0 -211 98 -309t263 -98q130 0 208 78t101 192h143q-15 -148 -100 -250.5t-215 -138.5q-125 -86 -125 -205q0 -115 110 -115q34 0 64 9v-82q-51 -29 -117 -29q-88 0 -144 53.5t-56 132.5q0 54 27 113t75 102q-104 4 -194.5 42t-160 105t-109.5 168
t-40 224q0 95 18.5 184t58.5 170.5t98 142t143.5 96.5t187.5 36q217 0 351 -143.5t134 -403.5v-60zM596 995q-138 0 -217.5 -89.5t-104.5 -237.5h633q-3 155 -87.5 241t-223.5 86z" />
    <glyph glyph-name="Ecaron" unicode="&#x11a;" horiz-adv-x="1130" 
d="M625 1552h-119l-254 263h147l156 -166h20l156 166h148zM967 1270h-627v-428h598v-164h-598v-510h627v-168h-795v1434h795v-164z" />
    <glyph glyph-name="ecaron" unicode="&#x11b;" horiz-adv-x="1196" 
d="M657 1229h-118l-254 262h147l156 -166h20l156 166h147zM1081 532h-819v-14q0 -211 98 -309t263 -98q130 0 208 78t101 192h143q-20 -188 -147 -299t-310 -111q-108 0 -203 36t-167.5 103t-115 170.5t-42.5 229.5q0 95 18.5 184t58.5 170.5t98 142t143.5 96.5t187.5 36
q217 0 351 -143.5t134 -403.5v-60zM596 995q-138 0 -217.5 -89.5t-104.5 -237.5h633q-3 155 -87.5 241t-223.5 86z" />
    <glyph glyph-name="Gcircumflex" unicode="&#x11c;" horiz-adv-x="1411" 
d="M393 1552l254 263h119l254 -263h-148l-155 166h-21l-155 -166h-148zM709 766h538v-301q0 -63 -17.5 -128.5t-59 -132t-101 -117.5t-152 -83.5t-204.5 -32.5q-274 0 -432 193.5t-158 517.5q0 78 9.5 155t31 155t54 147t81 129.5t108 104t139.5 68.5t173 25q101 0 185 -30
t140 -79t96 -115.5t60.5 -135t26.5 -141.5h-172q-8 72 -32 133t-64.5 110.5t-104.5 78t-145 28.5q-76 0 -139 -27t-106.5 -74.5t-76.5 -108t-51.5 -133t-27.5 -144t-9 -144.5q0 -264 111 -408.5t315 -144.5q82 0 145.5 22t102 57.5t63 84.5t34 97t9.5 102v120h-370v152z" />
    <glyph glyph-name="gcircumflex" unicode="&#x11d;" horiz-adv-x="1187" 
d="M584 1395l-156 -166h-147l254 262h118l254 -262h-147l-156 166h-20zM905 1110h127v-1032q0 -227 -128 -343t-347 -116q-186 0 -375 88l49 131q165 -76 328 -76q145 0 227 79.5t82 236.5v45q-140 -90 -315 -90q-98 0 -181 32.5t-146.5 95t-99.5 163.5t-36 229q0 90 17 173
t54 157t90.5 128.5t131 86.5t170.5 32q72 0 146.5 -20.5t107 -36.5t80.5 -43zM604 176q129 0 264 60v671q-116 80 -266 80q-93 0 -161 -33.5t-106.5 -94t-56.5 -134t-18 -162.5q0 -205 89 -296t255 -91z" />
    <glyph glyph-name="Gbreve" unicode="&#x11e;" horiz-adv-x="1411" 
d="M528 1815q0 -24 8.5 -50t27 -53t56 -44t87.5 -17t87.5 17t56 44t26.5 53t8 50h135q0 -49 -21 -97.5t-59.5 -88.5t-99.5 -64.5t-133 -24.5q-142 0 -228 85t-86 190h135zM709 766h538v-301q0 -63 -17.5 -128.5t-59 -132t-101 -117.5t-152 -83.5t-204.5 -32.5
q-274 0 -432 193.5t-158 517.5q0 78 9.5 155t31 155t54 147t81 129.5t108 104t139.5 68.5t173 25q101 0 185 -30t140 -79t96 -115.5t60.5 -135t26.5 -141.5h-172q-8 72 -32 133t-64.5 110.5t-104.5 78t-145 28.5q-76 0 -139 -27t-106.5 -74.5t-76.5 -108t-51.5 -133
t-27.5 -144t-9 -144.5q0 -264 111 -408.5t315 -144.5q82 0 145.5 22t102 57.5t63 84.5t34 97t9.5 102v120h-370v152z" />
    <glyph glyph-name="gbreve" unicode="&#x11f;" horiz-adv-x="1187" 
d="M594 1217q-142 0 -227.5 84.5t-85.5 189.5h135q0 -24 8 -50t26.5 -53t56 -44t87.5 -17t87.5 17t56 44t26.5 53t8 50h135q0 -105 -85.5 -189.5t-227.5 -84.5zM905 1110h127v-1032q0 -227 -128 -343t-347 -116q-186 0 -375 88l49 131q165 -76 328 -76q145 0 227 79.5
t82 236.5v45q-140 -90 -315 -90q-98 0 -181 32.5t-146.5 95t-99.5 163.5t-36 229q0 90 17 173t54 157t90.5 128.5t131 86.5t170.5 32q72 0 146.5 -20.5t107 -36.5t80.5 -43zM604 176q129 0 264 60v671q-116 80 -266 80q-93 0 -161 -33.5t-106.5 -94t-56.5 -134t-18 -162.5
q0 -205 89 -296t255 -91z" />
    <glyph glyph-name="Gdotaccent" unicode="&#x120;" horiz-adv-x="1411" 
d="M707 1552q-46 0 -77.5 31.5t-31.5 77.5t31.5 77t77.5 31t77 -31t31 -77t-31 -77.5t-77 -31.5zM709 766h538v-301q0 -63 -17.5 -128.5t-59 -132t-101 -117.5t-152 -83.5t-204.5 -32.5q-274 0 -432 193.5t-158 517.5q0 78 9.5 155t31 155t54 147t81 129.5t108 104
t139.5 68.5t173 25q101 0 185 -30t140 -79t96 -115.5t60.5 -135t26.5 -141.5h-172q-8 72 -32 133t-64.5 110.5t-104.5 78t-145 28.5q-76 0 -139 -27t-106.5 -74.5t-76.5 -108t-51.5 -133t-27.5 -144t-9 -144.5q0 -264 111 -408.5t315 -144.5q82 0 145.5 22t102 57.5t63 84.5
t34 97t9.5 102v120h-370v152z" />
    <glyph glyph-name="gdotaccent" unicode="&#x121;" horiz-adv-x="1187" 
d="M594 1229q-46 0 -77.5 31t-31.5 77t31.5 77.5t77.5 31.5t77 -31.5t31 -77.5t-31 -77t-77 -31zM905 1110h127v-1032q0 -227 -128 -343t-347 -116q-186 0 -375 88l49 131q165 -76 328 -76q145 0 227 79.5t82 236.5v45q-140 -90 -315 -90q-98 0 -181 32.5t-146.5 95
t-99.5 163.5t-36 229q0 90 17 173t54 157t90.5 128.5t131 86.5t170.5 32q72 0 146.5 -20.5t107 -36.5t80.5 -43zM604 176q129 0 264 60v671q-116 80 -266 80q-93 0 -161 -33.5t-106.5 -94t-56.5 -134t-18 -162.5q0 -205 89 -296t255 -91z" />
    <glyph glyph-name="uni0122" unicode="&#x122;" horiz-adv-x="1411" 
d="M709 766h538v-301q0 -63 -17.5 -128.5t-59 -132t-101 -117.5t-152 -83.5t-204.5 -32.5q-274 0 -432 193.5t-158 517.5q0 78 9.5 155t31 155t54 147t81 129.5t108 104t139.5 68.5t173 25q101 0 185 -30t140 -79t96 -115.5t60.5 -135t26.5 -141.5h-172q-8 72 -32 133
t-64.5 110.5t-104.5 78t-145 28.5q-76 0 -139 -27t-106.5 -74.5t-76.5 -108t-51.5 -133t-27.5 -144t-9 -144.5q0 -264 111 -408.5t315 -144.5q82 0 145.5 22t102 57.5t63 84.5t34 97t9.5 102v120h-370v152zM705 -72q41 0 66.5 -34t25.5 -91q0 -137 -156 -213l-20 62
q35 14 54 40t17 54q-29 0 -52.5 23t-23.5 63q0 38 25.5 67t63.5 29z" />
    <glyph glyph-name="uni0123" unicode="&#x123;" horiz-adv-x="1187" 
d="M598 1227q-36 0 -59 29.5t-23 80.5q0 119 137 187l19 -54q-31 -13 -48.5 -36.5t-15.5 -47.5q26 0 47 -19.5t21 -55.5q0 -34 -22 -59t-56 -25zM905 1110h127v-1032q0 -227 -128 -343t-347 -116q-186 0 -375 88l49 131q165 -76 328 -76q145 0 227 79.5t82 236.5v45
q-140 -90 -315 -90q-98 0 -181 32.5t-146.5 95t-99.5 163.5t-36 229q0 90 17 173t54 157t90.5 128.5t131 86.5t170.5 32q72 0 146.5 -20.5t107 -36.5t80.5 -43zM604 176q129 0 264 60v671q-116 80 -266 80q-93 0 -161 -33.5t-106.5 -94t-56.5 -134t-18 -162.5
q0 -205 89 -296t255 -91z" />
    <glyph glyph-name="Hcircumflex" unicode="&#x124;" horiz-adv-x="1429" 
d="M705 1718l-156 -166h-148l254 263h119l254 -263h-147l-156 166h-20zM1090 1434h167v-1434h-167v688h-750v-688h-168v1434h168v-582h750v582z" />
    <glyph glyph-name="hcircumflex" unicode="&#x125;" horiz-adv-x="1214" 
d="M598 1804l-156 -166h-147l254 263h119l254 -263h-148l-156 166h-20zM680 1130q85 0 151.5 -23t108.5 -61.5t69.5 -93t38.5 -112.5t11 -125v-715h-164v662q0 78 -11.5 135t-39.5 102.5t-78 68.5t-123 23q-90 0 -178 -36t-146 -115v-840h-163v1577h163v-590
q143 143 361 143z" />
    <glyph glyph-name="Hbar" unicode="&#x126;" horiz-adv-x="1429" 
d="M1090 1434h167v-1434h-167v463h-750v-463h-168v1434h168v-357h750v357zM340 627h750v286h-750v-286z" />
    <glyph glyph-name="hbar" unicode="&#x127;" horiz-adv-x="1239" 
d="M705 1130q106 0 182 -34t117.5 -94.5t60 -131t18.5 -155.5v-715h-163v662q0 78 -11.5 135t-39.5 102.5t-78 68.5t-123 23q-90 0 -178 -36t-146 -115v-840h-164v1288h-114v111h114v178h164v-178h291v-111h-291v-301q143 143 361 143z" />
    <glyph glyph-name="Itilde" unicode="&#x128;" horiz-adv-x="528" 
d="M43 1565q-15 101 7 148.5t106 47.5q35 0 62.5 -9t43 -23t29.5 -29.5t23.5 -29.5t23.5 -23t31 -9q31 0 26 37q-1 10 -16 70h106q6 -58 5.5 -102t-28.5 -69.5t-87 -25.5q-42 0 -72.5 12.5t-47 31t-29.5 36.5t-28 30.5t-34 12.5q-29 0 -29 -30t15 -76h-107zM180 1434h168
v-1434h-168v1434z" />
    <glyph glyph-name="itilde" unicode="&#x129;" horiz-adv-x="475" 
d="M16 1241q-15 101 7 149t106 48q42 0 72.5 -12.5t47 -31t29.5 -36.5t28.5 -30.5t35.5 -12.5q31 0 27 36q-2 9 -17 70h107q6 -58 5 -101.5t-29 -69t-87 -25.5q-42 0 -72.5 12.5t-47 30.5t-29.5 36.5t-28 31t-34 12.5q-29 0 -29 -30.5t15 -76.5h-107zM156 1110h163v-1110
h-163v1110z" />
    <glyph glyph-name="Imacron" unicode="&#x12a;" horiz-adv-x="528" 
d="M66 1700h397v-107h-397v107zM180 1434h168v-1434h-168v1434z" />
    <glyph glyph-name="imacron" unicode="&#x12b;" horiz-adv-x="475" 
d="M80 1376h315v-106h-315v106zM156 1110h163v-1110h-163v1110z" />
    <glyph glyph-name="Ibreve" unicode="&#x12c;" horiz-adv-x="528" 
d="M176 1815q0 -164 88 -164t88 164h123q0 -116 -57.5 -195.5t-153.5 -79.5t-153.5 79.5t-57.5 195.5h123zM180 1434h168v-1434h-168v1434z" />
    <glyph glyph-name="ibreve" unicode="&#x12d;" horiz-adv-x="475" 
d="M150 1491q0 -164 88 -164t88 164h123q0 -116 -57.5 -195t-153.5 -79t-153.5 79t-57.5 195h123zM156 1110h163v-1110h-163v1110z" />
    <glyph glyph-name="Iogonek" unicode="&#x12e;" horiz-adv-x="528" 
d="M319 -328q34 0 64 9v-82q-51 -29 -117 -29q-88 0 -144 53.5t-56 132.5q0 65 37.5 134t103.5 110h-27v1434h168v-1434q-70 -43 -104.5 -98.5t-34.5 -114.5q0 -115 110 -115z" />
    <glyph glyph-name="iogonek" unicode="&#x12f;" horiz-adv-x="475" 
d="M238 1229q-46 0 -77.5 31t-31.5 77t31.5 77.5t77.5 31.5t77 -31.5t31 -77.5t-31 -77t-77 -31zM291 -328q33 0 63 9v-82q-51 -29 -116 -29q-88 0 -144.5 53.5t-56.5 132.5q0 65 37.5 134t103.5 110h-22v1110h163v-1110q-70 -43 -104.5 -98.5t-34.5 -114.5q0 -53 27 -84
t84 -31z" />
    <glyph glyph-name="Idotaccent" unicode="&#x130;" horiz-adv-x="528" 
d="M264 1552q-46 0 -77 31.5t-31 77.5t31 77t77 31t77.5 -31t31.5 -77t-31.5 -77.5t-77.5 -31.5zM180 1434h168v-1434h-168v1434z" />
    <glyph glyph-name="dotlessi" unicode="&#x131;" horiz-adv-x="475" 
d="M156 1110h163v-1110h-163v1110z" />
    <glyph glyph-name="Jcircumflex" unicode="&#x134;" horiz-adv-x="1388" 
d="M874 1718l-155 -166h-148l254 263h119l254 -263h-147l-156 166h-21zM1204 1434v-861q0 -279 -134 -440.5t-380 -161.5q-137 0 -245.5 52.5t-175.5 144t-101.5 210.5t-32.5 257h168q-1 -72 11.5 -142t42 -136.5t73 -117t110.5 -81.5t148 -31q168 0 258 117.5t90 330.5v695
h-458v164h626z" />
    <glyph glyph-name="jcircumflex" unicode="&#x135;" horiz-adv-x="481" 
d="M-72 1229l254 262h119l254 -262h-147l-156 166h-21l-155 -166h-148zM162 1110h164v-1182q0 -155 -69.5 -232t-190.5 -77q-45 0 -93.5 17.5t-83.5 44.5l39 106q62 -20 107 -20q70 0 98.5 41.5t28.5 144.5v1157z" />
    <glyph glyph-name="uni0136" unicode="&#x136;" horiz-adv-x="1300" 
d="M610 784l625 -784h-229l-504 639h-19l-143 -168v-471h-168v1434h168v-721h16l605 721h208zM649 -72q41 0 66.5 -34t25.5 -91q0 -138 -155 -213l-21 62q36 14 55 40.5t17 53.5q-29 0 -52.5 23t-23.5 63q0 38 25 67t63 29z" />
    <glyph glyph-name="uni0137" unicode="&#x137;" horiz-adv-x="1081" 
d="M543 637l489 -637h-209l-383 510h-16l-105 -113v-397h-163v1577h163v-961h17l444 494h201zM539 -72q41 0 66.5 -34t25.5 -91q0 -137 -156 -213l-20 62q35 14 54 40t17 54q-29 0 -52 23t-23 63q0 38 25 67t63 29z" />
    <glyph glyph-name="kgreenlandic" unicode="&#x138;" horiz-adv-x="1081" 
d="M543 637l489 -637h-209l-383 510h-16l-105 -113v-397h-163v1110h163v-494h17l444 494h201z" />
    <glyph glyph-name="Lacute" unicode="&#x139;" horiz-adv-x="1101" 
d="M786 1815l-217 -263h-139l168 263h188zM340 168h627v-168h-795v1434h168v-1266z" />
    <glyph glyph-name="lacute" unicode="&#x13a;" horiz-adv-x="475" 
d="M166 2019h188l-106 -262h-127zM156 1577h163v-1577h-163v1577z" />
    <glyph glyph-name="uni013B" unicode="&#x13b;" horiz-adv-x="1101" 
d="M340 168h627v-168h-795v1434h168v-1266zM606 -72q41 0 66.5 -34t25.5 -91q0 -138 -155 -213l-21 62q36 14 55 40.5t17 53.5q-29 0 -52.5 23t-23.5 63q0 38 25 67t63 29z" />
    <glyph glyph-name="uni013C" unicode="&#x13c;" horiz-adv-x="475" 
d="M156 1577h163v-1577h-163v1577zM236 -72q41 0 66.5 -34t25.5 -91q0 -137 -156 -213l-20 62q35 14 54 40.5t17 53.5q-29 0 -52.5 23t-23.5 63q0 38 25.5 67t63.5 29z" />
    <glyph glyph-name="Lcaron" unicode="&#x13d;" horiz-adv-x="1101" 
d="M907 1335q0 -55 -12.5 -111t-37.5 -108.5t-70.5 -85.5t-104.5 -33v82q55 0 84 54.5t29 128.5q-41 0 -67 38.5t-26 96.5q0 52 23.5 87.5t69.5 35.5q54 0 83 -49.5t29 -135.5zM340 168h627v-168h-795v1434h168v-1266z" />
    <glyph glyph-name="lcaron" unicode="&#x13e;" horiz-adv-x="790" 
d="M666 1630q55 0 83.5 -49t28.5 -135q0 -55 -12.5 -111t-37.5 -108.5t-70.5 -85.5t-104.5 -33v82q55 0 84 54t29 128q-41 0 -67 38.5t-26 96.5q0 52 23.5 87.5t69.5 35.5zM156 1577h163v-1577h-163v1577z" />
    <glyph glyph-name="Ldot" unicode="&#x13f;" horiz-adv-x="1130" 
d="M340 168h627v-168h-795v1434h168v-1266zM717 643q-55 0 -90 34t-35 95q0 57 34 99t91 42t91 -42t34 -99q0 -61 -34.5 -95t-90.5 -34z" />
    <glyph glyph-name="ldot" unicode="&#x140;" horiz-adv-x="804" 
d="M156 1577h163v-1577h-163v1577zM465 782q0 57 34 99.5t91 42.5t91 -42.5t34 -99.5q0 -61 -34.5 -95t-90.5 -34q-55 0 -90 34t-35 95z" />
    <glyph glyph-name="Lslash" unicode="&#x141;" horiz-adv-x="1157" 
d="M395 168h627v-168h-795v635l-161 -55v151l161 55v648h168v-590l273 92v-152l-273 -92v-524z" />
    <glyph glyph-name="lslash" unicode="&#x142;" horiz-adv-x="507" 
d="M492 944v-129l-156 -53v-762h-164v707l-156 -54v129l156 54v741h164v-686z" />
    <glyph glyph-name="Nacute" unicode="&#x143;" horiz-adv-x="1409" 
d="M883 1815l-217 -263h-140l168 263h189zM1069 1434h168v-1434h-152l-729 1133h-16v-1133h-168v1434h186l695 -1096h16v1096z" />
    <glyph glyph-name="nacute" unicode="&#x144;" horiz-adv-x="1214" 
d="M786 1491l-217 -262h-139l168 262h188zM680 1130q85 0 151.5 -23t108.5 -61.5t69.5 -93t38.5 -112.5t11 -125v-715h-164v662q0 78 -11.5 135t-39.5 102.5t-78 68.5t-123 23q-92 0 -179.5 -37.5t-144.5 -119.5v-834h-163v1110h151l10 -127q139 147 363 147z" />
    <glyph glyph-name="uni0145" unicode="&#x145;" horiz-adv-x="1409" 
d="M1069 1434h168v-1434h-152l-729 1133h-16v-1133h-168v1434h186l695 -1096h16v1096zM702 -72q41 0 67 -34t26 -91q0 -137 -156 -213l-21 62q36 14 55 40.5t17 53.5q-29 0 -52.5 23t-23.5 63q0 38 25 67t63 29z" />
    <glyph glyph-name="uni0146" unicode="&#x146;" horiz-adv-x="1214" 
d="M680 1130q85 0 151.5 -23t108.5 -61.5t69.5 -93t38.5 -112.5t11 -125v-715h-164v662q0 78 -11.5 135t-39.5 102.5t-78 68.5t-123 23q-92 0 -179.5 -37.5t-144.5 -119.5v-834h-163v1110h151l10 -127q139 147 363 147zM606 -72q41 0 66.5 -34t25.5 -91q0 -138 -155 -213
l-21 62q36 14 55 40.5t17 53.5q-29 0 -52.5 23t-23.5 63q0 38 25 67t63 29z" />
    <glyph glyph-name="Ncaron" unicode="&#x147;" horiz-adv-x="1409" 
d="M764 1552h-119l-254 263h148l155 -166h21l155 166h148zM1069 1434h168v-1434h-152l-729 1133h-16v-1133h-168v1434h186l695 -1096h16v1096z" />
    <glyph glyph-name="ncaron" unicode="&#x148;" horiz-adv-x="1214" 
d="M668 1229h-119l-254 262h147l156 -166h20l156 166h148zM680 1130q85 0 151.5 -23t108.5 -61.5t69.5 -93t38.5 -112.5t11 -125v-715h-164v662q0 78 -11.5 135t-39.5 102.5t-78 68.5t-123 23q-92 0 -179.5 -37.5t-144.5 -119.5v-834h-163v1110h151l10 -127q139 147 363 147
z" />
    <glyph glyph-name="napostrophe" unicode="&#x149;" horiz-adv-x="1521" 
d="M281 1528q64 0 97.5 -54.5t33.5 -152.5q0 -58 -12.5 -110t-40.5 -100.5t-80 -81.5t-123 -42v88q135 34 135 172q-59 0 -97 34t-38 95t32.5 106.5t92.5 45.5zM987 1130q85 0 151.5 -23t108.5 -61.5t69.5 -93t38.5 -112.5t11 -125v-715h-164v662q0 78 -11.5 135
t-39.5 102.5t-78 68.5t-123 23q-92 0 -179 -37.5t-144 -119.5v-834h-164v1110h151l11 -127q139 147 362 147z" />
    <glyph glyph-name="Eng" unicode="&#x14a;" horiz-adv-x="1409" 
d="M1069 1434h168v-1506q0 -155 -69.5 -232t-190.5 -77q-45 0 -93 17.5t-83 44.5l39 106q62 -20 106 -20q70 0 98.5 41.5t28.5 144.5v65l-717 1115h-16v-1133h-168v1434h186l695 -1096h16v1096z" />
    <glyph glyph-name="eng" unicode="&#x14b;" horiz-adv-x="1214" 
d="M680 1130q85 0 151.5 -23t108.5 -61.5t69.5 -93t38.5 -112.5t11 -125v-725q0 -155 -69.5 -232t-190.5 -77q-45 0 -93.5 17t-82.5 44l39 106q62 -20 106 -20q70 0 98.5 41.5t28.5 144.5v648q0 78 -11.5 135t-39.5 102.5t-78 68.5t-123 23q-92 0 -179.5 -37.5
t-144.5 -119.5v-834h-163v1110h151l10 -127q139 147 363 147z" />
    <glyph glyph-name="Omacron" unicode="&#x14c;" horiz-adv-x="1417" 
d="M469 1700h479v-107h-479v107zM123 670q0 148 39.5 289t111.5 254.5t185.5 183t249.5 69.5q110 0 205.5 -45.5t164 -123t118 -179.5t73.5 -216t24 -232q0 -159 -46 -291.5t-125 -221t-186 -137.5t-228 -49t-228 49t-186.5 137.5t-125.5 221t-46 291.5zM299 676
q0 -247 116 -396t294 -149t293.5 148.5t115.5 396.5q0 118 -28 231.5t-79 204.5t-130 147t-172 56q-123 0 -219 -96t-143.5 -240t-47.5 -303z" />
    <glyph glyph-name="omacron" unicode="&#x14d;" 
d="M369 1376h479v-106h-479v106zM90 512q0 117 34 227.5t97 200.5t163.5 144.5t223.5 54.5t223.5 -54.5t163.5 -144.5t97 -200.5t34 -227.5q0 -254 -145 -397.5t-373 -143.5t-373 143.5t-145 397.5zM260 516q0 -197 93 -297t255 -100t255 100t93 297q0 129 -37.5 235.5
t-118 175t-192.5 68.5t-192.5 -68.5t-118 -175t-37.5 -235.5z" />
    <glyph glyph-name="Obreve" unicode="&#x14e;" horiz-adv-x="1417" 
d="M530 1815q0 -24 8.5 -50t27 -53t56 -44t87.5 -17t87.5 17t56 44t26.5 53t8 50h135q0 -49 -21 -97.5t-59.5 -88.5t-99.5 -64.5t-133 -24.5q-142 0 -228 85t-86 190h135zM123 670q0 148 39.5 289t111.5 254.5t185.5 183t249.5 69.5q110 0 205.5 -45.5t164 -123t118 -179.5
t73.5 -216t24 -232q0 -159 -46 -291.5t-125 -221t-186 -137.5t-228 -49t-228 49t-186.5 137.5t-125.5 221t-46 291.5zM299 676q0 -247 116 -396t294 -149t293.5 148.5t115.5 396.5q0 118 -28 231.5t-79 204.5t-130 147t-172 56q-123 0 -219 -96t-143.5 -240t-47.5 -303z" />
    <glyph glyph-name="obreve" unicode="&#x14f;" 
d="M430 1491q0 -24 8 -50t26.5 -53t56 -44t87.5 -17t87.5 17t56 44t26.5 53t8 50h136q0 -105 -86 -189.5t-228 -84.5t-227.5 84.5t-85.5 189.5h135zM90 512q0 117 34 227.5t97 200.5t163.5 144.5t223.5 54.5t223.5 -54.5t163.5 -144.5t97 -200.5t34 -227.5
q0 -254 -145 -397.5t-373 -143.5t-373 143.5t-145 397.5zM260 516q0 -197 93 -297t255 -100t255 100t93 297q0 129 -37.5 235.5t-118 175t-192.5 68.5t-192.5 -68.5t-118 -175t-37.5 -235.5z" />
    <glyph glyph-name="Ohungarumlaut" unicode="&#x150;" horiz-adv-x="1417" 
d="M547 1815h145l-108 -263h-107zM793 1815h145l-109 -263h-106zM123 670q0 148 39.5 289t111.5 254.5t185.5 183t249.5 69.5q110 0 205.5 -45.5t164 -123t118 -179.5t73.5 -216t24 -232q0 -159 -46 -291.5t-125 -221t-186 -137.5t-228 -49t-228 49t-186.5 137.5t-125.5 221
t-46 291.5zM299 676q0 -247 116 -396t294 -149t293.5 148.5t115.5 396.5q0 118 -28 231.5t-79 204.5t-130 147t-172 56q-123 0 -219 -96t-143.5 -240t-47.5 -303z" />
    <glyph glyph-name="ohungarumlaut" unicode="&#x151;" 
d="M446 1491h146l-109 -262h-106zM692 1491h146l-109 -262h-106zM90 512q0 117 34 227.5t97 200.5t163.5 144.5t223.5 54.5t223.5 -54.5t163.5 -144.5t97 -200.5t34 -227.5q0 -254 -145 -397.5t-373 -143.5t-373 143.5t-145 397.5zM260 516q0 -197 93 -297t255 -100t255 100
t93 297q0 129 -37.5 235.5t-118 175t-192.5 68.5t-192.5 -68.5t-118 -175t-37.5 -235.5z" />
    <glyph glyph-name="OE" unicode="&#x152;" horiz-adv-x="1822" 
d="M1659 1270h-557q138 -173 178 -428h350v-164h-336v-8q0 -307 -161 -502h526v-168h-772q-89 -29 -178 -29q-121 0 -228 49t-186.5 137.5t-125.5 221t-46 291.5q0 148 39.5 289t111.5 254.5t185.5 183t249.5 69.5q91 0 176 -32h774v-164zM709 131q178 0 293.5 148.5
t115.5 396.5q0 118 -28 231.5t-79 204.5t-130 147t-172 56q-123 0 -219 -96t-143.5 -240t-47.5 -303q0 -247 116 -396t294 -149z" />
    <glyph glyph-name="oe" unicode="&#x153;" horiz-adv-x="2060" 
d="M1946 532h-820v-14q0 -211 98 -309t263 -98q130 0 208 78t101 192h143q-20 -188 -146.5 -299t-309.5 -111q-136 0 -253 58t-188 164q-67 -107 -180.5 -164.5t-253.5 -57.5q-228 0 -373 143.5t-145 397.5q0 117 34 227.5t97 200.5t163.5 144.5t223.5 54.5q143 0 252.5 -71
t175.5 -191q64 121 170 191.5t254 70.5q217 0 351.5 -143.5t134.5 -403.5v-60zM608 119q154 0 245.5 89.5t100.5 266.5v35q0 31 2 45q-4 71 -19.5 135.5t-44.5 120t-69 96.5t-95 64.5t-120 23.5q-112 0 -192.5 -68.5t-118 -175t-37.5 -235.5q0 -197 93 -297t255 -100z
M1460 995q-138 0 -217 -89.5t-104 -237.5h633q-3 155 -88 241t-224 86z" />
    <glyph glyph-name="Racute" unicode="&#x154;" horiz-adv-x="1253" 
d="M805 1815l-217 -263h-139l167 263h189zM958 0l-299 500h-319v-500h-168v1434h459q100 0 180.5 -26t133 -70t88 -104.5t50.5 -126.5t15 -138q0 -161 -71 -272.5t-189 -161.5l317 -535h-197zM340 1270v-611h291q140 0 217.5 77t77.5 229q0 63 -14.5 114t-47.5 96t-96 70
t-152 25h-276z" />
    <glyph glyph-name="racute" unicode="&#x155;" horiz-adv-x="774" 
d="M565 1491l-217 -262h-139l168 262h188zM319 954q72 91 174.5 136t215.5 45l-13 -172q-8 0 -24.5 1t-24.5 1q-239 0 -328 -174v-791h-163v1110h151z" />
    <glyph glyph-name="uni0156" unicode="&#x156;" horiz-adv-x="1253" 
d="M838 535l317 -535h-197l-299 500h-319v-500h-168v1434h459q100 0 180.5 -26t133 -70t88 -104.5t50.5 -126.5t15 -138q0 -161 -71 -272.5t-189 -161.5zM340 1270v-611h291q140 0 217.5 77t77.5 229q0 63 -14.5 114t-47.5 96t-96 70t-152 25h-276zM625 -72q41 0 66.5 -34
t25.5 -91q0 -137 -156 -213l-20 62q35 14 54 40t17 54q-29 0 -52 23t-23 63q0 38 25 67t63 29z" />
    <glyph glyph-name="uni0157" unicode="&#x157;" horiz-adv-x="774" 
d="M319 954q72 91 174.5 136t215.5 45l-13 -172q-8 0 -24.5 1t-24.5 1q-239 0 -328 -174v-791h-163v1110h151zM385 -72q41 0 66.5 -34t25.5 -91q0 -138 -155 -213l-21 62q36 14 55 40.5t17 53.5q-29 0 -52.5 23t-23.5 63q0 38 25 67t63 29z" />
    <glyph glyph-name="Rcaron" unicode="&#x158;" horiz-adv-x="1253" 
d="M686 1552h-119l-254 263h148l155 -166h21l156 166h147zM958 0l-299 500h-319v-500h-168v1434h459q100 0 180.5 -26t133 -70t88 -104.5t50.5 -126.5t15 -138q0 -161 -71 -272.5t-189 -161.5l317 -535h-197zM340 1270v-611h291q140 0 217.5 77t77.5 229q0 63 -14.5 114
t-47.5 96t-96 70t-152 25h-276z" />
    <glyph glyph-name="rcaron" unicode="&#x159;" horiz-adv-x="774" 
d="M446 1229h-118l-254 262h147l156 -166h20l156 166h147zM319 954q72 91 174.5 136t215.5 45l-13 -172q-8 0 -24.5 1t-24.5 1q-239 0 -328 -174v-791h-163v1110h151z" />
    <glyph glyph-name="Sacute" unicode="&#x15a;" horiz-adv-x="1239" 
d="M610 1815h189l-217 -263h-140zM303 492q0 -170 88.5 -265.5t245.5 -95.5q132 0 223.5 75.5t91.5 196.5q0 58 -25.5 104t-69 77t-99.5 57t-118 49t-123.5 47t-117.5 55.5t-99.5 71t-69 98.5t-25.5 132q0 156 114 264t312 108q208 0 312 -113t104 -304h-173q0 266 -243 266
q-117 0 -185.5 -47.5t-68.5 -141.5q0 -54 25.5 -97t69 -71.5t99.5 -52.5t118 -46t123.5 -46.5t117.5 -59t99.5 -78t69 -109.5t25.5 -148q0 -191 -137.5 -319t-349.5 -128q-234 0 -370 142.5t-136 378.5h172z" />
    <glyph glyph-name="sacute" unicode="&#x15b;" horiz-adv-x="1038" 
d="M510 1491h188l-217 -262h-139zM221 381q0 -117 86.5 -189.5t214.5 -72.5q107 0 184.5 51.5t77.5 138.5q0 52 -36 89.5t-93.5 60t-126.5 41.5t-138.5 43.5t-127 57t-93.5 89.5t-36 135q0 136 101.5 225t285.5 89q59 0 111.5 -10.5t101.5 -35.5t84.5 -62.5t56.5 -96
t21 -131.5h-156q0 97 -63.5 144.5t-163.5 47.5q-97 0 -154 -38.5t-57 -110.5q0 -47 28 -83t74 -56.5t105 -40.5t120.5 -35t120.5 -40t105 -55.5t74 -81.5t28 -118q0 -109 -63 -193.5t-162.5 -128t-214.5 -43.5q-56 0 -112 10.5t-118.5 39t-110 72.5t-78.5 118.5t-31 169.5
h155z" />
    <glyph glyph-name="Scircumflex" unicode="&#x15c;" horiz-adv-x="1239" 
d="M307 1552l254 263h119l254 -263h-148l-155 166h-21l-155 -166h-148zM303 492q0 -170 88.5 -265.5t245.5 -95.5q132 0 223.5 75.5t91.5 196.5q0 58 -25.5 104t-69 77t-99.5 57t-118 49t-123.5 47t-117.5 55.5t-99.5 71t-69 98.5t-25.5 132q0 156 114 264t312 108
q208 0 312 -113t104 -304h-173q0 266 -243 266q-117 0 -185.5 -47.5t-68.5 -141.5q0 -54 25.5 -97t69 -71.5t99.5 -52.5t118 -46t123.5 -46.5t117.5 -59t99.5 -78t69 -109.5t25.5 -148q0 -191 -137.5 -319t-349.5 -128q-234 0 -370 142.5t-136 378.5h172z" />
    <glyph glyph-name="scircumflex" unicode="&#x15d;" horiz-adv-x="1038" 
d="M207 1229l254 262h119l254 -262h-148l-156 166h-20l-156 -166h-147zM221 381q0 -117 86.5 -189.5t214.5 -72.5q107 0 184.5 51.5t77.5 138.5q0 52 -36 89.5t-93.5 60t-126.5 41.5t-138.5 43.5t-127 57t-93.5 89.5t-36 135q0 136 101.5 225t285.5 89q59 0 111.5 -10.5
t101.5 -35.5t84.5 -62.5t56.5 -96t21 -131.5h-156q0 97 -63.5 144.5t-163.5 47.5q-97 0 -154 -38.5t-57 -110.5q0 -47 28 -83t74 -56.5t105 -40.5t120.5 -35t120.5 -40t105 -55.5t74 -81.5t28 -118q0 -109 -63 -193.5t-162.5 -128t-214.5 -43.5q-56 0 -112 10.5t-118.5 39
t-110 72.5t-78.5 118.5t-31 169.5h155z" />
    <glyph glyph-name="Scedilla" unicode="&#x15e;" horiz-adv-x="1239" 
d="M303 492q0 -170 88.5 -265.5t245.5 -95.5q132 0 223.5 75.5t91.5 196.5q0 58 -25.5 104t-69 77t-99.5 57t-118 49t-123.5 47t-117.5 55.5t-99.5 71t-69 98.5t-25.5 132q0 156 114 264t312 108q208 0 312 -113t104 -304h-173q0 266 -243 266q-117 0 -185.5 -47.5
t-68.5 -141.5q0 -54 25.5 -97t69 -71.5t99.5 -52.5t118 -46t123.5 -46.5t117.5 -59t99.5 -78t69 -109.5t25.5 -148q0 -191 -137.5 -319t-349.5 -128q-234 0 -370 142.5t-136 378.5h172zM625 -115q180 0 180 -135q0 -86 -65 -133t-162 -47q-80 0 -144 22v66q45 -10 113 -10
q42 0 72 21t30 57q0 44 -30 62.5t-89 18.5h-24l47 78h72z" />
    <glyph glyph-name="scedilla" unicode="&#x15f;" horiz-adv-x="1038" 
d="M221 381q0 -117 86.5 -189.5t214.5 -72.5q107 0 184.5 51.5t77.5 138.5q0 52 -36 89.5t-93.5 60t-126.5 41.5t-138.5 43.5t-127 57t-93.5 89.5t-36 135q0 136 101.5 225t285.5 89q59 0 111.5 -10.5t101.5 -35.5t84.5 -62.5t56.5 -96t21 -131.5h-156q0 97 -63.5 144.5
t-163.5 47.5q-97 0 -154 -38.5t-57 -110.5q0 -47 28 -83t74 -56.5t105 -40.5t120.5 -35t120.5 -40t105 -55.5t74 -81.5t28 -118q0 -109 -63 -193.5t-162.5 -128t-214.5 -43.5q-56 0 -112 10.5t-118.5 39t-110 72.5t-78.5 118.5t-31 169.5h155zM524 -115q181 0 181 -135
q0 -86 -65.5 -133t-162.5 -47q-79 0 -143 22v66q45 -10 112 -10q42 0 72.5 21t30.5 57q0 44 -30 62.5t-89 18.5h-24l47 78h71z" />
    <glyph glyph-name="Scaron" unicode="&#x160;" horiz-adv-x="1239" 
d="M307 1815h148l155 -166h21l155 166h148l-254 -263h-119zM303 492q0 -170 88.5 -265.5t245.5 -95.5q132 0 223.5 75.5t91.5 196.5q0 58 -25.5 104t-69 77t-99.5 57t-118 49t-123.5 47t-117.5 55.5t-99.5 71t-69 98.5t-25.5 132q0 156 114 264t312 108q208 0 312 -113
t104 -304h-173q0 266 -243 266q-117 0 -185.5 -47.5t-68.5 -141.5q0 -54 25.5 -97t69 -71.5t99.5 -52.5t118 -46t123.5 -46.5t117.5 -59t99.5 -78t69 -109.5t25.5 -148q0 -191 -137.5 -319t-349.5 -128q-234 0 -370 142.5t-136 378.5h172z" />
    <glyph glyph-name="scaron" unicode="&#x161;" horiz-adv-x="1038" 
d="M207 1491h147l156 -166h20l156 166h148l-254 -262h-119zM221 381q0 -117 86.5 -189.5t214.5 -72.5q107 0 184.5 51.5t77.5 138.5q0 52 -36 89.5t-93.5 60t-126.5 41.5t-138.5 43.5t-127 57t-93.5 89.5t-36 135q0 136 101.5 225t285.5 89q59 0 111.5 -10.5t101.5 -35.5
t84.5 -62.5t56.5 -96t21 -131.5h-156q0 97 -63.5 144.5t-163.5 47.5q-97 0 -154 -38.5t-57 -110.5q0 -47 28 -83t74 -56.5t105 -40.5t120.5 -35t120.5 -40t105 -55.5t74 -81.5t28 -118q0 -109 -63 -193.5t-162.5 -128t-214.5 -43.5q-56 0 -112 10.5t-118.5 39t-110 72.5
t-78.5 118.5t-31 169.5h155z" />
    <glyph glyph-name="uni0162" unicode="&#x162;" horiz-adv-x="1327" 
d="M1204 1434v-164h-463v-1270h-168v1270h-450v164h1081zM668 -115q180 0 180 -135q0 -86 -65 -133t-162 -47q-80 0 -144 22v66q45 -10 113 -10q42 0 72 21t30 57q0 44 -30 62.5t-89 18.5h-24l47 78h72z" />
    <glyph glyph-name="uni0163" unicode="&#x163;" horiz-adv-x="774" 
d="M461 -20q-42 0 -79 11.5t-70 37.5t-52.5 74.5t-19.5 115.5v764h-174v127h174v287h163v-287h244v-127h-244v-729q0 -123 107 -123q55 0 127 31l39 -107q-29 -27 -85 -51t-130 -24zM449 -115q180 0 180 -135q0 -86 -65.5 -133t-162.5 -47q-79 0 -143 22v66q45 -10 113 -10
q42 0 72 21t30 57q0 44 -30 62.5t-89 18.5h-24l47 78h72z" />
    <glyph glyph-name="Tcaron" unicode="&#x164;" horiz-adv-x="1327" 
d="M723 1552h-119l-254 263h148l155 -166h21l155 166h148zM1204 1434v-164h-463v-1270h-168v1270h-450v164h1081z" />
    <glyph glyph-name="tcaron" unicode="&#x165;" horiz-adv-x="983" 
d="M907 1630q55 0 84 -49t29 -135q0 -55 -12.5 -111t-37.5 -108.5t-70.5 -85.5t-104.5 -33v82q55 0 83.5 53.5t28.5 128.5q-41 0 -66.5 38.5t-25.5 96.5q0 52 23 87.5t69 35.5zM510 131q55 0 127 31l39 -107q-29 -27 -85 -51t-130 -24q-42 0 -79 11.5t-70 37.5t-52.5 74.5
t-19.5 115.5v764h-174v127h174v287h163v-287h244v-127h-244v-729q0 -123 107 -123z" />
    <glyph glyph-name="Tbar" unicode="&#x166;" horiz-adv-x="1327" 
d="M1204 1270h-463v-488h213v-131h-213v-651h-168v651h-200v131h200v488h-450v164h1081v-164z" />
    <glyph glyph-name="tbar" unicode="&#x167;" horiz-adv-x="774" 
d="M637 162l39 -107q-29 -27 -85 -51t-130 -24q-42 0 -79 11.5t-70 37.5t-52.5 74.5t-19.5 115.5v416h-174v127h174v221h-174v127h174v287h163v-287h244v-127h-244v-221h244v-127h-244v-381q0 -123 107 -123q55 0 127 31z" />
    <glyph glyph-name="Utilde" unicode="&#x168;" horiz-adv-x="1433" 
d="M1024 1786q15 -105 -36 -169.5t-140 -64.5q-38 0 -70.5 13.5t-55 33t-42 38.5t-42 32.5t-46.5 13.5q-41 0 -65 -31t-11 -87h-106q-15 105 36 169t140 64q38 0 70.5 -13.5t55.5 -33t43.5 -38.5t44 -32.5t48.5 -13.5q39 0 61 30t9 89h106zM1262 1434v-916
q0 -143 -42 -250.5t-117.5 -171t-172 -94.5t-213.5 -31t-213.5 31t-172 94.5t-117.5 171t-42 250.5v916h168v-910q0 -107 28.5 -185t81 -122.5t118.5 -65t149 -20.5t149 20.5t118.5 65t81 122.5t28.5 185v910h168z" />
    <glyph glyph-name="utilde" unicode="&#x169;" horiz-adv-x="1206" 
d="M403 1241h-106q-15 105 36 169.5t140 64.5q38 0 70.5 -13.5t55.5 -33t43.5 -39t44 -33t48.5 -13.5q39 0 61 30t9 89h106q15 -105 -36 -169t-140 -64q-38 0 -70.5 13.5t-55 32.5t-42 38.5t-42 33t-46.5 13.5q-41 0 -65 -31.5t-11 -87.5zM887 1110h164v-1110h-136l-22 127
q-71 -78 -161.5 -117t-184.5 -39q-91 0 -161.5 24.5t-115 64.5t-73 96.5t-39.5 115.5t-11 127v711h164v-657q0 -79 12.5 -137.5t41.5 -106.5t84 -73t135 -25q77 0 161 38.5t142 116.5v844z" />
    <glyph glyph-name="Umacron" unicode="&#x16a;" horiz-adv-x="1433" 
d="M477 1700h479v-107h-479v107zM1262 1434v-916q0 -143 -42 -250.5t-117.5 -171t-172 -94.5t-213.5 -31t-213.5 31t-172 94.5t-117.5 171t-42 250.5v916h168v-910q0 -107 28.5 -185t81 -122.5t118.5 -65t149 -20.5t149 20.5t118.5 65t81 122.5t28.5 185v910h168z" />
    <glyph glyph-name="umacron" unicode="&#x16b;" horiz-adv-x="1206" 
d="M844 1376v-106h-479v106h479zM887 1110h164v-1110h-136l-22 127q-71 -78 -161.5 -117t-184.5 -39q-91 0 -161.5 24.5t-115 64.5t-73 96.5t-39.5 115.5t-11 127v711h164v-657q0 -79 12.5 -137.5t41.5 -106.5t84 -73t135 -25q77 0 161 38.5t142 116.5v844z" />
    <glyph glyph-name="Ubreve" unicode="&#x16c;" horiz-adv-x="1433" 
d="M539 1815q0 -24 8 -50t26.5 -53t56 -44t87.5 -17t87.5 17t56 44t26.5 53t8 50h135q0 -49 -21 -97.5t-59.5 -88.5t-99.5 -64.5t-133 -24.5q-142 0 -228 85t-86 190h136zM1262 1434v-916q0 -143 -42 -250.5t-117.5 -171t-172 -94.5t-213.5 -31t-213.5 31t-172 94.5
t-117.5 171t-42 250.5v916h168v-910q0 -107 28.5 -185t81 -122.5t118.5 -65t149 -20.5t149 20.5t118.5 65t81 122.5t28.5 185v910h168z" />
    <glyph glyph-name="ubreve" unicode="&#x16d;" horiz-adv-x="1206" 
d="M604 1217q-142 0 -227.5 84.5t-85.5 189.5h135q0 -24 8 -50t26.5 -53t56 -44t87.5 -17t87.5 17t56 44t26.5 53t8 50h136q0 -105 -86 -189.5t-228 -84.5zM887 1110h164v-1110h-136l-22 127q-71 -78 -161.5 -117t-184.5 -39q-91 0 -161.5 24.5t-115 64.5t-73 96.5
t-39.5 115.5t-11 127v711h164v-657q0 -79 12.5 -137.5t41.5 -106.5t84 -73t135 -25q77 0 161 38.5t142 116.5v844z" />
    <glyph glyph-name="Uring" unicode="&#x16e;" horiz-adv-x="1433" 
d="M717 1497q-84 0 -136.5 52.5t-52.5 131.5q0 80 53 132.5t136 52.5q84 0 136 -52.5t52 -132.5q0 -79 -52 -131.5t-136 -52.5zM717 1577q49 0 76.5 29t27.5 75q0 48 -28 78.5t-76 30.5q-47 0 -76 -30.5t-29 -78.5q0 -44 28.5 -74t76.5 -30zM1262 1434v-916
q0 -143 -42 -250.5t-117.5 -171t-172 -94.5t-213.5 -31t-213.5 31t-172 94.5t-117.5 171t-42 250.5v916h168v-910q0 -107 28.5 -185t81 -122.5t118.5 -65t149 -20.5t149 20.5t118.5 65t81 122.5t28.5 185v910h168z" />
    <glyph glyph-name="uring" unicode="&#x16f;" horiz-adv-x="1206" 
d="M604 1174q-84 0 -136 52.5t-52 131.5q0 80 52.5 132t135.5 52q84 0 136.5 -52t52.5 -132q0 -79 -52.5 -131.5t-136.5 -52.5zM604 1466q-47 0 -75.5 -30t-28.5 -78q0 -45 28 -75t76 -30q49 0 77 29.5t28 75.5q0 48 -28 78t-77 30zM887 1110h164v-1110h-136l-22 127
q-71 -78 -161.5 -117t-184.5 -39q-91 0 -161.5 24.5t-115 64.5t-73 96.5t-39.5 115.5t-11 127v711h164v-657q0 -79 12.5 -137.5t41.5 -106.5t84 -73t135 -25q77 0 161 38.5t142 116.5v844z" />
    <glyph glyph-name="Uhungarumlaut" unicode="&#x170;" horiz-adv-x="1433" 
d="M555 1815h145l-108 -263h-107zM801 1815h145l-108 -263h-107zM1262 1434v-916q0 -143 -42 -250.5t-117.5 -171t-172 -94.5t-213.5 -31t-213.5 31t-172 94.5t-117.5 171t-42 250.5v916h168v-910q0 -107 28.5 -185t81 -122.5t118.5 -65t149 -20.5t149 20.5t118.5 65
t81 122.5t28.5 185v910h168z" />
    <glyph glyph-name="uhungarumlaut" unicode="&#x171;" horiz-adv-x="1206" 
d="M588 1491l-109 -262h-106l69 262h146zM834 1491l-109 -262h-107l70 262h146zM887 1110h164v-1110h-136l-22 127q-71 -78 -161.5 -117t-184.5 -39q-91 0 -161.5 24.5t-115 64.5t-73 96.5t-39.5 115.5t-11 127v711h164v-657q0 -79 12.5 -137.5t41.5 -106.5t84 -73t135 -25
q77 0 161 38.5t142 116.5v844z" />
    <glyph glyph-name="Uogonek" unicode="&#x172;" horiz-adv-x="1433" 
d="M1094 1434h168v-916q0 -234 -107.5 -365t-290.5 -167q-116 -83 -116 -199q0 -115 110 -115q34 0 64 9v-82q-51 -29 -117 -29q-88 0 -144.5 53.5t-56.5 132.5q0 54 27.5 113t75.5 102q-116 2 -210.5 33.5t-168.5 95t-115 170t-41 248.5v916h168v-910q0 -107 28.5 -185
t81 -122.5t118.5 -65t149 -20.5t149 20.5t118.5 65t81 122.5t28.5 185v910z" />
    <glyph glyph-name="uogonek" unicode="&#x173;" horiz-adv-x="1206" 
d="M1022 -328q33 0 63 9v-82q-51 -29 -116 -29q-88 0 -144.5 53.5t-56.5 132.5q0 66 39.5 136.5t107.5 111.5l-22 123q-71 -78 -161.5 -117t-184.5 -39q-91 0 -161.5 24.5t-115 64.5t-73 96.5t-39.5 115.5t-11 127v711h164v-657q0 -79 12.5 -137.5t41.5 -106.5t84 -73
t135 -25q77 0 161 38.5t142 116.5v844h164v-1110q-70 -43 -105 -98.5t-35 -114.5q0 -53 27 -84t84 -31z" />
    <glyph glyph-name="Wcircumflex" unicode="&#x174;" horiz-adv-x="2029" 
d="M1006 1718l-156 -166h-148l254 263h119l254 -263h-147l-156 166h-20zM1794 1434h170l-397 -1434h-213l-326 1139h-22l-326 -1139h-213l-401 1434h182l325 -1223h11l354 1223h162l354 -1223h14z" />
    <glyph glyph-name="wcircumflex" unicode="&#x175;" horiz-adv-x="1601" 
d="M791 1395l-156 -166h-148l254 262h119l254 -262h-147l-156 166h-20zM1368 1110h168l-322 -1110h-172l-235 866h-12l-236 -866h-172l-321 1110h172l235 -909h4l250 909h152l245 -909h6z" />
    <glyph glyph-name="Ycircumflex" unicode="&#x176;" 
d="M598 1718l-156 -166h-147l254 263h119l254 -263h-148l-156 166h-20zM995 1434h181l-484 -775v-659h-168v659l-483 775h197l366 -605h17z" />
    <glyph glyph-name="ycircumflex" unicode="&#x177;" horiz-adv-x="1138" 
d="M559 1395l-156 -166h-147l254 262h119l254 -262h-148l-155 166h-21zM918 1110h172l-435 -1147q-56 -148 -152 -246t-198 -98q-95 0 -186 41l26 113q68 -15 131 -15q68 0 129.5 74t110.5 205l-467 1073h176l371 -887h8z" />
    <glyph glyph-name="Ydieresis" unicode="&#x178;" 
d="M414 1552q-41 0 -71 30t-30 71t30 70.5t71 29.5t70.5 -29.5t29.5 -70.5t-29.5 -71t-70.5 -30zM803 1552q-41 0 -71 30t-30 71t30 70.5t71 29.5t70.5 -29.5t29.5 -70.5t-29.5 -71t-70.5 -30zM995 1434h181l-484 -775v-659h-168v659l-483 775h197l366 -605h17z" />
    <glyph glyph-name="Zacute" unicode="&#x179;" horiz-adv-x="1177" 
d="M580 1815h188l-217 -263h-139zM1032 1434v-152l-708 -1098v-16h747v-168h-965v147l711 1106v17h-686v164h901z" />
    <glyph glyph-name="zacute" unicode="&#x17a;" horiz-adv-x="980" 
d="M481 1491h189l-217 -262h-140zM307 131h567v-131h-768v111l543 856v12h-524v131h717v-111l-535 -856v-12z" />
    <glyph glyph-name="Zdotaccent" unicode="&#x17b;" horiz-adv-x="1177" 
d="M590 1552q-46 0 -77.5 31.5t-31.5 77.5t31.5 77t77.5 31t77 -31t31 -77t-31 -77.5t-77 -31.5zM1032 1434v-152l-708 -1098v-16h747v-168h-965v147l711 1106v17h-686v164h901z" />
    <glyph glyph-name="zdotaccent" unicode="&#x17c;" horiz-adv-x="980" 
d="M492 1229q-46 0 -77.5 31t-31.5 77t31.5 77.5t77.5 31.5t77 -31.5t31 -77.5t-31 -77t-77 -31zM307 131h567v-131h-768v111l543 856v12h-524v131h717v-111l-535 -856v-12z" />
    <glyph glyph-name="Zcaron" unicode="&#x17d;" horiz-adv-x="1177" 
d="M276 1815h148l156 -166h20l156 166h147l-254 -263h-119zM1032 1434v-152l-708 -1098v-16h747v-168h-965v147l711 1106v17h-686v164h901z" />
    <glyph glyph-name="zcaron" unicode="&#x17e;" horiz-adv-x="980" 
d="M178 1491h148l155 -166h21l155 166h148l-254 -262h-119zM307 131h567v-131h-768v111l543 856v12h-524v131h717v-111l-535 -856v-12z" />
    <glyph glyph-name="uni018F" unicode="&#x18f;" horiz-adv-x="1415" 
d="M711 1468q159 0 292.5 -101.5t211 -279.5t77.5 -393q0 -166 -45 -303.5t-123.5 -228.5t-186 -141t-232.5 -50q-119 0 -225.5 49.5t-185.5 138.5t-125 222t-46 291v73h991q-6 158 -57 287t-143 206t-209 77q-145 0 -247.5 -106.5t-138.5 -266.5h-169q21 144 103 265
t203.5 191t254.5 70zM707 133q163 0 271.5 118.5t131.5 338.5h-813l4 -2q0 -120 51.5 -224t145.5 -167.5t209 -63.5z" />
    <glyph glyph-name="florin" unicode="&#x192;" horiz-adv-x="1159" 
d="M702 1286q-120 0 -192 -67t-72 -185q0 -64 33 -264h393l-8 -119h-364q49 -288 49 -397q0 -178 -106 -295t-300 -127v145q109 8 173.5 73.5t64.5 174.5q0 78 -60 426h-149l8 119h123q-25 168 -25 240q0 186 116 305t327 119q221 0 381 -144l-99 -123q-136 119 -293 119z
" />
    <glyph glyph-name="uni019D" unicode="&#x19d;" horiz-adv-x="1398" 
d="M1059 1434h168v-1434h-152l-729 1133h-16v-1205q0 -154 -71 -231.5t-193 -77.5q-45 0 -93.5 17.5t-83.5 44.5l39 106q62 -20 107 -20q70 0 98.5 41.5t28.5 144.5v1481h186l694 -1096h17v1096z" />
    <glyph glyph-name="Ohorn" unicode="&#x1a0;" horiz-adv-x="1417" 
d="M1294 1432q0 -78 -46 -118t-120 -40h-30q95 -113 145.5 -273.5t50.5 -330.5q0 -159 -46 -291.5t-125 -221t-186 -137.5t-228 -49t-228 49t-186.5 137.5t-125.5 221t-46 291.5q0 148 39.5 289t111.5 254.5t185.5 183t249.5 69.5q104 0 194 -41q79 -29 106 -36t60 -7
q70 0 70 66v190h155v-206zM709 131q178 0 293.5 148.5t115.5 396.5q0 118 -28 231.5t-79 204.5t-130 147t-172 56q-123 0 -219 -96t-143.5 -240t-47.5 -303q0 -247 116 -396t294 -149z" />
    <glyph glyph-name="ohorn" unicode="&#x1a1;" 
d="M1145 1159q0 -186 -164 -201q71 -88 108 -205t37 -241q0 -254 -145 -397.5t-373 -143.5t-373 143.5t-145 397.5q0 117 34 227.5t97 200.5t163.5 144.5t223.5 54.5q114 0 199 -43q77 -25 119 -25q31 0 47 12t16 43v181h156v-148zM608 119q162 0 255 100t93 297
q0 129 -37.5 235.5t-118 175t-192.5 68.5t-192.5 -68.5t-118 -175t-37.5 -235.5q0 -197 93 -297t255 -100z" />
    <glyph glyph-name="Uhorn" unicode="&#x1af;" horiz-adv-x="1589" 
d="M1417 1640h156v-157q0 -110 -54 -163.5t-133 -53.5q-65 0 -124 32v-780q0 -143 -42 -250.5t-117.5 -171t-172 -94.5t-213.5 -31t-213.5 31t-172 94.5t-117.5 171t-42 250.5v916h168v-910q0 -107 28.5 -185t81 -122.5t118.5 -65t149 -20.5t149 20.5t118.5 65t81 122.5
t28.5 185v910h168q55 -48 98 -48q57 0 57 64v190z" />
    <glyph glyph-name="uhorn" unicode="&#x1b0;" horiz-adv-x="1411" 
d="M1206 1317h156v-158q0 -110 -53.5 -163.5t-132.5 -53.5q-64 0 -125 33v-975h-136l-22 127q-71 -78 -161.5 -117t-184.5 -39q-91 0 -161.5 24.5t-115 64.5t-73 96.5t-39.5 115.5t-11 127v711h164v-657q0 -79 12.5 -137.5t41.5 -106.5t84 -73t135 -25q77 0 161 38.5
t142 116.5v844h164q53 -47 98 -47q57 0 57 63v191z" />
    <glyph glyph-name="uni01CD" unicode="&#x1cd;" horiz-adv-x="1318" 
d="M719 1552h-119l-254 263h148l155 -166h21l155 166h148zM1081 0l-141 420h-565l-142 -420h-176l486 1434h233l486 -1434h-181zM426 575h463l-225 670h-13z" />
    <glyph glyph-name="uni01CE" unicode="&#x1ce;" horiz-adv-x="1177" 
d="M618 1229h-118l-254 262h147l156 -166h20l156 166h147zM594 1139q119 0 203.5 -32t133 -93.5t70 -141.5t21.5 -186v-686h-127l-18 82q-69 -44 -175.5 -73t-199.5 -29q-73 0 -139 19.5t-120.5 58.5t-87 107t-32.5 157q0 166 106.5 258t290.5 92q162 0 338 -51v108
q0 130 -68 196t-196 66q-117 0 -183.5 -50t-70.5 -144h-164q3 166 120 254t298 88zM295 332q0 -205 250 -205q163 0 313 63v310q-164 32 -297 32q-130 0 -198 -45.5t-68 -154.5z" />
    <glyph glyph-name="uni01CF" unicode="&#x1cf;" horiz-adv-x="528" 
d="M53 1815h119l82 -160h20l82 160h119l-151 -263h-119zM180 1434h168v-1434h-168v1434z" />
    <glyph glyph-name="uni01D0" unicode="&#x1d0;" horiz-adv-x="475" 
d="M27 1491h118l82 -160h21l82 160h119l-152 -262h-119zM156 1110h163v-1110h-163v1110z" />
    <glyph glyph-name="uni01D1" unicode="&#x1d1;" horiz-adv-x="1417" 
d="M395 1815h148l155 -166h21l155 166h148l-254 -263h-119zM123 670q0 148 39.5 289t111.5 254.5t185.5 183t249.5 69.5q110 0 205.5 -45.5t164 -123t118 -179.5t73.5 -216t24 -232q0 -159 -46 -291.5t-125 -221t-186 -137.5t-228 -49t-228 49t-186.5 137.5t-125.5 221
t-46 291.5zM299 676q0 -247 116 -396t294 -149t293.5 148.5t115.5 396.5q0 118 -28 231.5t-79 204.5t-130 147t-172 56q-123 0 -219 -96t-143.5 -240t-47.5 -303z" />
    <glyph glyph-name="uni01D2" unicode="&#x1d2;" 
d="M295 1491h147l156 -166h20l156 166h148l-254 -262h-119zM90 512q0 117 34 227.5t97 200.5t163.5 144.5t223.5 54.5t223.5 -54.5t163.5 -144.5t97 -200.5t34 -227.5q0 -254 -145 -397.5t-373 -143.5t-373 143.5t-145 397.5zM260 516q0 -197 93 -297t255 -100t255 100
t93 297q0 129 -37.5 235.5t-118 175t-192.5 68.5t-192.5 -68.5t-118 -175t-37.5 -235.5z" />
    <glyph glyph-name="uni01D3" unicode="&#x1d3;" horiz-adv-x="1433" 
d="M403 1815h148l156 -166h20l156 166h147l-254 -263h-119zM1262 1434v-916q0 -143 -42 -250.5t-117.5 -171t-172 -94.5t-213.5 -31t-213.5 31t-172 94.5t-117.5 171t-42 250.5v916h168v-910q0 -107 28.5 -185t81 -122.5t118.5 -65t149 -20.5t149 20.5t118.5 65t81 122.5
t28.5 185v910h168z" />
    <glyph glyph-name="uni01D4" unicode="&#x1d4;" horiz-adv-x="1206" 
d="M664 1229h-119l-254 262h147l156 -166h20l156 166h148zM887 1110h164v-1110h-136l-22 127q-71 -78 -161.5 -117t-184.5 -39q-91 0 -161.5 24.5t-115 64.5t-73 96.5t-39.5 115.5t-11 127v711h164v-657q0 -79 12.5 -137.5t41.5 -106.5t84 -73t135 -25q77 0 161 38.5
t142 116.5v844z" />
    <glyph glyph-name="uni01D5" unicode="&#x1d5;" horiz-adv-x="1433" 
d="M477 1937h479v-106h-479v106zM522 1552q-41 0 -70.5 30t-29.5 71t29.5 70.5t70.5 29.5t71 -29.5t30 -70.5t-30 -71t-71 -30zM911 1552q-41 0 -70.5 30t-29.5 71t29.5 70.5t70.5 29.5t71 -29.5t30 -70.5t-30 -71t-71 -30zM1262 1434v-916q0 -143 -42 -250.5t-117.5 -171
t-172 -94.5t-213.5 -31t-213.5 31t-172 94.5t-117.5 171t-42 250.5v916h168v-910q0 -107 28.5 -185t81 -122.5t118.5 -65t149 -20.5t149 20.5t118.5 65t81 122.5t28.5 185v910h168z" />
    <glyph glyph-name="uni01D6" unicode="&#x1d6;" horiz-adv-x="1206" 
d="M844 1614v-107h-479v107h479zM410 1229q-41 0 -71 29.5t-30 70.5t30 71t71 30t70.5 -30t29.5 -71t-29.5 -70.5t-70.5 -29.5zM698 1329q0 41 30 71t71 30t70.5 -30t29.5 -71t-29.5 -70.5t-70.5 -29.5t-71 29.5t-30 70.5zM887 1110h164v-1110h-136l-22 127
q-71 -78 -161.5 -117t-184.5 -39q-91 0 -161.5 24.5t-115 64.5t-73 96.5t-39.5 115.5t-11 127v711h164v-657q0 -79 12.5 -137.5t41.5 -106.5t84 -73t135 -25q77 0 161 38.5t142 116.5v844z" />
    <glyph glyph-name="uni01D7" unicode="&#x1d7;" horiz-adv-x="1433" 
d="M707 2052h188l-217 -262h-139zM522 1552q-41 0 -70.5 30t-29.5 71t29.5 70.5t70.5 29.5t71 -29.5t30 -70.5t-30 -71t-71 -30zM911 1552q-41 0 -70.5 30t-29.5 71t29.5 70.5t70.5 29.5t71 -29.5t30 -70.5t-30 -71t-71 -30zM1262 1434v-916q0 -143 -42 -250.5t-117.5 -171
t-172 -94.5t-213.5 -31t-213.5 31t-172 94.5t-117.5 171t-42 250.5v916h168v-910q0 -107 28.5 -185t81 -122.5t118.5 -65t149 -20.5t149 20.5t118.5 65t81 122.5t28.5 185v910h168z" />
    <glyph glyph-name="uni01D8" unicode="&#x1d8;" horiz-adv-x="1206" 
d="M782 1729l-217 -263h-139l168 263h188zM410 1229q-41 0 -71 29.5t-30 70.5t30 71t71 30t70.5 -30t29.5 -71t-29.5 -70.5t-70.5 -29.5zM698 1329q0 41 30 71t71 30t70.5 -30t29.5 -71t-29.5 -70.5t-70.5 -29.5t-71 29.5t-30 70.5zM887 1110h164v-1110h-136l-22 127
q-71 -78 -161.5 -117t-184.5 -39q-91 0 -161.5 24.5t-115 64.5t-73 96.5t-39.5 115.5t-11 127v711h164v-657q0 -79 12.5 -137.5t41.5 -106.5t84 -73t135 -25q77 0 161 38.5t142 116.5v844z" />
    <glyph glyph-name="uni01D9" unicode="&#x1d9;" horiz-adv-x="1433" 
d="M403 2052h148l156 -166h20l156 166h147l-254 -262h-119zM522 1552q-41 0 -70.5 30t-29.5 71t29.5 70.5t70.5 29.5t71 -29.5t30 -70.5t-30 -71t-71 -30zM911 1552q-41 0 -70.5 30t-29.5 71t29.5 70.5t70.5 29.5t71 -29.5t30 -70.5t-30 -71t-71 -30zM1262 1434v-916
q0 -143 -42 -250.5t-117.5 -171t-172 -94.5t-213.5 -31t-213.5 31t-172 94.5t-117.5 171t-42 250.5v916h168v-910q0 -107 28.5 -185t81 -122.5t118.5 -65t149 -20.5t149 20.5t118.5 65t81 122.5t28.5 185v910h168z" />
    <glyph glyph-name="uni01DA" unicode="&#x1da;" horiz-adv-x="1206" 
d="M664 1466h-119l-254 263h147l156 -166h20l156 166h148zM309 1329q0 41 30 71t71 30t70.5 -30t29.5 -71t-29.5 -70.5t-70.5 -29.5t-71 29.5t-30 70.5zM698 1329q0 41 30 71t71 30t70.5 -30t29.5 -71t-29.5 -70.5t-70.5 -29.5t-71 29.5t-30 70.5zM887 1110h164v-1110h-136
l-22 127q-71 -78 -161.5 -117t-184.5 -39q-91 0 -161.5 24.5t-115 64.5t-73 96.5t-39.5 115.5t-11 127v711h164v-657q0 -79 12.5 -137.5t41.5 -106.5t84 -73t135 -25q77 0 161 38.5t142 116.5v844z" />
    <glyph glyph-name="uni01DB" unicode="&#x1db;" horiz-adv-x="1433" 
d="M727 2052l168 -262h-139l-217 262h188zM522 1552q-41 0 -70.5 30t-29.5 71t29.5 70.5t70.5 29.5t71 -29.5t30 -70.5t-30 -71t-71 -30zM911 1552q-41 0 -70.5 30t-29.5 71t29.5 70.5t70.5 29.5t71 -29.5t30 -70.5t-30 -71t-71 -30zM1262 1434v-916q0 -143 -42 -250.5
t-117.5 -171t-172 -94.5t-213.5 -31t-213.5 31t-172 94.5t-117.5 171t-42 250.5v916h168v-910q0 -107 28.5 -185t81 -122.5t118.5 -65t149 -20.5t149 20.5t118.5 65t81 122.5t28.5 185v910h168z" />
    <glyph glyph-name="uni01DC" unicode="&#x1dc;" horiz-adv-x="1206" 
d="M782 1466h-139l-217 263h188zM410 1229q-41 0 -71 29.5t-30 70.5t30 71t71 30t70.5 -30t29.5 -71t-29.5 -70.5t-70.5 -29.5zM698 1329q0 41 30 71t71 30t70.5 -30t29.5 -71t-29.5 -70.5t-70.5 -29.5t-71 29.5t-30 70.5zM887 1110h164v-1110h-136l-22 127
q-71 -78 -161.5 -117t-184.5 -39q-91 0 -161.5 24.5t-115 64.5t-73 96.5t-39.5 115.5t-11 127v711h164v-657q0 -79 12.5 -137.5t41.5 -106.5t84 -73t135 -25q77 0 161 38.5t142 116.5v844z" />
    <glyph glyph-name="Gcaron" unicode="&#x1e6;" horiz-adv-x="1411" 
d="M393 1815h148l155 -166h21l155 166h148l-254 -263h-119zM709 766h538v-301q0 -63 -17.5 -128.5t-59 -132t-101 -117.5t-152 -83.5t-204.5 -32.5q-274 0 -432 193.5t-158 517.5q0 78 9.5 155t31 155t54 147t81 129.5t108 104t139.5 68.5t173 25q101 0 185 -30t140 -79
t96 -115.5t60.5 -135t26.5 -141.5h-172q-8 72 -32 133t-64.5 110.5t-104.5 78t-145 28.5q-76 0 -139 -27t-106.5 -74.5t-76.5 -108t-51.5 -133t-27.5 -144t-9 -144.5q0 -264 111 -408.5t315 -144.5q82 0 145.5 22t102 57.5t63 84.5t34 97t9.5 102v120h-370v152z" />
    <glyph glyph-name="gcaron" unicode="&#x1e7;" horiz-adv-x="1187" 
d="M653 1229h-118l-254 262h147l156 -166h20l156 166h147zM905 1110h127v-1032q0 -227 -128 -343t-347 -116q-186 0 -375 88l49 131q165 -76 328 -76q145 0 227 79.5t82 236.5v45q-140 -90 -315 -90q-98 0 -181 32.5t-146.5 95t-99.5 163.5t-36 229q0 90 17 173t54 157
t90.5 128.5t131 86.5t170.5 32q72 0 146.5 -20.5t107 -36.5t80.5 -43zM604 176q129 0 264 60v671q-116 80 -266 80q-93 0 -161 -33.5t-106.5 -94t-56.5 -134t-18 -162.5q0 -205 89 -296t255 -91z" />
    <glyph glyph-name="uni01EA" unicode="&#x1ea;" horiz-adv-x="1417" 
d="M817 -18q-112 -82 -112 -195q0 -115 110 -115q34 0 64 9v-82q-51 -29 -117 -29q-88 0 -144.5 53.5t-56.5 132.5q0 56 27.5 115t77.5 102q-114 9 -213 61t-172.5 139.5t-115.5 216t-42 280.5q0 148 39.5 289t111.5 254.5t185.5 183t249.5 69.5q110 0 205.5 -45.5t164 -123
t118 -179.5t73.5 -216t24 -232q0 -281 -134 -464.5t-343 -223.5zM299 676q0 -247 116 -396t294 -149t293.5 148.5t115.5 396.5q0 118 -28 231.5t-79 204.5t-130 147t-172 56q-123 0 -219 -96t-143.5 -240t-47.5 -303z" />
    <glyph glyph-name="uni01EB" unicode="&#x1eb;" 
d="M748 -12q-119 -83 -119 -201q0 -115 110 -115q34 0 64 9v-82q-51 -29 -117 -29q-88 0 -144.5 53.5t-56.5 132.5q0 54 27.5 113t75.5 102q-220 6 -359 149.5t-139 391.5q0 117 34 227.5t97 200.5t163.5 144.5t223.5 54.5t223.5 -54.5t163.5 -144.5t97 -200.5t34 -227.5
q0 -212 -102.5 -348.5t-275.5 -175.5zM260 516q0 -197 93 -297t255 -100t255 100t93 297q0 129 -37.5 235.5t-118 175t-192.5 68.5t-192.5 -68.5t-118 -175t-37.5 -235.5z" />
    <glyph glyph-name="Aringacute" unicode="&#x1fa;" horiz-adv-x="1327" 
d="M1081 0l-141 420h-565l-142 -420h-176l467 1382q-100 54 -100 181q0 95 65 163l160 248h189l-150 -182q88 -9 147.5 -72t59.5 -157q0 -127 -100 -181l467 -1382h-181zM659 1712q-60 0 -101.5 -39.5t-41.5 -105.5q0 -64 39 -98.5t104 -34.5t104.5 34.5t39.5 98.5
q0 66 -41.5 105.5t-102.5 39.5zM426 575h463l-225 670h-13z" />
    <glyph glyph-name="aringacute" unicode="&#x1fb;" horiz-adv-x="1167" 
d="M786 1110q126 -44 181 -151t55 -273v-686h-127l-18 82q-69 -44 -175.5 -73t-199.5 -29q-73 0 -139 19.5t-120.5 58.5t-87 107t-32.5 157q0 166 106.5 258t290.5 92q162 0 338 -51v108q0 130 -68 196t-196 66q-117 0 -183.5 -50t-70.5 -144h-164q3 128 73.5 209.5
t190.5 113.5q-57 54 -57 148q0 90 55 151l168 262h189l-152 -184q89 -8 150 -71t61 -158q0 -103 -68 -158zM762 1272q0 66 -41.5 105.5t-102.5 39.5q-60 0 -101.5 -39.5t-41.5 -105.5q0 -64 39 -98.5t104 -34.5t104.5 34.5t39.5 98.5zM295 332q0 -205 250 -205q163 0 313 63
v310q-164 32 -297 32q-130 0 -198 -45.5t-68 -154.5z" />
    <glyph glyph-name="AEacute" unicode="&#x1fc;" horiz-adv-x="1724" 
d="M1040 1815l-217 -263h-139l168 263h188zM1561 1270h-730l146 -428h555v-164h-500l172 -510h357v-168h-480l-141 420h-565l-142 -420h-176l486 1434h1018v-164zM426 575h463l-225 670h-13z" />
    <glyph glyph-name="aeacute" unicode="&#x1fd;" horiz-adv-x="1964" 
d="M1153 1491l-217 -262h-139l168 262h188zM1849 532h-819v-14q0 -211 98 -309t263 -98q130 0 208 78t101 192h143q-20 -188 -147 -299t-310 -111q-118 0 -221 42.5t-176 123.5q-102 -78 -229.5 -117.5t-239.5 -39.5q-77 0 -145.5 19t-126 58t-91.5 106.5t-34 155.5
q0 166 111.5 259.5t297.5 93.5q156 0 328 -51v65q0 161 -63 233t-203 72q-115 0 -181.5 -50t-70.5 -144h-164q3 167 121 254.5t307 87.5q279 0 363 -215q139 215 395 215q217 0 351 -143.5t134 -403.5v-60zM1364 995q-138 0 -217.5 -89.5t-104.5 -237.5h633
q-3 155 -87.5 241t-223.5 86zM549 125q186 0 366 123q-54 111 -57 252q-160 32 -287 32q-276 0 -276 -200q0 -104 69 -155.5t185 -51.5z" />
    <glyph glyph-name="Oslashacute" unicode="&#x1fe;" horiz-adv-x="1417" 
d="M887 1815l-217 -263h-140l168 263h189zM1106 1266q90 -113 139 -271.5t49 -324.5q0 -159 -46 -291.5t-125 -221t-186 -137.5t-228 -49q-165 0 -301 88l-54 -92l-118 68l65 115q-178 194 -178 520q0 148 39.5 289t111.5 254.5t185.5 183t249.5 69.5q165 0 295 -100l59 100
l119 -67zM299 676q0 -220 94 -367l531 916q-97 90 -215 90q-123 0 -219 -96t-143.5 -240t-47.5 -303zM709 131q178 0 293.5 148.5t115.5 396.5q0 247 -104 432l-522 -905q93 -72 217 -72z" />
    <glyph glyph-name="oslashacute" unicode="&#x1ff;" 
d="M786 1491l-217 -262h-139l168 262h188zM938 1006q91 -88 139.5 -220t48.5 -274q0 -254 -145 -397.5t-373 -143.5q-133 0 -237 49l-64 -108l-104 61l63 113q-84 69 -130 177.5t-46 248.5q0 117 34 227.5t97 200.5t163.5 144.5t223.5 54.5q124 0 234 -60l67 119l105 -61z
M260 516q0 -185 88 -291l420 727q-72 43 -160 43q-112 0 -192.5 -68.5t-118 -175t-37.5 -235.5zM608 119q162 0 255 100t93 297q0 216 -98 350l-414 -714q70 -33 164 -33z" />
    <glyph glyph-name="uni0218" unicode="&#x218;" horiz-adv-x="1239" 
d="M303 492q0 -170 88.5 -265.5t245.5 -95.5q132 0 223.5 75.5t91.5 196.5q0 58 -25.5 104t-69 77t-99.5 57t-118 49t-123.5 47t-117.5 55.5t-99.5 71t-69 98.5t-25.5 132q0 156 114 264t312 108q208 0 312 -113t104 -304h-173q0 266 -243 266q-117 0 -185.5 -47.5
t-68.5 -141.5q0 -54 25.5 -97t69 -71.5t99.5 -52.5t118 -46t123.5 -46.5t117.5 -59t99.5 -78t69 -109.5t25.5 -148q0 -191 -137.5 -319t-349.5 -128q-234 0 -370 142.5t-136 378.5h172zM618 -72q41 0 67 -34t26 -91q0 -137 -156 -213l-20 62q35 14 54 40t17 54
q-29 0 -52.5 23t-23.5 63q0 38 25 67t63 29z" />
    <glyph glyph-name="uni0219" unicode="&#x219;" horiz-adv-x="1038" 
d="M221 381q0 -117 86.5 -189.5t214.5 -72.5q107 0 184.5 51.5t77.5 138.5q0 52 -36 89.5t-93.5 60t-126.5 41.5t-138.5 43.5t-127 57t-93.5 89.5t-36 135q0 136 101.5 225t285.5 89q59 0 111.5 -10.5t101.5 -35.5t84.5 -62.5t56.5 -96t21 -131.5h-156q0 97 -63.5 144.5
t-163.5 47.5q-97 0 -154 -38.5t-57 -110.5q0 -47 28 -83t74 -56.5t105 -40.5t120.5 -35t120.5 -40t105 -55.5t74 -81.5t28 -118q0 -109 -63 -193.5t-162.5 -128t-214.5 -43.5q-56 0 -112 10.5t-118.5 39t-110 72.5t-78.5 118.5t-31 169.5h155zM518 -72q41 0 66.5 -34
t25.5 -91q0 -138 -155 -213l-21 62q36 14 55 40.5t17 53.5q-29 0 -52.5 23t-23.5 63q0 38 25 67t63 29z" />
    <glyph glyph-name="uni021A" unicode="&#x21a;" horiz-adv-x="1327" 
d="M1204 1434v-164h-463v-1270h-168v1270h-450v164h1081zM662 -72q41 0 66.5 -34t25.5 -91q0 -137 -156 -213l-20 62q35 14 54 40t17 54q-29 0 -52.5 23t-23.5 63q0 38 25.5 67t63.5 29z" />
    <glyph glyph-name="uni021B" unicode="&#x21b;" horiz-adv-x="774" 
d="M676 55q-29 -27 -85 -51t-130 -24q-42 0 -79 11.5t-70 37.5t-52.5 74.5t-19.5 115.5v764h-174v127h174v287h163v-287h244v-127h-244v-729q0 -123 107 -123q55 0 127 31zM442 -72q41 0 67 -34t26 -91q0 -137 -156 -213l-21 62q36 14 55 40.5t17 53.5q-29 0 -52.5 23
t-23.5 63q0 38 25 67t63 29z" />
    <glyph glyph-name="uni0232" unicode="&#x232;" 
d="M848 1700v-107h-479v107h479zM995 1434h181l-484 -775v-659h-168v659l-483 775h197l366 -605h17z" />
    <glyph glyph-name="uni0233" unicode="&#x233;" horiz-adv-x="1138" 
d="M809 1376v-106h-479v106h479zM918 1110h172l-435 -1147q-56 -148 -152 -246t-198 -98q-95 0 -186 41l26 113q68 -15 131 -15q68 0 129.5 74t110.5 205l-467 1073h176l371 -887h8z" />
    <glyph glyph-name="uni0237" unicode="&#x237;" horiz-adv-x="481" 
d="M162 1110h164v-1182q0 -155 -69.5 -232t-190.5 -77q-45 0 -93.5 17.5t-83.5 44.5l39 106q62 -20 107 -20q70 0 98.5 41.5t28.5 144.5v1157z" />
    <glyph glyph-name="uni0259" unicode="&#x259;" horiz-adv-x="1202" 
d="M592 1139q100 0 192 -37.5t166 -108t118 -184t44 -254.5q0 -123 -34 -229t-97.5 -185t-162 -124.5t-220.5 -45.5q-108 0 -200.5 36t-161 103.5t-107.5 172.5t-39 235v60h850q-3 112 -33 195.5t-79 131.5t-108 71t-126 23q-60 0 -110 -19.5t-81 -45t-58.5 -67.5t-40 -69.5
t-28.5 -68.5h-157q17 80 55 152t96 130.5t141.5 93t180.5 34.5zM600 111q145 0 230 90t104 252h-670q0 -159 94 -250.5t242 -91.5z" />
    <glyph glyph-name="uni0272" unicode="&#x272;" horiz-adv-x="1220" 
d="M686 1130q85 0 151.5 -23t108.5 -61.5t69.5 -93t38.5 -112.5t11 -125v-715h-164v662q0 78 -11.5 135t-39.5 102.5t-78 68.5t-123 23q-92 0 -179 -37.5t-144 -119.5v-844q0 -155 -69.5 -232t-190.5 -77q-45 0 -94 17t-83 44l39 106q62 -20 107 -20q70 0 98.5 41.5
t28.5 144.5v1096h151l11 -127q139 147 362 147z" />
    <glyph glyph-name="circumflex" unicode="&#x2c6;" 
d="M295 1229l254 262h119l254 -262h-148l-156 166h-20l-156 -166h-147z" />
    <glyph glyph-name="caron" unicode="&#x2c7;" 
d="M295 1491h147l156 -166h20l156 166h148l-254 -262h-119z" />
    <glyph glyph-name="breve" unicode="&#x2d8;" 
d="M430 1491q0 -24 8 -50t26.5 -53t56 -44t87.5 -17t87.5 17t56 44t26.5 53t8 50h136q0 -105 -86 -189.5t-228 -84.5t-227.5 84.5t-85.5 189.5h135z" />
    <glyph glyph-name="dotaccent" unicode="&#x2d9;" 
d="M608 1229q-46 0 -77 31t-31 77t31 77.5t77 31.5t77.5 -31.5t31.5 -77.5t-31.5 -77t-77.5 -31z" />
    <glyph glyph-name="ring" unicode="&#x2da;" 
d="M608 1174q-84 0 -136 52.5t-52 131.5q0 80 52.5 132t135.5 52q84 0 136.5 -52t52.5 -132q0 -79 -52.5 -131.5t-136.5 -52.5zM608 1253q49 0 77 29.5t28 75.5q0 48 -28 78t-77 30q-47 0 -75.5 -30t-28.5 -78q0 -45 28 -75t76 -30z" />
    <glyph glyph-name="ogonek" unicode="&#x2db;" horiz-adv-x="1214" 
d="M614 14l103 -4l14 -10q-70 -43 -104.5 -98.5t-34.5 -114.5q0 -115 110 -115q34 0 64 9v-82q-51 -29 -117 -29q-88 0 -144 53.5t-56 132.5q0 72 44.5 146t120.5 112z" />
    <glyph glyph-name="tilde" unicode="&#x2dc;" horiz-adv-x="1196" 
d="M905 1462q15 -105 -36 -169t-140 -64q-38 0 -70.5 13.5t-55 32.5t-42 38.5t-42 33t-46.5 13.5q-41 0 -65 -31.5t-11 -87.5h-106q-15 105 36 169.5t140 64.5q38 0 70.5 -13.5t55.5 -33t43.5 -39t44 -33t48.5 -13.5q39 0 61 30t9 89h106z" />
    <glyph glyph-name="hungarumlaut" unicode="&#x2dd;" horiz-adv-x="1218" 
d="M449 1491h145l-109 -262h-106zM694 1491h146l-109 -262h-106z" />
    <glyph glyph-name="gravecomb" unicode="&#x300;" horiz-adv-x="0" 
d="M-598 1491l168 -262h-139l-217 262h188z" />
    <glyph glyph-name="acutecomb" unicode="&#x301;" horiz-adv-x="0" 
d="M-618 1491h188l-217 -262h-139z" />
    <glyph glyph-name="uni0302" unicode="&#x302;" horiz-adv-x="0" 
d="M-922 1229l254 262h119l254 -262h-147l-156 166h-20l-156 -166h-148z" />
    <glyph glyph-name="tildecomb" unicode="&#x303;" horiz-adv-x="0" 
d="M-291 1462q15 -105 -36 -169t-140 -64q-38 0 -70.5 13.5t-55 32.5t-42 38.5t-42 33t-46.5 13.5q-41 0 -65 -31.5t-11 -87.5h-106q-15 105 36 169.5t140 64.5q38 0 70.5 -13.5t55.5 -33t43.5 -39t44 -33t48.5 -13.5q39 0 61 30t9 89h106z" />
    <glyph glyph-name="uni0304" unicode="&#x304;" horiz-adv-x="0" 
d="M-848 1376h479v-106h-479v106z" />
    <glyph glyph-name="uni0306" unicode="&#x306;" horiz-adv-x="0" 
d="M-786 1491q0 -24 8 -50t26.5 -53t56 -44t87.5 -17t87.5 17t56 44t26.5 53t8 50h135q0 -105 -85.5 -189.5t-227.5 -84.5t-228 84.5t-86 189.5h136z" />
    <glyph glyph-name="uni0307" unicode="&#x307;" horiz-adv-x="0" 
d="M-608 1229q-46 0 -77.5 31t-31.5 77t31.5 77.5t77.5 31.5t77 -31.5t31 -77.5t-31 -77t-77 -31z" />
    <glyph glyph-name="uni0308" unicode="&#x308;" horiz-adv-x="0" 
d="M-803 1229q-41 0 -70.5 29.5t-29.5 70.5t29.5 71t70.5 30t71 -30t30 -71t-30 -70.5t-71 -29.5zM-414 1229q-41 0 -70.5 29.5t-29.5 70.5t29.5 71t70.5 30t71 -30t30 -71t-30 -70.5t-71 -29.5z" />
    <glyph glyph-name="hookabovecomb" unicode="&#x309;" horiz-adv-x="0" 
d="M-782 1507q70 17 123 17q106 0 159.5 -36.5t53.5 -103.5q0 -78 -63.5 -118.5t-176.5 -57.5v74q56 15 78 35t22 53q0 70 -92 70q-20 0 -104 -13v80z" />
    <glyph glyph-name="uni030A" unicode="&#x30a;" horiz-adv-x="0" 
d="M-608 1174q-84 0 -136.5 52.5t-52.5 131.5q0 80 53 132t136 52q84 0 136 -52t52 -132q0 -79 -52 -131.5t-136 -52.5zM-608 1253q49 0 76.5 29.5t27.5 75.5q0 48 -27.5 78t-76.5 30q-47 0 -76 -30t-29 -78q0 -44 28.5 -74.5t76.5 -30.5z" />
    <glyph glyph-name="uni030B" unicode="&#x30b;" horiz-adv-x="0" 
d="M-770 1491h145l-108 -262h-107zM-524 1491h145l-108 -262h-107z" />
    <glyph glyph-name="uni030C" unicode="&#x30c;" horiz-adv-x="0" 
d="M-922 1491h148l156 -166h20l156 166h147l-254 -262h-119z" />
    <glyph glyph-name="uni0312" unicode="&#x312;" horiz-adv-x="0" 
d="M-328 1227q-36 0 -59 29.5t-23 80.5q0 118 138 187l18 -54q-31 -13 -48 -36.5t-15 -47.5q26 0 46.5 -19.5t20.5 -55.5q0 -34 -22 -59t-56 -25z" />
    <glyph glyph-name="uni031B" unicode="&#x31b;" horiz-adv-x="0" 
d="M-438 1317v-158q0 -110 -54 -163.5t-133 -53.5q-92 0 -166 62v106h41q53 -47 99 -47q57 0 57 63v191h156z" />
    <glyph glyph-name="dotbelowcomb" unicode="&#x323;" horiz-adv-x="0" 
d="M-621 -315q-46 0 -77 31t-31 77t31 77.5t77 31.5t77.5 -31.5t31.5 -77.5t-31.5 -77t-77.5 -31z" />
    <glyph glyph-name="uni0326" unicode="&#x326;" horiz-adv-x="0" 
d="M-616 -72q41 0 66.5 -34t25.5 -91q0 -137 -156 -213l-20 62q35 14 54 40t17 54q-29 0 -52.5 23t-23.5 63q0 38 25.5 67t63.5 29z" />
    <glyph glyph-name="uni0327" unicode="&#x327;" horiz-adv-x="0" 
d="M-606 -115q180 0 180 -135q0 -86 -65 -133t-162 -47q-80 0 -144 22v66q45 -10 113 -10q42 0 72 21t30 57q0 44 -30 62.5t-88 18.5h-25l47 78h72z" />
    <glyph glyph-name="uni0328" unicode="&#x328;" horiz-adv-x="0" 
d="M-600 14l102 -4l15 -10q-70 -43 -105 -98.5t-35 -114.5q0 -53 27 -84t84 -31q33 0 63 9v-82q-51 -29 -116 -29q-88 0 -144.5 53.5t-56.5 132.5q0 71 45 145.5t121 112.5z" />
    <glyph glyph-name="uni0394" unicode="&#x394;" horiz-adv-x="1376" 
d="M766 1434l524 -1287v-147h-1204v147l524 1287h156zM254 147h868l-428 1078h-12z" />
    <glyph glyph-name="uni03A9" unicode="&#x3a9;" horiz-adv-x="1271" 
d="M1186 696q0 -203 -75.5 -351t-199.5 -220l273 22v-147h-490v106q144 43 233 208.5t89 396.5q0 164 -44.5 299.5t-132 218t-202.5 82.5t-203.5 -83.5t-133 -218.5t-44.5 -298q0 -228 87 -392.5t228 -212.5h9v-106h-490v147l272 -22q-125 72 -200.5 220t-75.5 351
q0 201 73 375.5t200.5 278.5t277.5 104q151 0 278 -105t199 -279t72 -374z" />
    <glyph glyph-name="uni03BC" unicode="&#x3bc;" horiz-adv-x="1206" 
d="M1051 295q0 -78 36.5 -114t118.5 -36v-147q-119 2 -191.5 35.5t-103.5 111.5q-70 -87 -160.5 -130.5t-179.5 -43.5q-155 0 -260 88v-428h-164v1479h164v-657q0 -79 12.5 -137.5t41.5 -106.5t84 -73t135 -25q77 0 161.5 38.5t141.5 116.5v844h164v-815z" />
    <glyph glyph-name="pi" unicode="&#x3c0;" horiz-adv-x="1327" 
d="M1190 162l39 -107q-29 -27 -85 -51t-130 -24q-42 0 -79 11.5t-70 37.5t-52.5 74.5t-19.5 115.5v764h-365v-983h-168v983h-194v127h1134v-127h-244v-729q0 -123 107 -123q55 0 127 31z" />
    <glyph glyph-name="Wgrave" unicode="&#x1e80;" horiz-adv-x="2029" 
d="M1194 1552h-139l-217 263h188zM1794 1434h170l-397 -1434h-213l-326 1139h-22l-326 -1139h-213l-401 1434h182l325 -1223h11l354 1223h162l354 -1223h14z" />
    <glyph glyph-name="wgrave" unicode="&#x1e81;" horiz-adv-x="1601" 
d="M979 1229h-139l-217 262h188zM1368 1110h168l-322 -1110h-172l-235 866h-12l-236 -866h-172l-321 1110h172l235 -909h4l250 909h152l245 -909h6z" />
    <glyph glyph-name="Wacute" unicode="&#x1e82;" horiz-adv-x="2029" 
d="M1194 1815l-217 -263h-139l168 263h188zM1794 1434h170l-397 -1434h-213l-326 1139h-22l-326 -1139h-213l-401 1434h182l325 -1223h11l354 1223h162l354 -1223h14z" />
    <glyph glyph-name="wacute" unicode="&#x1e83;" horiz-adv-x="1601" 
d="M979 1491l-217 -262h-139l168 262h188zM1368 1110h168l-322 -1110h-172l-235 866h-12l-236 -866h-172l-321 1110h172l235 -909h4l250 909h152l245 -909h6z" />
    <glyph glyph-name="Wdieresis" unicode="&#x1e84;" horiz-adv-x="2029" 
d="M821 1552q-41 0 -70.5 30t-29.5 71t29.5 70.5t70.5 29.5t71 -29.5t30 -70.5t-30 -71t-71 -30zM1210 1552q-41 0 -70.5 30t-29.5 71t29.5 70.5t70.5 29.5t71 -29.5t30 -70.5t-30 -71t-71 -30zM1794 1434h170l-397 -1434h-213l-326 1139h-22l-326 -1139h-213l-401 1434h182
l325 -1223h11l354 1223h162l354 -1223h14z" />
    <glyph glyph-name="wdieresis" unicode="&#x1e85;" horiz-adv-x="1601" 
d="M606 1229q-41 0 -70.5 29.5t-29.5 70.5t29.5 71t70.5 30t71 -30t30 -71t-30 -70.5t-71 -29.5zM995 1229q-41 0 -70.5 29.5t-29.5 70.5t29.5 71t70.5 30t71 -30t30 -71t-30 -70.5t-71 -29.5zM1368 1110h168l-322 -1110h-172l-235 866h-12l-236 -866h-172l-321 1110h172
l235 -909h4l250 909h152l245 -909h6z" />
    <glyph glyph-name="Germandbls" unicode="&#x1e9e;" horiz-adv-x="1380" 
d="M924 856q57 -26 99.5 -49.5t91 -62.5t79.5 -82t51.5 -106.5t20.5 -137.5q0 -201 -131 -322t-332 -121q-205 0 -334 115l72 131q137 -90 274 -90q116 0 197.5 71t81.5 193q0 109 -78 190t-260 138v135l217 369q-176 88 -357 88q-41 0 -73.5 -5.5t-65.5 -19.5t-56.5 -40
t-42.5 -64.5t-28.5 -96t-9.5 -131.5v-958h-168v958q0 116 22.5 205t61.5 145.5t95.5 92.5t119.5 50.5t139 14.5q174 0 322.5 -58t245.5 -132z" />
    <glyph glyph-name="uni1EA0" unicode="&#x1ea0;" horiz-adv-x="1318" 
d="M1262 0h-181l-141 420h-565l-142 -420h-176l486 1434h233zM426 575h463l-225 670h-13zM653 -98q46 0 77.5 -31.5t31.5 -77.5t-31.5 -77t-77.5 -31t-77 31t-31 77t31 77.5t77 31.5z" />
    <glyph glyph-name="uni1EA1" unicode="&#x1ea1;" horiz-adv-x="1177" 
d="M594 1139q119 0 203.5 -32t133 -93.5t70 -141.5t21.5 -186v-686h-127l-18 82q-69 -44 -175.5 -73t-199.5 -29q-73 0 -139 19.5t-120.5 58.5t-87 107t-32.5 157q0 166 106.5 258t290.5 92q162 0 338 -51v108q0 130 -68 196t-196 66q-117 0 -183.5 -50t-70.5 -144h-164
q3 166 120 254t298 88zM295 332q0 -205 250 -205q163 0 313 63v310q-164 32 -297 32q-130 0 -198 -45.5t-68 -154.5zM553 -98q46 0 77.5 -31.5t31.5 -77.5t-31.5 -77t-77.5 -31t-77.5 31t-31.5 77t31.5 77.5t77.5 31.5z" />
    <glyph glyph-name="uni1EA2" unicode="&#x1ea2;" horiz-adv-x="1318" 
d="M698 1694q0 69 -92 69q-26 0 -104 -12v80q66 16 123 16q106 0 159.5 -36t53.5 -103q0 -78 -63.5 -118.5t-176.5 -57.5v74q56 15 78 35t22 53zM1081 0l-141 420h-565l-142 -420h-176l486 1434h233l486 -1434h-181zM426 575h463l-225 670h-13z" />
    <glyph glyph-name="uni1EA3" unicode="&#x1ea3;" horiz-adv-x="1177" 
d="M598 1370q0 70 -92 70q-20 0 -105 -13v80q70 17 123 17q106 0 159.5 -36.5t53.5 -103.5q0 -78 -63.5 -118.5t-175.5 -57.5v74q56 15 78 35t22 53zM594 1139q119 0 203.5 -32t133 -93.5t70 -141.5t21.5 -186v-686h-127l-18 82q-69 -44 -175.5 -73t-199.5 -29
q-73 0 -139 19.5t-120.5 58.5t-87 107t-32.5 157q0 166 106.5 258t290.5 92q162 0 338 -51v108q0 130 -68 196t-196 66q-117 0 -183.5 -50t-70.5 -144h-164q3 166 120 254t298 88zM295 332q0 -205 250 -205q163 0 313 63v310q-164 32 -297 32q-130 0 -198 -45.5t-68 -154.5z
" />
    <glyph glyph-name="uni1EA4" unicode="&#x1ea4;" horiz-adv-x="1318" 
d="M838 2138l-217 -262h-140l168 262h189zM649 1718l-155 -166h-148l254 263h119l254 -263h-148l-155 166h-21zM1081 0l-141 420h-565l-142 -420h-176l486 1434h233l486 -1434h-181zM426 575h463l-225 670h-13z" />
    <glyph glyph-name="uni1EA5" unicode="&#x1ea5;" horiz-adv-x="1177" 
d="M737 1815l-217 -263h-139l168 263h188zM549 1395l-156 -166h-147l254 262h118l254 -262h-147l-156 166h-20zM594 1139q119 0 203.5 -32t133 -93.5t70 -141.5t21.5 -186v-686h-127l-18 82q-69 -44 -175.5 -73t-199.5 -29q-73 0 -139 19.5t-120.5 58.5t-87 107t-32.5 157
q0 166 106.5 258t290.5 92q162 0 338 -51v108q0 130 -68 196t-196 66q-117 0 -183.5 -50t-70.5 -144h-164q3 166 120 254t298 88zM295 332q0 -205 250 -205q163 0 313 63v310q-164 32 -297 32q-130 0 -198 -45.5t-68 -154.5z" />
    <glyph glyph-name="uni1EA6" unicode="&#x1ea6;" horiz-adv-x="1318" 
d="M838 1876h-140l-217 262h189zM649 1718l-155 -166h-148l254 263h119l254 -263h-148l-155 166h-21zM1081 0l-141 420h-565l-142 -420h-176l486 1434h233l486 -1434h-181zM426 575h463l-225 670h-13z" />
    <glyph glyph-name="uni1EA7" unicode="&#x1ea7;" horiz-adv-x="1177" 
d="M737 1552h-139l-217 263h188zM549 1395l-156 -166h-147l254 262h118l254 -262h-147l-156 166h-20zM594 1139q119 0 203.5 -32t133 -93.5t70 -141.5t21.5 -186v-686h-127l-18 82q-69 -44 -175.5 -73t-199.5 -29q-73 0 -139 19.5t-120.5 58.5t-87 107t-32.5 157
q0 166 106.5 258t290.5 92q162 0 338 -51v108q0 130 -68 196t-196 66q-117 0 -183.5 -50t-70.5 -144h-164q3 166 120 254t298 88zM295 332q0 -205 250 -205q163 0 313 63v310q-164 32 -297 32q-130 0 -198 -45.5t-68 -154.5z" />
    <glyph glyph-name="uni1EA8" unicode="&#x1ea8;" horiz-adv-x="1318" 
d="M600 1815q56 15 78 35t22 53q0 69 -92 69q-26 0 -104 -12v80q66 16 123 16q106 0 159.5 -36t53.5 -103q0 -89 -90 -133l223 -232h-148l-155 166h-21l-155 -166h-148zM1081 0l-141 420h-565l-142 -420h-176l486 1434h233l486 -1434h-181zM426 575h463l-225 670h-13z" />
    <glyph glyph-name="uni1EA9" unicode="&#x1ea9;" horiz-adv-x="1177" 
d="M500 1491q56 15 78 35t22 53q0 70 -92 70q-20 0 -105 -13v80q70 17 123 17q106 0 159.5 -36.5t53.5 -103.5q0 -89 -90 -133l223 -231h-147l-156 166h-20l-156 -166h-147zM594 1139q119 0 203.5 -32t133 -93.5t70 -141.5t21.5 -186v-686h-127l-18 82q-69 -44 -175.5 -73
t-199.5 -29q-73 0 -139 19.5t-120.5 58.5t-87 107t-32.5 157q0 166 106.5 258t290.5 92q162 0 338 -51v108q0 130 -68 196t-196 66q-117 0 -183.5 -50t-70.5 -144h-164q3 166 120 254t298 88zM295 332q0 -205 250 -205q163 0 313 63v310q-164 32 -297 32q-130 0 -198 -45.5
t-68 -154.5z" />
    <glyph glyph-name="uni1EAA" unicode="&#x1eaa;" horiz-adv-x="1318" 
d="M459 1888h-107q-15 105 36 169.5t140 64.5q46 0 86 -20.5t63.5 -45t53.5 -45t60 -20.5q39 0 60.5 29.5t8.5 88.5h107q15 -105 -36 -169t-140 -64q-38 0 -70.5 13.5t-55 33t-42 38.5t-42 32.5t-46.5 13.5q-41 0 -65 -31.5t-11 -87.5zM649 1718l-155 -166h-148l254 263h119
l254 -263h-148l-155 166h-21zM1081 0l-141 420h-565l-142 -420h-176l486 1434h233l486 -1434h-181zM426 575h463l-225 670h-13z" />
    <glyph glyph-name="uni1EAB" unicode="&#x1eab;" horiz-adv-x="1177" 
d="M358 1565h-106q-15 105 36 169t140 64q38 0 70.5 -13.5t55.5 -33t43.5 -38.5t44 -32.5t48.5 -13.5q39 0 61 30t9 89h106q15 -105 -36 -169.5t-140 -64.5q-38 0 -70.5 13.5t-55 33t-42 38.5t-42 32.5t-46.5 13.5q-41 0 -65 -31t-11 -87zM549 1395l-156 -166h-147l254 262
h118l254 -262h-147l-156 166h-20zM594 1139q119 0 203.5 -32t133 -93.5t70 -141.5t21.5 -186v-686h-127l-18 82q-69 -44 -175.5 -73t-199.5 -29q-73 0 -139 19.5t-120.5 58.5t-87 107t-32.5 157q0 166 106.5 258t290.5 92q162 0 338 -51v108q0 130 -68 196t-196 66
q-117 0 -183.5 -50t-70.5 -144h-164q3 166 120 254t298 88zM295 332q0 -205 250 -205q163 0 313 63v310q-164 32 -297 32q-130 0 -198 -45.5t-68 -154.5z" />
    <glyph glyph-name="uni1EAC" unicode="&#x1eac;" horiz-adv-x="1318" 
d="M649 1718l-155 -166h-148l254 263h119l254 -263h-148l-155 166h-21zM1262 0h-181l-141 420h-565l-142 -420h-176l486 1434h233zM426 575h463l-225 670h-13zM653 -98q46 0 77.5 -31.5t31.5 -77.5t-31.5 -77t-77.5 -31t-77 31t-31 77t31 77.5t77 31.5z" />
    <glyph glyph-name="uni1EAD" unicode="&#x1ead;" horiz-adv-x="1177" 
d="M549 1395l-156 -166h-147l254 262h118l254 -262h-147l-156 166h-20zM594 1139q119 0 203.5 -32t133 -93.5t70 -141.5t21.5 -186v-686h-127l-18 82q-69 -44 -175.5 -73t-199.5 -29q-73 0 -139 19.5t-120.5 58.5t-87 107t-32.5 157q0 166 106.5 258t290.5 92q162 0 338 -51
v108q0 130 -68 196t-196 66q-117 0 -183.5 -50t-70.5 -144h-164q3 166 120 254t298 88zM295 332q0 -205 250 -205q163 0 313 63v310q-164 32 -297 32q-130 0 -198 -45.5t-68 -154.5zM553 -98q46 0 77.5 -31.5t31.5 -77.5t-31.5 -77t-77.5 -31t-77.5 31t-31.5 77t31.5 77.5
t77.5 31.5z" />
    <glyph glyph-name="uni1EAE" unicode="&#x1eae;" horiz-adv-x="1318" 
d="M838 2114l-217 -263h-140l168 263h189zM659 1540q-72 0 -133 24.5t-99.5 64.5t-59.5 88.5t-21 97.5h135q0 -24 8 -50t26.5 -53t56 -44t87.5 -17t87.5 17t56 44t27 53t8.5 50h135q0 -105 -86 -190t-228 -85zM1081 0l-141 420h-565l-142 -420h-176l486 1434h233l486 -1434
h-181zM426 575h463l-225 670h-13z" />
    <glyph glyph-name="uni1EAF" unicode="&#x1eaf;" horiz-adv-x="1177" 
d="M737 1790l-217 -262h-139l168 262h188zM559 1217q-142 0 -227.5 84.5t-85.5 189.5h135q0 -24 8 -50t26.5 -53t56 -44t87.5 -17t87.5 17t56 44t26.5 53t8 50h135q0 -105 -85.5 -189.5t-227.5 -84.5zM594 1139q119 0 203.5 -32t133 -93.5t70 -141.5t21.5 -186v-686h-127
l-18 82q-69 -44 -175.5 -73t-199.5 -29q-73 0 -139 19.5t-120.5 58.5t-87 107t-32.5 157q0 166 106.5 258t290.5 92q162 0 338 -51v108q0 130 -68 196t-196 66q-117 0 -183.5 -50t-70.5 -144h-164q3 166 120 254t298 88zM295 332q0 -205 250 -205q163 0 313 63v310
q-164 32 -297 32q-130 0 -198 -45.5t-68 -154.5z" />
    <glyph glyph-name="uni1EB0" unicode="&#x1eb0;" horiz-adv-x="1318" 
d="M838 1851h-140l-217 263h189zM659 1540q-72 0 -133 24.5t-99.5 64.5t-59.5 88.5t-21 97.5h135q0 -24 8 -50t26.5 -53t56 -44t87.5 -17t87.5 17t56 44t27 53t8.5 50h135q0 -105 -86 -190t-228 -85zM1081 0l-141 420h-565l-142 -420h-176l486 1434h233l486 -1434h-181z
M426 575h463l-225 670h-13z" />
    <glyph glyph-name="uni1EB1" unicode="&#x1eb1;" horiz-adv-x="1177" 
d="M737 1528h-139l-217 262h188zM559 1217q-142 0 -227.5 84.5t-85.5 189.5h135q0 -24 8 -50t26.5 -53t56 -44t87.5 -17t87.5 17t56 44t26.5 53t8 50h135q0 -105 -85.5 -189.5t-227.5 -84.5zM594 1139q119 0 203.5 -32t133 -93.5t70 -141.5t21.5 -186v-686h-127l-18 82
q-69 -44 -175.5 -73t-199.5 -29q-73 0 -139 19.5t-120.5 58.5t-87 107t-32.5 157q0 166 106.5 258t290.5 92q162 0 338 -51v108q0 130 -68 196t-196 66q-117 0 -183.5 -50t-70.5 -144h-164q3 166 120 254t298 88zM295 332q0 -205 250 -205q163 0 313 63v310q-164 32 -297 32
q-130 0 -198 -45.5t-68 -154.5z" />
    <glyph glyph-name="uni1EB2" unicode="&#x1eb2;" horiz-adv-x="1318" 
d="M688 1956q0 69 -92 69q-26 0 -104 -12v80q66 16 122 16q106 0 159.5 -36t53.5 -103q0 -78 -63.5 -118.5t-175.5 -57.5v74q56 15 78 35t22 53zM659 1540q-72 0 -133 24.5t-99.5 64.5t-59.5 88.5t-21 97.5h135q0 -24 8 -50t26.5 -53t56 -44t87.5 -17t87.5 17t56 44t27 53
t8.5 50h135q0 -105 -86 -190t-228 -85zM1081 0l-141 420h-565l-142 -420h-176l486 1434h233l486 -1434h-181zM426 575h463l-225 670h-13z" />
    <glyph glyph-name="uni1EB3" unicode="&#x1eb3;" horiz-adv-x="1177" 
d="M588 1632q0 70 -92 70q-27 0 -105 -12v79q70 17 123 17q106 0 159.5 -36t53.5 -103q0 -78 -64 -119t-176 -58v74q56 15 78.5 35t22.5 53zM559 1217q-142 0 -227.5 84.5t-85.5 189.5h135q0 -24 8 -50t26.5 -53t56 -44t87.5 -17t87.5 17t56 44t26.5 53t8 50h135
q0 -105 -85.5 -189.5t-227.5 -84.5zM594 1139q119 0 203.5 -32t133 -93.5t70 -141.5t21.5 -186v-686h-127l-18 82q-69 -44 -175.5 -73t-199.5 -29q-73 0 -139 19.5t-120.5 58.5t-87 107t-32.5 157q0 166 106.5 258t290.5 92q162 0 338 -51v108q0 130 -68 196t-196 66
q-117 0 -183.5 -50t-70.5 -144h-164q3 166 120 254t298 88zM295 332q0 -205 250 -205q163 0 313 63v310q-164 32 -297 32q-130 0 -198 -45.5t-68 -154.5z" />
    <glyph glyph-name="uni1EB4" unicode="&#x1eb4;" horiz-adv-x="1318" 
d="M459 1864h-107q-15 105 36 169t140 64q46 0 86 -20.5t63.5 -45t53.5 -45t60 -20.5q39 0 60.5 30t8.5 89h107q15 -105 -36 -169.5t-140 -64.5q-38 0 -70.5 13.5t-55 32.5t-42 38.5t-42 33t-46.5 13.5q-41 0 -65 -31t-11 -87zM659 1540q-72 0 -133 24.5t-99.5 64.5
t-59.5 88.5t-21 97.5h135q0 -24 8 -50t26.5 -53t56 -44t87.5 -17t87.5 17t56 44t27 53t8.5 50h135q0 -105 -86 -190t-228 -85zM1081 0l-141 420h-565l-142 -420h-176l486 1434h233l486 -1434h-181zM426 575h463l-225 670h-13z" />
    <glyph glyph-name="uni1EB5" unicode="&#x1eb5;" horiz-adv-x="1177" 
d="M358 1540h-106q-15 105 36 169.5t140 64.5q38 0 70.5 -13.5t55.5 -33t43.5 -39t44 -33t48.5 -13.5q39 0 61 30t9 89h106q15 -105 -36 -169t-140 -64q-38 0 -70.5 13.5t-55 33t-42 38.5t-42 32.5t-46.5 13.5q-41 0 -65 -31.5t-11 -87.5zM559 1217q-142 0 -227.5 84.5
t-85.5 189.5h135q0 -24 8 -50t26.5 -53t56 -44t87.5 -17t87.5 17t56 44t26.5 53t8 50h135q0 -105 -85.5 -189.5t-227.5 -84.5zM594 1139q119 0 203.5 -32t133 -93.5t70 -141.5t21.5 -186v-686h-127l-18 82q-69 -44 -175.5 -73t-199.5 -29q-73 0 -139 19.5t-120.5 58.5
t-87 107t-32.5 157q0 166 106.5 258t290.5 92q162 0 338 -51v108q0 130 -68 196t-196 66q-117 0 -183.5 -50t-70.5 -144h-164q3 166 120 254t298 88zM295 332q0 -205 250 -205q163 0 313 63v310q-164 32 -297 32q-130 0 -198 -45.5t-68 -154.5z" />
    <glyph glyph-name="uni1EB6" unicode="&#x1eb6;" horiz-adv-x="1318" 
d="M659 1540q-72 0 -133 24.5t-99.5 64.5t-59.5 88.5t-21 97.5h135q0 -24 8 -50t26.5 -53t56 -44t87.5 -17t87.5 17t56 44t27 53t8.5 50h135q0 -105 -86 -190t-228 -85zM1262 0h-181l-141 420h-565l-142 -420h-176l486 1434h233zM426 575h463l-225 670h-13zM653 -98
q46 0 77.5 -31.5t31.5 -77.5t-31.5 -77t-77.5 -31t-77 31t-31 77t31 77.5t77 31.5z" />
    <glyph glyph-name="uni1EB7" unicode="&#x1eb7;" horiz-adv-x="1177" 
d="M559 1217q-142 0 -227.5 84.5t-85.5 189.5h135q0 -24 8 -50t26.5 -53t56 -44t87.5 -17t87.5 17t56 44t26.5 53t8 50h135q0 -105 -85.5 -189.5t-227.5 -84.5zM594 1139q119 0 203.5 -32t133 -93.5t70 -141.5t21.5 -186v-686h-127l-18 82q-69 -44 -175.5 -73t-199.5 -29
q-73 0 -139 19.5t-120.5 58.5t-87 107t-32.5 157q0 166 106.5 258t290.5 92q162 0 338 -51v108q0 130 -68 196t-196 66q-117 0 -183.5 -50t-70.5 -144h-164q3 166 120 254t298 88zM295 332q0 -205 250 -205q163 0 313 63v310q-164 32 -297 32q-130 0 -198 -45.5t-68 -154.5z
M553 -98q46 0 77.5 -31.5t31.5 -77.5t-31.5 -77t-77.5 -31t-77.5 31t-31.5 77t31.5 77.5t77.5 31.5z" />
    <glyph glyph-name="uni1EB8" unicode="&#x1eb8;" horiz-adv-x="1130" 
d="M967 1270h-627v-428h598v-164h-598v-510h627v-168h-795v1434h795v-164zM559 -98q46 0 77.5 -31.5t31.5 -77.5t-31.5 -77t-77.5 -31t-77 31t-31 77t31 77.5t77 31.5z" />
    <glyph glyph-name="uni1EB9" unicode="&#x1eb9;" horiz-adv-x="1196" 
d="M1081 532h-819v-14q0 -211 98 -309t263 -98q130 0 208 78t101 192h143q-20 -188 -147 -299t-310 -111q-108 0 -203 36t-167.5 103t-115 170.5t-42.5 229.5q0 95 18.5 184t58.5 170.5t98 142t143.5 96.5t187.5 36q217 0 351 -143.5t134 -403.5v-60zM596 995
q-138 0 -217.5 -89.5t-104.5 -237.5h633q-3 155 -87.5 241t-223.5 86zM592 -98q46 0 77 -31.5t31 -77.5t-31 -77t-77 -31t-77.5 31t-31.5 77t31.5 77.5t77.5 31.5z" />
    <glyph glyph-name="uni1EBA" unicode="&#x1eba;" horiz-adv-x="1130" 
d="M604 1694q0 69 -92 69q-26 0 -104 -12v80q66 16 122 16q106 0 159.5 -36t53.5 -103q0 -78 -63.5 -118.5t-175.5 -57.5v74q56 15 78 35t22 53zM967 1270h-627v-428h598v-164h-598v-510h627v-168h-795v1434h795v-164z" />
    <glyph glyph-name="uni1EBB" unicode="&#x1ebb;" horiz-adv-x="1196" 
d="M637 1370q0 70 -92 70q-21 0 -105 -13v80q70 17 123 17q106 0 159.5 -36.5t53.5 -103.5q0 -78 -63.5 -118.5t-175.5 -57.5v74q56 15 78 35t22 53zM1081 532h-819v-14q0 -211 98 -309t263 -98q130 0 208 78t101 192h143q-20 -188 -147 -299t-310 -111q-108 0 -203 36
t-167.5 103t-115 170.5t-42.5 229.5q0 95 18.5 184t58.5 170.5t98 142t143.5 96.5t187.5 36q217 0 351 -143.5t134 -403.5v-60zM596 995q-138 0 -217.5 -89.5t-104.5 -237.5h633q-3 155 -87.5 241t-223.5 86z" />
    <glyph glyph-name="uni1EBC" unicode="&#x1ebc;" horiz-adv-x="1130" 
d="M365 1565h-107q-15 105 36 169t140 64q38 0 70.5 -13.5t55.5 -33t43.5 -38.5t44 -32.5t48.5 -13.5q39 0 61 30t9 89h106q15 -105 -36 -169.5t-140 -64.5q-38 0 -70.5 13.5t-55 33t-42 38.5t-42 32.5t-46.5 13.5q-41 0 -64.5 -31t-10.5 -87zM967 1270h-627v-428h598v-164
h-598v-510h627v-168h-795v1434h795v-164z" />
    <glyph glyph-name="uni1EBD" unicode="&#x1ebd;" horiz-adv-x="1196" 
d="M397 1241h-106q-15 105 36 169.5t140 64.5q38 0 70.5 -13.5t55.5 -33t43.5 -39t44 -33t48.5 -13.5q39 0 61 30t9 89h106q15 -105 -36 -169t-140 -64q-38 0 -70.5 13.5t-55 32.5t-42 38.5t-42 33t-46.5 13.5q-41 0 -65 -31.5t-11 -87.5zM1081 532h-819v-14q0 -211 98 -309
t263 -98q130 0 208 78t101 192h143q-20 -188 -147 -299t-310 -111q-108 0 -203 36t-167.5 103t-115 170.5t-42.5 229.5q0 95 18.5 184t58.5 170.5t98 142t143.5 96.5t187.5 36q217 0 351 -143.5t134 -403.5v-60zM596 995q-138 0 -217.5 -89.5t-104.5 -237.5h633
q-3 155 -87.5 241t-223.5 86z" />
    <glyph glyph-name="uni1EBE" unicode="&#x1ebe;" horiz-adv-x="1130" 
d="M743 2138l-217 -262h-139l168 262h188zM555 1718l-156 -166h-147l254 263h119l254 -263h-148l-156 166h-20zM967 1270h-627v-428h598v-164h-598v-510h627v-168h-795v1434h795v-164z" />
    <glyph glyph-name="uni1EBF" unicode="&#x1ebf;" horiz-adv-x="1196" 
d="M776 1815l-217 -263h-139l168 263h188zM588 1395l-156 -166h-147l254 262h118l254 -262h-147l-156 166h-20zM1081 532h-819v-14q0 -211 98 -309t263 -98q130 0 208 78t101 192h143q-20 -188 -147 -299t-310 -111q-108 0 -203 36t-167.5 103t-115 170.5t-42.5 229.5
q0 95 18.5 184t58.5 170.5t98 142t143.5 96.5t187.5 36q217 0 351 -143.5t134 -403.5v-60zM596 995q-138 0 -217.5 -89.5t-104.5 -237.5h633q-3 155 -87.5 241t-223.5 86z" />
    <glyph glyph-name="uni1EC0" unicode="&#x1ec0;" horiz-adv-x="1130" 
d="M743 1876h-139l-217 262h188zM555 1718l-156 -166h-147l254 263h119l254 -263h-148l-156 166h-20zM967 1270h-627v-428h598v-164h-598v-510h627v-168h-795v1434h795v-164z" />
    <glyph glyph-name="uni1EC1" unicode="&#x1ec1;" horiz-adv-x="1196" 
d="M776 1552h-139l-217 263h188zM588 1395l-156 -166h-147l254 262h118l254 -262h-147l-156 166h-20zM1081 532h-819v-14q0 -211 98 -309t263 -98q130 0 208 78t101 192h143q-20 -188 -147 -299t-310 -111q-108 0 -203 36t-167.5 103t-115 170.5t-42.5 229.5q0 95 18.5 184
t58.5 170.5t98 142t143.5 96.5t187.5 36q217 0 351 -143.5t134 -403.5v-60zM596 995q-138 0 -217.5 -89.5t-104.5 -237.5h633q-3 155 -87.5 241t-223.5 86z" />
    <glyph glyph-name="uni1EC2" unicode="&#x1ec2;" horiz-adv-x="1130" 
d="M506 1815q56 15 78 35t22 53q0 69 -92 69q-26 0 -104 -12v80q66 16 122 16q106 0 159.5 -36t53.5 -103q0 -89 -90 -133l224 -232h-148l-156 166h-20l-156 -166h-147zM967 1270h-627v-428h598v-164h-598v-510h627v-168h-795v1434h795v-164z" />
    <glyph glyph-name="uni1EC3" unicode="&#x1ec3;" horiz-adv-x="1196" 
d="M539 1491q56 15 78 35t22 53q0 70 -92 70q-21 0 -105 -13v80q70 17 123 17q106 0 159.5 -36.5t53.5 -103.5q0 -89 -90 -133l223 -231h-147l-156 166h-20l-156 -166h-147zM1081 532h-819v-14q0 -211 98 -309t263 -98q130 0 208 78t101 192h143q-20 -188 -147 -299
t-310 -111q-108 0 -203 36t-167.5 103t-115 170.5t-42.5 229.5q0 95 18.5 184t58.5 170.5t98 142t143.5 96.5t187.5 36q217 0 351 -143.5t134 -403.5v-60zM596 995q-138 0 -217.5 -89.5t-104.5 -237.5h633q-3 155 -87.5 241t-223.5 86z" />
    <glyph glyph-name="uni1EC4" unicode="&#x1ec4;" horiz-adv-x="1130" 
d="M365 1888h-107q-15 105 36 169.5t140 64.5q38 0 70.5 -13.5t55.5 -33t43.5 -38.5t44 -32.5t48.5 -13.5q39 0 61 29.5t9 88.5h106q15 -105 -36 -169t-140 -64q-38 0 -70.5 13.5t-55 33t-42 38.5t-42 32.5t-46.5 13.5q-40 0 -64 -31.5t-11 -87.5zM555 1718l-156 -166h-147
l254 263h119l254 -263h-148l-156 166h-20zM967 1270h-627v-428h598v-164h-598v-510h627v-168h-795v1434h795v-164z" />
    <glyph glyph-name="uni1EC5" unicode="&#x1ec5;" horiz-adv-x="1196" 
d="M397 1565h-106q-15 105 36 169t140 64q38 0 70.5 -13.5t55.5 -33t43.5 -38.5t44 -32.5t48.5 -13.5q39 0 61 30t9 89h106q15 -105 -36 -169.5t-140 -64.5q-38 0 -70.5 13.5t-55 33t-42 38.5t-42 32.5t-46.5 13.5q-41 0 -65 -31t-11 -87zM588 1395l-156 -166h-147l254 262
h118l254 -262h-147l-156 166h-20zM1081 532h-819v-14q0 -211 98 -309t263 -98q130 0 208 78t101 192h143q-20 -188 -147 -299t-310 -111q-108 0 -203 36t-167.5 103t-115 170.5t-42.5 229.5q0 95 18.5 184t58.5 170.5t98 142t143.5 96.5t187.5 36q217 0 351 -143.5
t134 -403.5v-60zM596 995q-138 0 -217.5 -89.5t-104.5 -237.5h633q-3 155 -87.5 241t-223.5 86z" />
    <glyph glyph-name="uni1EC6" unicode="&#x1ec6;" horiz-adv-x="1130" 
d="M555 1718l-156 -166h-147l254 263h119l254 -263h-148l-156 166h-20zM967 1270h-627v-428h598v-164h-598v-510h627v-168h-795v1434h795v-164zM559 -98q46 0 77.5 -31.5t31.5 -77.5t-31.5 -77t-77.5 -31t-77 31t-31 77t31 77.5t77 31.5z" />
    <glyph glyph-name="uni1EC7" unicode="&#x1ec7;" horiz-adv-x="1196" 
d="M588 1395l-156 -166h-147l254 262h118l254 -262h-147l-156 166h-20zM1081 532h-819v-14q0 -211 98 -309t263 -98q130 0 208 78t101 192h143q-20 -188 -147 -299t-310 -111q-108 0 -203 36t-167.5 103t-115 170.5t-42.5 229.5q0 95 18.5 184t58.5 170.5t98 142t143.5 96.5
t187.5 36q217 0 351 -143.5t134 -403.5v-60zM596 995q-138 0 -217.5 -89.5t-104.5 -237.5h633q-3 155 -87.5 241t-223.5 86zM592 -98q46 0 77 -31.5t31 -77.5t-31 -77t-77 -31t-77.5 31t-31.5 77t31.5 77.5t77.5 31.5z" />
    <glyph glyph-name="uni1EC8" unicode="&#x1ec8;" horiz-adv-x="528" 
d="M106 1831q66 16 123 16q106 0 159.5 -36t53.5 -103q0 -78 -63.5 -118.5t-175.5 -57.5v74q56 15 78 35t22 53q0 69 -92 69q-27 0 -105 -12v80zM180 1434h168v-1434h-168v1434z" />
    <glyph glyph-name="uni1EC9" unicode="&#x1ec9;" horiz-adv-x="475" 
d="M80 1507q70 17 123 17q106 0 159.5 -36.5t53.5 -103.5q0 -78 -63.5 -118.5t-176.5 -57.5v74q56 15 78 35t22 53q0 70 -92 70q-20 0 -104 -13v80zM156 1110h163v-1110h-163v1110z" />
    <glyph glyph-name="uni1ECA" unicode="&#x1eca;" horiz-adv-x="528" 
d="M180 1434h168v-1434h-168v1434zM258 -315q-46 0 -77 31t-31 77t31 77.5t77 31.5t77.5 -31.5t31.5 -77.5t-31.5 -77t-77.5 -31z" />
    <glyph glyph-name="uni1ECB" unicode="&#x1ecb;" horiz-adv-x="483" 
d="M135 1407q0 54 30 95.5t77 41.5t76.5 -41.5t29.5 -95.5q0 -52 -30 -80.5t-76 -28.5q-45 0 -76 28.5t-31 80.5zM160 1110h164v-1110h-164v1110zM236 -315q-46 0 -77.5 31t-31.5 77t31.5 77.5t77.5 31.5t77 -31.5t31 -77.5t-31 -77t-77 -31z" />
    <glyph glyph-name="uni1ECC" unicode="&#x1ecc;" horiz-adv-x="1417" 
d="M123 670q0 148 39.5 289t111.5 254.5t185.5 183t249.5 69.5q110 0 205.5 -45.5t164 -123t118 -179.5t73.5 -216t24 -232q0 -159 -46 -291.5t-125 -221t-186 -137.5t-228 -49t-228 49t-186.5 137.5t-125.5 221t-46 291.5zM299 676q0 -247 116 -396t294 -149t293.5 148.5
t115.5 396.5q0 118 -28 231.5t-79 204.5t-130 147t-172 56q-123 0 -219 -96t-143.5 -240t-47.5 -303zM702 -315q-46 0 -77 31t-31 77t31 77.5t77 31.5t77.5 -31.5t31.5 -77.5t-31.5 -77t-77.5 -31z" />
    <glyph glyph-name="uni1ECD" unicode="&#x1ecd;" 
d="M90 512q0 117 34 227.5t97 200.5t163.5 144.5t223.5 54.5t223.5 -54.5t163.5 -144.5t97 -200.5t34 -227.5q0 -254 -145 -397.5t-373 -143.5t-373 143.5t-145 397.5zM260 516q0 -197 93 -297t255 -100t255 100t93 297q0 129 -37.5 235.5t-118 175t-192.5 68.5
t-192.5 -68.5t-118 -175t-37.5 -235.5zM602 -315q-46 0 -77 31t-31 77t31 77.5t77 31.5t77.5 -31.5t31.5 -77.5t-31.5 -77t-77.5 -31z" />
    <glyph glyph-name="uni1ECE" unicode="&#x1ece;" horiz-adv-x="1417" 
d="M551 1831q66 16 123 16q106 0 159.5 -36t53.5 -103q0 -78 -63.5 -118.5t-176.5 -57.5v74q56 15 78.5 35t22.5 53q0 69 -93 69q-26 0 -104 -12v80zM123 670q0 148 39.5 289t111.5 254.5t185.5 183t249.5 69.5q110 0 205.5 -45.5t164 -123t118 -179.5t73.5 -216t24 -232
q0 -159 -46 -291.5t-125 -221t-186 -137.5t-228 -49t-228 49t-186.5 137.5t-125.5 221t-46 291.5zM299 676q0 -247 116 -396t294 -149t293.5 148.5t115.5 396.5q0 118 -28 231.5t-79 204.5t-130 147t-172 56q-123 0 -219 -96t-143.5 -240t-47.5 -303z" />
    <glyph glyph-name="uni1ECF" unicode="&#x1ecf;" 
d="M451 1507q70 17 122 17q106 0 159.5 -36.5t53.5 -103.5q0 -78 -63.5 -118.5t-175.5 -57.5v74q56 15 78 35t22 53q0 70 -92 70q-19 0 -104 -13v80zM90 512q0 117 34 227.5t97 200.5t163.5 144.5t223.5 54.5t223.5 -54.5t163.5 -144.5t97 -200.5t34 -227.5
q0 -254 -145 -397.5t-373 -143.5t-373 143.5t-145 397.5zM260 516q0 -197 93 -297t255 -100t255 100t93 297q0 129 -37.5 235.5t-118 175t-192.5 68.5t-192.5 -68.5t-118 -175t-37.5 -235.5z" />
    <glyph glyph-name="uni1ED0" unicode="&#x1ed0;" horiz-adv-x="1417" 
d="M698 2138h189l-217 -262h-140zM395 1552l254 263h119l254 -263h-148l-155 166h-21l-155 -166h-148zM123 670q0 148 39.5 289t111.5 254.5t185.5 183t249.5 69.5q110 0 205.5 -45.5t164 -123t118 -179.5t73.5 -216t24 -232q0 -159 -46 -291.5t-125 -221t-186 -137.5
t-228 -49t-228 49t-186.5 137.5t-125.5 221t-46 291.5zM299 676q0 -247 116 -396t294 -149t293.5 148.5t115.5 396.5q0 118 -28 231.5t-79 204.5t-130 147t-172 56q-123 0 -219 -96t-143.5 -240t-47.5 -303z" />
    <glyph glyph-name="uni1ED1" unicode="&#x1ed1;" 
d="M598 1815h188l-217 -263h-139zM295 1229l254 262h119l254 -262h-148l-156 166h-20l-156 -166h-147zM90 512q0 117 34 227.5t97 200.5t163.5 144.5t223.5 54.5t223.5 -54.5t163.5 -144.5t97 -200.5t34 -227.5q0 -254 -145 -397.5t-373 -143.5t-373 143.5t-145 397.5z
M260 516q0 -197 93 -297t255 -100t255 100t93 297q0 129 -37.5 235.5t-118 175t-192.5 68.5t-192.5 -68.5t-118 -175t-37.5 -235.5z" />
    <glyph glyph-name="uni1ED2" unicode="&#x1ed2;" horiz-adv-x="1417" 
d="M719 2138l168 -262h-139l-218 262h189zM395 1552l254 263h119l254 -263h-148l-155 166h-21l-155 -166h-148zM123 670q0 148 39.5 289t111.5 254.5t185.5 183t249.5 69.5q110 0 205.5 -45.5t164 -123t118 -179.5t73.5 -216t24 -232q0 -159 -46 -291.5t-125 -221
t-186 -137.5t-228 -49t-228 49t-186.5 137.5t-125.5 221t-46 291.5zM299 676q0 -247 116 -396t294 -149t293.5 148.5t115.5 396.5q0 118 -28 231.5t-79 204.5t-130 147t-172 56q-123 0 -219 -96t-143.5 -240t-47.5 -303z" />
    <glyph glyph-name="uni1ED3" unicode="&#x1ed3;" 
d="M618 1815l168 -263h-139l-217 263h188zM295 1229l254 262h119l254 -262h-148l-156 166h-20l-156 -166h-147zM90 512q0 117 34 227.5t97 200.5t163.5 144.5t223.5 54.5t223.5 -54.5t163.5 -144.5t97 -200.5t34 -227.5q0 -254 -145 -397.5t-373 -143.5t-373 143.5
t-145 397.5zM260 516q0 -197 93 -297t255 -100t255 100t93 297q0 129 -37.5 235.5t-118 175t-192.5 68.5t-192.5 -68.5t-118 -175t-37.5 -235.5z" />
    <glyph glyph-name="uni1ED4" unicode="&#x1ed4;" horiz-adv-x="1417" 
d="M649 1815q56 15 78.5 35t22.5 53q0 69 -93 69q-26 0 -104 -12v80q66 16 123 16q106 0 159.5 -36t53.5 -103q0 -89 -90 -133l223 -232h-148l-155 166h-21l-155 -166h-148zM709 1466q110 0 205.5 -45.5t164 -123t118 -179.5t73.5 -216t24 -232q0 -159 -46 -291.5t-125 -221
t-186 -137.5t-228 -49t-228 49t-186.5 137.5t-125.5 221t-46 291.5q0 148 39.5 289t111.5 254.5t185.5 183t249.5 69.5zM709 131q178 0 293.5 148.5t115.5 396.5q0 118 -28 231.5t-79 204.5t-130 147t-172 56q-123 0 -219 -96t-143.5 -240t-47.5 -303q0 -247 116 -396
t294 -149z" />
    <glyph glyph-name="uni1ED5" unicode="&#x1ed5;" 
d="M549 1491q56 15 78 35t22 53q0 70 -92 70q-19 0 -104 -13v80q70 17 122 17q106 0 159.5 -36.5t53.5 -103.5q0 -89 -90 -133l224 -231h-148l-156 166h-20l-156 -166h-147zM608 1139q123 0 223.5 -54.5t163.5 -144.5t97 -200.5t34 -227.5q0 -254 -145 -397.5t-373 -143.5
t-373 143.5t-145 397.5q0 117 34 227.5t97 200.5t163.5 144.5t223.5 54.5zM608 119q162 0 255 100t93 297q0 129 -37.5 235.5t-118 175t-192.5 68.5t-192.5 -68.5t-118 -175t-37.5 -235.5q0 -197 93 -297t255 -100z" />
    <glyph glyph-name="uni1ED6" unicode="&#x1ed6;" horiz-adv-x="1417" 
d="M1016 2109q15 -105 -36 -169t-140 -64q-38 0 -70.5 13.5t-55 33t-42 38.5t-42 32.5t-46.5 13.5q-41 0 -65 -31.5t-11 -87.5h-107q-15 105 36.5 169.5t140.5 64.5q38 0 70.5 -13.5t55.5 -33t43.5 -38.5t44 -32.5t48.5 -13.5q39 0 60.5 29.5t8.5 88.5h107zM395 1552
l254 263h119l254 -263h-148l-155 166h-21l-155 -166h-148zM123 670q0 148 39.5 289t111.5 254.5t185.5 183t249.5 69.5q110 0 205.5 -45.5t164 -123t118 -179.5t73.5 -216t24 -232q0 -159 -46 -291.5t-125 -221t-186 -137.5t-228 -49t-228 49t-186.5 137.5t-125.5 221
t-46 291.5zM299 676q0 -247 116 -396t294 -149t293.5 148.5t115.5 396.5q0 118 -28 231.5t-79 204.5t-130 147t-172 56q-123 0 -219 -96t-143.5 -240t-47.5 -303z" />
    <glyph glyph-name="uni1ED7" unicode="&#x1ed7;" 
d="M915 1786q15 -105 -36 -169.5t-140 -64.5q-38 0 -70.5 13.5t-55 33t-42 38.5t-42 32.5t-46.5 13.5q-41 0 -64.5 -31t-10.5 -87h-107q-15 105 36 169t140 64q38 0 70.5 -13.5t55.5 -33t43.5 -38.5t44 -32.5t48.5 -13.5q39 0 61 30t9 89h106zM295 1229l254 262h119
l254 -262h-148l-156 166h-20l-156 -166h-147zM90 512q0 117 34 227.5t97 200.5t163.5 144.5t223.5 54.5t223.5 -54.5t163.5 -144.5t97 -200.5t34 -227.5q0 -254 -145 -397.5t-373 -143.5t-373 143.5t-145 397.5zM260 516q0 -197 93 -297t255 -100t255 100t93 297
q0 129 -37.5 235.5t-118 175t-192.5 68.5t-192.5 -68.5t-118 -175t-37.5 -235.5z" />
    <glyph glyph-name="uni1ED8" unicode="&#x1ed8;" horiz-adv-x="1417" 
d="M395 1552l254 263h119l254 -263h-148l-155 166h-21l-155 -166h-148zM123 670q0 148 39.5 289t111.5 254.5t185.5 183t249.5 69.5q110 0 205.5 -45.5t164 -123t118 -179.5t73.5 -216t24 -232q0 -159 -46 -291.5t-125 -221t-186 -137.5t-228 -49t-228 49t-186.5 137.5
t-125.5 221t-46 291.5zM299 676q0 -247 116 -396t294 -149t293.5 148.5t115.5 396.5q0 118 -28 231.5t-79 204.5t-130 147t-172 56q-123 0 -219 -96t-143.5 -240t-47.5 -303zM702 -315q-46 0 -77 31t-31 77t31 77.5t77 31.5t77.5 -31.5t31.5 -77.5t-31.5 -77t-77.5 -31z" />
    <glyph glyph-name="uni1ED9" unicode="&#x1ed9;" 
d="M295 1229l254 262h119l254 -262h-148l-156 166h-20l-156 -166h-147zM90 512q0 117 34 227.5t97 200.5t163.5 144.5t223.5 54.5t223.5 -54.5t163.5 -144.5t97 -200.5t34 -227.5q0 -254 -145 -397.5t-373 -143.5t-373 143.5t-145 397.5zM260 516q0 -197 93 -297t255 -100
t255 100t93 297q0 129 -37.5 235.5t-118 175t-192.5 68.5t-192.5 -68.5t-118 -175t-37.5 -235.5zM602 -315q-46 0 -77 31t-31 77t31 77.5t77 31.5t77.5 -31.5t31.5 -77.5t-31.5 -77t-77.5 -31z" />
    <glyph glyph-name="uni1EDA" unicode="&#x1eda;" horiz-adv-x="1417" 
d="M887 1815l-217 -263h-140l168 263h189zM1294 1432q0 -78 -46 -118t-120 -40h-30q95 -113 145.5 -273.5t50.5 -330.5q0 -159 -46 -291.5t-125 -221t-186 -137.5t-228 -49t-228 49t-186.5 137.5t-125.5 221t-46 291.5q0 148 39.5 289t111.5 254.5t185.5 183t249.5 69.5
q104 0 194 -41q79 -29 106 -36t60 -7q70 0 70 66v190h155v-206zM709 131q178 0 293.5 148.5t115.5 396.5q0 118 -28 231.5t-79 204.5t-130 147t-172 56q-123 0 -219 -96t-143.5 -240t-47.5 -303q0 -247 116 -396t294 -149z" />
    <glyph glyph-name="uni1EDB" unicode="&#x1edb;" 
d="M786 1491l-217 -262h-139l168 262h188zM1145 1159q0 -186 -164 -201q71 -88 108 -205t37 -241q0 -254 -145 -397.5t-373 -143.5t-373 143.5t-145 397.5q0 117 34 227.5t97 200.5t163.5 144.5t223.5 54.5q114 0 199 -43q77 -25 119 -25q31 0 47 12t16 43v181h156v-148z
M608 119q162 0 255 100t93 297q0 129 -37.5 235.5t-118 175t-192.5 68.5t-192.5 -68.5t-118 -175t-37.5 -235.5q0 -197 93 -297t255 -100z" />
    <glyph glyph-name="uni1EDC" unicode="&#x1edc;" horiz-adv-x="1417" 
d="M887 1552h-139l-218 263h189zM1294 1432q0 -78 -46 -118t-120 -40h-30q95 -113 145.5 -273.5t50.5 -330.5q0 -159 -46 -291.5t-125 -221t-186 -137.5t-228 -49t-228 49t-186.5 137.5t-125.5 221t-46 291.5q0 148 39.5 289t111.5 254.5t185.5 183t249.5 69.5
q104 0 194 -41q79 -29 106 -36t60 -7q70 0 70 66v190h155v-206zM709 131q178 0 293.5 148.5t115.5 396.5q0 118 -28 231.5t-79 204.5t-130 147t-172 56q-123 0 -219 -96t-143.5 -240t-47.5 -303q0 -247 116 -396t294 -149z" />
    <glyph glyph-name="uni1EDD" unicode="&#x1edd;" 
d="M786 1229h-139l-217 262h188zM1145 1159q0 -186 -164 -201q71 -88 108 -205t37 -241q0 -254 -145 -397.5t-373 -143.5t-373 143.5t-145 397.5q0 117 34 227.5t97 200.5t163.5 144.5t223.5 54.5q114 0 199 -43q77 -25 119 -25q31 0 47 12t16 43v181h156v-148zM608 119
q162 0 255 100t93 297q0 129 -37.5 235.5t-118 175t-192.5 68.5t-192.5 -68.5t-118 -175t-37.5 -235.5q0 -197 93 -297t255 -100z" />
    <glyph glyph-name="uni1EDE" unicode="&#x1ede;" horiz-adv-x="1417" 
d="M748 1694q0 69 -93 69q-26 0 -104 -12v80q66 16 123 16q106 0 159.5 -36t53.5 -103q0 -78 -63.5 -118.5t-176.5 -57.5v74q56 15 78.5 35t22.5 53zM1294 1432q0 -78 -46 -118t-120 -40h-30q95 -113 145.5 -273.5t50.5 -330.5q0 -159 -46 -291.5t-125 -221t-186 -137.5
t-228 -49t-228 49t-186.5 137.5t-125.5 221t-46 291.5q0 148 39.5 289t111.5 254.5t185.5 183t249.5 69.5q104 0 194 -41q79 -29 106 -36t60 -7q70 0 70 66v190h155v-206zM709 131q178 0 293.5 148.5t115.5 396.5q0 118 -28 231.5t-79 204.5t-130 147t-172 56
q-123 0 -219 -96t-143.5 -240t-47.5 -303q0 -247 116 -396t294 -149z" />
    <glyph glyph-name="uni1EDF" unicode="&#x1edf;" 
d="M647 1370q0 70 -92 70q-19 0 -104 -13v80q70 17 122 17q106 0 159.5 -36.5t53.5 -103.5q0 -78 -63.5 -118.5t-175.5 -57.5v74q56 15 78 35t22 53zM1145 1159q0 -186 -164 -201q71 -88 108 -205t37 -241q0 -254 -145 -397.5t-373 -143.5t-373 143.5t-145 397.5
q0 117 34 227.5t97 200.5t163.5 144.5t223.5 54.5q114 0 199 -43q77 -25 119 -25q31 0 47 12t16 43v181h156v-148zM608 119q162 0 255 100t93 297q0 129 -37.5 235.5t-118 175t-192.5 68.5t-192.5 -68.5t-118 -175t-37.5 -235.5q0 -197 93 -297t255 -100z" />
    <glyph glyph-name="uni1EE0" unicode="&#x1ee0;" horiz-adv-x="1417" 
d="M508 1565h-107q-15 105 36.5 169t140.5 64q38 0 70.5 -13.5t55.5 -33t43.5 -38.5t44 -32.5t48.5 -13.5q39 0 60.5 30t8.5 89h107q15 -105 -36 -169.5t-140 -64.5q-38 0 -70.5 13.5t-55 33t-42 38.5t-42 32.5t-46.5 13.5q-41 0 -65 -31t-11 -87zM1294 1432q0 -78 -46 -118
t-120 -40h-30q95 -113 145.5 -273.5t50.5 -330.5q0 -159 -46 -291.5t-125 -221t-186 -137.5t-228 -49t-228 49t-186.5 137.5t-125.5 221t-46 291.5q0 148 39.5 289t111.5 254.5t185.5 183t249.5 69.5q104 0 194 -41q79 -29 106 -36t60 -7q70 0 70 66v190h155v-206zM709 131
q178 0 293.5 148.5t115.5 396.5q0 118 -28 231.5t-79 204.5t-130 147t-172 56q-123 0 -219 -96t-143.5 -240t-47.5 -303q0 -247 116 -396t294 -149z" />
    <glyph glyph-name="uni1EE1" unicode="&#x1ee1;" 
d="M408 1241h-107q-15 105 36 169.5t140 64.5q38 0 70.5 -13.5t55.5 -33t43.5 -39t44 -33t48.5 -13.5q39 0 61 30t9 89h106q15 -105 -36 -169t-140 -64q-38 0 -70.5 13.5t-55 32.5t-42 38.5t-42 33t-46.5 13.5q-40 0 -64 -31.5t-11 -87.5zM1145 1159q0 -186 -164 -201
q71 -88 108 -205t37 -241q0 -254 -145 -397.5t-373 -143.5t-373 143.5t-145 397.5q0 117 34 227.5t97 200.5t163.5 144.5t223.5 54.5q114 0 199 -43q77 -25 119 -25q31 0 47 12t16 43v181h156v-148zM608 119q162 0 255 100t93 297q0 129 -37.5 235.5t-118 175t-192.5 68.5
t-192.5 -68.5t-118 -175t-37.5 -235.5q0 -197 93 -297t255 -100z" />
    <glyph glyph-name="uni1EE2" unicode="&#x1ee2;" horiz-adv-x="1417" 
d="M1294 1432q0 -78 -46 -118t-120 -40h-30q95 -113 145.5 -273.5t50.5 -330.5q0 -159 -46 -291.5t-125 -221t-186 -137.5t-228 -49t-228 49t-186.5 137.5t-125.5 221t-46 291.5q0 148 39.5 289t111.5 254.5t185.5 183t249.5 69.5q104 0 194 -41q79 -29 106 -36t60 -7
q70 0 70 66v190h155v-206zM709 131q178 0 293.5 148.5t115.5 396.5q0 118 -28 231.5t-79 204.5t-130 147t-172 56q-123 0 -219 -96t-143.5 -240t-47.5 -303q0 -247 116 -396t294 -149zM702 -98q46 0 77.5 -31.5t31.5 -77.5t-31.5 -77t-77.5 -31t-77 31t-31 77t31 77.5
t77 31.5z" />
    <glyph glyph-name="uni1EE3" unicode="&#x1ee3;" 
d="M1145 1159q0 -186 -164 -201q71 -88 108 -205t37 -241q0 -254 -145 -397.5t-373 -143.5t-373 143.5t-145 397.5q0 117 34 227.5t97 200.5t163.5 144.5t223.5 54.5q114 0 199 -43q77 -25 119 -25q31 0 47 12t16 43v181h156v-148zM608 119q162 0 255 100t93 297
q0 129 -37.5 235.5t-118 175t-192.5 68.5t-192.5 -68.5t-118 -175t-37.5 -235.5q0 -197 93 -297t255 -100zM602 -98q46 0 77.5 -31.5t31.5 -77.5t-31.5 -77t-77.5 -31t-77 31t-31 77t31 77.5t77 31.5z" />
    <glyph glyph-name="uni1EE4" unicode="&#x1ee4;" horiz-adv-x="1433" 
d="M1262 1434v-916q0 -143 -42 -250.5t-117.5 -171t-172 -94.5t-213.5 -31t-213.5 31t-172 94.5t-117.5 171t-42 250.5v916h168v-910q0 -107 28.5 -185t81 -122.5t118.5 -65t149 -20.5t149 20.5t118.5 65t81 122.5t28.5 185v910h168zM711 -315q-46 0 -77.5 31t-31.5 77
t31.5 77.5t77.5 31.5t77 -31.5t31 -77.5t-31 -77t-77 -31z" />
    <glyph glyph-name="uni1EE5" unicode="&#x1ee5;" horiz-adv-x="1206" 
d="M887 1110h164v-1110h-136l-22 127q-71 -78 -161.5 -117t-184.5 -39q-91 0 -161.5 24.5t-115 64.5t-73 96.5t-39.5 115.5t-11 127v711h164v-657q0 -79 12.5 -137.5t41.5 -106.5t84 -73t135 -25q77 0 161 38.5t142 116.5v844zM598 -98q46 0 77.5 -31.5t31.5 -77.5
t-31.5 -77t-77.5 -31t-77.5 31t-31.5 77t31.5 77.5t77.5 31.5z" />
    <glyph glyph-name="uni1EE6" unicode="&#x1ee6;" horiz-adv-x="1433" 
d="M559 1831q66 16 123 16q106 0 159.5 -36t53.5 -103q0 -78 -63.5 -118.5t-176.5 -57.5v74q56 15 78.5 35t22.5 53q0 69 -92 69q-27 0 -105 -12v80zM1262 1434v-916q0 -143 -42 -250.5t-117.5 -171t-172 -94.5t-213.5 -31t-213.5 31t-172 94.5t-117.5 171t-42 250.5v916
h168v-910q0 -107 28.5 -185t81 -122.5t118.5 -65t149 -20.5t149 20.5t118.5 65t81 122.5t28.5 185v910h168z" />
    <glyph glyph-name="uni1EE7" unicode="&#x1ee7;" horiz-adv-x="1206" 
d="M643 1370q0 70 -92 70q-21 0 -105 -13v80q70 17 123 17q106 0 159.5 -36.5t53.5 -103.5q0 -78 -63.5 -118.5t-175.5 -57.5v74q56 15 78 35t22 53zM887 1110h164v-1110h-136l-22 127q-71 -78 -161.5 -117t-184.5 -39q-91 0 -161.5 24.5t-115 64.5t-73 96.5t-39.5 115.5
t-11 127v711h164v-657q0 -79 12.5 -137.5t41.5 -106.5t84 -73t135 -25q77 0 161 38.5t142 116.5v844z" />
    <glyph glyph-name="uni1EE8" unicode="&#x1ee8;" horiz-adv-x="1589" 
d="M895 1815l-217 -263h-139l168 263h188zM1417 1640h156v-157q0 -110 -54 -163.5t-133 -53.5q-65 0 -124 32v-780q0 -143 -42 -250.5t-117.5 -171t-172 -94.5t-213.5 -31t-213.5 31t-172 94.5t-117.5 171t-42 250.5v916h168v-910q0 -107 28.5 -185t81 -122.5t118.5 -65
t149 -20.5t149 20.5t118.5 65t81 122.5t28.5 185v910h168q55 -48 98 -48q57 0 57 64v190z" />
    <glyph glyph-name="uni1EE9" unicode="&#x1ee9;" horiz-adv-x="1411" 
d="M782 1491l-217 -262h-139l168 262h188zM1206 1317h156v-158q0 -110 -53.5 -163.5t-132.5 -53.5q-64 0 -125 33v-975h-136l-22 127q-71 -78 -161.5 -117t-184.5 -39q-91 0 -161.5 24.5t-115 64.5t-73 96.5t-39.5 115.5t-11 127v711h164v-657q0 -79 12.5 -137.5
t41.5 -106.5t84 -73t135 -25q77 0 161 38.5t142 116.5v844h164q53 -47 98 -47q57 0 57 63v191z" />
    <glyph glyph-name="uni1EEA" unicode="&#x1eea;" horiz-adv-x="1589" 
d="M895 1552h-139l-217 263h188zM1417 1640h156v-157q0 -110 -54 -163.5t-133 -53.5q-65 0 -124 32v-780q0 -143 -42 -250.5t-117.5 -171t-172 -94.5t-213.5 -31t-213.5 31t-172 94.5t-117.5 171t-42 250.5v916h168v-910q0 -107 28.5 -185t81 -122.5t118.5 -65t149 -20.5
t149 20.5t118.5 65t81 122.5t28.5 185v910h168q55 -48 98 -48q57 0 57 64v190z" />
    <glyph glyph-name="uni1EEB" unicode="&#x1eeb;" horiz-adv-x="1411" 
d="M782 1229h-139l-217 262h188zM1206 1317h156v-158q0 -110 -53.5 -163.5t-132.5 -53.5q-64 0 -125 33v-975h-136l-22 127q-71 -78 -161.5 -117t-184.5 -39q-91 0 -161.5 24.5t-115 64.5t-73 96.5t-39.5 115.5t-11 127v711h164v-657q0 -79 12.5 -137.5t41.5 -106.5t84 -73
t135 -25q77 0 161 38.5t142 116.5v844h164q53 -47 98 -47q57 0 57 63v191z" />
    <glyph glyph-name="uni1EEC" unicode="&#x1eec;" horiz-adv-x="1589" 
d="M756 1694q0 69 -92 69q-27 0 -105 -12v80q66 16 123 16q106 0 159.5 -36t53.5 -103q0 -78 -63.5 -118.5t-176.5 -57.5v74q56 15 78.5 35t22.5 53zM1417 1640h156v-157q0 -110 -54 -163.5t-133 -53.5q-65 0 -124 32v-780q0 -143 -42 -250.5t-117.5 -171t-172 -94.5
t-213.5 -31t-213.5 31t-172 94.5t-117.5 171t-42 250.5v916h168v-910q0 -107 28.5 -185t81 -122.5t118.5 -65t149 -20.5t149 20.5t118.5 65t81 122.5t28.5 185v910h168q55 -48 98 -48q57 0 57 64v190z" />
    <glyph glyph-name="uni1EED" unicode="&#x1eed;" horiz-adv-x="1411" 
d="M643 1370q0 70 -92 70q-21 0 -105 -13v80q70 17 123 17q106 0 159.5 -36.5t53.5 -103.5q0 -78 -63.5 -118.5t-175.5 -57.5v74q56 15 78 35t22 53zM1206 1317h156v-158q0 -110 -53.5 -163.5t-132.5 -53.5q-64 0 -125 33v-975h-136l-22 127q-71 -78 -161.5 -117t-184.5 -39
q-91 0 -161.5 24.5t-115 64.5t-73 96.5t-39.5 115.5t-11 127v711h164v-657q0 -79 12.5 -137.5t41.5 -106.5t84 -73t135 -25q77 0 161 38.5t142 116.5v844h164q53 -47 98 -47q57 0 57 63v191z" />
    <glyph glyph-name="uni1EEE" unicode="&#x1eee;" horiz-adv-x="1589" 
d="M516 1565h-106q-15 105 36 169t140 64q38 0 70.5 -13.5t55.5 -33t43.5 -38.5t44 -32.5t48.5 -13.5q39 0 61 30t9 89h106q15 -105 -36 -169.5t-140 -64.5q-38 0 -70.5 13.5t-55 33t-42 38.5t-42 32.5t-46.5 13.5q-41 0 -65 -31t-11 -87zM1417 1640h156v-157
q0 -110 -54 -163.5t-133 -53.5q-65 0 -124 32v-780q0 -143 -42 -250.5t-117.5 -171t-172 -94.5t-213.5 -31t-213.5 31t-172 94.5t-117.5 171t-42 250.5v916h168v-910q0 -107 28.5 -185t81 -122.5t118.5 -65t149 -20.5t149 20.5t118.5 65t81 122.5t28.5 185v910h168
q55 -48 98 -48q57 0 57 64v190z" />
    <glyph glyph-name="uni1EEF" unicode="&#x1eef;" horiz-adv-x="1411" 
d="M403 1241h-106q-15 105 36 169.5t140 64.5q38 0 70.5 -13.5t55.5 -33t43.5 -39t44 -33t48.5 -13.5q39 0 61 30t9 89h106q15 -105 -36 -169t-140 -64q-38 0 -70.5 13.5t-55 32.5t-42 38.5t-42 33t-46.5 13.5q-41 0 -65 -31.5t-11 -87.5zM1206 1317h156v-158
q0 -110 -53.5 -163.5t-132.5 -53.5q-64 0 -125 33v-975h-136l-22 127q-71 -78 -161.5 -117t-184.5 -39q-91 0 -161.5 24.5t-115 64.5t-73 96.5t-39.5 115.5t-11 127v711h164v-657q0 -79 12.5 -137.5t41.5 -106.5t84 -73t135 -25q77 0 161 38.5t142 116.5v844h164
q53 -47 98 -47q57 0 57 63v191z" />
    <glyph glyph-name="uni1EF0" unicode="&#x1ef0;" horiz-adv-x="1589" 
d="M1417 1640h156v-157q0 -110 -54 -163.5t-133 -53.5q-65 0 -124 32v-780q0 -143 -42 -250.5t-117.5 -171t-172 -94.5t-213.5 -31t-213.5 31t-172 94.5t-117.5 171t-42 250.5v916h168v-910q0 -107 28.5 -185t81 -122.5t118.5 -65t149 -20.5t149 20.5t118.5 65t81 122.5
t28.5 185v910h168q55 -48 98 -48q57 0 57 64v190zM711 -98q46 0 77 -31.5t31 -77.5t-31 -77t-77 -31t-77.5 31t-31.5 77t31.5 77.5t77.5 31.5z" />
    <glyph glyph-name="uni1EF1" unicode="&#x1ef1;" horiz-adv-x="1411" 
d="M1206 1317h156v-158q0 -110 -53.5 -163.5t-132.5 -53.5q-64 0 -125 33v-975h-136l-22 127q-71 -78 -161.5 -117t-184.5 -39q-91 0 -161.5 24.5t-115 64.5t-73 96.5t-39.5 115.5t-11 127v711h164v-657q0 -79 12.5 -137.5t41.5 -106.5t84 -73t135 -25q77 0 161 38.5
t142 116.5v844h164q53 -47 98 -47q57 0 57 63v191zM598 -98q46 0 77.5 -31.5t31.5 -77.5t-31.5 -77t-77.5 -31t-77.5 31t-31.5 77t31.5 77.5t77.5 31.5z" />
    <glyph glyph-name="Ygrave" unicode="&#x1ef2;" 
d="M786 1552h-139l-217 263h188zM995 1434h181l-484 -775v-659h-168v659l-483 775h197l366 -605h17z" />
    <glyph glyph-name="ygrave" unicode="&#x1ef3;" horiz-adv-x="1138" 
d="M748 1229h-140l-217 262h189zM918 1110h172l-435 -1147q-56 -148 -152 -246t-198 -98q-95 0 -186 41l26 113q68 -15 131 -15q68 0 129.5 74t110.5 205l-467 1073h176l371 -887h8z" />
    <glyph glyph-name="uni1EF4" unicode="&#x1ef4;" 
d="M524 0v659l-483 775h197l366 -605h17l374 605h181l-484 -775v-659h-168zM602 -98q46 0 77.5 -31.5t31.5 -77.5t-31.5 -77t-77.5 -31t-77 31t-31 77t31 77.5t77 31.5z" />
    <glyph glyph-name="uni1EF5" unicode="&#x1ef5;" horiz-adv-x="1138" 
d="M918 1110h172l-435 -1147q-56 -148 -152 -246t-198 -98q-95 0 -186 41l26 113q68 -15 131 -15q68 0 129.5 74t110.5 205l-467 1073h176l371 -887h8zM807 -98q46 0 77 -31.5t31 -77.5t-31 -77t-77 -31t-77.5 31t-31.5 77t31.5 77.5t77.5 31.5z" />
    <glyph glyph-name="uni1EF6" unicode="&#x1ef6;" 
d="M647 1694q0 69 -92 69q-26 0 -104 -12v80q66 16 122 16q106 0 159.5 -36t53.5 -103q0 -78 -63.5 -118.5t-175.5 -57.5v74q56 15 78 35t22 53zM995 1434h181l-484 -775v-659h-168v659l-483 775h197l366 -605h17z" />
    <glyph glyph-name="uni1EF7" unicode="&#x1ef7;" horiz-adv-x="1138" 
d="M608 1370q0 70 -92 70q-20 0 -104 -13v80q70 17 123 17q106 0 159.5 -36.5t53.5 -103.5q0 -78 -63.5 -118.5t-176.5 -57.5v74q56 15 78 35t22 53zM918 1110h172l-435 -1147q-56 -148 -152 -246t-198 -98q-95 0 -186 41l26 113q68 -15 131 -15q68 0 129.5 74t110.5 205
l-467 1073h176l371 -887h8z" />
    <glyph glyph-name="uni1EF8" unicode="&#x1ef8;" 
d="M408 1565h-107q-15 105 36 169t140 64q38 0 70.5 -13.5t55.5 -33t43.5 -38.5t44 -32.5t48.5 -13.5q39 0 61 30t9 89h106q15 -105 -36 -169.5t-140 -64.5q-38 0 -70.5 13.5t-55 33t-42 38.5t-42 32.5t-46.5 13.5q-41 0 -64.5 -31t-10.5 -87zM995 1434h181l-484 -775v-659
h-168v659l-483 775h197l366 -605h17z" />
    <glyph glyph-name="uni1EF9" unicode="&#x1ef9;" horiz-adv-x="1138" 
d="M369 1241h-107q-15 105 36 169.5t140 64.5q38 0 70.5 -13.5t55.5 -33t43.5 -39t44 -33t48.5 -13.5q39 0 61 30t9 89h107q15 -105 -36.5 -169t-140.5 -64q-38 0 -70.5 13.5t-55 32.5t-42 38.5t-42 33t-46.5 13.5q-40 0 -64 -31.5t-11 -87.5zM918 1110h172l-435 -1147
q-56 -148 -152 -246t-198 -98q-95 0 -186 41l26 113q68 -15 131 -15q68 0 129.5 74t110.5 205l-467 1073h176l371 -887h8z" />
    <glyph glyph-name="endash" unicode="&#x2013;" horiz-adv-x="1214" 
d="M156 637h903v-131h-903v131z" />
    <glyph glyph-name="emdash" unicode="&#x2014;" horiz-adv-x="1916" 
d="M156 637h1605v-131h-1605v131z" />
    <glyph glyph-name="quoteleft" unicode="&#x2018;" horiz-adv-x="567" 
d="M287 987q-64 0 -97.5 54.5t-33.5 152.5q0 58 12.5 110t40.5 100.5t80 81.5t123 42v-88q-136 -34 -136 -172q59 0 97.5 -34t38.5 -95t-32.5 -106.5t-92.5 -45.5z" />
    <glyph glyph-name="quoteright" unicode="&#x2019;" horiz-adv-x="567" 
d="M281 1528q64 0 97.5 -54.5t33.5 -152.5q0 -58 -12.5 -110t-40.5 -100.5t-80 -81.5t-123 -42v88q135 34 135 172q-59 0 -97 34t-38 95t32.5 106.5t92.5 45.5z" />
    <glyph glyph-name="quotesinglbase" unicode="&#x201a;" horiz-adv-x="665" 
d="M330 301q64 0 97.5 -54.5t33.5 -152.5q0 -58 -12.5 -110t-40.5 -100.5t-80 -81.5t-123 -42v88q135 34 135 172q-59 0 -97 34.5t-38 95.5t32.5 106t92.5 45z" />
    <glyph glyph-name="quotedblleft" unicode="&#x201c;" horiz-adv-x="1001" 
d="M287 987q-64 0 -97.5 54.5t-33.5 152.5q0 58 12.5 110t40.5 100.5t80 81.5t123 42v-88q-136 -34 -136 -172q59 0 97.5 -34t38.5 -95t-32.5 -106.5t-92.5 -45.5zM721 987q-64 0 -97.5 54.5t-33.5 152.5q0 58 12.5 110t40.5 100.5t80 81.5t123 42v-88q-135 -34 -135 -172
q59 0 97 -34t38 -95t-32.5 -106.5t-92.5 -45.5z" />
    <glyph glyph-name="quotedblright" unicode="&#x201d;" horiz-adv-x="1001" 
d="M281 1528q64 0 97.5 -54.5t33.5 -152.5q0 -58 -12.5 -110t-40.5 -100.5t-80 -81.5t-123 -42v88q135 34 135 172q-59 0 -97 34t-38 95t32.5 106.5t92.5 45.5zM715 1528q64 0 97.5 -54.5t33.5 -152.5q0 -58 -12.5 -110t-40.5 -100.5t-80 -81.5t-123 -42v88q135 34 135 172
q-59 0 -97 34t-38 95t32.5 106.5t92.5 45.5z" />
    <glyph glyph-name="quotedblbase" unicode="&#x201e;" horiz-adv-x="1079" 
d="M330 301q64 0 97.5 -54.5t33.5 -152.5q0 -58 -12.5 -110t-40.5 -100.5t-80 -81.5t-123 -42v88q135 34 135 172q-59 0 -97 34.5t-38 95.5t32.5 106t92.5 45zM764 301q64 0 97.5 -54.5t33.5 -152.5q0 -58 -12.5 -110t-40.5 -100.5t-80 -81.5t-123 -42v88q135 34 135 172
q-59 0 -97 34.5t-38 95.5t32.5 106t92.5 45z" />
    <glyph glyph-name="dagger" unicode="&#x2020;" horiz-adv-x="720" 
d="M586 1358v-111h-162v-463h-127v463h-162v111h162v192h127v-192h162z" />
    <glyph glyph-name="daggerdbl" unicode="&#x2021;" horiz-adv-x="720" 
d="M586 1247h-162v-160h162v-110h-162v-193h-127v193h-162v110h162v160h-162v111h162v192h127v-192h162v-111z" />
    <glyph glyph-name="bullet" unicode="&#x2022;" horiz-adv-x="739" 
d="M135 676q0 108 64.5 190t171.5 82q105 0 169 -82t64 -190q0 -115 -65 -178.5t-168 -63.5t-169.5 64t-66.5 178z" />
    <glyph glyph-name="ellipsis" unicode="&#x2026;" horiz-adv-x="1978" 
d="M205 109q0 57 34 99t91 42t91 -42t34 -99q0 -61 -34.5 -95t-90.5 -34q-55 0 -90 34t-35 95zM864 109q0 57 34 99t91 42t91 -42t34 -99q0 -61 -34.5 -95t-90.5 -34q-55 0 -90 34t-35 95zM1524 109q0 57 34 99t91 42t91 -42t34 -99q0 -61 -34.5 -95t-90.5 -34q-55 0 -90 34
t-35 95z" />
    <glyph glyph-name="perthousand" unicode="&#x2030;" horiz-adv-x="2494" 
d="M414 758q-155 0 -251.5 99.5t-96.5 248.5q0 146 96.5 247t251.5 101t251.5 -101t96.5 -247q0 -149 -96.5 -248.5t-251.5 -99.5zM1184 1434h147l-868 -1434h-148zM414 895q86 0 138 57t52 154q0 93 -52 152t-138 59t-138.5 -59t-52.5 -152q0 -96 52 -153.5t139 -57.5z
M1233 -20q-155 0 -251.5 99.5t-96.5 248.5q0 146 96.5 247t251.5 101t251.5 -101t96.5 -247q0 -149 -96.5 -248.5t-251.5 -99.5zM2015 -20q-155 0 -251.5 99.5t-96.5 248.5q0 146 96.5 247t251.5 101t251.5 -101t96.5 -247q0 -149 -96.5 -248.5t-251.5 -99.5zM1233 117
q86 0 138 57t52 154q0 93 -52 152t-138 59t-138.5 -59t-52.5 -152q0 -96 52 -153.5t139 -57.5zM2015 117q87 0 139 57.5t52 153.5q0 93 -52.5 152t-138.5 59t-138 -59t-52 -152q0 -97 52 -154t138 -57z" />
    <glyph glyph-name="guilsinglleft" unicode="&#x2039;" horiz-adv-x="802" 
d="M444 1022h203l-364 -416l364 -422h-203l-354 422z" />
    <glyph glyph-name="guilsinglright" unicode="&#x203a;" horiz-adv-x="802" 
d="M358 1022l355 -416l-355 -422h-202l364 422l-364 416h202z" />
    <glyph glyph-name="fraction" unicode="&#x2044;" horiz-adv-x="329" 
d="M604 1466h135l-1013 -1499h-136z" />
    <glyph glyph-name="uni2070" unicode="&#x2070;" horiz-adv-x="847" 
d="M115 1204q0 217 84 350.5t225 133.5q143 0 226 -133t83 -351q0 -200 -82 -317t-227 -117q-144 0 -226.5 117.5t-82.5 316.5zM254 1206q0 -150 44.5 -233.5t125.5 -83.5q82 0 126 83t44 234q0 167 -45.5 267t-124.5 100q-78 0 -124 -100.5t-46 -266.5z" />
    <glyph glyph-name="uni2074" unicode="&#x2074;" horiz-adv-x="847" 
d="M745 1116v-121h-118v-217h-127v217h-398v92l373 592h152v-563h118zM274 1116h226v365h-13l-213 -351v-14z" />
    <glyph glyph-name="uni2075" unicode="&#x2075;" horiz-adv-x="847" 
d="M662 1679v-120h-353l-22 -250h10q48 77 152 77q118 0 192 -83t74 -222q0 -145 -77.5 -228t-207.5 -83q-141 0 -222 85.5t-75 227.5h131q-3 -95 37.5 -144.5t122.5 -49.5q154 0 154 184q0 95 -42 148t-112 53q-53 0 -95 -25t-65 -71h-114l45 501h467z" />
    <glyph glyph-name="uni2076" unicode="&#x2076;" horiz-adv-x="847" 
d="M446 1378q120 0 197.5 -84.5t77.5 -214.5q0 -140 -78 -224.5t-205 -84.5q-152 0 -231.5 110.5t-79.5 325.5q0 227 83.5 354.5t231.5 127.5q116 0 183.5 -73t70.5 -202h-125q-4 73 -41 116.5t-92 43.5q-77 0 -121 -75.5t-53 -215.5h10q3 3 14.5 17.5t18 21.5t22.5 20
t30.5 19.5t37.5 12t49 5.5zM442 889q66 0 105 46t39 132q0 89 -42.5 143t-111.5 54q-54 0 -100.5 -19t-69.5 -43q0 -313 180 -313z" />
    <glyph glyph-name="uni2077" unicode="&#x2077;" horiz-adv-x="849" 
d="M205 778l325 764v17h-378v120h546v-94l-342 -807h-151z" />
    <glyph glyph-name="uni2078" unicode="&#x2078;" horiz-adv-x="847" 
d="M428 1688q111 0 184.5 -68.5t73.5 -173.5q0 -135 -106 -182v-7q63 -16 108 -76t45 -145q0 -116 -87.5 -191t-219.5 -75q-133 0 -222 74.5t-89 189.5q0 85 46 146t109 77v7q-49 22 -78.5 67.5t-29.5 112.5q0 106 76 175t190 69zM424 1573q-60 0 -95.5 -34.5t-35.5 -96.5
t35 -97.5t96 -35.5t96 35.5t35 97.5q0 63 -35 97t-96 34zM424 1196q-79 0 -124.5 -40.5t-45.5 -111.5t46.5 -113t123.5 -42q78 0 124 41t46 114q0 71 -45.5 111.5t-124.5 40.5z" />
    <glyph glyph-name="uni2079" unicode="&#x2079;" horiz-adv-x="847" 
d="M420 1688q142 0 221.5 -118.5t79.5 -326.5q0 -227 -81 -350t-230 -123q-119 0 -194.5 77.5t-78.5 201.5h125q3 -69 45 -116.5t107 -47.5q72 0 116.5 74t53.5 212h-13q-1 -1 -10 -12t-14.5 -16.5t-17.5 -17t-24 -18t-28.5 -14t-37.5 -11t-44 -3.5q-121 0 -194.5 78.5
t-73.5 212.5q0 137 83.5 227.5t209.5 90.5zM410 1194q124 0 176 78q-5 142 -47.5 219.5t-118.5 77.5q-73 0 -115.5 -50t-42.5 -137q0 -95 38.5 -141.5t109.5 -46.5z" />
    <glyph glyph-name="uni2080" unicode="&#x2080;" horiz-adv-x="847" 
d="M115 -25q0 217 84 350.5t225 133.5q143 0 226 -133t83 -351q0 -200 -82 -317t-227 -117q-144 0 -226.5 117.5t-82.5 316.5zM254 -23q0 -150 44.5 -233.5t125.5 -83.5q82 0 126 83t44 234q0 167 -45.5 267t-124.5 100q-78 0 -124 -100.5t-46 -266.5z" />
    <glyph glyph-name="uni2081" unicode="&#x2081;" horiz-adv-x="847" 
d="M178 266l252 185h111v-902h-135v736h-13l-164 -125z" />
    <glyph glyph-name="uni2082" unicode="&#x2082;" horiz-adv-x="845" 
d="M266 150h-127q-3 49 14 102t52 100t94.5 77t132.5 30q121 0 193.5 -76.5t72.5 -202.5q0 -102 -44 -178.5t-128 -157.5l-157 -170v-12h333v-113h-540l-8 84l284 295q62 65 91.5 119.5t29.5 130.5q0 79 -36 124.5t-101 45.5q-73 0 -116 -55t-40 -143z" />
    <glyph glyph-name="uni2083" unicode="&#x2083;" horiz-adv-x="847" 
d="M590 31q123 -63 123 -209q0 -123 -81 -202t-204 -79q-134 0 -215 91t-78 235h133q-2 -100 41 -153.5t127 -53.5q66 0 100.5 39t34.5 113q0 73 -39 114t-108 41h-88v113h84q68 0 101.5 35.5t33.5 99.5q0 65 -34 99t-95 34q-76 0 -116 -50t-40 -140h-127q-2 132 78 216.5
t207 84.5q113 0 187.5 -67t74.5 -169q0 -67 -30 -113.5t-70 -66.5v-12z" />
    <glyph glyph-name="uni2084" unicode="&#x2084;" horiz-adv-x="847" 
d="M745 -113v-120h-118v-218h-127v218h-398v92l373 592h152v-564h118zM274 -113h226v365h-13l-213 -350v-15z" />
    <glyph glyph-name="uni2085" unicode="&#x2085;" horiz-adv-x="847" 
d="M662 451v-121h-353l-22 -250h10q48 78 152 78q118 0 192 -83t74 -222q0 -145 -77.5 -228.5t-207.5 -83.5q-141 0 -222 85.5t-75 228.5h131q-3 -95 37.5 -145t122.5 -50q154 0 154 184q0 95 -42 148t-112 53q-53 0 -95 -25t-65 -71h-114l45 502h467z" />
    <glyph glyph-name="uni2086" unicode="&#x2086;" horiz-adv-x="847" 
d="M446 150q120 0 197.5 -84.5t77.5 -215.5q0 -140 -78 -224.5t-205 -84.5q-152 0 -231.5 110.5t-79.5 325.5q0 227 83.5 354.5t231.5 127.5q116 0 183.5 -73t70.5 -202h-125q-4 73 -41 116.5t-92 43.5q-77 0 -121 -75.5t-53 -215.5h10q3 3 14.5 17.5t18.5 22t22 20t30 19.5
t38 12.5t49 5.5zM442 -340q66 0 105 46t39 132q0 89 -42.5 143t-111.5 54q-54 0 -100.5 -19t-69.5 -43q0 -313 180 -313z" />
    <glyph glyph-name="uni2087" unicode="&#x2087;" horiz-adv-x="849" 
d="M205 -451l325 764v17h-378v121h546v-95l-342 -807h-151z" />
    <glyph glyph-name="uni2088" unicode="&#x2088;" horiz-adv-x="847" 
d="M428 459q111 0 184.5 -68.5t73.5 -173.5q0 -135 -106 -182v-6q63 -16 108 -76.5t45 -145.5q0 -116 -87.5 -191t-219.5 -75q-133 0 -222 74.5t-89 189.5q0 85 46 146.5t109 77.5v6q-49 22 -78.5 67.5t-29.5 112.5q0 106 76 175t190 69zM424 344q-60 0 -95.5 -34.5
t-35.5 -96.5t35 -97.5t96 -35.5t96 35.5t35 97.5q0 63 -35 97t-96 34zM424 -33q-79 0 -124.5 -40t-45.5 -111q0 -72 46.5 -114t123.5 -42t123.5 41.5t46.5 114.5q0 71 -45.5 111t-124.5 40z" />
    <glyph glyph-name="uni2089" unicode="&#x2089;" horiz-adv-x="847" 
d="M420 459q142 0 221.5 -118.5t79.5 -326.5q0 -227 -81 -350t-230 -123q-119 0 -194.5 77.5t-78.5 201.5h125q3 -69 45 -116.5t107 -47.5q72 0 116.5 74.5t53.5 212.5h-13q-1 -2 -9.5 -12.5t-14.5 -16.5t-17.5 -17t-24 -18t-29 -14.5t-37.5 -11t-44 -3.5
q-121 0 -194.5 78.5t-73.5 212.5q0 137 83.5 227.5t209.5 90.5zM410 -35q124 0 176 78q-5 142 -47.5 219.5t-118.5 77.5q-73 0 -115.5 -49.5t-42.5 -136.5q0 -95 38.5 -142t109.5 -47z" />
    <glyph glyph-name="Euro" unicode="&#x20ac;" horiz-adv-x="1193" 
d="M897 150q110 0 199 14v-141q-104 -23 -213 -23q-264 0 -419.5 134.5t-193.5 373.5h-135l8 119h117v32q0 76 8 136h-116l8 118h127q24 110 70 201t117 164.5t176 114.5t235 41q87 0 186 -21v-139q-114 12 -178 12q-361 0 -438 -373h458l-8 -118h-465q-4 -74 -4 -107
q0 -41 2 -61h459l-8 -119h-438q35 -191 149.5 -274.5t296.5 -83.5z" />
    <glyph glyph-name="uni20BF" unicode="&#x20bf;" horiz-adv-x="1267" 
d="M1120 418q0 -135 -78.5 -232.5t-226.5 -130.5l14 -252h-145v238h-168v-238h-145l12 238h-195v1352h195l-12 211h145v-211h168v211h145l-12 -226q120 -30 189 -112.5t69 -190.5q0 -119 -57 -194.5t-135 -106.5q116 -27 176.5 -121.5t60.5 -234.5zM664 1237h-312v-401h342
q205 0 205 215q0 186 -235 186zM651 197q293 0 293 229q0 119 -60.5 186.5t-189.5 67.5h-342v-483h299z" />
    <glyph glyph-name="trademark" unicode="&#x2122;" horiz-adv-x="1386" 
d="M608 1434v-95h-190v-481h-107v481h-184v95h481zM1260 1434v-576h-99v455h-8l-143 -406h-78l-141 406h-9v-455h-98v576h147l144 -406l145 406h140z" />
    <glyph glyph-name="onethird" unicode="&#x2153;" horiz-adv-x="1943" 
d="M178 1290l252 185h111v-902h-135v736h-13l-164 -125zM1391 1466h135l-1014 -1499h-135zM1686 440q122 -63 122 -209q0 -123 -80.5 -201.5t-203.5 -78.5q-134 0 -215 91t-78 234h133q-2 -100 41 -153t127 -53q66 0 100.5 38.5t34.5 112.5q0 73 -39 114.5t-108 41.5h-88
v112h84q68 0 101.5 36t33.5 100q0 65 -34 99t-95 34q-76 0 -116 -50.5t-40 -140.5h-127q-2 132 78 216.5t207 84.5q113 0 187.5 -66.5t74.5 -168.5q0 -67 -30 -113.5t-70 -66.5v-13z" />
    <glyph glyph-name="twothirds" unicode="&#x2154;" horiz-adv-x="2002" 
d="M266 1165h-127q-3 49 14 102t52 100t94.5 77.5t132.5 30.5q121 0 193.5 -76.5t72.5 -202.5q0 -102 -44 -178.5t-128 -157.5l-157 -170v-12h333v-113h-540l-8 84l284 295q62 65 91.5 119.5t29.5 130.5q0 79 -36 124.5t-101 45.5q-73 0 -116 -55.5t-40 -143.5zM1450 1466
h135l-1014 -1499h-135zM1745 440q123 -63 123 -209q0 -122 -80.5 -201t-204.5 -79q-134 0 -215 91t-78 234h133q-2 -100 41 -153t127 -53q66 0 100.5 38.5t34.5 112.5q0 73 -39 114.5t-108 41.5h-88v112h84q68 0 101.5 36t33.5 100q0 65 -34 99t-95 34q-76 0 -116 -50.5
t-40 -140.5h-127q-2 132 78 216.5t207 84.5q113 0 187.5 -66.5t74.5 -168.5q0 -67 -30 -113.5t-70 -66.5v-13z" />
    <glyph glyph-name="oneeighth" unicode="&#x215b;" horiz-adv-x="1923" 
d="M178 1290l252 185h111v-902h-135v736h-13l-164 -125zM1391 1466h135l-1014 -1499h-135zM1503 868q111 0 184.5 -68t73.5 -173q0 -136 -106 -183v-6q63 -16 108 -76t45 -145q0 -116 -87.5 -191t-219.5 -75q-133 0 -222 74.5t-89 189.5q0 85 46.5 146t109.5 77v6
q-49 22 -79 68t-30 113q0 106 76 174.5t190 68.5zM1499 754q-60 0 -95.5 -34.5t-35.5 -96.5t35 -98t96 -36t96 36t35 98q0 63 -35 97t-96 34zM1499 377q-79 0 -124.5 -40.5t-45.5 -111.5t46.5 -113t123.5 -42q78 0 124 41t46 114q0 71 -45.5 111.5t-124.5 40.5z" />
    <glyph glyph-name="threeeighths" unicode="&#x215c;" horiz-adv-x="1984" 
d="M590 1055q123 -63 123 -209q0 -123 -81 -202t-204 -79q-134 0 -215 91t-78 235h133q-2 -100 41 -153.5t127 -53.5q66 0 100.5 39t34.5 113q0 73 -39 114t-108 41h-88v113h84q68 0 101.5 35.5t33.5 99.5q0 65 -34 99t-95 34q-76 0 -116 -50t-40 -140h-127q-2 132 78 216.5
t207 84.5q113 0 187.5 -67t74.5 -169q0 -67 -30 -113.5t-70 -66.5v-12zM1452 1466h135l-1014 -1499h-135zM1565 868q111 0 184.5 -68t73.5 -173q0 -69 -29 -115t-78 -68v-6q63 -16 108.5 -76t45.5 -145q0 -116 -87.5 -191t-219.5 -75q-133 0 -222.5 74.5t-89.5 189.5
q0 85 46.5 146t109.5 77v6q-49 22 -79 68t-30 113q0 106 76.5 174.5t190.5 68.5zM1561 754q-60 0 -95.5 -34.5t-35.5 -96.5t35 -98t96 -36t96 36t35 98q0 63 -35 97t-96 34zM1561 377q-79 0 -124.5 -40.5t-45.5 -111.5t46.5 -113t123.5 -42q78 0 124 41t46 114
q0 71 -45.5 111.5t-124.5 40.5z" />
    <glyph glyph-name="fiveeighths" unicode="&#x215d;" horiz-adv-x="1984" 
d="M662 1475v-121h-353l-22 -250h10q48 78 152 78q118 0 192 -83t74 -222q0 -145 -77.5 -228.5t-207.5 -83.5q-141 0 -222 85.5t-75 228.5h131q-3 -95 37.5 -145t122.5 -50q154 0 154 184q0 95 -42 148t-112 53q-53 0 -95 -25t-65 -71h-114l45 502h467zM1452 1466h135
l-1014 -1499h-135zM1565 868q111 0 184.5 -68t73.5 -173q0 -69 -29 -115t-78 -68v-6q63 -16 108.5 -76t45.5 -145q0 -116 -87.5 -191t-219.5 -75q-133 0 -222.5 74.5t-89.5 189.5q0 85 46.5 146t109.5 77v6q-49 22 -79 68t-30 113q0 106 76.5 174.5t190.5 68.5zM1561 754
q-60 0 -95.5 -34.5t-35.5 -96.5t35 -98t96 -36t96 36t35 98q0 63 -35 97t-96 34zM1561 377q-79 0 -124.5 -40.5t-45.5 -111.5t46.5 -113t123.5 -42q78 0 124 41t46 114q0 71 -45.5 111.5t-124.5 40.5z" />
    <glyph glyph-name="seveneighths" unicode="&#x215e;" horiz-adv-x="1843" 
d="M205 573l325 764v17h-378v121h546v-95l-342 -807h-151zM1311 1466h135l-1014 -1499h-135zM1423 868q111 0 184.5 -68t73.5 -173q0 -136 -106 -183v-6q63 -16 108.5 -76t45.5 -145q0 -116 -88 -191t-220 -75q-133 0 -222 74.5t-89 189.5q0 85 46.5 146t109.5 77v6
q-49 22 -79 68t-30 113q0 106 76 174.5t190 68.5zM1419 754q-60 0 -95.5 -34.5t-35.5 -96.5t35 -98t96 -36t96 36t35 98q0 63 -35 97t-96 34zM1419 377q-79 0 -124.5 -40.5t-45.5 -111.5t46.5 -113t123.5 -42q78 0 124 41t46 114q0 71 -45.5 111.5t-124.5 40.5z" />
    <glyph glyph-name="arrowleft" unicode="&#x2190;" horiz-adv-x="1228" 
d="M688 1110l17 -8l-35 -254h434v-262h-434l35 -254l-17 -8l-563 393z" />
    <glyph glyph-name="arrowup" unicode="&#x2191;" horiz-adv-x="1228" 
d="M1008 643l-9 -16l-254 35v-435h-262v435l-254 -35l-8 16l393 563z" />
    <glyph glyph-name="arrowright" unicode="&#x2192;" horiz-adv-x="1228" 
d="M541 324l-17 8l35 254h-434v262h434l-35 254l17 8l563 -393z" />
    <glyph glyph-name="arrowdown" unicode="&#x2193;" horiz-adv-x="1228" 
d="M221 791l8 16l254 -35v434h262v-434l254 35l9 -16l-394 -564z" />
    <glyph glyph-name="arrowboth" unicode="&#x2194;" horiz-adv-x="1228" 
d="M760 1110l502 -393l-502 -393l-17 8l35 254h-327l34 -254l-16 -8l-502 393l502 393l16 -8l-34 -254h327l-35 254z" />
    <glyph glyph-name="arrowupdn" unicode="&#x2195;" horiz-adv-x="1228" 
d="M745 483l254 35l9 -16l-394 -502l-393 502l8 16l254 -35v467l-254 -35l-8 17l393 502l394 -502l-9 -17l-254 35v-467z" />
    <glyph glyph-name="uni2196" unicode="&#x2196;" horiz-adv-x="1228" 
d="M944 942l6 -18l-205 -154l308 -307l-187 -187l-307 308l-153 -203l-19 4l-119 678z" />
    <glyph glyph-name="uni2197" unicode="&#x2197;" horiz-adv-x="1228" 
d="M840 387l-19 -6l-153 205l-308 -307l-186 186l307 307l-202 154l4 18l678 119z" />
    <glyph glyph-name="uni2198" unicode="&#x2198;" horiz-adv-x="1228" 
d="M285 492l-6 18l204 154l-307 307l186 186l308 -307l153 203l19 -4l119 -678z" />
    <glyph glyph-name="uni2199" unicode="&#x2199;" horiz-adv-x="1228" 
d="M389 1047l19 6l153 -205l307 307l187 -186l-307 -307l202 -154l-4 -19l-678 -118z" />
    <glyph glyph-name="partialdiff" unicode="&#x2202;" horiz-adv-x="1228" 
d="M403 1540q66 -15 128 -37.5t130 -60t125.5 -84.5t111 -114.5t90.5 -147.5t59 -185.5t22 -226.5q0 -104 -15.5 -201.5t-52.5 -191t-92 -162.5t-141.5 -111.5t-194.5 -42.5q-189 0 -313.5 119.5t-124.5 337.5q0 141 53 258t155.5 187.5t234.5 70.5q197 0 319 -160h10
q-6 115 -42 211t-89 161t-125 116t-141.5 80.5t-147.5 48.5zM565 123q75 0 133.5 30t95 79t60.5 119t33.5 143.5t9.5 158.5q-56 88 -121.5 122t-146.5 34q-76 0 -135.5 -24.5t-94.5 -62.5t-57.5 -90t-30.5 -99.5t-8 -98.5q0 -141 65 -226t197 -85z" />
    <glyph glyph-name="emptyset" unicode="&#x2205;" horiz-adv-x="1421" 
d="M1151 924q135 -158 135 -369q0 -158 -77 -290.5t-209.5 -208.5t-288.5 -76q-213 0 -371 133l-96 -97l-72 72l96 96q-133 162 -133 371q0 156 77.5 288.5t210 209.5t288.5 77q211 0 368 -135l99 99l71 -72zM303 555q0 -145 78 -258l590 590q-107 92 -260 92
q-123 0 -217.5 -59.5t-142.5 -155t-48 -209.5zM711 131q92 0 169.5 34.5t129 93t80 135.5t28.5 161q0 145 -78 258l-591 -592q111 -90 262 -90z" />
    <glyph glyph-name="product" unicode="&#x220f;" horiz-adv-x="1384" 
d="M1249 1434v-164h-200v-1573h-168v1573h-377v-1573h-168v1573h-201v164h1114z" />
    <glyph glyph-name="summation" unicode="&#x2211;" horiz-adv-x="1054" 
d="M920 1434v-164h-574l330 -658v-92l-330 -659h574v-164h-785v119l375 749l-375 750v119h785z" />
    <glyph glyph-name="minus" unicode="&#x2212;" horiz-adv-x="1228" 
d="M238 659h753v-131h-753v131z" />
    <glyph glyph-name="radical" unicode="&#x221a;" horiz-adv-x="1183" 
d="M866 1434h269v-164h-146l-549 -1573h-37l-354 1014h184l183 -578h16z" />
    <glyph glyph-name="infinity" unicode="&#x221e;" horiz-adv-x="1830" 
d="M502 1008q121 0 219 -64.5t194 -189.5q96 125 194.5 189.5t219.5 64.5q150 0 258.5 -110t108.5 -257q0 -70 -27 -137t-74 -120t-117 -85.5t-149 -32.5q-64 0 -119.5 18t-107 56.5t-92.5 79.5t-95 106q-54 -65 -94.5 -106t-92 -79.5t-107 -56.5t-119.5 -18
q-79 0 -149 32.5t-117 85.5t-74 120t-27 137q0 147 108.5 257t258.5 110zM823 641q-86 123 -163 180.5t-166 57.5q-87 0 -151 -66.5t-64 -171.5q0 -60 22.5 -115t72 -93t115.5 -38q52 0 97 17.5t86 55t67 68t68 84.5q11 14 16 21zM1337 879q-89 0 -166 -57.5t-163 -180.5
q85 -110 118 -143q101 -103 215 -103q66 0 115.5 38t72.5 93t23 115q0 105 -64 171.5t-151 66.5z" />
    <glyph glyph-name="integral" unicode="&#x222b;" horiz-adv-x="913" 
d="M850 1311q-84 24 -117 24q-95 0 -117 -161l-172 -1205q-22 -151 -80.5 -215.5t-152.5 -64.5q-78 0 -162 20l14 148q6 -2 21 -8t21 -8t19 -6t21.5 -6t20 -3.5t22.5 -1.5q40 0 58 23.5t26 78.5l183 1278q22 151 83 210t167 59q51 0 159 -15z" />
    <glyph glyph-name="approxequal" unicode="&#x2248;" horiz-adv-x="1228" 
d="M180 625q0 127 66 211t178 84q52 0 97.5 -20.5t78 -50t63 -58.5t66 -49.5t72.5 -20.5q114 0 114 164h134q0 -128 -66 -212.5t-178 -84.5q-52 0 -97.5 20.5t-78 49.5t-63 58t-66 49.5t-72.5 20.5q-60 0 -87.5 -44t-27.5 -117h-133zM180 215q0 127 66 211t178 84
q52 0 97.5 -20.5t78 -50t63 -58.5t66 -49.5t72.5 -20.5q114 0 114 164h134q0 -128 -66 -212.5t-178 -84.5q-52 0 -97.5 20.5t-78 50t-63 58.5t-66 49.5t-72.5 20.5q-60 0 -87.5 -44.5t-27.5 -117.5h-133z" />
    <glyph glyph-name="notequal" unicode="&#x2260;" horiz-adv-x="1228" 
d="M991 735h-258l-117 -278h375v-131h-430l-84 -203h-123l84 203h-200v131h256l116 278h-372v131h428l86 205h122l-86 -205h203v-131z" />
    <glyph glyph-name="lessequal" unicode="&#x2264;" horiz-adv-x="1228" 
d="M1073 934l-741 -250v-16l741 -250v-144l-917 332v139l917 332v-143zM1073 131v-131h-917v131h917z" />
    <glyph glyph-name="greaterequal" unicode="&#x2265;" horiz-adv-x="1228" 
d="M156 934v143l917 -332v-139l-917 -332v144l741 250v16zM156 131h917v-131h-917v131z" />
    <glyph glyph-name="lozenge" unicode="&#x25ca;" horiz-adv-x="1228" 
d="M643 1434l322 -717l-322 -717h-160l-321 717l321 717h160zM578 178l215 539l-215 538h-25l-215 -538l215 -539h25z" />
    <glyph glyph-name="uni2605" unicode="&#x2605;" horiz-adv-x="1417" 
d="M123 670q0 148 39.5 289t111.5 254.5t185.5 183t249.5 69.5q110 0 205.5 -45.5t164 -123t118 -179.5t73.5 -216t24 -232q0 -159 -46 -291.5t-125 -221t-186 -137.5t-228 -49t-228 49t-186.5 137.5t-125.5 221t-46 291.5z" />
    <glyph glyph-name="heart" unicode="&#x2665;" horiz-adv-x="1802" 
d="M901 20l-348 291q-64 54 -102 87.5t-87.5 82.5t-77.5 90t-55 93t-39 109.5t-12 121.5q0 186 108 282.5t285 96.5q191 0 328 -117q137 117 328 117q177 0 285 -96.5t108 -282.5q0 -55 -10.5 -106.5t-26 -93.5t-45 -86.5t-56 -77.5t-71 -75t-77.5 -71t-87 -74z" />
    <glyph glyph-name="uni00A40301" horiz-adv-x="1388" 
d="M1063 1815l-217 -263h-139l167 263h189zM1204 1434v-861q0 -279 -134 -440.5t-380 -161.5q-137 0 -245.5 52.5t-175.5 144t-101.5 210.5t-32.5 257h168q-1 -72 11.5 -142t42 -136.5t73 -117t110.5 -81.5t148 -31q168 0 258 117.5t90 330.5v695h-458v164h626z" />
    <glyph glyph-name="i.loclTRK" horiz-adv-x="475" 
d="M238 1229q-46 0 -77.5 31t-31.5 77t31.5 77.5t77.5 31.5t77 -31.5t31 -77.5t-31 -77t-77 -31zM156 1110h163v-1110h-163v1110z" />
    <glyph glyph-name="uni006A0301" horiz-adv-x="481" 
d="M231 1491h189l-217 -262h-140zM162 1110h164v-1182q0 -155 -69.5 -232t-190.5 -77q-45 0 -93.5 17.5t-83.5 44.5l39 106q62 -20 107 -20q70 0 98.5 41.5t28.5 144.5v1157z" />
    <glyph glyph-name="F_J" horiz-adv-x="2043" 
d="M946 662h-606v-662h-168v1434h795v-164h-627v-445h606v-163zM1233 1434h627v-861q0 -279 -134 -440.5t-380 -161.5q-171 0 -293 78t-187 215l140 107q44 -111 128.5 -177.5t208.5 -66.5q168 0 258.5 117.5t90.5 330.5v695h-459v164z" />
    <glyph glyph-name="T_J" horiz-adv-x="2281" 
d="M1204 1270h-463v-1270h-168v1270h-450v164h1081v-164zM1470 1434h627v-861q0 -279 -134 -440.5t-380 -161.5q-171 0 -292 78t-187 215l139 107q44 -111 129 -177.5t209 -66.5q168 0 258 117.5t90 330.5v695h-459v164z" />
    <glyph glyph-name="f_b" horiz-adv-x="1910" 
d="M1376 1130q107 0 193.5 -49.5t140.5 -132t82.5 -186.5t28.5 -217q0 -133 -38.5 -242t-103 -178.5t-147 -107t-172.5 -37.5q-88 0 -176.5 32.5t-155.5 85.5l-22 -98h-127v1577h163v-567q161 120 334 120zM227 1264q0 154 70 231.5t192 77.5q101 0 177 -47v-137
q-85 36 -148 36q-70 0 -98.5 -40.5t-28.5 -145.5v-129h275v-127h-275v-983h-164v983h-161v127h161v154zM1331 127q145 0 232.5 106t87.5 316q0 92 -18.5 169.5t-56.5 138.5t-101.5 95.5t-147.5 34.5q-159 0 -285 -113v-659q65 -42 142.5 -65t146.5 -23z" />
    <glyph glyph-name="f_h" horiz-adv-x="1937" 
d="M1403 1130q85 0 151.5 -23t108.5 -61.5t69.5 -93t38.5 -112.5t11 -125v-715h-164v662q0 78 -11.5 135t-39.5 102.5t-78 68.5t-123 23q-90 0 -178 -36t-146 -115v-840h-163v1577h163v-590q143 143 361 143zM227 1264q0 154 70 231.5t192 77.5q101 0 177 -47v-137
q-85 36 -148 36q-70 0 -98.5 -40.5t-28.5 -145.5v-129h275v-127h-275v-983h-164v983h-161v127h161v154z" />
    <glyph glyph-name="f_j" horiz-adv-x="1206" 
d="M666 983h-275v-983h-164v983h-161v127h161v154q0 154 70 231.5t192 77.5q101 0 177 -47v-137q-85 36 -148 36q-70 0 -98.5 -40.5t-28.5 -145.5v-129h275v-127zM965 1298q-45 0 -76 28.5t-31 80.5q0 54 30 95.5t77 41.5t76.5 -41.5t29.5 -95.5q0 -52 -30 -80.5t-76 -28.5z
M883 -47v1157h164v-1182q0 -155 -69.5 -232t-191.5 -77q-45 0 -93 17.5t-83 44.5l39 106q62 -20 107 -20q70 0 98.5 41.5t28.5 144.5z" />
    <glyph glyph-name="f_k" horiz-adv-x="1804" 
d="M1266 637l489 -637h-209l-383 510h-16l-105 -113v-397h-163v1577h163v-961h17l444 494h201zM227 1264q0 154 70 231.5t192 77.5q101 0 177 -47v-137q-85 36 -148 36q-70 0 -98.5 -40.5t-28.5 -145.5v-129h275v-127h-275v-983h-164v983h-161v127h161v154z" />
    <glyph glyph-name="F_j.sc" horiz-adv-x="1990" 
d="M946 662h-606v-662h-168v1434h795v-164h-627v-445h606v-163zM1233 1274h590v-768q0 -246 -123 -389.5t-346 -143.5q-171 0 -296 77.5t-190 213.5l140 109q42 -109 131.5 -177.5t212.5 -68.5q147 0 225 100t78 281v606h-422v160z" />
    <glyph glyph-name="T_j.sc" horiz-adv-x="2228" 
d="M1204 1270h-463v-1270h-168v1270h-450v164h1081v-164zM1470 1274h590v-768q0 -246 -123 -389.5t-346 -143.5q-171 0 -295.5 77.5t-189.5 213.5l139 109q42 -109 131.5 -177.5t212.5 -68.5q147 0 225 100t78 281v606h-422v160z" />
    <glyph glyph-name="a.sc" horiz-adv-x="1239" 
d="M989 0l-121 358h-501l-121 -358h-180l436 1274h235l437 -1274h-185zM416 508h403l-194 579h-15z" />
    <glyph glyph-name="aacute.sc" horiz-adv-x="1239" 
d="M610 1655h189l-217 -262h-140zM989 0l-121 358h-501l-121 -358h-180l436 1274h235l437 -1274h-185zM416 508h403l-194 579h-15z" />
    <glyph glyph-name="abreve.sc" horiz-adv-x="1239" 
d="M442 1655q0 -24 8.5 -50t27 -53t56 -44t87.5 -17t87.5 17t56 44t26.5 53t8 50h135q0 -49 -21 -97.5t-59.5 -88.5t-99.5 -64.5t-133 -24.5q-142 0 -228 85t-86 190h135zM989 0l-121 358h-501l-121 -358h-180l436 1274h235l437 -1274h-185zM416 508h403l-194 579h-15z" />
    <glyph glyph-name="uni1EAF.sc" horiz-adv-x="1239" 
d="M610 1954h189l-217 -262h-140zM442 1655q0 -24 8.5 -50t27 -53t56 -44t87.5 -17t87.5 17t56 44t26.5 53t8 50h135q0 -49 -21 -97.5t-59.5 -88.5t-99.5 -64.5t-133 -24.5q-142 0 -228 85t-86 190h135zM989 0l-121 358h-501l-121 -358h-180l436 1274h235l437 -1274h-185z
M416 508h403l-194 579h-15z" />
    <glyph glyph-name="uni1EB7.sc" horiz-adv-x="1239" 
d="M442 1655q0 -24 8.5 -50t27 -53t56 -44t87.5 -17t87.5 17t56 44t26.5 53t8 50h135q0 -49 -21 -97.5t-59.5 -88.5t-99.5 -64.5t-133 -24.5q-142 0 -228 85t-86 190h135zM989 0l-121 358h-501l-121 -358h-180l436 1274h235l437 -1274h-185zM416 508h403l-194 579h-15z
M614 -315q-46 0 -77 31t-31 77t31 77.5t77 31.5t77.5 -31.5t31.5 -77.5t-31.5 -77t-77.5 -31z" />
    <glyph glyph-name="uni1EB1.sc" horiz-adv-x="1239" 
d="M631 1954l168 -262h-140l-217 262h189zM442 1655q0 -24 8.5 -50t27 -53t56 -44t87.5 -17t87.5 17t56 44t26.5 53t8 50h135q0 -49 -21 -97.5t-59.5 -88.5t-99.5 -64.5t-133 -24.5q-142 0 -228 85t-86 190h135zM989 0l-121 358h-501l-121 -358h-180l436 1274h235l437 -1274
h-185zM416 508h403l-194 579h-15z" />
    <glyph glyph-name="uni1EB3.sc" horiz-adv-x="1239" 
d="M453 1933q70 17 122 17q106 0 159.5 -36.5t53.5 -103.5q0 -78 -63.5 -118.5t-175.5 -57.5v74q56 15 78 35t22 53q0 70 -92 70q-19 0 -104 -13v80zM442 1655q0 -24 8.5 -50t27 -53t56 -44t87.5 -17t87.5 17t56 44t26.5 53t8 50h135q0 -49 -21 -97.5t-59.5 -88.5
t-99.5 -64.5t-133 -24.5q-142 0 -228 85t-86 190h135zM989 0l-121 358h-501l-121 -358h-180l436 1274h235l437 -1274h-185zM416 508h403l-194 579h-15z" />
    <glyph glyph-name="uni1EB5.sc" horiz-adv-x="1239" 
d="M928 1925q15 -105 -36 -169t-140 -64q-38 0 -70.5 13.5t-55 33t-42 38.5t-42 32.5t-46.5 13.5q-41 0 -65 -31.5t-11 -87.5h-107q-15 105 36 169t140 64q46 0 86 -20.5t63.5 -45t53.5 -45t60 -20.5q39 0 60.5 30t8.5 89h107zM442 1655q0 -24 8.5 -50t27 -53t56 -44
t87.5 -17t87.5 17t56 44t26.5 53t8 50h135q0 -49 -21 -97.5t-59.5 -88.5t-99.5 -64.5t-133 -24.5q-142 0 -228 85t-86 190h135zM989 0l-121 358h-501l-121 -358h-180l436 1274h235l437 -1274h-185zM416 508h403l-194 579h-15z" />
    <glyph glyph-name="uni01CE.sc" horiz-adv-x="1239" 
d="M307 1655h148l155 -166h21l155 166h148l-254 -262h-119zM989 0l-121 358h-501l-121 -358h-180l436 1274h235l437 -1274h-185zM416 508h403l-194 579h-15z" />
    <glyph glyph-name="acircumflex.sc" horiz-adv-x="1239" 
d="M307 1393l254 262h119l254 -262h-148l-155 166h-21l-155 -166h-148zM989 0l-121 358h-501l-121 -358h-180l436 1274h235l437 -1274h-185zM416 508h403l-194 579h-15z" />
    </font>
</defs>
</svg>
