<?xml version="1.0" standalone="no"?>
<!DOCTYPE svg PUBLIC "-//W3C//DTD SVG 1.1//EN" "http://www.w3.org/Graphics/SVG/1.1/DTD/svg11.dtd" >
<svg xmlns="http://www.w3.org/2000/svg" xmlns:xlink="http://www.w3.org/1999/xlink" version="1.1">
<metadata>
Created by FontForge 20170731 at Wed Mar 17 01:27:53 2021
 By Aleksey,,,
Copyright (c) 2019 by Paulo Goode. All rights reserved.
</metadata>
<defs>
<font id="Yolk-Light" horiz-adv-x="1228" >
  <font-face 
    font-family="Yolk Light"
    font-weight="300"
    font-stretch="normal"
    units-per-em="2048"
    panose-1="1 0 0 0 0 0 0 0 0 0"
    ascent="1638"
    descent="-410"
    x-height="1110"
    cap-height="1434"
    bbox="-922 -459 2288 2138"
    underline-thickness="102"
    underline-position="-358"
    unicode-range="U+000D-FB02"
  />
<missing-glyph 
d="M0 1638h1229v-2048h-1229v2048zM1198 -379v1987h-1167v-1987h1167zM373 291l-62 61l242 242l-242 242l62 61l241 -242l242 242l62 -61l-242 -242l242 -242l-62 -61l-242 241z" />
    <glyph glyph-name="fi" unicode="fi" horiz-adv-x="1193" 
d="M248 1276q0 145 65.5 220t182.5 75q95 0 178 -49v-92q-81 43 -160 43q-82 0 -121 -50.5t-39 -162.5v-150h318v-84h-318v-1026h-106v1026h-176v84h176v166zM967 1520q35 0 56 -30t21 -69q0 -40 -21 -60t-56 -20q-33 0 -55.5 20.5t-22.5 59.5t22 69t56 30zM913 0v1110h109
v-1110h-109z" />
    <glyph glyph-name="fl" unicode="fl" horiz-adv-x="1183" 
d="M909 1577h107v-1577h-107v1577zM248 1276q0 145 65.5 220t182.5 75q95 0 178 -49v-92q-81 43 -160 43q-82 0 -121 -50.5t-39 -162.5v-150h318v-84h-318v-1026h-106v1026h-176v84h176v166z" />
    <glyph glyph-name=".notdef" 
d="M0 1638h1229v-2048h-1229v2048zM1198 -379v1987h-1167v-1987h1167zM373 291l-62 61l242 242l-242 242l62 61l241 -242l242 242l62 -61l-242 -242l242 -242l-62 -61l-242 241z" />
    <glyph glyph-name="uni0000" horiz-adv-x="0" 
 />
    <glyph glyph-name="uni0000" horiz-adv-x="0" 
 />
    <glyph glyph-name="uni000D" unicode="&#xd;" horiz-adv-x="512" 
 />
    <glyph glyph-name="space" unicode=" " horiz-adv-x="452" 
 />
    <glyph glyph-name="exclam" unicode="!" horiz-adv-x="628" 
d="M256 1434h127l-14 -1014h-99zM223 84q0 45 24 78t66 33t67.5 -33.5t25.5 -77.5q0 -46 -25 -73t-68 -27q-40 0 -65 27.5t-25 72.5z" />
    <glyph glyph-name="quotedbl" unicode="&#x22;" horiz-adv-x="874" 
d="M207 1507h98v-598h-98v598zM569 1507h97v-598h-97v598z" />
    <glyph glyph-name="numbersign" unicode="#" horiz-adv-x="1492" 
d="M1366 924h-311l-70 -406h307l-14 -86h-309l-76 -432h-86l76 432h-406l-76 -432h-86l76 432h-278l14 86h281l69 406h-276l14 86h279l75 432h86l-75 -432h405l76 432h86l-76 -432h309zM899 518l70 406h-406l-69 -406h405z" />
    <glyph glyph-name="dollar" unicode="$" horiz-adv-x="1243" 
d="M1145 430q0 -183 -128 -302.5t-327 -127.5l8 -197h-114l8 201q-165 20 -291 113t-166 221l88 53q57 -126 170.5 -208.5t265.5 -82.5q160 0 266.5 88t106.5 230q0 85 -44.5 144.5t-115 92.5t-156 58.5t-171.5 52t-156.5 62t-115 100.5t-44.5 157q0 139 95 235.5t266 111.5
l-6 172h114l-6 -172q202 -11 348 -142l-65 -82q-132 127 -334 127q-140 0 -220.5 -60t-80.5 -169q0 -78 44.5 -131.5t115.5 -83.5t156.5 -54t171.5 -52.5t157 -68t115.5 -112t44.5 -174.5z" />
    <glyph glyph-name="percent" unicode="%" horiz-adv-x="1636" 
d="M393 784q-149 0 -241.5 95.5t-92.5 238.5q0 140 92.5 237t241.5 97q147 0 239.5 -97t92.5 -237q0 -142 -92 -238t-240 -96zM1174 1434h98l-869 -1434h-98zM393 877q102 0 165 66.5t63 174.5q0 104 -63.5 173t-164.5 69q-103 0 -166 -68.5t-63 -173.5q0 -108 62.5 -174.5
t166.5 -66.5zM1184 -18q-148 0 -240 95.5t-92 237.5q0 140 92.5 237t239.5 97q149 0 241.5 -97t92.5 -237q0 -142 -92.5 -237.5t-241.5 -95.5zM1184 74q104 0 166.5 66.5t62.5 174.5q0 105 -63 173.5t-166 68.5q-101 0 -164.5 -69t-63.5 -173q0 -108 63 -174.5t165 -66.5z
" />
    <glyph glyph-name="ampersand" unicode="&#x26;" horiz-adv-x="1482" 
d="M1417 0h-147l-195 197q-191 -215 -491 -215q-71 0 -136 12.5t-126.5 41.5t-107 72t-72.5 109.5t-27 149.5q0 68 19 125.5t47 98.5t78.5 81.5t95 68t114.5 64.5q-46 45 -69.5 69t-56 63.5t-48 69.5t-27.5 69.5t-12 80.5q0 136 100 215.5t252 79.5q64 0 124 -14.5t115 -45
t88.5 -87t33.5 -131.5q0 -65 -24 -120t-74 -102t-103 -82.5t-133 -78.5l430 -435q104 188 104 465h111q0 -325 -141 -540zM369 1153q0 -30 11 -61t22.5 -52.5t45.5 -59t51 -55t68 -67.5q81 43 126 70.5t89.5 65.5t63 79t18.5 92q0 55 -23 95t-62 60.5t-79 29t-84 8.5
q-111 0 -179 -55.5t-68 -149.5zM590 80q261 0 414 188l-467 469q-142 -76 -189 -111q-101 -78 -117 -190q-4 -26 -4 -55q0 -79 28.5 -138t79.5 -94t115 -52t140 -17z" />
    <glyph glyph-name="quotesingle" unicode="'" horiz-adv-x="512" 
d="M207 1507h98v-598h-98v598z" />
    <glyph glyph-name="parenleft" unicode="(" horiz-adv-x="679" 
d="M526 1507l62 -47q-132 -235 -196 -427.5t-64 -424.5q0 -233 64.5 -431t195.5 -433l-62 -47q-158 231 -234.5 446.5t-76.5 464.5q0 247 76 456.5t235 442.5z" />
    <glyph glyph-name="parenright" unicode=")" horiz-adv-x="679" 
d="M154 1507q159 -233 235 -442.5t76 -456.5q0 -249 -76.5 -464.5t-234.5 -446.5l-62 47q131 235 195.5 433t64.5 431q0 232 -64 424.5t-196 427.5z" />
    <glyph glyph-name="asterisk" unicode="*" horiz-adv-x="935" 
d="M774 1352l-242 -125l242 -127l-43 -78l-231 147l12 -274h-88l12 274l-231 -147l-43 78l241 127l-241 125l43 78l231 -148l-12 274h88l-12 -274l231 148z" />
    <glyph glyph-name="plus" unicode="+" 
d="M991 637v-86h-329v-334h-95v334h-329v86h329v334h95v-334h329z" />
    <glyph glyph-name="comma" unicode="," horiz-adv-x="628" 
d="M313 195q44 0 68.5 -38.5t24.5 -105.5q0 -85 -36.5 -174t-115.5 -151l-31 59q91 86 86 201q-38 0 -62 26.5t-24 71.5t24 78t66 33z" />
    <glyph glyph-name="hyphen" unicode="-" horiz-adv-x="1089" 
d="M254 614h582v-86h-582v86z" />
    <glyph glyph-name="period" unicode="." horiz-adv-x="628" 
d="M223 84q0 45 24 78t66 33t67.5 -33.5t25.5 -77.5q0 -46 -25 -73t-68 -27q-40 0 -65 27.5t-25 72.5z" />
    <glyph glyph-name="slash" unicode="/" horiz-adv-x="796" 
d="M688 1638h98l-710 -1941h-99z" />
    <glyph glyph-name="zero" unicode="0" horiz-adv-x="1298" 
d="M145 678q0 118 17 226.5t55.5 209.5t96 175t143.5 118.5t192 44.5t192 -44.5t143.5 -118.5t96 -175t55.5 -209.5t17 -226.5q0 -330 -134.5 -513t-369.5 -183t-369.5 183t-134.5 513zM258 680q0 -285 101.5 -441.5t289.5 -156.5t289.5 156.5t101.5 441.5q0 103 -13 197.5
t-42.5 183t-73.5 153t-111.5 103.5t-150.5 39t-150.5 -39t-111.5 -103.5t-73.5 -153t-42.5 -183t-13 -197.5z" />
    <glyph glyph-name="one" unicode="1" horiz-adv-x="882" 
d="M82 1145l446 289h97v-1434h-107v1300h-12l-381 -243z" />
    <glyph glyph-name="two" unicode="2" horiz-adv-x="1234" 
d="M264 1042h-102q0 47 18 101t56.5 109t91 99.5t130 72.5t165.5 28q87 0 163 -25t137 -74.5t96.5 -132t35.5 -188.5q0 -81 -19.5 -150t-63 -133t-88 -113t-118.5 -120l-420 -412v-10h744v-94h-908l-6 74l522 512q50 48 83 83t67 79.5t53.5 85t32 90.5t12.5 104
q0 90 -29 156.5t-78 103t-105 53.5t-118 17q-83 0 -152 -30t-111.5 -77.5t-65.5 -102t-23 -106.5z" />
    <glyph glyph-name="three" unicode="3" horiz-adv-x="1251" 
d="M809 764q56 -15 103.5 -42t88 -68t63.5 -101.5t23 -132.5q0 -116 -53.5 -215t-158 -161t-240.5 -62q-91 0 -175 28.5t-154.5 84t-113 149.5t-42.5 213h106q0 -95 31.5 -168.5t85.5 -117.5t120.5 -66.5t141.5 -22.5q110 0 188.5 47.5t114 120t35.5 160.5q0 135 -88 220
t-223 85h-158v94h151q134 0 211.5 73.5t77.5 190.5q0 131 -94 208t-229 77q-158 0 -255.5 -95t-97.5 -221h-102q0 72 32 143t89 130.5t146.5 97.5t195.5 39q188 1 306 -107t118 -260q0 -117 -71 -203t-173 -110v-8z" />
    <glyph glyph-name="four" unicode="4" horiz-adv-x="1265" 
d="M1137 487v-102h-217v-385h-107v385h-725v84l690 965h142v-947h217zM225 487h588v809h-12l-576 -796v-13z" />
    <glyph glyph-name="five" unicode="5" horiz-adv-x="1265" 
d="M1020 1434l2 -103h-657l-50 -551h11q52 70 146 120t214 50q79 0 152.5 -27.5t136 -82.5t100 -150t37.5 -217q0 -220 -120 -355.5t-339 -135.5q-97 0 -181.5 28t-153 83.5t-108.5 149t-40 214.5h109q0 -187 102 -281t266 -94q176 0 264 104t88 275q0 184 -95.5 289.5
t-244.5 105.5q-127 0 -221 -59.5t-139 -143.5l-96 -2l73 783h744z" />
    <glyph glyph-name="six" unicode="6" horiz-adv-x="1265" 
d="M664 950q86 0 159.5 -26t126 -71.5t89.5 -107t55 -131.5t18 -145q0 -68 -14.5 -133.5t-49.5 -130.5t-86 -114t-131 -79t-178 -30q-244 0 -376 181t-132 523q0 229 56 399.5t173 268.5t283 98q181 0 286.5 -110t119.5 -295h-100q-14 135 -96.5 222t-215.5 87
q-128 0 -217.5 -86.5t-132.5 -235t-43 -346.5v-39h10q10 49 38 98.5t74.5 96.5t120.5 76.5t163 29.5zM657 82q87 0 155 31t107.5 84.5t59.5 118t20 137.5q0 58 -12 114t-39.5 109t-67.5 92.5t-100 63.5t-133 24q-74 0 -143 -28.5t-122.5 -79.5t-81 -132t-17.5 -178h-2
q79 -356 376 -356z" />
    <glyph glyph-name="seven" unicode="7" horiz-adv-x="1050" 
d="M203 0l624 1319v12h-747v103h881v-91l-631 -1343h-127z" />
    <glyph glyph-name="eight" unicode="8" horiz-adv-x="1265" 
d="M639 1452q110 0 205 -44t155 -131.5t60 -201.5q0 -120 -67.5 -200.5t-186.5 -108.5v-4q150 -21 241 -123t91 -240q0 -113 -62 -207.5t-178 -152t-262 -57.5q-218 0 -362 119t-144 294q0 140 91 241t243 124v6q-118 28 -185 108t-67 199q0 114 62.5 202.5t158.5 132.5
t207 44zM635 1356q-139 0 -227.5 -80t-88.5 -207q0 -115 79 -190.5t235 -75.5q158 0 237.5 75.5t79.5 190.5q0 127 -87.5 207t-227.5 80zM633 709q-185 0 -287 -81t-102 -220q0 -147 112 -236.5t277 -89.5q166 0 276.5 90t110.5 236q0 139 -102 220t-285 81z" />
    <glyph glyph-name="nine" unicode="9" horiz-adv-x="1265" 
d="M172 401h100q15 -144 117 -233.5t248 -89.5q359 0 371 616q0 34 -4 88h-9q-12 -55 -42 -105t-78.5 -95t-123.5 -72t-167 -27q-86 0 -158.5 28t-121.5 75t-83.5 109t-50.5 130t-16 138q0 93 32.5 180.5t91 156.5t149 110.5t198.5 41.5q227 0 361 -192t134 -543
q0 -355 -122 -545t-367 -190q-194 0 -319 113t-140 306zM606 578q96 0 171.5 33t119 87t66 116.5t22.5 127.5q-15 188 -114 299t-246 111q-73 0 -137.5 -26.5t-114 -76.5t-78.5 -128.5t-29 -176.5q0 -44 10 -91t35 -97t62.5 -89t98 -64t134.5 -25z" />
    <glyph glyph-name="colon" unicode=":" horiz-adv-x="628" 
d="M223 905q0 44 24 76.5t66 32.5t67.5 -32.5t25.5 -76.5q0 -46 -25 -73t-68 -27q-40 0 -65 27.5t-25 72.5zM223 84q0 45 24 78t66 33t67.5 -33.5t25.5 -77.5q0 -46 -25 -73t-68 -27q-40 0 -65 27.5t-25 72.5z" />
    <glyph glyph-name="semicolon" unicode=";" horiz-adv-x="628" 
d="M223 905q0 44 24 76.5t66 32.5t67.5 -32.5t25.5 -76.5q0 -46 -25 -73t-68 -27q-40 0 -65 27.5t-25 72.5zM313 195q44 0 68.5 -38.5t24.5 -105.5q0 -85 -36.5 -174t-115.5 -151l-31 59q91 86 86 201q-38 0 -62 26.5t-24 71.5t24 78t66 33z" />
    <glyph glyph-name="less" unicode="&#x3c;" 
d="M1073 981l-809 -401v-13l809 -401v-96l-917 456v95l917 456v-96z" />
    <glyph glyph-name="equal" unicode="=" 
d="M238 844h753v-86h-753v86zM238 434h753v-86h-753v86z" />
    <glyph glyph-name="greater" unicode="&#x3e;" 
d="M156 981v96l917 -456v-95l-917 -456v96l809 401v13z" />
    <glyph glyph-name="question" unicode="?" horiz-adv-x="1142" 
d="M569 420h-108v63q0 75 23 134t59.5 97.5t81 71t89 62t81 62t59.5 79.5t23 107q0 56 -17.5 101t-47 74t-69.5 48.5t-83.5 28t-90.5 8.5q-49 0 -93 -9.5t-85.5 -33t-71 -60t-46 -94t-13.5 -131.5h-108q-4 104 29 186.5t92.5 133.5t135.5 77.5t162 26.5q56 0 112 -10.5
t112 -37t98.5 -65t69 -100t26.5 -137.5q0 -67 -23 -122.5t-60 -93t-82 -71t-90 -65t-82 -66t-60 -83t-23 -107.5v-74zM432 84q0 45 24 78t66 33t67 -33.5t25 -77.5q0 -46 -24.5 -73t-67.5 -27q-40 0 -65 27.5t-25 72.5z" />
    <glyph glyph-name="at" unicode="@" horiz-adv-x="1923" 
d="M995 1395q123 0 240.5 -31t221 -93.5t182 -150t124 -208.5t45.5 -261q0 -85 -16 -162.5t-51.5 -147.5t-86 -121t-125 -81t-163.5 -30q-101 0 -164 37t-72 102q-152 -111 -313 -111q-138 0 -216.5 90.5t-78.5 253.5q0 143 60.5 256t181 180.5t283.5 67.5t305 -65
l-107 -607q-9 -53 23 -82.5t108 -29.5q87 0 152 39t101 104.5t53.5 140.5t17.5 158q0 127 -39 235t-106 185t-157 131t-192 80t-211 26q-157 0 -297.5 -56t-246 -155.5t-167 -247t-61.5 -321.5q0 -177 63.5 -318.5t172.5 -231t250.5 -136.5t302.5 -47q143 0 313 37l16 -86
q-64 -18 -162.5 -32.5t-189.5 -14.5q-133 0 -260 34.5t-238 104t-195 167t-132.5 233t-48.5 292.5q0 191 72 356t193.5 277t281 176t333.5 64zM1133 311l94 545q-107 35 -207 35q-173 0 -279 -113.5t-106 -281.5q0 -135 55.5 -199t155.5 -64q131 0 287 78z" />
    <glyph glyph-name="A" unicode="A" horiz-adv-x="1339" 
d="M1155 0l-164 446h-645l-164 -446h-116l528 1434h154l526 -1434h-119zM383 549h571l-276 758h-16z" />
    <glyph glyph-name="B" unicode="B" horiz-adv-x="1310" 
d="M897 768q119 -24 192.5 -123t73.5 -244q0 -176 -116.5 -288.5t-331.5 -112.5h-529v1434h531q185 0 292 -94t107 -244q0 -126 -64.5 -215.5t-154.5 -112.5zM700 1325h-403v-514h461q58 0 103 18t70.5 45t42 64t22 71t5.5 70q0 118 -74 182t-227 64zM698 104
q96 0 166.5 24.5t109.5 68.5t57 95.5t18 113.5q0 135 -75 217t-216 82h-461v-601h401z" />
    <glyph glyph-name="C" unicode="C" horiz-adv-x="1417" 
d="M1135 928q-1 62 -14 120t-43.5 116t-76.5 100.5t-118 69t-162 26.5q-96 0 -175.5 -39.5t-132.5 -105.5t-89.5 -155t-53 -186.5t-16.5 -201.5q0 -273 124 -431.5t349 -158.5q96 0 170.5 27.5t120.5 71.5t75.5 105.5t40.5 124t11 132.5h112q0 -93 -18 -175t-58 -155
t-100.5 -125t-151 -82.5t-202.5 -30.5q-277 0 -433.5 189t-156.5 506q0 119 21 231t67 214.5t113 178.5t166.5 121t220.5 45q106 0 194.5 -31t148 -83.5t101 -121.5t60 -143.5t18.5 -152.5h-112z" />
    <glyph glyph-name="D" unicode="D" horiz-adv-x="1382" 
d="M606 1434q132 0 239 -39t180.5 -106.5t123 -160.5t72 -198t22.5 -221q0 -117 -22.5 -221t-71.5 -194t-120.5 -155t-175.5 -102t-230 -37h-437v1434h420zM629 104q114 0 203 35.5t143.5 92.5t90 137t49 161t13.5 172q0 104 -17 194t-56 170t-99 136.5t-150.5 89.5
t-205.5 33h-303v-1221h332z" />
    <glyph glyph-name="E" unicode="E" horiz-adv-x="1161" 
d="M981 1325h-684v-512h655v-106h-655v-596h684v-111h-795v1434h795v-109z" />
    <glyph glyph-name="F" unicode="F" horiz-adv-x="1140" 
d="M981 1325h-684v-528h664v-107h-664v-690h-111v1434h795v-109z" />
    <glyph glyph-name="G" unicode="G" horiz-adv-x="1441" 
d="M729 750h533v-277q0 -63 -17.5 -129t-59 -133t-101.5 -119t-152.5 -84.5t-204.5 -32.5q-275 0 -432.5 191.5t-157.5 515.5q0 92 13.5 181t42 177.5t76.5 163.5t112 133t154 90.5t198 32.5q101 0 185 -29t139.5 -76t95.5 -109t59.5 -124.5t24.5 -126.5h-113
q-7 68 -32.5 129.5t-71.5 116t-121.5 87t-171.5 32.5q-103 0 -186 -41.5t-135.5 -108.5t-87.5 -157t-49.5 -181.5t-14.5 -187.5q0 -285 126.5 -443.5t354.5 -158.5q92 0 165.5 26t119.5 67t76.5 96t42.5 109.5t12 111.5v157h-422v101z" />
    <glyph glyph-name="H" unicode="H" horiz-adv-x="1460" 
d="M1161 1434h111v-1434h-111v717h-864v-717h-111v1434h111v-611h864v611z" />
    <glyph glyph-name="I" unicode="I" horiz-adv-x="503" 
d="M197 1434h110v-1434h-110v1434z" />
    <glyph glyph-name="J" unicode="J" horiz-adv-x="1419" 
d="M1219 1434v-861q0 -279 -134 -438.5t-380 -159.5q-137 0 -245.5 51.5t-175.5 140t-101.5 201.5t-32.5 242h110q-1 -78 15 -152.5t51 -143.5t86 -121.5t126.5 -83.5t166.5 -31q195 0 299 131t104 366v750h-516v109h627z" />
    <glyph glyph-name="K" unicode="K" horiz-adv-x="1314" 
d="M588 791l647 -791h-152l-565 694h-16l-205 -227v-467h-111v1434h111v-805h14l715 805h139z" />
    <glyph glyph-name="L" unicode="L" horiz-adv-x="1122" 
d="M297 111h684v-111h-795v1434h111v-1323z" />
    <glyph glyph-name="M" unicode="M" horiz-adv-x="1722" 
d="M1534 1434v-1434h-111v1288h-12l-504 -1151h-92l-506 1151h-12v-1288h-111v1434h168l502 -1143h8l508 1143h162z" />
    <glyph glyph-name="N" unicode="N" horiz-adv-x="1439" 
d="M1141 1434h110v-1434h-100l-840 1239h-14v-1239h-111v1434h127l817 -1211h11v1211z" />
    <glyph glyph-name="O" unicode="O" horiz-adv-x="1447" 
d="M137 670q0 118 24.5 231.5t74 214.5t118 178t164 121.5t205.5 44.5t205.5 -44.5t164 -121.5t118 -178t74 -214.5t24.5 -231.5q0 -159 -46 -291t-125.5 -220t-186 -136t-228.5 -48t-228.5 48t-186 136t-125.5 220t-46 291zM254 674q0 -272 133 -432t336 -160
q204 0 337.5 160.5t133.5 431.5q0 128 -32 249.5t-90 219.5t-149 157.5t-200 59.5q-108 0 -198.5 -59.5t-148.5 -157.5t-90 -219.5t-32 -249.5z" />
    <glyph glyph-name="P" unicode="P" horiz-adv-x="1239" 
d="M602 1434q136 0 236.5 -36.5t158 -103t84.5 -148.5t27 -183q0 -121 -38 -218.5t-103 -159t-149 -94t-179 -32.5h-342v-459h-111v1434h416zM641 563q158 0 256 103t98 299q0 82 -19.5 144.5t-64 112.5t-124.5 76.5t-193 26.5h-297v-762h344z" />
    <glyph glyph-name="Q" unicode="Q" horiz-adv-x="1458" 
d="M1346 -164l22 -63q-62 -43 -158 -43q-132 0 -223 73t-110 193q-73 -21 -154 -21q-122 0 -228.5 48t-186 136t-125.5 220t-46 291q0 118 24.5 231.5t74 214.5t118 178t164 121.5t205.5 44.5t205.5 -44.5t164 -121.5t118 -178t74 -214.5t24.5 -231.5q0 -225 -88 -388.5
t-238 -242.5q8 -96 74.5 -157.5t179.5 -61.5q47 0 109 16zM254 674q0 -272 133 -432t336 -160q204 0 337.5 160.5t133.5 431.5q0 128 -32 249.5t-90 219.5t-149 157.5t-200 59.5q-108 0 -198.5 -59.5t-148.5 -157.5t-90 -219.5t-32 -249.5z" />
    <glyph glyph-name="R" unicode="R" horiz-adv-x="1271" 
d="M1169 0h-129l-338 508h-405v-508h-111v1434h459q100 0 180.5 -26t133 -70t88 -104.5t50.5 -126.5t15 -138q0 -168 -82 -282.5t-211 -156.5zM297 612h362q152 0 246 92t94 263q0 57 -10.5 107t-36.5 97t-66 80.5t-103.5 53.5t-145.5 20h-340v-713z" />
    <glyph glyph-name="S" unicode="S" horiz-adv-x="1269" 
d="M258 500q0 -198 105 -308t290 -110q161 0 268 91t107 237q0 65 -27.5 116t-74.5 84t-107.5 58.5t-127.5 46.5t-133.5 42t-127 49.5t-107.5 65t-74.5 93.5t-27.5 129q0 155 113.5 261.5t312.5 106.5q209 0 312.5 -111.5t103.5 -301.5h-113q0 68 -15.5 122t-49.5 98.5
t-94.5 68.5t-143.5 24q-146 0 -229.5 -67t-83.5 -181q0 -60 27.5 -105.5t74.5 -75t107.5 -52.5t127.5 -43t133.5 -42t127 -53.5t107.5 -73t74.5 -105.5t27.5 -146q0 -190 -138 -316.5t-350 -126.5q-236 0 -372 141.5t-136 383.5h113z" />
    <glyph glyph-name="T" unicode="T" horiz-adv-x="1335" 
d="M1208 1434v-109h-491v-1325h-111v1325h-479v109h1081z" />
    <glyph glyph-name="U" unicode="U" horiz-adv-x="1447" 
d="M1266 1434v-916q0 -143 -41.5 -250t-116 -169.5t-170.5 -93t-213 -30.5t-213 30.5t-171.5 93t-117 169.5t-41.5 250v916h111v-912q0 -120 32.5 -207.5t92.5 -137t136 -72.5t171 -23q76 0 139 14t117.5 46t92.5 82t59.5 125.5t21.5 172.5v912h111z" />
    <glyph glyph-name="V" unicode="V" horiz-adv-x="1325" 
d="M1153 1434h115l-529 -1434h-151l-533 1434h119l481 -1301h21z" />
    <glyph glyph-name="W" unicode="W" horiz-adv-x="2068" 
d="M1882 1434h113l-436 -1434h-142l-368 1237h-23l-371 -1237h-139l-442 1434h119l389 -1295h10l391 1295h109l391 -1295h12z" />
    <glyph glyph-name="X" unicode="X" horiz-adv-x="1273" 
d="M1059 0l-416 639h-12l-418 -639h-133l493 733l-464 701h131l391 -605h12l397 605h125l-465 -701l494 -733h-135z" />
    <glyph glyph-name="Y" unicode="Y" horiz-adv-x="1247" 
d="M1071 1434h119l-512 -775v-659h-111v659l-512 775h131l435 -664h12z" />
    <glyph glyph-name="Z" unicode="Z" horiz-adv-x="1208" 
d="M1047 1434v-101l-781 -1210v-12h819v-111h-964v98l784 1215v12h-760v109h902z" />
    <glyph glyph-name="bracketleft" unicode="[" horiz-adv-x="702" 
d="M610 1427h-286v-1642h286v-88h-395v1819h395v-89z" />
    <glyph glyph-name="backslash" unicode="\" horiz-adv-x="796" 
d="M98 1638l709 -1941h-98l-711 1941h100z" />
    <glyph glyph-name="bracketright" unicode="]" horiz-adv-x="702" 
d="M487 1516v-1819h-395v88h287v1642h-287v89h395z" />
    <glyph glyph-name="asciicircum" unicode="^" 
d="M874 825l-256 502h-8l-260 -502h-96l315 609h90l316 -609h-101z" />
    <glyph glyph-name="underscore" unicode="_" horiz-adv-x="1214" 
d="M156 -135h903v-88h-903v88z" />
    <glyph glyph-name="grave" unicode="`" horiz-adv-x="1216" 
d="M555 1491l231 -262h-94l-262 262h125z" />
    <glyph glyph-name="a" unicode="a" horiz-adv-x="1198" 
d="M612 1133q119 0 201.5 -31t129.5 -92t67 -139.5t20 -184.5v-686h-84l-16 92q-69 -46 -179 -78t-212 -32q-77 0 -145.5 18t-128 55.5t-94 103.5t-34.5 154q0 164 115 254t303 90q183 0 367 -63v119q0 160 -73.5 240.5t-236.5 80.5q-135 0 -219 -58t-88 -173h-108
q2 109 61 185.5t150 110.5t204 34zM252 319q0 -85 43 -140t111 -77t161 -22q91 0 189 24t166 60v348q-168 53 -342 53q-152 0 -240 -59.5t-88 -186.5z" />
    <glyph glyph-name="b" unicode="b" horiz-adv-x="1212" 
d="M659 1128q88 0 162.5 -32t127 -87.5t89.5 -130t54.5 -159.5t17.5 -176q0 -132 -39 -240t-105.5 -177t-153.5 -106.5t-185 -37.5q-92 0 -189.5 35.5t-167.5 88.5l-18 -106h-84v1577h108v-588q70 54 173 96.5t210 42.5zM608 80q176 0 282.5 119.5t106.5 347.5
q0 99 -21.5 185t-65 154t-115.5 107t-166 39q-97 0 -193 -38.5t-160 -94.5v-715q72 -47 162 -75.5t170 -28.5z" />
    <glyph glyph-name="c" unicode="c" horiz-adv-x="1212" 
d="M975 737q-15 124 -110.5 212.5t-254.5 88.5q-98 0 -175 -42.5t-124 -115.5t-71.5 -164t-24.5 -194q0 -214 108 -330t295 -116q155 0 252.5 82.5t118.5 265.5h105q-8 -114 -48.5 -201.5t-105.5 -140t-146 -79t-176 -26.5q-231 0 -373.5 143.5t-142.5 397.5q0 94 20 182.5
t61.5 167.5t100.5 137.5t143 93t183 34.5q105 0 193.5 -34t146.5 -90.5t91.5 -126.5t37.5 -145h-104z" />
    <glyph glyph-name="d" unicode="d" horiz-adv-x="1212" 
d="M936 1577h108v-1577h-83l-19 104q-67 -54 -161 -88t-195 -34q-100 0 -188 37.5t-154 107.5t-104 178t-38 240q0 115 28 217t83.5 185t147.5 132t210 49q200 0 365 -116v565zM215 547q0 -229 106 -348t285 -119q86 0 173.5 25.5t156.5 66.5v748q-143 112 -332 112
q-84 0 -150.5 -26t-110.5 -70.5t-73.5 -107t-42 -132.5t-12.5 -149z" />
    <glyph glyph-name="e" unicode="e" horiz-adv-x="1222" 
d="M1094 563h-877q-2 -16 -2 -47q0 -116 32.5 -203.5t90 -139.5t130 -77.5t159.5 -25.5q154 0 250 87.5t114 223.5h96q-19 -185 -146.5 -294.5t-315.5 -109.5q-106 0 -199.5 34.5t-166.5 99.5t-115 168.5t-42 232.5q0 93 18.5 180.5t59 168t98.5 140.5t143.5 96t188.5 36
q215 0 349.5 -140t134.5 -389v-41zM610 1038q-85 0 -153 -30.5t-114 -85t-75 -121.5t-43 -148h754q-1 180 -103.5 282.5t-265.5 102.5z" />
    <glyph glyph-name="f" unicode="f" horiz-adv-x="741" 
d="M514 1473q-82 0 -121 -50.5t-39 -162.5v-150h318v-84h-318v-1026h-106v1026h-176v84h176v166q0 145 65.5 220t182.5 75q125 0 217 -78l-21 -74q-95 54 -178 54z" />
    <glyph glyph-name="g" unicode="g" horiz-adv-x="1212" 
d="M961 1110h83v-1032q0 -227 -131 -344t-350 -117q-186 0 -375 88l35 88q60 -31 152.5 -56.5t189.5 -25.5q171 0 271 92.5t100 274.5v61q-66 -45 -160.5 -75.5t-195.5 -30.5q-103 0 -189 33.5t-151 97.5t-101.5 165.5t-36.5 231.5q0 89 17.5 170.5t55 154.5t92.5 126.5
t135.5 84.5t177.5 31q173 0 364 -122zM610 127q158 0 326 86v709q-155 110 -326 110q-105 0 -183.5 -37t-123.5 -103t-66.5 -147t-21.5 -178q0 -224 104.5 -332t290.5 -108z" />
    <glyph glyph-name="h" unicode="h" horiz-adv-x="1239" 
d="M684 1128q86 0 152.5 -22t110.5 -60.5t72 -94.5t40 -119.5t12 -139.5v-692h-108v659q0 183 -69.5 279t-234.5 96q-115 0 -219 -53t-164 -166v-815h-108v1577h108v-649q73 102 180 151t228 49z" />
    <glyph glyph-name="i" unicode="i" horiz-adv-x="452" 
d="M150 1421q0 39 21 69t56 30q34 0 56 -30t22 -69t-22 -59.5t-56 -20.5t-55.5 20.5t-21.5 59.5zM172 1110h109v-1110h-109v1110z" />
    <glyph glyph-name="j" unicode="j" horiz-adv-x="495" 
d="M190 1421q0 39 22 69t56 30t56 -30t22 -69t-22 -59.5t-56 -20.5q-33 0 -55.5 20.5t-22.5 59.5zM215 1110h109v-1196q0 -146 -63.5 -220.5t-182.5 -74.5q-45 0 -93 17.5t-83 44.5l26 71q68 -35 129 -35q85 0 121.5 50.5t36.5 160.5v1182z" />
    <glyph glyph-name="k" unicode="k" horiz-adv-x="1087" 
d="M522 631l504 -631h-137l-434 545h-13l-166 -174v-371h-108v1577h108v-1059h13l553 592h133z" />
    <glyph glyph-name="l" unicode="l" horiz-adv-x="444" 
d="M168 1577h108v-1577h-108v1577z" />
    <glyph glyph-name="m" unicode="m" horiz-adv-x="1941" 
d="M1386 1128q109 0 187 -34.5t120.5 -97t61.5 -136.5t19 -166v-694h-109v662q0 86 -14 151t-47 116.5t-91 78t-141 26.5q-48 0 -94.5 -10.5t-94.5 -34t-90 -67t-69 -103.5v-819h-106v692q0 342 -295 342q-99 0 -194.5 -51.5t-152.5 -163.5v-819h-108v1110h100l8 -166v-4
q68 96 166 142t201 46q75 0 136.5 -18.5t103 -50.5t69 -67t45.5 -77q33 60 79.5 103t99.5 66t104.5 33.5t105.5 10.5z" />
    <glyph glyph-name="n" unicode="n" horiz-adv-x="1239" 
d="M684 1128q86 0 152.5 -22t110.5 -60.5t72 -94.5t40 -119.5t12 -139.5v-692h-108v659q0 183 -69.5 279t-234.5 96q-116 0 -220 -55t-163 -172v-807h-108v1110h100l8 -166v-16q73 102 180 151t228 49z" />
    <glyph glyph-name="o" unicode="o" horiz-adv-x="1241" 
d="M102 512q0 93 21 182.5t64 169t104 139.5t146 95t184 35q123 0 223.5 -53.5t163.5 -142t97 -198.5t34 -227q0 -253 -144.5 -394t-373.5 -141t-374 141t-145 394zM215 514q0 -216 110 -327t296 -111q185 0 295 111t110 327q0 102 -26 195t-75 167t-127.5 118t-176.5 44
t-177 -44t-128 -118t-75 -167t-26 -195z" />
    <glyph glyph-name="p" unicode="p" horiz-adv-x="1212" 
d="M657 1128q110 0 198.5 -51t143 -136t83 -190t28.5 -219q0 -131 -38.5 -237t-105 -173.5t-153 -103.5t-184.5 -36q-93 0 -188 34t-165 86v-471h-108v1479h84l18 -125q186 143 387 143zM608 80q177 0 283 114.5t106 340.5q0 100 -22 187.5t-65 158t-115.5 111t-165.5 40.5
q-105 0 -196.5 -38.5t-156.5 -96.5v-713q72 -47 162 -75.5t170 -28.5z" />
    <glyph glyph-name="q" unicode="q" horiz-adv-x="1212" 
d="M961 1110h83v-1479h-108v461q-157 -110 -350 -110q-100 0 -187 36t-153.5 104t-105 174.5t-38.5 238.5q0 115 28 218.5t83.5 188.5t147.5 135.5t210 50.5t215.5 -39t157.5 -83zM604 80q171 0 332 86v754q-143 112 -332 112q-84 0 -150.5 -27t-110.5 -72.5t-73.5 -109.5
t-42 -134.5t-12.5 -149.5q0 -229 105.5 -344t283.5 -115z" />
    <glyph glyph-name="r" unicode="r" horiz-adv-x="811" 
d="M276 899q74 117 193 175.5t252 58.5l-8 -113q-160 0 -271 -56.5t-166 -193.5v-770h-108v1110h100l8 -166v-45z" />
    <glyph glyph-name="s" unicode="s" horiz-adv-x="1081" 
d="M186 369q1 -75 33 -133.5t83 -93t111 -51.5t124 -17q134 0 227.5 62.5t93.5 172.5q0 64 -39 107t-101.5 65.5t-138 40t-151 38t-138 50t-101.5 85.5t-39 136q0 132 101 217t286 85q74 0 138 -16.5t117.5 -51t85.5 -95.5t33 -143h-102q-2 74 -42 122.5t-99.5 68.5
t-137.5 20q-128 0 -199 -51.5t-71 -142.5q0 -64 39 -107t102 -65.5t138.5 -40t151.5 -37.5t139 -49t102 -84.5t39 -134.5q0 -80 -36.5 -147t-97.5 -110.5t-139 -67.5t-163 -24q-56 0 -112 9.5t-118.5 37t-109.5 69.5t-78.5 113.5t-32.5 162.5h102z" />
    <glyph glyph-name="t" unicode="t" horiz-adv-x="782" 
d="M649 143l27 -71q-90 -90 -209 -90q-42 0 -77 11t-65 36t-47.5 71t-17.5 109v817h-188v84h188v287h109v-287h284v-84h-284v-795q0 -81 33.5 -115t95.5 -34q83 0 151 61z" />
    <glyph glyph-name="u" unicode="u" 
d="M952 1110h109v-1110h-90l-17 152q-72 -87 -175 -131t-212 -44q-91 0 -162.5 23.5t-117 63t-75.5 95t-42 114.5t-12 126v711h108v-678q0 -362 324 -362q100 0 201 44t161 130v866z" />
    <glyph glyph-name="v" unicode="v" horiz-adv-x="1134" 
d="M956 1110h119l-454 -1110h-107l-453 1110h119l381 -989h14z" />
    <glyph glyph-name="w" unicode="w" horiz-adv-x="1613" 
d="M1430 1110h112l-336 -1110h-114l-277 946h-14l-279 -946h-114l-336 1110h114l273 -975h10l289 975h102l285 -975h8z" />
    <glyph glyph-name="x" unicode="x" horiz-adv-x="1050" 
d="M866 0l-334 483h-12l-338 -483h-121l404 567l-379 543h119l315 -457h12l318 457h115l-379 -543l403 -567h-123z" />
    <glyph glyph-name="y" unicode="y" horiz-adv-x="1132" 
d="M956 1110h115l-467 -1200q-48 -128 -131 -206.5t-176 -78.5q-90 0 -178 43l18 76q68 -27 142 -27q69 0 129.5 64.5t105.5 181.5l29 60l-482 1087h117l414 -956h8z" />
    <glyph glyph-name="z" unicode="z" horiz-adv-x="1005" 
d="M252 88h635v-88h-768v74l606 938v10h-588v88h717v-74l-602 -938v-10z" />
    <glyph glyph-name="braceleft" unicode="{" horiz-adv-x="845" 
d="M754 1516v-89q-109 0 -156 -51t-47 -180v-328q0 -116 -61.5 -184.5t-149.5 -71.5v-12q88 -3 149.5 -71.5t61.5 -184.5v-328q0 -129 47 -180t156 -51v-88q-148 0 -228 79.5t-80 246.5v321q0 211 -231 211v102q231 0 231 211v322q0 162 79 244t229 82z" />
    <glyph glyph-name="bar" unicode="|" horiz-adv-x="1021" 
d="M463 1638h98v-1941h-98v1941z" />
    <glyph glyph-name="braceright" unicode="}" horiz-adv-x="845" 
d="M92 1516q151 0 229 -81.5t78 -244.5v-322q0 -211 232 -211v-102q-232 0 -232 -211v-321q0 -326 -307 -326v88q110 0 157.5 51t47.5 180v328q0 117 61 185t150 71v12q-89 3 -150 71t-61 185v328q0 129 -47.5 180t-157.5 51v89z" />
    <glyph glyph-name="asciitilde" unicode="~" 
d="M135 436q0 122 68.5 206.5t185.5 84.5q59 0 111 -24t90 -58.5t74 -68.5t80.5 -58t93.5 -24q78 0 117.5 55t39.5 139h99q0 -122 -68.5 -206.5t-185.5 -84.5q-59 0 -111 24t-90 58.5t-74 69t-80.5 58.5t-93.5 24q-78 0 -118 -55.5t-40 -139.5h-98z" />
    <glyph glyph-name="exclamdown" unicode="&#xa1;" horiz-adv-x="628" 
d="M223 1026q0 45 25 72.5t65 27.5q43 0 68 -27t25 -73q0 -44 -25.5 -77.5t-67.5 -33.5t-66 33t-24 78zM256 -324l14 1014h99l14 -1014h-127z" />
    <glyph glyph-name="cent" unicode="&#xa2;" horiz-adv-x="1169" 
d="M1042 344q-46 -70 -142 -118.5t-214 -55.5l6 -170h-114l6 170q-92 10 -171.5 46t-142.5 98t-99 157t-36 213q0 145 51.5 267t155.5 203.5t244 96.5l-8 183h114l-8 -183q117 -8 205.5 -58.5t138.5 -121.5l-72 -65q-46 69 -124 111t-185 42q-126 0 -218 -63t-136.5 -168
t-44.5 -238q0 -109 32 -192t88.5 -132.5t128.5 -74.5t156 -25q105 0 191 37.5t131 104.5z" />
    <glyph glyph-name="sterling" unicode="&#xa3;" horiz-adv-x="1222" 
d="M1049 338l108 -23q-25 -70 -62 -128t-90.5 -106.5t-128.5 -75t-165 -25.5q-176 2 -371 126q-67 -61 -129 -106h-45l-21 88q49 29 90 63t79.5 80t60.5 105t22 123q0 81 -53 213h-209l6 78h170q-71 169 -71 276q0 173 116.5 290.5t325.5 117.5q221 0 381 -144l-66 -82
q-138 127 -323 127q-149 0 -236.5 -82.5t-87.5 -210.5q0 -46 14.5 -101.5t28 -89.5t43.5 -101h398l-7 -78h-360q43 -114 43 -207q0 -152 -104 -285q156 -102 292 -102q130 0 219.5 68t131.5 192z" />
    <glyph glyph-name="currency" unicode="&#xa4;" horiz-adv-x="1249" 
d="M1018 655q0 -132 -82 -241l158 -144l-84 -84l-144 158q-109 -82 -241 -82q-133 0 -242 82l-143 -158l-84 84l157 144q-82 109 -82 241q0 134 82 240l-157 145l84 84l145 -157q106 82 240 82q133 0 239 -82l146 157l84 -84l-158 -145q82 -106 82 -240zM625 354
q127 0 211 87.5t84 213.5q0 125 -84 213t-211 88t-211 -88t-84 -213q0 -126 84 -213.5t211 -87.5z" />
    <glyph glyph-name="yen" unicode="&#xa5;" horiz-adv-x="1290" 
d="M1212 1434l-460 -697h252v-80h-304v-206h304v-80h-304v-371h-110v371h-303v80h303v206h-303v80h252l-461 697h125l438 -676h12l445 676h114z" />
    <glyph glyph-name="brokenbar" unicode="&#xa6;" horiz-adv-x="1021" 
d="M463 872v766h98v-766h-98zM561 463v-766h-98v766h98z" />
    <glyph glyph-name="section" unicode="&#xa7;" horiz-adv-x="1212" 
d="M915 1409l-47 -90q-67 37 -149 37q-76 0 -131.5 -55.5t-55.5 -137.5q0 -57 29.5 -112t77 -102.5t104.5 -96.5t114.5 -103.5t105 -113t77 -135.5t29.5 -162q0 -129 -48 -248t-127 -205t-185 -137t-217 -51q-67 0 -138.5 23.5t-115.5 60.5l45 78q48 -30 103.5 -47t98.5 -17
q89 0 138 56.5t49 132.5q0 57 -29.5 112.5t-77 103t-104.5 96t-114.5 102.5t-105 112t-77 133.5t-29.5 159.5q0 130 49.5 251t130.5 207.5t189 138.5t221 52q115 0 190 -43zM526 1321q-136 -72 -214.5 -201.5t-78.5 -283.5q0 -81 29.5 -155.5t76 -132t103 -111t113.5 -103
t103.5 -97.5t76 -104t29.5 -113q0 -112 -88 -188l2 -6q136 72 214.5 201.5t78.5 283.5q0 82 -29.5 156.5t-76 132.5t-103 111.5t-113.5 102.5t-103.5 97t-76 104t-29.5 113q0 113 88 189z" />
    <glyph glyph-name="dieresis" unicode="&#xa8;" horiz-adv-x="1216" 
d="M414 1257q-31 0 -51.5 20.5t-20.5 51.5t20.5 51.5t51.5 20.5t51 -20.5t20 -51.5t-20 -51.5t-51 -20.5zM803 1257q-31 0 -51.5 20.5t-20.5 51.5t20.5 51.5t51.5 20.5t51 -20.5t20 -51.5t-20 -51.5t-51 -20.5z" />
    <glyph glyph-name="copyright" unicode="&#xa9;" horiz-adv-x="1654" 
d="M827 -20q-151 0 -287.5 58t-235 157t-156.5 235.5t-58 286.5q0 151 58 287.5t157 235t235.5 156.5t286.5 58t287 -58t235.5 -157t157 -235.5t58.5 -286.5q0 -202 -99 -372t-268.5 -267.5t-370.5 -97.5zM827 25q190 0 348.5 92.5t249.5 251.5t91 348q0 141 -54 269
t-145.5 221t-219.5 147.5t-270 54.5q-188 0 -346.5 -92t-250 -251.5t-91.5 -348.5q0 -141 53.5 -269t145 -221t219.5 -147.5t270 -54.5zM1208 627q-6 -92 -36.5 -160.5t-80.5 -109.5t-113 -61t-140 -20q-175 0 -288.5 116t-113.5 310q0 121 48 224t141 167t213 64
q158 0 257 -91.5t105 -221.5h-92q-9 96 -81 158.5t-189 62.5q-135 0 -216 -101t-81 -257q0 -162 82 -250t223 -88q112 0 182 58.5t88 199.5h92z" />
    <glyph glyph-name="ordfeminine" unicode="&#xaa;" horiz-adv-x="890" 
d="M473 1442q163 0 234 -82t71 -254v-520h-69l-9 69q-52 -36 -126.5 -59t-149.5 -23q-58 0 -111 14.5t-99 44t-73.5 81t-27.5 118.5q0 122 88.5 193.5t230.5 71.5q129 0 260 -52v62q0 136 -48.5 194t-176.5 58q-223 0 -223 -182h-82q-1 130 83 198t228 68zM203 838
q0 -91 66.5 -136t176.5 -45q131 0 246 64v256q-129 39 -241 39q-111 0 -179.5 -44t-68.5 -134zM182 373h553v-82h-553v82z" />
    <glyph glyph-name="guillemotleft" unicode="&#xab;" horiz-adv-x="1265" 
d="M463 1022h133l-360 -416l360 -422h-133l-354 422zM958 1022h136l-363 -416l363 -422h-136l-354 422z" />
    <glyph glyph-name="logicalnot" unicode="&#xac;" 
d="M238 637h753v-420h-92v334h-661v86z" />
    <glyph glyph-name="uni00AD" unicode="&#xad;" horiz-adv-x="778" 
d="M143 614h492v-86h-492v86z" />
    <glyph glyph-name="registered" unicode="&#xae;" horiz-adv-x="1171" 
d="M569 596q-212 0 -345.5 133t-133.5 334q0 202 134 335.5t345 133.5q212 0 346 -133.5t134 -335.5t-134 -334.5t-346 -132.5zM569 639q194 0 312 120.5t118 303.5q0 185 -118.5 305.5t-311.5 120.5t-311.5 -120.5t-118.5 -305.5q0 -183 118 -303.5t312 -120.5zM729 784
l-133 199h-147v-199h-60v576h203q84 0 134 -50t50 -134q0 -71 -30 -119.5t-84 -63.5l139 -209h-72zM449 1300v-260h149q57 0 87 35t30 101q0 59 -33.5 91.5t-93.5 32.5h-139z" />
    <glyph glyph-name="macron" unicode="&#xaf;" horiz-adv-x="1220" 
d="M369 1360h479v-74h-479v74z" />
    <glyph glyph-name="degree" unicode="&#xb0;" horiz-adv-x="821" 
d="M412 834q-149 0 -241.5 92t-92.5 231q0 140 93 232t241 92q146 0 238.5 -92t92.5 -232q0 -139 -92.5 -231t-238.5 -92zM412 920q107 0 172 68t65 169q0 103 -66 172.5t-171 69.5q-107 0 -173.5 -69.5t-66.5 -172.5q0 -101 65 -169t175 -68z" />
    <glyph glyph-name="plusminus" unicode="&#xb1;" 
d="M662 684h329v-86h-329v-334h-95v334h-329v86h329v334h95v-334zM238 23v86h753v-86h-753z" />
    <glyph glyph-name="twosuperior" unicode="&#xb2;" horiz-adv-x="847" 
d="M227 1393h-86q-2 44 15.5 94t51.5 95.5t93 75.5t131 30q121 0 193.5 -76.5t72.5 -202.5q0 -106 -44.5 -184t-127.5 -152l-219 -209v-10h395v-76h-538l-4 58l309 294q66 65 100.5 127.5t34.5 149.5q0 96 -47 151.5t-131 55.5q-63 0 -110 -34t-68.5 -83.5t-20.5 -103.5z
" />
    <glyph glyph-name="threesuperior" unicode="&#xb3;" horiz-adv-x="849" 
d="M563 1257q66 -22 107 -73.5t41 -132.5q0 -123 -80 -202t-203 -79q-132 0 -212.5 88.5t-78.5 222.5h90q-2 -104 53.5 -167.5t153.5 -63.5q85 0 133.5 51.5t48.5 142.5q0 79 -46.5 124.5t-129.5 45.5h-88v76h84q81 0 122.5 43.5t41.5 112.5q0 77 -47.5 122.5t-124.5 45.5
q-92 0 -144.5 -59.5t-52.5 -153.5h-86q0 123 79 205t204 82q113 0 187.5 -67t74.5 -169q0 -71 -37 -121.5t-90 -64.5v-9z" />
    <glyph glyph-name="acute" unicode="&#xb4;" horiz-adv-x="1216" 
d="M662 1491h124l-262 -262h-94z" />
    <glyph glyph-name="mu" unicode="&#xb5;" 
d="M1061 264q0 -168 168 -168v-98q-107 2 -173.5 39.5t-90.5 124.5q-71 -92 -173.5 -138.5t-207.5 -46.5q-206 0 -318 136v-482h-108v1479h108v-678q0 -362 324 -362q100 0 201 44t161 132v864h109v-846z" />
    <glyph glyph-name="paragraph" unicode="&#xb6;" horiz-adv-x="1306" 
d="M137 989q0 208 140 336.5t362 128.5q95 0 162 -18v-1739h-105v844q-70 -9 -102 -9q-90 0 -171 28.5t-145.5 83.5t-102.5 144t-38 201zM1016 1434h104v-1737h-104v1737zM696 631v723q-46 4 -71 4q-170 0 -271.5 -97t-101.5 -260q0 -181 104 -278.5t262 -97.5q40 0 78 6z
" />
    <glyph glyph-name="periodcentered" unicode="&#xb7;" horiz-adv-x="628" 
d="M223 676q0 44 24 77t66 33t67.5 -33t25.5 -77q0 -46 -25 -73.5t-68 -27.5q-40 0 -65 28t-25 73z" />
    <glyph glyph-name="cedilla" unicode="&#xb8;" horiz-adv-x="1222" 
d="M616 -127q181 0 181 -129q0 -80 -65.5 -126t-162.5 -46q-71 0 -143 25v45q63 -15 125 -15q60 0 101.5 27t41.5 74q0 92 -137 92h-39l31 53h67z" />
    <glyph glyph-name="onesuperior" unicode="&#xb9;" horiz-adv-x="849" 
d="M184 1489l279 190h78v-901h-90v793h-11l-223 -154z" />
    <glyph glyph-name="ordmasculine" unicode="&#xba;" horiz-adv-x="1007" 
d="M113 981q0 88 25.5 171t72.5 150.5t123.5 108.5t169.5 41q92 0 168.5 -41t124 -108.5t73 -150.5t25.5 -171q0 -189 -107.5 -297.5t-283.5 -108.5t-283.5 108.5t-107.5 297.5zM203 983q0 -157 80 -240.5t221 -83.5q140 0 220.5 84t80.5 240q0 103 -32.5 188.5t-102.5 141
t-166 55.5q-97 0 -167 -55.5t-102 -141t-32 -188.5zM227 373h553v-82h-553v82z" />
    <glyph glyph-name="guillemotright" unicode="&#xbb;" horiz-adv-x="1265" 
d="M307 1022l355 -416l-355 -422h-133l361 422l-361 416h133zM805 1022l354 -416l-354 -422h-135l362 422l-362 416h135z" />
    <glyph glyph-name="onequarter" unicode="&#xbc;" horiz-adv-x="1865" 
d="M451 1366h-11l-223 -154l-33 72l279 191h78v-902h-90v793zM1436 1466h92l-1057 -1499h-92zM1759 276v-79h-131v-238h-84v238h-424v63l406 600h102v-584h131zM1237 276h307v453h-10l-297 -440v-13z" />
    <glyph glyph-name="onehalf" unicode="&#xbd;" horiz-adv-x="1945" 
d="M184 1284l279 191h78v-902h-90v793h-11l-223 -154zM1436 1466h92l-1057 -1499h-92zM1325 573h-86q-2 44 15.5 94t51.5 95.5t93 75.5t131 30q121 0 193.5 -76t72.5 -202q0 -106 -44.5 -184t-127.5 -152l-219 -209v-10h395v-76h-538l-5 57l310 295q66 65 100.5 127.5
t34.5 149.5q0 96 -47 151.5t-131 55.5q-63 0 -110 -34.5t-68.5 -84t-20.5 -103.5z" />
    <glyph glyph-name="threequarters" unicode="&#xbe;" horiz-adv-x="1927" 
d="M711 846q0 -123 -80 -202t-203 -79q-131 0 -212 89t-79 223h90q-2 -105 53.5 -168.5t153.5 -63.5q85 0 133.5 52t48.5 143q0 79 -46.5 124.5t-129.5 45.5h-88v75h84q81 0 122.5 43.5t41.5 112.5q0 77 -47.5 122.5t-124.5 45.5q-92 0 -144.5 -59.5t-52.5 -153.5h-86
q0 123 79 205t204 82q113 0 187.5 -67t74.5 -169q0 -71 -37 -121.5t-90 -64.5v-8q66 -22 107 -74t41 -133zM1497 1466h92l-1057 -1499h-92zM1821 276v-79h-131v-238h-84v238h-424v63l405 600h103v-584h131zM1298 276h308v453h-11l-297 -440v-13z" />
    <glyph glyph-name="questiondown" unicode="&#xbf;" horiz-adv-x="1163" 
d="M731 1026q0 -44 -25 -77.5t-67 -33.5t-66 33t-24 78q0 46 24.5 73t65.5 27t66.5 -27t25.5 -73zM594 690h108v-63q0 -75 -23 -134t-59.5 -97.5t-81 -71t-88.5 -62t-80.5 -62t-59.5 -79.5t-23 -107q0 -69 26 -121.5t70.5 -81.5t97 -43t111.5 -14q63 0 117 16t100.5 52
t72 102.5t21.5 157.5h109q4 -104 -29.5 -186.5t-93 -133.5t-135.5 -77.5t-162 -26.5q-56 0 -112 10.5t-112 37t-98.5 65t-69 100t-26.5 137.5q0 67 23 122.5t60 93t82 71t90 65t82 66t60 83t23 107.5v74z" />
    <glyph glyph-name="Agrave" unicode="&#xc0;" horiz-adv-x="1339" 
d="M848 1552h-94l-262 263h124zM1155 0l-164 446h-645l-164 -446h-116l528 1434h154l526 -1434h-119zM383 549h571l-276 758h-16z" />
    <glyph glyph-name="Aacute" unicode="&#xc1;" horiz-adv-x="1339" 
d="M848 1815l-262 -263h-94l231 263h125zM1155 0l-164 446h-645l-164 -446h-116l528 1434h154l526 -1434h-119zM383 549h571l-276 758h-16z" />
    <glyph glyph-name="Acircumflex" unicode="&#xc2;" horiz-adv-x="1339" 
d="M662 1749l-199 -197h-98l264 263h82l264 -263h-98l-199 197h-16zM1155 0l-164 446h-645l-164 -446h-116l528 1434h154l526 -1434h-119zM383 549h571l-276 758h-16z" />
    <glyph glyph-name="Atilde" unicode="&#xc3;" horiz-adv-x="1339" 
d="M451 1585h-72q-9 90 37.5 144.5t118.5 54.5q47 0 86 -21t61.5 -45.5t55 -45.5t67.5 -21q41 0 66 30.5t18 90.5h72q9 -91 -37 -145t-119 -54q-47 0 -85.5 21t-60.5 45.5t-54 45.5t-66 21q-41 0 -68.5 -31.5t-19.5 -89.5zM1155 0l-164 446h-645l-164 -446h-116l528 1434
h154l526 -1434h-119zM383 549h571l-276 758h-16z" />
    <glyph glyph-name="Adieresis" unicode="&#xc4;" horiz-adv-x="1339" 
d="M475 1581q-31 0 -51.5 20.5t-20.5 51.5t20.5 51t51.5 20t51.5 -20t20.5 -51t-20.5 -51.5t-51.5 -20.5zM864 1581q-31 0 -51 20.5t-20 51.5t20 51t51 20t51.5 -20t20.5 -51t-20.5 -51.5t-51.5 -20.5zM1155 0l-164 446h-645l-164 -446h-116l528 1434h154l526 -1434h-119z
M383 549h571l-276 758h-16z" />
    <glyph glyph-name="Aring" unicode="&#xc5;" horiz-adv-x="1345" 
d="M1155 0l-164 446h-645l-164 -446h-116l514 1393q-121 44 -121 176q0 92 63 151.5t150 59.5t150 -59.5t63 -151.5q0 -67 -33 -112t-90 -64l512 -1393h-119zM522 1571q0 -66 41 -101.5t109 -35.5t108.5 35.5t40.5 101.5q0 67 -43.5 109t-105.5 42q-63 0 -106.5 -42
t-43.5 -109zM383 549h571l-276 758h-16z" />
    <glyph glyph-name="AE" unicode="&#xc6;" horiz-adv-x="1732" 
d="M1554 1325h-768l189 -512h551v-106h-512l219 -596h321v-111h-399l-164 446h-645l-164 -446h-116l528 1434h960v-109zM383 549h571l-276 758h-16z" />
    <glyph glyph-name="Ccedilla" unicode="&#xc7;" horiz-adv-x="1417" 
d="M1135 928q-1 62 -14 120t-43.5 116t-76.5 100.5t-118 69t-162 26.5q-96 0 -175.5 -39.5t-132.5 -105.5t-89.5 -155t-53 -186.5t-16.5 -201.5q0 -273 124 -431.5t349 -158.5q96 0 170.5 27.5t120.5 71.5t75.5 105.5t40.5 124t11 132.5h112q0 -93 -18 -175t-58 -155
t-100.5 -125t-151 -82.5t-202.5 -30.5q-277 0 -433.5 189t-156.5 506q0 119 21 231t67 214.5t113 178.5t166.5 121t220.5 45q106 0 194.5 -31t148 -83.5t101 -121.5t60 -143.5t18.5 -152.5h-112zM715 -127q180 0 180 -129q0 -80 -65 -126t-162 -46q-72 0 -144 25v45
q62 -15 125 -15q60 0 102 27t42 74q0 92 -138 92h-39l31 53h68z" />
    <glyph glyph-name="Egrave" unicode="&#xc8;" horiz-adv-x="1161" 
d="M758 1552h-94l-263 263h125zM981 1325h-684v-512h655v-106h-655v-596h684v-111h-795v1434h795v-109z" />
    <glyph glyph-name="Eacute" unicode="&#xc9;" horiz-adv-x="1161" 
d="M758 1815l-262 -263h-95l232 263h125zM981 1325h-684v-512h655v-106h-655v-596h684v-111h-795v1434h795v-109z" />
    <glyph glyph-name="Ecircumflex" unicode="&#xca;" horiz-adv-x="1161" 
d="M571 1749l-198 -197h-99l265 263h82l264 -263h-99l-198 197h-17zM981 1325h-684v-512h655v-106h-655v-596h684v-111h-795v1434h795v-109z" />
    <glyph glyph-name="Edieresis" unicode="&#xcb;" horiz-adv-x="1161" 
d="M385 1581q-31 0 -51.5 20.5t-20.5 51.5t20.5 51t51.5 20t51.5 -20t20.5 -51t-20.5 -51.5t-51.5 -20.5zM774 1581q-31 0 -51.5 20.5t-20.5 51.5t20.5 51t51.5 20t51.5 -20t20.5 -51t-20.5 -51.5t-51.5 -20.5zM981 1325h-684v-512h655v-106h-655v-596h684v-111h-795v1434
h795v-109z" />
    <glyph glyph-name="Igrave" unicode="&#xcc;" horiz-adv-x="503" 
d="M266 1815l94 -263h-84l-133 263h123zM197 1434h110v-1434h-110v1434z" />
    <glyph glyph-name="Iacute" unicode="&#xcd;" horiz-adv-x="503" 
d="M238 1815h122l-131 -263h-86zM197 1434h110v-1434h-110v1434z" />
    <glyph glyph-name="Icircumflex" unicode="&#xce;" horiz-adv-x="503" 
d="M63 1552l148 263h82l147 -263h-80l-100 193h-14l-103 -193h-80zM197 1434h110v-1434h-110v1434z" />
    <glyph glyph-name="Idieresis" unicode="&#xcf;" horiz-adv-x="503" 
d="M123 1581q-31 0 -51.5 20.5t-20.5 51.5t20.5 51t51.5 20t51.5 -20t20.5 -51t-20.5 -51.5t-51.5 -20.5zM381 1581q-30 0 -51 21t-21 51t21 50.5t51 20.5q31 0 52.5 -20.5t21.5 -50.5q0 -31 -21.5 -51.5t-52.5 -20.5zM197 1434h110v-1434h-110v1434z" />
    <glyph glyph-name="Eth" unicode="&#xd0;" horiz-adv-x="1382" 
d="M606 1434q132 0 239 -39t180.5 -106.5t123 -160.5t72 -198t22.5 -221q0 -117 -22.5 -221t-71.5 -194t-120.5 -155t-175.5 -102t-230 -37h-437v657h-114v86h114v691h420zM629 104q114 0 203 35.5t143.5 92.5t90 137t49 161t13.5 172q0 104 -17 194t-56 170t-99 136.5
t-150.5 89.5t-205.5 33h-303v-582h383v-86h-383v-553h332z" />
    <glyph glyph-name="Ntilde" unicode="&#xd1;" horiz-adv-x="1439" 
d="M500 1585h-72q-9 90 37.5 144.5t118.5 54.5q47 0 86 -21t61.5 -45.5t55 -45.5t67.5 -21q41 0 66 30.5t18 90.5h72q9 -91 -37 -145t-119 -54q-47 0 -85.5 21t-60.5 45.5t-54 45.5t-66 21q-41 0 -68.5 -31.5t-19.5 -89.5zM1141 1434h110v-1434h-100l-840 1239h-14v-1239
h-111v1434h127l817 -1211h11v1211z" />
    <glyph glyph-name="Ograve" unicode="&#xd2;" horiz-adv-x="1447" 
d="M670 1815l231 -263h-94l-262 263h125zM137 670q0 118 24.5 231.5t74 214.5t118 178t164 121.5t205.5 44.5t205.5 -44.5t164 -121.5t118 -178t74 -214.5t24.5 -231.5q0 -159 -46 -291t-125.5 -220t-186 -136t-228.5 -48t-228.5 48t-186 136t-125.5 220t-46 291zM254 674
q0 -272 133 -432t336 -160q204 0 337.5 160.5t133.5 431.5q0 128 -32 249.5t-90 219.5t-149 157.5t-200 59.5q-108 0 -198.5 -59.5t-148.5 -157.5t-90 -219.5t-32 -249.5z" />
    <glyph glyph-name="Oacute" unicode="&#xd3;" horiz-adv-x="1447" 
d="M776 1815h125l-262 -263h-94zM137 670q0 118 24.5 231.5t74 214.5t118 178t164 121.5t205.5 44.5t205.5 -44.5t164 -121.5t118 -178t74 -214.5t24.5 -231.5q0 -159 -46 -291t-125.5 -220t-186 -136t-228.5 -48t-228.5 48t-186 136t-125.5 220t-46 291zM254 674
q0 -272 133 -432t336 -160q204 0 337.5 160.5t133.5 431.5q0 128 -32 249.5t-90 219.5t-149 157.5t-200 59.5q-108 0 -198.5 -59.5t-148.5 -157.5t-90 -219.5t-32 -249.5z" />
    <glyph glyph-name="Ocircumflex" unicode="&#xd4;" horiz-adv-x="1447" 
d="M418 1552l264 263h82l264 -263h-98l-199 197h-16l-199 -197h-98zM137 670q0 118 24.5 231.5t74 214.5t118 178t164 121.5t205.5 44.5t205.5 -44.5t164 -121.5t118 -178t74 -214.5t24.5 -231.5q0 -159 -46 -291t-125.5 -220t-186 -136t-228.5 -48t-228.5 48t-186 136
t-125.5 220t-46 291zM254 674q0 -272 133 -432t336 -160q204 0 337.5 160.5t133.5 431.5q0 128 -32 249.5t-90 219.5t-149 157.5t-200 59.5q-108 0 -198.5 -59.5t-148.5 -157.5t-90 -219.5t-32 -249.5z" />
    <glyph glyph-name="Otilde" unicode="&#xd5;" horiz-adv-x="1447" 
d="M1014 1772q9 -91 -37 -145t-119 -54q-47 0 -85.5 21t-60.5 45.5t-54 45.5t-66 21q-41 0 -68.5 -31.5t-19.5 -89.5h-72q-9 90 37.5 144.5t118.5 54.5q47 0 86 -21t61.5 -45.5t55 -45.5t67.5 -21q41 0 66 30.5t18 90.5h72zM137 670q0 118 24.5 231.5t74 214.5t118 178
t164 121.5t205.5 44.5t205.5 -44.5t164 -121.5t118 -178t74 -214.5t24.5 -231.5q0 -159 -46 -291t-125.5 -220t-186 -136t-228.5 -48t-228.5 48t-186 136t-125.5 220t-46 291zM254 674q0 -272 133 -432t336 -160q204 0 337.5 160.5t133.5 431.5q0 128 -32 249.5t-90 219.5
t-149 157.5t-200 59.5q-108 0 -198.5 -59.5t-148.5 -157.5t-90 -219.5t-32 -249.5z" />
    <glyph glyph-name="Odieresis" unicode="&#xd6;" horiz-adv-x="1447" 
d="M528 1581q-31 0 -51 20.5t-20 51.5t20 51t51 20t51.5 -20t20.5 -51t-20.5 -51.5t-51.5 -20.5zM918 1581q-31 0 -51.5 20.5t-20.5 51.5t20.5 51t51.5 20t51 -20t20 -51t-20 -51.5t-51 -20.5zM137 670q0 118 24.5 231.5t74 214.5t118 178t164 121.5t205.5 44.5t205.5 -44.5
t164 -121.5t118 -178t74 -214.5t24.5 -231.5q0 -159 -46 -291t-125.5 -220t-186 -136t-228.5 -48t-228.5 48t-186 136t-125.5 220t-46 291zM254 674q0 -272 133 -432t336 -160q204 0 337.5 160.5t133.5 431.5q0 128 -32 249.5t-90 219.5t-149 157.5t-200 59.5
q-108 0 -198.5 -59.5t-148.5 -157.5t-90 -219.5t-32 -249.5z" />
    <glyph glyph-name="multiply" unicode="&#xd7;" 
d="M918 836l-242 -242l242 -242l-62 -61l-242 241l-241 -241l-62 61l242 242l-242 242l62 61l241 -242l242 242z" />
    <glyph glyph-name="Oslash" unicode="&#xd8;" horiz-adv-x="1447" 
d="M1102 1284q99 -113 153 -276.5t54 -337.5q0 -159 -46 -291t-125.5 -220t-186 -136t-228.5 -48q-179 0 -320 101l-55 -96l-80 43l66 112q-93 92 -145 228t-52 307q0 118 24.5 231.5t74 214.5t118 178t164 121.5t205.5 44.5q173 0 311 -112l62 106l80 -43zM254 674
q0 -276 137 -438l590 1019q-111 105 -258 105q-108 0 -198.5 -59.5t-148.5 -157.5t-90 -219.5t-32 -249.5zM723 82q204 0 337.5 160.5t133.5 431.5q0 142 -39 277t-111 233l-585 -1012q116 -90 264 -90z" />
    <glyph glyph-name="Ugrave" unicode="&#xd9;" horiz-adv-x="1447" 
d="M672 1815l231 -263h-94l-262 263h125zM1266 1434v-916q0 -143 -41.5 -250t-116 -169.5t-170.5 -93t-213 -30.5t-213 30.5t-171.5 93t-117 169.5t-41.5 250v916h111v-912q0 -120 32.5 -207.5t92.5 -137t136 -72.5t171 -23q76 0 139 14t117.5 46t92.5 82t59.5 125.5
t21.5 172.5v912h111z" />
    <glyph glyph-name="Uacute" unicode="&#xda;" horiz-adv-x="1447" 
d="M778 1815h125l-262 -263h-94zM1266 1434v-916q0 -143 -41.5 -250t-116 -169.5t-170.5 -93t-213 -30.5t-213 30.5t-171.5 93t-117 169.5t-41.5 250v916h111v-912q0 -120 32.5 -207.5t92.5 -137t136 -72.5t171 -23q76 0 139 14t117.5 46t92.5 82t59.5 125.5t21.5 172.5v912
h111z" />
    <glyph glyph-name="Ucircumflex" unicode="&#xdb;" horiz-adv-x="1447" 
d="M420 1552l264 263h82l264 -263h-98l-199 197h-16l-199 -197h-98zM1266 1434v-916q0 -143 -41.5 -250t-116 -169.5t-170.5 -93t-213 -30.5t-213 30.5t-171.5 93t-117 169.5t-41.5 250v916h111v-912q0 -120 32.5 -207.5t92.5 -137t136 -72.5t171 -23q76 0 139 14t117.5 46
t92.5 82t59.5 125.5t21.5 172.5v912h111z" />
    <glyph glyph-name="Udieresis" unicode="&#xdc;" horiz-adv-x="1447" 
d="M530 1581q-31 0 -51 20.5t-20 51.5t20 51t51 20t51.5 -20t20.5 -51t-20.5 -51.5t-51.5 -20.5zM920 1581q-31 0 -51.5 20.5t-20.5 51.5t20.5 51t51.5 20t51 -20t20 -51t-20 -51.5t-51 -20.5zM1266 1434v-916q0 -143 -41.5 -250t-116 -169.5t-170.5 -93t-213 -30.5
t-213 30.5t-171.5 93t-117 169.5t-41.5 250v916h111v-912q0 -120 32.5 -207.5t92.5 -137t136 -72.5t171 -23q76 0 139 14t117.5 46t92.5 82t59.5 125.5t21.5 172.5v912h111z" />
    <glyph glyph-name="Yacute" unicode="&#xdd;" horiz-adv-x="1247" 
d="M801 1815l-262 -263h-95l232 263h125zM1071 1434h119l-512 -775v-659h-111v659l-512 775h131l435 -664h12z" />
    <glyph glyph-name="Thorn" unicode="&#xde;" horiz-adv-x="1247" 
d="M602 1225q136 0 236.5 -36.5t158 -103t84.5 -148.5t27 -183q0 -121 -38 -218.5t-103 -159t-149 -94t-179 -32.5h-342v-250h-111v1434h111v-209h305zM641 356q158 0 256 102.5t98 297.5q0 82 -19.5 145t-64 113.5t-124.5 77t-193 26.5h-297v-762h344z" />
    <glyph glyph-name="germandbls" unicode="&#xdf;" horiz-adv-x="1163" 
d="M696 799q155 -55 256 -173.5t101 -267.5q0 -70 -26 -135.5t-78 -122t-141.5 -91t-203.5 -34.5q-102 0 -211 43l21 93q93 -37 200 -37q150 0 238 80.5t88 210.5q0 252 -375 393v73q47 17 82 32t80 42.5t74.5 58t50 77t20.5 100.5q0 112 -68.5 165.5t-189.5 53.5
q-47 0 -88.5 -7.5t-89 -32.5t-81.5 -65.5t-56.5 -112.5t-22.5 -167v-1170h-108v1170q0 96 20 173.5t56 129t79.5 88.5t96 57t100 28.5t96.5 8.5q159 0 262 -81t103 -228q0 -122 -80.5 -212t-204.5 -136v-4z" />
    <glyph glyph-name="agrave" unicode="&#xe0;" horiz-adv-x="1198" 
d="M758 1229h-94l-263 262h125zM612 1133q119 0 201.5 -31t129.5 -92t67 -139.5t20 -184.5v-686h-84l-16 92q-69 -46 -179 -78t-212 -32q-77 0 -145.5 18t-128 55.5t-94 103.5t-34.5 154q0 164 115 254t303 90q183 0 367 -63v119q0 160 -73.5 240.5t-236.5 80.5
q-135 0 -219 -58t-88 -173h-108q2 109 61 185.5t150 110.5t204 34zM252 319q0 -85 43 -140t111 -77t161 -22q91 0 189 24t166 60v348q-168 53 -342 53q-152 0 -240 -59.5t-88 -186.5z" />
    <glyph glyph-name="aacute" unicode="&#xe1;" horiz-adv-x="1198" 
d="M758 1491l-262 -262h-95l232 262h125zM612 1133q119 0 201.5 -31t129.5 -92t67 -139.5t20 -184.5v-686h-84l-16 92q-69 -46 -179 -78t-212 -32q-77 0 -145.5 18t-128 55.5t-94 103.5t-34.5 154q0 164 115 254t303 90q183 0 367 -63v119q0 160 -73.5 240.5t-236.5 80.5
q-135 0 -219 -58t-88 -173h-108q2 109 61 185.5t150 110.5t204 34zM252 319q0 -85 43 -140t111 -77t161 -22q91 0 189 24t166 60v348q-168 53 -342 53q-152 0 -240 -59.5t-88 -186.5z" />
    <glyph glyph-name="acircumflex" unicode="&#xe2;" horiz-adv-x="1198" 
d="M571 1425l-198 -196h-99l265 262h82l264 -262h-99l-198 196h-17zM612 1133q119 0 201.5 -31t129.5 -92t67 -139.5t20 -184.5v-686h-84l-16 92q-69 -46 -179 -78t-212 -32q-77 0 -145.5 18t-128 55.5t-94 103.5t-34.5 154q0 164 115 254t303 90q183 0 367 -63v119
q0 160 -73.5 240.5t-236.5 80.5q-135 0 -219 -58t-88 -173h-108q2 109 61 185.5t150 110.5t204 34zM252 319q0 -85 43 -140t111 -77t161 -22q91 0 189 24t166 60v348q-168 53 -342 53q-152 0 -240 -59.5t-88 -186.5z" />
    <glyph glyph-name="atilde" unicode="&#xe3;" horiz-adv-x="1198" 
d="M360 1262h-71q-9 90 37 144t118 54q47 0 86 -21t62 -45.5t55.5 -45.5t67.5 -21q41 0 66 30.5t18 90.5h71q9 -92 -37 -145.5t-118 -53.5q-47 0 -85.5 21t-60.5 45.5t-54 45.5t-66 21q-42 0 -69.5 -31t-19.5 -89zM612 1133q119 0 201.5 -31t129.5 -92t67 -139.5t20 -184.5
v-686h-84l-16 92q-69 -46 -179 -78t-212 -32q-77 0 -145.5 18t-128 55.5t-94 103.5t-34.5 154q0 164 115 254t303 90q183 0 367 -63v119q0 160 -73.5 240.5t-236.5 80.5q-135 0 -219 -58t-88 -173h-108q2 109 61 185.5t150 110.5t204 34zM252 319q0 -85 43 -140t111 -77
t161 -22q91 0 189 24t166 60v348q-168 53 -342 53q-152 0 -240 -59.5t-88 -186.5z" />
    <glyph glyph-name="adieresis" unicode="&#xe4;" horiz-adv-x="1198" 
d="M385 1257q-31 0 -51.5 20.5t-20.5 51.5t20.5 51.5t51.5 20.5t51.5 -20.5t20.5 -51.5t-20.5 -51.5t-51.5 -20.5zM774 1257q-31 0 -51.5 20.5t-20.5 51.5t20.5 51.5t51.5 20.5t51.5 -20.5t20.5 -51.5t-20.5 -51.5t-51.5 -20.5zM612 1133q119 0 201.5 -31t129.5 -92
t67 -139.5t20 -184.5v-686h-84l-16 92q-69 -46 -179 -78t-212 -32q-77 0 -145.5 18t-128 55.5t-94 103.5t-34.5 154q0 164 115 254t303 90q183 0 367 -63v119q0 160 -73.5 240.5t-236.5 80.5q-135 0 -219 -58t-88 -173h-108q2 109 61 185.5t150 110.5t204 34zM252 319
q0 -85 43 -140t111 -77t161 -22q91 0 189 24t166 60v348q-168 53 -342 53q-152 0 -240 -59.5t-88 -186.5z" />
    <glyph glyph-name="aring" unicode="&#xe5;" horiz-adv-x="1191" 
d="M768 1116q142 -36 202 -144.5t60 -285.5v-686h-84l-16 92q-69 -46 -179 -78t-212 -32q-77 0 -145.5 18t-128 55.5t-94 103.5t-34.5 154q0 164 115 254t303 90q183 0 367 -63v119q0 160 -73.5 240.5t-236.5 80.5q-135 0 -219 -58t-88 -173h-108q3 129 81 209t205 108
q-67 48 -67 148q0 92 63 151.5t150 59.5t150 -59.5t63 -151.5q0 -101 -74 -152zM629 1421q-63 0 -107.5 -42t-44.5 -109q0 -66 42 -101.5t110 -35.5t108.5 35.5t40.5 101.5q0 67 -43.5 109t-105.5 42zM252 319q0 -85 43 -140t111 -77t161 -22q91 0 189 24t166 60v348
q-168 53 -342 53q-152 0 -240 -59.5t-88 -186.5z" />
    <glyph glyph-name="ae" unicode="&#xe6;" horiz-adv-x="2041" 
d="M1913 563h-875q-2 -16 -2 -47q0 -116 32.5 -203.5t90 -139.5t130 -77.5t159.5 -25.5q153 0 248.5 87.5t115.5 223.5h95q-19 -185 -146.5 -294.5t-314.5 -109.5q-128 0 -239 50t-183 145q-97 -96 -223.5 -143t-249.5 -47q-79 0 -150 19t-131.5 58t-96.5 106t-36 154
q0 110 56 187t150.5 114t219.5 37q197 0 361 -53v82q0 179 -71 263.5t-241 84.5q-133 0 -218 -58t-89 -173h-106q2 109 61 185.5t151.5 110.5t209.5 34q169 0 259 -69.5t119 -199.5q64 124 172 196.5t259 72.5q215 0 349 -140t134 -389v-41zM1430 1038q-85 0 -153 -30.5
t-113.5 -85t-74 -121.5t-42.5 -148h751q-1 180 -103 282.5t-265 102.5zM569 80q110 0 216.5 42t193.5 126q-57 114 -57 264v12q-149 41 -336 41q-73 0 -131 -12.5t-105 -39t-72.5 -73.5t-25.5 -112t25.5 -113.5t70.5 -77.5t100.5 -43t120.5 -14z" />
    <glyph glyph-name="ccedilla" unicode="&#xe7;" horiz-adv-x="1212" 
d="M975 737q-15 124 -110.5 212.5t-254.5 88.5q-98 0 -175 -42.5t-124 -115.5t-71.5 -164t-24.5 -194q0 -214 108 -330t295 -116q155 0 252.5 82.5t118.5 265.5h105q-8 -114 -48.5 -201.5t-105.5 -140t-146 -79t-176 -26.5q-231 0 -373.5 143.5t-142.5 397.5q0 94 20 182.5
t61.5 167.5t100.5 137.5t143 93t183 34.5q105 0 193.5 -34t146.5 -90.5t91.5 -126.5t37.5 -145h-104zM610 -127q181 0 181 -129q0 -80 -65.5 -126t-162.5 -46q-71 0 -143 25v45q63 -15 125 -15q60 0 101.5 27t41.5 74q0 92 -137 92h-39l31 53h67z" />
    <glyph glyph-name="egrave" unicode="&#xe8;" horiz-adv-x="1222" 
d="M788 1229h-94l-262 262h125zM1094 563h-877q-2 -16 -2 -47q0 -116 32.5 -203.5t90 -139.5t130 -77.5t159.5 -25.5q154 0 250 87.5t114 223.5h96q-19 -185 -146.5 -294.5t-315.5 -109.5q-106 0 -199.5 34.5t-166.5 99.5t-115 168.5t-42 232.5q0 93 18.5 180.5t59 168
t98.5 140.5t143.5 96t188.5 36q215 0 349.5 -140t134.5 -389v-41zM610 1038q-85 0 -153 -30.5t-114 -85t-75 -121.5t-43 -148h754q-1 180 -103.5 282.5t-265.5 102.5z" />
    <glyph glyph-name="eacute" unicode="&#xe9;" horiz-adv-x="1222" 
d="M788 1491l-262 -262h-94l232 262h124zM1094 563h-877q-2 -16 -2 -47q0 -116 32.5 -203.5t90 -139.5t130 -77.5t159.5 -25.5q154 0 250 87.5t114 223.5h96q-19 -185 -146.5 -294.5t-315.5 -109.5q-106 0 -199.5 34.5t-166.5 99.5t-115 168.5t-42 232.5q0 93 18.5 180.5
t59 168t98.5 140.5t143.5 96t188.5 36q215 0 349.5 -140t134.5 -389v-41zM610 1038q-85 0 -153 -30.5t-114 -85t-75 -121.5t-43 -148h754q-1 180 -103.5 282.5t-265.5 102.5z" />
    <glyph glyph-name="ecircumflex" unicode="&#xea;" horiz-adv-x="1222" 
d="M602 1425l-199 -196h-98l264 262h82l264 -262h-98l-199 196h-16zM1094 563h-877q-2 -16 -2 -47q0 -116 32.5 -203.5t90 -139.5t130 -77.5t159.5 -25.5q154 0 250 87.5t114 223.5h96q-19 -185 -146.5 -294.5t-315.5 -109.5q-106 0 -199.5 34.5t-166.5 99.5t-115 168.5
t-42 232.5q0 93 18.5 180.5t59 168t98.5 140.5t143.5 96t188.5 36q215 0 349.5 -140t134.5 -389v-41zM610 1038q-85 0 -153 -30.5t-114 -85t-75 -121.5t-43 -148h754q-1 180 -103.5 282.5t-265.5 102.5z" />
    <glyph glyph-name="edieresis" unicode="&#xeb;" horiz-adv-x="1222" 
d="M416 1257q-31 0 -51.5 20.5t-20.5 51.5t20.5 51.5t51.5 20.5t51 -20.5t20 -51.5t-20 -51.5t-51 -20.5zM805 1257q-31 0 -51.5 20.5t-20.5 51.5t20.5 51.5t51.5 20.5t51.5 -20.5t20.5 -51.5t-20.5 -51.5t-51.5 -20.5zM1094 563h-877q-2 -16 -2 -47q0 -116 32.5 -203.5
t90 -139.5t130 -77.5t159.5 -25.5q154 0 250 87.5t114 223.5h96q-19 -185 -146.5 -294.5t-315.5 -109.5q-106 0 -199.5 34.5t-166.5 99.5t-115 168.5t-42 232.5q0 93 18.5 180.5t59 168t98.5 140.5t143.5 96t188.5 36q215 0 349.5 -140t134.5 -389v-41zM610 1038
q-85 0 -153 -30.5t-114 -85t-75 -121.5t-43 -148h754q-1 180 -103.5 282.5t-265.5 102.5z" />
    <glyph glyph-name="igrave" unicode="&#xec;" horiz-adv-x="444" 
d="M238 1491l94 -262h-86l-133 262h125zM168 1110h108v-1110h-108v1110z" />
    <glyph glyph-name="iacute" unicode="&#xed;" horiz-adv-x="444" 
d="M207 1491h125l-133 -262h-86zM168 1110h108v-1110h-108v1110z" />
    <glyph glyph-name="icircumflex" unicode="&#xee;" horiz-adv-x="444" 
d="M33 1229l147 262h82l148 -262h-80l-101 192h-14l-102 -192h-80zM168 1110h108v-1110h-108v1110z" />
    <glyph glyph-name="idieresis" unicode="&#xef;" horiz-adv-x="444" 
d="M100 1257q-30 0 -50.5 20.5t-20.5 51.5t20.5 51.5t50.5 20.5q31 0 52.5 -20.5t21.5 -51.5t-21.5 -51.5t-52.5 -20.5zM342 1257q-30 0 -51 21t-21 51t21 51t51 21q31 0 52.5 -20.5t21.5 -51.5t-21.5 -51.5t-52.5 -20.5zM168 1110h108v-1110h-108v1110z" />
    <glyph glyph-name="eth" unicode="&#xf0;" horiz-adv-x="1275" 
d="M741 1511q398 -237 398 -747q0 -225 -61 -401t-184 -279.5t-292 -103.5q-97 0 -185.5 34t-159.5 98.5t-113 169.5t-42 236q0 253 134.5 414.5t355.5 161.5q263 0 434 -230h6q-10 198 -103.5 338t-240.5 228l-92 -136l-57 37l88 131q-117 60 -238 86l27 90
q149 -35 266 -94l92 135l57 -37zM598 78q202 0 315 179.5t113 496.5q-67 106 -177.5 176.5t-244.5 70.5q-98 0 -174.5 -39t-123 -106.5t-70 -152.5t-23.5 -183q0 -211 110 -326.5t275 -115.5z" />
    <glyph glyph-name="ntilde" unicode="&#xf1;" horiz-adv-x="1239" 
d="M401 1262h-71q-9 90 37 144t118 54q47 0 86 -21t62 -45.5t55.5 -45.5t67.5 -21q41 0 66 30.5t18 90.5h71q9 -92 -37 -145.5t-118 -53.5q-38 0 -70.5 13.5t-54.5 33t-42.5 39.5t-46 33.5t-53.5 13.5q-41 0 -68.5 -31t-19.5 -89zM684 1128q86 0 152.5 -22t110.5 -60.5
t72 -94.5t40 -119.5t12 -139.5v-692h-108v659q0 183 -69.5 279t-234.5 96q-116 0 -220 -55t-163 -172v-807h-108v1110h100l8 -166v-16q73 102 180 151t228 49z" />
    <glyph glyph-name="ograve" unicode="&#xf2;" horiz-adv-x="1241" 
d="M567 1491l232 -262h-94l-263 262h125zM102 512q0 93 21 182.5t64 169t104 139.5t146 95t184 35q123 0 223.5 -53.5t163.5 -142t97 -198.5t34 -227q0 -253 -144.5 -394t-373.5 -141t-374 141t-145 394zM215 514q0 -216 110 -327t296 -111q185 0 295 111t110 327
q0 102 -26 195t-75 167t-127.5 118t-176.5 44t-177 -44t-128 -118t-75 -167t-26 -195z" />
    <glyph glyph-name="oacute" unicode="&#xf3;" horiz-adv-x="1241" 
d="M674 1491h125l-262 -262h-95zM102 512q0 93 21 182.5t64 169t104 139.5t146 95t184 35q123 0 223.5 -53.5t163.5 -142t97 -198.5t34 -227q0 -253 -144.5 -394t-373.5 -141t-374 141t-145 394zM215 514q0 -216 110 -327t296 -111q185 0 295 111t110 327q0 102 -26 195
t-75 167t-127.5 118t-176.5 44t-177 -44t-128 -118t-75 -167t-26 -195z" />
    <glyph glyph-name="ocircumflex" unicode="&#xf4;" horiz-adv-x="1241" 
d="M315 1229l265 262h82l264 -262h-99l-198 196h-17l-198 -196h-99zM102 512q0 93 21 182.5t64 169t104 139.5t146 95t184 35q123 0 223.5 -53.5t163.5 -142t97 -198.5t34 -227q0 -253 -144.5 -394t-373.5 -141t-374 141t-145 394zM215 514q0 -216 110 -327t296 -111
q185 0 295 111t110 327q0 102 -26 195t-75 167t-127.5 118t-176.5 44t-177 -44t-128 -118t-75 -167t-26 -195z" />
    <glyph glyph-name="otilde" unicode="&#xf5;" horiz-adv-x="1241" 
d="M911 1448q9 -92 -37 -145.5t-118 -53.5q-38 0 -70.5 13.5t-54.5 33t-42.5 39.5t-46 33.5t-53.5 13.5q-41 0 -68.5 -31t-19.5 -89h-71q-9 90 37 144t118 54q47 0 86 -21t62 -45.5t55.5 -45.5t67.5 -21q41 0 66 30.5t18 90.5h71zM102 512q0 93 21 182.5t64 169t104 139.5
t146 95t184 35q123 0 223.5 -53.5t163.5 -142t97 -198.5t34 -227q0 -253 -144.5 -394t-373.5 -141t-374 141t-145 394zM215 514q0 -216 110 -327t296 -111q185 0 295 111t110 327q0 102 -26 195t-75 167t-127.5 118t-176.5 44t-177 -44t-128 -118t-75 -167t-26 -195z" />
    <glyph glyph-name="odieresis" unicode="&#xf6;" horiz-adv-x="1241" 
d="M426 1257q-31 0 -51.5 20.5t-20.5 51.5t20.5 51.5t51.5 20.5t51.5 -20.5t20.5 -51.5t-20.5 -51.5t-51.5 -20.5zM815 1257q-31 0 -51.5 20.5t-20.5 51.5t20.5 51.5t51.5 20.5t51.5 -20.5t20.5 -51.5t-20.5 -51.5t-51.5 -20.5zM102 512q0 93 21 182.5t64 169t104 139.5
t146 95t184 35q123 0 223.5 -53.5t163.5 -142t97 -198.5t34 -227q0 -253 -144.5 -394t-373.5 -141t-374 141t-145 394zM215 514q0 -216 110 -327t296 -111q185 0 295 111t110 327q0 102 -26 195t-75 167t-127.5 118t-176.5 44t-177 -44t-128 -118t-75 -167t-26 -195z" />
    <glyph glyph-name="divide" unicode="&#xf7;" 
d="M616 870q-26 0 -43.5 18t-17.5 44t17.5 43.5t43.5 17.5t44 -17.5t18 -43.5t-18 -44t-44 -18zM238 637h753v-86h-753v86zM616 195q-26 0 -43.5 17.5t-17.5 43.5t17.5 43.5t43.5 17.5t44 -17.5t18 -43.5t-18 -43.5t-44 -17.5z" />
    <glyph glyph-name="oslash" unicode="&#xf8;" horiz-adv-x="1241" 
d="M932 1020q100 -87 153.5 -223t53.5 -285q0 -253 -144.5 -394t-373.5 -141q-146 0 -259 58l-63 -111l-70 41l66 113q-193 143 -193 434q0 93 21 182.5t64 169t104 139.5t146 95t184 35q132 0 245 -66l70 121l70 -41zM215 514q0 -231 131 -346l471 815q-86 55 -196 55
q-98 0 -177 -44t-128 -118t-75 -167t-26 -195zM621 76q185 0 295 111t110 327q0 123 -37.5 233.5t-107.5 182.5l-467 -809q86 -45 207 -45z" />
    <glyph glyph-name="ugrave" unicode="&#xf9;" 
d="M795 1229h-95l-262 262h125zM952 1110h109v-1110h-90l-17 152q-72 -87 -175 -131t-212 -44q-91 0 -162.5 23.5t-117 63t-75.5 95t-42 114.5t-12 126v711h108v-678q0 -362 324 -362q100 0 201 44t161 130v866z" />
    <glyph glyph-name="uacute" unicode="&#xfa;" 
d="M795 1491l-263 -262h-94l232 262h125zM952 1110h109v-1110h-90l-17 152q-72 -87 -175 -131t-212 -44q-91 0 -162.5 23.5t-117 63t-75.5 95t-42 114.5t-12 126v711h108v-678q0 -362 324 -362q100 0 201 44t161 130v866z" />
    <glyph glyph-name="ucircumflex" unicode="&#xfb;" 
d="M608 1425l-198 -196h-99l264 262h82l265 -262h-99l-198 196h-17zM952 1110h109v-1110h-90l-17 152q-72 -87 -175 -131t-212 -44q-91 0 -162.5 23.5t-117 63t-75.5 95t-42 114.5t-12 126v711h108v-678q0 -362 324 -362q100 0 201 44t161 130v866z" />
    <glyph glyph-name="udieresis" unicode="&#xfc;" 
d="M422 1257q-31 0 -51.5 20.5t-20.5 51.5t20.5 51.5t51.5 20.5t51.5 -20.5t20.5 -51.5t-20.5 -51.5t-51.5 -20.5zM811 1257q-31 0 -51.5 20.5t-20.5 51.5t20.5 51.5t51.5 20.5t51.5 -20.5t20.5 -51.5t-20.5 -51.5t-51.5 -20.5zM952 1110h109v-1110h-90l-17 152
q-72 -87 -175 -131t-212 -44q-91 0 -162.5 23.5t-117 63t-75.5 95t-42 114.5t-12 126v711h108v-678q0 -362 324 -362q100 0 201 44t161 130v866z" />
    <glyph glyph-name="yacute" unicode="&#xfd;" horiz-adv-x="1132" 
d="M745 1491l-262 -262h-94l232 262h124zM956 1110h115l-467 -1200q-48 -128 -131 -206.5t-176 -78.5q-90 0 -178 43l18 76q68 -27 142 -27q69 0 129.5 64.5t105.5 181.5l29 60l-482 1087h117l414 -956h8z" />
    <glyph glyph-name="thorn" unicode="&#xfe;" horiz-adv-x="1212" 
d="M657 1128q89 0 164 -33.5t127.5 -90.5t89.5 -133.5t54.5 -162.5t17.5 -178q0 -130 -38.5 -236t-105 -173t-153 -103t-184.5 -36q-93 0 -188 34t-165 86v-471h-108v1946h108v-596q70 59 168 103t213 44zM608 80q177 0 283 114.5t106 340.5q0 100 -22 187.5t-65 158
t-115.5 111t-165.5 40.5q-105 0 -196.5 -38.5t-156.5 -96.5v-713q72 -47 162 -75.5t170 -28.5z" />
    <glyph glyph-name="ydieresis" unicode="&#xff;" horiz-adv-x="1132" 
d="M373 1257q-31 0 -51.5 20.5t-20.5 51.5t20.5 51.5t51.5 20.5t51 -20.5t20 -51.5t-20 -51.5t-51 -20.5zM762 1257q-31 0 -51.5 20.5t-20.5 51.5t20.5 51.5t51.5 20.5t51.5 -20.5t20.5 -51.5t-20.5 -51.5t-51.5 -20.5zM956 1110h115l-467 -1200q-48 -128 -131 -206.5
t-176 -78.5q-90 0 -178 43l18 76q68 -27 142 -27q69 0 129.5 64.5t105.5 181.5l29 60l-482 1087h117l414 -956h8z" />
    <glyph glyph-name="Amacron" unicode="&#x100;" horiz-adv-x="1339" 
d="M909 1683v-73h-479v73h479zM1155 0l-164 446h-645l-164 -446h-116l528 1434h154l526 -1434h-119zM383 549h571l-276 758h-16z" />
    <glyph glyph-name="amacron" unicode="&#x101;" horiz-adv-x="1198" 
d="M819 1360v-74h-479v74h479zM612 1133q119 0 201.5 -31t129.5 -92t67 -139.5t20 -184.5v-686h-84l-16 92q-69 -46 -179 -78t-212 -32q-77 0 -145.5 18t-128 55.5t-94 103.5t-34.5 154q0 164 115 254t303 90q183 0 367 -63v119q0 160 -73.5 240.5t-236.5 80.5
q-135 0 -219 -58t-88 -173h-108q2 109 61 185.5t150 110.5t204 34zM252 319q0 -85 43 -140t111 -77t161 -22q91 0 189 24t166 60v348q-168 53 -342 53q-152 0 -240 -59.5t-88 -186.5z" />
    <glyph glyph-name="Abreve" unicode="&#x102;" horiz-adv-x="1339" 
d="M670 1540q-141 0 -223 84.5t-82 190.5h90q0 -33 11.5 -66.5t35 -64.5t67 -50.5t101.5 -19.5t101.5 19.5t67 50.5t35 64.5t11.5 66.5h90q0 -106 -82 -190.5t-223 -84.5zM1155 0l-164 446h-645l-164 -446h-116l528 1434h154l526 -1434h-119zM383 549h571l-276 758h-16z" />
    <glyph glyph-name="abreve" unicode="&#x103;" horiz-adv-x="1198" 
d="M580 1217q-141 0 -223.5 84t-82.5 190h91q0 -33 11.5 -66.5t35 -64.5t67 -50.5t101.5 -19.5t101.5 19.5t67 50.5t35 64.5t11.5 66.5h90q0 -106 -82 -190t-223 -84zM612 1133q119 0 201.5 -31t129.5 -92t67 -139.5t20 -184.5v-686h-84l-16 92q-69 -46 -179 -78t-212 -32
q-77 0 -145.5 18t-128 55.5t-94 103.5t-34.5 154q0 164 115 254t303 90q183 0 367 -63v119q0 160 -73.5 240.5t-236.5 80.5q-135 0 -219 -58t-88 -173h-108q2 109 61 185.5t150 110.5t204 34zM252 319q0 -85 43 -140t111 -77t161 -22q91 0 189 24t166 60v348
q-168 53 -342 53q-152 0 -240 -59.5t-88 -186.5z" />
    <glyph glyph-name="Aogonek" unicode="&#x104;" horiz-adv-x="1339" 
d="M1241 -358q38 0 84 12v-55q-54 -27 -117 -27q-88 0 -144 52.5t-56 131.5q0 67 42.5 135t118.5 109h-14l-164 446h-645l-164 -446h-116l528 1434h154l526 -1434h-2q-85 -42 -127.5 -101.5t-42.5 -123.5q0 -59 36.5 -96t102.5 -37zM383 549h571l-276 758h-16z" />
    <glyph glyph-name="aogonek" unicode="&#x105;" horiz-adv-x="1198" 
d="M999 -358q38 0 84 12v-55q-54 -27 -116 -27q-88 0 -144.5 52.5t-56.5 131.5q0 70 47 141.5t131 110.5l-14 84q-69 -46 -179 -78t-212 -32q-77 0 -145.5 18t-128 55.5t-94 103.5t-34.5 154q0 164 115 254t303 90q183 0 367 -63v119q0 160 -73.5 240.5t-236.5 80.5
q-135 0 -219 -58t-88 -173h-108q2 109 61 185.5t150 110.5t204 34q119 0 201.5 -31t129.5 -92t67 -139.5t20 -184.5v-686q-85 -42 -127.5 -101.5t-42.5 -123.5q0 -59 36.5 -96t102.5 -37zM252 319q0 -85 43 -140t111 -77t161 -22q91 0 189 24t166 60v348q-168 53 -342 53
q-152 0 -240 -59.5t-88 -186.5z" />
    <glyph glyph-name="Cacute" unicode="&#x106;" horiz-adv-x="1417" 
d="M764 1815h125l-262 -263h-95zM1135 928q-1 62 -14 120t-43.5 116t-76.5 100.5t-118 69t-162 26.5q-96 0 -175.5 -39.5t-132.5 -105.5t-89.5 -155t-53 -186.5t-16.5 -201.5q0 -273 124 -431.5t349 -158.5q96 0 170.5 27.5t120.5 71.5t75.5 105.5t40.5 124t11 132.5h112
q0 -93 -18 -175t-58 -155t-100.5 -125t-151 -82.5t-202.5 -30.5q-277 0 -433.5 189t-156.5 506q0 119 21 231t67 214.5t113 178.5t166.5 121t220.5 45q106 0 194.5 -31t148 -83.5t101 -121.5t60 -143.5t18.5 -152.5h-112z" />
    <glyph glyph-name="cacute" unicode="&#x107;" horiz-adv-x="1212" 
d="M659 1491h125l-262 -262h-94zM975 737q-15 124 -110.5 212.5t-254.5 88.5q-98 0 -175 -42.5t-124 -115.5t-71.5 -164t-24.5 -194q0 -214 108 -330t295 -116q155 0 252.5 82.5t118.5 265.5h105q-8 -114 -48.5 -201.5t-105.5 -140t-146 -79t-176 -26.5q-231 0 -373.5 143.5
t-142.5 397.5q0 94 20 182.5t61.5 167.5t100.5 137.5t143 93t183 34.5q105 0 193.5 -34t146.5 -90.5t91.5 -126.5t37.5 -145h-104z" />
    <glyph glyph-name="Ccircumflex" unicode="&#x108;" horiz-adv-x="1417" 
d="M406 1552l264 263h82l264 -263h-98l-199 197h-17l-198 -197h-98zM1135 928q-1 62 -14 120t-43.5 116t-76.5 100.5t-118 69t-162 26.5q-96 0 -175.5 -39.5t-132.5 -105.5t-89.5 -155t-53 -186.5t-16.5 -201.5q0 -273 124 -431.5t349 -158.5q96 0 170.5 27.5t120.5 71.5
t75.5 105.5t40.5 124t11 132.5h112q0 -93 -18 -175t-58 -155t-100.5 -125t-151 -82.5t-202.5 -30.5q-277 0 -433.5 189t-156.5 506q0 119 21 231t67 214.5t113 178.5t166.5 121t220.5 45q106 0 194.5 -31t148 -83.5t101 -121.5t60 -143.5t18.5 -152.5h-112z" />
    <glyph glyph-name="ccircumflex" unicode="&#x109;" horiz-adv-x="1212" 
d="M301 1229l264 262h82l264 -262h-98l-199 196h-16l-199 -196h-98zM975 737q-15 124 -110.5 212.5t-254.5 88.5q-98 0 -175 -42.5t-124 -115.5t-71.5 -164t-24.5 -194q0 -214 108 -330t295 -116q155 0 252.5 82.5t118.5 265.5h105q-8 -114 -48.5 -201.5t-105.5 -140
t-146 -79t-176 -26.5q-231 0 -373.5 143.5t-142.5 397.5q0 94 20 182.5t61.5 167.5t100.5 137.5t143 93t183 34.5q105 0 193.5 -34t146.5 -90.5t91.5 -126.5t37.5 -145h-104z" />
    <glyph glyph-name="Cdotaccent" unicode="&#x10a;" horiz-adv-x="1417" 
d="M711 1579q-35 0 -58.5 23.5t-23.5 58.5t23.5 58.5t58.5 23.5t58.5 -23.5t23.5 -58.5t-23.5 -58.5t-58.5 -23.5zM1135 928q-1 62 -14 120t-43.5 116t-76.5 100.5t-118 69t-162 26.5q-96 0 -175.5 -39.5t-132.5 -105.5t-89.5 -155t-53 -186.5t-16.5 -201.5
q0 -273 124 -431.5t349 -158.5q96 0 170.5 27.5t120.5 71.5t75.5 105.5t40.5 124t11 132.5h112q0 -93 -18 -175t-58 -155t-100.5 -125t-151 -82.5t-202.5 -30.5q-277 0 -433.5 189t-156.5 506q0 119 21 231t67 214.5t113 178.5t166.5 121t220.5 45q106 0 194.5 -31
t148 -83.5t101 -121.5t60 -143.5t18.5 -152.5h-112z" />
    <glyph glyph-name="cdotaccent" unicode="&#x10b;" horiz-adv-x="1212" 
d="M606 1255q-35 0 -58.5 23.5t-23.5 58.5t23.5 58.5t58.5 23.5t58.5 -23.5t23.5 -58.5t-23.5 -58.5t-58.5 -23.5zM975 737q-15 124 -110.5 212.5t-254.5 88.5q-98 0 -175 -42.5t-124 -115.5t-71.5 -164t-24.5 -194q0 -214 108 -330t295 -116q155 0 252.5 82.5t118.5 265.5
h105q-8 -114 -48.5 -201.5t-105.5 -140t-146 -79t-176 -26.5q-231 0 -373.5 143.5t-142.5 397.5q0 94 20 182.5t61.5 167.5t100.5 137.5t143 93t183 34.5q105 0 193.5 -34t146.5 -90.5t91.5 -126.5t37.5 -145h-104z" />
    <glyph glyph-name="Ccaron" unicode="&#x10c;" horiz-adv-x="1417" 
d="M406 1815h98l198 -197h17l199 197h98l-264 -263h-82zM1135 928q-1 62 -14 120t-43.5 116t-76.5 100.5t-118 69t-162 26.5q-96 0 -175.5 -39.5t-132.5 -105.5t-89.5 -155t-53 -186.5t-16.5 -201.5q0 -273 124 -431.5t349 -158.5q96 0 170.5 27.5t120.5 71.5t75.5 105.5
t40.5 124t11 132.5h112q0 -93 -18 -175t-58 -155t-100.5 -125t-151 -82.5t-202.5 -30.5q-277 0 -433.5 189t-156.5 506q0 119 21 231t67 214.5t113 178.5t166.5 121t220.5 45q106 0 194.5 -31t148 -83.5t101 -121.5t60 -143.5t18.5 -152.5h-112z" />
    <glyph glyph-name="ccaron" unicode="&#x10d;" horiz-adv-x="1212" 
d="M301 1491h98l199 -197h16l199 197h98l-264 -262h-82zM975 737q-15 124 -110.5 212.5t-254.5 88.5q-98 0 -175 -42.5t-124 -115.5t-71.5 -164t-24.5 -194q0 -214 108 -330t295 -116q155 0 252.5 82.5t118.5 265.5h105q-8 -114 -48.5 -201.5t-105.5 -140t-146 -79
t-176 -26.5q-231 0 -373.5 143.5t-142.5 397.5q0 94 20 182.5t61.5 167.5t100.5 137.5t143 93t183 34.5q105 0 193.5 -34t146.5 -90.5t91.5 -126.5t37.5 -145h-104z" />
    <glyph glyph-name="Dcaron" unicode="&#x10e;" horiz-adv-x="1382" 
d="M647 1552h-82l-264 263h98l199 -197h16l199 197h98zM606 1434q132 0 239 -39t180.5 -106.5t123 -160.5t72 -198t22.5 -221q0 -117 -22.5 -221t-71.5 -194t-120.5 -155t-175.5 -102t-230 -37h-437v1434h420zM629 104q114 0 203 35.5t143.5 92.5t90 137t49 161t13.5 172
q0 104 -17 194t-56 170t-99 136.5t-150.5 89.5t-205.5 33h-303v-1221h332z" />
    <glyph glyph-name="dcaron" unicode="&#x10f;" horiz-adv-x="1501" 
d="M1401 1630q41 0 62.5 -37.5t21.5 -101.5q0 -62 -10.5 -118.5t-32.5 -105.5t-61.5 -78.5t-90.5 -29.5v55q55 0 85 57t30 132q-32 7 -51 47t-19 88q0 40 16.5 66t49.5 26zM936 1012v565h108v-1577h-83l-19 104q-67 -54 -161 -88t-195 -34q-100 0 -188 37.5t-154 107.5
t-104 178t-38 240q0 115 28 217t83.5 185t147.5 132t210 49q200 0 365 -116zM215 547q0 -229 106 -348t285 -119q86 0 173.5 25.5t156.5 66.5v748q-143 112 -332 112q-84 0 -150.5 -26t-110.5 -70.5t-73.5 -107t-42 -132.5t-12.5 -149z" />
    <glyph glyph-name="Dcroat" unicode="&#x110;" horiz-adv-x="1382" 
d="M606 1434q132 0 239 -39t180.5 -106.5t123 -160.5t72 -198t22.5 -221q0 -117 -22.5 -221t-71.5 -194t-120.5 -155t-175.5 -102t-230 -37h-437v657h-114v86h114v691h420zM629 104q114 0 203 35.5t143.5 92.5t90 137t49 161t13.5 172q0 104 -17 194t-56 170t-99 136.5
t-150.5 89.5t-205.5 33h-303v-582h383v-86h-383v-553h332z" />
    <glyph glyph-name="dcroat" unicode="&#x111;" horiz-adv-x="1212" 
d="M1184 1382v-73h-140v-1309h-83l-19 104q-67 -54 -161 -88t-195 -34q-100 0 -188 37.5t-154 107.5t-104 178t-38 240q0 115 28 217t83.5 185t147.5 132t210 49q200 0 365 -116v297h-293v73h293v195h108v-195h140zM215 547q0 -229 106 -348t285 -119q86 0 173.5 25.5
t156.5 66.5v748q-143 112 -332 112q-84 0 -150.5 -26t-110.5 -70.5t-73.5 -107t-42 -132.5t-12.5 -149z" />
    <glyph glyph-name="Emacron" unicode="&#x112;" horiz-adv-x="1161" 
d="M819 1683v-73h-479v73h479zM981 1325h-684v-512h655v-106h-655v-596h684v-111h-795v1434h795v-109z" />
    <glyph glyph-name="emacron" unicode="&#x113;" horiz-adv-x="1222" 
d="M850 1360v-74h-479v74h479zM1094 563h-877q-2 -16 -2 -47q0 -116 32.5 -203.5t90 -139.5t130 -77.5t159.5 -25.5q154 0 250 87.5t114 223.5h96q-19 -185 -146.5 -294.5t-315.5 -109.5q-106 0 -199.5 34.5t-166.5 99.5t-115 168.5t-42 232.5q0 93 18.5 180.5t59 168
t98.5 140.5t143.5 96t188.5 36q215 0 349.5 -140t134.5 -389v-41zM610 1038q-85 0 -153 -30.5t-114 -85t-75 -121.5t-43 -148h754q-1 180 -103.5 282.5t-265.5 102.5z" />
    <glyph glyph-name="Ebreve" unicode="&#x114;" horiz-adv-x="1161" 
d="M580 1540q-141 0 -223.5 84.5t-82.5 190.5h91q0 -33 11.5 -66.5t35 -64.5t67 -50.5t101.5 -19.5t101.5 19.5t67 50.5t35 64.5t11.5 66.5h90q0 -106 -82 -190.5t-223 -84.5zM981 1325h-684v-512h655v-106h-655v-596h684v-111h-795v1434h795v-109z" />
    <glyph glyph-name="ebreve" unicode="&#x115;" horiz-adv-x="1222" 
d="M610 1217q-141 0 -223 84t-82 190h90q0 -33 11.5 -66.5t35 -64.5t67 -50.5t101.5 -19.5t101.5 19.5t67 50.5t35 64.5t11.5 66.5h90q0 -106 -82 -190t-223 -84zM1094 563h-877q-2 -16 -2 -47q0 -116 32.5 -203.5t90 -139.5t130 -77.5t159.5 -25.5q154 0 250 87.5
t114 223.5h96q-19 -185 -146.5 -294.5t-315.5 -109.5q-106 0 -199.5 34.5t-166.5 99.5t-115 168.5t-42 232.5q0 93 18.5 180.5t59 168t98.5 140.5t143.5 96t188.5 36q215 0 349.5 -140t134.5 -389v-41zM610 1038q-85 0 -153 -30.5t-114 -85t-75 -121.5t-43 -148h754
q-1 180 -103.5 282.5t-265.5 102.5z" />
    <glyph glyph-name="Edotaccent" unicode="&#x116;" horiz-adv-x="1161" 
d="M580 1579q-35 0 -58.5 23.5t-23.5 58.5t23.5 58.5t58.5 23.5t58.5 -23.5t23.5 -58.5t-23.5 -58.5t-58.5 -23.5zM981 1325h-684v-512h655v-106h-655v-596h684v-111h-795v1434h795v-109z" />
    <glyph glyph-name="edotaccent" unicode="&#x117;" horiz-adv-x="1222" 
d="M610 1255q-35 0 -58.5 23.5t-23.5 58.5t23.5 58.5t58.5 23.5t58.5 -23.5t23.5 -58.5t-23.5 -58.5t-58.5 -23.5zM1094 563h-877q-2 -16 -2 -47q0 -116 32.5 -203.5t90 -139.5t130 -77.5t159.5 -25.5q154 0 250 87.5t114 223.5h96q-19 -185 -146.5 -294.5t-315.5 -109.5
q-106 0 -199.5 34.5t-166.5 99.5t-115 168.5t-42 232.5q0 93 18.5 180.5t59 168t98.5 140.5t143.5 96t188.5 36q215 0 349.5 -140t134.5 -389v-41zM610 1038q-85 0 -153 -30.5t-114 -85t-75 -121.5t-43 -148h754q-1 180 -103.5 282.5t-265.5 102.5z" />
    <glyph glyph-name="Eogonek" unicode="&#x118;" horiz-adv-x="1161" 
d="M950 -358q38 0 84 12v-55q-54 -27 -116 -27q-88 0 -144.5 52.5t-56.5 131.5q0 66 43 134.5t119 109.5h-693v1434h795v-109h-684v-512h655v-106h-655v-596h684v-111q-85 -42 -127.5 -101.5t-42.5 -123.5q0 -59 36.5 -96t102.5 -37z" />
    <glyph glyph-name="eogonek" unicode="&#x119;" horiz-adv-x="1222" 
d="M1094 563h-877q-2 -16 -2 -47q0 -116 32.5 -203.5t90 -139.5t130 -77.5t159.5 -25.5q154 0 250 87.5t114 223.5h96q-15 -152 -105.5 -254t-231.5 -135q-77 -43 -115.5 -100t-38.5 -117q0 -59 36.5 -96t102.5 -37q38 0 84 12v-55q-54 -27 -117 -27q-88 0 -144 52.5
t-56 131.5q0 58 32.5 118t92.5 103h-2q-106 0 -199.5 34.5t-166.5 99.5t-115 168.5t-42 232.5q0 93 18.5 180.5t59 168t98.5 140.5t143.5 96t188.5 36q215 0 349.5 -140t134.5 -389v-41zM610 1038q-85 0 -153 -30.5t-114 -85t-75 -121.5t-43 -148h754q-1 180 -103.5 282.5
t-265.5 102.5z" />
    <glyph glyph-name="Ecaron" unicode="&#x11a;" horiz-adv-x="1161" 
d="M621 1552h-82l-265 263h99l198 -197h17l198 197h99zM981 1325h-684v-512h655v-106h-655v-596h684v-111h-795v1434h795v-109z" />
    <glyph glyph-name="ecaron" unicode="&#x11b;" horiz-adv-x="1222" 
d="M651 1229h-82l-264 262h98l199 -197h16l199 197h98zM1094 563h-877q-2 -16 -2 -47q0 -116 32.5 -203.5t90 -139.5t130 -77.5t159.5 -25.5q154 0 250 87.5t114 223.5h96q-19 -185 -146.5 -294.5t-315.5 -109.5q-106 0 -199.5 34.5t-166.5 99.5t-115 168.5t-42 232.5
q0 93 18.5 180.5t59 168t98.5 140.5t143.5 96t188.5 36q215 0 349.5 -140t134.5 -389v-41zM610 1038q-85 0 -153 -30.5t-114 -85t-75 -121.5t-43 -148h754q-1 180 -103.5 282.5t-265.5 102.5z" />
    <glyph glyph-name="Gcircumflex" unicode="&#x11c;" horiz-adv-x="1441" 
d="M416 1552l264 263h82l264 -263h-98l-199 197h-16l-199 -197h-98zM729 750h533v-277q0 -63 -17.5 -129t-59 -133t-101.5 -119t-152.5 -84.5t-204.5 -32.5q-275 0 -432.5 191.5t-157.5 515.5q0 92 13.5 181t42 177.5t76.5 163.5t112 133t154 90.5t198 32.5q101 0 185 -29
t139.5 -76t95.5 -109t59.5 -124.5t24.5 -126.5h-113q-7 68 -32.5 129.5t-71.5 116t-121.5 87t-171.5 32.5q-103 0 -186 -41.5t-135.5 -108.5t-87.5 -157t-49.5 -181.5t-14.5 -187.5q0 -285 126.5 -443.5t354.5 -158.5q92 0 165.5 26t119.5 67t76.5 96t42.5 109.5t12 111.5
v157h-422v101z" />
    <glyph glyph-name="gcircumflex" unicode="&#x11d;" horiz-adv-x="1212" 
d="M598 1425l-199 -196h-98l264 262h82l264 -262h-98l-199 196h-16zM961 1110h83v-1032q0 -227 -131 -344t-350 -117q-186 0 -375 88l35 88q60 -31 152.5 -56.5t189.5 -25.5q171 0 271 92.5t100 274.5v61q-66 -45 -160.5 -75.5t-195.5 -30.5q-103 0 -189 33.5t-151 97.5
t-101.5 165.5t-36.5 231.5q0 89 17.5 170.5t55 154.5t92.5 126.5t135.5 84.5t177.5 31q173 0 364 -122zM610 127q158 0 326 86v709q-155 110 -326 110q-105 0 -183.5 -37t-123.5 -103t-66.5 -147t-21.5 -178q0 -224 104.5 -332t290.5 -108z" />
    <glyph glyph-name="Gbreve" unicode="&#x11e;" horiz-adv-x="1441" 
d="M506 1815q0 -33 11.5 -66.5t35 -64.5t67 -50.5t101.5 -19.5t101.5 19.5t67 50.5t35 64.5t11.5 66.5h90q0 -106 -82 -190.5t-223 -84.5t-223 84.5t-82 190.5h90zM729 750h533v-277q0 -63 -17.5 -129t-59 -133t-101.5 -119t-152.5 -84.5t-204.5 -32.5q-275 0 -432.5 191.5
t-157.5 515.5q0 92 13.5 181t42 177.5t76.5 163.5t112 133t154 90.5t198 32.5q101 0 185 -29t139.5 -76t95.5 -109t59.5 -124.5t24.5 -126.5h-113q-7 68 -32.5 129.5t-71.5 116t-121.5 87t-171.5 32.5q-103 0 -186 -41.5t-135.5 -108.5t-87.5 -157t-49.5 -181.5
t-14.5 -187.5q0 -285 126.5 -443.5t354.5 -158.5q92 0 165.5 26t119.5 67t76.5 96t42.5 109.5t12 111.5v157h-422v101z" />
    <glyph glyph-name="gbreve" unicode="&#x11f;" horiz-adv-x="1212" 
d="M606 1217q-141 0 -223 84t-82 190h90q0 -33 11.5 -66.5t35 -64.5t67 -50.5t101.5 -19.5t101.5 19.5t67 50.5t35 64.5t11.5 66.5h90q0 -106 -82 -190t-223 -84zM961 1110h83v-1032q0 -227 -131 -344t-350 -117q-186 0 -375 88l35 88q60 -31 152.5 -56.5t189.5 -25.5
q171 0 271 92.5t100 274.5v61q-66 -45 -160.5 -75.5t-195.5 -30.5q-103 0 -189 33.5t-151 97.5t-101.5 165.5t-36.5 231.5q0 89 17.5 170.5t55 154.5t92.5 126.5t135.5 84.5t177.5 31q173 0 364 -122zM610 127q158 0 326 86v709q-155 110 -326 110q-105 0 -183.5 -37
t-123.5 -103t-66.5 -147t-21.5 -178q0 -224 104.5 -332t290.5 -108z" />
    <glyph glyph-name="Gdotaccent" unicode="&#x120;" horiz-adv-x="1441" 
d="M721 1579q-35 0 -58.5 23.5t-23.5 58.5t23.5 58.5t58.5 23.5t58.5 -23.5t23.5 -58.5t-23.5 -58.5t-58.5 -23.5zM729 750h533v-277q0 -63 -17.5 -129t-59 -133t-101.5 -119t-152.5 -84.5t-204.5 -32.5q-275 0 -432.5 191.5t-157.5 515.5q0 92 13.5 181t42 177.5
t76.5 163.5t112 133t154 90.5t198 32.5q101 0 185 -29t139.5 -76t95.5 -109t59.5 -124.5t24.5 -126.5h-113q-7 68 -32.5 129.5t-71.5 116t-121.5 87t-171.5 32.5q-103 0 -186 -41.5t-135.5 -108.5t-87.5 -157t-49.5 -181.5t-14.5 -187.5q0 -285 126.5 -443.5t354.5 -158.5
q92 0 165.5 26t119.5 67t76.5 96t42.5 109.5t12 111.5v157h-422v101z" />
    <glyph glyph-name="gdotaccent" unicode="&#x121;" horiz-adv-x="1212" 
d="M606 1255q-35 0 -58.5 23.5t-23.5 58.5t23.5 58.5t58.5 23.5t58.5 -23.5t23.5 -58.5t-23.5 -58.5t-58.5 -23.5zM961 1110h83v-1032q0 -227 -131 -344t-350 -117q-186 0 -375 88l35 88q60 -31 152.5 -56.5t189.5 -25.5q171 0 271 92.5t100 274.5v61q-66 -45 -160.5 -75.5
t-195.5 -30.5q-103 0 -189 33.5t-151 97.5t-101.5 165.5t-36.5 231.5q0 89 17.5 170.5t55 154.5t92.5 126.5t135.5 84.5t177.5 31q173 0 364 -122zM610 127q158 0 326 86v709q-155 110 -326 110q-105 0 -183.5 -37t-123.5 -103t-66.5 -147t-21.5 -178q0 -224 104.5 -332
t290.5 -108z" />
    <glyph glyph-name="uni0122" unicode="&#x122;" horiz-adv-x="1441" 
d="M729 750h533v-277q0 -63 -17.5 -129t-59 -133t-101.5 -119t-152.5 -84.5t-204.5 -32.5q-275 0 -432.5 191.5t-157.5 515.5q0 92 13.5 181t42 177.5t76.5 163.5t112 133t154 90.5t198 32.5q101 0 185 -29t139.5 -76t95.5 -109t59.5 -124.5t24.5 -126.5h-113
q-7 68 -32.5 129.5t-71.5 116t-121.5 87t-171.5 32.5q-103 0 -186 -41.5t-135.5 -108.5t-87.5 -157t-49.5 -181.5t-14.5 -187.5q0 -285 126.5 -443.5t354.5 -158.5q92 0 165.5 26t119.5 67t76.5 96t42.5 109.5t12 111.5v157h-422v101zM721 -74q31 0 50.5 -28.5t19.5 -77.5
q0 -62 -32 -124t-89 -97l-17 43q29 20 46.5 55.5t15.5 69.5q-24 0 -42 20.5t-18 54.5t18 59t48 25z" />
    <glyph glyph-name="uni0123" unicode="&#x123;" horiz-adv-x="1212" 
d="M606 1227q-29 0 -46 25.5t-17 68.5q0 56 28.5 109.5t81.5 85.5l13 -37q-25 -19 -41 -50.5t-15 -60.5q24 0 41 -19t17 -49q0 -29 -17 -51t-45 -22zM961 1110h83v-1032q0 -227 -131 -344t-350 -117q-186 0 -375 88l35 88q60 -31 152.5 -56.5t189.5 -25.5q171 0 271 92.5
t100 274.5v61q-66 -45 -160.5 -75.5t-195.5 -30.5q-103 0 -189 33.5t-151 97.5t-101.5 165.5t-36.5 231.5q0 89 17.5 170.5t55 154.5t92.5 126.5t135.5 84.5t177.5 31q173 0 364 -122zM610 127q158 0 326 86v709q-155 110 -326 110q-105 0 -183.5 -37t-123.5 -103
t-66.5 -147t-21.5 -178q0 -224 104.5 -332t290.5 -108z" />
    <glyph glyph-name="Hcircumflex" unicode="&#x124;" horiz-adv-x="1460" 
d="M721 1749l-199 -197h-98l264 263h82l264 -263h-98l-199 197h-16zM1161 1434h111v-1434h-111v717h-864v-717h-111v1434h111v-611h864v611z" />
    <glyph glyph-name="hcircumflex" unicode="&#x125;" horiz-adv-x="1239" 
d="M612 1829l-198 -197h-99l265 262h82l264 -262h-99l-198 197h-17zM684 1128q86 0 152.5 -22t110.5 -60.5t72 -94.5t40 -119.5t12 -139.5v-692h-108v659q0 183 -69.5 279t-234.5 96q-115 0 -219 -53t-164 -166v-815h-108v1577h108v-649q73 102 180 151t228 49z" />
    <glyph glyph-name="Hbar" unicode="&#x126;" horiz-adv-x="1460" 
d="M1161 1434h111v-1434h-111v483h-864v-483h-111v1434h111v-377h864v377zM297 592h864v356h-864v-356z" />
    <glyph glyph-name="hbar" unicode="&#x127;" horiz-adv-x="1282" 
d="M727 1128q86 0 152.5 -22t110.5 -60.5t72 -94.5t40 -119.5t12 -139.5v-692h-108v659q0 183 -69.5 279t-234.5 96q-74 0 -142.5 -20t-135.5 -71.5t-107 -129.5v-813h-106v1309h-139v73h139v195h106v-195h293v-73h-293v-381q73 102 180.5 151t229.5 49z" />
    <glyph glyph-name="Itilde" unicode="&#x128;" horiz-adv-x="503" 
d="M49 1575q-14 89 7.5 131.5t90.5 42.5q36 0 63.5 -13t43.5 -31.5t30 -37.5t31 -32t39 -13q32 0 38 29t-9 84h72q13 -87 -6.5 -130.5t-90.5 -43.5q-36 0 -63.5 13t-43.5 31.5t-29.5 37.5t-30.5 32t-39 13q-32 0 -38.5 -29.5t7.5 -83.5h-72zM197 1434h110v-1434h-110v1434z
" />
    <glyph glyph-name="itilde" unicode="&#x129;" horiz-adv-x="444" 
d="M18 1251q-14 88 8.5 131t90.5 43q44 0 76 -20t47 -43.5t37 -43.5t49 -20q32 0 36.5 29t-10.5 84h72q13 -87 -6.5 -130.5t-89.5 -43.5q-36 0 -63.5 13t-43.5 31.5t-29.5 37.5t-30.5 32t-38 13q-32 0 -39 -29.5t8 -83.5h-74zM168 1110h108v-1110h-108v1110z" />
    <glyph glyph-name="Imacron" unicode="&#x12a;" horiz-adv-x="503" 
d="M68 1683h368v-73h-368v73zM197 1434h110v-1434h-110v1434z" />
    <glyph glyph-name="imacron" unicode="&#x12b;" horiz-adv-x="444" 
d="M80 1360h285v-74h-285v74zM168 1110h108v-1110h-108v1110z" />
    <glyph glyph-name="Ibreve" unicode="&#x12c;" horiz-adv-x="503" 
d="M143 1815q0 -107 32 -154t77 -47q46 0 77 47t31 154h84q0 -123 -53.5 -199t-138.5 -76q-84 0 -137.5 76.5t-53.5 198.5h82zM197 1434h110v-1434h-110v1434z" />
    <glyph glyph-name="ibreve" unicode="&#x12d;" horiz-adv-x="444" 
d="M113 1491q0 -107 31.5 -154t76.5 -47q47 0 79 47t32 154h82q0 -122 -54 -198t-139 -76q-84 0 -137 76t-53 198h82zM168 1110h108v-1110h-108v1110z" />
    <glyph glyph-name="Iogonek" unicode="&#x12e;" horiz-adv-x="503" 
d="M276 -358q38 0 84 12v-55q-54 -27 -116 -27q-88 0 -144.5 52.5t-56.5 131.5q0 66 43 134.5t119 109.5h-8v1434h110v-1434q-85 -42 -127.5 -101.5t-42.5 -123.5q0 -59 36.5 -96t102.5 -37z" />
    <glyph glyph-name="iogonek" unicode="&#x12f;" horiz-adv-x="444" 
d="M221 1255q-35 0 -58.5 23.5t-23.5 58.5t23.5 58.5t58.5 23.5t58.5 -23.5t23.5 -58.5t-23.5 -58.5t-58.5 -23.5zM244 -358q38 0 84 12v-55q-54 -27 -117 -27q-88 0 -144.5 52.5t-56.5 131.5q0 66 43 134.5t119 109.5h-4v1110h108v-1110h-2q-85 -42 -127.5 -101.5
t-42.5 -123.5q0 -59 37 -96t103 -37z" />
    <glyph glyph-name="Idotaccent" unicode="&#x130;" horiz-adv-x="503" 
d="M252 1579q-35 0 -58.5 23.5t-23.5 58.5t23.5 58.5t58.5 23.5t58.5 -23.5t23.5 -58.5t-23.5 -58.5t-58.5 -23.5zM197 1434h110v-1434h-110v1434z" />
    <glyph glyph-name="dotlessi" unicode="&#x131;" horiz-adv-x="444" 
d="M168 1110h108v-1110h-108v1110z" />
    <glyph glyph-name="Jcircumflex" unicode="&#x134;" horiz-adv-x="1419" 
d="M889 1749l-199 -197h-98l264 263h82l264 -263h-98l-199 197h-16zM1219 1434v-861q0 -279 -134 -438.5t-380 -159.5q-137 0 -245.5 51.5t-175.5 140t-101.5 201.5t-32.5 242h110q-1 -78 15 -152.5t51 -143.5t86 -121.5t126.5 -83.5t166.5 -31q195 0 299 131t104 366v750
h-516v109h627z" />
    <glyph glyph-name="jcircumflex" unicode="&#x135;" horiz-adv-x="489" 
d="M-59 1229l264 262h82l264 -262h-98l-199 196h-16l-199 -196h-98zM215 1110h109v-1196q0 -146 -63.5 -220.5t-182.5 -74.5q-45 0 -93 17.5t-83 44.5l26 71q68 -35 129 -35q85 0 121.5 50.5t36.5 160.5v1182z" />
    <glyph glyph-name="uni0136" unicode="&#x136;" horiz-adv-x="1314" 
d="M588 791l647 -791h-152l-565 694h-16l-205 -227v-467h-111v1434h111v-805h14l715 805h139zM659 -74q31 0 50.5 -28.5t19.5 -77.5q0 -62 -32 -124t-89 -97l-16 43q29 20 46 55.5t15 69.5q-24 0 -41.5 20.5t-17.5 54.5t18 59t47 25z" />
    <glyph glyph-name="uni0137" unicode="&#x137;" horiz-adv-x="1087" 
d="M522 631l504 -631h-137l-434 545h-13l-166 -174v-371h-108v1577h108v-1059h13l553 592h133zM545 -74q31 0 50 -28.5t19 -77.5q0 -62 -31.5 -124t-88.5 -97l-17 43q29 20 46.5 55.5t15.5 69.5q-24 0 -42 20.5t-18 54.5t18 59t48 25z" />
    <glyph glyph-name="kgreenlandic" unicode="&#x138;" horiz-adv-x="1087" 
d="M522 631l504 -631h-137l-434 545h-13l-166 -174v-371h-108v1110h108v-592h13l553 592h133z" />
    <glyph glyph-name="Lacute" unicode="&#x139;" horiz-adv-x="1122" 
d="M791 1815l-263 -263h-94l232 263h125zM297 111h684v-111h-795v1434h111v-1323z" />
    <glyph glyph-name="lacute" unicode="&#x13a;" horiz-adv-x="444" 
d="M207 2019h125l-133 -262h-86zM168 1577h108v-1577h-108v1577z" />
    <glyph glyph-name="uni013B" unicode="&#x13b;" horiz-adv-x="1122" 
d="M297 111h684v-111h-795v1434h111v-1323zM612 -74q31 0 50.5 -28.5t19.5 -77.5q0 -62 -32 -124t-89 -97l-16 43q29 20 46 55.5t15 69.5q-24 0 -41.5 20.5t-17.5 54.5t18 59t47 25z" />
    <glyph glyph-name="uni013C" unicode="&#x13c;" horiz-adv-x="444" 
d="M168 1577h108v-1577h-108v1577zM221 -74q31 0 50.5 -28.5t19.5 -77.5q0 -62 -32 -124t-89 -97l-16 43q29 20 46 55.5t15 69.5q-24 0 -41.5 20.5t-17.5 54.5t18 59t47 25z" />
    <glyph glyph-name="Lcaron" unicode="&#x13d;" horiz-adv-x="1122" 
d="M877 1380q0 -61 -11 -117t-32.5 -105.5t-61 -79t-90.5 -29.5v57q55 0 85 56.5t30 129.5q-31 9 -50.5 49.5t-19.5 85.5q0 41 17 68t51 27q40 0 61 -38.5t21 -103.5zM297 111h684v-111h-795v1434h111v-1323z" />
    <glyph glyph-name="lcaron" unicode="&#x13e;" horiz-adv-x="733" 
d="M633 1630q40 0 61 -37.5t21 -101.5q0 -84 -18 -156t-63 -124t-112 -52v55q55 0 85 57t30 132q-32 7 -52 47.5t-20 87.5q0 40 17.5 66t50.5 26zM168 1577h108v-1577h-108v1577z" />
    <glyph glyph-name="Ldot" unicode="&#x13f;" horiz-adv-x="1161" 
d="M297 111h684v-111h-795v1434h111v-1323zM692 655q-40 0 -66 28t-26 73q0 44 25 77t67 33t66 -33t24 -77q0 -46 -24.5 -73.5t-65.5 -27.5z" />
    <glyph glyph-name="ldot" unicode="&#x140;" horiz-adv-x="741" 
d="M168 1577h108v-1577h-108v1577zM457 784q0 44 24 76.5t66 32.5t67 -32.5t25 -76.5q0 -47 -24.5 -73.5t-67.5 -26.5q-40 0 -65 26.5t-25 73.5z" />
    <glyph glyph-name="Lslash" unicode="&#x141;" horiz-adv-x="1181" 
d="M358 111h684v-111h-794v668l-176 -56v101l176 55v666h110v-631l316 98v-100l-316 -99v-591z" />
    <glyph glyph-name="lslash" unicode="&#x142;" horiz-adv-x="477" 
d="M451 907v-86l-158 -51v-770h-109v735l-159 -51v86l159 51v756h109v-721z" />
    <glyph glyph-name="Nacute" unicode="&#x143;" horiz-adv-x="1439" 
d="M897 1815l-262 -263h-94l231 263h125zM1141 1434h110v-1434h-100l-840 1239h-14v-1239h-111v1434h127l817 -1211h11v1211z" />
    <glyph glyph-name="nacute" unicode="&#x144;" horiz-adv-x="1239" 
d="M799 1491l-262 -262h-95l232 262h125zM684 1128q86 0 152.5 -22t110.5 -60.5t72 -94.5t40 -119.5t12 -139.5v-692h-108v659q0 183 -69.5 279t-234.5 96q-116 0 -220 -55t-163 -172v-807h-108v1110h100l8 -166v-16q73 102 180 151t228 49z" />
    <glyph glyph-name="uni0145" unicode="&#x145;" horiz-adv-x="1439" 
d="M1141 1434h110v-1434h-100l-840 1239h-14v-1239h-111v1434h127l817 -1211h11v1211zM719 -74q31 0 50 -28.5t19 -77.5q0 -62 -31.5 -124t-88.5 -97l-17 43q29 20 46.5 55.5t15.5 69.5q-24 0 -42 20.5t-18 54.5t18 59t48 25z" />
    <glyph glyph-name="uni0146" unicode="&#x146;" horiz-adv-x="1239" 
d="M684 1128q86 0 152.5 -22t110.5 -60.5t72 -94.5t40 -119.5t12 -139.5v-692h-108v659q0 183 -69.5 279t-234.5 96q-116 0 -220 -55t-163 -172v-807h-108v1110h100l8 -166v-16q73 102 180 151t228 49zM621 -74q31 0 50 -28.5t19 -77.5q0 -62 -32 -124t-89 -97l-16 43
q29 20 46 55.5t15 69.5q-24 0 -41.5 20.5t-17.5 54.5t18 59t48 25z" />
    <glyph glyph-name="Ncaron" unicode="&#x147;" horiz-adv-x="1439" 
d="M760 1552h-82l-264 263h98l199 -197h16l199 197h98zM1141 1434h110v-1434h-100l-840 1239h-14v-1239h-111v1434h127l817 -1211h11v1211z" />
    <glyph glyph-name="ncaron" unicode="&#x148;" horiz-adv-x="1239" 
d="M662 1229h-82l-265 262h99l198 -197h17l198 197h99zM684 1128q86 0 152.5 -22t110.5 -60.5t72 -94.5t40 -119.5t12 -139.5v-692h-108v659q0 183 -69.5 279t-234.5 96q-116 0 -220 -55t-163 -172v-807h-108v1110h100l8 -166v-16q73 102 180 151t228 49z" />
    <glyph glyph-name="napostrophe" unicode="&#x149;" horiz-adv-x="1501" 
d="M279 1528q45 0 68.5 -41.5t23.5 -112.5q0 -58 -10.5 -106.5t-34 -91.5t-66.5 -69.5t-102 -31.5v60q131 23 131 165q-45 8 -72 38.5t-27 78.5q0 45 23 78t66 33zM946 1128q86 0 152.5 -22t110.5 -60.5t72 -94.5t40 -119.5t12 -139.5v-692h-108v659q0 183 -69 279t-234 96
q-116 0 -220 -54.5t-163 -170.5v-809h-109v1110h100l9 -166v-14q73 101 179.5 149.5t227.5 48.5z" />
    <glyph glyph-name="Eng" unicode="&#x14a;" horiz-adv-x="1439" 
d="M1141 1434h110v-1520q0 -146 -62.5 -220.5t-180.5 -74.5q-45 0 -93.5 17.5t-83.5 44.5l27 71q68 -35 129 -35q85 0 121.5 50.5t36.5 160.5v80l-834 1231h-14v-1239h-111v1434h127l817 -1211h11v1211z" />
    <glyph glyph-name="eng" unicode="&#x14b;" horiz-adv-x="1239" 
d="M684 1128q86 0 152.5 -22t110.5 -60.5t72 -94.5t40 -119.5t12 -139.5v-717q0 -146 -63.5 -220t-182.5 -74q-45 0 -93.5 17t-82.5 44l27 72q72 -35 131 -35q84 0 120 50.5t36 160.5v669q0 183 -69.5 279t-234.5 96q-116 0 -220 -55t-163 -172v-807h-108v1110h100l8 -166
v-16q73 102 180 151t228 49z" />
    <glyph glyph-name="Omacron" unicode="&#x14c;" horiz-adv-x="1447" 
d="M483 1683h480v-73h-480v73zM137 670q0 118 24.5 231.5t74 214.5t118 178t164 121.5t205.5 44.5t205.5 -44.5t164 -121.5t118 -178t74 -214.5t24.5 -231.5q0 -159 -46 -291t-125.5 -220t-186 -136t-228.5 -48t-228.5 48t-186 136t-125.5 220t-46 291zM254 674
q0 -272 133 -432t336 -160q204 0 337.5 160.5t133.5 431.5q0 128 -32 249.5t-90 219.5t-149 157.5t-200 59.5q-108 0 -198.5 -59.5t-148.5 -157.5t-90 -219.5t-32 -249.5z" />
    <glyph glyph-name="omacron" unicode="&#x14d;" horiz-adv-x="1241" 
d="M381 1360h479v-74h-479v74zM102 512q0 93 21 182.5t64 169t104 139.5t146 95t184 35q123 0 223.5 -53.5t163.5 -142t97 -198.5t34 -227q0 -253 -144.5 -394t-373.5 -141t-374 141t-145 394zM215 514q0 -216 110 -327t296 -111q185 0 295 111t110 327q0 102 -26 195
t-75 167t-127.5 118t-176.5 44t-177 -44t-128 -118t-75 -167t-26 -195z" />
    <glyph glyph-name="Obreve" unicode="&#x14e;" horiz-adv-x="1447" 
d="M508 1815q0 -33 11.5 -66.5t35 -64.5t67 -50.5t101.5 -19.5t101.5 19.5t67 50.5t35 64.5t11.5 66.5h90q0 -106 -82 -190.5t-223 -84.5t-223 84.5t-82 190.5h90zM137 670q0 118 24.5 231.5t74 214.5t118 178t164 121.5t205.5 44.5t205.5 -44.5t164 -121.5t118 -178
t74 -214.5t24.5 -231.5q0 -159 -46 -291t-125.5 -220t-186 -136t-228.5 -48t-228.5 48t-186 136t-125.5 220t-46 291zM254 674q0 -272 133 -432t336 -160q204 0 337.5 160.5t133.5 431.5q0 128 -32 249.5t-90 219.5t-149 157.5t-200 59.5q-108 0 -198.5 -59.5t-148.5 -157.5
t-90 -219.5t-32 -249.5z" />
    <glyph glyph-name="obreve" unicode="&#x14f;" horiz-adv-x="1241" 
d="M406 1491q0 -33 11.5 -66.5t35 -64.5t67 -50.5t101.5 -19.5t101.5 19.5t67 50.5t35 64.5t11.5 66.5h90q0 -106 -82 -190t-223 -84t-223.5 84t-82.5 190h91zM102 512q0 93 21 182.5t64 169t104 139.5t146 95t184 35q123 0 223.5 -53.5t163.5 -142t97 -198.5t34 -227
q0 -253 -144.5 -394t-373.5 -141t-374 141t-145 394zM215 514q0 -216 110 -327t296 -111q185 0 295 111t110 327q0 102 -26 195t-75 167t-127.5 118t-176.5 44t-177 -44t-128 -118t-75 -167t-26 -195z" />
    <glyph glyph-name="Ohungarumlaut" unicode="&#x150;" horiz-adv-x="1447" 
d="M588 1815h96l-100 -263h-72zM836 1815h96l-101 -263h-71zM137 670q0 118 24.5 231.5t74 214.5t118 178t164 121.5t205.5 44.5t205.5 -44.5t164 -121.5t118 -178t74 -214.5t24.5 -231.5q0 -159 -46 -291t-125.5 -220t-186 -136t-228.5 -48t-228.5 48t-186 136t-125.5 220
t-46 291zM254 674q0 -272 133 -432t336 -160q204 0 337.5 160.5t133.5 431.5q0 128 -32 249.5t-90 219.5t-149 157.5t-200 59.5q-108 0 -198.5 -59.5t-148.5 -157.5t-90 -219.5t-32 -249.5z" />
    <glyph glyph-name="ohungarumlaut" unicode="&#x151;" horiz-adv-x="1241" 
d="M485 1491h97l-101 -262h-71zM733 1491h96l-100 -262h-72zM102 512q0 93 21 182.5t64 169t104 139.5t146 95t184 35q123 0 223.5 -53.5t163.5 -142t97 -198.5t34 -227q0 -253 -144.5 -394t-373.5 -141t-374 141t-145 394zM215 514q0 -216 110 -327t296 -111q185 0 295 111
t110 327q0 102 -26 195t-75 167t-127.5 118t-176.5 44t-177 -44t-128 -118t-75 -167t-26 -195z" />
    <glyph glyph-name="OE" unicode="&#x152;" horiz-adv-x="1869" 
d="M1690 1434v-109h-629q96 -89 157 -223t80 -289h363v-106h-352v-37q0 -182 -58.5 -324.5t-163.5 -234.5h603v-111h-799q-83 -25 -168 -25q-122 0 -228.5 48t-186 136t-125.5 220t-46 291q0 118 24.5 231.5t74 214.5t118 178t164 121.5t205.5 44.5q79 0 162 -26h805z
M1194 674q0 128 -32 249.5t-90 219.5t-149 157.5t-200 59.5q-108 0 -198.5 -59.5t-148.5 -157.5t-90 -219.5t-32 -249.5q0 -272 133 -432t336 -160q204 0 337.5 160.5t133.5 431.5z" />
    <glyph glyph-name="oe" unicode="&#x153;" horiz-adv-x="2144" 
d="M2017 563h-876q-2 -16 -2 -47q0 -116 32 -203.5t89.5 -139.5t130 -77.5t159.5 -25.5q153 0 249 87.5t116 223.5h96q-19 -185 -147 -294.5t-316 -109.5q-152 0 -276.5 69.5t-188.5 199.5q-62 -130 -183.5 -199.5t-278.5 -69.5q-229 0 -374 141t-145 394q0 93 21 182.5
t64 169t104 139.5t146 95t184 35q162 0 279 -88.5t179 -235.5q58 146 172.5 235t280.5 89q215 0 350 -140t135 -389v-41zM621 76q185 0 295 111t110 327q0 102 -26 195t-75 167t-127.5 118t-176.5 44t-177 -44t-128 -118t-75 -167t-26 -195q0 -216 110 -327t296 -111z
M1534 1038q-85 0 -153 -30.5t-114 -85t-75 -121.5t-43 -148h754q-1 179 -104 282t-265 103z" />
    <glyph glyph-name="Racute" unicode="&#x154;" horiz-adv-x="1271" 
d="M813 1815l-262 -263h-94l231 263h125zM1169 0h-129l-338 508h-405v-508h-111v1434h459q100 0 180.5 -26t133 -70t88 -104.5t50.5 -126.5t15 -138q0 -168 -82 -282.5t-211 -156.5zM297 612h362q152 0 246 92t94 263q0 57 -10.5 107t-36.5 97t-66 80.5t-103.5 53.5
t-145.5 20h-340v-713z" />
    <glyph glyph-name="racute" unicode="&#x155;" horiz-adv-x="811" 
d="M584 1491l-262 -262h-95l232 262h125zM276 899q74 117 193 175.5t252 58.5l-8 -113q-160 0 -271 -56.5t-166 -193.5v-770h-108v1110h100l8 -166v-45z" />
    <glyph glyph-name="uni0156" unicode="&#x156;" horiz-adv-x="1271" 
d="M819 530l350 -530h-129l-338 508h-405v-508h-111v1434h459q100 0 180.5 -26t133 -70t88 -104.5t50.5 -126.5t15 -138q0 -168 -82 -282.5t-211 -156.5zM297 612h362q152 0 246 92t94 263q0 57 -10.5 107t-36.5 97t-66 80.5t-103.5 53.5t-145.5 20h-340v-713zM635 -74
q31 0 50.5 -28.5t19.5 -77.5q0 -62 -32 -124t-89 -97l-17 43q29 20 46.5 55.5t15.5 69.5q-24 0 -42 20.5t-18 54.5t18 59t48 25z" />
    <glyph glyph-name="uni0157" unicode="&#x157;" horiz-adv-x="811" 
d="M276 899q74 117 193 175.5t252 58.5l-8 -113q-160 0 -271 -56.5t-166 -193.5v-770h-108v1110h100l8 -166v-45zM406 -74q31 0 50 -28.5t19 -77.5q0 -62 -32 -124t-89 -97l-16 43q29 20 46 55.5t15 69.5q-24 0 -41.5 20.5t-17.5 54.5t18 59t48 25z" />
    <glyph glyph-name="Rcaron" unicode="&#x158;" horiz-adv-x="1271" 
d="M676 1552h-82l-264 263h98l199 -197h16l199 197h98zM1169 0h-129l-338 508h-405v-508h-111v1434h459q100 0 180.5 -26t133 -70t88 -104.5t50.5 -126.5t15 -138q0 -168 -82 -282.5t-211 -156.5zM297 612h362q152 0 246 92t94 263q0 57 -10.5 107t-36.5 97t-66 80.5
t-103.5 53.5t-145.5 20h-340v-713z" />
    <glyph glyph-name="rcaron" unicode="&#x159;" horiz-adv-x="811" 
d="M446 1229h-81l-265 262h99l198 -197h17l198 197h99zM276 899q74 117 193 175.5t252 58.5l-8 -113q-160 0 -271 -56.5t-166 -193.5v-770h-108v1110h100l8 -166v-45z" />
    <glyph glyph-name="Sacute" unicode="&#x15a;" horiz-adv-x="1269" 
d="M690 1815h125l-262 -263h-94zM258 500q0 -198 105 -308t290 -110q161 0 268 91t107 237q0 65 -27.5 116t-74.5 84t-107.5 58.5t-127.5 46.5t-133.5 42t-127 49.5t-107.5 65t-74.5 93.5t-27.5 129q0 155 113.5 261.5t312.5 106.5q209 0 312.5 -111.5t103.5 -301.5h-113
q0 68 -15.5 122t-49.5 98.5t-94.5 68.5t-143.5 24q-146 0 -229.5 -67t-83.5 -181q0 -60 27.5 -105.5t74.5 -75t107.5 -52.5t127.5 -43t133.5 -42t127 -53.5t107.5 -73t74.5 -105.5t27.5 -146q0 -190 -138 -316.5t-350 -126.5q-236 0 -372 141.5t-136 383.5h113z" />
    <glyph glyph-name="sacute" unicode="&#x15b;" horiz-adv-x="1058" 
d="M584 1491h125l-263 -262h-94zM186 369q1 -75 33 -133.5t83 -93t111 -51.5t124 -17q134 0 227.5 62.5t93.5 172.5q0 64 -39 107t-101.5 65.5t-138 40t-151 38t-138 50t-101.5 85.5t-39 136q0 132 101 217t286 85q74 0 138 -16.5t117.5 -51t85.5 -95.5t33 -143h-102
q-2 74 -42 122.5t-99.5 68.5t-137.5 20q-128 0 -199 -51.5t-71 -142.5q0 -64 39 -107t102 -65.5t138.5 -40t151.5 -37.5t139 -49t102 -84.5t39 -134.5q0 -80 -36.5 -147t-97.5 -110.5t-139 -67.5t-163 -24q-56 0 -112 9.5t-118.5 37t-109.5 69.5t-78.5 113.5t-32.5 162.5
h102z" />
    <glyph glyph-name="Scircumflex" unicode="&#x15c;" horiz-adv-x="1269" 
d="M332 1552l264 263h82l264 -263h-98l-199 197h-16l-199 -197h-98zM258 500q0 -198 105 -308t290 -110q161 0 268 91t107 237q0 65 -27.5 116t-74.5 84t-107.5 58.5t-127.5 46.5t-133.5 42t-127 49.5t-107.5 65t-74.5 93.5t-27.5 129q0 155 113.5 261.5t312.5 106.5
q209 0 312.5 -111.5t103.5 -301.5h-113q0 68 -15.5 122t-49.5 98.5t-94.5 68.5t-143.5 24q-146 0 -229.5 -67t-83.5 -181q0 -60 27.5 -105.5t74.5 -75t107.5 -52.5t127.5 -43t133.5 -42t127 -53.5t107.5 -73t74.5 -105.5t27.5 -146q0 -190 -138 -316.5t-350 -126.5
q-236 0 -372 141.5t-136 383.5h113z" />
    <glyph glyph-name="scircumflex" unicode="&#x15d;" horiz-adv-x="1058" 
d="M225 1229l264 262h82l265 -262h-99l-198 196h-15l-200 -196h-99zM186 369q1 -75 33 -133.5t83 -93t111 -51.5t124 -17q134 0 227.5 62.5t93.5 172.5q0 64 -39 107t-101.5 65.5t-138 40t-151 38t-138 50t-101.5 85.5t-39 136q0 132 101 217t286 85q74 0 138 -16.5
t117.5 -51t85.5 -95.5t33 -143h-102q-2 74 -42 122.5t-99.5 68.5t-137.5 20q-128 0 -199 -51.5t-71 -142.5q0 -64 39 -107t102 -65.5t138.5 -40t151.5 -37.5t139 -49t102 -84.5t39 -134.5q0 -80 -36.5 -147t-97.5 -110.5t-139 -67.5t-163 -24q-56 0 -112 9.5t-118.5 37
t-109.5 69.5t-78.5 113.5t-32.5 162.5h102z" />
    <glyph glyph-name="Scedilla" unicode="&#x15e;" horiz-adv-x="1269" 
d="M258 500q0 -198 105 -308t290 -110q161 0 268 91t107 237q0 65 -27.5 116t-74.5 84t-107.5 58.5t-127.5 46.5t-133.5 42t-127 49.5t-107.5 65t-74.5 93.5t-27.5 129q0 155 113.5 261.5t312.5 106.5q209 0 312.5 -111.5t103.5 -301.5h-113q0 68 -15.5 122t-49.5 98.5
t-94.5 68.5t-143.5 24q-146 0 -229.5 -67t-83.5 -181q0 -60 27.5 -105.5t74.5 -75t107.5 -52.5t127.5 -43t133.5 -42t127 -53.5t107.5 -73t74.5 -105.5t27.5 -146q0 -190 -138 -316.5t-350 -126.5q-236 0 -372 141.5t-136 383.5h113zM641 -127q180 0 180 -129
q0 -80 -65 -126t-162 -46q-70 0 -143 25v45q63 -15 124 -15q60 0 102 27t42 74q0 92 -137 92h-39l30 53h68z" />
    <glyph glyph-name="scedilla" unicode="&#x15f;" horiz-adv-x="1058" 
d="M186 369q1 -75 33 -133.5t83 -93t111 -51.5t124 -17q134 0 227.5 62.5t93.5 172.5q0 64 -39 107t-101.5 65.5t-138 40t-151 38t-138 50t-101.5 85.5t-39 136q0 132 101 217t286 85q74 0 138 -16.5t117.5 -51t85.5 -95.5t33 -143h-102q-2 74 -42 122.5t-99.5 68.5
t-137.5 20q-128 0 -199 -51.5t-71 -142.5q0 -64 39 -107t102 -65.5t138.5 -40t151.5 -37.5t139 -49t102 -84.5t39 -134.5q0 -80 -36.5 -147t-97.5 -110.5t-139 -67.5t-163 -24q-56 0 -112 9.5t-118.5 37t-109.5 69.5t-78.5 113.5t-32.5 162.5h102zM535 -127q180 0 180 -129
q0 -80 -65.5 -126t-162.5 -46q-70 0 -143 25v45q62 -15 125 -15q60 0 101.5 27t41.5 74q0 92 -137 92h-39l31 53h68z" />
    <glyph glyph-name="Scaron" unicode="&#x160;" horiz-adv-x="1269" 
d="M332 1815h98l199 -197h16l199 197h98l-264 -263h-82zM258 500q0 -198 105 -308t290 -110q161 0 268 91t107 237q0 65 -27.5 116t-74.5 84t-107.5 58.5t-127.5 46.5t-133.5 42t-127 49.5t-107.5 65t-74.5 93.5t-27.5 129q0 155 113.5 261.5t312.5 106.5
q209 0 312.5 -111.5t103.5 -301.5h-113q0 68 -15.5 122t-49.5 98.5t-94.5 68.5t-143.5 24q-146 0 -229.5 -67t-83.5 -181q0 -60 27.5 -105.5t74.5 -75t107.5 -52.5t127.5 -43t133.5 -42t127 -53.5t107.5 -73t74.5 -105.5t27.5 -146q0 -190 -138 -316.5t-350 -126.5
q-236 0 -372 141.5t-136 383.5h113z" />
    <glyph glyph-name="scaron" unicode="&#x161;" horiz-adv-x="1058" 
d="M225 1491h99l200 -197h15l198 197h99l-265 -262h-82zM186 369q1 -75 33 -133.5t83 -93t111 -51.5t124 -17q134 0 227.5 62.5t93.5 172.5q0 64 -39 107t-101.5 65.5t-138 40t-151 38t-138 50t-101.5 85.5t-39 136q0 132 101 217t286 85q74 0 138 -16.5t117.5 -51
t85.5 -95.5t33 -143h-102q-2 74 -42 122.5t-99.5 68.5t-137.5 20q-128 0 -199 -51.5t-71 -142.5q0 -64 39 -107t102 -65.5t138.5 -40t151.5 -37.5t139 -49t102 -84.5t39 -134.5q0 -80 -36.5 -147t-97.5 -110.5t-139 -67.5t-163 -24q-56 0 -112 9.5t-118.5 37t-109.5 69.5
t-78.5 113.5t-32.5 162.5h102z" />
    <glyph glyph-name="uni0162" unicode="&#x162;" horiz-adv-x="1335" 
d="M1208 1434v-109h-491v-1325h-111v1325h-479v109h1081zM672 -127q180 0 180 -129q0 -80 -65 -126t-162 -46q-71 0 -144 25v45q63 -15 125 -15q60 0 102 27t42 74q0 92 -138 92h-39l31 53h68z" />
    <glyph glyph-name="uni0163" unicode="&#x163;" horiz-adv-x="782" 
d="M467 -18q-42 0 -77 11t-65 36t-47.5 71t-17.5 109v817h-188v84h188v287h109v-287h284v-84h-284v-795q0 -81 33.5 -115t95.5 -34q83 0 151 61l27 -71q-90 -90 -209 -90zM459 -127q180 0 180 -129q0 -80 -65 -126t-162 -46q-72 0 -144 25v45q62 -15 125 -15q60 0 102 27
t42 74q0 92 -138 92h-39l31 53h68z" />
    <glyph glyph-name="Tcaron" unicode="&#x164;" horiz-adv-x="1335" 
d="M709 1552h-82l-265 263h99l198 -197h17l198 197h99zM1208 1434v-109h-491v-1325h-111v1325h-479v109h1081z" />
    <glyph glyph-name="tcaron" unicode="&#x165;" horiz-adv-x="989" 
d="M920 1630q40 0 62 -38t22 -101q0 -62 -10.5 -118.5t-32.5 -105.5t-61.5 -78.5t-90.5 -29.5v55q55 0 85 57t30 132q-32 7 -52 47.5t-20 87.5q0 40 17.5 66t50.5 26zM498 82q83 0 151 61l27 -71q-90 -90 -209 -90q-42 0 -77 11t-65 36t-47.5 71t-17.5 109v817h-188v84h188
v287h109v-287h284v-84h-284v-795q0 -81 33.5 -115t95.5 -34z" />
    <glyph glyph-name="Tbar" unicode="&#x166;" horiz-adv-x="1335" 
d="M1208 1325h-491v-565h239v-86h-239v-674h-111v674h-231v86h231v565h-479v109h1081v-109z" />
    <glyph glyph-name="tbar" unicode="&#x167;" horiz-adv-x="782" 
d="M649 143l27 -71q-90 -90 -209 -90q-42 0 -77 11t-65 36t-47.5 71t-17.5 109v453h-188v86h188v278h-188v84h188v287h109v-287h284v-84h-284v-278h284v-86h-284v-431q0 -81 33.5 -115t95.5 -34q83 0 151 61z" />
    <glyph glyph-name="Utilde" unicode="&#x168;" horiz-adv-x="1447" 
d="M1016 1772q9 -91 -37 -145t-119 -54q-47 0 -85.5 21t-60.5 45.5t-54 45.5t-66 21q-41 0 -68.5 -31.5t-19.5 -89.5h-72q-9 90 37.5 144.5t118.5 54.5q47 0 86 -21t61.5 -45.5t55 -45.5t67.5 -21q41 0 66 30.5t18 90.5h72zM1266 1434v-916q0 -143 -41.5 -250t-116 -169.5
t-170.5 -93t-213 -30.5t-213 30.5t-171.5 93t-117 169.5t-41.5 250v916h111v-912q0 -120 32.5 -207.5t92.5 -137t136 -72.5t171 -23q76 0 139 14t117.5 46t92.5 82t59.5 125.5t21.5 172.5v912h111z" />
    <glyph glyph-name="utilde" unicode="&#x169;" 
d="M397 1262h-71q-9 90 37 144t118 54q47 0 86 -21t62 -45.5t55.5 -45.5t67.5 -21q41 0 66 30.5t18 90.5h71q9 -92 -37 -145.5t-118 -53.5q-38 0 -70.5 13.5t-54.5 33t-42.5 39.5t-46 33.5t-53.5 13.5q-41 0 -68.5 -31t-19.5 -89zM952 1110h109v-1110h-90l-17 152
q-72 -87 -175 -131t-212 -44q-91 0 -162.5 23.5t-117 63t-75.5 95t-42 114.5t-12 126v711h108v-678q0 -362 324 -362q100 0 201 44t161 130v866z" />
    <glyph glyph-name="Umacron" unicode="&#x16a;" horiz-adv-x="1447" 
d="M485 1683h480v-73h-480v73zM1266 1434v-916q0 -143 -41.5 -250t-116 -169.5t-170.5 -93t-213 -30.5t-213 30.5t-171.5 93t-117 169.5t-41.5 250v916h111v-912q0 -120 32.5 -207.5t92.5 -137t136 -72.5t171 -23q76 0 139 14t117.5 46t92.5 82t59.5 125.5t21.5 172.5v912
h111z" />
    <glyph glyph-name="umacron" unicode="&#x16b;" 
d="M856 1360v-74h-479v74h479zM952 1110h109v-1110h-90l-17 152q-72 -87 -175 -131t-212 -44q-91 0 -162.5 23.5t-117 63t-75.5 95t-42 114.5t-12 126v711h108v-678q0 -362 324 -362q100 0 201 44t161 130v866z" />
    <glyph glyph-name="Ubreve" unicode="&#x16c;" horiz-adv-x="1447" 
d="M510 1815q0 -33 11.5 -66.5t35 -64.5t67 -50.5t101.5 -19.5t101.5 19.5t67 50.5t35 64.5t11.5 66.5h90q0 -106 -82 -190.5t-223 -84.5t-223 84.5t-82 190.5h90zM1266 1434v-916q0 -143 -41.5 -250t-116 -169.5t-170.5 -93t-213 -30.5t-213 30.5t-171.5 93t-117 169.5
t-41.5 250v916h111v-912q0 -120 32.5 -207.5t92.5 -137t136 -72.5t171 -23q76 0 139 14t117.5 46t92.5 82t59.5 125.5t21.5 172.5v912h111z" />
    <glyph glyph-name="ubreve" unicode="&#x16d;" 
d="M616 1217q-141 0 -223 84t-82 190h90q0 -33 11.5 -66.5t35 -64.5t67 -50.5t101.5 -19.5t101.5 19.5t67 50.5t35 64.5t11.5 66.5h91q0 -106 -82.5 -190t-223.5 -84zM952 1110h109v-1110h-90l-17 152q-72 -87 -175 -131t-212 -44q-91 0 -162.5 23.5t-117 63t-75.5 95
t-42 114.5t-12 126v711h108v-678q0 -362 324 -362q100 0 201 44t161 130v866z" />
    <glyph glyph-name="Uring" unicode="&#x16e;" horiz-adv-x="1447" 
d="M725 1505q-81 0 -130.5 50t-49.5 126q0 77 50.5 127t129.5 50q81 0 130.5 -50t49.5 -127q0 -76 -49.5 -126t-130.5 -50zM725 1561q57 0 90 33t33 87q0 55 -33.5 90t-89.5 35q-55 0 -89 -35t-34 -90q0 -52 33.5 -86t89.5 -34zM1266 1434v-916q0 -143 -41.5 -250
t-116 -169.5t-170.5 -93t-213 -30.5t-213 30.5t-171.5 93t-117 169.5t-41.5 250v916h111v-912q0 -120 32.5 -207.5t92.5 -137t136 -72.5t171 -23q76 0 139 14t117.5 46t92.5 82t59.5 125.5t21.5 172.5v912h111z" />
    <glyph glyph-name="uring" unicode="&#x16f;" 
d="M616 1182q-81 0 -130.5 50t-49.5 126q0 77 50.5 126.5t129.5 49.5q81 0 131 -49.5t50 -126.5q0 -76 -50 -126t-131 -50zM616 1483q-55 0 -88.5 -35t-33.5 -90q0 -52 33 -86.5t89 -34.5q57 0 90 33.5t33 87.5q0 55 -33.5 90t-89.5 35zM952 1110h109v-1110h-90l-17 152
q-72 -87 -175 -131t-212 -44q-91 0 -162.5 23.5t-117 63t-75.5 95t-42 114.5t-12 126v711h108v-678q0 -362 324 -362q100 0 201 44t161 130v866z" />
    <glyph glyph-name="Uhungarumlaut" unicode="&#x170;" horiz-adv-x="1447" 
d="M590 1815h96l-100 -263h-72zM838 1815h96l-100 -263h-72zM1266 1434v-916q0 -143 -41.5 -250t-116 -169.5t-170.5 -93t-213 -30.5t-213 30.5t-171.5 93t-117 169.5t-41.5 250v916h111v-912q0 -120 32.5 -207.5t92.5 -137t136 -72.5t171 -23q76 0 139 14t117.5 46t92.5 82
t59.5 125.5t21.5 172.5v912h111z" />
    <glyph glyph-name="uhungarumlaut" unicode="&#x171;" 
d="M578 1491l-101 -262h-71l75 262h97zM825 1491l-100 -262h-72l76 262h96zM952 1110h109v-1110h-90l-17 152q-72 -87 -175 -131t-212 -44q-91 0 -162.5 23.5t-117 63t-75.5 95t-42 114.5t-12 126v711h108v-678q0 -362 324 -362q100 0 201 44t161 130v866z" />
    <glyph glyph-name="Uogonek" unicode="&#x172;" horiz-adv-x="1447" 
d="M1155 1434h111v-916q0 -121 -29.5 -215.5t-84 -157.5t-126 -101.5t-160.5 -55.5q-74 -43 -110.5 -99t-36.5 -114q0 -59 36.5 -96t102.5 -37q38 0 84 12v-55q-54 -27 -117 -27q-88 0 -144 52.5t-56 131.5q0 58 32 117t91 102h-23q-117 0 -213 30.5t-171.5 93t-117 169.5
t-41.5 250v916h111v-912q0 -120 32.5 -207.5t92.5 -137t136 -72.5t171 -23q76 0 139 14t117.5 46t92.5 82t59.5 125.5t21.5 172.5v912z" />
    <glyph glyph-name="uogonek" unicode="&#x173;" 
d="M1030 -358q38 0 84 12v-55q-54 -27 -117 -27q-88 0 -144 52.5t-56 131.5q0 69 46 139t128 111l-17 146q-72 -87 -175 -131t-212 -44q-91 0 -162.5 23.5t-117 63t-75.5 95t-42 114.5t-12 126v711h108v-678q0 -362 324 -362q100 0 201 44t161 130v866h109v-1110
q-85 -42 -127.5 -101.5t-42.5 -123.5q0 -59 36.5 -96t102.5 -37z" />
    <glyph glyph-name="Wcircumflex" unicode="&#x174;" horiz-adv-x="2068" 
d="M1028 1749l-199 -197h-98l264 263h82l264 -263h-98l-199 197h-16zM1882 1434h113l-436 -1434h-142l-368 1237h-23l-371 -1237h-139l-442 1434h119l389 -1295h10l391 1295h109l391 -1295h12z" />
    <glyph glyph-name="wcircumflex" unicode="&#x175;" horiz-adv-x="1613" 
d="M799 1425l-199 -196h-98l264 262h82l264 -262h-98l-199 196h-16zM1430 1110h112l-336 -1110h-114l-277 946h-14l-279 -946h-114l-336 1110h114l273 -975h10l289 975h102l285 -975h8z" />
    <glyph glyph-name="Ycircumflex" unicode="&#x176;" horiz-adv-x="1247" 
d="M614 1749l-198 -197h-99l265 263h82l264 -263h-99l-198 197h-17zM1071 1434h119l-512 -775v-659h-111v659l-512 775h131l435 -664h12z" />
    <glyph glyph-name="ycircumflex" unicode="&#x177;" horiz-adv-x="1132" 
d="M559 1425l-199 -196h-98l264 262h82l264 -262h-98l-199 196h-16zM956 1110h115l-467 -1200q-48 -128 -131 -206.5t-176 -78.5q-90 0 -178 43l18 76q68 -27 142 -27q69 0 129.5 64.5t105.5 181.5l29 60l-482 1087h117l414 -956h8z" />
    <glyph glyph-name="Ydieresis" unicode="&#x178;" horiz-adv-x="1247" 
d="M428 1581q-31 0 -51.5 20.5t-20.5 51.5t20.5 51t51.5 20t51.5 -20t20.5 -51t-20.5 -51.5t-51.5 -20.5zM817 1581q-31 0 -51.5 20.5t-20.5 51.5t20.5 51t51.5 20t51.5 -20t20.5 -51t-20.5 -51.5t-51.5 -20.5zM1071 1434h119l-512 -775v-659h-111v659l-512 775h131
l435 -664h12z" />
    <glyph glyph-name="Zacute" unicode="&#x179;" horiz-adv-x="1208" 
d="M657 1815h125l-262 -263h-94zM1047 1434v-101l-781 -1210v-12h819v-111h-964v98l784 1215v12h-760v109h902z" />
    <glyph glyph-name="zacute" unicode="&#x17a;" horiz-adv-x="1005" 
d="M557 1491h125l-262 -262h-94zM252 88h635v-88h-768v74l606 938v10h-588v88h717v-74l-602 -938v-10z" />
    <glyph glyph-name="Zdotaccent" unicode="&#x17b;" horiz-adv-x="1208" 
d="M604 1579q-35 0 -58.5 23.5t-23.5 58.5t23.5 58.5t58.5 23.5t58.5 -23.5t23.5 -58.5t-23.5 -58.5t-58.5 -23.5zM1047 1434v-101l-781 -1210v-12h819v-111h-964v98l784 1215v12h-760v109h902z" />
    <glyph glyph-name="zdotaccent" unicode="&#x17c;" horiz-adv-x="1005" 
d="M504 1255q-35 0 -58.5 23.5t-23.5 58.5t23.5 58.5t58.5 23.5t58.5 -23.5t23.5 -58.5t-23.5 -58.5t-58.5 -23.5zM252 88h635v-88h-768v74l606 938v10h-588v88h717v-74l-602 -938v-10z" />
    <glyph glyph-name="Zcaron" unicode="&#x17d;" horiz-adv-x="1208" 
d="M299 1815h98l199 -197h16l199 197h98l-264 -263h-82zM1047 1434v-101l-781 -1210v-12h819v-111h-964v98l784 1215v12h-760v109h902z" />
    <glyph glyph-name="zcaron" unicode="&#x17e;" horiz-adv-x="1005" 
d="M199 1491h98l199 -197h16l199 197h98l-264 -262h-82zM252 88h635v-88h-768v74l606 938v10h-588v88h717v-74l-602 -938v-10z" />
    <glyph glyph-name="uni018F" unicode="&#x18f;" horiz-adv-x="1445" 
d="M725 1462q164 0 299 -102.5t210 -273t75 -369.5q0 -177 -45 -319t-124.5 -234t-186.5 -140.5t-232 -48.5q-119 0 -225.5 48.5t-186 135t-126 215.5t-46.5 281v50h1055v14q0 170 -56.5 315t-165.5 235.5t-249 90.5q-167 0 -289.5 -118t-161.5 -300h-110q37 222 198.5 371
t366.5 149zM723 82q188 0 313.5 133t149.5 387h-934l4 -2q0 -144 61 -262.5t168 -187t238 -68.5z" />
    <glyph glyph-name="florin" unicode="&#x192;" horiz-adv-x="1153" 
d="M698 1335q-149 0 -236 -82.5t-87 -210.5q0 -82 53 -292h430l-6 -78h-403q29 -107 43.5 -164t29.5 -137.5t15 -132.5q0 -166 -105.5 -280t-296.5 -126v96q135 10 213 90.5t78 200.5q0 22 -2.5 47.5t-9 59t-12 60t-16.5 70t-17 68.5t-19.5 75.5t-19.5 72.5h-170l6 78h143
q-45 187 -45 276q0 173 117 290.5t326 117.5q220 0 380 -144l-65 -82q-138 127 -324 127z" />
    <glyph glyph-name="uni019D" unicode="&#x19d;" horiz-adv-x="1466" 
d="M1169 1434h111v-1434h-100l-842 1239h-12v-1325q0 -146 -64.5 -220.5t-183.5 -74.5q-45 0 -93 17.5t-83 44.5l26 71q68 -35 129 -35q85 0 121.5 50.5t36.5 160.5v1506h127l815 -1211h12v1211z" />
    <glyph glyph-name="Ohorn" unicode="&#x1a0;" horiz-adv-x="1447" 
d="M1309 1466q0 -86 -45.5 -126t-124.5 -40q-29 0 -56 3q108 -112 167 -281t59 -352q0 -159 -46 -291t-125.5 -220t-186 -136t-228.5 -48t-228.5 48t-186 136t-125.5 220t-46 291q0 118 24.5 231.5t74 214.5t118 178t164 121.5t205.5 44.5q103 0 195 -39q72 -30 105 -38.5
t79 -8.5q52 0 78 23.5t26 79.5v161h103v-172zM723 82q204 0 337.5 160.5t133.5 431.5q0 128 -32 249.5t-90 219.5t-149 157.5t-200 59.5q-108 0 -198.5 -59.5t-148.5 -157.5t-90 -219.5t-32 -249.5q0 -272 133 -432t336 -160z" />
    <glyph glyph-name="ohorn" unicode="&#x1a1;" horiz-adv-x="1241" 
d="M1149 1159q0 -178 -168 -178h-10q81 -87 124.5 -211t43.5 -258q0 -253 -144.5 -394t-373.5 -141t-374 141t-145 394q0 93 21 182.5t64 169t104 139.5t146 95t184 35q116 0 210 -48q76 -28 130 -28q86 0 86 82v168h102v-148zM621 76q185 0 295 111t110 327q0 102 -26 195
t-75 167t-127.5 118t-176.5 44t-177 -44t-128 -118t-75 -167t-26 -195q0 -216 110 -327t296 -111z" />
    <glyph glyph-name="Uhorn" unicode="&#x1af;" horiz-adv-x="1581" 
d="M1450 1638h102v-155q0 -96 -45.5 -142.5t-113.5 -46.5q-70 0 -127 43v-819q0 -143 -41.5 -250t-116 -169.5t-170.5 -93t-213 -30.5t-213 30.5t-171.5 93t-117 169.5t-41.5 250v916h111v-912q0 -120 32.5 -207.5t92.5 -137t136 -72.5t171 -23q76 0 139 14t117.5 46
t92.5 82t59.5 125.5t21.5 172.5v912h111q58 -58 110 -58q74 0 74 86v176z" />
    <glyph glyph-name="uhorn" unicode="&#x1b0;" horiz-adv-x="1409" 
d="M1245 1315h103v-156q0 -96 -46 -142t-114 -46q-70 0 -127 43v-1014h-90l-17 152q-72 -87 -175 -131t-212 -44q-91 0 -162.5 23.5t-117 63t-75.5 95t-42 114.5t-12 126v711h108v-678q0 -362 324 -362q100 0 201 44t161 130v866h109q57 -57 110 -57q74 0 74 86v176z" />
    <glyph glyph-name="uni01CD" unicode="&#x1cd;" horiz-adv-x="1339" 
d="M711 1552h-82l-264 263h98l199 -197h16l199 197h98zM1155 0l-164 446h-645l-164 -446h-116l528 1434h154l526 -1434h-119zM383 549h571l-276 758h-16z" />
    <glyph glyph-name="uni01CE" unicode="&#x1ce;" horiz-adv-x="1198" 
d="M621 1229h-82l-265 262h99l198 -197h17l198 197h99zM612 1133q119 0 201.5 -31t129.5 -92t67 -139.5t20 -184.5v-686h-84l-16 92q-69 -46 -179 -78t-212 -32q-77 0 -145.5 18t-128 55.5t-94 103.5t-34.5 154q0 164 115 254t303 90q183 0 367 -63v119q0 160 -73.5 240.5
t-236.5 80.5q-135 0 -219 -58t-88 -173h-108q2 109 61 185.5t150 110.5t204 34zM252 319q0 -85 43 -140t111 -77t161 -22q91 0 189 24t166 60v348q-168 53 -342 53q-152 0 -240 -59.5t-88 -186.5z" />
    <glyph glyph-name="uni01CF" unicode="&#x1cf;" horiz-adv-x="503" 
d="M63 1815h80l103 -193h14l100 193h80l-147 -263h-82zM197 1434h110v-1434h-110v1434z" />
    <glyph glyph-name="uni01D0" unicode="&#x1d0;" horiz-adv-x="444" 
d="M33 1491h80l102 -193h14l101 193h80l-148 -262h-82zM168 1110h108v-1110h-108v1110z" />
    <glyph glyph-name="uni01D1" unicode="&#x1d1;" horiz-adv-x="1447" 
d="M418 1815h98l199 -197h16l199 197h98l-264 -263h-82zM137 670q0 118 24.5 231.5t74 214.5t118 178t164 121.5t205.5 44.5t205.5 -44.5t164 -121.5t118 -178t74 -214.5t24.5 -231.5q0 -159 -46 -291t-125.5 -220t-186 -136t-228.5 -48t-228.5 48t-186 136t-125.5 220
t-46 291zM254 674q0 -272 133 -432t336 -160q204 0 337.5 160.5t133.5 431.5q0 128 -32 249.5t-90 219.5t-149 157.5t-200 59.5q-108 0 -198.5 -59.5t-148.5 -157.5t-90 -219.5t-32 -249.5z" />
    <glyph glyph-name="uni01D2" unicode="&#x1d2;" horiz-adv-x="1241" 
d="M315 1491h99l198 -197h17l198 197h99l-264 -262h-82zM102 512q0 93 21 182.5t64 169t104 139.5t146 95t184 35q123 0 223.5 -53.5t163.5 -142t97 -198.5t34 -227q0 -253 -144.5 -394t-373.5 -141t-374 141t-145 394zM215 514q0 -216 110 -327t296 -111q185 0 295 111
t110 327q0 102 -26 195t-75 167t-127.5 118t-176.5 44t-177 -44t-128 -118t-75 -167t-26 -195z" />
    <glyph glyph-name="uni01D3" unicode="&#x1d3;" horiz-adv-x="1447" 
d="M420 1815h98l199 -197h16l199 197h98l-264 -263h-82zM1266 1434v-916q0 -143 -41.5 -250t-116 -169.5t-170.5 -93t-213 -30.5t-213 30.5t-171.5 93t-117 169.5t-41.5 250v916h111v-912q0 -120 32.5 -207.5t92.5 -137t136 -72.5t171 -23q76 0 139 14t117.5 46t92.5 82
t59.5 125.5t21.5 172.5v912h111z" />
    <glyph glyph-name="uni01D4" unicode="&#x1d4;" 
d="M657 1229h-82l-264 262h99l198 -197h17l198 197h99zM952 1110h109v-1110h-90l-17 152q-72 -87 -175 -131t-212 -44q-91 0 -162.5 23.5t-117 63t-75.5 95t-42 114.5t-12 126v711h108v-678q0 -362 324 -362q100 0 201 44t161 130v866z" />
    <glyph glyph-name="uni01D5" unicode="&#x1d5;" horiz-adv-x="1447" 
d="M485 1919h480v-74h-480v74zM530 1581q-31 0 -51 20.5t-20 51.5t20 51t51 20t51.5 -20t20.5 -51t-20.5 -51.5t-51.5 -20.5zM920 1581q-31 0 -51.5 20.5t-20.5 51.5t20.5 51t51.5 20t51 -20t20 -51t-20 -51.5t-51 -20.5zM1266 1434v-916q0 -143 -41.5 -250t-116 -169.5
t-170.5 -93t-213 -30.5t-213 30.5t-171.5 93t-117 169.5t-41.5 250v916h111v-912q0 -120 32.5 -207.5t92.5 -137t136 -72.5t171 -23q76 0 139 14t117.5 46t92.5 82t59.5 125.5t21.5 172.5v912h111z" />
    <glyph glyph-name="uni01D6" unicode="&#x1d6;" 
d="M856 1595v-73h-479v73h479zM422 1257q-31 0 -51.5 20.5t-20.5 51.5t20.5 51.5t51.5 20.5t51.5 -20.5t20.5 -51.5t-20.5 -51.5t-51.5 -20.5zM739 1329q0 31 20.5 51.5t51.5 20.5t51.5 -20.5t20.5 -51.5t-20.5 -51.5t-51.5 -20.5t-51.5 20.5t-20.5 51.5zM952 1110h109
v-1110h-90l-17 152q-72 -87 -175 -131t-212 -44q-91 0 -162.5 23.5t-117 63t-75.5 95t-42 114.5t-12 126v711h108v-678q0 -362 324 -362q100 0 201 44t161 130v866z" />
    <glyph glyph-name="uni01D7" unicode="&#x1d7;" horiz-adv-x="1447" 
d="M778 2050h125l-262 -262h-94zM530 1581q-31 0 -51 20.5t-20 51.5t20 51t51 20t51.5 -20t20.5 -51t-20.5 -51.5t-51.5 -20.5zM920 1581q-31 0 -51.5 20.5t-20.5 51.5t20.5 51t51.5 20t51 -20t20 -51t-20 -51.5t-51 -20.5zM1266 1434v-916q0 -143 -41.5 -250t-116 -169.5
t-170.5 -93t-213 -30.5t-213 30.5t-171.5 93t-117 169.5t-41.5 250v916h111v-912q0 -120 32.5 -207.5t92.5 -137t136 -72.5t171 -23q76 0 139 14t117.5 46t92.5 82t59.5 125.5t21.5 172.5v912h111z" />
    <glyph glyph-name="uni01D8" unicode="&#x1d8;" 
d="M795 1726l-263 -262h-94l232 262h125zM422 1257q-31 0 -51.5 20.5t-20.5 51.5t20.5 51.5t51.5 20.5t51.5 -20.5t20.5 -51.5t-20.5 -51.5t-51.5 -20.5zM739 1329q0 31 20.5 51.5t51.5 20.5t51.5 -20.5t20.5 -51.5t-20.5 -51.5t-51.5 -20.5t-51.5 20.5t-20.5 51.5z
M952 1110h109v-1110h-90l-17 152q-72 -87 -175 -131t-212 -44q-91 0 -162.5 23.5t-117 63t-75.5 95t-42 114.5t-12 126v711h108v-678q0 -362 324 -362q100 0 201 44t161 130v866z" />
    <glyph glyph-name="uni01D9" unicode="&#x1d9;" horiz-adv-x="1447" 
d="M420 2050h98l199 -197h16l199 197h98l-264 -262h-82zM530 1581q-31 0 -51 20.5t-20 51.5t20 51t51 20t51.5 -20t20.5 -51t-20.5 -51.5t-51.5 -20.5zM920 1581q-31 0 -51.5 20.5t-20.5 51.5t20.5 51t51.5 20t51 -20t20 -51t-20 -51.5t-51 -20.5zM1266 1434v-916
q0 -143 -41.5 -250t-116 -169.5t-170.5 -93t-213 -30.5t-213 30.5t-171.5 93t-117 169.5t-41.5 250v916h111v-912q0 -120 32.5 -207.5t92.5 -137t136 -72.5t171 -23q76 0 139 14t117.5 46t92.5 82t59.5 125.5t21.5 172.5v912h111z" />
    <glyph glyph-name="uni01DA" unicode="&#x1da;" 
d="M657 1464h-82l-264 262h99l198 -196h17l198 196h99zM350 1329q0 31 20.5 51.5t51.5 20.5t51.5 -20.5t20.5 -51.5t-20.5 -51.5t-51.5 -20.5t-51.5 20.5t-20.5 51.5zM739 1329q0 31 20.5 51.5t51.5 20.5t51.5 -20.5t20.5 -51.5t-20.5 -51.5t-51.5 -20.5t-51.5 20.5
t-20.5 51.5zM952 1110h109v-1110h-90l-17 152q-72 -87 -175 -131t-212 -44q-91 0 -162.5 23.5t-117 63t-75.5 95t-42 114.5t-12 126v711h108v-678q0 -362 324 -362q100 0 201 44t161 130v866z" />
    <glyph glyph-name="uni01DB" unicode="&#x1db;" horiz-adv-x="1447" 
d="M672 2050l231 -262h-94l-262 262h125zM530 1581q-31 0 -51 20.5t-20 51.5t20 51t51 20t51.5 -20t20.5 -51t-20.5 -51.5t-51.5 -20.5zM920 1581q-31 0 -51.5 20.5t-20.5 51.5t20.5 51t51.5 20t51 -20t20 -51t-20 -51.5t-51 -20.5zM1266 1434v-916q0 -143 -41.5 -250
t-116 -169.5t-170.5 -93t-213 -30.5t-213 30.5t-171.5 93t-117 169.5t-41.5 250v916h111v-912q0 -120 32.5 -207.5t92.5 -137t136 -72.5t171 -23q76 0 139 14t117.5 46t92.5 82t59.5 125.5t21.5 172.5v912h111z" />
    <glyph glyph-name="uni01DC" unicode="&#x1dc;" 
d="M795 1464h-95l-262 262h125zM422 1257q-31 0 -51.5 20.5t-20.5 51.5t20.5 51.5t51.5 20.5t51.5 -20.5t20.5 -51.5t-20.5 -51.5t-51.5 -20.5zM739 1329q0 31 20.5 51.5t51.5 20.5t51.5 -20.5t20.5 -51.5t-20.5 -51.5t-51.5 -20.5t-51.5 20.5t-20.5 51.5zM952 1110h109
v-1110h-90l-17 152q-72 -87 -175 -131t-212 -44q-91 0 -162.5 23.5t-117 63t-75.5 95t-42 114.5t-12 126v711h108v-678q0 -362 324 -362q100 0 201 44t161 130v866z" />
    <glyph glyph-name="Gcaron" unicode="&#x1e6;" horiz-adv-x="1441" 
d="M416 1815h98l199 -197h16l199 197h98l-264 -263h-82zM729 750h533v-277q0 -63 -17.5 -129t-59 -133t-101.5 -119t-152.5 -84.5t-204.5 -32.5q-275 0 -432.5 191.5t-157.5 515.5q0 92 13.5 181t42 177.5t76.5 163.5t112 133t154 90.5t198 32.5q101 0 185 -29t139.5 -76
t95.5 -109t59.5 -124.5t24.5 -126.5h-113q-7 68 -32.5 129.5t-71.5 116t-121.5 87t-171.5 32.5q-103 0 -186 -41.5t-135.5 -108.5t-87.5 -157t-49.5 -181.5t-14.5 -187.5q0 -285 126.5 -443.5t354.5 -158.5q92 0 165.5 26t119.5 67t76.5 96t42.5 109.5t12 111.5v157h-422
v101z" />
    <glyph glyph-name="gcaron" unicode="&#x1e7;" horiz-adv-x="1212" 
d="M647 1229h-82l-264 262h98l199 -197h16l199 197h98zM961 1110h83v-1032q0 -227 -131 -344t-350 -117q-186 0 -375 88l35 88q60 -31 152.5 -56.5t189.5 -25.5q171 0 271 92.5t100 274.5v61q-66 -45 -160.5 -75.5t-195.5 -30.5q-103 0 -189 33.5t-151 97.5t-101.5 165.5
t-36.5 231.5q0 89 17.5 170.5t55 154.5t92.5 126.5t135.5 84.5t177.5 31q173 0 364 -122zM610 127q158 0 326 86v709q-155 110 -326 110q-105 0 -183.5 -37t-123.5 -103t-66.5 -147t-21.5 -178q0 -224 104.5 -332t290.5 -108z" />
    <glyph glyph-name="uni01EA" unicode="&#x1ea;" horiz-adv-x="1447" 
d="M827 -14q-71 -43 -106 -98t-35 -113q0 -59 36.5 -96t102.5 -37q38 0 84 12v-55q-54 -27 -116 -27q-88 0 -144.5 52.5t-56.5 131.5q0 58 32 117t91 102q-120 2 -225 50.5t-183.5 136.5t-124 219.5t-45.5 288.5q0 118 24.5 231.5t74 214.5t118 178t164 121.5t205.5 44.5
t205.5 -44.5t164 -121.5t118 -178t74 -214.5t24.5 -231.5q0 -281 -135 -463.5t-347 -220.5zM254 674q0 -272 133 -432t336 -160q204 0 337.5 160.5t133.5 431.5q0 128 -32 249.5t-90 219.5t-149 157.5t-200 59.5q-108 0 -198.5 -59.5t-148.5 -157.5t-90 -219.5t-32 -249.5z
" />
    <glyph glyph-name="uni01EB" unicode="&#x1eb;" horiz-adv-x="1241" 
d="M750 -10q-76 -41 -114 -98t-38 -117q0 -59 36.5 -96t102.5 -37q38 0 84 12v-55q-54 -27 -116 -27q-88 0 -144.5 52.5t-56.5 131.5q0 58 32.5 118t92.5 103h-8q-229 0 -374 141t-145 394q0 93 21 182.5t64 169t104 139.5t146 95t184 35q123 0 223.5 -53.5t163.5 -142
t97 -198.5t34 -227q0 -215 -105.5 -349.5t-283.5 -172.5zM215 514q0 -216 110 -327t296 -111q185 0 295 111t110 327q0 102 -26 195t-75 167t-127.5 118t-176.5 44t-177 -44t-128 -118t-75 -167t-26 -195z" />
    <glyph glyph-name="Aringacute" unicode="&#x1fa;" horiz-adv-x="1345" 
d="M1155 0l-164 446h-645l-164 -446h-116l514 1393q-121 44 -121 176q0 103 80 166l217 245h125l-199 -200q84 -3 143.5 -62.5t59.5 -148.5q0 -67 -33 -112t-90 -64l512 -1393h-119zM522 1571q0 -66 41 -101.5t109 -35.5t108.5 35.5t40.5 101.5q0 67 -43.5 109t-105.5 42
q-63 0 -106.5 -42t-43.5 -109zM383 549h571l-276 758h-16z" />
    <glyph glyph-name="aringacute" unicode="&#x1fb;" horiz-adv-x="1191" 
d="M768 1116q142 -36 202 -144.5t60 -285.5v-686h-84l-16 92q-69 -46 -179 -78t-212 -32q-77 0 -145.5 18t-128 55.5t-94 103.5t-34.5 154q0 164 115 254t303 90q183 0 367 -63v119q0 160 -73.5 240.5t-236.5 80.5q-135 0 -219 -58t-88 -173h-108q3 129 81 209t205 108
q-67 48 -67 148q0 103 80 166l217 247h127l-203 -202q84 -3 144.5 -62t60.5 -149q0 -101 -74 -152zM629 1421q-63 0 -107.5 -42t-44.5 -109q0 -66 42 -101.5t110 -35.5t108.5 35.5t40.5 101.5q0 67 -43.5 109t-105.5 42zM252 319q0 -85 43 -140t111 -77t161 -22q91 0 189 24
t166 60v348q-168 53 -342 53q-152 0 -240 -59.5t-88 -186.5z" />
    <glyph glyph-name="AEacute" unicode="&#x1fc;" horiz-adv-x="1732" 
d="M1044 1815l-262 -263h-94l232 263h124zM1554 1325h-768l189 -512h551v-106h-512l219 -596h321v-111h-399l-164 446h-645l-164 -446h-116l528 1434h960v-109zM383 549h571l-276 758h-16z" />
    <glyph glyph-name="aeacute" unicode="&#x1fd;" horiz-adv-x="2041" 
d="M1194 1491l-262 -262h-94l231 262h125zM1913 563h-875q-2 -16 -2 -47q0 -116 32.5 -203.5t90 -139.5t130 -77.5t159.5 -25.5q153 0 248.5 87.5t115.5 223.5h95q-19 -185 -146.5 -294.5t-314.5 -109.5q-128 0 -239 50t-183 145q-97 -96 -223.5 -143t-249.5 -47
q-79 0 -150 19t-131.5 58t-96.5 106t-36 154q0 110 56 187t150.5 114t219.5 37q197 0 361 -53v82q0 179 -71 263.5t-241 84.5q-133 0 -218 -58t-89 -173h-106q2 109 61 185.5t151.5 110.5t209.5 34q169 0 259 -69.5t119 -199.5q64 124 172 196.5t259 72.5q215 0 349 -140
t134 -389v-41zM1430 1038q-85 0 -153 -30.5t-113.5 -85t-74 -121.5t-42.5 -148h751q-1 180 -103 282.5t-265 102.5zM569 80q110 0 216.5 42t193.5 126q-57 114 -57 264v12q-149 41 -336 41q-73 0 -131 -12.5t-105 -39t-72.5 -73.5t-25.5 -112t25.5 -113.5t70.5 -77.5
t100.5 -43t120.5 -14z" />
    <glyph glyph-name="Oslashacute" unicode="&#x1fe;" horiz-adv-x="1447" 
d="M901 1815l-262 -263h-94l231 263h125zM1102 1284q99 -113 153 -276.5t54 -337.5q0 -159 -46 -291t-125.5 -220t-186 -136t-228.5 -48q-179 0 -320 101l-55 -96l-80 43l66 112q-93 92 -145 228t-52 307q0 118 24.5 231.5t74 214.5t118 178t164 121.5t205.5 44.5
q173 0 311 -112l62 106l80 -43zM254 674q0 -276 137 -438l590 1019q-111 105 -258 105q-108 0 -198.5 -59.5t-148.5 -157.5t-90 -219.5t-32 -249.5zM723 82q204 0 337.5 160.5t133.5 431.5q0 142 -39 277t-111 233l-585 -1012q116 -90 264 -90z" />
    <glyph glyph-name="oslashacute" unicode="&#x1ff;" horiz-adv-x="1241" 
d="M799 1491l-262 -262h-95l232 262h125zM932 1020q100 -87 153.5 -223t53.5 -285q0 -253 -144.5 -394t-373.5 -141q-146 0 -259 58l-63 -111l-70 41l66 113q-193 143 -193 434q0 93 21 182.5t64 169t104 139.5t146 95t184 35q132 0 245 -66l70 121l70 -41zM215 514
q0 -231 131 -346l471 815q-86 55 -196 55q-98 0 -177 -44t-128 -118t-75 -167t-26 -195zM621 76q185 0 295 111t110 327q0 123 -37.5 233.5t-107.5 182.5l-467 -809q86 -45 207 -45z" />
    <glyph glyph-name="uni0218" unicode="&#x218;" horiz-adv-x="1269" 
d="M258 500q0 -198 105 -308t290 -110q161 0 268 91t107 237q0 65 -27.5 116t-74.5 84t-107.5 58.5t-127.5 46.5t-133.5 42t-127 49.5t-107.5 65t-74.5 93.5t-27.5 129q0 155 113.5 261.5t312.5 106.5q209 0 312.5 -111.5t103.5 -301.5h-113q0 68 -15.5 122t-49.5 98.5
t-94.5 68.5t-143.5 24q-146 0 -229.5 -67t-83.5 -181q0 -60 27.5 -105.5t74.5 -75t107.5 -52.5t127.5 -43t133.5 -42t127 -53.5t107.5 -73t74.5 -105.5t27.5 -146q0 -190 -138 -316.5t-350 -126.5q-236 0 -372 141.5t-136 383.5h113zM637 -74q31 0 50.5 -28.5t19.5 -77.5
q0 -62 -32 -124t-89 -97l-17 43q29 20 46.5 55.5t15.5 69.5q-24 0 -42 20.5t-18 54.5t18 59t48 25z" />
    <glyph glyph-name="uni0219" unicode="&#x219;" horiz-adv-x="1058" 
d="M186 369q1 -75 33 -133.5t83 -93t111 -51.5t124 -17q134 0 227.5 62.5t93.5 172.5q0 64 -39 107t-101.5 65.5t-138 40t-151 38t-138 50t-101.5 85.5t-39 136q0 132 101 217t286 85q74 0 138 -16.5t117.5 -51t85.5 -95.5t33 -143h-102q-2 74 -42 122.5t-99.5 68.5
t-137.5 20q-128 0 -199 -51.5t-71 -142.5q0 -64 39 -107t102 -65.5t138.5 -40t151.5 -37.5t139 -49t102 -84.5t39 -134.5q0 -80 -36.5 -147t-97.5 -110.5t-139 -67.5t-163 -24q-56 0 -112 9.5t-118.5 37t-109.5 69.5t-78.5 113.5t-32.5 162.5h102zM530 -74q31 0 50.5 -28.5
t19.5 -77.5q0 -62 -32 -124t-89 -97l-16 43q29 20 46 55t17 70q-26 0 -43.5 20.5t-17.5 54.5t18 59t47 25z" />
    <glyph glyph-name="uni021A" unicode="&#x21a;" horiz-adv-x="1335" 
d="M1208 1434v-109h-491v-1325h-111v1325h-479v109h1081zM668 -74q31 0 50 -28.5t19 -77.5q0 -62 -32 -124t-89 -97l-16 43q29 20 46.5 55.5t15.5 69.5q-24 0 -42 20.5t-18 54.5t18 59t48 25z" />
    <glyph glyph-name="uni021B" unicode="&#x21b;" horiz-adv-x="782" 
d="M676 72q-90 -90 -209 -90q-42 0 -77 11t-65 36t-47.5 71t-17.5 109v817h-188v84h188v287h109v-287h284v-84h-284v-795q0 -81 33.5 -115t95.5 -34q83 0 151 61zM455 -74q31 0 50 -28.5t19 -77.5q0 -62 -32 -124t-89 -97l-16 43q29 20 46.5 55.5t15.5 69.5q-24 0 -42 20.5
t-18 54.5t18 59t48 25z" />
    <glyph glyph-name="uni0232" unicode="&#x232;" horiz-adv-x="1247" 
d="M862 1683v-73h-479v73h479zM1071 1434h119l-512 -775v-659h-111v659l-512 775h131l435 -664h12z" />
    <glyph glyph-name="uni0233" unicode="&#x233;" horiz-adv-x="1132" 
d="M807 1360v-74h-479v74h479zM956 1110h115l-467 -1200q-48 -128 -131 -206.5t-176 -78.5q-90 0 -178 43l18 76q68 -27 142 -27q69 0 129.5 64.5t105.5 181.5l29 60l-482 1087h117l414 -956h8z" />
    <glyph glyph-name="uni0237" unicode="&#x237;" horiz-adv-x="489" 
d="M215 1110h109v-1196q0 -146 -63.5 -220.5t-182.5 -74.5q-45 0 -93 17.5t-83 44.5l26 71q68 -35 129 -35q85 0 121.5 50.5t36.5 160.5v1182z" />
    <glyph glyph-name="uni0259" unicode="&#x259;" horiz-adv-x="1224" 
d="M602 1133q76 0 149 -21t141 -67t119 -112t82 -163.5t31 -214.5q0 -121 -33.5 -225t-96.5 -183.5t-162.5 -124.5t-223.5 -45q-222 0 -364 139t-142 390v41h908v8q0 129 -36.5 226.5t-97 152t-129 80.5t-143.5 26q-65 0 -121.5 -20t-96 -51.5t-71.5 -74t-50.5 -82.5
t-31.5 -83h-104q16 77 54.5 147.5t97 128.5t142 93t179.5 35zM610 70q174 0 274.5 105t121.5 288h-789q0 -184 109.5 -288.5t283.5 -104.5z" />
    <glyph glyph-name="uni0272" unicode="&#x272;" horiz-adv-x="1286" 
d="M731 1128q86 0 152.5 -22t110.5 -60.5t72 -94.5t40 -119.5t12 -139.5v-692h-108v659q0 183 -69 279t-234 96q-116 0 -220 -54.5t-163 -170.5v-834q0 -146 -63.5 -220t-182.5 -74q-45 0 -93.5 17t-82.5 44l26 72q68 -35 129 -35q85 0 121.5 50.5t36.5 160.5v1120h100
l9 -166v-14q73 101 179.5 149.5t227.5 48.5z" />
    <glyph glyph-name="circumflex" unicode="&#x2c6;" horiz-adv-x="1220" 
d="M303 1229l264 262h82l264 -262h-98l-199 196h-16l-199 -196h-98z" />
    <glyph glyph-name="caron" unicode="&#x2c7;" horiz-adv-x="1216" 
d="M303 1491h98l199 -197h16l199 197h98l-264 -262h-82z" />
    <glyph glyph-name="breve" unicode="&#x2d8;" horiz-adv-x="1216" 
d="M393 1491q0 -33 11.5 -66.5t35 -64.5t67 -50.5t101.5 -19.5t101.5 19.5t67 50.5t35 64.5t11.5 66.5h90q0 -106 -82 -190t-223 -84t-223 84t-82 190h90z" />
    <glyph glyph-name="dotaccent" unicode="&#x2d9;" horiz-adv-x="1216" 
d="M608 1255q-35 0 -58.5 23.5t-23.5 58.5t23.5 58.5t58.5 23.5t58.5 -23.5t23.5 -58.5t-23.5 -58.5t-58.5 -23.5z" />
    <glyph glyph-name="ring" unicode="&#x2da;" horiz-adv-x="1216" 
d="M608 1182q-81 0 -130.5 50t-49.5 126q0 77 50.5 126.5t129.5 49.5q81 0 130.5 -49.5t49.5 -126.5q0 -76 -49.5 -126t-130.5 -50zM608 1237q57 0 90 33.5t33 87.5q0 55 -33.5 90t-89.5 35q-55 0 -89 -35t-34 -90q0 -52 33.5 -86.5t89.5 -34.5z" />
    <glyph glyph-name="ogonek" unicode="&#x2db;" horiz-adv-x="1214" 
d="M635 12l67 -4l11 -8q-85 -42 -127.5 -101.5t-42.5 -123.5q0 -59 36.5 -96t102.5 -37q38 0 84 12v-55q-54 -27 -117 -27q-88 0 -144 52.5t-56 131.5q0 72 49 144.5t137 111.5z" />
    <glyph glyph-name="tilde" unicode="&#x2dc;" horiz-adv-x="1208" 
d="M895 1448q9 -91 -37 -145t-119 -54q-47 0 -85.5 21t-60.5 45.5t-54 45.5t-66 21q-41 0 -68.5 -31t-19.5 -89h-72q-9 90 37.5 144t118.5 54q47 0 86 -21t61.5 -45.5t55 -45.5t67.5 -21q41 0 66 30.5t18 90.5h72z" />
    <glyph glyph-name="hungarumlaut" unicode="&#x2dd;" horiz-adv-x="1218" 
d="M475 1491h96l-100 -262h-72zM723 1491h96l-100 -262h-72z" />
    <glyph glyph-name="gravecomb" unicode="&#x300;" horiz-adv-x="0" 
d="M-662 1491l232 -262h-94l-262 262h124z" />
    <glyph glyph-name="acutecomb" unicode="&#x301;" horiz-adv-x="0" 
d="M-555 1491h125l-262 -262h-94z" />
    <glyph glyph-name="uni0302" unicode="&#x302;" horiz-adv-x="0" 
d="M-918 1229l265 262h82l264 -262h-99l-198 196h-17l-198 -196h-99z" />
    <glyph glyph-name="tildecomb" unicode="&#x303;" horiz-adv-x="0" 
d="M-313 1448q9 -91 -37 -145t-119 -54q-47 0 -85.5 21t-60.5 45.5t-54 45.5t-66 21q-41 0 -68.5 -31t-19.5 -89h-72q-9 90 37.5 144t118.5 54q47 0 86 -21t61.5 -45.5t55 -45.5t67.5 -21q41 0 66 30.5t18 90.5h72z" />
    <glyph glyph-name="uni0304" unicode="&#x304;" horiz-adv-x="0" 
d="M-852 1360h479v-74h-479v74z" />
    <glyph glyph-name="uni0306" unicode="&#x306;" horiz-adv-x="0" 
d="M-823 1491q0 -33 11.5 -66.5t35 -64.5t67 -50.5t101.5 -19.5t101.5 19.5t67 50.5t35 64.5t11.5 66.5h90q0 -106 -82 -190t-223 -84t-223 84t-82 190h90z" />
    <glyph glyph-name="uni0307" unicode="&#x307;" horiz-adv-x="0" 
d="M-608 1255q-35 0 -58.5 23.5t-23.5 58.5t23.5 58.5t58.5 23.5t58.5 -23.5t23.5 -58.5t-23.5 -58.5t-58.5 -23.5z" />
    <glyph glyph-name="uni0308" unicode="&#x308;" horiz-adv-x="0" 
d="M-803 1257q-31 0 -51 20.5t-20 51.5t20 51.5t51 20.5t51.5 -20.5t20.5 -51.5t-20.5 -51.5t-51.5 -20.5zM-414 1257q-31 0 -51 20.5t-20 51.5t20 51.5t51 20.5t51.5 -20.5t20.5 -51.5t-20.5 -51.5t-51.5 -20.5z" />
    <glyph glyph-name="hookabovecomb" unicode="&#x309;" horiz-adv-x="0" 
d="M-784 1505q65 19 127 19q104 0 158.5 -36.5t54.5 -103.5q0 -74 -61 -115.5t-163 -51.5v51q131 18 131 108t-131 90q-50 0 -116 -16v55z" />
    <glyph glyph-name="uni030A" unicode="&#x30a;" horiz-adv-x="0" 
d="M-608 1182q-81 0 -130.5 50t-49.5 126q0 77 50.5 126.5t129.5 49.5q81 0 130.5 -49.5t49.5 -126.5q0 -76 -49.5 -126t-130.5 -50zM-608 1237q57 0 90 33.5t33 87.5q0 55 -33.5 90t-89.5 35q-55 0 -89 -35t-34 -90q0 -52 33.5 -86.5t89.5 -34.5z" />
    <glyph glyph-name="uni030B" unicode="&#x30b;" horiz-adv-x="0" 
d="M-743 1491h96l-101 -262h-71zM-496 1491h97l-101 -262h-71z" />
    <glyph glyph-name="uni030C" unicode="&#x30c;" horiz-adv-x="0" 
d="M-913 1491h98l199 -197h16l199 197h98l-264 -262h-82z" />
    <glyph glyph-name="uni0312" unicode="&#x312;" horiz-adv-x="0" 
d="M-436 1227q-29 0 -46.5 25.5t-17.5 68.5q0 55 29 109t82 86l12 -37q-25 -19 -40.5 -50.5t-14.5 -60.5q24 0 40.5 -19t16.5 -49t-16.5 -51.5t-44.5 -21.5z" />
    <glyph glyph-name="uni031B" unicode="&#x31b;" horiz-adv-x="0" 
d="M-457 1315v-156q0 -96 -45.5 -142t-113.5 -46q-89 0 -156 67v72h29q57 -57 108 -57q76 0 76 86v176h102z" />
    <glyph glyph-name="dotbelowcomb" unicode="&#x323;" horiz-adv-x="0" 
d="M-618 -289q-35 0 -58.5 23.5t-23.5 58.5t23.5 58.5t58.5 23.5t58 -23.5t23 -58.5t-23 -58.5t-58 -23.5z" />
    <glyph glyph-name="uni0326" unicode="&#x326;" horiz-adv-x="0" 
d="M-614 -74q31 0 50 -28.5t19 -77.5q0 -62 -32 -124t-89 -97l-16 43q29 20 46 55.5t15 69.5q-24 0 -41.5 20.5t-17.5 54.5t18 59t48 25z" />
    <glyph glyph-name="uni0327" unicode="&#x327;" horiz-adv-x="0" 
d="M-606 -127q180 0 180 -129q0 -80 -65 -126t-162 -46q-71 0 -144 25v45q63 -15 125 -15q60 0 102 27t42 74q0 92 -138 92h-39l31 53h68z" />
    <glyph glyph-name="uni0328" unicode="&#x328;" horiz-adv-x="0" 
d="M-580 12l68 -4l10 -8q-85 -42 -127.5 -101.5t-42.5 -123.5q0 -59 37 -96t103 -37q37 0 83 12v-55q-54 -27 -116 -27q-88 0 -144.5 52.5t-56.5 131.5q0 72 49 144.5t137 111.5z" />
    <glyph glyph-name="uni0394" unicode="&#x394;" horiz-adv-x="1376" 
d="M741 1434l549 -1336v-98h-1204v98l551 1336h104zM197 98h983l-486 1196h-10z" />
    <glyph glyph-name="uni03A9" unicode="&#x3a9;" horiz-adv-x="1271" 
d="M1186 696q0 -223 -90.5 -385.5t-233.5 -230.5l322 18v-98h-490v72q163 30 271 206t108 427q0 176 -54 325t-155 239.5t-227 90.5t-227.5 -91t-156 -240t-54.5 -324q0 -246 104.5 -420.5t263.5 -212.5h13v-72h-490v98l320 -16q-143 66 -233.5 228.5t-90.5 385.5
q0 201 73 375t200.5 278.5t277.5 104.5q151 0 278 -105t199 -279t72 -374z" />
    <glyph glyph-name="uni03BC" unicode="&#x3bc;" 
d="M1061 264q0 -168 168 -168v-98q-107 2 -173.5 39.5t-90.5 124.5q-71 -92 -173.5 -138.5t-207.5 -46.5q-206 0 -318 136v-482h-108v1479h108v-678q0 -362 324 -362q100 0 201 44t161 132v864h109v-846z" />
    <glyph glyph-name="pi" unicode="&#x3c0;" horiz-adv-x="1312" 
d="M1178 143l28 -71q-90 -90 -209 -90q-89 0 -147.5 52.5t-58.5 174.5v817h-418v-1026h-111v1026h-190v84h1112v-84h-285v-795q0 -81 33.5 -115t95.5 -34q47 0 88.5 20.5t61.5 40.5z" />
    <glyph glyph-name="Wgrave" unicode="&#x1e80;" horiz-adv-x="2068" 
d="M1214 1552h-94l-262 263h125zM1882 1434h113l-436 -1434h-142l-368 1237h-23l-371 -1237h-139l-442 1434h119l389 -1295h10l391 1295h109l391 -1295h12z" />
    <glyph glyph-name="wgrave" unicode="&#x1e81;" horiz-adv-x="1613" 
d="M985 1229h-94l-262 262h125zM1430 1110h112l-336 -1110h-114l-277 946h-14l-279 -946h-114l-336 1110h114l273 -975h10l289 975h102l285 -975h8z" />
    <glyph glyph-name="Wacute" unicode="&#x1e82;" horiz-adv-x="2068" 
d="M1214 1815l-262 -263h-94l232 263h124zM1882 1434h113l-436 -1434h-142l-368 1237h-23l-371 -1237h-139l-442 1434h119l389 -1295h10l391 1295h109l391 -1295h12z" />
    <glyph glyph-name="wacute" unicode="&#x1e83;" horiz-adv-x="1613" 
d="M985 1491l-262 -262h-94l231 262h125zM1430 1110h112l-336 -1110h-114l-277 946h-14l-279 -946h-114l-336 1110h114l273 -975h10l289 975h102l285 -975h8z" />
    <glyph glyph-name="Wdieresis" unicode="&#x1e84;" horiz-adv-x="2068" 
d="M842 1581q-31 0 -51.5 20.5t-20.5 51.5t20.5 51t51.5 20t51 -20t20 -51t-20 -51.5t-51 -20.5zM1231 1581q-31 0 -51.5 20.5t-20.5 51.5t20.5 51t51.5 20t51.5 -20t20.5 -51t-20.5 -51.5t-51.5 -20.5zM1882 1434h113l-436 -1434h-142l-368 1237h-23l-371 -1237h-139
l-442 1434h119l389 -1295h10l391 1295h109l391 -1295h12z" />
    <glyph glyph-name="wdieresis" unicode="&#x1e85;" horiz-adv-x="1613" 
d="M612 1257q-31 0 -51 20.5t-20 51.5t20 51.5t51 20.5t51.5 -20.5t20.5 -51.5t-20.5 -51.5t-51.5 -20.5zM1001 1257q-31 0 -51 20.5t-20 51.5t20 51.5t51 20.5t51.5 -20.5t20.5 -51.5t-20.5 -51.5t-51.5 -20.5zM1430 1110h112l-336 -1110h-114l-277 946h-14l-279 -946h-114
l-336 1110h114l273 -975h10l289 975h102l285 -975h8z" />
    <glyph glyph-name="Germandbls" unicode="&#x1e9e;" horiz-adv-x="1376" 
d="M883 840q76 -26 135 -58.5t113 -82t84 -121t30 -160.5q0 -199 -126.5 -320t-330.5 -121q-185 0 -313 105l47 88q136 -88 275 -88q150 0 243 87t93 234q0 253 -365 345v90l250 409q-33 18 -46 25t-60.5 28t-84.5 31.5t-94 20.5t-112 10q-71 0 -124.5 -16.5t-101 -58.5
t-73 -125t-25.5 -204v-958h-111v958q0 504 430 504q284 0 539 -182z" />
    <glyph glyph-name="uni1EA0" unicode="&#x1ea0;" horiz-adv-x="1339" 
d="M1274 0h-119l-164 446h-645l-164 -446h-116l528 1434h154zM383 549h571l-276 758h-16zM666 -125q35 0 58.5 -23.5t23.5 -58.5t-23.5 -58.5t-58.5 -23.5t-58.5 23.5t-23.5 58.5t23.5 58.5t58.5 23.5z" />
    <glyph glyph-name="uni1EA1" unicode="&#x1ea1;" horiz-adv-x="1198" 
d="M612 1133q119 0 201.5 -31t129.5 -92t67 -139.5t20 -184.5v-686h-84l-16 92q-69 -46 -179 -78t-212 -32q-77 0 -145.5 18t-128 55.5t-94 103.5t-34.5 154q0 164 115 254t303 90q183 0 367 -63v119q0 160 -73.5 240.5t-236.5 80.5q-135 0 -219 -58t-88 -173h-108
q2 109 61 185.5t150 110.5t204 34zM252 319q0 -85 43 -140t111 -77t161 -22q91 0 189 24t166 60v348q-168 53 -342 53q-152 0 -240 -59.5t-88 -186.5zM575 -125q35 0 58.5 -23.5t23.5 -58.5t-23.5 -58.5t-58.5 -23.5t-58 23.5t-23 58.5t23 58.5t58 23.5z" />
    <glyph glyph-name="uni1EA2" unicode="&#x1ea2;" horiz-adv-x="1339" 
d="M758 1700q0 90 -131 90q-51 0 -117 -16v55q62 18 127 18q105 0 159 -36t54 -103q0 -74 -61 -116t-162 -52v51q131 18 131 109zM1155 0l-164 446h-645l-164 -446h-116l528 1434h154l526 -1434h-119zM383 549h571l-276 758h-16z" />
    <glyph glyph-name="uni1EA3" unicode="&#x1ea3;" horiz-adv-x="1198" 
d="M668 1376q0 90 -131 90q-51 0 -117 -16v55q65 19 127 19q104 0 158.5 -36.5t54.5 -103.5q0 -74 -61 -115.5t-162 -51.5v51q131 18 131 108zM612 1133q119 0 201.5 -31t129.5 -92t67 -139.5t20 -184.5v-686h-84l-16 92q-69 -46 -179 -78t-212 -32q-77 0 -145.5 18
t-128 55.5t-94 103.5t-34.5 154q0 164 115 254t303 90q183 0 367 -63v119q0 160 -73.5 240.5t-236.5 80.5q-135 0 -219 -58t-88 -173h-108q2 109 61 185.5t150 110.5t204 34zM252 319q0 -85 43 -140t111 -77t161 -22q91 0 189 24t166 60v348q-168 53 -342 53
q-152 0 -240 -59.5t-88 -186.5z" />
    <glyph glyph-name="uni1EA4" unicode="&#x1ea4;" horiz-adv-x="1339" 
d="M848 2138l-262 -262h-94l231 262h125zM662 1749l-199 -197h-98l264 263h82l264 -263h-98l-199 197h-16zM1155 0l-164 446h-645l-164 -446h-116l528 1434h154l526 -1434h-119zM383 549h571l-276 758h-16z" />
    <glyph glyph-name="uni1EA5" unicode="&#x1ea5;" horiz-adv-x="1198" 
d="M758 1815l-262 -263h-95l232 263h125zM571 1425l-198 -196h-99l265 262h82l264 -262h-99l-198 196h-17zM612 1133q119 0 201.5 -31t129.5 -92t67 -139.5t20 -184.5v-686h-84l-16 92q-69 -46 -179 -78t-212 -32q-77 0 -145.5 18t-128 55.5t-94 103.5t-34.5 154
q0 164 115 254t303 90q183 0 367 -63v119q0 160 -73.5 240.5t-236.5 80.5q-135 0 -219 -58t-88 -173h-108q2 109 61 185.5t150 110.5t204 34zM252 319q0 -85 43 -140t111 -77t161 -22q91 0 189 24t166 60v348q-168 53 -342 53q-152 0 -240 -59.5t-88 -186.5z" />
    <glyph glyph-name="uni1EA6" unicode="&#x1ea6;" horiz-adv-x="1339" 
d="M848 1876h-94l-262 262h124zM662 1749l-199 -197h-98l264 263h82l264 -263h-98l-199 197h-16zM1155 0l-164 446h-645l-164 -446h-116l528 1434h154l526 -1434h-119zM383 549h571l-276 758h-16z" />
    <glyph glyph-name="uni1EA7" unicode="&#x1ea7;" horiz-adv-x="1198" 
d="M758 1552h-94l-263 263h125zM571 1425l-198 -196h-99l265 262h82l264 -262h-99l-198 196h-17zM612 1133q119 0 201.5 -31t129.5 -92t67 -139.5t20 -184.5v-686h-84l-16 92q-69 -46 -179 -78t-212 -32q-77 0 -145.5 18t-128 55.5t-94 103.5t-34.5 154q0 164 115 254
t303 90q183 0 367 -63v119q0 160 -73.5 240.5t-236.5 80.5q-135 0 -219 -58t-88 -173h-108q2 109 61 185.5t150 110.5t204 34zM252 319q0 -85 43 -140t111 -77t161 -22q91 0 189 24t166 60v348q-168 53 -342 53q-152 0 -240 -59.5t-88 -186.5z" />
    <glyph glyph-name="uni1EA8" unicode="&#x1ea8;" horiz-adv-x="1339" 
d="M629 1815q131 18 131 108t-131 90q-45 0 -117 -14v55q70 17 127 17q104 0 158.5 -36.5t54.5 -103.5q0 -99 -115 -143l238 -236h-98l-199 197h-16l-199 -197h-98zM1155 0l-164 446h-645l-164 -446h-116l528 1434h154l526 -1434h-119zM383 549h571l-276 758h-16z" />
    <glyph glyph-name="uni1EA9" unicode="&#x1ea9;" horiz-adv-x="1198" 
d="M539 1491q131 18 131 108q0 46 -35 68.5t-96 22.5q-40 0 -117 -15v56q66 16 127 16q105 0 159 -36t54 -103q0 -100 -115 -144l238 -235h-99l-198 196h-17l-198 -196h-99zM612 1133q119 0 201.5 -31t129.5 -92t67 -139.5t20 -184.5v-686h-84l-16 92q-69 -46 -179 -78
t-212 -32q-77 0 -145.5 18t-128 55.5t-94 103.5t-34.5 154q0 164 115 254t303 90q183 0 367 -63v119q0 160 -73.5 240.5t-236.5 80.5q-135 0 -219 -58t-88 -173h-108q2 109 61 185.5t150 110.5t204 34zM252 319q0 -85 43 -140t111 -77t161 -22q91 0 189 24t166 60v348
q-168 53 -342 53q-152 0 -240 -59.5t-88 -186.5z" />
    <glyph glyph-name="uni1EAA" unicode="&#x1eaa;" horiz-adv-x="1339" 
d="M451 1909h-72q-9 90 37.5 144t118.5 54q47 0 86 -21t61.5 -45.5t55 -45.5t67.5 -21q41 0 66.5 30.5t17.5 90.5h72q9 -92 -36.5 -145.5t-119.5 -53.5q-38 0 -70 14t-54 33.5t-42 39t-45.5 33.5t-54.5 14q-41 0 -68.5 -31.5t-19.5 -89.5zM662 1749l-199 -197h-98l264 263
h82l264 -263h-98l-199 197h-16zM1155 0l-164 446h-645l-164 -446h-116l528 1434h154l526 -1434h-119zM383 549h571l-276 758h-16z" />
    <glyph glyph-name="uni1EAB" unicode="&#x1eab;" horiz-adv-x="1198" 
d="M360 1585h-71q-9 90 37 144.5t118 54.5q47 0 86 -21t62 -45.5t55.5 -45.5t67.5 -21q41 0 66.5 30.5t17.5 90.5h71q9 -92 -36 -145.5t-119 -53.5q-47 0 -85.5 21t-60 45.5t-53.5 45.5t-67 21q-41 0 -69 -31.5t-20 -89.5zM571 1425l-198 -196h-99l265 262h82l264 -262h-99
l-198 196h-17zM612 1133q119 0 201.5 -31t129.5 -92t67 -139.5t20 -184.5v-686h-84l-16 92q-69 -46 -179 -78t-212 -32q-77 0 -145.5 18t-128 55.5t-94 103.5t-34.5 154q0 164 115 254t303 90q183 0 367 -63v119q0 160 -73.5 240.5t-236.5 80.5q-135 0 -219 -58t-88 -173
h-108q2 109 61 185.5t150 110.5t204 34zM252 319q0 -85 43 -140t111 -77t161 -22q91 0 189 24t166 60v348q-168 53 -342 53q-152 0 -240 -59.5t-88 -186.5z" />
    <glyph glyph-name="uni1EAC" unicode="&#x1eac;" horiz-adv-x="1339" 
d="M662 1749l-199 -197h-98l264 263h82l264 -263h-98l-199 197h-16zM1274 0h-119l-164 446h-645l-164 -446h-116l528 1434h154zM383 549h571l-276 758h-16zM666 -125q35 0 58.5 -23.5t23.5 -58.5t-23.5 -58.5t-58.5 -23.5t-58.5 23.5t-23.5 58.5t23.5 58.5t58.5 23.5z" />
    <glyph glyph-name="uni1EAD" unicode="&#x1ead;" horiz-adv-x="1198" 
d="M571 1425l-198 -196h-99l265 262h82l264 -262h-99l-198 196h-17zM612 1133q119 0 201.5 -31t129.5 -92t67 -139.5t20 -184.5v-686h-84l-16 92q-69 -46 -179 -78t-212 -32q-77 0 -145.5 18t-128 55.5t-94 103.5t-34.5 154q0 164 115 254t303 90q183 0 367 -63v119
q0 160 -73.5 240.5t-236.5 80.5q-135 0 -219 -58t-88 -173h-108q2 109 61 185.5t150 110.5t204 34zM252 319q0 -85 43 -140t111 -77t161 -22q91 0 189 24t166 60v348q-168 53 -342 53q-152 0 -240 -59.5t-88 -186.5zM575 -125q35 0 58.5 -23.5t23.5 -58.5t-23.5 -58.5
t-58.5 -23.5t-58 23.5t-23 58.5t23 58.5t58 23.5z" />
    <glyph glyph-name="uni1EAE" unicode="&#x1eae;" horiz-adv-x="1339" 
d="M848 2111l-262 -262h-94l229 262h127zM670 1540q-141 0 -223 84.5t-82 190.5h88q0 -33 11.5 -66.5t35.5 -64.5t68 -50.5t102 -19.5t101.5 19.5t67 50.5t35 64.5t11.5 66.5h90q0 -106 -82 -190.5t-223 -84.5zM1155 0l-164 446h-645l-164 -446h-116l528 1434h154l526 -1434
h-119zM383 549h571l-276 758h-16z" />
    <glyph glyph-name="uni1EAF" unicode="&#x1eaf;" horiz-adv-x="1198" 
d="M758 1788l-262 -262h-95l230 262h127zM580 1217q-141 0 -223.5 84t-82.5 190h88q0 -33 12 -66.5t36 -64.5t68 -50.5t102 -19.5t101.5 19.5t67 50.5t35 64.5t11.5 66.5h90q0 -106 -82 -190t-223 -84zM612 1133q119 0 201.5 -31t129.5 -92t67 -139.5t20 -184.5v-686h-84
l-16 92q-69 -46 -179 -78t-212 -32q-77 0 -145.5 18t-128 55.5t-94 103.5t-34.5 154q0 164 115 254t303 90q183 0 367 -63v119q0 160 -73.5 240.5t-236.5 80.5q-135 0 -219 -58t-88 -173h-108q2 109 61 185.5t150 110.5t204 34zM252 319q0 -85 43 -140t111 -77t161 -22
q91 0 189 24t166 60v348q-168 53 -342 53q-152 0 -240 -59.5t-88 -186.5z" />
    <glyph glyph-name="uni1EB0" unicode="&#x1eb0;" horiz-adv-x="1339" 
d="M848 1849h-94l-262 262h124zM670 1540q-141 0 -223 84.5t-82 190.5h90q0 -33 11.5 -66.5t35 -64.5t67 -50.5t101.5 -19.5t101.5 19.5t67 50.5t35 64.5t11.5 66.5h90q0 -106 -82 -190.5t-223 -84.5zM1155 0l-164 446h-645l-164 -446h-116l528 1434h154l526 -1434h-119z
M383 549h571l-276 758h-16z" />
    <glyph glyph-name="uni1EB1" unicode="&#x1eb1;" horiz-adv-x="1198" 
d="M758 1526h-94l-263 262h125zM580 1217q-141 0 -223.5 84t-82.5 190h91q0 -33 11.5 -66.5t35 -64.5t67 -50.5t101.5 -19.5t101.5 19.5t67 50.5t35 64.5t11.5 66.5h90q0 -106 -82 -190t-223 -84zM612 1133q119 0 201.5 -31t129.5 -92t67 -139.5t20 -184.5v-686h-84l-16 92
q-69 -46 -179 -78t-212 -32q-77 0 -145.5 18t-128 55.5t-94 103.5t-34.5 154q0 164 115 254t303 90q183 0 367 -63v119q0 160 -73.5 240.5t-236.5 80.5q-135 0 -219 -58t-88 -173h-108q2 109 61 185.5t150 110.5t204 34zM252 319q0 -85 43 -140t111 -77t161 -22q91 0 189 24
t166 60v348q-168 53 -342 53q-152 0 -240 -59.5t-88 -186.5z" />
    <glyph glyph-name="uni1EB2" unicode="&#x1eb2;" horiz-adv-x="1339" 
d="M745 1956q0 90 -131 90q-43 0 -118 -14v55q69 16 129 16q104 0 158.5 -36t54.5 -101q0 -74 -61 -116.5t-163 -53.5v51q131 21 131 109zM668 1540q-141 0 -223.5 84.5t-82.5 190.5h89q0 -33 11.5 -66.5t35.5 -64.5t68 -50.5t102 -19.5t101.5 19.5t67 50.5t35 64.5
t11.5 66.5h90q0 -106 -82 -190.5t-223 -84.5zM1155 0l-164 446h-645l-164 -446h-116l528 1434h154l526 -1434h-119zM383 549h571l-276 758h-16z" />
    <glyph glyph-name="uni1EB3" unicode="&#x1eb3;" horiz-adv-x="1198" 
d="M655 1632q0 90 -131 90q-43 0 -118 -14v55q73 17 129 17q104 0 158.5 -36t54.5 -102q0 -74 -61 -116t-163 -53v51q131 21 131 108zM578 1217q-141 0 -223.5 84t-82.5 190h88q0 -33 12 -66.5t36 -64.5t68 -50.5t102 -19.5t101.5 19.5t67 50.5t35 64.5t11.5 66.5h90
q0 -106 -82 -190t-223 -84zM612 1133q119 0 201.5 -31t129.5 -92t67 -139.5t20 -184.5v-686h-84l-16 92q-69 -46 -179 -78t-212 -32q-77 0 -145.5 18t-128 55.5t-94 103.5t-34.5 154q0 164 115 254t303 90q183 0 367 -63v119q0 160 -73.5 240.5t-236.5 80.5q-135 0 -219 -58
t-88 -173h-108q2 109 61 185.5t150 110.5t204 34zM252 319q0 -85 43 -140t111 -77t161 -22q91 0 189 24t166 60v348q-168 53 -342 53q-152 0 -240 -59.5t-88 -186.5z" />
    <glyph glyph-name="uni1EB4" unicode="&#x1eb4;" horiz-adv-x="1339" 
d="M451 1884h-72q-9 90 37.5 143.5t118.5 53.5q47 0 86 -21t61.5 -45.5t55 -45.5t67.5 -21q41 0 66.5 30t17.5 90h72q9 -90 -36.5 -143t-119.5 -53q-38 0 -70 13.5t-54 33t-42 38.5t-45.5 32.5t-54.5 13.5q-41 0 -68.5 -31t-19.5 -88zM670 1540q-141 0 -223 84.5t-82 190.5
h90q0 -33 11.5 -66.5t35 -64.5t67 -50.5t101.5 -19.5t101.5 19.5t67 50.5t35 64.5t11.5 66.5h90q0 -106 -82 -190.5t-223 -84.5zM1155 0l-164 446h-645l-164 -446h-116l528 1434h154l526 -1434h-119zM383 549h571l-276 758h-16z" />
    <glyph glyph-name="uni1EB5" unicode="&#x1eb5;" horiz-adv-x="1198" 
d="M360 1561h-71q-9 90 37 143t118 53q47 0 86 -21t62 -45.5t55.5 -45.5t67.5 -21q41 0 66.5 30.5t17.5 90.5h71q9 -91 -36.5 -144t-118.5 -53q-38 0 -70 13.5t-54 33t-42 38.5t-45.5 32.5t-54.5 13.5q-42 0 -69.5 -30.5t-19.5 -87.5zM580 1217q-141 0 -223.5 84t-82.5 190
h91q0 -33 11.5 -66.5t35 -64.5t67 -50.5t101.5 -19.5t101.5 19.5t67 50.5t35 64.5t11.5 66.5h90q0 -106 -82 -190t-223 -84zM612 1133q119 0 201.5 -31t129.5 -92t67 -139.5t20 -184.5v-686h-84l-16 92q-69 -46 -179 -78t-212 -32q-77 0 -145.5 18t-128 55.5t-94 103.5
t-34.5 154q0 164 115 254t303 90q183 0 367 -63v119q0 160 -73.5 240.5t-236.5 80.5q-135 0 -219 -58t-88 -173h-108q2 109 61 185.5t150 110.5t204 34zM252 319q0 -85 43 -140t111 -77t161 -22q91 0 189 24t166 60v348q-168 53 -342 53q-152 0 -240 -59.5t-88 -186.5z" />
    <glyph glyph-name="uni1EB6" unicode="&#x1eb6;" horiz-adv-x="1339" 
d="M670 1540q-141 0 -223 84.5t-82 190.5h90q0 -33 11.5 -66.5t35 -64.5t67 -50.5t101.5 -19.5t101.5 19.5t67 50.5t35 64.5t11.5 66.5h90q0 -106 -82 -190.5t-223 -84.5zM1274 0h-119l-164 446h-645l-164 -446h-116l528 1434h154zM383 549h571l-276 758h-16zM666 -125
q35 0 58.5 -23.5t23.5 -58.5t-23.5 -58.5t-58.5 -23.5t-58.5 23.5t-23.5 58.5t23.5 58.5t58.5 23.5z" />
    <glyph glyph-name="uni1EB7" unicode="&#x1eb7;" horiz-adv-x="1198" 
d="M580 1217q-141 0 -223.5 84t-82.5 190h91q0 -33 11.5 -66.5t35 -64.5t67 -50.5t101.5 -19.5t101.5 19.5t67 50.5t35 64.5t11.5 66.5h90q0 -106 -82 -190t-223 -84zM612 1133q119 0 201.5 -31t129.5 -92t67 -139.5t20 -184.5v-686h-84l-16 92q-69 -46 -179 -78t-212 -32
q-77 0 -145.5 18t-128 55.5t-94 103.5t-34.5 154q0 164 115 254t303 90q183 0 367 -63v119q0 160 -73.5 240.5t-236.5 80.5q-135 0 -219 -58t-88 -173h-108q2 109 61 185.5t150 110.5t204 34zM252 319q0 -85 43 -140t111 -77t161 -22q91 0 189 24t166 60v348
q-168 53 -342 53q-152 0 -240 -59.5t-88 -186.5zM575 -125q35 0 58.5 -23.5t23.5 -58.5t-23.5 -58.5t-58.5 -23.5t-58 23.5t-23 58.5t23 58.5t58 23.5z" />
    <glyph glyph-name="uni1EB8" unicode="&#x1eb8;" horiz-adv-x="1161" 
d="M981 1325h-684v-512h655v-106h-655v-596h684v-111h-795v1434h795v-109zM575 -125q35 0 58.5 -23.5t23.5 -58.5t-23.5 -58.5t-58.5 -23.5t-58 23.5t-23 58.5t23 58.5t58 23.5z" />
    <glyph glyph-name="uni1EB9" unicode="&#x1eb9;" horiz-adv-x="1222" 
d="M1094 563h-877q-2 -16 -2 -47q0 -116 32.5 -203.5t90 -139.5t130 -77.5t159.5 -25.5q154 0 250 87.5t114 223.5h96q-19 -185 -146.5 -294.5t-315.5 -109.5q-106 0 -199.5 34.5t-166.5 99.5t-115 168.5t-42 232.5q0 93 18.5 180.5t59 168t98.5 140.5t143.5 96t188.5 36
q215 0 349.5 -140t134.5 -389v-41zM610 1038q-85 0 -153 -30.5t-114 -85t-75 -121.5t-43 -148h754q-1 180 -103.5 282.5t-265.5 102.5zM606 -125q35 0 58.5 -23.5t23.5 -58.5t-23.5 -58.5t-58.5 -23.5t-58.5 23.5t-23.5 58.5t23.5 58.5t58.5 23.5z" />
    <glyph glyph-name="uni1EBA" unicode="&#x1eba;" horiz-adv-x="1161" 
d="M668 1700q0 90 -131 90q-51 0 -117 -16v55q62 18 127 18q105 0 159 -36t54 -103q0 -74 -61 -116t-162 -52v51q131 18 131 109zM981 1325h-684v-512h655v-106h-655v-596h684v-111h-795v1434h795v-109z" />
    <glyph glyph-name="uni1EBB" unicode="&#x1ebb;" horiz-adv-x="1222" 
d="M698 1376q0 90 -131 90q-50 0 -116 -16v55q65 19 127 19q104 0 158.5 -36.5t54.5 -103.5q0 -74 -61 -115.5t-163 -51.5v51q131 18 131 108zM1094 563h-877q-2 -16 -2 -47q0 -116 32.5 -203.5t90 -139.5t130 -77.5t159.5 -25.5q154 0 250 87.5t114 223.5h96
q-19 -185 -146.5 -294.5t-315.5 -109.5q-106 0 -199.5 34.5t-166.5 99.5t-115 168.5t-42 232.5q0 93 18.5 180.5t59 168t98.5 140.5t143.5 96t188.5 36q215 0 349.5 -140t134.5 -389v-41zM610 1038q-85 0 -153 -30.5t-114 -85t-75 -121.5t-43 -148h754q-1 180 -103.5 282.5
t-265.5 102.5z" />
    <glyph glyph-name="uni1EBC" unicode="&#x1ebc;" horiz-adv-x="1161" 
d="M360 1585h-71q-9 90 37 144.5t118 54.5q47 0 86 -21t62 -45.5t55.5 -45.5t67.5 -21q41 0 66 30.5t18 90.5h71q9 -92 -37 -145.5t-118 -53.5q-47 0 -85.5 21t-60.5 45.5t-54 45.5t-66 21q-41 0 -69 -31.5t-20 -89.5zM981 1325h-684v-512h655v-106h-655v-596h684v-111h-795
v1434h795v-109z" />
    <glyph glyph-name="uni1EBD" unicode="&#x1ebd;" horiz-adv-x="1222" 
d="M391 1262h-72q-9 90 37.5 144t118.5 54q47 0 86 -21t61.5 -45.5t55 -45.5t67.5 -21q41 0 66 30.5t18 90.5h72q9 -91 -37 -145t-119 -54q-47 0 -85.5 21t-60.5 45.5t-54 45.5t-66 21q-41 0 -68.5 -31t-19.5 -89zM1094 563h-877q-2 -16 -2 -47q0 -116 32.5 -203.5
t90 -139.5t130 -77.5t159.5 -25.5q154 0 250 87.5t114 223.5h96q-19 -185 -146.5 -294.5t-315.5 -109.5q-106 0 -199.5 34.5t-166.5 99.5t-115 168.5t-42 232.5q0 93 18.5 180.5t59 168t98.5 140.5t143.5 96t188.5 36q215 0 349.5 -140t134.5 -389v-41zM610 1038
q-85 0 -153 -30.5t-114 -85t-75 -121.5t-43 -148h754q-1 180 -103.5 282.5t-265.5 102.5z" />
    <glyph glyph-name="uni1EBE" unicode="&#x1ebe;" horiz-adv-x="1161" 
d="M758 2138l-262 -262h-95l232 262h125zM571 1749l-198 -197h-99l265 263h82l264 -263h-99l-198 197h-17zM981 1325h-684v-512h655v-106h-655v-596h684v-111h-795v1434h795v-109z" />
    <glyph glyph-name="uni1EBF" unicode="&#x1ebf;" horiz-adv-x="1222" 
d="M788 1815l-262 -263h-94l232 263h124zM602 1425l-199 -196h-98l264 262h82l264 -262h-98l-199 196h-16zM1094 563h-877q-2 -16 -2 -47q0 -116 32.5 -203.5t90 -139.5t130 -77.5t159.5 -25.5q154 0 250 87.5t114 223.5h96q-19 -185 -146.5 -294.5t-315.5 -109.5
q-106 0 -199.5 34.5t-166.5 99.5t-115 168.5t-42 232.5q0 93 18.5 180.5t59 168t98.5 140.5t143.5 96t188.5 36q215 0 349.5 -140t134.5 -389v-41zM610 1038q-85 0 -153 -30.5t-114 -85t-75 -121.5t-43 -148h754q-1 180 -103.5 282.5t-265.5 102.5z" />
    <glyph glyph-name="uni1EC0" unicode="&#x1ec0;" horiz-adv-x="1161" 
d="M758 1876h-94l-263 262h125zM571 1749l-198 -197h-99l265 263h82l264 -263h-99l-198 197h-17zM981 1325h-684v-512h655v-106h-655v-596h684v-111h-795v1434h795v-109z" />
    <glyph glyph-name="uni1EC1" unicode="&#x1ec1;" horiz-adv-x="1222" 
d="M788 1552h-94l-262 263h125zM602 1425l-199 -196h-98l264 262h82l264 -262h-98l-199 196h-16zM1094 563h-877q-2 -16 -2 -47q0 -116 32.5 -203.5t90 -139.5t130 -77.5t159.5 -25.5q154 0 250 87.5t114 223.5h96q-19 -185 -146.5 -294.5t-315.5 -109.5q-106 0 -199.5 34.5
t-166.5 99.5t-115 168.5t-42 232.5q0 93 18.5 180.5t59 168t98.5 140.5t143.5 96t188.5 36q215 0 349.5 -140t134.5 -389v-41zM610 1038q-85 0 -153 -30.5t-114 -85t-75 -121.5t-43 -148h754q-1 180 -103.5 282.5t-265.5 102.5z" />
    <glyph glyph-name="uni1EC2" unicode="&#x1ec2;" horiz-adv-x="1161" 
d="M539 1815q131 18 131 108t-131 90q-45 0 -117 -14v55q70 17 127 17q104 0 158.5 -36.5t54.5 -103.5q0 -99 -115 -143l238 -236h-99l-198 197h-17l-198 -197h-99zM981 1325h-684v-512h655v-106h-655v-596h684v-111h-795v1434h795v-109z" />
    <glyph glyph-name="uni1EC3" unicode="&#x1ec3;" horiz-adv-x="1222" 
d="M569 1491q131 18 131 108q0 46 -35 68.5t-96 22.5q-39 0 -116 -15v56q66 16 127 16q105 0 159 -36t54 -103q0 -100 -115 -144l237 -235h-98l-199 196h-16l-199 -196h-98zM1094 563h-877q-2 -16 -2 -47q0 -116 32.5 -203.5t90 -139.5t130 -77.5t159.5 -25.5
q154 0 250 87.5t114 223.5h96q-19 -185 -146.5 -294.5t-315.5 -109.5q-106 0 -199.5 34.5t-166.5 99.5t-115 168.5t-42 232.5q0 93 18.5 180.5t59 168t98.5 140.5t143.5 96t188.5 36q215 0 349.5 -140t134.5 -389v-41zM610 1038q-85 0 -153 -30.5t-114 -85t-75 -121.5
t-43 -148h754q-1 180 -103.5 282.5t-265.5 102.5z" />
    <glyph glyph-name="uni1EC4" unicode="&#x1ec4;" horiz-adv-x="1161" 
d="M360 1909h-71q-9 90 37 144t118 54q47 0 86 -21t62 -45.5t55.5 -45.5t67.5 -21q41 0 66.5 30.5t17.5 90.5h71q9 -92 -36 -145.5t-119 -53.5q-38 0 -70 14t-54 33.5t-42 39t-45.5 33.5t-54.5 14q-41 0 -69 -31.5t-20 -89.5zM571 1749l-198 -197h-99l265 263h82l264 -263
h-99l-198 197h-17zM981 1325h-684v-512h655v-106h-655v-596h684v-111h-795v1434h795v-109z" />
    <glyph glyph-name="uni1EC5" unicode="&#x1ec5;" horiz-adv-x="1222" 
d="M391 1585h-72q-9 90 37.5 144.5t118.5 54.5q47 0 86 -21t61.5 -45.5t55 -45.5t67.5 -21q41 0 66.5 30.5t17.5 90.5h72q9 -92 -36.5 -145.5t-119.5 -53.5q-47 0 -85.5 21t-60 45.5t-53.5 45.5t-67 21q-41 0 -68.5 -31.5t-19.5 -89.5zM602 1425l-199 -196h-98l264 262h82
l264 -262h-98l-199 196h-16zM1094 563h-877q-2 -16 -2 -47q0 -116 32.5 -203.5t90 -139.5t130 -77.5t159.5 -25.5q154 0 250 87.5t114 223.5h96q-19 -185 -146.5 -294.5t-315.5 -109.5q-106 0 -199.5 34.5t-166.5 99.5t-115 168.5t-42 232.5q0 93 18.5 180.5t59 168
t98.5 140.5t143.5 96t188.5 36q215 0 349.5 -140t134.5 -389v-41zM610 1038q-85 0 -153 -30.5t-114 -85t-75 -121.5t-43 -148h754q-1 180 -103.5 282.5t-265.5 102.5z" />
    <glyph glyph-name="uni1EC6" unicode="&#x1ec6;" horiz-adv-x="1161" 
d="M571 1749l-198 -197h-99l265 263h82l264 -263h-99l-198 197h-17zM981 1325h-684v-512h655v-106h-655v-596h684v-111h-795v1434h795v-109zM575 -125q35 0 58.5 -23.5t23.5 -58.5t-23.5 -58.5t-58.5 -23.5t-58 23.5t-23 58.5t23 58.5t58 23.5z" />
    <glyph glyph-name="uni1EC7" unicode="&#x1ec7;" horiz-adv-x="1222" 
d="M602 1425l-199 -196h-98l264 262h82l264 -262h-98l-199 196h-16zM1094 563h-877q-2 -16 -2 -47q0 -116 32.5 -203.5t90 -139.5t130 -77.5t159.5 -25.5q154 0 250 87.5t114 223.5h96q-19 -185 -146.5 -294.5t-315.5 -109.5q-106 0 -199.5 34.5t-166.5 99.5t-115 168.5
t-42 232.5q0 93 18.5 180.5t59 168t98.5 140.5t143.5 96t188.5 36q215 0 349.5 -140t134.5 -389v-41zM610 1038q-85 0 -153 -30.5t-114 -85t-75 -121.5t-43 -148h754q-1 180 -103.5 282.5t-265.5 102.5zM606 -125q35 0 58.5 -23.5t23.5 -58.5t-23.5 -58.5t-58.5 -23.5
t-58.5 23.5t-23.5 58.5t23.5 58.5t58.5 23.5z" />
    <glyph glyph-name="uni1EC8" unicode="&#x1ec8;" horiz-adv-x="503" 
d="M92 1829q62 18 127 18q105 0 159 -36t54 -103q0 -74 -61 -116t-162 -52v51q131 18 131 109q0 90 -131 90q-51 0 -117 -16v55zM197 1434h110v-1434h-110v1434z" />
    <glyph glyph-name="uni1EC9" unicode="&#x1ec9;" horiz-adv-x="444" 
d="M61 1505q65 19 127 19q104 0 158.5 -36.5t54.5 -103.5q0 -74 -61 -115.5t-162 -51.5v51q131 18 131 108t-131 90q-51 0 -117 -16v55zM168 1110h108v-1110h-108v1110z" />
    <glyph glyph-name="uni1ECA" unicode="&#x1eca;" horiz-adv-x="503" 
d="M197 1434h110v-1434h-110v1434zM248 -289q-35 0 -58.5 23.5t-23.5 58.5t23.5 58.5t58.5 23.5t58.5 -23.5t23.5 -58.5t-23.5 -58.5t-58.5 -23.5z" />
    <glyph glyph-name="uni1ECB" unicode="&#x1ecb;" horiz-adv-x="452" 
d="M150 1421q0 39 21 69t56 30q34 0 56 -30t22 -69t-22 -59.5t-56 -20.5t-55.5 20.5t-21.5 59.5zM172 1110h109v-1110h-109v1110zM223 -289q-35 0 -58.5 23.5t-23.5 58.5t23.5 58.5t58.5 23.5t58.5 -23.5t23.5 -58.5t-23.5 -58.5t-58.5 -23.5z" />
    <glyph glyph-name="uni1ECC" unicode="&#x1ecc;" horiz-adv-x="1447" 
d="M137 670q0 118 24.5 231.5t74 214.5t118 178t164 121.5t205.5 44.5t205.5 -44.5t164 -121.5t118 -178t74 -214.5t24.5 -231.5q0 -159 -46 -291t-125.5 -220t-186 -136t-228.5 -48t-228.5 48t-186 136t-125.5 220t-46 291zM254 674q0 -272 133 -432t336 -160
q204 0 337.5 160.5t133.5 431.5q0 128 -32 249.5t-90 219.5t-149 157.5t-200 59.5q-108 0 -198.5 -59.5t-148.5 -157.5t-90 -219.5t-32 -249.5zM719 -289q-35 0 -58.5 23.5t-23.5 58.5t23.5 58.5t58.5 23.5t58.5 -23.5t23.5 -58.5t-23.5 -58.5t-58.5 -23.5z" />
    <glyph glyph-name="uni1ECD" unicode="&#x1ecd;" horiz-adv-x="1241" 
d="M102 512q0 93 21 182.5t64 169t104 139.5t146 95t184 35q123 0 223.5 -53.5t163.5 -142t97 -198.5t34 -227q0 -253 -144.5 -394t-373.5 -141t-374 141t-145 394zM215 514q0 -216 110 -327t296 -111q185 0 295 111t110 327q0 102 -26 195t-75 167t-127.5 118t-176.5 44
t-177 -44t-128 -118t-75 -167t-26 -195zM616 -289q-35 0 -58 23.5t-23 58.5t23 58.5t58 23.5t58.5 -23.5t23.5 -58.5t-23.5 -58.5t-58.5 -23.5z" />
    <glyph glyph-name="uni1ECE" unicode="&#x1ece;" horiz-adv-x="1447" 
d="M563 1829q61 18 127 18q105 0 159 -36t54 -103q0 -74 -61 -116t-162 -52v51q131 18 131 109q0 90 -131 90q-51 0 -117 -16v55zM137 670q0 118 24.5 231.5t74 214.5t118 178t164 121.5t205.5 44.5t205.5 -44.5t164 -121.5t118 -178t74 -214.5t24.5 -231.5q0 -159 -46 -291
t-125.5 -220t-186 -136t-228.5 -48t-228.5 48t-186 136t-125.5 220t-46 291zM254 674q0 -272 133 -432t336 -160q204 0 337.5 160.5t133.5 431.5q0 128 -32 249.5t-90 219.5t-149 157.5t-200 59.5q-108 0 -198.5 -59.5t-148.5 -157.5t-90 -219.5t-32 -249.5z" />
    <glyph glyph-name="uni1ECF" unicode="&#x1ecf;" horiz-adv-x="1241" 
d="M461 1505q65 19 127 19q104 0 158.5 -36.5t54.5 -103.5q0 -74 -61 -115.5t-162 -51.5v51q131 18 131 108t-131 90q-51 0 -117 -16v55zM102 512q0 93 21 182.5t64 169t104 139.5t146 95t184 35q123 0 223.5 -53.5t163.5 -142t97 -198.5t34 -227q0 -253 -144.5 -394
t-373.5 -141t-374 141t-145 394zM215 514q0 -216 110 -327t296 -111q185 0 295 111t110 327q0 102 -26 195t-75 167t-127.5 118t-176.5 44t-177 -44t-128 -118t-75 -167t-26 -195z" />
    <glyph glyph-name="uni1ED0" unicode="&#x1ed0;" horiz-adv-x="1447" 
d="M776 2138h125l-262 -262h-94zM418 1552l264 263h82l264 -263h-98l-199 197h-16l-199 -197h-98zM137 670q0 118 24.5 231.5t74 214.5t118 178t164 121.5t205.5 44.5t205.5 -44.5t164 -121.5t118 -178t74 -214.5t24.5 -231.5q0 -159 -46 -291t-125.5 -220t-186 -136
t-228.5 -48t-228.5 48t-186 136t-125.5 220t-46 291zM254 674q0 -272 133 -432t336 -160q204 0 337.5 160.5t133.5 431.5q0 128 -32 249.5t-90 219.5t-149 157.5t-200 59.5q-108 0 -198.5 -59.5t-148.5 -157.5t-90 -219.5t-32 -249.5z" />
    <glyph glyph-name="uni1ED1" unicode="&#x1ed1;" horiz-adv-x="1241" 
d="M674 1815h125l-262 -263h-95zM315 1229l265 262h82l264 -262h-99l-198 196h-17l-198 -196h-99zM102 512q0 93 21 182.5t64 169t104 139.5t146 95t184 35q123 0 223.5 -53.5t163.5 -142t97 -198.5t34 -227q0 -253 -144.5 -394t-373.5 -141t-374 141t-145 394zM215 514
q0 -216 110 -327t296 -111q185 0 295 111t110 327q0 102 -26 195t-75 167t-127.5 118t-176.5 44t-177 -44t-128 -118t-75 -167t-26 -195z" />
    <glyph glyph-name="uni1ED2" unicode="&#x1ed2;" horiz-adv-x="1447" 
d="M670 2138l231 -262h-94l-262 262h125zM418 1552l264 263h82l264 -263h-98l-199 197h-16l-199 -197h-98zM137 670q0 118 24.5 231.5t74 214.5t118 178t164 121.5t205.5 44.5t205.5 -44.5t164 -121.5t118 -178t74 -214.5t24.5 -231.5q0 -159 -46 -291t-125.5 -220
t-186 -136t-228.5 -48t-228.5 48t-186 136t-125.5 220t-46 291zM254 674q0 -272 133 -432t336 -160q204 0 337.5 160.5t133.5 431.5q0 128 -32 249.5t-90 219.5t-149 157.5t-200 59.5q-108 0 -198.5 -59.5t-148.5 -157.5t-90 -219.5t-32 -249.5z" />
    <glyph glyph-name="uni1ED3" unicode="&#x1ed3;" horiz-adv-x="1241" 
d="M567 1815l232 -263h-94l-263 263h125zM315 1229l265 262h82l264 -262h-99l-198 196h-17l-198 -196h-99zM102 512q0 93 21 182.5t64 169t104 139.5t146 95t184 35q123 0 223.5 -53.5t163.5 -142t97 -198.5t34 -227q0 -253 -144.5 -394t-373.5 -141t-374 141t-145 394z
M215 514q0 -216 110 -327t296 -111q185 0 295 111t110 327q0 102 -26 195t-75 167t-127.5 118t-176.5 44t-177 -44t-128 -118t-75 -167t-26 -195z" />
    <glyph glyph-name="uni1ED4" unicode="&#x1ed4;" horiz-adv-x="1447" 
d="M682 1815q131 18 131 108t-131 90q-45 0 -117 -14v55q70 17 127 17q104 0 158.5 -36.5t54.5 -103.5q0 -99 -114 -143l237 -236h-98l-199 197h-16l-199 -197h-98zM723 1460q110 0 205.5 -44.5t164 -121.5t118 -178t74 -214.5t24.5 -231.5q0 -159 -46 -291t-125.5 -220
t-186 -136t-228.5 -48t-228.5 48t-186 136t-125.5 220t-46 291q0 118 24.5 231.5t74 214.5t118 178t164 121.5t205.5 44.5zM723 82q204 0 337.5 160.5t133.5 431.5q0 128 -32 249.5t-90 219.5t-149 157.5t-200 59.5q-108 0 -198.5 -59.5t-148.5 -157.5t-90 -219.5
t-32 -249.5q0 -272 133 -432t336 -160z" />
    <glyph glyph-name="uni1ED5" unicode="&#x1ed5;" horiz-adv-x="1241" 
d="M580 1491q131 18 131 108q0 46 -35 68.5t-96 22.5q-40 0 -117 -15v56q66 16 127 16q105 0 159 -36t54 -103q0 -100 -115 -144l238 -235h-99l-198 196h-17l-198 -196h-99zM621 1133q123 0 223.5 -53.5t163.5 -142t97 -198.5t34 -227q0 -253 -144.5 -394t-373.5 -141
t-374 141t-145 394q0 93 21 182.5t64 169t104 139.5t146 95t184 35zM621 76q185 0 295 111t110 327q0 102 -26 195t-75 167t-127.5 118t-176.5 44t-177 -44t-128 -118t-75 -167t-26 -195q0 -216 110 -327t296 -111z" />
    <glyph glyph-name="uni1ED6" unicode="&#x1ed6;" horiz-adv-x="1447" 
d="M1014 2095q9 -92 -36.5 -145.5t-119.5 -53.5q-38 0 -70 14t-54 33.5t-42 39t-45.5 33.5t-54.5 14q-41 0 -68.5 -31.5t-19.5 -89.5h-72q-9 90 37.5 144t118.5 54q47 0 86 -21t61.5 -45.5t55 -45.5t67.5 -21q41 0 66.5 30.5t17.5 90.5h72zM418 1552l264 263h82l264 -263
h-98l-199 197h-16l-199 -197h-98zM137 670q0 118 24.5 231.5t74 214.5t118 178t164 121.5t205.5 44.5t205.5 -44.5t164 -121.5t118 -178t74 -214.5t24.5 -231.5q0 -159 -46 -291t-125.5 -220t-186 -136t-228.5 -48t-228.5 48t-186 136t-125.5 220t-46 291zM254 674
q0 -272 133 -432t336 -160q204 0 337.5 160.5t133.5 431.5q0 128 -32 249.5t-90 219.5t-149 157.5t-200 59.5q-108 0 -198.5 -59.5t-148.5 -157.5t-90 -219.5t-32 -249.5z" />
    <glyph glyph-name="uni1ED7" unicode="&#x1ed7;" horiz-adv-x="1241" 
d="M911 1772q9 -92 -36 -145.5t-119 -53.5q-47 0 -85.5 21t-60.5 45.5t-54 45.5t-67 21q-41 0 -68.5 -31.5t-19.5 -89.5h-71q-9 90 37 144.5t118 54.5q47 0 86 -21t62 -45.5t55.5 -45.5t67.5 -21q41 0 66.5 30.5t17.5 90.5h71zM315 1229l265 262h82l264 -262h-99l-198 196
h-17l-198 -196h-99zM102 512q0 93 21 182.5t64 169t104 139.5t146 95t184 35q123 0 223.5 -53.5t163.5 -142t97 -198.5t34 -227q0 -253 -144.5 -394t-373.5 -141t-374 141t-145 394zM215 514q0 -216 110 -327t296 -111q185 0 295 111t110 327q0 102 -26 195t-75 167
t-127.5 118t-176.5 44t-177 -44t-128 -118t-75 -167t-26 -195z" />
    <glyph glyph-name="uni1ED8" unicode="&#x1ed8;" horiz-adv-x="1447" 
d="M418 1552l264 263h82l264 -263h-98l-199 197h-16l-199 -197h-98zM137 670q0 118 24.5 231.5t74 214.5t118 178t164 121.5t205.5 44.5t205.5 -44.5t164 -121.5t118 -178t74 -214.5t24.5 -231.5q0 -159 -46 -291t-125.5 -220t-186 -136t-228.5 -48t-228.5 48t-186 136
t-125.5 220t-46 291zM254 674q0 -272 133 -432t336 -160q204 0 337.5 160.5t133.5 431.5q0 128 -32 249.5t-90 219.5t-149 157.5t-200 59.5q-108 0 -198.5 -59.5t-148.5 -157.5t-90 -219.5t-32 -249.5zM719 -289q-35 0 -58.5 23.5t-23.5 58.5t23.5 58.5t58.5 23.5
t58.5 -23.5t23.5 -58.5t-23.5 -58.5t-58.5 -23.5z" />
    <glyph glyph-name="uni1ED9" unicode="&#x1ed9;" horiz-adv-x="1241" 
d="M315 1229l265 262h82l264 -262h-99l-198 196h-17l-198 -196h-99zM102 512q0 93 21 182.5t64 169t104 139.5t146 95t184 35q123 0 223.5 -53.5t163.5 -142t97 -198.5t34 -227q0 -253 -144.5 -394t-373.5 -141t-374 141t-145 394zM215 514q0 -216 110 -327t296 -111
q185 0 295 111t110 327q0 102 -26 195t-75 167t-127.5 118t-176.5 44t-177 -44t-128 -118t-75 -167t-26 -195zM616 -289q-35 0 -58 23.5t-23 58.5t23 58.5t58 23.5t58.5 -23.5t23.5 -58.5t-23.5 -58.5t-58.5 -23.5z" />
    <glyph glyph-name="uni1EDA" unicode="&#x1eda;" horiz-adv-x="1447" 
d="M901 1815l-262 -263h-94l231 263h125zM1309 1466q0 -86 -45.5 -126t-124.5 -40q-29 0 -56 3q108 -112 167 -281t59 -352q0 -159 -46 -291t-125.5 -220t-186 -136t-228.5 -48t-228.5 48t-186 136t-125.5 220t-46 291q0 118 24.5 231.5t74 214.5t118 178t164 121.5
t205.5 44.5q103 0 195 -39q72 -30 105 -38.5t79 -8.5q52 0 78 23.5t26 79.5v161h103v-172zM723 82q204 0 337.5 160.5t133.5 431.5q0 128 -32 249.5t-90 219.5t-149 157.5t-200 59.5q-108 0 -198.5 -59.5t-148.5 -157.5t-90 -219.5t-32 -249.5q0 -272 133 -432t336 -160z
" />
    <glyph glyph-name="uni1EDB" unicode="&#x1edb;" horiz-adv-x="1241" 
d="M799 1491l-262 -262h-95l232 262h125zM1149 1159q0 -178 -168 -178h-10q81 -87 124.5 -211t43.5 -258q0 -253 -144.5 -394t-373.5 -141t-374 141t-145 394q0 93 21 182.5t64 169t104 139.5t146 95t184 35q116 0 210 -48q76 -28 130 -28q86 0 86 82v168h102v-148zM621 76
q185 0 295 111t110 327q0 102 -26 195t-75 167t-127.5 118t-176.5 44t-177 -44t-128 -118t-75 -167t-26 -195q0 -216 110 -327t296 -111z" />
    <glyph glyph-name="uni1EDC" unicode="&#x1edc;" horiz-adv-x="1447" 
d="M901 1552h-94l-262 263h125zM1309 1466q0 -86 -45.5 -126t-124.5 -40q-29 0 -56 3q108 -112 167 -281t59 -352q0 -159 -46 -291t-125.5 -220t-186 -136t-228.5 -48t-228.5 48t-186 136t-125.5 220t-46 291q0 118 24.5 231.5t74 214.5t118 178t164 121.5t205.5 44.5
q103 0 195 -39q72 -30 105 -38.5t79 -8.5q52 0 78 23.5t26 79.5v161h103v-172zM723 82q204 0 337.5 160.5t133.5 431.5q0 128 -32 249.5t-90 219.5t-149 157.5t-200 59.5q-108 0 -198.5 -59.5t-148.5 -157.5t-90 -219.5t-32 -249.5q0 -272 133 -432t336 -160z" />
    <glyph glyph-name="uni1EDD" unicode="&#x1edd;" horiz-adv-x="1241" 
d="M799 1229h-94l-263 262h125zM1149 1159q0 -178 -168 -178h-10q81 -87 124.5 -211t43.5 -258q0 -253 -144.5 -394t-373.5 -141t-374 141t-145 394q0 93 21 182.5t64 169t104 139.5t146 95t184 35q116 0 210 -48q76 -28 130 -28q86 0 86 82v168h102v-148zM621 76
q185 0 295 111t110 327q0 102 -26 195t-75 167t-127.5 118t-176.5 44t-177 -44t-128 -118t-75 -167t-26 -195q0 -216 110 -327t296 -111z" />
    <glyph glyph-name="uni1EDE" unicode="&#x1ede;" horiz-adv-x="1447" 
d="M811 1700q0 90 -131 90q-51 0 -117 -16v55q61 18 127 18q105 0 159 -36t54 -103q0 -74 -61 -116t-162 -52v51q131 18 131 109zM1309 1466q0 -86 -45.5 -126t-124.5 -40q-29 0 -56 3q108 -112 167 -281t59 -352q0 -159 -46 -291t-125.5 -220t-186 -136t-228.5 -48
t-228.5 48t-186 136t-125.5 220t-46 291q0 118 24.5 231.5t74 214.5t118 178t164 121.5t205.5 44.5q103 0 195 -39q72 -30 105 -38.5t79 -8.5q52 0 78 23.5t26 79.5v161h103v-172zM723 82q204 0 337.5 160.5t133.5 431.5q0 128 -32 249.5t-90 219.5t-149 157.5t-200 59.5
q-108 0 -198.5 -59.5t-148.5 -157.5t-90 -219.5t-32 -249.5q0 -272 133 -432t336 -160z" />
    <glyph glyph-name="uni1EDF" unicode="&#x1edf;" horiz-adv-x="1241" 
d="M709 1376q0 90 -131 90q-51 0 -117 -16v55q65 19 127 19q104 0 158.5 -36.5t54.5 -103.5q0 -74 -61 -115.5t-162 -51.5v51q131 18 131 108zM1149 1159q0 -178 -168 -178h-10q81 -87 124.5 -211t43.5 -258q0 -253 -144.5 -394t-373.5 -141t-374 141t-145 394
q0 93 21 182.5t64 169t104 139.5t146 95t184 35q116 0 210 -48q76 -28 130 -28q86 0 86 82v168h102v-148zM621 76q185 0 295 111t110 327q0 102 -26 195t-75 167t-127.5 118t-176.5 44t-177 -44t-128 -118t-75 -167t-26 -195q0 -216 110 -327t296 -111z" />
    <glyph glyph-name="uni1EE0" unicode="&#x1ee0;" horiz-adv-x="1447" 
d="M504 1585h-72q-9 90 37.5 144.5t118.5 54.5q47 0 86 -21t61.5 -45.5t55 -45.5t67.5 -21q41 0 66 30.5t18 90.5h72q9 -91 -37 -145t-119 -54q-47 0 -85.5 21t-60.5 45.5t-54 45.5t-66 21q-41 0 -68.5 -31.5t-19.5 -89.5zM1309 1466q0 -86 -45.5 -126t-124.5 -40
q-29 0 -56 3q108 -112 167 -281t59 -352q0 -159 -46 -291t-125.5 -220t-186 -136t-228.5 -48t-228.5 48t-186 136t-125.5 220t-46 291q0 118 24.5 231.5t74 214.5t118 178t164 121.5t205.5 44.5q103 0 195 -39q72 -30 105 -38.5t79 -8.5q52 0 78 23.5t26 79.5v161h103v-172z
M723 82q204 0 337.5 160.5t133.5 431.5q0 128 -32 249.5t-90 219.5t-149 157.5t-200 59.5q-108 0 -198.5 -59.5t-148.5 -157.5t-90 -219.5t-32 -249.5q0 -272 133 -432t336 -160z" />
    <glyph glyph-name="uni1EE1" unicode="&#x1ee1;" horiz-adv-x="1241" 
d="M401 1262h-71q-9 90 37 144t118 54q47 0 86 -21t62 -45.5t55.5 -45.5t67.5 -21q41 0 66 30.5t18 90.5h71q9 -92 -37 -145.5t-118 -53.5q-38 0 -70.5 13.5t-54.5 33t-42.5 39.5t-46 33.5t-53.5 13.5q-41 0 -68.5 -31t-19.5 -89zM1149 1159q0 -178 -168 -178h-10
q81 -87 124.5 -211t43.5 -258q0 -253 -144.5 -394t-373.5 -141t-374 141t-145 394q0 93 21 182.5t64 169t104 139.5t146 95t184 35q116 0 210 -48q76 -28 130 -28q86 0 86 82v168h102v-148zM621 76q185 0 295 111t110 327q0 102 -26 195t-75 167t-127.5 118t-176.5 44
t-177 -44t-128 -118t-75 -167t-26 -195q0 -216 110 -327t296 -111z" />
    <glyph glyph-name="uni1EE2" unicode="&#x1ee2;" horiz-adv-x="1447" 
d="M1309 1466q0 -86 -45.5 -126t-124.5 -40q-29 0 -56 3q108 -112 167 -281t59 -352q0 -159 -46 -291t-125.5 -220t-186 -136t-228.5 -48t-228.5 48t-186 136t-125.5 220t-46 291q0 118 24.5 231.5t74 214.5t118 178t164 121.5t205.5 44.5q103 0 195 -39q72 -30 105 -38.5
t79 -8.5q52 0 78 23.5t26 79.5v161h103v-172zM723 82q204 0 337.5 160.5t133.5 431.5q0 128 -32 249.5t-90 219.5t-149 157.5t-200 59.5q-108 0 -198.5 -59.5t-148.5 -157.5t-90 -219.5t-32 -249.5q0 -272 133 -432t336 -160zM719 -125q35 0 58.5 -23.5t23.5 -58.5
t-23.5 -58.5t-58.5 -23.5t-58.5 23.5t-23.5 58.5t23.5 58.5t58.5 23.5z" />
    <glyph glyph-name="uni1EE3" unicode="&#x1ee3;" horiz-adv-x="1241" 
d="M1149 1159q0 -178 -168 -178h-10q81 -87 124.5 -211t43.5 -258q0 -253 -144.5 -394t-373.5 -141t-374 141t-145 394q0 93 21 182.5t64 169t104 139.5t146 95t184 35q116 0 210 -48q76 -28 130 -28q86 0 86 82v168h102v-148zM621 76q185 0 295 111t110 327q0 102 -26 195
t-75 167t-127.5 118t-176.5 44t-177 -44t-128 -118t-75 -167t-26 -195q0 -216 110 -327t296 -111zM616 -125q35 0 58.5 -23.5t23.5 -58.5t-23.5 -58.5t-58.5 -23.5t-58 23.5t-23 58.5t23 58.5t58 23.5z" />
    <glyph glyph-name="uni1EE4" unicode="&#x1ee4;" horiz-adv-x="1447" 
d="M1266 1434v-916q0 -143 -41.5 -250t-116 -169.5t-170.5 -93t-213 -30.5t-213 30.5t-171.5 93t-117 169.5t-41.5 250v916h111v-912q0 -120 32.5 -207.5t92.5 -137t136 -72.5t171 -23q76 0 139 14t117.5 46t92.5 82t59.5 125.5t21.5 172.5v912h111zM721 -289
q-35 0 -58.5 23.5t-23.5 58.5t23.5 58.5t58.5 23.5t58.5 -23.5t23.5 -58.5t-23.5 -58.5t-58.5 -23.5z" />
    <glyph glyph-name="uni1EE5" unicode="&#x1ee5;" 
d="M952 1110h109v-1110h-90l-17 152q-72 -87 -175 -131t-212 -44q-91 0 -162.5 23.5t-117 63t-75.5 95t-42 114.5t-12 126v711h108v-678q0 -362 324 -362q100 0 201 44t161 130v866zM612 -125q35 0 58.5 -23.5t23.5 -58.5t-23.5 -58.5t-58.5 -23.5t-58.5 23.5t-23.5 58.5
t23.5 58.5t58.5 23.5z" />
    <glyph glyph-name="uni1EE6" unicode="&#x1ee6;" horiz-adv-x="1447" 
d="M565 1829q61 18 127 18q105 0 159 -36t54 -103q0 -74 -61 -116t-162 -52v51q131 18 131 109q0 90 -131 90q-51 0 -117 -16v55zM1266 1434v-916q0 -143 -41.5 -250t-116 -169.5t-170.5 -93t-213 -30.5t-213 30.5t-171.5 93t-117 169.5t-41.5 250v916h111v-912
q0 -120 32.5 -207.5t92.5 -137t136 -72.5t171 -23q76 0 139 14t117.5 46t92.5 82t59.5 125.5t21.5 172.5v912h111z" />
    <glyph glyph-name="uni1EE7" unicode="&#x1ee7;" 
d="M705 1376q0 46 -35.5 68t-96.5 22q-50 0 -116 -16v55q65 19 127 19q104 0 158.5 -36.5t54.5 -103.5q0 -74 -61 -115.5t-163 -51.5v51q132 18 132 108zM952 1110h109v-1110h-90l-17 152q-72 -87 -175 -131t-212 -44q-91 0 -162.5 23.5t-117 63t-75.5 95t-42 114.5t-12 126
v711h108v-678q0 -362 324 -362q100 0 201 44t161 130v866z" />
    <glyph glyph-name="uni1EE8" unicode="&#x1ee8;" horiz-adv-x="1581" 
d="M903 1815l-262 -263h-94l231 263h125zM1450 1638h102v-155q0 -96 -45.5 -142.5t-113.5 -46.5q-70 0 -127 43v-819q0 -143 -41.5 -250t-116 -169.5t-170.5 -93t-213 -30.5t-213 30.5t-171.5 93t-117 169.5t-41.5 250v916h111v-912q0 -120 32.5 -207.5t92.5 -137t136 -72.5
t171 -23q76 0 139 14t117.5 46t92.5 82t59.5 125.5t21.5 172.5v912h111q58 -58 110 -58q74 0 74 86v176z" />
    <glyph glyph-name="uni1EE9" unicode="&#x1ee9;" horiz-adv-x="1409" 
d="M795 1491l-263 -262h-94l232 262h125zM1245 1315h103v-156q0 -96 -46 -142t-114 -46q-70 0 -127 43v-1014h-90l-17 152q-72 -87 -175 -131t-212 -44q-91 0 -162.5 23.5t-117 63t-75.5 95t-42 114.5t-12 126v711h108v-678q0 -362 324 -362q100 0 201 44t161 130v866h109
q57 -57 110 -57q74 0 74 86v176z" />
    <glyph glyph-name="uni1EEA" unicode="&#x1eea;" horiz-adv-x="1581" 
d="M903 1552h-94l-262 263h125zM1450 1638h102v-155q0 -96 -45.5 -142.5t-113.5 -46.5q-70 0 -127 43v-819q0 -143 -41.5 -250t-116 -169.5t-170.5 -93t-213 -30.5t-213 30.5t-171.5 93t-117 169.5t-41.5 250v916h111v-912q0 -120 32.5 -207.5t92.5 -137t136 -72.5t171 -23
q76 0 139 14t117.5 46t92.5 82t59.5 125.5t21.5 172.5v912h111q58 -58 110 -58q74 0 74 86v176z" />
    <glyph glyph-name="uni1EEB" unicode="&#x1eeb;" horiz-adv-x="1409" 
d="M795 1229h-95l-262 262h125zM1245 1315h103v-156q0 -96 -46 -142t-114 -46q-70 0 -127 43v-1014h-90l-17 152q-72 -87 -175 -131t-212 -44q-91 0 -162.5 23.5t-117 63t-75.5 95t-42 114.5t-12 126v711h108v-678q0 -362 324 -362q100 0 201 44t161 130v866h109
q57 -57 110 -57q74 0 74 86v176z" />
    <glyph glyph-name="uni1EEC" unicode="&#x1eec;" horiz-adv-x="1581" 
d="M813 1700q0 90 -131 90q-51 0 -117 -16v55q61 18 127 18q105 0 159 -36t54 -103q0 -74 -61 -116t-162 -52v51q131 18 131 109zM1450 1638h102v-155q0 -96 -45.5 -142.5t-113.5 -46.5q-70 0 -127 43v-819q0 -143 -41.5 -250t-116 -169.5t-170.5 -93t-213 -30.5t-213 30.5
t-171.5 93t-117 169.5t-41.5 250v916h111v-912q0 -120 32.5 -207.5t92.5 -137t136 -72.5t171 -23q76 0 139 14t117.5 46t92.5 82t59.5 125.5t21.5 172.5v912h111q58 -58 110 -58q74 0 74 86v176z" />
    <glyph glyph-name="uni1EED" unicode="&#x1eed;" horiz-adv-x="1409" 
d="M705 1376q0 46 -35.5 68t-96.5 22q-50 0 -116 -16v55q65 19 127 19q104 0 158.5 -36.5t54.5 -103.5q0 -74 -61 -115.5t-163 -51.5v51q132 18 132 108zM1245 1315h103v-156q0 -96 -46 -142t-114 -46q-70 0 -127 43v-1014h-90l-17 152q-72 -87 -175 -131t-212 -44
q-91 0 -162.5 23.5t-117 63t-75.5 95t-42 114.5t-12 126v711h108v-678q0 -362 324 -362q100 0 201 44t161 130v866h109q57 -57 110 -57q74 0 74 86v176z" />
    <glyph glyph-name="uni1EEE" unicode="&#x1eee;" horiz-adv-x="1581" 
d="M506 1585h-72q-9 90 37.5 144.5t118.5 54.5q47 0 86 -21t61.5 -45.5t55 -45.5t67.5 -21q41 0 66 30.5t18 90.5h72q9 -91 -37 -145t-119 -54q-47 0 -85.5 21t-60.5 45.5t-54 45.5t-66 21q-41 0 -68.5 -31.5t-19.5 -89.5zM1450 1638h102v-155q0 -96 -45.5 -142.5
t-113.5 -46.5q-70 0 -127 43v-819q0 -143 -41.5 -250t-116 -169.5t-170.5 -93t-213 -30.5t-213 30.5t-171.5 93t-117 169.5t-41.5 250v916h111v-912q0 -120 32.5 -207.5t92.5 -137t136 -72.5t171 -23q76 0 139 14t117.5 46t92.5 82t59.5 125.5t21.5 172.5v912h111
q58 -58 110 -58q74 0 74 86v176z" />
    <glyph glyph-name="uni1EEF" unicode="&#x1eef;" horiz-adv-x="1409" 
d="M397 1262h-71q-9 90 37 144t118 54q47 0 86 -21t62 -45.5t55.5 -45.5t67.5 -21q41 0 66 30.5t18 90.5h71q9 -92 -37 -145.5t-118 -53.5q-38 0 -70.5 13.5t-54.5 33t-42.5 39.5t-46 33.5t-53.5 13.5q-41 0 -68.5 -31t-19.5 -89zM1245 1315h103v-156q0 -96 -46 -142
t-114 -46q-70 0 -127 43v-1014h-90l-17 152q-72 -87 -175 -131t-212 -44q-91 0 -162.5 23.5t-117 63t-75.5 95t-42 114.5t-12 126v711h108v-678q0 -362 324 -362q100 0 201 44t161 130v866h109q57 -57 110 -57q74 0 74 86v176z" />
    <glyph glyph-name="uni1EF0" unicode="&#x1ef0;" horiz-adv-x="1581" 
d="M1450 1638h102v-155q0 -96 -45.5 -142.5t-113.5 -46.5q-70 0 -127 43v-819q0 -143 -41.5 -250t-116 -169.5t-170.5 -93t-213 -30.5t-213 30.5t-171.5 93t-117 169.5t-41.5 250v916h111v-912q0 -120 32.5 -207.5t92.5 -137t136 -72.5t171 -23q76 0 139 14t117.5 46
t92.5 82t59.5 125.5t21.5 172.5v912h111q58 -58 110 -58q74 0 74 86v176zM721 -125q35 0 58.5 -23.5t23.5 -58.5t-23.5 -58.5t-58.5 -23.5t-58.5 23.5t-23.5 58.5t23.5 58.5t58.5 23.5z" />
    <glyph glyph-name="uni1EF1" unicode="&#x1ef1;" horiz-adv-x="1409" 
d="M1245 1315h103v-156q0 -96 -46 -142t-114 -46q-70 0 -127 43v-1014h-90l-17 152q-72 -87 -175 -131t-212 -44q-91 0 -162.5 23.5t-117 63t-75.5 95t-42 114.5t-12 126v711h108v-678q0 -362 324 -362q100 0 201 44t161 130v866h109q57 -57 110 -57q74 0 74 86v176z
M612 -125q35 0 58.5 -23.5t23.5 -58.5t-23.5 -58.5t-58.5 -23.5t-58.5 23.5t-23.5 58.5t23.5 58.5t58.5 23.5z" />
    <glyph glyph-name="Ygrave" unicode="&#x1ef2;" horiz-adv-x="1247" 
d="M801 1552h-94l-263 263h125zM1071 1434h119l-512 -775v-659h-111v659l-512 775h131l435 -664h12z" />
    <glyph glyph-name="ygrave" unicode="&#x1ef3;" horiz-adv-x="1132" 
d="M745 1229h-94l-262 262h125zM956 1110h115l-467 -1200q-48 -128 -131 -206.5t-176 -78.5q-90 0 -178 43l18 76q68 -27 142 -27q69 0 129.5 64.5t105.5 181.5l29 60l-482 1087h117l414 -956h8z" />
    <glyph glyph-name="uni1EF4" unicode="&#x1ef4;" horiz-adv-x="1247" 
d="M567 0v659l-512 775h131l435 -664h12l438 664h119l-512 -775v-659h-111zM618 -125q35 0 58.5 -23.5t23.5 -58.5t-23.5 -58.5t-58.5 -23.5t-58 23.5t-23 58.5t23 58.5t58 23.5z" />
    <glyph glyph-name="uni1EF5" unicode="&#x1ef5;" horiz-adv-x="1132" 
d="M956 1110h115l-467 -1200q-48 -128 -131 -206.5t-176 -78.5q-90 0 -178 43l18 76q68 -27 142 -27q69 0 129.5 64.5t105.5 181.5l29 60l-482 1087h117l414 -956h8zM772 -125q35 0 58.5 -23.5t23.5 -58.5t-23.5 -58.5t-58.5 -23.5t-58.5 23.5t-23.5 58.5t23.5 58.5
t58.5 23.5z" />
    <glyph glyph-name="uni1EF6" unicode="&#x1ef6;" horiz-adv-x="1247" 
d="M711 1700q0 90 -131 90q-51 0 -117 -16v55q61 18 127 18q105 0 159 -36t54 -103q0 -74 -61 -116t-162 -52v51q131 18 131 109zM1071 1434h119l-512 -775v-659h-111v659l-512 775h131l435 -664h12z" />
    <glyph glyph-name="uni1EF7" unicode="&#x1ef7;" horiz-adv-x="1132" 
d="M655 1376q0 90 -131 90q-50 0 -116 -16v55q65 19 127 19q104 0 158.5 -36.5t54.5 -103.5q0 -74 -61 -115.5t-163 -51.5v51q131 18 131 108zM956 1110h115l-467 -1200q-48 -128 -131 -206.5t-176 -78.5q-90 0 -178 43l18 76q68 -27 142 -27q69 0 129.5 64.5t105.5 181.5
l29 60l-482 1087h117l414 -956h8z" />
    <glyph glyph-name="uni1EF8" unicode="&#x1ef8;" horiz-adv-x="1247" 
d="M403 1585h-71q-9 90 37 144.5t118 54.5q47 0 86 -21t62 -45.5t55.5 -45.5t67.5 -21q41 0 66 30.5t18 90.5h71q9 -92 -37 -145.5t-118 -53.5q-47 0 -85.5 21t-60.5 45.5t-54 45.5t-66 21q-41 0 -69 -31.5t-20 -89.5zM1071 1434h119l-512 -775v-659h-111v659l-512 775h131
l435 -664h12z" />
    <glyph glyph-name="uni1EF9" unicode="&#x1ef9;" horiz-adv-x="1132" 
d="M348 1262h-72q-9 90 37.5 144t118.5 54q47 0 86 -21t61.5 -45.5t55 -45.5t67.5 -21q41 0 66 30.5t18 90.5h72q9 -91 -37 -145t-119 -54q-47 0 -85.5 21t-60.5 45.5t-54 45.5t-66 21q-41 0 -68.5 -31t-19.5 -89zM956 1110h115l-467 -1200q-48 -128 -131 -206.5t-176 -78.5
q-90 0 -178 43l18 76q68 -27 142 -27q69 0 129.5 64.5t105.5 181.5l29 60l-482 1087h117l414 -956h8z" />
    <glyph glyph-name="endash" unicode="&#x2013;" horiz-adv-x="1214" 
d="M156 614h903v-86h-903v86z" />
    <glyph glyph-name="emdash" unicode="&#x2014;" horiz-adv-x="1916" 
d="M156 614h1605v-86h-1605v86z" />
    <glyph glyph-name="quoteleft" unicode="&#x2018;" horiz-adv-x="544" 
d="M268 1081q-46 0 -70 42t-24 114q0 57 10.5 105.5t34 91t66.5 69.5t102 33v-61q-65 -10 -97 -54t-32 -112q44 -8 71 -38.5t27 -76.5t-23 -79.5t-65 -33.5z" />
    <glyph glyph-name="quoteright" unicode="&#x2019;" horiz-adv-x="544" 
d="M279 1528q45 0 68.5 -41.5t23.5 -112.5q0 -58 -10.5 -106.5t-34 -91.5t-66.5 -69.5t-102 -31.5v60q131 23 131 165q-45 8 -72 38.5t-27 78.5q0 45 23 78t66 33z" />
    <glyph glyph-name="quotesinglbase" unicode="&#x201a;" horiz-adv-x="659" 
d="M342 213q46 0 70 -42t24 -114q0 -57 -10.5 -105.5t-34 -91t-66.5 -69.5t-102 -33v62q65 10 97 54t32 112q-44 8 -71 38t-27 76q0 47 22.5 80t65.5 33z" />
    <glyph glyph-name="quotedblleft" unicode="&#x201c;" horiz-adv-x="921" 
d="M268 1081q-46 0 -70 42t-24 114q0 57 10.5 105.5t34 91t66.5 69.5t102 33v-61q-65 -10 -97 -54t-32 -112q44 -8 71 -38.5t27 -76.5t-23 -79.5t-65 -33.5zM643 1081q-46 0 -70 42t-24 114q0 57 11 105.5t34.5 91t66.5 69.5t101 33v-61q-65 -10 -97 -54t-32 -112
q45 -8 71.5 -38t26.5 -77t-22.5 -80t-65.5 -33z" />
    <glyph glyph-name="quotedblright" unicode="&#x201d;" horiz-adv-x="921" 
d="M279 1528q45 0 68.5 -41.5t23.5 -112.5q0 -58 -10.5 -106.5t-34 -91.5t-66.5 -69.5t-102 -31.5v60q131 23 131 165q-45 8 -72 38.5t-27 78.5q0 45 23 78t66 33zM653 1528q46 0 70.5 -41.5t24.5 -112.5q0 -58 -10.5 -106.5t-34 -91.5t-66.5 -69.5t-102 -31.5v60
q129 23 129 165q-44 8 -71.5 38.5t-27.5 78.5q0 45 23 78t65 33z" />
    <glyph glyph-name="quotedblbase" unicode="&#x201e;" horiz-adv-x="1007" 
d="M342 211q46 0 70 -41t24 -113q0 -57 -10.5 -105.5t-34 -91.5t-66.5 -70t-102 -32v60q129 23 129 166q-44 8 -71 39t-27 77q0 45 22.5 78t65.5 33zM719 211q45 0 68.5 -41t23.5 -113q0 -57 -10.5 -105.5t-34 -91.5t-66.5 -70t-102 -32v60q131 23 131 166q-45 8 -71.5 38.5
t-26.5 77.5q0 45 22.5 78t65.5 33z" />
    <glyph glyph-name="dagger" unicode="&#x2020;" horiz-adv-x="720" 
d="M586 1348v-74h-183v-490h-86v490h-182v74h182v202h86v-202h183z" />
    <glyph glyph-name="daggerdbl" unicode="&#x2021;" horiz-adv-x="720" 
d="M586 1280h-183v-225h183v-76h-183v-195h-86v195h-182v76h182v225h-182v76h182v194h86v-194h183v-76z" />
    <glyph glyph-name="bullet" unicode="&#x2022;" horiz-adv-x="657" 
d="M154 680q0 81 48 142t128 61q78 0 126 -61.5t48 -141.5q0 -86 -48.5 -133t-125.5 -47t-126.5 47t-49.5 133z" />
    <glyph glyph-name="ellipsis" unicode="&#x2026;" horiz-adv-x="1884" 
d="M223 84q0 45 24 78t66 33t67.5 -33.5t25.5 -77.5q0 -46 -25 -73t-68 -27q-40 0 -65 27.5t-25 72.5zM850 84q0 44 25 77.5t67 33.5t66 -33t24 -78q0 -46 -24.5 -73t-65.5 -27q-40 0 -66 27.5t-26 72.5zM1479 84q0 45 24 78t66 33t67 -33.5t25 -77.5q0 -46 -24.5 -73
t-67.5 -27q-40 0 -65 27.5t-25 72.5z" />
    <glyph glyph-name="perthousand" unicode="&#x2030;" horiz-adv-x="2406" 
d="M393 784q-149 0 -241.5 95.5t-92.5 238.5q0 140 92.5 237t241.5 97q147 0 239.5 -97t92.5 -237q0 -142 -92 -238t-240 -96zM1174 1434h98l-869 -1434h-98zM393 877q102 0 165 66.5t63 174.5q0 104 -63.5 173t-164.5 69q-103 0 -166 -68.5t-63 -173.5q0 -108 62.5 -174.5
t166.5 -66.5zM1184 -18q-148 0 -240 95.5t-92 237.5q0 140 92.5 237t239.5 97q149 0 241.5 -97t92.5 -237q0 -142 -92.5 -237.5t-241.5 -95.5zM1954 -18q-148 0 -240 95.5t-92 237.5q0 140 92.5 237t239.5 97q149 0 241.5 -97t92.5 -237q0 -142 -92.5 -237.5t-241.5 -95.5z
M1184 74q104 0 166.5 66.5t62.5 174.5q0 105 -63 173.5t-166 68.5q-101 0 -164.5 -69t-63.5 -173q0 -108 63 -174.5t165 -66.5zM1954 74q104 0 166.5 66.5t62.5 174.5q0 105 -63 173.5t-166 68.5t-166.5 -69t-63.5 -173q0 -108 63 -174.5t167 -66.5z" />
    <glyph glyph-name="guilsinglleft" unicode="&#x2039;" horiz-adv-x="770" 
d="M463 1022h133l-360 -416l360 -422h-133l-354 422z" />
    <glyph glyph-name="guilsinglright" unicode="&#x203a;" horiz-adv-x="770" 
d="M307 1022l355 -416l-355 -422h-133l361 422l-361 416h133z" />
    <glyph glyph-name="fraction" unicode="&#x2044;" horiz-adv-x="329" 
d="M647 1466h92l-1056 -1499h-93z" />
    <glyph glyph-name="uni2070" unicode="&#x2070;" horiz-adv-x="849" 
d="M117 1204q0 217 83.5 350.5t223.5 133.5q143 0 225 -133t82 -351q0 -200 -81 -317t-226 -117q-142 0 -224.5 117.5t-82.5 316.5zM211 1206q0 -167 56 -261.5t157 -94.5q103 0 159 94.5t56 261.5q0 184 -57.5 294t-157.5 110q-98 0 -155.5 -110.5t-57.5 -293.5z" />
    <glyph glyph-name="uni2074" unicode="&#x2074;" horiz-adv-x="849" 
d="M743 1096v-80h-131v-238h-84v238h-424v63l406 600h102v-583h131zM221 1096h307v452h-10l-297 -440v-12z" />
    <glyph glyph-name="uni2075" unicode="&#x2075;" horiz-adv-x="849" 
d="M662 1679v-80h-388l-28 -307h10q61 94 193 94q118 0 191 -82.5t73 -222.5q0 -145 -76.5 -228t-206.5 -83q-138 0 -218 82t-77 217h88q-2 -102 51 -160.5t152 -58.5q94 0 145.5 57.5t51.5 169.5q0 109 -51.5 171.5t-137.5 62.5q-70 0 -123.5 -30.5t-79.5 -86.5h-77l43 485
h465z" />
    <glyph glyph-name="uni2076" unicode="&#x2076;" horiz-adv-x="849" 
d="M446 1378q120 0 196.5 -84t76.5 -215q0 -140 -77 -224.5t-204 -84.5q-150 0 -229.5 110.5t-79.5 325.5q0 227 83 354.5t230 127.5q114 0 180.5 -70.5t71.5 -190.5h-84q-6 83 -51.5 133t-118.5 50q-99 0 -155 -90.5t-64 -257.5h8q82 116 217 116zM442 850q86 0 136.5 59
t50.5 162t-52.5 166t-138.5 63q-71 0 -130.5 -29.5t-88.5 -68.5q0 -352 223 -352z" />
    <glyph glyph-name="uni2077" unicode="&#x2077;" horiz-adv-x="849" 
d="M207 778l379 807v14h-432v80h542v-65l-389 -836h-100z" />
    <glyph glyph-name="uni2078" unicode="&#x2078;" horiz-adv-x="849" 
d="M428 1688q111 0 184.5 -68.5t73.5 -173.5q0 -70 -36.5 -118t-96.5 -66v-7q76 -14 127 -73.5t51 -145.5q0 -116 -87 -191t-218 -75q-132 0 -220.5 74.5t-88.5 189.5q0 86 52.5 146.5t127.5 74.5v7q-60 18 -96.5 65.5t-36.5 116.5q0 106 76 175t188 69zM424 1610
q-75 0 -123.5 -45.5t-48.5 -122.5q0 -67 44 -109.5t128 -42.5q85 0 129.5 43t44.5 111q0 76 -47.5 121t-126.5 45zM424 1214q-102 0 -157.5 -48t-55.5 -126q0 -86 59.5 -138t153.5 -52q96 0 155.5 52t59.5 140q0 77 -55.5 124.5t-159.5 47.5z" />
    <glyph glyph-name="uni2079" unicode="&#x2079;" horiz-adv-x="849" 
d="M420 1688q142 0 220.5 -118.5t78.5 -326.5q0 -228 -80 -350.5t-229 -122.5q-117 0 -192.5 75t-78.5 189h84q2 -77 55 -131.5t136 -54.5q95 0 151 90.5t62 255.5h-9q-37 -47 -69 -69q-66 -46 -154 -46q-120 0 -193 78.5t-73 212.5q0 136 83 227t208 91zM406 1157
q76 0 134 32t89 79q-3 161 -57 250.5t-152 89.5q-89 0 -145 -63.5t-56 -166.5q0 -107 49.5 -164t137.5 -57z" />
    <glyph glyph-name="uni2080" unicode="&#x2080;" horiz-adv-x="849" 
d="M117 -25q0 217 83.5 350.5t223.5 133.5q143 0 225 -133t82 -351q0 -200 -81 -317t-226 -117q-142 0 -224.5 117.5t-82.5 316.5zM211 -23q0 -167 56 -261.5t157 -94.5q103 0 159 94.5t56 261.5q0 184 -57.5 294t-157.5 110q-98 0 -155.5 -110.5t-57.5 -293.5z" />
    <glyph glyph-name="uni2081" unicode="&#x2081;" horiz-adv-x="849" 
d="M184 260l279 191h78v-902h-90v793h-11l-223 -154z" />
    <glyph glyph-name="uni2082" unicode="&#x2082;" horiz-adv-x="847" 
d="M227 164h-86q-2 44 15.5 94t51.5 95.5t93 75.5t131 30q121 0 193.5 -76.5t72.5 -202.5q0 -106 -44.5 -184t-127.5 -152l-219 -209v-10h395v-76h-538l-4 58l309 295q66 65 100.5 127t34.5 149q0 96 -47 151.5t-131 55.5q-63 0 -110 -34t-68.5 -83.5t-20.5 -103.5z" />
    <glyph glyph-name="uni2083" unicode="&#x2083;" horiz-adv-x="849" 
d="M563 29q66 -22 107 -74t41 -133q0 -123 -80 -202t-203 -79q-131 0 -212 89t-79 223h90q-2 -105 53.5 -168.5t153.5 -63.5q85 0 133.5 52t48.5 143q0 79 -46.5 124.5t-129.5 45.5h-88v75h84q81 0 122.5 43.5t41.5 112.5q0 77 -47.5 122.5t-124.5 45.5q-92 0 -144.5 -59.5
t-52.5 -153.5h-86q0 123 79 205t204 82q113 0 187.5 -67t74.5 -169q0 -71 -37 -121.5t-90 -64.5v-8z" />
    <glyph glyph-name="uni2084" unicode="&#x2084;" horiz-adv-x="849" 
d="M743 -133v-80h-131v-238h-84v238h-424v63l406 601h102v-584h131zM221 -133h307v452h-10l-297 -440v-12z" />
    <glyph glyph-name="uni2085" unicode="&#x2085;" horiz-adv-x="849" 
d="M662 451v-80h-388l-28 -308h10q27 42 76 68.5t117 26.5q118 0 191 -82.5t73 -222.5q0 -145 -76.5 -228.5t-206.5 -83.5q-138 0 -218 82t-77 217h88q-2 -102 51 -160.5t152 -58.5q94 0 145.5 57.5t51.5 169.5q0 109 -51.5 171.5t-137.5 62.5q-70 0 -123.5 -30.5
t-79.5 -86.5h-77l43 486h465z" />
    <glyph glyph-name="uni2086" unicode="&#x2086;" horiz-adv-x="849" 
d="M446 150q120 0 196.5 -84.5t76.5 -215.5q0 -140 -77 -224.5t-204 -84.5q-150 0 -229.5 110.5t-79.5 325.5q0 227 83 354.5t230 127.5q114 0 180.5 -70t71.5 -190h-84q-6 83 -51.5 132.5t-118.5 49.5q-99 0 -155 -90.5t-64 -257.5h8q83 117 217 117zM442 -379
q86 0 136.5 59t50.5 162t-52.5 166.5t-138.5 63.5q-71 0 -130.5 -29.5t-88.5 -69.5q0 -352 223 -352z" />
    <glyph glyph-name="uni2087" unicode="&#x2087;" horiz-adv-x="849" 
d="M207 -451l379 807v15h-432v80h542v-66l-389 -836h-100z" />
    <glyph glyph-name="uni2088" unicode="&#x2088;" horiz-adv-x="849" 
d="M428 459q111 0 184.5 -68.5t73.5 -173.5q0 -70 -36.5 -118t-96.5 -66v-6q76 -14 127 -73.5t51 -146.5q0 -116 -87 -191t-218 -75q-132 0 -220.5 74.5t-88.5 189.5q0 86 52.5 147t127.5 75v6q-60 18 -96.5 65.5t-36.5 116.5q0 106 76 175t188 69zM424 381
q-75 0 -123.5 -45.5t-48.5 -122.5q0 -67 44 -109.5t128 -42.5q85 0 129.5 43t44.5 111q0 76 -47.5 121t-126.5 45zM424 -14q-102 0 -157.5 -48t-55.5 -126q0 -86 59.5 -138.5t153.5 -52.5q96 0 155.5 52.5t59.5 140.5q0 77 -55.5 124.5t-159.5 47.5z" />
    <glyph glyph-name="uni2089" unicode="&#x2089;" horiz-adv-x="849" 
d="M420 459q142 0 220.5 -118.5t78.5 -326.5q0 -228 -80 -350.5t-229 -122.5q-117 0 -192.5 75t-78.5 189h84q2 -77 55 -131.5t136 -54.5q95 0 151 90.5t62 255.5h-9q-37 -47 -69 -69q-66 -46 -154 -46q-120 0 -193 78.5t-73 212.5q0 136 83 227t208 91zM406 -72
q76 0 134 32t89 79q-3 161 -57 250.5t-152 89.5q-89 0 -145 -63.5t-56 -165.5q0 -107 49.5 -164.5t137.5 -57.5z" />
    <glyph glyph-name="Euro" unicode="&#x20ac;" horiz-adv-x="1191" 
d="M885 98q116 0 209 19v-94q-104 -23 -213 -23q-269 0 -423.5 138.5t-187.5 389.5h-157l6 78h145q-2 18 -2 58q0 83 8 151h-141l6 78h150q17 89 47.5 166.5t80.5 147.5t115.5 119.5t156 78.5t198.5 29q87 0 186 -21v-92q-101 14 -184 14q-115 0 -203.5 -35.5t-145 -99
t-90 -139t-49.5 -168.5h514l-6 -78h-520q-6 -67 -6 -133q0 -51 2 -76h514l-6 -78h-500q62 -430 496 -430z" />
    <glyph glyph-name="uni20BF" unicode="&#x20bf;" horiz-adv-x="1302" 
d="M1137 418q0 -143 -88 -245t-248 -126l10 -244h-96v238h-199v-238h-96l8 238h-219v1352h217l-6 211h96v-211h199v211h96l-8 -220q133 -22 211 -105.5t78 -201.5q0 -120 -57.5 -203t-143.5 -106q114 -23 180 -117t66 -233zM698 1290h-383v-481h437q54 0 95.5 17t65 43
t38.5 62t19.5 67t4.5 65q0 105 -70.5 166t-206.5 61zM694 143q89 0 154.5 23.5t102 64.5t54 88.5t17.5 102.5q0 128 -69.5 206.5t-200.5 78.5h-437v-564h379z" />
    <glyph glyph-name="trademark" unicode="&#x2122;" horiz-adv-x="1384" 
d="M606 1434v-64h-205v-512h-73v512h-199v64h477zM1253 1434v-576h-65v494h-8l-185 -445h-55l-182 445h-6v-494h-68v576h102l185 -447l186 447h96z" />
    <glyph glyph-name="onethird" unicode="&#x2153;" horiz-adv-x="1947" 
d="M184 1284l279 191h78v-902h-90v793h-11l-223 -154zM1436 1466h92l-1057 -1499h-92zM1661 438q65 -22 106 -74t41 -133q0 -123 -79.5 -201.5t-202.5 -78.5q-132 0 -212.5 88.5t-78.5 222.5h90q-2 -104 53.5 -167.5t153.5 -63.5q85 0 133.5 51.5t48.5 142.5
q0 79 -46.5 124.5t-129.5 45.5h-88v76h84q81 0 122.5 43.5t41.5 112.5q0 77 -47.5 122.5t-124.5 45.5q-92 0 -144.5 -59.5t-52.5 -153.5h-86q0 123 79 204.5t204 81.5q113 0 187.5 -66.5t74.5 -168.5q0 -71 -37 -122t-90 -65v-8z" />
    <glyph glyph-name="twothirds" unicode="&#x2154;" horiz-adv-x="2007" 
d="M227 1180h-86q-2 44 15.5 94t51.5 95.5t93 75.5t131 30q121 0 193.5 -76.5t72.5 -202.5q0 -106 -44.5 -184t-127.5 -152l-219 -209v-10h395v-76h-538l-4 58l309 295q66 65 100.5 127t34.5 149q0 96 -47 151.5t-131 55.5q-63 0 -110 -34t-68.5 -83.5t-20.5 -103.5z
M1495 1466h92l-1057 -1499h-92zM1720 438q66 -22 107 -74t41 -133q0 -123 -80 -201.5t-203 -78.5q-132 0 -212.5 88.5t-78.5 222.5h90q-2 -104 53.5 -167.5t153.5 -63.5q85 0 134 51.5t49 142.5q0 78 -47 124t-130 46h-88v76h84q81 0 122.5 43.5t41.5 112.5
q0 77 -47.5 122.5t-124.5 45.5q-92 0 -144 -59t-52 -154h-86q0 123 78.5 204.5t203.5 81.5q113 0 187.5 -66.5t74.5 -168.5q0 -71 -37 -122t-90 -65v-8z" />
    <glyph glyph-name="oneeighth" unicode="&#x215b;" horiz-adv-x="1927" 
d="M184 1284l279 191h78v-902h-90v793h-11l-223 -154zM1436 1466h92l-1057 -1499h-92zM1505 868q111 0 184.5 -68t73.5 -173q0 -70 -36.5 -118.5t-96.5 -66.5v-6q76 -14 127 -73.5t51 -145.5q0 -116 -87 -191t-218 -75q-132 0 -220.5 74.5t-88.5 189.5q0 86 52.5 146.5
t127.5 74.5v6q-60 18 -96.5 66t-36.5 117q0 106 76 174.5t188 68.5zM1501 791q-75 0 -123.5 -45.5t-48.5 -122.5q0 -67 44 -109.5t128 -42.5q85 0 129.5 43t44.5 111q0 76 -47.5 121t-126.5 45zM1501 395q-102 0 -157.5 -48t-55.5 -126q0 -86 59.5 -138t153.5 -52
q96 0 155.5 52t59.5 140q0 77 -55.5 124.5t-159.5 47.5z" />
    <glyph glyph-name="threeeighths" unicode="&#x215c;" horiz-adv-x="1988" 
d="M563 1053q66 -22 107 -74t41 -133q0 -123 -80 -202t-203 -79q-131 0 -212 89t-79 223h90q-2 -105 53.5 -168.5t153.5 -63.5q85 0 133.5 52t48.5 143q0 79 -46.5 124.5t-129.5 45.5h-88v75h84q81 0 122.5 43.5t41.5 112.5q0 77 -47.5 122.5t-124.5 45.5
q-92 0 -144.5 -59.5t-52.5 -153.5h-86q0 123 79 205t204 82q113 0 187.5 -67t74.5 -169q0 -71 -37 -121.5t-90 -64.5v-8zM1497 1466h92l-1057 -1499h-92zM1567 868q111 0 184.5 -68t73.5 -173q0 -70 -36.5 -118.5t-96.5 -66.5v-6q76 -14 127 -73.5t51 -145.5
q0 -116 -87 -191t-218 -75q-132 0 -221 75t-89 189q0 86 52.5 146.5t128.5 74.5v6q-60 18 -96.5 66t-36.5 117q0 106 76 174.5t188 68.5zM1563 791q-75 0 -123.5 -45.5t-48.5 -122.5q0 -67 44 -109.5t128 -42.5q85 0 129.5 43t44.5 111q0 76 -47.5 121t-126.5 45zM1563 395
q-102 0 -157.5 -48t-55.5 -126q0 -86 59.5 -138t153.5 -52q96 0 155.5 52t59.5 140q0 77 -55.5 124.5t-159.5 47.5z" />
    <glyph glyph-name="fiveeighths" unicode="&#x215d;" horiz-adv-x="1988" 
d="M662 1475v-80h-388l-28 -308h10q27 42 76 68.5t117 26.5q118 0 191 -82.5t73 -222.5q0 -145 -76.5 -228.5t-206.5 -83.5q-138 0 -218 82t-77 217h88q-2 -102 51 -160.5t152 -58.5q94 0 145.5 57.5t51.5 169.5q0 109 -51.5 171.5t-137.5 62.5q-70 0 -123.5 -30.5
t-79.5 -86.5h-77l43 486h465zM1497 1466h92l-1057 -1499h-92zM1567 868q111 0 184.5 -68t73.5 -173q0 -70 -36.5 -118.5t-96.5 -66.5v-6q76 -14 127 -73.5t51 -145.5q0 -116 -87 -191t-218 -75q-132 0 -221 75t-89 189q0 86 52.5 146.5t128.5 74.5v6q-60 18 -96.5 66
t-36.5 117q0 106 76 174.5t188 68.5zM1563 791q-75 0 -123.5 -45.5t-48.5 -122.5q0 -67 44 -109.5t128 -42.5q85 0 129.5 43t44.5 111q0 76 -47.5 121t-126.5 45zM1563 395q-102 0 -157.5 -48t-55.5 -126q0 -86 59.5 -138t153.5 -52q96 0 155.5 52t59.5 140
q0 77 -55.5 124.5t-159.5 47.5z" />
    <glyph glyph-name="seveneighths" unicode="&#x215e;" horiz-adv-x="1845" 
d="M207 573l379 807v15h-432v80h542v-66l-389 -836h-100zM1354 1466h92l-1057 -1499h-92zM1423 868q111 0 184.5 -68t73.5 -173q0 -70 -36.5 -118.5t-96.5 -66.5v-6q76 -14 127 -73.5t51 -145.5q0 -116 -87 -191t-218 -75q-132 0 -220.5 74.5t-88.5 189.5q0 86 52.5 146.5
t127.5 74.5v6q-60 18 -96.5 66t-36.5 117q0 106 76 174.5t188 68.5zM1419 791q-75 0 -123.5 -45.5t-48.5 -122.5q0 -67 44 -109.5t128 -42.5q85 0 129.5 43t44.5 111q0 76 -47.5 121t-126.5 45zM1419 395q-102 0 -157.5 -48t-55.5 -126q0 -86 59.5 -138t153.5 -52
q96 0 155.5 52t59.5 140q0 77 -55.5 124.5t-159.5 47.5z" />
    <glyph glyph-name="arrowleft" unicode="&#x2190;" 
d="M614 1032l13 -6l-29 -205h485v-209h-485l29 -204l-13 -7l-454 316z" />
    <glyph glyph-name="arrowup" unicode="&#x2191;" 
d="M930 717l-6 -12l-205 28v-485h-209v485l-205 -28l-6 12l315 454z" />
    <glyph glyph-name="arrowright" unicode="&#x2192;" 
d="M614 401l-12 7l29 204h-486v209h486l-29 205l12 6l455 -315z" />
    <glyph glyph-name="arrowdown" unicode="&#x2193;" 
d="M299 717l6 12l205 -29v486h209v-486l205 29l6 -12l-316 -455z" />
    <glyph glyph-name="arrowboth" unicode="&#x2194;" 
d="M825 1032l414 -315l-414 -316l-14 7l29 204h-451l29 -204l-15 -7l-413 316l413 315l15 -6l-29 -205h451l-29 205z" />
    <glyph glyph-name="arrowupdn" unicode="&#x2195;" 
d="M719 449l205 26l6 -12l-316 -414l-315 414l6 12l205 -26v536l-205 -27l-6 13l315 413l316 -413l-6 -13l-205 27v-536z" />
    <glyph glyph-name="uni2196" unicode="&#x2196;" 
d="M838 940l4 -14l-164 -125l342 -342l-150 -150l-342 344l-125 -166l-14 7l-96 542z" />
    <glyph glyph-name="uni2197" unicode="&#x2197;" 
d="M838 494l-15 -5l-125 164l-342 -342l-149 150l344 342l-166 125l6 14l543 96z" />
    <glyph glyph-name="uni2198" unicode="&#x2198;" 
d="M391 494l-4 14l164 125l-342 342l149 149l342 -344l125 166l15 -6l96 -543z" />
    <glyph glyph-name="uni2199" unicode="&#x2199;" 
d="M391 940l15 4l124 -164l342 342l150 -149l-344 -342l166 -125l-6 -14l-543 -97z" />
    <glyph glyph-name="partialdiff" unicode="&#x2202;" 
d="M403 1540q66 -15 128 -37.5t130 -60t125.5 -84.5t111 -114.5t90.5 -147.5t59 -185.5t22 -226.5q0 -104 -15.5 -201t-52.5 -190t-92 -161.5t-141.5 -110t-194.5 -41.5q-91 0 -169.5 28.5t-139 83.5t-95 142.5t-34.5 197.5q0 141 53 258t155.5 187.5t234.5 70.5
q72 0 135.5 -18.5t109.5 -49.5t76.5 -60t54.5 -62h11q-4 131 -43 240.5t-97 183t-137 130t-154 88t-157 50.5zM567 78q87 0 155 33.5t111.5 89t71.5 133t39.5 159t11.5 173.5q-130 190 -346 190q-77 0 -139.5 -25t-103.5 -66.5t-69 -97t-40 -114t-12 -119.5
q0 -167 85 -261.5t236 -94.5z" />
    <glyph glyph-name="emptyset" unicode="&#x2205;" horiz-adv-x="1421" 
d="M1141 938q145 -164 145 -383q0 -158 -77 -290.5t-209.5 -208.5t-288.5 -76q-219 0 -383 145l-97 -96l-47 47l97 96q-69 77 -107.5 176t-38.5 207q0 156 77.5 288.5t210 209.5t288.5 77q219 0 383 -145l96 96l47 -47zM246 555q0 -179 108 -309l668 667q-130 117 -311 117
q-201 0 -333 -139.5t-132 -335.5zM711 80q134 0 241 65t165.5 173t58.5 237q0 178 -109 309l-668 -667q130 -117 312 -117z" />
    <glyph glyph-name="product" unicode="&#x220f;" horiz-adv-x="1384" 
d="M1249 1434v-109h-215v-1628h-110v1628h-463v-1628h-111v1628h-215v109h1114z" />
    <glyph glyph-name="summation" unicode="&#x2211;" horiz-adv-x="1054" 
d="M920 1434v-109h-646l373 -727v-63l-373 -730h646v-108h-785v80l404 788l-404 789v80h785z" />
    <glyph glyph-name="minus" unicode="&#x2212;" 
d="M238 637h753v-86h-753v86z" />
    <glyph glyph-name="radical" unicode="&#x221a;" horiz-adv-x="1200" 
d="M901 1434h234v-109h-152l-547 -1628h-28l-328 1014h123l215 -734h12z" />
    <glyph glyph-name="infinity" unicode="&#x221e;" horiz-adv-x="1830" 
d="M492 1008q65 0 124.5 -23t113 -67.5t95 -90.5t90.5 -112q49 66 91 112.5t95.5 90.5t113 67t124.5 23q142 0 249.5 -110.5t107.5 -256.5q0 -145 -103 -260t-254 -115q-39 0 -76.5 9.5t-67 22.5t-64 39t-57 46t-56 57.5t-51 59.5t-52.5 65q-35 -44 -52.5 -65.5t-51 -59.5
t-56 -57.5t-56.5 -46t-63.5 -39t-67 -22t-76.5 -9.5q-151 0 -254 115t-103 260q0 146 107.5 256.5t249.5 110.5zM854 641q-47 66 -84.5 111.5t-84 87t-96.5 62t-104 20.5q-101 0 -178.5 -81.5t-77.5 -199.5q0 -111 71.5 -200t182.5 -89q25 0 49.5 5t44.5 11.5t42.5 21.5
t38 25t37.5 32.5t33.5 34t33.5 39t30.5 38.5t31.5 42t30 40zM1346 922q-54 0 -104 -20.5t-96.5 -62t-84 -87t-84.5 -111.5q7 -9 33 -44t35 -47t33.5 -42.5t38.5 -43t38 -35t43.5 -33t44.5 -23t51 -17t54 -4.5q111 0 182.5 89t71.5 200q0 118 -77.5 199.5t-178.5 81.5z" />
    <glyph glyph-name="integral" unicode="&#x222b;" horiz-adv-x="913" 
d="M840 1360q-82 20 -125 20q-59 0 -91 -42.5t-49 -151.5l-159 -1233q-22 -150 -75 -207t-144 -57q-64 0 -148 20l10 98q86 -28 123 -28q55 0 81.5 30.5t39.5 116.5l166 1278q22 153 75.5 211t151.5 58q42 0 154 -15z" />
    <glyph glyph-name="approxequal" unicode="&#x2248;" 
d="M180 647q0 114 63.5 189t166.5 75q56 0 103 -23.5t80.5 -56.5t65 -66.5t72 -57t86.5 -23.5q67 0 105.5 49.5t38.5 128.5h88q0 -116 -63.5 -191t-166.5 -75q-56 0 -103 23.5t-80.5 57t-65 66.5t-72 56.5t-86.5 23.5q-67 0 -105.5 -49.5t-38.5 -126.5h-88zM180 238
q0 114 63.5 189t166.5 75q56 0 103 -23.5t80.5 -57t65 -67t72 -57t86.5 -23.5q67 0 105.5 50t38.5 129h88q0 -116 -63.5 -191.5t-166.5 -75.5q-56 0 -103 23.5t-80.5 57t-65 67t-72 57t-86.5 23.5q-67 0 -105.5 -49.5t-38.5 -126.5h-88z" />
    <glyph glyph-name="notequal" unicode="&#x2260;" 
d="M991 758h-268l-135 -324h403v-86h-440l-94 -225h-82l94 225h-231v86h268l135 324h-403v86h438l96 227h82l-96 -227h233v-86z" />
    <glyph glyph-name="lessequal" unicode="&#x2264;" 
d="M1073 983l-801 -301v-12l801 -301v-95l-917 355v94l917 354v-94zM1073 88v-88h-917v88h917z" />
    <glyph glyph-name="greaterequal" unicode="&#x2265;" 
d="M156 983v94l917 -354v-94l-917 -355v95l800 301v12zM156 88h917v-88h-917v88z" />
    <glyph glyph-name="lozenge" unicode="&#x25ca;" 
d="M616 1434l328 -717l-328 -717h-106l-326 717l326 717h106zM573 119l256 598l-256 598h-16l-256 -598l256 -598h16z" />
    <glyph glyph-name="uni2605" unicode="&#x2605;" horiz-adv-x="1447" 
d="M137 670q0 118 24.5 231.5t74 214.5t118 178t164 121.5t205.5 44.5t205.5 -44.5t164 -121.5t118 -178t74 -214.5t24.5 -231.5q0 -159 -46 -291t-125.5 -220t-186 -136t-228.5 -48t-228.5 48t-186 136t-125.5 220t-46 291z" />
    <glyph glyph-name="heart" unicode="&#x2665;" horiz-adv-x="1808" 
d="M903 20l-342 291q-48 41 -69.5 60t-62 56t-59.5 58t-50.5 57t-46.5 61.5t-34.5 62.5t-28.5 70.5t-15.5 74.5t-6.5 84q0 187 105.5 283t281.5 96q206 0 328 -148q122 148 328 148q176 0 282.5 -96t106.5 -283q0 -43 -6.5 -84t-15.5 -74.5t-29 -70.5t-35 -63t-46 -61.5
t-50.5 -57t-60 -58.5t-62 -56t-68.5 -59z" />
    <glyph glyph-name="uni00A40301" horiz-adv-x="1419" 
d="M1075 1815l-262 -263h-94l231 263h125zM1219 1434v-861q0 -279 -134 -438.5t-380 -159.5q-137 0 -245.5 51.5t-175.5 140t-101.5 201.5t-32.5 242h110q-1 -78 15 -152.5t51 -143.5t86 -121.5t126.5 -83.5t166.5 -31q195 0 299 131t104 366v750h-516v109h627z" />
    <glyph glyph-name="i.loclTRK" horiz-adv-x="444" 
d="M221 1255q-35 0 -58.5 23.5t-23.5 58.5t23.5 58.5t58.5 23.5t58.5 -23.5t23.5 -58.5t-23.5 -58.5t-58.5 -23.5zM168 1110h108v-1110h-108v1110z" />
    <glyph glyph-name="uni006A0301" horiz-adv-x="489" 
d="M299 1491h125l-262 -262h-94zM215 1110h109v-1196q0 -146 -63.5 -220.5t-182.5 -74.5q-45 0 -93 17.5t-83 44.5l26 71q68 -35 129 -35q85 0 121.5 50.5t36.5 160.5v1182z" />
    <glyph glyph-name="F_J" horiz-adv-x="2093" 
d="M961 690h-664v-690h-111v1434h795v-109h-684v-528h664v-107zM1268 1434h626v-861q0 -279 -134 -438.5t-380 -159.5q-176 0 -300 82t-187 222l90 69q51 -122 150.5 -196t244.5 -74q195 0 300.5 131t105.5 366v750h-516v109z" />
    <glyph glyph-name="T_J" horiz-adv-x="2320" 
d="M1208 1325h-491v-1325h-111v1325h-479v109h1081v-109zM1495 1434h627v-861q0 -279 -134 -438.5t-380 -159.5q-176 0 -300.5 82t-189.5 222l92 69q51 -122 150.5 -196t245.5 -74q195 0 300 131t105 366v750h-516v109z" />
    <glyph glyph-name="f_b" horiz-adv-x="1953" 
d="M1401 1128q109 0 196.5 -49t142 -132t83 -186.5t28.5 -217.5q0 -132 -39 -240t-105.5 -177t-153.5 -106.5t-185 -37.5q-93 0 -189.5 36t-168.5 91l-17 -109h-84v1577h107v-588q70 54 173.5 96.5t211.5 42.5zM248 1276q0 145 65.5 220t182.5 75q95 0 178 -49v-92
q-81 43 -160 43q-82 0 -121 -50.5t-39 -162.5v-150h318v-84h-318v-1026h-106v1026h-176v84h176v166zM1350 80q175 0 282 119.5t107 347.5q0 99 -22 185t-65.5 154t-115.5 107t-166 39q-98 0 -194 -38.5t-160 -96.5v-711q71 -48 162 -77t172 -29z" />
    </font>
</defs>
</svg>
