<svg width="500" height="500" viewBox="0 0 500 500" fill="none" xmlns="http://www.w3.org/2000/svg">
<g clip-path="url(#clip0)">
<path d="M385.194 385.197C459.862 310.53 459.862 189.47 385.194 114.802C310.527 40.1348 189.467 40.1348 114.799 114.802C40.1315 189.47 40.1315 310.53 114.799 385.197C189.467 459.865 310.527 459.865 385.194 385.197Z" fill="#FFD053"/>
<path d="M350.1 86.8C369.1 116.5 380.2 151.9 380.2 189.8C380.2 295.4 294.6 381 189 381C152.3 381 118.1 370.7 88.9 352.8C122.9 405.9 182.4 441 250 441C355.6 441 441.2 355.4 441.2 249.8C441.2 180.8 404.8 120.4 350.1 86.8Z" fill="#FFC448"/>
<path d="M84.8 270.2C84.8 172.1 164.3 92.7 262.3 92.7C319.6 92.7 370.6 119.9 403 162C372.3 108.8 314.9 72.9 249 72.9C150.9 72.9 71.5 152.4 71.5 250.4C71.5 291.1 85.2 328.7 108.3 358.6C93.3 332.6 84.8 302.4 84.8 270.2Z" fill="#FFD77A"/>
<path d="M290.4 326.9C279.5 317.5 264.8 312.2 250 312.4C235.5 312.5 220.9 317.8 209.9 326.9C204.4 331.6 199.7 337.3 196.5 343.5C193.1 350.2 191.3 357 191.3 363.6C191.3 365.2 192.3 366.6 193.8 367.1C195.3 367.6 197 367.1 197.9 365.9C201.9 360.8 205.6 356.7 209.4 353.5C213.4 350.1 217.7 347.2 222.2 345C231 340.6 240.7 338.2 250.3 338.2C260.2 338.1 269.5 340.3 278.1 344.8C287 349.3 295.1 356.4 302.3 365.9C303 366.8 304.1 367.4 305.2 367.4C305.6 367.4 306 367.3 306.4 367.2C307.9 366.7 308.9 365.3 308.9 363.7C308.6 350.3 301.7 336.6 290.4 326.9Z" fill="#654735"/>
<path d="M387.6 281C385.1 280.3 382.7 279.6 380.2 278.9C375 277.5 370.1 276.1 365.4 274.4C358.3 272 351.9 269.3 345.9 266.1C339.6 262.8 333.8 259 328.3 254.7C322.3 250 316.7 244.5 311.5 239.3C311 238.8 310.1 238.6 309.4 238.9C308.7 239.2 308.3 239.9 308.3 240.7C308.7 248.8 311.9 257.2 317.6 264.9C322.8 271.9 329.7 277.7 337.6 281.9C345 285.8 353.4 288.2 361.7 288.8L362.7 288.9C363.9 289 365 289 366.1 289C374.1 289 381.4 287.5 387.9 284.4C388.6 284.1 389 283.3 389 282.6C388.9 281.8 388.4 281.2 387.6 281Z" fill="#2C2C2C"/>
<path d="M190.5 238.9C189.8 238.6 189 238.8 188.4 239.3C183.3 244.5 177.7 250 171.6 254.7C166.1 259 160.3 262.8 154 266.1C148 269.3 141.6 272 134.5 274.4C129.8 276 124.9 277.4 119.6 278.9C117.2 279.6 114.8 280.2 112.3 281C111.6 281.2 111 281.9 111 282.6C110.9 283.4 111.4 284.1 112.1 284.4C118.5 287.4 125.8 289 133.9 289C135 289 136.2 289 137.3 288.9L138.3 288.8C146.7 288.2 155 285.8 162.4 281.9C170.3 277.8 177.2 271.9 182.4 264.9C188.1 257.2 191.3 248.8 191.6 240.7C191.6 240 191.2 239.3 190.5 238.9Z" fill="#2C2C2C"/>
</g>
<defs>
<clipPath id="clip0">
<rect width="500" height="500" fill="white"/>
</clipPath>
</defs>
</svg>
