<svg width="17" height="30" viewBox="0 0 17 30" fill="none" xmlns="http://www.w3.org/2000/svg">
<path d="M16.1693 18.992C16.1693 11.28 4.48925 14.192 4.48925 8.784C4.48925 6.768 6.12125 5.904 8.26525 5.904C10.7613 5.904 12.2653 7.12 13.0013 7.76L14.5373 5.84C13.5773 4.976 12.0093 3.888 9.48125 3.632L9.67325 0.943998H6.92125L7.11325 3.696C3.65725 4.176 1.86525 6.576 1.86525 9.296C1.86525 16.272 13.4813 13.488 13.4813 19.312C13.4813 21.904 11.2093 23.632 8.48925 23.632C5.44925 23.632 3.56125 21.552 2.47325 19.472L0.39325 20.72C1.16125 23.216 3.84925 25.36 7.14525 25.872L6.92125 29.072H9.67325L9.48125 25.968C13.3853 25.616 16.1693 22.768 16.1693 18.992Z" fill="#6699CC"/>
</svg>
