<svg width="14" height="19" viewBox="0 0 14 19" fill="none" xmlns="http://www.w3.org/2000/svg">
<path d="M5.17281 18.12C4.75681 18.12 4.38081 18.104 4.04481 18.072C3.70881 18.056 3.42081 18.032 3.18081 18V10.176L0.612813 11.064V9.504L3.18081 8.64V6.744L0.612813 7.608V6.048L3.18081 5.184V0.863999H5.24481V4.464L10.1888 2.76V4.32L5.24481 6.024V7.92L10.1888 6.216V7.752L5.24481 9.48V16.296C6.70081 16.296 7.85281 16 8.70081 15.408C9.54881 14.8 10.1568 13.992 10.5248 12.984C10.8928 11.976 11.0768 10.848 11.0768 9.6H13.1408C13.1408 10.704 12.9968 11.768 12.7088 12.792C12.4368 13.816 11.9808 14.728 11.3408 15.528C10.7168 16.328 9.90081 16.96 8.89281 17.424C7.88481 17.888 6.64481 18.12 5.17281 18.12Z" fill="#C9FFC7"/>
</svg>
